<?xml version="1.0" standalone="no"?>
<!DOCTYPE svg PUBLIC "-//W3C//DTD SVG 1.1//EN" "http://www.w3.org/Graphics/SVG/1.1/DTD/svg11.dtd" >
<svg xmlns="http://www.w3.org/2000/svg" xmlns:xlink="http://www.w3.org/1999/xlink" version="1.1">
<metadata>
Created by FontForge 20170731 at Wed Feb 22 19:30:39 2012
 By Aleksey,,,
Copyright (c) 2011-2012 Durotype, www.durotype.com. All rights reserved.
</metadata>
<defs>
<font id="Flexo-BoldIt" horiz-adv-x="1970" >
  <font-face 
    font-family="Flexo"
    font-weight="700"
    font-style="italic"
    font-stretch="normal"
    units-per-em="3333"
    panose-1="0 0 0 0 0 0 0 0 0 0"
    ascent="2633"
    descent="-700"
    x-height="1781"
    cap-height="2330"
    bbox="-655 -832 4302 3205"
    underline-thickness="167"
    underline-position="-894"
    slope="-9"
    unicode-range="U+0020-FB04"
  />
<missing-glyph horiz-adv-x="2081" 
d="M209 0v2400h1663v-2400h-1663zM941 1200l-565 874v-1748zM1606 171l-565 875l-566 -875h1131zM1606 2228h-1131l566 -874zM1706 2074l-565 -874l565 -874v1748z" />
    <glyph glyph-name="f_f" unicode="ff" horiz-adv-x="2367" 
d="M264 1781h287l25 155q43 269 207 413t444 144q127 0 263 -19l-81 -311h-135q-227 0 -263 -225l-25 -157h698l25 155q43 269 207 413t444 144q125 0 263 -19l-82 -311h-134q-225 0 -263 -225l-26 -157h359l-53 -338h-359l-229 -1443h-434l229 1443h-699l-228 -1443h-435
l229 1443h-288z" />
    <glyph glyph-name="fi" unicode="fi" horiz-adv-x="2146" 
d="M1819 0h-439l229 1443h-676l-229 -1443h-435l229 1443h-288l54 338h287l25 155q43 269 207 413t444 144q127 0 263 -19l-81 -311h-135q-224 0 -262 -225l-26 -157h1115zM1689 2157q0 34 8 85q23 140 87.5 195.5t208.5 55.5q122 0 173.5 -38t51.5 -129q0 -34 -8 -84
q-22 -140 -86 -195.5t-210 -55.5q-122 0 -173.5 38t-51.5 128z" />
    <glyph glyph-name="fl" unicode="fl" horiz-adv-x="2124" 
d="M551 1781l25 155q43 269 207 413t444 144q473 0 956 -24l-313 -1983q-11 -74 -11 -130q0 -136 69 -260l-413 -184q-104 151 -104 357q0 87 16 184l271 1710h-424q-225 0 -263 -225l-26 -157h359l-53 -338h-359l-229 -1443h-434l229 1443h-288l54 338h287z" />
    <glyph glyph-name="f_f_i" unicode="ffi" horiz-adv-x="3279" 
d="M551 1781l25 155q43 269 207 413t444 144q124 0 264 -19l-82 -311h-135q-227 0 -263 -225l-25 -157h698l25 155q43 269 207 413t444 144q125 0 263 -19l-81 -311h-135q-228 0 -264 -225l-25 -157h1115l-282 -1781h-438l229 1443h-678l-228 -1443h-434l228 1443h-698
l-228 -1443h-435l229 1443h-288l53 338h288zM3046 1991q-121 0 -172.5 38t-51.5 128q0 34 8 85q23 140 87.5 195.5t208.5 55.5q121 0 173 -38t52 -128q0 -34 -8 -85q-22 -140 -86.5 -195.5t-210.5 -55.5z" />
    <glyph glyph-name="f_f_l" unicode="ffl" horiz-adv-x="3258" 
d="M2477 1781l-54 -338h-358l-228 -1443h-434l228 1443h-699l-228 -1443h-434l228 1443h-288l54 338h288l24 155q43 269 207 413t444 144q126 0 264 -19l-82 -311h-135q-227 0 -263 -225l-25 -157h699l24 155q43 269 207 413t444 144q472 0 957 -24l-314 -1983
q-11 -74 -11 -128q0 -135 70 -262l-413 -184q-104 151 -104 357q0 87 16 184l271 1710h-425q-227 0 -263 -225l-25 -157h358z" />
    <glyph glyph-name="f_b" unicode="fb" horiz-adv-x="3145" 
d="M551 1781l25 155q43 269 207 413t444 144q472 0 956 -24l-111 -702q180 38 339 38q171 0 291.5 -31t205 -100.5t124.5 -184t40 -279.5q0 -136 -29 -319q-42 -263 -116 -438.5t-194.5 -281.5t-278.5 -150.5t-383 -44.5q-190 0 -370 41t-307 124q13 167 40 338l267 1684
h-427q-227 0 -263 -225l-25 -157h358l-53 -338h-358l-229 -1443h-435l229 1443h-288l54 338h287zM2126 324q78 0 141.5 17t108 43.5t80.5 72t58 88t41 107.5t28.5 115t21.5 124q29 186 29 263q0 73 -16.5 125t-56.5 93.5t-113.5 62t-180.5 20.5q-122 0 -251 -39l-127 -806
q-23 -141 -27 -239q91 -47 264 -47z" />
    <glyph glyph-name="f_f_b" unicode="ffb" horiz-adv-x="4278" 
d="M2064 1443l-228 -1443h-434l228 1443h-698l-228 -1443h-435l229 1443h-288l53 338h288l25 155q43 269 207 413t444 144q124 0 264 -19l-82 -311h-135q-227 0 -263 -225l-25 -157h698l25 155q43 269 207 413t444 144q472 0 956 -24l-111 -702q178 38 339 38
q171 0 291.5 -31t205 -100.5t124.5 -184t40 -279.5q0 -136 -29 -319q-42 -263 -116 -438.5t-195 -281.5t-279 -150.5t-383 -44.5q-190 0 -369.5 41t-306.5 124q12 174 38 338l268 1684h-426q-228 0 -264 -225l-25 -157h359l-53 -338h-360zM2995 371q91 -47 263 -47
q78 0 141.5 17t108.5 43.5t81 72t58 88t41 107.5t28.5 115t21.5 124q28 179 28 263q0 73 -16.5 125t-56.5 93.5t-113 62t-180 20.5q-122 0 -251 -39l-127 -806q-23 -141 -27 -239z" />
    <glyph glyph-name="f_f_h" unicode="ffh" horiz-adv-x="4300" 
d="M986 1781h698l25 155q43 269 207 413t444 144q472 0 956 -24l-114 -721q197 57 397 57q120 0 214.5 -14.5t160 -43.5t111.5 -66.5t72 -89t37 -106.5t11 -123q0 -95 -22 -235l-179 -1127h-436l172 1084q14 86 14 145q0 116 -69 165.5t-250 49.5q-152 0 -290 -56
l-220 -1388h-436l343 2163h-425q-225 0 -263 -225l-26 -157h359l-53 -338h-359l-229 -1443h-434l229 1443h-698l-229 -1443h-434l228 1443h-288l54 338h288l24 155q43 269 207 413t444 144q127 0 263 -19l-81 -311h-135q-224 0 -262 -225z" />
    <glyph glyph-name="f_f_j" unicode="ffj" horiz-adv-x="3325" 
d="M933 1443l-229 -1443h-434l228 1443h-288l54 338h288l24 155q43 269 207 413t444 144q127 0 263 -19l-81 -311h-135q-227 0 -263 -225l-25 -157h698l25 155q43 269 207 413t444 144q125 0 263 -19l-82 -311h-134q-228 0 -264 -225l-25 -157h1184l-278 -1755
q-31 -194 -92 -327.5t-162.5 -218t-239 -122.5t-326.5 -38q-68 0 -117 5l87 329q50 5 84 10.5t76.5 16t70.5 24t59 36.5t51 53t36.5 72.5t24.5 96.5l234 1480h-745l-229 -1443h-434l229 1443h-698zM2891 2156q0 35 8 86q23 140 87.5 195.5t208.5 55.5q121 0 173 -38t52 -128
q0 -34 -8 -85q-22 -140 -86.5 -195.5t-210.5 -55.5q-122 0 -173 37.5t-51 127.5z" />
    <glyph glyph-name="f_f_k" unicode="ffk" horiz-adv-x="4186" 
d="M3084 1002l719 779h499l-787 -820l539 -961h-527l-461 886l-141 -886h-433l342 2163h-427q-225 0 -263 -225l-26 -157h359l-53 -338h-359l-229 -1443h-434l228 1443h-698l-228 -1443h-435l229 1443h-288l54 338h287l25 155q43 269 207 413t444 144q127 0 263 -19
l-81 -311h-135q-227 0 -263 -225l-25 -157h698l25 155q43 269 207 413t444 144q472 0 956 -24z" />
    <glyph glyph-name="f_h" unicode="fh" horiz-adv-x="3166" 
d="M210 1443l53 338h288l24 155q43 269 207 413t445 144q472 0 956 -24l-114 -721q195 57 396 57q120 0 214.5 -14.5t160 -43.5t111.5 -66.5t72 -89t37 -106.5t11 -123q0 -95 -22 -235l-178 -1127h-435l171 1084q14 86 14 145q0 116 -69 165.5t-251 49.5q-152 0 -289 -56
l-220 -1388h-436l343 2163h-426q-224 0 -262 -225l-26 -157h359l-54 -338h-358l-229 -1443h-434l228 1443h-287z" />
    <glyph glyph-name="f_j" unicode="fj" horiz-adv-x="2192" 
d="M985 1781h1184l-278 -1755q-41 -258 -140 -412.5t-263.5 -224t-416.5 -69.5q-68 0 -117 5l87 329q51 5 85 10.5t76 16t70 24t58.5 36.5t50.5 53t36.5 72.5t24.5 96.5l235 1480h-745l-229 -1443h-434l228 1443h-287l53 338h288l24 155q43 269 207 413t445 144
q125 0 263 -19l-81 -311h-136q-227 0 -263 -225zM1758 2156q0 35 8 86q22 140 87 195.5t210 55.5q121 0 172.5 -38t51.5 -128q0 -34 -8 -85q-23 -140 -87 -195.5t-210 -55.5q-122 0 -173 37.5t-51 127.5z" />
    <glyph glyph-name="f_k" unicode="fk" horiz-adv-x="3052" 
d="M263 1781h288l25 155q43 269 207 413t444 144q472 0 956 -24l-232 -1467l718 779h499l-786 -820l539 -961h-527l-461 886l-141 -886h-434l343 2163h-428q-224 0 -262 -225l-26 -157h359l-54 -338h-358l-229 -1443h-434l229 1443h-288z" />
    <glyph glyph-name=".notdef" horiz-adv-x="2081" 
d="M209 0v2400h1663v-2400h-1663zM941 1200l-565 874v-1748zM1606 171l-565 875l-566 -875h1131zM1606 2228h-1131l566 -874zM1706 2074l-565 -874l565 -874v1748z" />
    <glyph glyph-name=".null" horiz-adv-x="0" 
 />
    <glyph glyph-name="nonmarkingreturn" horiz-adv-x="1111" 
 />
    <glyph glyph-name="space" unicode=" " horiz-adv-x="850" 
 />
    <glyph glyph-name="exclam" unicode="!" horiz-adv-x="962" 
d="M385 -24q-122 0 -173 37.5t-51 127.5q0 35 8 86q23 140 87.5 195.5t208.5 55.5q121 0 172.5 -38t51.5 -128q0 -34 -8 -85q-22 -140 -86 -195.5t-210 -55.5zM309 682l193 1648h511l-328 -1648h-376z" />
    <glyph glyph-name="quotedbl" unicode="&#x22;" horiz-adv-x="1339" 
d="M296 1524l118 945h382l-180 -945h-320zM892 1524l119 945h381l-180 -945h-320z" />
    <glyph glyph-name="numbersign" unicode="#" horiz-adv-x="1921" 
d="M747 1671l200 659h307l-199 -659h326l201 659h306l-199 -659h284l-49 -308h-327l-118 -393h292l-49 -308h-338l-201 -662h-308l201 662h-326l-201 -662h-307l201 662h-312l49 308h357l118 393h-328l49 308h371zM845 970h327l117 393h-326z" />
    <glyph glyph-name="dollar" unicode="$" horiz-adv-x="1694" 
d="M1125 638q4 25 4 54q0 47 -16 84.5t-43.5 63t-67 46t-85 37.5t-97.5 34q-7 2 -11 3q-110 36 -184.5 67.5t-146.5 77t-113.5 97.5t-66.5 125.5t-25 165.5q0 66 12 144q32 206 122.5 341.5t228 204t334.5 90.5l50 313h309l-48 -304q268 -11 522 -69l-96 -352
q-298 49 -480 49q-49 0 -82.5 -1t-85.5 -6t-88.5 -13.5t-79.5 -26t-71.5 -41.5t-51 -61t-29.5 -84q-5 -29 -5 -63t8 -62t21.5 -49.5t36 -39t47.5 -31t60.5 -26.5t70.5 -24t81 -24q23 -7 35 -10q134 -39 226.5 -84t157.5 -108t95.5 -146t30.5 -192q0 -71 -14 -164
q-48 -305 -220.5 -464t-468.5 -199l-50 -317h-309l47 303q-283 7 -557 69l101 362q322 -51 572 -51q74 0 130.5 7.5t107.5 26t86 50t60 81t36 116.5z" />
    <glyph glyph-name="percent" unicode="%" horiz-adv-x="2814" 
d="M685 957q-234 0 -330 95.5t-96 302.5q0 120 28 294q24 148 52.5 251.5t75 192t111.5 140.5t158.5 80.5t219.5 28.5q234 0 330.5 -96t96.5 -304q0 -120 -28 -293q-24 -147 -52.5 -251t-75.5 -192t-112 -140t-159 -80.5t-219 -28.5zM995 1649q30 193 30 265q0 92 -35 138
t-121 46q-36 0 -66 -7.5t-53.5 -25.5t-41.5 -37.5t-33 -54t-25 -63.5t-20.5 -78t-17 -86t-16.5 -97q-31 -191 -31 -268q0 -90 35 -135t120 -45q36 0 66 7.5t53.5 25t42 37.5t33.5 53.5t25.5 63.5t21 78t17.5 86t16 97zM2079 -12q-233 0 -329 95.5t-96 302.5q0 121 28 295
q19 122 42 213t57 172.5t79.5 136t107.5 94.5t144 58.5t187 18.5q234 0 330 -96t96 -303q0 -121 -28 -294q-20 -123 -42.5 -213.5t-56.5 -172t-79.5 -136t-108 -94.5t-144.5 -58.5t-187 -18.5zM2389 681q31 190 31 267q0 91 -35 136.5t-121 45.5q-41 0 -74.5 -11.5
t-57.5 -29.5t-44 -52t-33 -65t-26 -84.5t-20.5 -95.5t-18.5 -111q-31 -190 -31 -266q0 -91 35 -136.5t121 -45.5q36 0 66 7.5t53.5 25t41.5 37t33 53.5t25.5 64t21 78t17 85.5t16.5 97.5zM479 -48l1724 2426h302l-1725 -2426h-301z" />
    <glyph glyph-name="ampersand" unicode="&#x26;" horiz-adv-x="2239" 
d="M1237 1190l297 -404q70 120 113 320l393 -17q-48 -194 -114.5 -343.5t-168.5 -286.5l332 -459h-531l-111 162q-128 -100 -282 -143t-367 -43q-342 0 -510 129t-168 392q0 73 14 163q36 227 171.5 373t368.5 243q-36 58 -53.5 89t-42 83.5t-34.5 105.5t-10 113
q0 57 10 118q24 153 90 265t164 177.5t214.5 96t255.5 30.5q89 0 166.5 -14.5t146.5 -47t117.5 -81.5t77 -122t28.5 -164q0 -51 -9 -108q-66 -420 -558 -627zM1056 1447q59 28 105.5 56.5t96.5 69.5t82.5 94.5t42.5 114.5q6 36 6 66q0 168 -185 168q-97 0 -166.5 -58
t-89.5 -181q-5 -27 -5 -62q0 -74 28.5 -134.5t84.5 -133.5zM1248 451l-393 556q-137 -82 -203.5 -161t-86.5 -211q-4 -25 -4 -54q0 -87 48.5 -148.5t121.5 -88.5t160 -27q201 0 357 134z" />
    <glyph glyph-name="quotesingle" unicode="'" horiz-adv-x="743" 
d="M296 1524l118 945h382l-181 -945h-319z" />
    <glyph glyph-name="parenleft" unicode="(" horiz-adv-x="1058" 
d="M825 -365l-281 -210q-363 355 -363 1009q0 219 43 494q28 178 68.5 337t106 326.5t150 311t205 281t266.5 246.5l215 -209q-103 -89 -190.5 -215t-146.5 -255.5t-107.5 -282t-76.5 -279t-49 -261.5q-49 -309 -49 -547q0 -505 209 -746z" />
    <glyph glyph-name="parenright" unicode=")" horiz-adv-x="1058" 
d="M379 2221l281 209q363 -354 363 -1008q0 -230 -43 -494q-28 -178 -68.5 -337t-106 -326.5t-150 -311.5t-205 -281.5t-266.5 -246.5l-213 210q420 356 569 1293q46 294 46 534q0 514 -207 759z" />
    <glyph glyph-name="asterisk" unicode="*" horiz-adv-x="1478" 
d="M1172 2392l222 -142l-255 -347h395q-6 -42 -13.5 -89t-17 -104.5t-14.5 -88.5h-394l142 -350l-265 -137q-20 48 -67.5 163.5t-72.5 177.5l-248 -341l-223 140l251 347h-390l45 282h390q-18 43 -67 162.5t-76 184.5l270 142q19 -48 66.5 -164.5t72.5 -180.5z" />
    <glyph glyph-name="plus" unicode="+" horiz-adv-x="1879" 
d="M857 1169l100 637h377l-100 -637h623l-60 -377h-624l-101 -641h-377l102 641h-621l60 377h621z" />
    <glyph glyph-name="comma" unicode="," horiz-adv-x="892" 
d="M10 -433l345 888h483l-473 -888h-355z" />
    <glyph glyph-name="hyphen" unicode="-" horiz-adv-x="1273" 
d="M246 708l57 356h862l-57 -356h-862z" />
    <glyph glyph-name="period" unicode="." horiz-adv-x="864" 
d="M714 323q0 -37 -8 -91q-23 -146 -86 -201t-211 -55q-123 0 -173.5 36.5t-50.5 127.5q0 36 8 92q23 146 86.5 201t210.5 55q122 0 173 -37t51 -128z" />
    <glyph glyph-name="slash" unicode="/" horiz-adv-x="1475" 
d="M-49 -268l1350 2680h373l-1352 -2680h-371z" />
    <glyph glyph-name="zero" unicode="0" horiz-adv-x="2032" 
d="M922 -24q-194 0 -327.5 40t-214 124.5t-116 204.5t-35.5 290q0 194 48 495q24 152 50.5 272.5t62.5 234t80 199.5t101 161t127.5 126.5t158.5 88.5t195.5 54.5t235.5 17.5q194 0 327.5 -40t214 -124.5t115.5 -204t35 -289.5q0 -194 -48 -496q-21 -134 -44.5 -243.5
t-53.5 -214t-66 -186t-81.5 -155.5t-101 -128.5t-123.5 -99t-149.5 -71.5t-179 -41.5t-211.5 -14.5zM677 674q0 -165 66.5 -247t230.5 -82q77 0 139.5 20t107.5 51.5t82 90.5t61 114.5t46.5 148t36 166.5t32.5 194q53 335 53 457q0 165 -66.5 247t-229.5 82q-90 0 -159 -23
t-119 -78t-84 -112.5t-61.5 -161t-44 -187t-38.5 -224.5q-53 -335 -53 -456z" />
    <glyph glyph-name="one" unicode="1" horiz-adv-x="1253" 
d="M469 0l286 1802q-224 -55 -502 -86l38 365q341 51 630 179h354l-358 -2260h-448z" />
    <glyph glyph-name="two" unicode="2" horiz-adv-x="1863" 
d="M428 2207q406 77 740 77q127 0 230 -13.5t194 -46.5t152.5 -85t97 -132.5t35.5 -186.5q0 -59 -10 -120q-49 -307 -239 -507t-540 -333q-100 -38 -171 -75.5t-119.5 -75.5t-83 -88.5t-56 -100.5t-43.5 -125h1044l-62 -395h-1555q48 144 75.5 224t68 188.5t70 168t72 138.5
t83 125t94.5 102t116.5 95t138 79.5t168.5 78.5q118 48 195 89t138.5 91.5t94.5 110t45 137.5q6 37 6 70q0 121 -106.5 162.5t-383.5 41.5q-211 0 -503 -48z" />
    <glyph glyph-name="three" unicode="3" horiz-adv-x="1835" 
d="M1823 1699q-28 -173 -125 -303t-263 -206q137 -58 205 -149.5t68 -232.5q0 -51 -9 -111q-26 -164 -84.5 -287.5t-142.5 -205.5t-200.5 -133.5t-249 -73t-298.5 -21.5q-181 0 -336.5 20t-339.5 57l106 357q371 -50 549 -50q103 0 175 7.5t136 27.5t104.5 56t68 92
t40.5 137q7 49 7 77q0 189 -198 215q-186 25 -457 25h-40l54 337q241 6 507 44q115 17 176.5 84.5t80.5 188.5q5 28 5 61q0 51 -18.5 87.5t-47.5 57t-78 32t-96.5 15t-116.5 3.5q-211 0 -603 -50l11 351q392 76 689 76q88 0 163 -5t151.5 -19t136.5 -36t114 -58t89.5 -83
t56 -113t20.5 -147q0 -61 -10 -124z" />
    <glyph glyph-name="four" unicode="4" horiz-adv-x="1956" 
d="M1037 0l81 509h-745q-141 0 -201.5 47t-60.5 134q0 24 5 57q10 64 53.5 144.5t161.5 208.5l895 973q113 122 197.5 166.5t185.5 44.5q87 0 139.5 -52t52.5 -151q0 -31 -6 -66l-182 -1150h271l-56 -356h-271l-81 -509h-439zM1304 1678l-725 -813h596z" />
    <glyph glyph-name="five" unicode="5" horiz-adv-x="1861" 
d="M775 1423q63 4 140 4q109 0 195.5 -5.5t174.5 -20t153.5 -39t124 -65t95.5 -95t58.5 -131t21.5 -172.5q0 -86 -16 -182q-61 -389 -299 -565t-656 -176q-366 0 -699 79l104 357q343 -51 552 -51q94 0 158 5.5t123.5 20.5t98 42t70.5 71.5t52 106.5t34 149q5 33 5 57
q0 66 -29 113.5t-74.5 74.5t-117 42.5t-138.5 20t-157 4.5q-223 0 -471 -12l273 1204h1363l-62 -392h-976z" />
    <glyph glyph-name="six" unicode="6" horiz-adv-x="1978" 
d="M1866 728q-24 -149 -69.5 -265.5t-112.5 -198.5t-148 -138.5t-185.5 -89t-215 -46.5t-244.5 -14q-193 0 -328 41t-213.5 123t-113 191.5t-34.5 259.5q0 141 30 329q32 201 67.5 356.5t85.5 293.5t110 238t142 182.5t180.5 136t227.5 90t281 52t342 15.5q80 0 272 -5
l-21 -357q-48 -2 -126.5 -3t-138 -1t-139.5 -4.5t-142 -12t-135 -24.5t-128.5 -41t-112 -62t-96 -87t-70.5 -117.5t-45 -151.5q211 29 384 29q138 0 243 -14.5t196 -50t149.5 -94t91.5 -150t33 -213.5q0 -86 -17 -197zM942 346q162 0 258 38t146 120t74 230q9 56 9 101
q0 78 -25 131t-75.5 82t-115 40.5t-155.5 11.5q-153 0 -349 -30q-19 -69 -39 -199q-20 -131 -20 -209q0 -71 13.5 -125.5t45.5 -99t90.5 -68t142.5 -23.5z" />
    <glyph glyph-name="seven" unicode="7" horiz-adv-x="1710" 
d="M1836 1905l-1142 -1905h-509l1193 1866h-1077l62 394h1301q114 0 173.5 -45.5t59.5 -127.5q0 -19 -3 -38q-10 -64 -58 -144z" />
    <glyph glyph-name="eight" unicode="8" horiz-adv-x="1979" 
d="M897 -24q-172 0 -302.5 25.5t-231.5 83t-154 158t-53 242.5q0 67 12 145q16 101 50.5 180.5t92.5 143.5t126 113.5t166 102.5q-122 74 -182.5 169.5t-60.5 239.5q0 63 12 136q91 569 891 569q77 0 146 -5t143 -19t135.5 -36.5t117.5 -58.5t94.5 -83t61 -113.5
t22.5 -146.5q0 -50 -9 -107q-31 -200 -114.5 -316.5t-288.5 -221.5q134 -85 202 -184.5t68 -245.5q0 -57 -10 -116q-25 -157 -87 -274.5t-146 -189t-200.5 -115.5t-235 -60t-265.5 -16zM603 569q0 -68 25.5 -115t75 -72t109.5 -35.5t141 -10.5q69 0 125.5 7.5t111 28
t93.5 54t68 87.5t40 126q9 54 9 97q0 82 -38.5 131.5t-133 80t-265.5 48.5q-309 -63 -355 -357q-6 -37 -6 -70zM1545 1658q5 29 5 64q0 52 -17.5 90t-46.5 61t-74.5 37t-93 18.5t-111.5 4.5q-69 0 -121 -5.5t-105 -23t-89.5 -47t-64 -80t-38.5 -119.5q-6 -38 -6 -72
q0 -53 18.5 -91t65 -70t132 -51.5t212.5 -26.5q157 40 235 107t99 204z" />
    <glyph glyph-name="nine" unicode="9" horiz-adv-x="1981" 
d="M289 1532q24 149 69.5 265.5t112.5 198.5t148 138.5t185.5 89t215 46.5t244.5 14q193 0 328 -41t213.5 -123t113 -191.5t34.5 -259.5q0 -141 -30 -329q-32 -201 -67.5 -356.5t-85.5 -293.5t-110 -238t-142 -182.5t-180.5 -136t-227.5 -90t-281 -52t-342 -15.5
q-80 0 -272 5l21 357q48 2 126.5 3t138 1t139.5 4.5t142 12t135 24.5t128.5 41t112 62t96 87t70.5 117.5t45 151.5q-209 -29 -383 -29q-138 0 -243.5 14.5t-196.5 50t-149.5 94t-91.5 150t-33 213.5q0 86 17 197zM727 1425q0 -78 25 -131t75 -82t114.5 -40.5t155.5 -11.5
q152 0 350 30q18 69 38 199q20 120 20 210q0 71 -13.5 125t-45.5 98.5t-90.5 68t-142.5 23.5q-122 0 -204 -19.5t-138 -67t-87 -119t-48 -182.5q-9 -56 -9 -101z" />
    <glyph glyph-name="colon" unicode=":" horiz-adv-x="963" 
d="M189 140q0 36 8 92q23 146 86.5 201t210.5 55q123 0 174 -37t51 -128q0 -37 -8 -91q-23 -146 -86 -201t-212 -55q-123 0 -173.5 36.5t-50.5 127.5zM598 1143q-123 0 -174 36t-51 126q0 41 9 94q23 146 86.5 201t210.5 55q123 0 173.5 -36.5t50.5 -127.5q0 -45 -8 -92
q-23 -146 -86 -201t-211 -55z" />
    <glyph glyph-name="semicolon" unicode=";" horiz-adv-x="962" 
d="M697 1143q-123 0 -174 36t-51 126q0 41 9 94q23 146 86.5 201t210.5 55q123 0 173.5 -36.5t50.5 -127.5q0 -45 -8 -92q-23 -146 -86 -201t-211 -55zM-6 -433l344 888h483l-473 -888h-354z" />
    <glyph glyph-name="less" unicode="&#x3c;" horiz-adv-x="2013" 
d="M173 810l54 338l1776 705l-64 -396l-1220 -478l1069 -479l-62 -396z" />
    <glyph glyph-name="equal" unicode="=" horiz-adv-x="2055" 
d="M207 431l60 379h1621l-60 -379h-1621zM320 1147l61 379h1621l-61 -379h-1621z" />
    <glyph glyph-name="greater" unicode="&#x3e;" horiz-adv-x="2013" 
d="M228 500l1220 479l-1069 478l63 396l1552 -705l-53 -338l-1776 -706z" />
    <glyph glyph-name="question" unicode="?" horiz-adv-x="1734" 
d="M923 682h-382l26 219q4 41 11 81q15 93 46.5 158t73.5 99.5t92.5 55t104.5 30t107.5 18.5t103.5 27t91.5 48.5t72 89.5t44.5 144q8 54 8 92q0 121 -86 168t-303 47q-291 0 -555 -51l-18 367q335 79 688 79q104 0 184.5 -5t162.5 -19t142 -37.5t113 -62t86.5 -91.5
t52.5 -126.5t19 -166.5q0 -85 -17 -196q-20 -128 -60 -227.5t-90 -160.5t-109.5 -105t-121 -67t-122.5 -39.5t-116 -29.5t-99.5 -30t-74.5 -48t-39 -77zM396 140q0 34 8 87q23 140 87.5 195.5t208.5 55.5q121 0 172.5 -38t51.5 -128q0 -34 -8 -85q-22 -140 -86 -195.5
t-210 -55.5q-122 0 -173 37.5t-51 126.5z" />
    <glyph glyph-name="at" unicode="@" horiz-adv-x="2911" 
d="M1343 -298q-281 0 -491.5 51.5t-358 159t-221.5 278.5t-74 406q0 138 25 294q41 258 130 456.5t220 336.5t310.5 227t392.5 129t475 40q97 0 179 -13.5t155 -46t123.5 -82t79.5 -126t29 -173.5q0 -55 -11 -126l-111 -693q-27 -170 -67 -331q-121 -72 -312.5 -115.5
t-400.5 -43.5q-305 0 -445.5 105t-140.5 318q0 65 12 138q38 242 172 379.5t392 184.5q141 26 511 46q8 53 8 89q0 93 -54.5 130.5t-184.5 37.5q-182 0 -326 -25.5t-270 -87t-217 -160t-156 -247.5t-96 -347q-21 -131 -21 -238q0 -174 52.5 -296.5t158 -195t248 -104.5
t336.5 -32q179 0 322 26.5t267 88.5t213.5 161t153 246.5t94.5 343.5q20 123 20 237q0 62 -6 114l393 111q12 -81 12 -174q0 -127 -25 -288q-50 -313 -171 -541t-312 -370.5t-441.5 -210t-570.5 -67.5zM1825 921l50 314q-243 -7 -364 -41q-72 -20 -115 -39t-78.5 -52
t-54.5 -81t-31 -122q-6 -39 -6 -72q0 -111 71.5 -152.5t222.5 -41.5q51 0 133 16.5t125 40.5q28 106 47 230z" />
    <glyph glyph-name="A" unicode="A" horiz-adv-x="2193" 
d="M434 0h-477l999 2029q84 169 188.5 247t238.5 78q265 0 321 -325l346 -2029h-492l-83 577h-779zM860 940h563l-135 942z" />
    <glyph glyph-name="B" unicode="B" horiz-adv-x="2096" 
d="M2088 1721q-29 -181 -138 -323.5t-283 -205.5q292 -105 292 -431q0 -63 -12 -138q-18 -114 -58.5 -207t-95.5 -159.5t-130.5 -116.5t-155.5 -81t-178.5 -50t-192 -26t-203.5 -7q-434 0 -771 63l357 2250q149 28 352.5 46.5t400.5 18.5q92 0 171 -5t165.5 -19.5
t155.5 -37.5t133 -62.5t107 -91.5t68.5 -126.5t25.5 -165.5q0 -61 -10 -125zM1637 1755q0 60 -20.5 102t-54 66.5t-90.5 38t-115 17.5t-143 4q-136 0 -286 -19l-95 -602h298q85 0 148.5 6.5t127 27t106 54.5t74 92t44.5 138q6 40 6 75zM1077 1019h-300l-103 -648
q143 -20 308 -20q89 0 154.5 6.5t130.5 27t108 56t75.5 95t45.5 142.5q7 41 7 81q0 65 -22 112.5t-57.5 75.5t-92.5 44.5t-116 22t-138 5.5z" />
    <glyph glyph-name="C" unicode="C" horiz-adv-x="1836" 
d="M1638 46q-265 -70 -609 -70q-222 0 -375.5 41.5t-248 131.5t-136.5 221.5t-42 320.5q0 185 45 474q34 215 77 376.5t107 299t148.5 230.5t200 158t263.5 95t338 30q340 0 586 -71l-99 -365q-234 40 -464 40q-90 0 -165.5 -13t-133.5 -33t-106.5 -59t-82 -74t-62.5 -96
t-46.5 -107.5t-35.5 -126.5t-27.5 -135t-24.5 -149q-43 -269 -43 -389q0 -98 21.5 -168.5t73.5 -125.5t146.5 -82.5t233.5 -27.5q234 0 477 40z" />
    <glyph glyph-name="D" unicode="D" horiz-adv-x="2186" 
d="M518 2288q349 66 755 66q198 0 344.5 -29t246 -84.5t160.5 -143.5t87.5 -198t26.5 -257q0 -183 -46 -477q-25 -157 -52.5 -279.5t-67 -240t-89 -205.5t-116 -166t-150.5 -131t-191 -92t-238.5 -57t-291.5 -18q-404 0 -734 64zM929 1951l-249 -1572q108 -17 214 -17
q126 0 226 23t169 54.5t123 97.5t85 118.5t58.5 153.5t39.5 166t32 190q42 265 42 380q0 81 -14 142.5t-49.5 115.5t-93.5 89t-149.5 55t-214.5 20q-99 0 -219 -16z" />
    <glyph glyph-name="E" unicode="E" horiz-adv-x="1859" 
d="M232 563l191 1205q14 89 40 163t58 129t78.5 98t90.5 71.5t107 49t115 31.5t127 17t130 7.5t137 1.5q286 0 618 -17l-58 -367h-630q-106 0 -168 -12t-104 -50t-62 -94.5t-36 -158.5l-42 -264h908l-60 -376h-908l-47 -302q-14 -86 -14 -140q0 -104 60 -140.5t223 -36.5
h631l-58 -366q-365 -18 -624 -18q-73 0 -123.5 1t-116.5 5.5t-112 13t-99.5 24t-89.5 37t-71.5 53.5t-56.5 72.5t-34 95.5t-13 121q0 68 13 146z" />
    <glyph glyph-name="F" unicode="F" horiz-adv-x="1764" 
d="M613 0h-463l280 1768q14 89 40 163t58 129t78.5 98t90.5 71.5t107 49t115 31.5t127 17t130 7.5t137 1.5q239 0 618 -17l-58 -367h-631q-106 0 -168 -12t-104 -50t-62 -94.5t-36 -158.5l-41 -264h907l-59 -376h-908z" />
    <glyph glyph-name="G" unicode="G" horiz-adv-x="2106" 
d="M1154 939l58 365h811l-138 -873q-11 -71 -33 -129t-50 -101.5t-69.5 -78t-83 -58t-100.5 -40t-111 -26t-126 -14.5t-134.5 -6.5t-146.5 -1.5q-222 0 -375 42t-247.5 131.5t-136.5 221.5t-42 321q0 192 44 473q34 217 77.5 379.5t107.5 300t148 229.5t200 157t263.5 94
t337.5 29q402 0 720 -69l-99 -365q-255 41 -598 41q-90 0 -165.5 -13.5t-133.5 -33t-106.5 -59t-82 -74.5t-62.5 -96.5t-46.5 -108t-36 -127t-28 -135t-24.5 -149.5q-43 -269 -43 -389q0 -99 21.5 -170t73.5 -126.5t146.5 -83.5t232.5 -28q87 0 142.5 12.5t85.5 41.5
t42.5 61t21.5 88l58 368h-373z" />
    <glyph glyph-name="H" unicode="H" horiz-adv-x="2251" 
d="M1663 1384l150 946h466l-369 -2330h-466l158 997h-823l-158 -997h-465l369 2330h465l-149 -946h822z" />
    <glyph glyph-name="I" unicode="I" horiz-adv-x="956" 
d="M152 0l369 2330h466l-369 -2330h-466z" />
    <glyph glyph-name="J" unicode="J" horiz-adv-x="1380" 
d="M700 707l257 1623h467l-246 -1556q-35 -221 -91.5 -367t-153.5 -245t-238 -142.5t-345 -43.5q-101 0 -210.5 20t-180.5 56l95 354q154 -55 310 -55q56 0 105 16t96.5 53.5t83 110.5t51.5 176z" />
    <glyph glyph-name="K" unicode="K" horiz-adv-x="2070" 
d="M989 2330l-171 -1080l931 1080h539l-995 -1115l639 -1215h-563l-568 1144l-181 -1144h-464l369 2330h464z" />
    <glyph glyph-name="L" unicode="L" horiz-adv-x="1657" 
d="M240 563l280 1767h464l-259 -1635q-14 -87 -14 -141q0 -104 60 -140t223 -36h593l-58 -368q-373 -16 -586 -16q-73 0 -123.5 1t-116.5 5.5t-112 13t-99.5 24t-89.5 37t-71.5 53.5t-56.5 72.5t-34 95.5t-13 121q0 68 13 146z" />
    <glyph glyph-name="M" unicode="M" horiz-adv-x="2739" 
d="M1149 2060l264 -1163l638 1156q80 146 180.5 223.5t202.5 77.5q131 0 188 -56t57 -186q0 -38 -7 -104l-229 -2008h-447l209 1669l-2 1l-592 -1143q-112 -217 -288 -217q-90 0 -144 53.5t-77 163.5l-243 1139h-2l-319 -1666h-429l409 2010q36 180 117.5 262t229.5 82
q103 0 176.5 -72t107.5 -222z" />
    <glyph glyph-name="N" unicode="N" horiz-adv-x="2315" 
d="M1155 2048l499 -1427l271 1709h417l-317 -1999q-56 -355 -337 -355q-129 0 -206.5 67.5t-137.5 239.5l-498 1432l-272 -1715h-417l317 2000q56 354 337 354q122 0 204 -70.5t140 -235.5z" />
    <glyph glyph-name="O" unicode="O" horiz-adv-x="2195" 
d="M1002 -24q-280 0 -448.5 75t-245 229.5t-76.5 408.5q0 195 45 476q34 217 78.5 382t108.5 301t147.5 228.5t195.5 156t252.5 92.5t319.5 29q280 0 448.5 -75.5t244.5 -230.5t76 -409q0 -191 -44 -474q-34 -217 -78.5 -382t-109 -301t-147.5 -228.5t-195.5 -156
t-253 -92.5t-318.5 -29zM748 1165q-50 -309 -50 -438q0 -88 17 -152t57 -112.5t111 -72.5t174 -24q91 0 164.5 21t126 53t95 92.5t69 117t51 151t38.5 169t33 195.5q49 315 49 437q0 89 -17 153t-57 112.5t-111 73t-174 24.5q-91 0 -164 -21t-125.5 -53t-95 -93t-69 -117
t-51 -151t-38.5 -169.5t-33 -195.5z" />
    <glyph glyph-name="P" unicode="P" horiz-adv-x="2014" 
d="M757 872l-139 -872h-463l363 2290q353 64 754 64q104 0 189 -6t171.5 -21.5t152.5 -41.5t124.5 -68.5t96.5 -100t60 -137.5t22 -179q0 -87 -16 -186q-21 -131 -60 -236.5t-91.5 -183.5t-123.5 -136t-149 -95.5t-175.5 -60.5t-196.5 -32t-217 -9q-143 0 -302 11zM816 1246
q100 -13 280 -13q115 0 198 17t150.5 59t108.5 117.5t59 187.5q9 59 9 107q0 141 -91 202t-305 61q-147 0 -295 -20z" />
    <glyph glyph-name="Q" unicode="Q" horiz-adv-x="2196" 
d="M1830 -269l-337 -220q-11 6 -52.5 28t-57 30.5t-54.5 31.5t-57.5 36.5t-52.5 39t-52.5 46t-45 51t-42.5 59.5t-32.5 66t-26.5 77q-280 0 -449 75.5t-245 230.5t-76 409q0 191 44 474q34 217 78.5 381.5t109 301t147.5 229t195.5 156t253 92.5t319.5 29q280 0 448.5 -75
t244.5 -229.5t76 -408.5q0 -195 -45 -476q-31 -194 -69.5 -346t-92 -280.5t-122.5 -222.5t-158.5 -162.5t-201.5 -109.5q23 -44 52.5 -81.5t56.5 -64.5t72.5 -59t77.5 -51.5t94 -56.5zM1074 366q91 0 164.5 21t126 53t95 92.5t69 117t51 151t38.5 169t33 195.5
q49 315 49 437q0 89 -17 153t-57 112.5t-111 73t-174 24.5q-91 0 -164 -21t-125.5 -53t-95 -93t-69 -117t-51 -151t-38.5 -169.5t-33 -195.5q-49 -315 -49 -438q0 -88 17 -152t57 -112.5t110.5 -72.5t173.5 -24z" />
    <glyph glyph-name="R" unicode="R" horiz-adv-x="2103" 
d="M759 889l-142 -889h-463l363 2290q353 64 753 64q104 0 188.5 -6t171 -21.5t153 -41.5t125.5 -68.5t97.5 -99t60.5 -136t22 -178.5q0 -75 -16 -181q-24 -151 -72.5 -268.5t-120 -199.5t-158.5 -135.5t-196 -85.5l374 -933h-534l-329 879q-119 0 -277 10zM818 1265
q100 -12 280 -12q114 0 196.5 16.5t150.5 57.5t110 114.5t59 182.5q8 48 8 99q0 140 -92 201t-306 61q-146 0 -295 -20z" />
    <glyph glyph-name="S" unicode="S" horiz-adv-x="1807" 
d="M1202 714q0 60 -21 103t-77 76t-93 48t-129 45q-7 3 -11 4q-93 31 -160.5 58t-134.5 62.5t-111 75.5t-79.5 91.5t-52 116.5t-16.5 144q0 71 13 149q30 187 103 317t192.5 206.5t271.5 110t356 33.5q324 0 642 -73l-100 -363q-306 51 -495 51q-50 0 -84.5 -1t-88 -6
t-91.5 -14.5t-81.5 -27t-73 -42.5t-52 -63.5t-30.5 -86.5q-6 -35 -6 -65q0 -35 9 -64t21 -50.5t39 -41t48 -31.5t64.5 -27.5t71.5 -24t84 -24.5q8 -2 12 -3.5t11 -3t12 -3.5q138 -40 233.5 -86.5t163 -111.5t99 -150t31.5 -198q0 -78 -15 -169q-30 -190 -107 -325.5
t-201 -217t-283.5 -119t-367.5 -37.5q-332 0 -648 72l104 373q341 -52 590 -52q96 0 165 12.5t127 44t92.5 89t48.5 143.5q5 33 5 56z" />
    <glyph glyph-name="T" unicode="T" horiz-adv-x="1701" 
d="M1919 2330l-60 -382h-562l-309 -1948h-465l308 1948h-558l60 382h1586z" />
    <glyph glyph-name="U" unicode="U" horiz-adv-x="2183" 
d="M2222 2330l-244 -1545q-30 -189 -92.5 -330t-148 -232t-204 -146.5t-248.5 -78t-293 -22.5q-142 0 -252.5 17t-205.5 58t-157 107t-97 168t-35 237q0 104 19 222l244 1545h457l-248 -1571q-11 -69 -11 -121q0 -142 81.5 -203.5t267.5 -61.5q220 0 324 88.5t137 297.5
l249 1571h457z" />
    <glyph glyph-name="V" unicode="V" horiz-adv-x="2107" 
d="M2336 2330l-974 -2039q-80 -166 -177.5 -240.5t-224.5 -74.5q-131 0 -202.5 72t-99.5 243l-333 2039h494l233 -1798l808 1798h476z" />
    <glyph glyph-name="W" unicode="W" horiz-adv-x="2905" 
d="M369 2330h466l27 -1779h2l461 1181q70 180 161 259t210 79t184.5 -79t77.5 -260l81 -1177h2l594 1776h455l-744 -2021q-65 -175 -156.5 -254t-219.5 -79q-132 0 -202.5 77.5t-83.5 253.5l-90 1190l-460 -1190q-128 -331 -390 -331q-129 0 -195.5 79t-75.5 253z" />
    <glyph glyph-name="X" unicode="X" horiz-adv-x="2140" 
d="M1231 1578l576 752h500l-888 -1131l562 -1199h-534l-361 799l-600 -799h-513l931 1186l-535 1144h530z" />
    <glyph glyph-name="Y" unicode="Y" horiz-adv-x="1984" 
d="M1272 898l-142 -898h-464l142 898l-508 1432h499l318 -966l638 966h481z" />
    <glyph glyph-name="Z" unicode="Z" horiz-adv-x="1851" 
d="M1869 1975l-1178 -1583h976l-63 -392h-1316q-115 0 -174 38t-59 111q0 20 2 31q12 78 85 175l1183 1586h-922l61 389h1260q116 0 174.5 -38.5t58.5 -109.5q0 -14 -3 -31q-12 -78 -85 -176z" />
    <glyph glyph-name="bracketleft" unicode="[" horiz-adv-x="1069" 
d="M905 2068l-359 -2268h317l-54 -344h-723l467 2952h725l-54 -340h-319z" />
    <glyph glyph-name="backslash" unicode="\" horiz-adv-x="1475" 
d="M897 -268l-502 2680h372l501 -2680h-371z" />
    <glyph glyph-name="bracketright" unicode="]" horiz-adv-x="1069" 
d="M351 2068l54 340h725l-467 -2952h-722l54 344h316l359 2268h-319z" />
    <glyph glyph-name="asciicircum" unicode="^" horiz-adv-x="1689" 
d="M915 2330h333l354 -1333h-388l-213 822l-476 -822h-387z" />
    <glyph glyph-name="underscore" unicode="_" horiz-adv-x="1664" 
d="M-10 -470l17 167h1667l-18 -167h-1666z" />
    <glyph glyph-name="grave" unicode="`" horiz-adv-x="861" 
d="M570 1876l-337 535h450l219 -535h-332z" />
    <glyph glyph-name="a" unicode="a" horiz-adv-x="1816" 
d="M1729 1232l-119 -753q-27 -170 -68 -338q-305 -165 -806 -165q-309 0 -452 106t-143 323q0 64 12 139q39 243 175.5 384t396.5 182q182 29 568 45q7 41 7 80q0 112 -67.5 165t-213.5 53q-265 0 -623 -46l16 330q402 68 695 68q111 0 201 -12t172.5 -42.5t138 -80
t88.5 -128t33 -181.5q0 -57 -11 -129zM837 825q-84 -20 -131.5 -47t-78 -81t-45.5 -147q-5 -28 -5 -61q0 -99 65 -137.5t198 -38.5q198 0 316 48q26 100 49 239l42 265q-14 -1 -65.5 -3.5t-73 -3.5t-67 -4.5t-73.5 -7t-64.5 -9t-66.5 -12.5z" />
    <glyph glyph-name="b" unicode="b" horiz-adv-x="1910" 
d="M1178 1805q171 0 291 -31t204 -100.5t124 -184t40 -279.5q0 -142 -28 -319q-42 -263 -116 -438.5t-194.5 -281.5t-278.5 -150.5t-383 -44.5q-190 0 -370 41t-306 124q10 158 38 338l315 1990h436l-112 -702q178 38 340 38zM783 1416l-127 -806q-22 -138 -28 -239
q91 -47 264 -47q78 0 141.5 17t108 43.5t80.5 72t58 88t41 107.5t28.5 115t21.5 124q29 186 29 263q0 73 -16.5 125t-56.5 93.5t-113.5 62t-180.5 20.5q-123 0 -250 -39z" />
    <glyph glyph-name="c" unicode="c" horiz-adv-x="1551" 
d="M1348 44q-275 -68 -581 -68q-129 0 -227.5 30t-161 81t-102 127.5t-55 161t-15.5 188.5q0 144 32 343q21 131 46.5 234t63.5 198.5t88 166t118.5 129t155.5 95t198.5 56t248.5 19.5q250 0 456 -68l-86 -326q-201 41 -310 41q-78 0 -138 -5.5t-109.5 -20.5t-85 -34.5
t-65 -54t-49.5 -72t-37 -96t-29 -117.5t-26 -145q-32 -203 -32 -288q0 -102 34 -161t121.5 -90t242.5 -31q107 0 319 42z" />
    <glyph glyph-name="d" unicode="d" horiz-adv-x="1914" 
d="M1438 1767l111 702h436l-316 -1990q-27 -170 -68 -338q-153 -83 -346 -124t-383 -41q-186 0 -315.5 30.5t-219.5 100t-132.5 185t-42.5 283.5q0 141 28 316q41 258 113.5 433.5t187.5 282t264.5 152.5t355.5 46q162 0 327 -38zM1144 1455q-87 0 -157 -15.5t-118.5 -38.5
t-86.5 -67.5t-60.5 -83.5t-42 -107t-29 -117.5t-22.5 -134.5q-26 -163 -26 -252q0 -72 14.5 -126t50 -98.5t100.5 -67.5t160 -23q172 0 280 47q26 105 48 239l127 806q-114 39 -238 39z" />
    <glyph glyph-name="e" unicode="e" horiz-adv-x="1867" 
d="M228 891q39 247 106 416t177.5 282.5t268 164.5t377.5 51q185 0 314 -38t203 -114t106.5 -177t32.5 -240q0 -129 -29 -311q-11 -77 -28 -143q-147 -27 -398 -53t-442 -36l-290 -15q-4 -48 -4 -68q0 -81 23.5 -136t72.5 -86t112.5 -43.5t153.5 -12.5q264 0 636 47
l-16 -335q-415 -68 -774 -68q-174 0 -297.5 44t-195 128t-103.5 193.5t-32 253.5q0 125 26 296zM662 982l302 15q221 11 398 35q9 29 15 71q10 67 10 111q0 126 -67 188.5t-217 62.5q-79 0 -141 -15.5t-106.5 -48t-76.5 -72.5t-54.5 -98.5t-36.5 -115.5t-26 -133z" />
    <glyph glyph-name="f" unicode="f" horiz-adv-x="1234" 
d="M1010 1938l-25 -157h359l-54 -338h-359l-228 -1443h-434l228 1443h-287l53 338h288l24 155q43 269 207 413t445 144q125 0 263 -19l-82 -311h-135q-227 0 -263 -225z" />
    <glyph glyph-name="g" unicode="g" horiz-adv-x="1918" 
d="M116 -605l88 329q354 -52 625 -52q174 0 268 81.5t120 248.5l8 52q-177 -38 -338 -38q-170 0 -290.5 30.5t-205.5 100t-126 183.5t-41 278q0 132 27 302q41 256 116.5 428.5t197 276t279 147t377.5 43.5q190 0 369.5 -41t306.5 -124q-11 -162 -39 -338l-223 -1405
q-22 -136 -76 -238.5t-127 -166t-173.5 -103t-203.5 -54.5t-228 -15q-306 0 -711 75zM689 910q-26 -165 -26 -243q0 -72 16.5 -124.5t56.5 -93.5t113.5 -62t180.5 -21q124 0 251 39l121 766q23 141 27 239q-91 47 -263 47q-75 0 -137.5 -16.5t-107 -43t-80.5 -69t-59 -85.5
t-42 -103.5t-29.5 -111t-21.5 -118.5z" />
    <glyph glyph-name="h" unicode="h" horiz-adv-x="1938" 
d="M1642 0h-436l172 1084q14 86 14 145q0 116 -69 165.5t-251 49.5q-152 0 -289 -56l-220 -1388h-436l391 2469h436l-114 -721q195 57 396 57q120 0 214.5 -14.5t160.5 -43.5t112 -66.5t72 -89t37 -106.5t11 -123q0 -95 -22 -235z" />
    <glyph glyph-name="i" unicode="i" horiz-adv-x="894" 
d="M966 2326q0 -41 -7 -84q-22 -140 -86 -195.5t-210 -55.5q-122 0 -173.5 38t-51.5 128q0 34 8 85q22 140 86.5 195.5t209.5 55.5q121 0 172.5 -38t51.5 -129zM130 0l282 1781h437l-282 -1781h-437z" />
    <glyph glyph-name="j" unicode="j" horiz-adv-x="905" 
d="M694 1991q-121 0 -172 37.5t-51 126.5q0 34 8 87q22 140 86.5 195.5t209.5 55.5q121 0 173 -38t52 -128q0 -34 -8 -85q-23 -140 -87 -195.5t-211 -55.5zM155 -37l288 1818h439l-279 -1755q-31 -194 -92 -327.5t-162 -218t-238.5 -122.5t-326.5 -38q-67 0 -116 5l87 329
q50 5 84 10.5t76 16t70 24t58.5 36.5t50.5 53t36.5 72.5t24.5 96.5z" />
    <glyph glyph-name="k" unicode="k" horiz-adv-x="1821" 
d="M952 2469l-233 -1467l719 779h499l-787 -820l539 -961h-526l-462 886l-140 -886h-434l391 2469h434z" />
    <glyph glyph-name="l" unicode="l" horiz-adv-x="865" 
d="M169 453l319 2016h436l-314 -1983q-11 -72 -11 -127q0 -134 71 -263l-413 -184q-104 151 -104 357q0 87 16 184z" />
    <glyph glyph-name="m" unicode="m" horiz-adv-x="2793" 
d="M2679 1134l-180 -1134h-434l173 1094q13 81 13 134q0 113 -58 167t-197 54q-134 0 -258 -59q1 -15 1 -46q0 -94 -19 -210l-179 -1134h-434l173 1094q12 73 12 133q0 112 -56 167t-190 55q-56 0 -121 -13.5t-109 -33.5q-26 -100 -49 -239l-184 -1163h-433l206 1302
q25 158 69 338q157 79 358.5 122t406.5 43q271 0 405 -102q279 102 549 102q129 0 226.5 -22.5t159.5 -61t100.5 -97t53.5 -123.5t15 -147q0 -92 -20 -220z" />
    <glyph glyph-name="n" unicode="n" horiz-adv-x="1927" 
d="M766 1163l-184 -1163h-433l206 1302q27 174 69 338q329 165 807 165q145 0 252.5 -21t176 -57.5t110 -92.5t58 -119.5t16.5 -145.5q0 -86 -23 -235l-180 -1134h-434l173 1094q14 86 14 145q0 113 -65.5 161.5t-237.5 49.5q-168 0 -276 -48q-26 -100 -49 -239z" />
    <glyph glyph-name="o" unicode="o" horiz-adv-x="1886" 
d="M868 -24q-354 0 -510.5 136t-156.5 451q0 143 30 328q40 253 108 423.5t179.5 281.5t266.5 160t373 49q352 0 509 -139t157 -453q0 -137 -29 -322q-40 -251 -108 -421.5t-179.5 -282t-266.5 -161.5t-373 -50zM637 599q0 -151 63 -208t217 -57q85 0 146 17t109 54
t82 103.5t59.5 158t46.5 224.5q28 177 28 281q0 154 -63.5 215t-216.5 61q-142 0 -223 -47.5t-131.5 -165t-86.5 -344.5q-30 -189 -30 -292z" />
    <glyph glyph-name="p" unicode="p" horiz-adv-x="1913" 
d="M615 14l-107 -670h-435l310 1958q25 158 69 338q153 83 346 124t383 41q186 0 315.5 -30.5t219.5 -100t132.5 -185t42.5 -283.5q0 -141 -28 -316q-33 -207 -87 -360t-130 -259.5t-181 -171.5t-232 -94t-292 -29q-162 0 -326 38zM908 326q88 0 157.5 15.5t118 38
t86.5 67.5t60.5 83.5t42 107t29 117.5t23.5 135q26 163 26 252q0 72 -14.5 126t-50 98.5t-100.5 67.5t-160 23q-172 0 -280 -47q-26 -105 -48 -239l-127 -806q114 -39 237 -39z" />
    <glyph glyph-name="q" unicode="q" horiz-adv-x="1912" 
d="M1851 1302l-310 -1958h-436l107 670q-178 -38 -340 -38q-170 0 -290.5 31t-204.5 101t-124 184.5t-40 279.5q0 141 28 318q42 263 116 438.5t194.5 281.5t279 150.5t382.5 44.5q190 0 370 -41t306 -124q-10 -158 -38 -338zM1422 1410q-91 47 -264 47q-78 0 -141.5 -17
t-108 -43.5t-80.5 -72t-58 -88t-41 -107.5t-28.5 -115t-21.5 -124q-29 -186 -29 -263q0 -73 16.5 -125t56.5 -93.5t113.5 -62t180.5 -20.5q122 0 251 39l127 806q23 141 27 239z" />
    <glyph glyph-name="r" unicode="r" horiz-adv-x="1178" 
d="M579 0h-432l206 1302q27 170 68 338q153 83 346 124t383 41q94 0 175 -9l-91 -356q-50 7 -125 7q-80 0 -162.5 -14.5t-136.5 -40.5q-24 -90 -48 -239z" />
    <glyph glyph-name="s" unicode="s" horiz-adv-x="1601" 
d="M1033 536q0 28 -7.5 51t-24 40t-33.5 29t-45 23t-49 17.5t-55.5 17t-54.5 16.5q-51 17 -78 26.5t-74 27.5t-73.5 32t-65 36.5t-60.5 44.5t-47.5 53t-39 64.5t-22.5 76t-9 90.5q0 49 9 106q23 146 87 249.5t160.5 161t208.5 82.5t250 25q182 0 324.5 -17.5t304.5 -56.5
l-93 -324q-249 52 -435 52q-40 0 -63.5 -0.5t-65.5 -3.5t-68.5 -8.5t-60 -16.5t-54.5 -27t-37.5 -40.5t-21.5 -56.5q-6 -38 4.5 -68.5t27.5 -49.5t53 -38t60.5 -28t72.5 -25t68 -23q175 -65 218 -85q144 -68 197 -168q40 -76 40 -185q0 -58 -10 -121q-20 -123 -70 -217.5
t-119.5 -154.5t-164.5 -98.5t-196.5 -53.5t-222.5 -15q-152 0 -318 20.5t-293 56.5l94 330q274 -54 467 -54h48t49.5 1.5t55 4t51 8t52.5 13.5t43 21.5t39.5 30t26 40t17.5 52.5q3 20 3 36z" />
    <glyph glyph-name="t" unicode="t" horiz-adv-x="1275" 
d="M623 2212l446 72l-80 -503h351l-53 -337h-352l-146 -921q-5 -37 -5 -60q0 -77 43.5 -111.5t136.5 -34.5q73 0 148 6l-17 -316q-173 -31 -303 -31q-235 0 -345.5 90.5t-110.5 276.5q0 61 12 135l153 966h-284l53 337h285z" />
    <glyph glyph-name="u" unicode="u" horiz-adv-x="1921" 
d="M243 647l180 1134h434l-173 -1094q-14 -87 -14 -146q0 -113 65 -161.5t235 -48.5q166 0 274 48q26 100 49 239l184 1163h433l-206 -1302q-25 -158 -69 -338q-330 -165 -805 -165q-120 0 -214.5 14t-161 41.5t-112.5 64.5t-72.5 87.5t-38 105.5t-11.5 123q0 88 23 235z
" />
    <glyph glyph-name="v" unicode="v" horiz-adv-x="1862" 
d="M2007 1781l-779 -1533q-71 -140 -163 -206t-209 -66t-187 66t-97 206l-293 1533h459l203 -1334l624 1334h442z" />
    <glyph glyph-name="w" unicode="w" horiz-adv-x="2655" 
d="M300 1781h443l61 -1326l389 901q64 147 145 217t187 70t166 -70t76 -217l102 -897l481 1322h429l-619 -1511q-121 -294 -351 -294q-114 0 -179.5 72t-86.5 221l-114 822l-368 -821q-132 -294 -362 -294q-117 0 -181 71.5t-78 224.5z" />
    <glyph glyph-name="x" unicode="x" horiz-adv-x="1916" 
d="M1099 1248l431 533h467l-723 -853l489 -928h-508l-294 589l-473 -589h-478l777 919l-451 862h498z" />
    <glyph glyph-name="y" unicode="y" horiz-adv-x="1799" 
d="M1013 682l514 1099h443l-1198 -2437h-443l398 781l-439 1656h461z" />
    <glyph glyph-name="z" unicode="z" horiz-adv-x="1772" 
d="M1721 1484l-976 -1123h804l-57 -361h-1241q-83 0 -125 39.5t-31 106.5q11 70 83 154l983 1135h-794l55 346h1225q82 0 124 -39.5t32 -106.5q-11 -70 -82 -151z" />
    <glyph glyph-name="braceleft" unicode="{" horiz-adv-x="1078" 
d="M714 352l-26 -167q-18 -110 -18 -171q0 -100 48.5 -157.5t172.5 -73.5l-85 -307q-111 9 -191 26t-148.5 49.5t-110.5 82t-65 123.5t-23 174q0 90 18 207q40 249 40 383q0 131 -40.5 190.5t-134.5 69.5l49 305q61 6 105.5 31.5t78.5 70.5t61 124t48 175.5t44 241.5
q24 152 67.5 261.5t102 181.5t145.5 117.5t183.5 67.5t231.5 33l-12 -306q-54 -7 -98 -22.5t-75 -34.5t-55 -50.5t-39 -59t-28 -72t-19.5 -78t-15.5 -86.5l-27 -167q-33 -204 -62 -291q-73 -226 -236 -291q139 -76 139 -322q0 -91 -25 -258z" />
    <glyph glyph-name="bar" unicode="|" horiz-adv-x="864" 
d="M250 -656v3125h365v-3125h-365z" />
    <glyph glyph-name="braceright" unicode="}" horiz-adv-x="1079" 
d="M510 1514l27 167q18 112 18 172q0 100 -48.5 157.5t-172.5 73.5l85 306q111 -9 191 -26t148.5 -49.5t110.5 -82t65 -124t23 -174.5q0 -90 -18 -205q-40 -258 -40 -382q0 -131 40.5 -191.5t134.5 -69.5l-48 -305q-61 -6 -106 -31.5t-79 -70.5t-61 -123.5t-48 -175.5
t-44 -242q-20 -127 -52 -224t-79.5 -167.5t-104.5 -118.5t-135 -79t-162 -47.5t-196 -25.5l12 307q54 7 98 22t75 34.5t55.5 50.5t39.5 59.5t27.5 72t19 77.5t14.5 86l26 167q12 76 23.5 132t35.5 132t53.5 131t77.5 106t108 79q-145 67 -145 297q0 88 31 285z" />
    <glyph glyph-name="asciitilde" unicode="~" horiz-adv-x="2010" 
d="M1628 1385h357q-79 -322 -237.5 -491.5t-347.5 -169.5q-79 0 -145.5 15.5t-111.5 40.5t-83 55.5t-69.5 61t-61.5 55.5t-67.5 40.5t-80.5 15.5q-141 0 -231 -271h-358q79 321 237.5 490.5t347.5 169.5q108 0 192 -29.5t135 -71t93.5 -83t92 -71t106.5 -29.5q71 0 128 67
t104 205z" />
    <glyph glyph-name="uni00A0" unicode="&#xa0;" horiz-adv-x="850" 
 />
    <glyph glyph-name="exclamdown" unicode="&#xa1;" horiz-adv-x="936" 
d="M623 1281q-122 0 -173.5 38t-51.5 129q0 34 8 84q22 140 86 195.5t210 55.5q121 0 172.5 -38t51.5 -128q0 -34 -8 -85q-22 -140 -86.5 -195.5t-208.5 -55.5zM74 -571l329 1648h375l-193 -1648h-511z" />
    <glyph glyph-name="cent" unicode="&#xa2;" horiz-adv-x="1444" 
d="M1320 635l-16 -326q-192 -47 -388 -60l-48 -306h-290l48 307q-98 12 -172.5 47t-122.5 85.5t-78 119.5t-42.5 144t-12.5 166q0 136 31 334q25 157 57 273.5t84 221t123.5 175t174 119t236.5 68.5l50 314h290l-48 -301q191 -7 365 -65l-83 -316q-203 41 -300 41
q-76 0 -134 -5.5t-106 -20t-82.5 -33.5t-63 -52.5t-48 -70t-36 -93t-28.5 -114.5t-25 -141q-31 -191 -31 -280q0 -99 33 -156t117.5 -87t235.5 -30q102 0 310 42z" />
    <glyph glyph-name="sterling" unicode="&#xa3;" horiz-adv-x="1945" 
d="M509 975h-316l53 336h269q7 164 33 329q20 126 64 226.5t109.5 170t144 118.5t176 77t196.5 40t214 12q68 0 126.5 -7.5t103.5 -19t88.5 -33.5t74 -42t67.5 -54.5t61 -60.5t63 -71l-270 -274q-86 92 -166 136t-196 44q-141 0 -227 -37.5t-128 -108.5t-61 -191
q-16 -102 -23 -254h479l-53 -336h-448q-7 -76 -21 -161q-13 -85 -59 -205.5t-98 -222.5h386q295 0 564 42l-18 -358q-124 -31 -335.5 -50.5t-436.5 -19.5h-511q-100 0 -149 40.5t-49 106.5q0 15 3 32q6 37 31.5 84.5t60 99t70 111.5t66.5 142.5t45 171.5q11 72 17 187z" />
    <glyph glyph-name="currency" unicode="&#xa4;" horiz-adv-x="2126" 
d="M1729 705l247 -238l-257 -256l-245 248q-193 -117 -412 -117q-226 0 -415 116l-245 -248l-253 257l247 240q-118 185 -118 407q0 226 119 416l-248 244l253 253l248 -249q190 117 412 117q224 0 412 -114l245 245l257 -252l-248 -240q124 -191 124 -420q0 -222 -123 -409
zM1062 698q108 0 203.5 54.5t154 151t58.5 211.5q0 175 -120.5 299.5t-295.5 124.5q-168 0 -290 -123t-122 -301q0 -170 119.5 -293.5t292.5 -123.5z" />
    <glyph glyph-name="yen" unicode="&#xa5;" horiz-adv-x="1866" 
d="M812 2260l245 -922l550 922h438l-619 -1019h238l-43 -275h-362l-57 -94l-19 -121h404l-43 -271h-404l-76 -480h-446l76 480h-400l43 271h400l19 122l-27 93h-357l42 275h236l-293 1019h455z" />
    <glyph glyph-name="brokenbar" unicode="&#xa6;" horiz-adv-x="799" 
d="M217 -471v1076h365v-1076h-365zM217 1209v1075h365v-1075h-365z" />
    <glyph glyph-name="section" unicode="&#xa7;" horiz-adv-x="1823" 
d="M1879 2279l-92 -325q-278 56 -543 56q-146 0 -232 -50.5t-102 -148.5q-6 -36 3 -68.5t34.5 -61t53 -51.5t74 -48t81 -41.5t90.5 -41.5q64 -28 105 -47.5t101 -53t99 -63t83 -72.5t69.5 -87.5t42.5 -102.5t17 -122q0 -45 -7 -90q-42 -261 -326 -431q92 -115 92 -260
q0 -43 -7 -82q-20 -128 -82 -229t-146.5 -164t-193 -104.5t-215 -58t-219.5 -16.5q-184 0 -328 17t-305 57l94 333q274 -56 541 -56h51t53.5 2t59 5t55.5 9.5t55.5 16.5t47 25t42.5 34.5t29.5 47t18.5 60.5q7 42 -7 79t-44 66.5t-72.5 55.5t-93.5 50.5t-106 48.5
q-2 0 -3.5 0.5t-2.5 1.5q-71 31 -109.5 49t-103.5 53t-102 63t-84 72.5t-72 89.5t-42.5 106t-17.5 129q0 54 8 102q43 272 322 443q-75 106 -75 232q0 35 6 74q41 255 248 413.5t523 158.5q183 0 327 -17.5t307 -57.5zM1351 825q3 18 3 36q0 76 -59.5 140t-190.5 131
q-44 23 -158 68.5t-171 78.5q-141 -75 -162 -210q-3 -19 -3 -39q0 -72 51 -133.5t167 -121.5q54 -28 178 -74.5t181 -78.5q144 79 164 203z" />
    <glyph glyph-name="dieresis" unicode="&#xa8;" horiz-adv-x="1419" 
d="M513 1901q-82 0 -135 52t-53 132q0 17 3 35q15 93 88.5 156.5t165.5 63.5q80 0 129.5 -51t49.5 -130q0 -19 -3 -39q-15 -93 -85 -156t-160 -63zM1178 1901q-81 0 -133 51t-52 131q0 17 3 37q15 93 88 156.5t164 63.5q81 0 130.5 -51t49.5 -130q0 -19 -3 -39
q-15 -93 -85.5 -156t-161.5 -63z" />
    <glyph glyph-name="copyright" unicode="&#xa9;" horiz-adv-x="2659" 
d="M1633 969h276q-21 -227 -182.5 -365t-384.5 -138q-120 0 -219.5 35t-171 98t-120.5 151t-73 193.5t-24 225.5q0 135 39.5 258.5t114 221.5t192 156.5t262.5 58.5q95 0 187 -28.5t172 -83.5t136.5 -146.5t71.5 -207.5h-276q-18 112 -96 173t-195 61q-142 0 -228 -124
t-86 -339q0 -216 83 -337t231 -121q110 0 190 69.5t101 188.5zM1330 2354q242 0 462 -93.5t379.5 -252t253.5 -378t94 -461.5t-94 -463t-253.5 -381t-379.5 -254.5t-462 -94.5t-462 94.5t-379.5 254.5t-253.5 381t-94 463t94 461.5t253.5 378t379.5 252t462 93.5zM1330 2105
q-193 0 -364.5 -72.5t-295 -197t-195.5 -298t-72 -368.5q0 -197 72 -372.5t195.5 -300.5t295 -197.5t364.5 -72.5t364.5 72.5t295 197.5t195.5 300.5t72 372.5q0 195 -72 368.5t-195.5 298t-295 197t-364.5 72.5z" />
    <glyph glyph-name="ordfeminine" unicode="&#xaa;" horiz-adv-x="1362" 
d="M1339 1903l-82 -515q-19 -119 -46 -230q-211 -115 -556 -115q-214 0 -313 73t-99 222q0 40 8 94q52 331 397 387q114 19 383 29q5 35 5 59q0 77 -45.5 113t-142.5 36q-181 0 -431 -32l11 224q280 47 481 47q77 0 139 -8t119 -29.5t95.5 -55t61 -87.5t22.5 -125
q0 -44 -7 -87zM725 1626q-83 -20 -121 -58.5t-52 -131.5q-4 -21 -4 -44q0 -67 44 -93.5t133 -26.5q133 0 215 33q15 66 32 165l29 183q-201 -9 -276 -27z" />
    <glyph glyph-name="guillemotleft" unicode="&#xab;" horiz-adv-x="1843" 
d="M601 862l326 -690h-406l-369 690l587 690h406zM1352 862l325 -690h-405l-370 690l588 690h405z" />
    <glyph glyph-name="logicalnot" unicode="&#xac;" horiz-adv-x="2040" 
d="M1944 1340l-167 -1048h-389l106 669h-1232l61 379h1621z" />
    <glyph glyph-name="uni00AD" unicode="&#xad;" horiz-adv-x="1273" 
d="M246 708l57 356h862l-57 -356h-862z" />
    <glyph glyph-name="registered" unicode="&#xae;" horiz-adv-x="1697" 
d="M761 1561v-308h-182v790h287q164 0 238.5 -60.5t74.5 -178.5q0 -166 -143 -214l165 -337h-204l-147 308h-89zM126 1633q0 147 57 281t154 230t231 153t281 57t280.5 -57t230.5 -153t154 -230t57 -281t-57 -281.5t-154 -231.5t-230.5 -154.5t-280.5 -57.5t-281 57.5
t-231 154.5t-154 231.5t-57 281.5zM1391 1633q0 152 -71.5 278t-196 198t-274.5 72t-275 -72t-196.5 -198t-71.5 -278q0 -234 157 -393t386 -159t385.5 159t156.5 393zM842 1891h-81v-178h84q81 0 118 22.5t37 68.5q0 47 -37 67t-121 20z" />
    <glyph glyph-name="macron" unicode="&#xaf;" horiz-adv-x="1410" 
d="M349 1975l45 277h1000l-45 -277h-1000z" />
    <glyph glyph-name="degree" unicode="&#xb0;" horiz-adv-x="1306" 
d="M652 1298q-143 0 -264.5 71t-192.5 192.5t-71 264.5t71 264.5t192.5 192.5t264.5 71t265 -71t193 -192.5t71 -264.5t-71 -264.5t-193 -192.5t-265 -71zM652 1551q116 0 196 80t80 195t-80.5 195t-195.5 80t-195 -80t-80 -195t80 -195t195 -80z" />
    <glyph glyph-name="plusminus" unicode="&#xb1;" horiz-adv-x="1930" 
d="M922 1438l82 521h387l-83 -521h617l-60 -376h-616l-83 -523h-387l83 523h-618l60 376h618zM76 -2l60 378h1621l-60 -378h-1621z" />
    <glyph glyph-name="twosuperior" unicode="&#xb2;" horiz-adv-x="1150" 
d="M367 2680q260 49 459 49q98 0 174 -14t136.5 -45.5t93 -88t32.5 -136.5q0 -34 -6 -73q-29 -183 -146 -305t-329 -202q-125 -48 -177.5 -101t-81.5 -147h614l-41 -259h-960q44 132 68 199t61.5 152.5t70 129.5t83 95.5t112 86.5t146.5 69q132 54 191.5 104.5t73.5 134.5
q3 21 3 38q0 66 -58.5 88t-211.5 22q-119 0 -315 -32z" />
    <glyph glyph-name="threesuperior" unicode="&#xb3;" horiz-adv-x="1132" 
d="M1229 2374q-15 -96 -70 -173t-146 -126q148 -71 148 -225q0 -37 -5 -66q-16 -99 -52 -174.5t-87 -125t-122.5 -81t-152.5 -44.5t-183 -13q-176 0 -419 49l69 236q230 -32 341 -32q141 0 205 34.5t80 140.5q4 21 4 45q0 102 -99 114q-104 14 -269 14h-42l35 224
q158 4 316 26q113 17 133 148q3 18 3 33q0 27 -10 46.5t-25.5 31t-42 17.5t-52.5 8t-63 2q-119 0 -373 -33l6 233q258 48 428 48q78 0 139.5 -6.5t122 -25t100.5 -49.5t64.5 -82t24.5 -119q0 -35 -6 -75z" />
    <glyph glyph-name="acute" unicode="&#xb4;" horiz-adv-x="862" 
d="M213 1876l388 535h451l-507 -535h-332z" />
    <glyph glyph-name="mu" unicode="&#xb5;" horiz-adv-x="2081" 
d="M116 -656l386 2437h402l-171 -1075q-8 -51 -8 -92q0 -129 64 -204.5t184 -75.5q381 0 486 672l122 775h405l-173 -1091q-26 -163 -26 -230q0 -76 25.5 -123t87.5 -69l-46 -292q-107 0 -188.5 24.5t-130.5 68.5t-76.5 95t-39.5 114q-109 -156 -233.5 -229t-271.5 -73
q-180 0 -278 121l-119 -753h-401z" />
    <glyph glyph-name="paragraph" unicode="&#xb6;" horiz-adv-x="2113" 
d="M1029 -513h-329l229 1439q-149 5 -273.5 52.5t-209 126t-131.5 184t-47 226.5q0 48 8 102q37 235 169 396.5t336 239t473 77.5h901l-451 -2843h-327l405 2554h-348z" />
    <glyph glyph-name="periodcentered" unicode="&#xb7;" horiz-adv-x="908" 
d="M489 699q-123 0 -174 36t-51 126q0 41 9 94q23 146 86.5 201t210.5 55q123 0 173.5 -36.5t50.5 -127.5q0 -45 -8 -92q-23 -146 -86 -201t-211 -55z" />
    <glyph glyph-name="cedilla" unicode="&#xb8;" horiz-adv-x="716" 
d="M76 -311l231 311h238l-147 -188q90 -10 153 -64t63 -140q0 -17 -3 -35q-12 -76 -52.5 -133.5t-100.5 -91t-129.5 -49.5t-146.5 -16q-71 0 -142 20t-122 55l89 171q103 -57 200 -57q49 0 86 21.5t45 68.5q6 36 -20 62.5t-70.5 39.5t-87.5 19t-84 6z" />
    <glyph glyph-name="onesuperior" unicode="&#xb9;" horiz-adv-x="792" 
d="M386 1361l167 1054q-120 -27 -293 -47l24 241q209 30 386 108h235l-215 -1356h-304z" />
    <glyph glyph-name="ordmasculine" unicode="&#xba;" horiz-adv-x="1393" 
d="M728 1043q-244 0 -352 94t-108 310q0 94 20 223q54 342 198 483.5t441 141.5q244 0 352 -95t108 -310q0 -94 -20 -220q-36 -229 -110 -364.5t-201.5 -199t-327.5 -63.5zM573 1470q0 -105 43 -144.5t147 -39.5q95 0 151 34.5t90 115.5t59 234q19 123 19 193
q0 106 -43 147.5t-148 41.5q-95 0 -150 -32.5t-89 -113t-59 -236.5q-20 -126 -20 -200z" />
    <glyph glyph-name="guillemotright" unicode="&#xbb;" horiz-adv-x="1844" 
d="M1077 862l-589 -690h-404l543 690l-325 690h405zM1828 862l-589 -690h-406l545 690l-326 690h406z" />
    <glyph glyph-name="onequarter" unicode="&#xbc;" horiz-adv-x="2484" 
d="M1816 0l48 299h-417q-93 0 -132.5 30.5t-39.5 88.5q0 18 3 37q13 84 132 214l527 573q68 75 121.5 102t119.5 27q60 0 96 -34t36 -98q0 -18 -3 -39l-105 -664h160l-38 -237h-159l-48 -299h-301zM730 2328h235l-215 -1357h-305l167 1054q-123 -28 -293 -46l25 240
q216 33 386 109zM2303 2378l-1725 -2426h-301l1724 2426h302zM1605 536h298l64 406z" />
    <glyph glyph-name="onehalf" unicode="&#xbd;" horiz-adv-x="2765" 
d="M1801 1322q262 49 459 49q99 0 174 -13t136.5 -43.5t94 -87t32.5 -136.5q0 -34 -6 -73q-29 -184 -146 -307.5t-329 -203.5q-87 -33 -138 -69t-76.5 -75.5t-44.5 -103.5h613l-41 -259h-959q52 157 81 234t74 169.5t93 141t120 97.5t173 90q131 53 190 104t73 135
q3 19 3 37q0 66 -58 88.5t-210 22.5q-130 0 -317 -32zM325 1979l25 240q217 33 387 109h234l-215 -1357h-304l167 1054q-126 -28 -294 -46zM2007 2378h302l-1725 -2426h-300z" />
    <glyph glyph-name="threequarters" unicode="&#xbe;" horiz-adv-x="2714" 
d="M2049 0l48 299h-418q-93 0 -132.5 31t-39.5 89q0 17 3 36q13 84 132 214l527 573q69 74 122.5 101.5t118.5 27.5q60 0 96.5 -34t36.5 -99q0 -17 -3 -38l-105 -664h159l-37 -237h-160l-48 -299h-300zM1279 1984q-32 -199 -215 -298q147 -73 147 -225q0 -37 -5 -66
q-19 -124 -68.5 -210t-128.5 -135.5t-176 -71t-225 -21.5q-171 0 -418 48l69 237q237 -33 340 -33q141 0 205.5 35t81.5 141q4 30 4 43q0 102 -101 116q-114 14 -267 14h-42l35 224q173 4 315 26q59 9 90.5 45.5t41.5 102.5q3 18 3 33q0 34 -13.5 55.5t-41.5 31.5
t-58.5 13.5t-77.5 3.5q-129 0 -374 -32l7 232q253 49 427 49q78 0 140 -6.5t122 -25.5t100 -50t64.5 -82t24.5 -120q0 -34 -6 -74zM2535 2378l-1724 -2426h-301l1724 2426h301zM1837 536h297l64 406z" />
    <glyph glyph-name="questiondown" unicode="&#xbf;" horiz-adv-x="1734" 
d="M949 1077h382l-27 -219q-4 -41 -11 -81q-15 -93 -46.5 -158t-73.5 -99.5t-92 -55t-104 -30t-107.5 -18.5t-103.5 -27t-91.5 -48.5t-72 -89.5t-44.5 -144q-8 -54 -8 -92q0 -121 86 -168t303 -47q292 0 554 51l20 -367q-337 -79 -690 -79q-104 0 -184.5 5t-162 19
t-141.5 37.5t-113.5 62t-86.5 91.5t-52 126.5t-19 166.5q0 85 17 196q20 128 59.5 227.5t89.5 160.5t109 105t121 67t122.5 39.5t116 29.5t99.5 30t74.5 48t39.5 77zM1251 1783q122 0 173 -37.5t51 -127.5q0 -35 -8 -86q-22 -140 -86.5 -195.5t-208.5 -55.5
q-121 0 -172.5 38t-51.5 129q0 41 7 84q22 140 86 195.5t210 55.5z" />
    <glyph glyph-name="Agrave" unicode="&#xc0;" horiz-adv-x="2192" 
d="M433 0h-477l1000 2029q83 168 188 246.5t239 78.5q264 0 320 -325l347 -2029h-492l-83 577h-780zM1243 2560l-383 433h482l256 -433h-355zM860 940h563l-135 942z" />
    <glyph glyph-name="Aacute" unicode="&#xc1;" horiz-adv-x="2193" 
d="M434 0h-477l999 2029q84 169 188.5 247t238.5 78q265 0 321 -325l346 -2029h-491l-83 577h-780zM1228 2540l394 433h482l-519 -433h-357zM860 940h563l-135 942z" />
    <glyph glyph-name="Acircumflex" unicode="&#xc2;" horiz-adv-x="2193" 
d="M434 0h-477l999 2029q84 169 188.5 247t238.5 78q265 0 321 -325l346 -2029h-492l-83 577h-779zM1338 2974h267l345 -435h-343l-163 231l-242 -231h-338zM861 940h562l-134 942z" />
    <glyph glyph-name="Atilde" unicode="&#xc3;" horiz-adv-x="2193" 
d="M1713 2957h227q-23 -100 -63 -180t-88 -129t-100 -74.5t-103 -25.5q-56 0 -99 18t-67.5 44t-44.5 52t-40 44t-43 18q-74 0 -125 -168h-227q45 196 145 303t208 107q56 0 98.5 -18t67.5 -44t44.5 -52t40 -44t43.5 -18q73 0 126 167zM-43 0l999 2029q84 169 188.5 247
t238.5 78q265 0 321 -325l347 -2029h-492l-83 577h-780l-262 -577h-477zM1423 940l-135 942l-428 -942h563z" />
    <glyph glyph-name="Adieresis" unicode="&#xc4;" horiz-adv-x="2192" 
d="M1075 2532q-82 0 -134.5 52t-52.5 132q0 17 3 35q14 93 88 156.5t166 63.5q80 0 129.5 -51t49.5 -131q0 -19 -3 -38q-15 -93 -85.5 -156t-160.5 -63zM1741 2532q-81 0 -133 51.5t-52 131.5q0 18 3 36q14 93 87 156.5t164 63.5q81 0 130.5 -51t49.5 -130q0 -20 -3 -39
q-14 -93 -84.5 -156t-161.5 -63zM434 0h-477l999 2029q83 168 188 246.5t239 78.5q264 0 320 -325l347 -2029h-492l-83 577h-779zM860 940h563l-135 942z" />
    <glyph glyph-name="Aring" unicode="&#xc5;" horiz-adv-x="2193" 
d="M1803 2913q0 -25 -5 -57q-22 -144 -139 -246t-258 -102q-127 0 -209 84t-82 209q0 30 4 55q23 145 139.5 247t257.5 102q127 0 209.5 -83.5t82.5 -208.5zM434 0h-477l999 2029q84 169 188.5 247t238.5 78q265 0 321 -325l346 -2029h-492l-83 577h-779zM1429 2685
q70 0 127 50t69 121q11 71 -30.5 122t-111.5 51t-127.5 -51t-68.5 -122t30.5 -121t111.5 -50zM860 940h563l-135 942z" />
    <glyph glyph-name="AE" unicode="&#xc6;" horiz-adv-x="2987" 
d="M435 0h-478l995 2009q52 104 118 174t147 106.5t163 50.5t187 14q204 0 325 -91q103 46 230.5 59.5t312.5 13.5q287 0 618 -17l-59 -367h-630q-106 0 -168 -12t-104 -50t-62 -94.5t-36 -158.5l-42 -264h908l-59 -376h-909l-47 -302q-14 -86 -14 -140q0 -104 60 -140.5
t224 -36.5h630l-58 -366q-362 -18 -623 -18q-73 0 -123.5 1t-116.5 5.5t-112 13t-99.5 24t-89.5 37t-71.5 53.5t-56.5 72.5t-34 95.5t-13 121q0 58 13 146l2 14h-663zM866 940h554l134 841q6 36 6 65q0 61 -26 89t-79 28q-64 0 -110 -39.5t-84 -123.5z" />
    <glyph glyph-name="Ccedilla" unicode="&#xc7;" horiz-adv-x="1836" 
d="M1894 1918q-234 40 -464 40q-90 0 -165.5 -13t-133.5 -33t-106.5 -59t-82 -74t-62.5 -96t-46.5 -107.5t-36 -127t-28 -135t-24.5 -148.5q-43 -269 -43 -388q0 -98 21.5 -168.5t73.5 -126t147 -83t234 -27.5q234 0 476 40l-16 -366q-220 -59 -515 -68l-117 -150
q90 -10 153.5 -64t63.5 -139q0 -17 -3 -35q-12 -77 -53 -134.5t-101.5 -91t-129.5 -49.5t-147 -16q-70 0 -141.5 20t-122.5 55l89 171q103 -57 201 -57q49 0 86 21.5t45 68.5q6 36 -20 62.5t-70.5 40t-87.5 19.5t-84 6l204 275q-182 13 -308 61.5t-204.5 138t-113.5 214
t-35 297.5q0 195 45 473q34 215 77 376.5t107 299t149 230.5t200.5 158t263.5 95t338 30q340 0 586 -71z" />
    <glyph glyph-name="Egrave" unicode="&#xc8;" horiz-adv-x="1858" 
d="M1924 2319l-58 -367h-631q-106 0 -168 -12t-104 -50t-62 -94.5t-36 -158.5l-41 -264h908l-60 -376h-908l-48 -302q-14 -87 -14 -141q0 -104 60 -140t223 -36h631l-58 -366q-362 -18 -623 -18q-73 0 -123.5 1t-116.5 5.5t-112 13t-99.5 24t-89.5 37t-71.5 53.5t-56.5 72.5
t-34 95.5t-13 121q0 68 13 146l191 1205q18 114 56 203t83 148.5t116 101t133 64t156 34.5t163 14.5t176 2.5q286 0 618 -17zM1268 2522l-383 433h482l257 -433h-356z" />
    <glyph glyph-name="Eacute" unicode="&#xc9;" horiz-adv-x="1859" 
d="M232 563l191 1205q18 114 56 203t83 148.5t116 101t133 64t156 34.5t163 14.5t176 2.5q286 0 618 -17l-58 -367h-631q-106 0 -168 -12t-104 -50t-62 -94.5t-36 -158.5l-41 -264h908l-59 -376h-909l-47 -302q-14 -87 -14 -141q0 -104 60 -140t223 -36h630l-58 -366
q-362 -18 -623 -18q-73 0 -123.5 1t-116.5 5.5t-112 13t-99.5 24t-89.5 37t-71.5 53.5t-56.5 72.5t-34 95.5t-13 121q0 68 13 146zM1049 2522l393 433h482l-519 -433h-356z" />
    <glyph glyph-name="Ecircumflex" unicode="&#xca;" horiz-adv-x="1858" 
d="M1923 2319l-58 -367h-631q-71 0 -119.5 -5t-88 -20t-64 -36t-44 -58.5t-31 -82.5t-22.5 -113l-42 -264h908l-59 -376h-908l-48 -302q-14 -87 -14 -141q0 -104 60 -140t223 -36h631l-58 -366q-364 -18 -624 -18q-95 0 -158 2t-145 11t-135.5 26t-111 48t-90 75.5t-54 110
t-21.5 150.5q0 68 13 146l191 1205q18 114 55.5 203t83 148.5t116 101t132.5 64t156 34.5t163 14.5t176 2.5q287 0 618 -17zM1229 2956h267l345 -435h-343l-162 231l-242 -231h-339z" />
    <glyph glyph-name="Edieresis" unicode="&#xcb;" horiz-adv-x="1856" 
d="M1922 2319l-58 -367h-631q-71 0 -119.5 -5t-88 -20t-64 -36t-44 -58.5t-31 -82.5t-22.5 -113l-42 -264h908l-60 -376h-908l-48 -302q-14 -86 -14 -139q0 -104 60.5 -141t223.5 -37h631l-58 -366q-365 -18 -624 -18q-73 0 -123.5 1t-116 6t-111.5 13t-99.5 23.5t-89 37
t-71.5 53.5t-56.5 73t-33.5 96t-13 121t12 145l190 1205q18 114 56 203t83.5 148.5t116 101t132.5 64t156 34.5t163.5 14.5t175.5 2.5q286 0 618 -17zM969 2516q-82 0 -134.5 52t-52.5 132q0 17 3 35q15 93 88.5 156.5t164.5 63.5q80 0 130 -51t50 -130q0 -20 -3 -39
q-14 -93 -84.5 -156t-161.5 -63zM1635 2516q-81 0 -133 51.5t-52 131.5q0 18 3 36q15 93 87.5 156.5t163.5 63.5q81 0 131 -51t50 -130q0 -20 -3 -39q-14 -93 -85 -156t-162 -63z" />
    <glyph glyph-name="Igrave" unicode="&#xcc;" horiz-adv-x="955" 
d="M152 0l369 2330h465l-369 -2330h-465zM628 2530l-382 433h482l256 -433h-356z" />
    <glyph glyph-name="Iacute" unicode="&#xcd;" horiz-adv-x="955" 
d="M152 0l369 2330h465l-369 -2330h-465zM585 2530l394 433h482l-520 -433h-356z" />
    <glyph glyph-name="Icircumflex" unicode="&#xce;" horiz-adv-x="955" 
d="M714 2948h267l345 -435h-343l-163 231l-241 -231h-339zM152 0l369 2330h465l-369 -2330h-465z" />
    <glyph glyph-name="Idieresis" unicode="&#xcf;" horiz-adv-x="955" 
d="M452 2509q-82 0 -134.5 52t-52.5 132q0 17 3 35q15 93 88 156.5t165 63.5q80 0 130 -51.5t50 -130.5q0 -18 -3 -38q-15 -93 -85.5 -156t-160.5 -63zM1118 2509q-81 0 -133 51.5t-52 130.5q0 17 3 37q15 93 87.5 156.5t163.5 63.5q81 0 131 -51t50 -131q0 -18 -3 -38
q-15 -93 -85.5 -156t-161.5 -63zM152 0l369 2330h465l-369 -2330h-465z" />
    <glyph glyph-name="Eth" unicode="&#xd0;" horiz-adv-x="2257" 
d="M392 1045h-177l49 310h177l148 933q347 66 755 66q246 0 414 -43.5t267 -135.5t141.5 -220.5t42.5 -312.5q0 -183 -46 -477q-25 -157 -52.5 -279.5t-67 -240t-89 -205.5t-116 -166t-150.5 -131t-190.5 -92t-238.5 -57t-292 -18q-404 0 -734 64zM856 1045l-105 -666
q108 -17 214 -17q126 0 226 23t169 54.5t123.5 97.5t85 118.5t58 153.5t40 166t32.5 190q42 263 42 378q0 102 -23.5 175.5t-80 131.5t-161 87.5t-257.5 29.5q-99 0 -219 -16l-95 -596h333l-50 -310h-332z" />
    <glyph glyph-name="Ntilde" unicode="&#xd1;" horiz-adv-x="2315" 
d="M1154 2048l500 -1427l271 1709h417l-317 -1999q-56 -355 -337 -355q-129 0 -207 67.5t-138 239.5l-498 1432l-271 -1715h-417l317 2000q56 354 336 354q122 0 204 -70.5t140 -235.5zM1783 2955h227q-23 -100 -63 -180t-88 -129t-100 -74.5t-103 -25.5q-55 0 -98 18
t-67.5 44t-44.5 52t-40 44t-43 18q-76 0 -126 -168h-228q46 196 146.5 303t207.5 107q56 0 98.5 -18t67.5 -44t45 -52t40.5 -44t43.5 -18q72 0 125 167z" />
    <glyph glyph-name="Ograve" unicode="&#xd2;" horiz-adv-x="2195" 
d="M1003 -24q-280 0 -449 75.5t-245 230.5t-76 410q0 190 44 473q34 217 78.5 382t109 301t147.5 228.5t195.5 156t253 92.5t318.5 29q280 0 448.5 -75t245 -229.5t76.5 -408.5q0 -195 -45 -476q-34 -217 -78.5 -381.5t-108.5 -301t-147.5 -229t-195.5 -156t-252.5 -92.5
t-318.5 -29zM1634 1165q49 315 49 438q0 89 -17 152.5t-57 112.5t-110.5 73t-173.5 24q-91 0 -164.5 -21t-126 -53t-94.5 -93t-69 -117t-51 -151t-38 -169.5t-33 -195.5q-50 -321 -50 -438q0 -88 17 -152t57 -112.5t111 -72.5t174 -24q91 0 164 21t125.5 53t95 92.5t69 117
t51 151t38.5 169t33 195.5zM1326 2529l-383 433h482l256 -433h-355z" />
    <glyph glyph-name="Oacute" unicode="&#xd3;" horiz-adv-x="2195" 
d="M1003 -24q-280 0 -449 75t-245 230t-76 409q0 200 44 475q34 217 78.5 382t109 301t147.5 228.5t195.5 156t253 92.5t318.5 29q280 0 448.5 -75t244.5 -230t76 -409q0 -200 -44 -475q-34 -217 -78.5 -381.5t-108.5 -301t-147.5 -229t-195.5 -156t-252.5 -92.5t-318.5 -29
zM699 727q0 -88 17 -152t57 -112.5t110.5 -72.5t173.5 -24q91 0 164.5 21t126 53t94.5 92.5t69 117t51 151t38 169t33 195.5q50 321 50 439q0 88 -17 152t-57 112.5t-111 72.5t-174 24q-91 0 -164.5 -21t-126 -53t-94.5 -93t-69 -117t-51 -151t-38 -169.5t-33 -195.5
q-49 -315 -49 -438zM1149 2529l394 433h482l-519 -433h-357z" />
    <glyph glyph-name="Ocircumflex" unicode="&#xd4;" horiz-adv-x="2194" 
d="M1002 -24q-280 0 -448.5 75t-244.5 230t-76 409q0 200 44 475q34 217 78.5 382t109 301t147.5 228.5t195.5 156t253 92.5t318.5 29q280 0 448.5 -75t244.5 -229.5t76 -408.5q0 -195 -45 -476q-34 -217 -78.5 -381.5t-108.5 -301t-147 -229t-195 -156t-252.5 -92.5
t-319.5 -29zM699 727q0 -88 17 -152t57 -112.5t110.5 -72.5t173.5 -24q91 0 164.5 21t126 53t94.5 92.5t69 117t51 151t38 169t33 195.5q50 321 50 439q0 88 -17 152t-57 112.5t-111 72.5t-174 24q-91 0 -164.5 -21t-126 -53t-94.5 -93t-69 -117t-51 -151t-38 -169.5
t-33 -195.5q-49 -315 -49 -438zM1338 2963h267l344 -435h-343l-162 231l-242 -231h-338z" />
    <glyph glyph-name="Otilde" unicode="&#xd5;" horiz-adv-x="2195" 
d="M1712 2930h227q-23 -100 -63 -180t-88 -129t-100 -74.5t-103 -25.5q-56 0 -98.5 18t-67.5 44t-44.5 52t-39.5 44t-43 18q-75 0 -126 -168h-228q46 196 147 303t208 107q56 0 98.5 -18t67 -44t44 -52t40 -44t43.5 -18q37 0 67.5 40t58.5 127zM277 1165q34 217 78.5 382
t109 301t148 228.5t196 156t253 92.5t318.5 29q280 0 448.5 -75t244.5 -229.5t76 -408.5q0 -195 -45 -476q-34 -217 -78.5 -382t-108.5 -301t-147 -228.5t-195.5 -156t-253 -92.5t-318.5 -29q-280 0 -449 75.5t-245 230.5t-76 410q0 190 44 473zM1324 1965q-91 0 -164 -21
t-125.5 -53t-95 -93t-69 -117t-51 -151t-38.5 -169.5t-33 -195.5q-49 -315 -49 -437q0 -88 17 -152t57 -113t111 -73t174 -24q91 0 164 21t125.5 53t95 92.5t69 117t51 151t38.5 169t33 195.5q49 315 49 437q0 89 -17 153t-57 112.5t-111 73t-174 24.5z" />
    <glyph glyph-name="Odieresis" unicode="&#xd6;" horiz-adv-x="2194" 
d="M1002 -24q-280 0 -448.5 75t-244.5 230t-76 409q0 200 44 475q34 217 78.5 382t108.5 301t147.5 228.5t196 156t253 92.5t318.5 29q280 0 448.5 -75t244.5 -229.5t76 -408.5q0 -195 -45 -476q-34 -217 -78.5 -382t-108.5 -301t-147 -228.5t-195.5 -156t-253 -92.5
t-318.5 -29zM698 727q0 -88 17 -152t57 -112.5t111 -72.5t174 -24q91 0 164 21t125.5 53t95 92.5t69 117t51 151t38.5 169t33 195.5q50 311 50 439q0 88 -17 152t-57 112.5t-110.5 72.5t-173.5 24q-91 0 -164.5 -21t-126 -53t-95 -93t-69 -117t-51 -151t-38.5 -169.5
t-33 -195.5q-50 -321 -50 -438zM1073 2502q-82 0 -134.5 52t-52.5 132q0 17 3 35q15 93 88 156.5t165 63.5q80 0 130 -51t50 -130q0 -20 -3 -39q-15 -93 -85.5 -156t-160.5 -63zM1739 2502q-81 0 -133 51.5t-52 131.5q0 18 3 36q15 93 87.5 156.5t163.5 63.5q81 0 131 -51
t50 -130q0 -20 -3 -39q-15 -93 -85.5 -156t-161.5 -63z" />
    <glyph glyph-name="multiply" unicode="&#xd7;" horiz-adv-x="1738" 
d="M1305 234l-400 487l-553 -487l-212 258l553 486l-399 487l298 257l397 -484l552 485l208 -258l-550 -484l399 -486z" />
    <glyph glyph-name="Oslash" unicode="&#xd8;" horiz-adv-x="2195" 
d="M586 37l-185 -267l-240 171l188 271q-117 163 -117 476q0 195 45 477q34 217 78.5 382t108.5 301t147.5 228.5t196 156t253 92.5t318.5 29q253 0 415 -61l185 267l241 -171l-189 -272q117 -166 117 -479q0 -190 -44 -473q-34 -217 -78.5 -382t-109 -301t-147.5 -228.5
t-195.5 -156t-253 -92.5t-318.5 -29q-252 0 -416 61zM1325 1965q-91 0 -164.5 -21t-126 -53t-95 -93t-69 -117t-51 -151t-38.5 -169.5t-33 -195.5q-51 -327 -49 -447h2l836 1205q-81 42 -212 42zM1681 1613l-837 -1206q79 -41 213 -41q80 0 145.5 13.5t116.5 45.5t90.5 67.5
t70.5 96.5t52 113.5t41 138.5t32 152t29 172q51 327 49 448h-2z" />
    <glyph glyph-name="Ugrave" unicode="&#xd9;" horiz-adv-x="2184" 
d="M2223 2330l-244 -1545q-22 -136 -60 -246.5t-89 -194t-119 -147t-144 -105t-169.5 -68t-191.5 -37.5t-213 -11q-142 0 -252.5 17t-206 58t-157.5 107t-97 168t-35 237q0 102 19 222l245 1545h457l-249 -1571q-11 -69 -11 -120q0 -142 81.5 -204t268.5 -62q219 0 323 88.5
t137 297.5l249 1571h458zM1305 2513l-381 433h481l257 -433h-357z" />
    <glyph glyph-name="Uacute" unicode="&#xda;" horiz-adv-x="2183" 
d="M2222 2330l-244 -1545q-22 -136 -60 -246.5t-89 -194t-119 -147t-144 -105t-169.5 -68t-191.5 -37.5t-213 -11q-142 0 -252.5 17t-205.5 58t-157 107t-97 168t-35 237q0 104 19 222l244 1545h458l-250 -1571q-11 -69 -11 -120q0 -142 81.5 -204t268.5 -62q219 0 323 88.5
t137 297.5l250 1571h457zM1145 2513l394 433h481l-519 -433h-356z" />
    <glyph glyph-name="Ucircumflex" unicode="&#xdb;" horiz-adv-x="2184" 
d="M2223 2330l-244 -1545q-22 -136 -60 -246.5t-89 -194t-119 -147t-144 -105t-169.5 -68t-191.5 -37.5t-213 -11q-142 0 -253 17t-206 58t-157 107t-97 167.5t-35 236.5q0 103 19 223l245 1545h457l-249 -1571q-11 -69 -11 -121q0 -142 81.5 -203.5t267.5 -61.5
q220 0 324 88.5t137 297.5l249 1571h458zM1342 2947h268l343 -435h-343l-161 231l-243 -231h-339z" />
    <glyph glyph-name="Udieresis" unicode="&#xdc;" horiz-adv-x="2183" 
d="M2223 2330l-245 -1545q-30 -189 -92.5 -330t-148 -232t-203.5 -146.5t-248 -78t-293 -22.5q-142 0 -252.5 17t-206 58t-157.5 107t-97 168t-35 237q0 102 19 222l245 1545h457l-249 -1571q-11 -69 -11 -120q0 -142 81.5 -204t268.5 -62q219 0 323 88.5t137 297.5
l249 1571h458zM1064 2510q-82 0 -134 51.5t-52 130.5q0 18 3 37q14 93 87 156.5t165 63.5q80 0 130 -51t50 -130q0 -20 -3 -39q-14 -93 -84.5 -156t-161.5 -63zM1730 2510q-81 0 -133 51.5t-52 131.5q0 18 3 36q15 93 87.5 156.5t163.5 63.5q81 0 131 -51t50 -130
q0 -20 -3 -39q-15 -93 -85.5 -156t-161.5 -63z" />
    <glyph glyph-name="Yacute" unicode="&#xdd;" horiz-adv-x="1985" 
d="M1273 898l-143 -898h-464l143 898l-509 1432h500l318 -966l637 966h482zM1062 2503l395 433h481l-520 -433h-356z" />
    <glyph glyph-name="Thorn" unicode="&#xde;" horiz-adv-x="1968" 
d="M131 0l369 2330h463l-61 -389q130 10 281 10q104 0 188 -5.5t170.5 -20.5t153 -40.5t126 -67t97.5 -97.5t60.5 -134.5t22.5 -176.5q0 -81 -15 -178q-28 -178 -93 -308.5t-153 -211t-213 -129t-254.5 -66t-295.5 -17.5q-130 0 -302 10l-81 -509h-463zM734 883
q99 -13 280 -13q113 0 195 15.5t150 55t109.5 111.5t58.5 179q8 56 8 96q0 137 -92 195.5t-307 58.5q-147 0 -295 -20z" />
    <glyph glyph-name="germandbls" unicode="&#xdf;" horiz-adv-x="2072" 
d="M803 1569l-248 -1569h-436l249 1569q40 251 112.5 424.5t190 286t279 163t382.5 50.5q182 0 319 -35.5t220 -100.5t123.5 -151t40.5 -193q0 -46 -8 -100q-15 -95 -55 -171t-92.5 -124.5t-112.5 -88t-118.5 -70t-108 -59.5t-83.5 -67.5t-41 -84.5q-9 -56 16 -94.5
t72.5 -62t106.5 -45t120.5 -51t112 -70.5t83 -114t32.5 -172q0 -57 -10 -118q-23 -147 -86 -255t-156.5 -170t-203.5 -91t-242 -29q-122 0 -268.5 22t-262.5 60l90 329q255 -59 417 -59q241 0 270 182q3 21 3 41q0 50 -23 87.5t-61 59t-86.5 43.5t-98.5 39.5t-98.5 48
t-86.5 67.5t-61 100t-23 144q0 50 9 111q15 94 54 166.5t91 117.5t111.5 80.5t118 65t108 61t84.5 78t45 107.5q2 10 2 29q0 82 -77 130t-237 48q-144 0 -235 -51.5t-150 -174.5t-93 -339z" />
    <glyph glyph-name="agrave" unicode="&#xe0;" horiz-adv-x="1817" 
d="M1729 1232l-118 -753q-25 -158 -69 -338q-305 -165 -806 -165q-309 0 -452 106t-143 323q0 64 12 139q39 243 175.5 384t397.5 182q181 29 567 45q7 41 7 80q0 112 -67.5 165t-213.5 53q-265 0 -623 -46l16 330q402 68 695 68q111 0 201 -12t172.5 -42.5t138 -80
t88.5 -128t33 -182.5q0 -56 -11 -128zM837 825q-125 -29 -179.5 -84.5t-75.5 -190.5q-5 -28 -5 -61q0 -99 65 -137.5t198 -38.5q198 0 316 48q26 100 49 239l42 265q-14 -1 -65.5 -3.5t-73 -3.5t-67 -4.5t-73.5 -7t-64.5 -9t-66.5 -12.5zM1130 2539l219 -535h-332l-337 535
h450z" />
    <glyph glyph-name="aacute" unicode="&#xe1;" horiz-adv-x="1817" 
d="M1730 1232l-119 -753q-25 -158 -69 -338q-304 -165 -806 -165q-309 0 -452 106t-143 323q0 64 12 139q39 243 175.5 383.5t398.5 182.5q188 29 566 45q7 41 7 82q0 111 -67.5 163.5t-213.5 52.5q-265 0 -623 -46l17 330q400 68 695 68q111 0 201 -12t172.5 -42.5t138 -80
t88.5 -128t33 -181.5q0 -57 -11 -129zM838 825q-85 -20 -132.5 -47t-78.5 -81t-45 -147q-5 -28 -5 -61q0 -99 65 -137.5t198 -38.5q198 0 316 48q24 88 49 239l42 265q-14 -1 -65.5 -3.5t-73 -3.5t-67 -4.5t-73 -7t-64 -9t-66.5 -12.5zM1770 2536l-506 -535h-333l389 535
h450z" />
    <glyph glyph-name="acircumflex" unicode="&#xe2;" horiz-adv-x="1815" 
d="M1729 1232l-120 -753q-29 -185 -68 -338q-304 -165 -806 -165q-309 0 -451.5 106t-142.5 322q0 65 12 140q39 243 175.5 384t396.5 182q183 29 568 45q7 51 7 79q0 113 -68 166t-214 53q-263 0 -623 -46l16 330q402 68 695 68q111 0 201 -12t173 -42.5t138.5 -79.5
t88.5 -127.5t33 -181.5q0 -56 -11 -130zM836 825q-124 -29 -178 -84.5t-76 -190.5q-5 -28 -5 -61q0 -99 64.5 -137.5t197.5 -38.5q198 0 316 48q24 88 49 239l42 265q-14 -1 -65.5 -3.5t-73 -3.5t-67 -4.5t-73.5 -7t-64.5 -9t-66.5 -12.5zM1667 1991h-321l-142 284
l-236 -284h-317l464 536h250z" />
    <glyph glyph-name="atilde" unicode="&#xe3;" horiz-adv-x="1816" 
d="M1730 1232l-120 -753q-27 -170 -68 -338q-304 -165 -806 -165q-310 0 -452.5 106.5t-142.5 323.5q0 64 12 138q39 243 175.5 384t397.5 182q181 29 567 45q7 41 7 80q0 112 -68 165t-214 53q-263 0 -623 -46l17 330q399 68 695 68q111 0 201 -12t173 -42.5t138.5 -79.5
t88.5 -127.5t33 -181.5q0 -56 -11 -130zM1054 2485q56 0 98.5 -18.5t67 -45.5t44 -54t39.5 -45.5t43 -18.5q75 0 127 174h227q-47 -204 -147.5 -315t-208.5 -111q-47 0 -85 13.5t-60.5 33.5t-43.5 44t-34.5 44t-31.5 33.5t-38 13.5q-73 0 -126 -174h-228q47 204 148 315
t209 111zM837 825q-84 -20 -131.5 -47t-78 -81t-45.5 -147q-5 -28 -5 -61q0 -99 65 -137.5t198 -38.5q198 0 316 48q24 88 49 239l42 265q-13 -1 -66 -3.5t-73.5 -3.5t-66.5 -4.5t-73.5 -7t-64 -9t-66.5 -12.5z" />
    <glyph glyph-name="adieresis" unicode="&#xe4;" horiz-adv-x="1817" 
d="M1730 1232l-119 -753q-25 -158 -69 -338q-304 -165 -806 -165q-309 0 -452 106t-143 323q0 64 12 139q39 243 176 384t398 182q181 29 566 45q7 41 7 82q0 111 -67.5 163.5t-213.5 52.5q-265 0 -623 -46l17 330q400 68 695 68q111 0 201 -12t172.5 -42.5t138 -80
t88.5 -128t33 -181.5q0 -57 -11 -129zM838 825q-85 -20 -132.5 -47t-78.5 -81t-45 -147q-5 -28 -5 -61q0 -99 65 -137.5t198 -38.5q199 0 316 48q24 88 49 239l43 265q-13 -1 -66 -3.5t-73.5 -3.5t-66.5 -4.5t-73.5 -7t-64 -9t-66.5 -12.5zM653 2254q14 93 87.5 156.5
t165.5 63.5q80 0 129.5 -51t49.5 -130q0 -19 -3 -39q-15 -93 -85 -156t-160 -63q-82 0 -134.5 51t-52.5 131q0 17 3 37zM1320 2254q15 93 88 156.5t164 63.5q81 0 131 -51t50 -130q0 -19 -3 -39q-15 -93 -85.5 -156t-161.5 -63q-82 0 -134 51.5t-52 131.5q0 18 3 36z" />
    <glyph glyph-name="aring" unicode="&#xe5;" horiz-adv-x="1817" 
d="M1730 1232l-119 -753q-25 -158 -69 -338q-302 -165 -805 -165q-310 0 -453 106t-143 323q0 64 12 139q39 243 176 384t398 182q181 29 566 45q7 41 7 81q0 112 -67.5 164.5t-213.5 52.5q-263 0 -623 -46l17 330q400 68 695 68q111 0 201 -12t172.5 -42.5t138 -80
t88.5 -128t33 -181.5q0 -57 -11 -129zM837 825q-125 -29 -179.5 -84.5t-75.5 -190.5q-5 -28 -5 -61q0 -99 65 -137.5t199 -38.5q197 0 315 48q24 88 49 239l42 265q-14 -1 -65.5 -3.5t-73 -3.5t-67 -4.5t-73.5 -7t-64.5 -9t-66.5 -12.5zM854 2309q23 145 139.5 247
t258.5 102q127 0 209 -83.5t82 -208.5q0 -25 -5 -57q-22 -144 -138.5 -246t-258.5 -102q-127 0 -209 84t-82 209q0 30 4 55zM1169 2138q70 0 127.5 50t69.5 121q11 71 -30.5 122t-111.5 51t-127.5 -51t-68.5 -122q-2 -10 -2 -29q0 -61 40.5 -101.5t102.5 -40.5z" />
    <glyph glyph-name="ae" unicode="&#xe6;" horiz-adv-x="2889" 
d="M1938 693l-290 -15q-4 -48 -4 -68q0 -158 89 -218t273 -60q262 0 636 47l-16 -335q-415 -68 -774 -68q-276 0 -425 112q-273 -112 -692 -112q-310 0 -452 106t-142 323q0 66 12 139q39 243 175.5 384t396.5 182q181 29 567 45q7 41 7 82q0 111 -67.5 163.5t-213.5 52.5
q-266 0 -622 -46l16 330q399 68 694 68q368 0 515 -143q201 143 557 143q149 0 261.5 -25.5t187.5 -72t121.5 -118t66.5 -157.5t20 -196q0 -129 -29 -311q-14 -85 -29 -143q-147 -27 -397.5 -53t-441.5 -36zM1246 865q-14 -1 -65.5 -3.5t-73 -3.5t-67 -4.5t-73 -7t-64 -9
t-66.5 -12.5q-85 -20 -132.5 -47t-78.5 -81t-45 -147q-5 -28 -5 -61q0 -99 65 -137.5t198 -38.5q198 0 317 48q24 90 48 239zM1986 997q220 11 398 35q9 29 15 71q10 67 10 110q0 126 -67.5 189t-216.5 63q-79 0 -141 -15.5t-106.5 -48t-76.5 -72.5t-54.5 -98.5
t-36.5 -115.5t-26 -133z" />
    <glyph glyph-name="ccedilla" unicode="&#xe7;" horiz-adv-x="1551" 
d="M1527 1411q-201 41 -310 41q-78 0 -137.5 -5.5t-109 -20.5t-85.5 -34.5t-65.5 -54t-49 -72t-37 -96t-29.5 -117.5t-26 -145q-32 -204 -32 -289q0 -76 18 -126.5t63 -86.5t122 -52t194 -16q108 0 320 42l-15 -335q-194 -47 -398 -62l-121 -154q91 -10 154 -64t63 -139
q0 -17 -3 -36q-12 -76 -52.5 -133.5t-100.5 -91t-129.5 -49.5t-146.5 -16q-70 0 -142 20t-124 55l91 171q103 -57 200 -57q49 0 85.5 21.5t44.5 68.5q6 36 -19.5 62.5t-70 39.5t-87.5 19t-84 6l202 273q-115 6 -203.5 39.5t-144.5 85t-91.5 125.5t-50 155.5t-14.5 180.5
q0 144 32 343q21 131 46.5 234t63.5 198.5t88 166t118.5 129t155.5 95t198.5 56t248.5 19.5q248 0 457 -68z" />
    <glyph glyph-name="egrave" unicode="&#xe8;" horiz-adv-x="1866" 
d="M228 891q39 248 105.5 416.5t177 282t268 164.5t377.5 51q149 0 261.5 -25.5t187 -72t121 -118t66.5 -157.5t20 -196q0 -135 -28 -311q-12 -80 -29 -143q-147 -27 -398 -53t-442 -36l-290 -15q-4 -48 -4 -68q0 -81 23.5 -136t72.5 -86t112.5 -43.5t154.5 -12.5
q264 0 636 47l-16 -335q-415 -68 -774 -68q-174 0 -297.5 43.5t-195 127.5t-103.5 193t-32 253q0 136 26 298zM662 982l302 15q220 11 398 35q7 22 14 71q10 67 10 112q0 126 -67 188t-216 62q-79 0 -141 -15.5t-106.5 -48t-76.5 -72.5t-54.5 -98.5t-36.5 -115.5t-26 -133z
M1245 2539l220 -535h-334l-336 535h450z" />
    <glyph glyph-name="eacute" unicode="&#xe9;" horiz-adv-x="1866" 
d="M228 891q39 248 105.5 416.5t177 282t268 164.5t377.5 51q149 0 261.5 -25.5t187 -72t121 -118t66.5 -157.5t20 -196q0 -135 -28 -311q-14 -81 -28 -143q-150 -27 -402 -53.5t-438 -35.5l-291 -15q-4 -48 -4 -68q0 -81 23.5 -136t72.5 -86t112.5 -43.5t153.5 -12.5
q263 0 637 47l-17 -335q-415 -68 -773 -68q-139 0 -246.5 29t-179 81.5t-117.5 130.5t-65.5 170t-19.5 207q0 136 26 297zM661 982l302 15q220 11 399 35q9 29 15 71q10 67 10 110q0 126 -67.5 189t-217.5 63q-79 0 -141 -15.5t-106.5 -48t-76.5 -72.5t-54.5 -98.5
t-36.5 -115.5t-26 -133zM1841 2531l-507 -535h-332l389 535h450z" />
    <glyph glyph-name="ecircumflex" unicode="&#xea;" horiz-adv-x="1866" 
d="M228 891q39 248 105.5 416.5t177 282t268 164.5t377.5 51q149 0 261.5 -25.5t187 -72t121 -118t66.5 -157.5t20 -196q0 -135 -28 -311q-11 -77 -28 -143q-148 -27 -399 -53t-441 -36l-290 -15q-4 -33 -4 -69q0 -157 89 -217t273 -60q264 0 636 47l-16 -335
q-417 -68 -774 -68q-174 0 -297.5 44t-195 128t-103.5 193.5t-32 253.5q0 125 26 296zM662 982l301 15q223 12 399 35q9 29 15 71q10 67 10 110q0 126 -67.5 189t-217.5 63q-94 0 -165 -24.5t-116 -64t-77.5 -105t-49.5 -131t-32 -158.5zM1717 1991h-322l-141 284l-236 -284
h-317l464 536h250z" />
    <glyph glyph-name="edieresis" unicode="&#xeb;" horiz-adv-x="1867" 
d="M228 891q39 248 105.5 416.5t177 282t268 164.5t377.5 51q149 0 261.5 -25.5t187.5 -72t121.5 -118t66.5 -157.5t20 -196q0 -129 -29 -311q-9 -59 -28 -143q-150 -27 -401.5 -53.5t-438.5 -35.5l-291 -15q-3 -36 -3 -66q0 -82 23.5 -137.5t72 -86.5t112 -43.5
t154.5 -12.5q264 0 636 47l-16 -335q-415 -68 -775 -68q-173 0 -296.5 43.5t-195 127.5t-103.5 193t-32 253q0 136 26 298zM718 2254q14 93 87.5 156.5t165.5 63.5q80 0 129.5 -51t49.5 -130q0 -19 -3 -39q-15 -93 -85 -156t-160 -63q-82 0 -134.5 51t-52.5 131q0 17 3 37z
M1385 2254q15 93 88 156.5t164 63.5q80 0 130 -51t50 -130q0 -19 -3 -39q-14 -93 -85 -156t-162 -63q-81 0 -133 51t-52 131q0 17 3 37zM662 982l301 15q223 12 399 35q9 29 15 71q10 67 10 110q0 126 -67.5 189t-216.5 63q-94 0 -165 -24.5t-116.5 -64t-78 -105t-49.5 -131
t-32 -158.5z" />
    <glyph glyph-name="igrave" unicode="&#xec;" horiz-adv-x="895" 
d="M130 0l282 1781h438l-282 -1781h-438zM506 2027l-337 535h450l220 -535h-333z" />
    <glyph glyph-name="iacute" unicode="&#xed;" horiz-adv-x="895" 
d="M130 0l282 1781h438l-282 -1781h-438zM502 2027l388 535h450l-506 -535h-332z" />
    <glyph glyph-name="icircumflex" unicode="&#xee;" horiz-adv-x="894" 
d="M627 2573h251l301 -536h-321l-141 284l-237 -284h-317zM130 0l282 1781h437l-282 -1781h-437z" />
    <glyph glyph-name="idieresis" unicode="&#xef;" horiz-adv-x="895" 
d="M344 2050q-82 0 -134.5 51t-52.5 131q0 18 3 37q15 93 88 156.5t165 63.5q80 0 130 -51.5t50 -130.5q0 -19 -3 -38q-15 -93 -85.5 -156t-160.5 -63zM1010 2050q-81 0 -133 51.5t-52 130.5q0 18 3 37q14 93 87 156.5t164 63.5q81 0 130.5 -51t49.5 -130q0 -20 -3 -39
q-14 -93 -84.5 -156t-161.5 -63zM130 0l282 1781h438l-282 -1781h-438z" />
    <glyph glyph-name="eth" unicode="&#xf0;" horiz-adv-x="1865" 
d="M1506 2313l295 104l90 -206l-277 -98q161 -362 161 -813q0 -202 -33 -409q-40 -251 -108 -421.5t-179.5 -282t-266.5 -161.5t-373 -50q-354 0 -510.5 136t-156.5 451q0 143 30 328q50 318 156 507t290 278t472 89q115 0 205 -27q-33 117 -88 233l-293 -103l-89 208
l272 95q-59 94 -137 193l406 129q75 -88 134 -180zM1307 891q24 149 24 247q0 149 -64 209.5t-219 60.5q-106 0 -175 -23t-120.5 -84t-82.5 -157.5t-56 -252.5q-30 -189 -30 -292q0 -152 63 -208.5t218 -56.5q106 0 176 25.5t122 91.5t84.5 169.5t59.5 270.5z" />
    <glyph glyph-name="ntilde" unicode="&#xf1;" horiz-adv-x="1928" 
d="M767 1163l-185 -1163h-433l207 1302q27 170 68 338q330 165 808 165q145 0 252.5 -21t176 -57.5t110 -92.5t58 -120t16.5 -146q0 -87 -23 -234l-180 -1134h-434l173 1094q14 86 14 145q0 113 -65.5 161.5t-237.5 49.5q-167 0 -277 -48q-24 -90 -48 -239zM1545 2487h228
q-48 -204 -148.5 -315t-208.5 -111q-47 0 -85 13.5t-60.5 33.5t-43.5 44t-34.5 44t-31.5 33.5t-37 13.5q-76 0 -127 -174h-228q47 204 148 315t209 111q55 0 97.5 -18.5t67.5 -45.5t44.5 -54t40 -45.5t43.5 -18.5q74 0 126 174z" />
    <glyph glyph-name="ograve" unicode="&#xf2;" horiz-adv-x="1886" 
d="M868 -24q-354 0 -510.5 136t-156.5 451q0 143 30 328q40 253 108 423.5t179.5 281.5t266.5 160t373 49q352 0 509 -139t157 -453q0 -137 -29 -322q-40 -251 -108 -421.5t-179.5 -282t-266.5 -161.5t-373 -50zM668 891q-30 -189 -30 -292q0 -151 63 -208t217 -57
q106 0 176 25.5t122.5 91.5t84.5 169.5t59 270.5q28 177 28 281q0 154 -63.5 215t-216.5 61q-142 0 -223 -47.5t-131 -165t-86 -344.5zM1109 2004l-337 535h451l218 -535h-332z" />
    <glyph glyph-name="oacute" unicode="&#xf3;" horiz-adv-x="1886" 
d="M868 -24q-354 0 -510.5 136t-156.5 451q0 143 30 328q40 253 108 423.5t179.5 281.5t266 160t372.5 49q353 0 510 -139t157 -453q0 -139 -29 -322q-40 -251 -108 -421.5t-179.5 -282t-266.5 -161.5t-373 -50zM638 600q0 -152 62.5 -209t217.5 -57q106 0 176 25.5
t122 91.5t84.5 169.5t59.5 270.5q28 179 28 282q0 154 -63 214.5t-217 60.5q-71 0 -123.5 -10t-97.5 -35.5t-76.5 -65.5t-59 -104t-47 -146t-37.5 -196q-29 -183 -29 -291zM954 2018l389 535h450l-506 -535h-333z" />
    <glyph glyph-name="ocircumflex" unicode="&#xf4;" horiz-adv-x="1886" 
d="M1824 1213q0 -137 -29 -322q-53 -334 -160.5 -531.5t-292.5 -290.5t-475 -93q-353 0 -509 136.5t-156 451.5q0 139 29 327q40 253 108 423.5t179.5 281.5t266 160t372.5 49q353 0 510 -139t157 -453zM667 891q-30 -189 -30 -292q0 -151 63 -208t217 -57q141 0 224 50
t133.5 168t85.5 339q28 177 28 281q0 154 -63.5 215t-217.5 61q-107 0 -175.5 -23.5t-120.5 -88.5t-84.5 -169.5t-59.5 -275.5zM1145 2537h250l302 -536h-321l-141 284l-237 -284h-317z" />
    <glyph glyph-name="otilde" unicode="&#xf5;" horiz-adv-x="1886" 
d="M1504 2467h227q-47 -204 -147.5 -315t-208.5 -111q-56 0 -98.5 18.5t-67 45.5t-44 54t-39.5 45.5t-43 18.5q-76 0 -127 -174h-227q24 104 64.5 187t88.5 134t100 78t103 27q56 0 98.5 -18.5t67 -45.5t44 -54t40 -45.5t43.5 -18.5q74 0 126 174zM1824 1213
q0 -137 -29 -322q-40 -251 -108 -421.5t-179.5 -282t-266.5 -161.5t-373 -50q-354 0 -510 136.5t-156 451.5q0 139 29 327q40 253 108 423.5t179.5 281.5t266.5 160t373 49q352 0 509 -139t157 -453zM918 334q106 0 176 25.5t122.5 91.5t84.5 169.5t59 270.5q28 179 28 282
q0 154 -63 214.5t-217 60.5q-142 0 -223 -47.5t-131 -165t-86 -344.5q-30 -189 -30 -292q0 -151 63 -208t217 -57z" />
    <glyph glyph-name="odieresis" unicode="&#xf6;" horiz-adv-x="1886" 
d="M1824 1212q0 -138 -29 -321q-40 -251 -108 -421.5t-179.5 -282t-266.5 -161.5t-373 -50q-354 0 -510 136.5t-156 451.5q0 139 29 327q40 253 108 423.5t179.5 281.5t266.5 160t373 49q353 0 509.5 -139t156.5 -454zM637 599q0 -152 63 -208.5t218 -56.5q106 0 176 25.5
t122 91.5t84.5 169.5t59.5 270.5q28 177 28 281q0 154 -63.5 215t-216.5 61q-142 0 -223 -47.5t-131.5 -165t-86.5 -344.5q-30 -189 -30 -292zM865 2035q-82 0 -134.5 51t-52.5 131q0 17 3 37q14 93 87.5 156.5t165.5 63.5q80 0 130 -51t50 -131q0 -18 -3 -38
q-15 -93 -85.5 -156t-160.5 -63zM1531 2035q-81 0 -133 51.5t-52 130.5q0 17 3 37q14 93 87 156.5t164 63.5q81 0 131 -51t50 -131q0 -18 -3 -38q-15 -93 -85.5 -156t-161.5 -63z" />
    <glyph glyph-name="divide" unicode="&#xf7;" horiz-adv-x="1879" 
d="M659 266q0 20 3 41q16 106 100.5 180t187.5 74q92 0 152 -60.5t60 -151.5q0 -21 -3 -42q-16 -106 -101 -180t-189 -74q-92 0 -151 61t-59 152zM1082 1396q-92 0 -151 60.5t-59 151.5q0 21 3 42q16 105 100.5 179t187.5 74q92 0 151.5 -60t59.5 -151q0 -21 -3 -42
q-16 -106 -100.5 -180t-188.5 -74zM176 789l60 379h1621l-60 -379h-1621z" />
    <glyph glyph-name="oslash" unicode="&#xf8;" horiz-adv-x="1886" 
d="M507 27l-165 -227l-162 117l157 215q-136 139 -136 432q0 142 30 327q40 253 108 423.5t179.5 281.5t266.5 160t373 49q219 0 360 -52l167 228l162 -117l-159 -218q136 -140 136 -434q0 -138 -29 -321q-40 -251 -108 -421.5t-179.5 -282t-266.5 -161.5t-373 -50
q-217 0 -361 51zM640 548l636 872q-62 28 -168 28q-142 0 -223 -47.5t-131 -165t-86 -344.5q-30 -188 -30 -290q0 -21 2 -53zM1385 1231l-635 -872q58 -25 168 -25q106 0 176 25.5t122.5 91.5t84.5 169.5t59 270.5q28 174 28 278q0 33 -3 62z" />
    <glyph glyph-name="ugrave" unicode="&#xf9;" horiz-adv-x="1921" 
d="M244 647l179 1134h434l-173 -1094q-14 -87 -14 -146q0 -113 65.5 -161.5t235.5 -48.5q165 0 273 48q24 88 49 239l184 1163h433l-206 -1302q-25 -158 -69 -338q-330 -165 -804 -165q-120 0 -214.5 14t-161 41.5t-112.5 64.5t-72.5 87.5t-38 105.5t-11.5 123q0 86 23 235z
M1101 2027l-337 535h451l219 -535h-333z" />
    <glyph glyph-name="uacute" unicode="&#xfa;" horiz-adv-x="1921" 
d="M244 647l179 1134h434l-173 -1094q-14 -87 -14 -146q0 -113 65.5 -161.5t235.5 -48.5q165 0 273 48q26 100 49 239l184 1163h433l-206 -1302q-25 -158 -69 -338q-329 -165 -804 -165q-120 0 -214.5 14t-161 41.5t-112.5 64.5t-72.5 87.5t-38 105.5t-11.5 123q0 88 23 235
zM994 2047l389 535h450l-506 -535h-333z" />
    <glyph glyph-name="ucircumflex" unicode="&#xfb;" horiz-adv-x="1921" 
d="M243 647l180 1134h434l-173 -1094q-14 -87 -14 -146q0 -113 65 -161.5t235 -48.5q166 0 273 48q24 88 49 239l185 1163h433l-206 -1302q-25 -158 -69 -338q-330 -165 -805 -165q-120 0 -214.5 14t-161 41.5t-112.5 64.5t-72.5 87.5t-38 105.5t-11.5 123q0 88 23 235z
M1167 2593h250l301 -536h-321l-141 284l-237 -284h-317z" />
    <glyph glyph-name="udieresis" unicode="&#xfc;" horiz-adv-x="1921" 
d="M244 647l179 1134h434l-173 -1094q-14 -86 -14 -145q0 -114 65.5 -162.5t235.5 -48.5q165 0 273 48q26 100 49 239l184 1163h433l-206 -1302q-27 -174 -69 -338q-330 -165 -804 -165q-120 0 -214.5 14t-161 41.5t-112.5 64.5t-72.5 87.5t-38 105.5t-11.5 123q0 86 23 235
zM883 2071q-82 0 -134.5 52t-52.5 132q0 17 3 35q15 93 88 156.5t165 63.5q80 0 130 -51t50 -131q0 -18 -3 -38q-15 -93 -85.5 -156t-160.5 -63zM1548 2071q-81 0 -132.5 51.5t-51.5 130.5q0 17 3 37q14 93 87 156.5t164 63.5q81 0 131 -51t50 -131q0 -18 -3 -38
q-15 -93 -86 -156t-162 -63z" />
    <glyph glyph-name="yacute" unicode="&#xfd;" horiz-adv-x="1799" 
d="M1013 682l515 1099h442l-1198 -2437h-443l398 781l-439 1656h461zM982 2007l389 535h450l-506 -535h-333z" />
    <glyph glyph-name="thorn" unicode="&#xfe;" horiz-adv-x="1932" 
d="M41 -656l472 2986h436l-89 -563q177 38 339 38q170 0 290.5 -31t205 -100.5t124.5 -184t40 -279.5q0 -137 -29 -320q-33 -207 -87 -360t-129.5 -259.5t-180.5 -171.5t-232 -94t-292 -29q-162 0 -327 38l-106 -670h-435zM638 365q114 -39 238 -39q87 0 157 15.5
t118.5 38.5t86.5 67.5t60.5 83.5t42 107t29 117.5t22.5 134.5q29 176 29 264q0 72 -16.5 124.5t-56.5 93.5t-113 62t-180 21q-125 0 -250 -39z" />
    <glyph glyph-name="ydieresis" unicode="&#xff;" horiz-adv-x="1800" 
d="M873 2041q-82 0 -134.5 51t-52.5 131q0 17 3 37q15 93 88.5 156.5t165.5 63.5q80 0 129.5 -51t49.5 -131q0 -18 -3 -38q-15 -93 -85.5 -156t-160.5 -63zM1539 2041q-81 0 -132.5 51t-51.5 130q0 18 3 38q14 93 86.5 156.5t164.5 63.5q81 0 131 -51.5t50 -131.5
q0 -17 -3 -37q-15 -93 -86 -156t-162 -63zM1014 682l514 1099h443l-1198 -2437h-444l398 781l-438 1656h461z" />
    <glyph glyph-name="Abreve" unicode="&#x102;" horiz-adv-x="2193" 
d="M1015 2945h243q-1 -81 44.5 -135t136.5 -54t154 54t87 135h243q-22 -87 -64 -160t-105 -129.5t-152.5 -88.5t-197.5 -32q-198 0 -294 102t-96 270q0 25 1 38zM-43 0l999 2029q84 169 188.5 247t238.5 78q265 0 321 -325l346 -2029h-492l-83 577h-779l-262 -577h-477z
M1423 940l-134 942l-428 -942h562z" />
    <glyph glyph-name="abreve" unicode="&#x103;" horiz-adv-x="1816" 
d="M1729 1232l-119 -753q-27 -170 -68 -338q-305 -165 -806 -165q-309 0 -452 106t-143 323q0 64 12 139q39 243 175.5 384t397.5 182q181 29 567 45q7 41 7 80q0 112 -68 165t-214 53q-264 0 -622 -46l16 330q399 68 695 68q111 0 201 -12t172.5 -42.5t138 -80t88.5 -128
t33 -181.5q0 -57 -11 -129zM837 825q-125 -29 -179.5 -84.5t-75.5 -190.5q-5 -28 -5 -61q0 -99 65 -137.5t198 -38.5q198 0 316 48q24 88 49 239l42 265q-14 -1 -65.5 -3.5t-73 -3.5t-67 -4.5t-73.5 -7t-64.5 -9t-66.5 -12.5zM1046 2487q-2 -93 42 -155t135 -62q90 0 154 62
t92 155h243q-24 -100 -68 -183.5t-108.5 -149t-155 -102t-197.5 -36.5q-99 0 -173.5 31t-119.5 87t-67 128.5t-22 161.5q0 32 3 63h242z" />
    <glyph glyph-name="Aogonek" unicode="&#x104;" horiz-adv-x="2193" 
d="M1926 -431l37 -167q-68 -51 -155.5 -80t-162.5 -29q-129 0 -207.5 63.5t-78.5 175.5q0 27 4 51q17 111 104 222t195 195h-103l-83 577h-780l-262 -577h-478l1001 2029q83 169 187.5 247t238.5 78q265 0 321 -325l347 -2029h-150q-235 -204 -257 -345q-3 -17 -3 -32
q0 -51 27 -80t76 -29q101 0 182 55zM861 940h563l-135 942z" />
    <glyph glyph-name="aogonek" unicode="&#x105;" horiz-adv-x="1816" 
d="M396 1407l16 330q402 68 695 68q111 0 201 -12t172.5 -42.5t138 -80t88.5 -128t33 -181.5q0 -57 -11 -129l-119 -753q-27 -174 -69 -338q-99 -53 -201 -85q-220 -195 -242 -333q-3 -18 -3 -33q0 -50 27.5 -79t76.5 -29q98 0 180 56l38 -168q-68 -50 -155 -79t-163 -29
q-129 0 -207.5 63.5t-78.5 175.5q0 27 4 51q25 162 209 340q-134 -16 -291 -16q-309 0 -451.5 106t-142.5 323q0 64 12 139q39 243 175.5 384t397.5 182q181 29 566 45q7 42 7 82q0 111 -67.5 163.5t-212.5 52.5q-265 0 -623 -46zM837 825q-84 -20 -131.5 -47t-78 -81
t-45.5 -147q-5 -28 -5 -61q0 -99 65 -137.5t198 -38.5q198 0 316 48q26 100 49 239l42 265q-14 -1 -65.5 -3.5t-73.5 -3.5t-67 -4.5t-73 -7t-64.5 -9t-66.5 -12.5z" />
    <glyph glyph-name="Cacute" unicode="&#x106;" horiz-adv-x="1836" 
d="M1638 46q-263 -70 -608 -70q-222 0 -375.5 42t-248 131.5t-136.5 221.5t-42 321q0 192 44 473q34 215 77 376.5t107 299t149 230.5t200.5 158t263.5 95t338 30q341 0 585 -71l-99 -365q-234 40 -464 40q-90 0 -165.5 -13t-133.5 -33t-106.5 -59t-82 -74t-62.5 -96
t-46.5 -107.5t-35.5 -126.5t-27.5 -135t-24.5 -149q-43 -269 -43 -388q0 -98 21.5 -168.5t73.5 -126t147 -83t234 -27.5q234 0 476 40zM1974 2961l-519 -433h-356l394 433h481z" />
    <glyph glyph-name="cacute" unicode="&#x107;" horiz-adv-x="1551" 
d="M1348 44q-275 -68 -582 -68q-129 0 -227 30t-160 81t-101.5 127.5t-55 161t-15.5 188.5q0 150 31 343q21 131 46.5 234t63.5 198.5t88 166t118.5 129t155.5 95t198.5 56t248.5 19.5q248 0 456 -68l-86 -326q-201 41 -310 41q-78 0 -138 -5.5t-109.5 -20.5t-85 -34.5
t-65 -54t-49.5 -72t-37 -96t-29 -117.5t-26 -145q-32 -204 -32 -289q0 -76 18 -126.5t63 -86.5t122 -52t194 -16q108 0 320 42zM1672 2536l-506 -535h-333l388 535h451z" />
    <glyph glyph-name="Ccaron" unicode="&#x10c;" horiz-adv-x="1836" 
d="M1638 46q-265 -70 -608 -70q-222 0 -375.5 42t-248 131.5t-136.5 221.5t-42 321q0 192 44 473q34 215 77 376.5t107 299t149 230.5t200.5 158t263.5 95t338 30q341 0 585 -71l-99 -365q-234 40 -464 40q-90 0 -165.5 -13t-133.5 -33t-106.5 -59t-82 -74t-62.5 -96
t-46.5 -107.5t-35.5 -126.5t-27.5 -135t-24.5 -149q-43 -269 -43 -388q0 -98 21.5 -168.5t73.5 -126t147 -83t234 -27.5q234 0 476 40zM1372 2731l242 231h339l-475 -435h-268l-344 435h343z" />
    <glyph glyph-name="ccaron" unicode="&#x10d;" horiz-adv-x="1551" 
d="M1348 44q-275 -68 -581 -68q-129 0 -227.5 30t-161 81t-102 127.5t-55 161t-15.5 188.5q0 144 32 343q21 131 46.5 234t63.5 198.5t88 166t118.5 129t155.5 95t198.5 56t248.5 19.5q250 0 456 -68l-86 -326q-201 41 -310 41q-78 0 -137.5 -5.5t-109 -20.5t-85.5 -34.5
t-65.5 -54t-49 -72t-37 -96t-29.5 -117.5t-26 -145q-32 -204 -32 -289q0 -76 18 -126.5t63 -86.5t122 -52t194 -16q108 0 320 42zM1128 2255l237 285h317l-465 -536h-249l-302 536h322z" />
    <glyph glyph-name="Dcaron" unicode="&#x10e;" horiz-adv-x="2187" 
d="M518 2288q349 66 755 66q198 0 344.5 -29t246.5 -84.5t161 -143.5t87.5 -198t26.5 -257q0 -183 -46 -477q-25 -157 -52.5 -279.5t-67 -240t-89 -205.5t-116 -166t-151 -131t-191 -92t-238.5 -57t-292 -18q-404 0 -734 64zM930 1951l-250 -1572q110 -17 214 -17
q126 0 226 23t169 54.5t123 97.5t85 118.5t58.5 153.5t39.5 166t32 190q42 265 42 380q0 81 -14 142.5t-49.5 115.5t-93.5 89t-149.5 55t-214.5 20q-100 0 -218 -16zM1379 2734l241 231h339l-474 -435h-267l-345 435h343z" />
    <glyph glyph-name="dcaron" unicode="&#x10f;" horiz-adv-x="1913" 
d="M1438 1767l112 702h434l-316 -1990q-27 -170 -68 -338q-153 -83 -346 -124t-383 -41q-186 0 -315 30.5t-219.5 100t-132.5 184.5t-42 283q0 142 28 317q33 207 87 360t129.5 259.5t180.5 171.5t232 94t292 29q160 0 327 -38zM1144 1455q-88 0 -157.5 -15.5t-118.5 -38.5
t-87 -67.5t-60.5 -83.5t-42 -107t-29 -117.5t-22.5 -134.5q-26 -163 -26 -252q0 -72 14.5 -126t50 -98.5t100.5 -67.5t160 -23q172 0 280 47q26 100 49 239l127 806q-115 39 -238 39zM2643 2469l-357 -672h-268l263 672h362z" />
    <glyph glyph-name="Dcroat" unicode="&#x110;" horiz-adv-x="2257" 
d="M392 1045h-177l49 310h177l148 933q347 66 755 66q246 0 414 -43.5t267 -135.5t141.5 -220.5t42.5 -312.5q0 -183 -46 -477q-25 -157 -52.5 -279.5t-67 -240t-89 -205.5t-116 -166t-150.5 -131t-190.5 -92t-238.5 -57t-292 -18q-404 0 -734 64zM856 1045l-105 -666
q108 -17 214 -17q126 0 226 23t169 54.5t123.5 97.5t85 118.5t58 153.5t40 166t32.5 190q42 263 42 378q0 102 -23.5 175.5t-80 131.5t-161 87.5t-257.5 29.5q-99 0 -219 -16l-95 -596h333l-50 -310h-332z" />
    <glyph glyph-name="dcroat" unicode="&#x111;" horiz-adv-x="1913" 
d="M1141 1991l39 248h332l37 230h435l-37 -230h216l-39 -248h-216l-240 -1512q-27 -170 -68 -338q-153 -83 -346 -124t-383 -41q-186 0 -315 30.5t-219.5 100t-132.5 184.5t-42 283q0 142 28 317q33 207 87 360t129.5 259.5t180.5 171.5t232 94t292 29q161 0 326 -38l35 224
h-331zM1144 1455q-88 0 -157.5 -15.5t-118 -38t-86.5 -67.5t-60.5 -83.5t-42 -107t-29 -117.5t-23.5 -135q-26 -162 -26 -251q0 -72 14.5 -126.5t50 -99t100.5 -67.5t160 -23q172 0 280 47q26 105 48 239l127 806q-114 39 -237 39z" />
    <glyph glyph-name="Eogonek" unicode="&#x118;" horiz-adv-x="1858" 
d="M1866 1952h-631q-71 0 -119.5 -5t-88 -20t-64 -36t-44 -58.5t-31 -82.5t-22.5 -113l-42 -264h908l-60 -376h-908l-48 -302q-14 -86 -14 -139q0 -104 60.5 -141t223.5 -37h631l-58 -366q-69 -4 -198 -9q-235 -202 -259 -348q-3 -18 -3 -33q0 -50 27 -79t76 -29
q99 0 181 56l37 -168q-68 -50 -155 -79t-163 -29q-128 0 -206.5 64t-78.5 175q0 27 4 51q17 109 101.5 218.5t189.5 194.5q-102 -3 -177 -3q-73 0 -123.5 1t-116.5 5.5t-112 13t-99.5 24t-89.5 37t-71.5 53.5t-56.5 72.5t-34 95.5t-13 121q0 68 13 146l192 1205
q18 114 56 203t83.5 148.5t115.5 101t132 64t156 34.5t163 14.5t176 2.5q286 0 618 -17z" />
    <glyph glyph-name="eogonek" unicode="&#x119;" horiz-adv-x="1866" 
d="M228 891q39 248 105.5 416.5t177 282t268 164.5t377.5 51q149 0 261.5 -25.5t187 -72t121 -118t66.5 -157.5t20 -196q0 -135 -28 -311q-9 -59 -28 -143q-150 -27 -402 -53.5t-438 -35.5l-291 -15q-4 -48 -4 -68q0 -81 23.5 -136t72.5 -86t112.5 -43.5t153.5 -12.5
q263 0 637 47l-17 -335q-165 -28 -325 -45q-220 -195 -242 -334q-3 -18 -3 -34q0 -50 27 -78.5t76 -28.5q97 0 181 56l37 -168q-68 -50 -155.5 -79t-162.5 -29q-129 0 -207.5 63.5t-78.5 175.5q0 27 4 51q15 100 88.5 200.5t171.5 185.5q-77 -4 -184 -4q-139 0 -246.5 29
t-179 81.5t-117.5 130.5t-65.5 170t-19.5 207q0 136 26 297zM662 982l301 15q224 12 398 35q11 36 16 71q10 67 10 110q0 126 -67.5 189t-217.5 63q-79 0 -141 -15.5t-106.5 -48t-76.5 -72.5t-54.5 -98.5t-36 -115.5t-25.5 -133z" />
    <glyph glyph-name="Ecaron" unicode="&#x11a;" horiz-adv-x="1858" 
d="M1924 2319l-58 -367h-631q-106 0 -168 -12t-104 -50t-62 -94.5t-36 -158.5l-41 -264h908l-60 -376h-908l-48 -302q-14 -87 -14 -141q0 -104 60 -140t223 -36h631l-58 -366q-362 -18 -623 -18q-73 0 -123.5 1t-116.5 5.5t-112 13t-99.5 24t-89.5 37t-71.5 53.5t-56.5 72.5
t-34 95.5t-13 121q0 68 13 146l191 1205q18 114 56 203t83 148.5t116 101t133 64t156 34.5t163 14.5t176 2.5q286 0 618 -17zM806 2956h344l162 -231l242 231h339l-474 -435h-268z" />
    <glyph glyph-name="ecaron" unicode="&#x11b;" horiz-adv-x="1866" 
d="M228 891q39 248 105.5 416.5t177 282t268 164.5t377.5 51q149 0 261.5 -25.5t187 -72t121 -118t66.5 -157.5t20 -196q0 -135 -28 -311q-17 -97 -28 -143q-150 -27 -402 -53.5t-438 -35.5l-290 -15q-4 -33 -4 -69q0 -157 89 -217t273 -60q264 0 636 47l-17 -335
q-415 -68 -773 -68q-139 0 -246.5 29t-179 81.5t-117.5 130.5t-65.5 170t-19.5 207q0 136 26 297zM662 982l301 15q223 12 399 35q9 29 15 71q10 57 10 111q0 126 -67.5 188.5t-217.5 62.5q-94 0 -165 -24.5t-116 -64t-77.5 -105t-49.5 -131t-32 -158.5zM1217 2245l237 285
h316l-463 -536h-250l-302 536h321z" />
    <glyph glyph-name="Gbreve" unicode="&#x11e;" horiz-adv-x="2106" 
d="M1154 939l58 365h811l-138 -873q-11 -71 -33 -129t-49.5 -101.5t-69.5 -78t-83 -58t-100 -40t-111 -26t-126 -14.5t-134.5 -6.5t-146.5 -1.5q-295 0 -471.5 77.5t-253.5 232.5t-77 407q0 191 44 472q34 217 77.5 379.5t107.5 300t148 229.5t200 157t263.5 94t337.5 29
q402 0 720 -69l-98 -365q-257 41 -600 41q-90 0 -165.5 -13.5t-133.5 -33t-106 -59t-81.5 -74.5t-62.5 -96.5t-46.5 -108t-36 -127t-28 -135t-24.5 -149.5q-43 -269 -43 -388q0 -99 21.5 -170.5t74 -127t147 -83.5t232.5 -28q70 0 119.5 9.5t79.5 24t49 42.5t27.5 55.5
t15.5 71.5l58 368h-373zM1019 2940h242q-1 -80 45 -134.5t137 -54.5q90 0 153 54t88 135h243q-46 -182 -178 -296t-342 -114q-197 0 -293.5 101t-96.5 267q0 14 2 42z" />
    <glyph glyph-name="gbreve" unicode="&#x11f;" horiz-adv-x="1918" 
d="M117 -605l88 329q354 -52 625 -52q172 0 265 81.5t122 248.5l9 52q-178 -38 -339 -38q-170 0 -290.5 30.5t-206 99.5t-126 183t-40.5 278q0 132 27 303q41 256 116.5 428.5t196.5 276t278.5 147t377.5 43.5q190 0 370 -41t307 -124q-11 -162 -39 -338l-223 -1405
q-22 -136 -76 -238.5t-127 -166t-173.5 -103t-203.5 -54.5t-228 -15q-308 0 -710 75zM689 910q-26 -165 -26 -243q0 -72 16.5 -124.5t56.5 -93.5t113.5 -62t180.5 -21q124 0 251 39l121 766q23 141 27 239q-91 47 -264 47q-66 0 -122 -11.5t-98.5 -35.5t-76.5 -52.5
t-59.5 -70t-44 -81.5t-33 -93.5t-24 -98.5t-18.5 -104zM874 2487h242q-2 -93 42 -155t135 -62t155 62t90 155h243q-23 -100 -67 -183.5t-108.5 -149t-155 -102t-197.5 -36.5q-99 0 -173.5 31t-119.5 87t-67 128.5t-22 161.5q0 32 3 63z" />
    <glyph glyph-name="Idotaccent" unicode="&#x130;" horiz-adv-x="956" 
d="M783 2509q-84 0 -138 54t-54 136q0 17 3 37q16 97 91.5 162.5t170.5 65.5q84 0 136 -52.5t52 -134.5q0 -20 -3 -41q-15 -96 -89 -161.5t-169 -65.5zM152 0l369 2330h466l-369 -2330h-466z" />
    <glyph glyph-name="dotlessi" unicode="&#x131;" horiz-adv-x="894" 
d="M130 0l282 1781h437l-282 -1781h-437z" />
    <glyph glyph-name="Lacute" unicode="&#x139;" horiz-adv-x="1656" 
d="M240 563l280 1767h464l-260 -1635q-14 -86 -14 -140q0 -104 60 -140.5t224 -36.5h593l-58 -368q-373 -16 -586 -16q-73 0 -123.5 1t-116.5 5.5t-112 13t-99.5 24t-89.5 37t-71.5 53.5t-56.5 72.5t-34 95.5t-13 121q0 68 13 146zM1477 2963l-518 -433h-357l394 433h481z
" />
    <glyph glyph-name="lacute" unicode="&#x13a;" horiz-adv-x="865" 
d="M488 2469h436l-314 -1983q-11 -74 -11 -128q0 -135 70 -262l-412 -184q-104 151 -104 357q0 87 16 184zM950 3052h481l-519 -433h-356z" />
    <glyph glyph-name="Lcaron" unicode="&#x13d;" horiz-adv-x="1657" 
d="M240 563l280 1767h464l-259 -1635q-14 -87 -14 -141q0 -104 60 -140t224 -36h592l-58 -368q-373 -16 -586 -16q-73 0 -123.5 1t-116.5 5.5t-112 13t-99.5 24t-89.5 37t-71.5 53.5t-56.5 72.5t-34 95.5t-13 121q0 68 13 146zM1726 2330l-358 -672h-268l263 672h363z" />
    <glyph glyph-name="lcaron" unicode="&#x13e;" horiz-adv-x="866" 
d="M169 453l319 2016h437l-314 -1983q-11 -74 -11 -128q0 -135 70 -262l-413 -184q-104 151 -104 357q0 87 16 184zM959 1797l262 672h363l-357 -672h-268z" />
    <glyph glyph-name="Lslash" unicode="&#x141;" horiz-adv-x="1804" 
d="M487 1201l180 1129h464l-129 -810l561 347l-54 -338l-560 -347l-77 -487q-14 -87 -14 -141q0 -104 60 -140t223 -36h592l-58 -368q-370 -16 -585 -16q-95 0 -158.5 2t-145.5 11t-136 26t-111 48t-90 75.5t-54.5 110t-21.5 150.5q0 58 13 146l47 300l-314 -195l53 338z
" />
    <glyph glyph-name="lslash" unicode="&#x142;" horiz-adv-x="1015" 
d="M831 1308l-130 -822q-11 -72 -11 -127q0 -134 71 -263l-414 -184q-103 151 -103 357q0 85 16 184l81 511l-321 -224l56 349l320 224l183 1156h436l-129 -812l337 236l-56 -350z" />
    <glyph glyph-name="Nacute" unicode="&#x143;" horiz-adv-x="2315" 
d="M1154 2048l501 -1427l270 1709h417l-317 -1999q-56 -355 -337 -355q-129 0 -207 68t-138 239l-498 1432l-271 -1715h-417l317 2000q56 354 336 354q122 0 204 -70.5t140 -235.5zM1619 2958h481l-520 -433h-355z" />
    <glyph glyph-name="nacute" unicode="&#x144;" horiz-adv-x="1928" 
d="M767 1163l-184 -1163h-433l205 1302q25 158 69 338q330 165 808 165q145 0 252.5 -21t176 -57.5t110 -92.5t58 -120t16.5 -146q0 -87 -23 -234l-180 -1134h-434l173 1094q14 86 14 144q0 113 -66 162t-237 50q-169 0 -277 -48q-22 -79 -48 -239zM985 2009l389 535h450
l-506 -535h-333z" />
    <glyph glyph-name="Ncaron" unicode="&#x147;" horiz-adv-x="2316" 
d="M1155 2048l499 -1427l271 1709h417l-316 -1999q-56 -355 -338 -355q-129 0 -206.5 68t-137.5 239l-498 1432l-272 -1715h-417l317 2000q56 354 337 354q122 0 204 -70.5t140 -235.5zM1332 2949l162 -231l242 231h339l-474 -435h-268l-344 435h343z" />
    <glyph glyph-name="ncaron" unicode="&#x148;" horiz-adv-x="1927" 
d="M767 1163l-185 -1163h-433l207 1302q28 181 67 338q330 165 808 165q145 0 252.5 -21t176 -57.5t110 -92.5t58 -119.5t16.5 -145.5q0 -86 -23 -235l-179 -1134h-434l173 1094q14 86 14 145q0 113 -65.5 161.5t-237.5 49.5q-169 0 -277 -48q-24 -90 -48 -239zM789 2537
h321l142 -285l236 285h317l-464 -536h-250z" />
    <glyph glyph-name="Ohungarumlaut" unicode="&#x150;" horiz-adv-x="2195" 
d="M1002 -24q-280 0 -448.5 75t-244.5 230t-76 409q0 200 44 475q34 217 78.5 382t108.5 301t147.5 228.5t196 156t253 92.5t318.5 29q280 0 448.5 -75.5t244.5 -230.5t76 -409q0 -191 -44 -474q-34 -217 -78.5 -381.5t-108.5 -301t-147.5 -229t-195.5 -156t-252.5 -92.5
t-319.5 -29zM749 1165q-50 -323 -50 -439q0 -180 79 -270t279 -90q91 0 164 21t126 53t95 92.5t69 117t51.5 151t38.5 169.5t33 195q49 315 49 437q0 89 -17 153t-57 112.5t-111 73t-174 24.5q-91 0 -164 -21t-125.5 -53t-94.5 -93t-69 -117t-51 -151t-38 -169.5t-33 -195.5
zM859 2537l378 432h465l-498 -432h-345zM1507 2537l379 432h465l-497 -432h-347z" />
    <glyph glyph-name="ohungarumlaut" unicode="&#x151;" horiz-adv-x="1886" 
d="M1824 1213q0 -139 -29 -322q-40 -251 -108 -421.5t-179.5 -282t-266.5 -161.5t-373 -50q-354 0 -510 136.5t-156 451.5q0 139 29 327q40 253 108 423.5t179.5 281.5t266 160t372.5 49q353 0 510 -139t157 -453zM637 599q0 -152 63 -208.5t218 -56.5q106 0 176 25.5
t122 91.5t84.5 169.5t59.5 270.5q28 177 28 281q0 154 -63.5 215t-216.5 61q-71 0 -123.5 -10t-97.5 -35.5t-76.5 -65.5t-59 -104t-47 -146t-37.5 -196q-30 -189 -30 -292zM663 2031l373 534h435l-485 -534h-323zM1269 2031l373 534h435l-485 -534h-323z" />
    <glyph glyph-name="OE" unicode="&#x152;" horiz-adv-x="3164" 
d="M3172 1952h-631q-106 0 -167.5 -12t-103.5 -50t-61.5 -94.5t-36.5 -158.5l-43 -264h908l-59 -376h-908l-48 -302q-14 -86 -14 -140q0 -104 60 -140.5t224 -36.5h631l-58 -366q-365 -18 -624 -18q-114 0 -187.5 3.5t-162 16.5t-153.5 42.5t-110 76.5q-227 -157 -626 -157
q-280 0 -448.5 75t-244.5 230t-76 409q0 200 44 475q34 217 78.5 382t108.5 301t147.5 228.5t196 156t253 92.5t318.5 29q399 0 576 -157q60 47 134.5 76.5t166.5 42t167.5 16.5t188.5 4q284 0 618 -17zM748 1165q-49 -315 -49 -438q0 -88 17 -152t57 -112.5t110.5 -72.5
t173.5 -24q91 0 164.5 21t126 53t95 92.5t69 117t51 151t38.5 169t33 195.5q49 315 49 438q0 89 -17 152.5t-57 112.5t-110.5 73t-173.5 24q-91 0 -164.5 -21t-126 -53t-95 -93t-69 -117t-51 -151t-38.5 -169.5t-33 -195.5z" />
    <glyph glyph-name="oe" unicode="&#x153;" horiz-adv-x="2999" 
d="M1696 1633q204 172 593 172q149 0 261 -25.5t187 -72t121.5 -117.5t66.5 -157t20 -196q0 -130 -29 -312q-11 -77 -28 -143q-147 -27 -398 -53t-442 -36l-290 -15q-4 -48 -4 -68q0 -81 23.5 -136t72.5 -86t112.5 -43.5t154.5 -12.5q262 0 636 47l-16 -335
q-415 -68 -775 -68q-343 0 -493 178q-107 -92 -254 -135t-347 -43q-354 0 -510.5 136t-156.5 451q0 143 30 328q40 253 108 423.5t179.5 281.5t266.5 160t373 49q386 0 538 -172zM1389 1171q0 154 -63.5 215.5t-217.5 61.5q-142 0 -223 -47.5t-131 -165t-86 -344.5
q-30 -191 -30 -293q0 -151 62.5 -207.5t217.5 -56.5q141 0 223.5 50t133.5 168t86 339q28 176 28 280zM1794 982l302 15q221 11 398 35q9 29 15 71q10 67 10 111q0 126 -67 188.5t-217 62.5q-79 0 -141 -15.5t-106.5 -48t-76.5 -72.5t-54.5 -98.5t-36.5 -115.5t-26 -133z
" />
    <glyph glyph-name="Racute" unicode="&#x154;" horiz-adv-x="2102" 
d="M758 889l-142 -889h-462l362 2290q353 64 753 64q104 0 188.5 -6t171 -21.5t153 -41.5t125.5 -68.5t97.5 -99t60.5 -136t22 -178.5q0 -75 -16 -181q-24 -152 -72.5 -269.5t-120 -199t-158.5 -135t-196 -85.5l374 -933h-534l-329 879q-119 0 -277 10zM817 1265
q100 -12 280 -12q114 0 196.5 16.5t150.5 57.5t109.5 114.5t58.5 182.5q9 54 9 100q0 139 -92 200t-306 61q-146 0 -295 -20zM1952 2964l-519 -433h-356l393 433h482z" />
    <glyph glyph-name="racute" unicode="&#x155;" horiz-adv-x="1179" 
d="M763 1153l-183 -1153h-433l206 1302q25 158 69 338q153 83 346 124t383 41q94 0 175 -9l-91 -356q-50 7 -125 7q-80 0 -162 -14.5t-137 -40.5q-24 -90 -48 -239zM1034 2546h451l-506 -535h-334z" />
    <glyph glyph-name="Rcaron" unicode="&#x158;" horiz-adv-x="2102" 
d="M758 889l-141 -889h-463l362 2290q353 64 754 64q103 0 187.5 -6t171 -21.5t153 -41.5t125.5 -68.5t97.5 -99t60.5 -136t22 -178.5q0 -82 -15 -181q-32 -201 -109.5 -343t-184.5 -222.5t-254 -123.5l374 -933h-534l-329 879q-117 0 -277 10zM818 1265q100 -12 279 -12
q114 0 196.5 16.5t150.5 57.5t110 114.5t59 182.5q9 54 9 100q0 139 -92 200t-306 61q-147 0 -296 -20zM1374 2734l241 231h339l-474 -435h-267l-345 435h343z" />
    <glyph glyph-name="rcaron" unicode="&#x159;" horiz-adv-x="1178" 
d="M762 1153l-183 -1153h-432l207 1302q29 185 68 338q153 83 346 124t383 41q93 0 174 -9l-91 -356q-49 7 -124 7q-184 0 -299 -55q-24 -88 -49 -239zM812 2537l141 -285l237 285h317l-464 -536h-250l-302 536h321z" />
    <glyph glyph-name="Sacute" unicode="&#x15a;" horiz-adv-x="1807" 
d="M1202 713q0 49 -17.5 87.5t-43.5 64t-72 49t-86 38t-102 35.5q-7 2 -10 3q-93 31 -160.5 58t-134.5 62.5t-111 75.5t-79.5 91.5t-52 116.5t-16.5 144q0 71 13 149q24 150 77 263t131 190t187 124.5t237.5 68.5t290.5 21q325 0 641 -73l-99 -363q-306 51 -495 51
q-49 0 -84 -1t-88 -6t-91 -14.5t-82 -27t-73.5 -42.5t-52 -63.5t-30.5 -86.5q-6 -35 -6 -65q0 -35 9 -64t21 -50.5t39 -41t48 -31.5t64.5 -27.5t71.5 -24t84 -24.5q8 -2 12 -3.5t11 -3t12 -3.5q277 -80 402 -203t125 -343q0 -78 -15 -169q-30 -190 -107 -325.5t-201 -217
t-283 -119t-367 -37.5q-334 0 -648 72l103 373q341 -52 590 -52q96 0 165 12.5t127 44t92.5 89t48.5 143.5q5 33 5 55zM1897 2971l-520 -433h-355l393 433h482z" />
    <glyph glyph-name="sacute" unicode="&#x15b;" horiz-adv-x="1601" 
d="M737 1277q0 -32 13.5 -58t32 -42.5t52.5 -33t59 -25t67.5 -22.5t63.5 -22q176 -65 222 -86q143 -68 195 -169q39 -77 39 -183q0 -58 -10 -121q-20 -123 -70 -217.5t-119.5 -155t-164.5 -98.5t-196.5 -53t-222.5 -15q-153 0 -318.5 20.5t-291.5 56.5l93 330
q274 -54 467 -54h48t49.5 1.5t55 4t51 8t52.5 13.5t43 21.5t39.5 30t26 40t17.5 52.5q3 20 3 36q0 33 -12 59t-28 42t-47.5 31.5t-53 22.5t-64.5 19.5t-63 19.5q-51 17 -78.5 26.5t-74.5 27.5t-73.5 32t-65 36.5t-60.5 44.5t-47.5 53t-39 64.5t-22.5 76t-9 90.5q0 49 9 106
q23 146 87 249.5t160.5 161t208.5 82.5t250 25q181 0 324 -17.5t305 -56.5l-93 -324q-251 52 -434 52q-40 0 -64 -0.5t-66 -3.5t-68.5 -8.5t-60.5 -16.5t-54.5 -27t-37.5 -40.5t-22 -56.5q-2 -10 -2 -29zM1710 2556l-507 -535h-332l389 535h450z" />
    <glyph glyph-name="Scedilla" unicode="&#x15e;" horiz-adv-x="1809" 
d="M994 -4l-131 -168q91 -10 154 -64t63 -140q0 -17 -3 -35q-12 -76 -53 -133.5t-101 -91t-129.5 -49.5t-146.5 -16q-71 0 -142.5 20t-122.5 55l89 171q103 -57 201 -57q49 0 86 21.5t45 68.5q6 36 -20 62.5t-70.5 39.5t-87.5 19t-84 6l200 272q-3 0 -10 -0.5t-10 -0.5
q-332 0 -650 72l104 373q341 -52 591 -52q96 0 164.5 12.5t126.5 44t92.5 89t48.5 143.5q5 33 5 55q0 25 -3.5 47.5t-14 41.5t-19 34.5t-28 31t-31.5 25.5t-40 23t-42 20t-49 19t-49.5 17t-54.5 18q-113 37 -190.5 69.5t-151 79t-117 100.5t-69.5 129.5t-26 170.5
q0 60 13 148q24 150 77 263t131 190t187.5 124.5t238 68.5t290.5 21q324 0 642 -73l-100 -363q-306 51 -495 51q-50 0 -84.5 -1t-88 -6t-91.5 -14.5t-81.5 -27t-73 -42.5t-52 -63.5t-30.5 -86.5q-6 -36 -6 -65q0 -60 20 -101t74 -71.5t98 -46t142 -43.5q25 -7 38 -11
q138 -40 233 -86.5t163 -111t99.5 -150t31.5 -198.5q0 -78 -15 -169q-49 -308 -220.5 -471t-464.5 -208z" />
    <glyph glyph-name="scedilla" unicode="&#x15f;" horiz-adv-x="1601" 
d="M920 -8l-128 -165q90 -10 153 -64t63 -139q0 -16 -3 -36q-12 -76 -52.5 -133.5t-101 -91t-129.5 -49.5t-147 -16q-70 0 -141.5 20t-122.5 55l90 171q103 -57 200 -57q49 0 86 21.5t44 68.5q6 36 -19.5 62.5t-70 39.5t-87.5 19t-84 6l202 272q-334 5 -585 77l94 330
q274 -54 467 -54h47.5t49 1.5t55 4t51 8t52.5 13.5t43 21.5t39.5 30t26 40t17.5 52.5q3 19 3 37q0 33 -12 58.5t-28 41.5t-47.5 31.5t-53 22.5t-64.5 19.5t-63 19.5q-92 30 -140.5 48t-122 57.5t-111 81.5t-66.5 110.5t-29 153.5q0 49 9 106q18 118 64.5 208t110.5 148
t150 95t178.5 52t201.5 15q182 0 324.5 -17.5t305.5 -56.5l-93 -324q-251 52 -435 52q-40 0 -63.5 -0.5t-65.5 -3.5t-68.5 -8.5t-60.5 -16.5t-54.5 -27t-37.5 -40.5t-22 -56.5q-2 -10 -2 -29q0 -32 13.5 -58t32 -42.5t52.5 -33t59 -25t67.5 -22.5t63.5 -22q176 -65 222 -86
q143 -68 195 -169q39 -77 39 -183q0 -58 -10 -121q-72 -450 -551 -523z" />
    <glyph glyph-name="Scaron" unicode="&#x160;" horiz-adv-x="1807" 
d="M1202 713q0 49 -17.5 87.5t-43.5 64t-72 49t-86 38t-102 35.5q-7 2 -10 3q-93 31 -160.5 58t-134.5 62.5t-111 75.5t-79.5 91.5t-52 116.5t-16.5 144q0 71 13 149q24 150 77 263t131 190t187 124.5t237.5 68.5t290.5 21q324 0 642 -73l-100 -363q-306 51 -495 51
q-49 0 -84 -1t-88 -6t-91 -14.5t-82 -27t-73.5 -42.5t-52 -63.5t-30.5 -86.5q-6 -35 -6 -65q0 -35 9 -64t21 -50.5t39 -41t48 -31.5t64.5 -27.5t71.5 -24t84 -24.5q8 -2 12 -3.5t11 -3t12 -3.5q277 -80 402 -203t125 -343q0 -78 -15 -169q-30 -190 -107 -325.5t-201 -217
t-283 -119t-367 -37.5q-334 0 -648 72l103 373q341 -52 590 -52q96 0 165 12.5t127 44t92.5 89t48.5 143.5q5 33 5 55zM1278 2741l242 231h339l-475 -435h-268l-344 435h343z" />
    <glyph glyph-name="scaron" unicode="&#x161;" horiz-adv-x="1602" 
d="M1033 537q0 28 -7.5 50.5t-24 39.5t-33.5 29t-45.5 23t-49 17.5t-55 16.5t-54.5 17q-184 61 -262 105q-167 94 -199 257q-8 42 -8 89q0 49 9 106q18 118 64.5 208t110.5 148t150.5 95t179 52t201.5 15q182 0 324.5 -17.5t304.5 -56.5l-93 -324q-249 52 -435 52
q-40 0 -63.5 -0.5t-65.5 -3.5t-68.5 -8.5t-60 -16.5t-54.5 -27t-37.5 -40.5t-21.5 -56.5q-2 -10 -2 -29q0 -32 13.5 -58t32 -42.5t52.5 -33t58.5 -25t67.5 -22.5t64 -22q176 -65 220 -86q144 -67 196 -167q40 -76 40 -184q0 -51 -11 -122q-20 -123 -70 -217.5t-119.5 -154.5
t-164.5 -98.5t-196.5 -53.5t-222.5 -15q-152 0 -317.5 20.5t-292.5 56.5l94 330q272 -54 466 -54h48t49.5 1.5t55 4t51 8t52.5 13.5t43 21.5t39.5 30t26 40t17.5 52.5q3 19 3 37zM1091 2255l237 285h317l-464 -536h-251l-301 536h321z" />
    <glyph glyph-name="uni0162" unicode="&#x162;" horiz-adv-x="1700" 
d="M1919 2330l-61 -382h-562l-308 -1948h-466l309 1948h-559l61 382h1586zM321 -819l243 624h338l-333 -624h-248z" />
    <glyph glyph-name="uni0163" unicode="&#x163;" horiz-adv-x="1274" 
d="M622 2212l445 72l-79 -503h351l-53 -337h-352l-146 -921q-5 -37 -5 -60q0 -77 43.5 -111.5t136.5 -34.5q73 0 148 6l-17 -316q-173 -31 -303 -31q-234 0 -345 91t-111 277q0 62 12 134l154 966h-285l53 337h285zM242 -832l243 624h338l-333 -624h-248z" />
    <glyph glyph-name="Tcaron" unicode="&#x164;" horiz-adv-x="1701" 
d="M1919 2330l-60 -382h-562l-308 -1948h-466l308 1948h-558l61 382h1585zM678 2929h343l163 -231l241 231h339l-475 -435h-267z" />
    <glyph glyph-name="tcaron" unicode="&#x165;" horiz-adv-x="1275" 
d="M623 2212l445 72l-80 -503h351l-54 -337h-350l-146 -921q-6 -34 -6 -62q0 -76 43.5 -110t136.5 -34q72 0 147 6l-16 -316q-173 -31 -303 -31q-235 0 -345 90t-110 276q0 62 12 136l153 966h-285l53 337h285zM1188 1992l263 672h363l-358 -672h-268z" />
    <glyph glyph-name="Uring" unicode="&#x16e;" horiz-adv-x="2183" 
d="M2222 2330l-244 -1545q-30 -189 -92.5 -330t-148 -232t-204 -146.5t-248.5 -78t-293 -22.5q-142 0 -252.5 17t-205.5 58t-157 107t-97 168t-35 237q0 104 19 222l244 1545h457l-249 -1571q-11 -69 -11 -120q0 -142 81.5 -204t268.5 -62q219 0 323.5 88.5t137.5 297.5
l248 1571h458zM1384 2452q-127 0 -209 84t-82 209q0 30 4 55q23 145 140 247t258 102q126 0 208.5 -83.5t82.5 -208.5q0 -25 -5 -57q-22 -144 -138.5 -246t-258.5 -102zM1413 2629q70 0 127.5 50t67.5 121q11 71 -30 122t-111 51t-127.5 -51t-68.5 -122t30.5 -121t111.5 -50
z" />
    <glyph glyph-name="uring" unicode="&#x16f;" horiz-adv-x="1921" 
d="M244 647l179 1134h434l-173 -1094q-14 -87 -14 -146q0 -113 65 -161.5t235 -48.5q166 0 274 48q26 100 49 239l184 1163h433l-206 -1302q-25 -158 -69 -338q-329 -165 -804 -165q-120 0 -214.5 14t-161 41.5t-112.5 64.5t-72.5 87.5t-38 105.5t-11.5 123q0 86 23 235z
M1594 2342q0 -25 -5 -57q-22 -144 -138.5 -246t-258.5 -102q-127 0 -209 84t-82 209q0 30 4 55q23 145 139.5 247t258.5 102q126 0 208.5 -83.5t82.5 -208.5zM1220 2114q70 0 127 50t69 121q11 71 -30.5 122t-111.5 51t-127.5 -51t-68.5 -122t30.5 -121t111.5 -50z" />
    <glyph glyph-name="Uhungarumlaut" unicode="&#x170;" horiz-adv-x="2184" 
d="M2224 2330l-245 -1545q-30 -189 -92.5 -330t-148 -232t-204 -146.5t-248 -78t-292.5 -22.5q-142 0 -253 17t-206 58t-157.5 107t-97.5 168t-35 237q0 102 19 222l245 1545h458l-249 -1571q-11 -69 -11 -121q0 -142 81.5 -203.5t267.5 -61.5q219 0 323.5 88.5t137.5 297.5
l249 1571h458zM826 2541l378 432h465l-497 -432h-346zM1474 2541l378 432h466l-498 -432h-346z" />
    <glyph glyph-name="uhungarumlaut" unicode="&#x171;" horiz-adv-x="1920" 
d="M243 647l180 1134h434l-173 -1094q-14 -87 -14 -146q0 -113 65 -161.5t235 -48.5q166 0 273 48q24 88 49 239l185 1163h432l-206 -1302q-27 -170 -68 -338q-330 -165 -804 -165q-121 0 -215.5 14t-161 41.5t-112.5 64.5t-72.5 87.5t-38 105.5t-11.5 123q0 86 23 235z
M695 2057l374 534h435l-486 -534h-323zM1301 2057l374 534h435l-485 -534h-324z" />
    <glyph glyph-name="Ydieresis" unicode="&#x178;" horiz-adv-x="1984" 
d="M984 2499q-82 0 -134.5 51t-52.5 131q0 17 3 37q14 93 87.5 156.5t165.5 63.5q81 0 130 -50.5t49 -129.5q0 -19 -3 -40q-14 -93 -84 -156t-161 -63zM1650 2499q-82 0 -133.5 51.5t-51.5 131.5q0 18 3 36q15 93 87.5 156.5t164.5 63.5q80 0 130 -51t50 -130q0 -19 -3 -39
q-14 -93 -85 -156t-162 -63zM1272 898l-142 -898h-464l142 898l-508 1432h499l318 -966l638 966h481z" />
    <glyph glyph-name="Zacute" unicode="&#x179;" horiz-adv-x="1852" 
d="M1870 1975l-1178 -1583h975l-62 -392h-1316q-115 0 -174 38t-59 111q0 20 2 31q13 79 84 175l1184 1586h-922l61 389h1260q116 0 174.5 -38.5t58.5 -109.5q0 -14 -3 -31q-12 -76 -85 -176zM989 2513l393 433h482l-519 -433h-356z" />
    <glyph glyph-name="zacute" unicode="&#x17a;" horiz-adv-x="1773" 
d="M1721 1484l-975 -1123h804l-58 -361h-1240q-84 0 -125.5 39.5t-30.5 106.5q11 70 83 154l982 1135h-794l55 346h1225q82 0 124.5 -39.5t31.5 -106.5q-11 -70 -82 -151zM928 2027l388 535h450l-505 -535h-333z" />
    <glyph glyph-name="Zdotaccent" unicode="&#x17b;" horiz-adv-x="1851" 
d="M1869 1975l-1178 -1583h975l-62 -392h-1316q-115 0 -174.5 38t-59.5 110q0 16 3 32q13 80 85 175l1183 1586h-922l61 389h1260q116 0 174.5 -38.5t58.5 -109.5q0 -14 -3 -31q-12 -78 -85 -176zM1237 2510q-85 0 -139 53.5t-54 136.5q0 18 3 37q16 97 91.5 162.5
t170.5 65.5q84 0 136 -52.5t52 -134.5q0 -20 -3 -41q-15 -96 -88.5 -161.5t-168.5 -65.5z" />
    <glyph glyph-name="zdotaccent" unicode="&#x17c;" horiz-adv-x="1773" 
d="M1722 1484l-976 -1123h804l-57 -361h-1241q-83 0 -125 39.5t-31 106.5q11 73 82 154l983 1135h-793l54 346h1226q82 0 124 -39.5t31 -106.5q-11 -70 -81 -151zM1135 2011q-84 0 -138 54t-54 136q0 17 3 37q15 97 90.5 162.5t170.5 65.5q84 0 136 -52.5t52 -134.5
q0 -20 -3 -41q-15 -96 -88.5 -161.5t-168.5 -65.5z" />
    <glyph glyph-name="Zcaron" unicode="&#x17d;" horiz-adv-x="1851" 
d="M1870 1975l-1179 -1583h976l-62 -392h-1316q-115 0 -174 38t-59 111q0 20 2 31q13 79 84 175l1183 1586h-922l62 389h1260q116 0 174 -39t58 -110q0 -19 -2 -30q-12 -78 -85 -176zM777 2947h343l162 -231l242 231h339l-474 -435h-268z" />
    <glyph glyph-name="zcaron" unicode="&#x17e;" horiz-adv-x="1773" 
d="M1721 1484l-975 -1123h804l-57 -361h-1241q-83 0 -125 39.5t-31 106.5q11 72 83 154l982 1135h-793l54 346h1226q82 0 124 -39.5t31 -106.5q-11 -70 -82 -151zM735 2563h321l141 -285l237 285h318l-465 -536h-249z" />
    <glyph glyph-name="florin" unicode="&#x192;" horiz-adv-x="1620" 
d="M600 1445l41 306q24 180 116 301.5t228.5 176.5t312.5 55q133 0 266 -26l-47 -342q-100 15 -172 15q-53 0 -95 -13t-71 -39.5t-49.5 -57t-34.5 -74.5t-22 -82t-15 -90l-18 -130h415l-46 -338h-415l-119 -871q-47 -345 -238 -517t-516 -172q-71 0 -131 8l46 340h52
q157 0 241 73.5t104 226.5l122 912h-358l45 338h358z" />
    <glyph glyph-name="uni0218" unicode="&#x218;" horiz-adv-x="1809" 
d="M1203 714q0 49 -17.5 87.5t-43.5 64t-72 48.5t-86 37.5t-102 35.5q-7 2 -10 3q-113 37 -190.5 69.5t-151 79t-117 100.5t-69.5 129.5t-26 170.5q0 60 13 148q30 187 103.5 317t193 206.5t271.5 110t356 33.5q323 0 641 -73l-100 -363q-304 51 -494 51q-50 0 -84.5 -1
t-88 -6t-91.5 -14.5t-81.5 -27t-73 -42.5t-52 -63.5t-30.5 -86.5q-6 -36 -6 -65q0 -60 20 -101t74 -71.5t98 -46t142 -43.5q25 -7 38 -11q138 -40 233 -86.5t163 -111t99.5 -150t31.5 -198.5q0 -78 -15 -169q-30 -190 -107 -325.5t-201 -217t-283 -119t-367 -37.5
q-333 0 -649 72l103 373q341 -52 591 -52q96 0 164.5 12.5t126.5 44t92.5 89t48.5 143.5q5 33 5 56zM1025 -205l-332 -624h-248l243 624h337z" />
    <glyph glyph-name="uni0219" unicode="&#x219;" horiz-adv-x="1602" 
d="M1033 537q0 28 -7.5 50.5t-24 39.5t-33 29.5t-45.5 23.5t-49 17.5t-55 16.5t-54 16q-52 17 -78.5 26t-74 27.5t-73.5 32t-65 36.5t-60.5 44.5t-47.5 52.5t-39 64.5t-22.5 76.5t-9.5 91q0 49 9 106q81 518 706 518q182 0 325 -17.5t305 -56.5l-93 -324q-251 52 -435 52
q-40 0 -63.5 -0.5t-65.5 -3.5t-68.5 -8.5t-60.5 -16.5t-54.5 -27t-37.5 -40.5t-22 -56.5q-2 -10 -2 -29q0 -32 13.5 -58t32 -42.5t52.5 -33t59 -25t67.5 -22.5t63.5 -22q176 -65 222 -86q143 -68 195 -169q39 -77 39 -183q0 -58 -10 -121q-20 -123 -70 -217.5t-119.5 -154.5
t-164.5 -98.5t-196.5 -53.5t-222.5 -15q-153 0 -318.5 20.5t-292.5 56.5l94 330q274 -54 467 -54q154 0 223 18q140 36 158 153q3 19 3 37zM947 -198l-332 -624h-249l244 624h337z" />
    <glyph glyph-name="uni021A" unicode="&#x21a;" horiz-adv-x="1702" 
d="M1953 2330l-61 -382h-562l-308 -1948h-466l309 1948h-559l61 382h1586zM355 -819l243 624h338l-333 -624h-248z" />
    <glyph glyph-name="uni021B" unicode="&#x21b;" horiz-adv-x="1275" 
d="M655 2212l445 72l-79 -503h351l-53 -337h-352l-146 -921q-5 -37 -5 -60q0 -77 43.5 -111.5t136.5 -34.5q73 0 148 6l-17 -316q-173 -31 -303 -31q-234 0 -345 91t-111 277q0 62 12 134l154 966h-285l53 337h285zM275 -832l243 624h338l-333 -624h-248z" />
    <glyph glyph-name="circumflex" unicode="&#x2c6;" horiz-adv-x="1187" 
d="M676 2412h251l301 -536h-321l-141 284l-236 -284h-317z" />
    <glyph glyph-name="caron" unicode="&#x2c7;" horiz-adv-x="1116" 
d="M262 2412h320l142 -285l236 285h317l-463 -536h-251z" />
    <glyph glyph-name="uni02C9" unicode="&#x2c9;" horiz-adv-x="1410" 
d="M349 1975l45 277h1000l-45 -277h-1000z" />
    <glyph glyph-name="breve" unicode="&#x2d8;" horiz-adv-x="1084" 
d="M294 2379h243q-3 -92 41.5 -154.5t135.5 -62.5q90 0 154 62.5t90 154.5h243q-23 -100 -67 -183.5t-108.5 -149t-155 -102t-197.5 -36.5q-99 0 -173.5 31t-119.5 87.5t-66.5 129.5t-21.5 162q0 40 2 61z" />
    <glyph glyph-name="dotaccent" unicode="&#x2d9;" horiz-adv-x="694" 
d="M481 1911q-84 0 -138 53t-54 135q0 19 3 39q16 97 91.5 162.5t170.5 65.5q84 0 136 -52.5t52 -134.5q0 -20 -3 -41q-16 -97 -89.5 -162t-168.5 -65z" />
    <glyph glyph-name="ring" unicode="&#x2da;" horiz-adv-x="925" 
d="M579 1830q-127 0 -209 83.5t-82 209.5q0 30 4 55q22 144 139.5 246.5t258.5 102.5q126 0 208.5 -83.5t82.5 -208.5q0 -25 -5 -57q-22 -144 -139 -246t-258 -102zM607 2007q70 0 127.5 50t68.5 121t-30 122t-111 51t-127.5 -51t-68.5 -122t30 -121t111 -50z" />
    <glyph glyph-name="ogonek" unicode="&#x2db;" horiz-adv-x="712" 
d="M319 0h238q-246 -207 -269 -355q-3 -18 -3 -33q0 -50 27 -79t76 -29q100 0 182 55l36 -167q-67 -51 -154.5 -80t-162.5 -29q-129 0 -207 63.5t-78 174.5q0 28 4 52q18 115 109.5 229.5t201.5 197.5z" />
    <glyph glyph-name="tilde" unicode="&#x2dc;" horiz-adv-x="1209" 
d="M1047 2341h227q-46 -204 -147 -315t-209 -111q-56 0 -98.5 18.5t-67.5 45.5t-44.5 54t-39.5 45.5t-43 18.5q-75 0 -126 -174h-228q48 204 149 315t208 111q56 0 98.5 -18.5t67 -45.5t44 -54t39.5 -45.5t43 -18.5q75 0 127 174z" />
    <glyph glyph-name="hungarumlaut" unicode="&#x2dd;" horiz-adv-x="1435" 
d="M211 1865l373 534h435l-485 -534h-323zM817 1865l373 534h435l-485 -534h-323z" />
    <glyph glyph-name="uni03A9" unicode="&#x3a9;" horiz-adv-x="2510" 
d="M1984 1210q12 76 12 156q0 98 -18.5 189t-59 172t-99 141.5t-144 95.5t-187.5 35q-143 0 -273 -62.5t-228.5 -170.5t-167 -253t-94.5 -309q-15 -94 -15 -184q0 -250 101.5 -451t256.5 -304l-43 -265h-970l56 355h384q-214 294 -214 672q0 109 17 212q38 242 154 450.5
t282 354t377 228t436 82.5q167 0 310.5 -47t249 -131t180.5 -198.5t112.5 -251t37.5 -286.5q0 -94 -15 -190q-42 -268 -172 -496.5t-310 -398.5h384l-57 -355h-967l42 265q108 60 207.5 149t188.5 206.5t154 270t92 319.5z" />
    <glyph glyph-name="uni03BC" unicode="&#x3bc;" horiz-adv-x="2081" 
d="M116 -656l386 2437h402l-171 -1075q-8 -51 -8 -92q0 -129 64 -204.5t184 -75.5q381 0 486 672l122 775h405l-173 -1091q-26 -163 -26 -230q0 -76 25.5 -123t87.5 -69l-46 -292q-107 0 -188.5 24.5t-130.5 68.5t-76.5 95t-39.5 114q-109 -156 -233.5 -229t-271.5 -73
q-180 0 -278 121l-119 -753h-401z" />
    <glyph glyph-name="pi" unicode="&#x3c0;" horiz-adv-x="2242" 
d="M2054 309l-83 -333q-153 0 -268.5 25.5t-190.5 69.5t-122 111t-66 144t-19 173q0 91 20 221q56 345 159 701h-413q-226 -1017 -417 -1421h-440q148 322 250.5 642.5t211.5 775.5h-65q-85 0 -152.5 -19.5t-162.5 -66.5l-62 242q223 207 581 207h1554l-97 -360h-395
q-72 -227 -130 -586q-15 -95 -15 -172q0 -354 322 -354z" />
    <glyph glyph-name="uni200A" unicode="&#x200a;" horiz-adv-x="73" 
 />
    <glyph glyph-name="uni2010" unicode="&#x2010;" horiz-adv-x="1273" 
d="M246 708l57 356h862l-57 -356h-862z" />
    <glyph glyph-name="endash" unicode="&#x2013;" horiz-adv-x="1982" 
d="M246 717l53 337h1575l-53 -337h-1575z" />
    <glyph glyph-name="emdash" unicode="&#x2014;" horiz-adv-x="3503" 
d="M246 717l53 337h3096l-53 -337h-3096z" />
    <glyph glyph-name="quoteleft" unicode="&#x2018;" horiz-adv-x="830" 
d="M213 1625l449 844h337l-328 -844h-458z" />
    <glyph glyph-name="quoteright" unicode="&#x2019;" horiz-adv-x="830" 
d="M213 1625l328 844h458l-449 -844h-337z" />
    <glyph glyph-name="quotesinglbase" unicode="&#x201a;" horiz-adv-x="849" 
d="M10 -411l328 844h459l-450 -844h-337z" />
    <glyph glyph-name="quotedblleft" unicode="&#x201c;" horiz-adv-x="1482" 
d="M213 1625l449 844h337l-328 -844h-458zM865 1625l448 844h338l-327 -844h-459z" />
    <glyph glyph-name="quotedblright" unicode="&#x201d;" horiz-adv-x="1482" 
d="M213 1625l328 844h458l-449 -844h-337zM865 1625l328 844h458l-448 -844h-338z" />
    <glyph glyph-name="quotedblbase" unicode="&#x201e;" horiz-adv-x="1501" 
d="M10 -411l329 844h458l-449 -844h-338zM662 -411l329 844h458l-449 -844h-338z" />
    <glyph glyph-name="dagger" unicode="&#x2020;" horiz-adv-x="1827" 
d="M897 1784l94 592h431l-93 -592h591l-60 -374h-590l-290 -1830h-431l289 1830h-582l59 374h582z" />
    <glyph glyph-name="daggerdbl" unicode="&#x2021;" horiz-adv-x="1898" 
d="M588 -420l172 1090h-582l58 371h582l71 442h-583l60 376h582l82 517h429l-82 -517h587l-60 -376h-586l-71 -442h587l-59 -371h-586l-172 -1090h-429z" />
    <glyph glyph-name="bullet" unicode="&#x2022;" horiz-adv-x="1236" 
d="M617 653q-193 0 -329.5 136.5t-136.5 329.5t136.5 329.5t329.5 136.5q126 0 233.5 -62.5t170 -170t62.5 -233.5q0 -193 -136.5 -329.5t-329.5 -136.5z" />
    <glyph glyph-name="ellipsis" unicode="&#x2026;" horiz-adv-x="2956" 
d="M185 140q0 36 8 92q23 146 86.5 201t210.5 55q123 0 174.5 -37t51.5 -129q0 -36 -8 -90q-23 -146 -86.5 -201t-212.5 -55q-123 0 -173.5 36.5t-50.5 127.5zM1455 -24q-123 0 -173.5 36.5t-50.5 127.5q0 36 8 92q23 146 86.5 201t210.5 55q122 0 173 -37t51 -128
q0 -37 -8 -91q-23 -146 -86 -201t-211 -55zM2275 140q0 36 8 92q23 146 87 201t211 55q123 0 174 -37t51 -128q0 -37 -8 -91q-23 -146 -86 -201t-212 -55q-124 0 -174.5 36.5t-50.5 127.5z" />
    <glyph glyph-name="perthousand" unicode="&#x2030;" horiz-adv-x="4006" 
d="M685 957q-234 0 -330 95.5t-96 302.5q0 120 28 294q24 148 52.5 251.5t75 192t111.5 140.5t158.5 80.5t219.5 28.5q234 0 330.5 -96t96.5 -304q0 -120 -28 -293q-24 -147 -52.5 -251t-75.5 -192t-112 -140t-159 -80.5t-219 -28.5zM564 1383q0 -91 35 -136.5t121 -45.5
q36 0 66 7.5t53.5 25t42 37.5t33.5 53.5t25.5 63.5t21 78t17.5 86t16 97q30 193 30 265q0 92 -35 138t-121 46q-41 0 -74.5 -11.5t-57.5 -29.5t-44 -52t-33 -65.5t-26 -85t-20.5 -95t-18.5 -110.5q-31 -190 -31 -266zM2083 -12q-234 0 -330 95.5t-96 302.5q0 121 28 295
q19 122 42 213t57 172.5t79.5 136t108 94.5t144.5 58.5t187 18.5q233 0 329 -96t96 -303q0 -120 -28 -294q-19 -123 -42 -213.5t-57 -172t-79.5 -136t-108 -94.5t-144 -58.5t-186.5 -18.5zM1962 415q0 -91 35 -136.5t121 -45.5q36 0 66 7.5t53.5 25t42 37.5t33.5 53.5
t25.5 63.5t21 78t17.5 86t16 97q30 195 30 266q0 91 -35 137t-121 46q-41 0 -74.5 -11.5t-57.5 -29.5t-44 -52t-33 -65t-26 -84.5t-20.5 -95.5t-18.5 -111q-31 -202 -31 -266zM3271 -12q-234 0 -330 95.5t-96 302.5q0 121 28 295q19 122 42 213t57 172.5t79.5 136t108 94.5
t144.5 58.5t187 18.5q234 0 330 -96t96 -303q0 -121 -28 -294q-20 -123 -42.5 -213.5t-56.5 -172t-79.5 -136t-108 -94.5t-144.5 -58.5t-187 -18.5zM3581 681q30 193 30 264q0 92 -35 138.5t-121 46.5q-36 0 -66 -7.5t-53.5 -25.5t-41.5 -37t-33 -54t-25 -63.5t-20.5 -78
t-17 -86t-16.5 -97.5q-31 -191 -31 -267q0 -91 35 -136t121 -45q36 0 65.5 7.5t53 25t42 37.5t33.5 53.5t25.5 63.5t21 78t17.5 86t16 97zM480 -48l1724 2426h302l-1725 -2426h-301z" />
    <glyph glyph-name="guilsinglleft" unicode="&#x2039;" horiz-adv-x="1092" 
d="M601 862l325 -690h-405l-369 690l587 690h405z" />
    <glyph glyph-name="guilsinglright" unicode="&#x203a;" horiz-adv-x="1093" 
d="M1077 862l-588 -690h-405l544 690l-325 690h404z" />
    <glyph glyph-name="fraction" unicode="&#x2044;" horiz-adv-x="531" 
d="M-655 -48l1724 2426h302l-1724 -2426h-302z" />
    <glyph glyph-name="uni2070" unicode="&#x2070;" horiz-adv-x="1247" 
d="M248 1746q0 109 28 292q23 148 52 252t75.5 192t112 140t159 80.5t219.5 28.5q234 0 330.5 -96t96.5 -304q0 -120 -28 -293q-23 -147 -52 -251t-75.5 -192t-112 -140t-159 -80.5t-219.5 -28.5q-234 0 -330.5 96t-96.5 304zM585 2038q-30 -195 -30 -266q0 -91 35 -136
t121 -45q36 0 65.5 7.5t53 25t41.5 37t33 53.5t25.5 63.5t21 77.5t17 85.5t16.5 97.5q31 202 31 267q0 91 -35 136.5t-120 45.5q-36 0 -66 -7.5t-53.5 -25t-42 -37.5t-33.5 -54t-25.5 -64t-21 -78t-17.5 -86t-16 -97z" />
    <glyph glyph-name="uni2074" unicode="&#x2074;" horiz-adv-x="1196" 
d="M717 1358l47 300h-416q-94 0 -133.5 30.5t-39.5 87.5q0 16 3 36q13 87 131 214l527 573q69 75 123 102.5t120 27.5q60 0 96 -34t36 -99q0 -18 -3 -39l-105 -663h159l-37 -236h-159l-48 -300h-301zM867 2300l-362 -406h297z" />
    <glyph glyph-name="uni2075" unicode="&#x2075;" horiz-adv-x="1147" 
d="M615 2228q12 0 32.5 0.5t28.5 0.5q95 0 164.5 -6.5t136.5 -27t108.5 -55.5t67 -93.5t25.5 -139.5q0 -49 -9 -109q-37 -236 -183 -342.5t-402 -106.5q-219 0 -433 50l68 236q223 -33 345 -33q77 0 122 7.5t82 30.5t56 66t31 115q3 17 3 31q0 44 -22.5 73t-66 43
t-88.5 18.5t-108 4.5q-143 0 -298 -8l166 736h844l-41 -257h-576z" />
    <glyph glyph-name="uni2076" unicode="&#x2076;" horiz-adv-x="1216" 
d="M1254 1797q-17 -108 -54.5 -188t-89.5 -131t-124.5 -82t-151 -43t-178.5 -12q-232 0 -328.5 94t-96.5 280q0 80 18 195q26 162 56.5 277t78 210t109.5 155t152.5 100.5t204.5 57.5t268 17q10 0 180 -3l-14 -236q-31 -2 -86.5 -2.5t-97.5 -1t-99 -5.5t-100 -14t-91 -28.5
t-82.5 -47t-63 -70.5t-43.5 -99q120 14 204 14q107 0 183.5 -14.5t136.5 -49.5t89.5 -98t29.5 -156q0 -56 -10 -119zM690 1587q129 0 184 46.5t75 167.5q5 35 5 57q0 82 -49.5 113t-150.5 31q-73 0 -185 -14q-9 -37 -20 -107q-11 -77 -11 -121q0 -81 34 -127t118 -46z" />
    <glyph glyph-name="uni2077" unicode="&#x2077;" horiz-adv-x="1053" 
d="M1229 2489l-676 -1128h-342l701 1098h-627l41 258h787q84 0 124 -36.5t30 -100.5q-5 -37 -38 -91z" />
    <glyph glyph-name="uni2078" unicode="&#x2078;" horiz-adv-x="1214" 
d="M660 1346q-106 0 -186.5 15.5t-142.5 50.5t-94.5 96.5t-32.5 148.5q0 44 7 87q18 112 77 183t171 135q-68 45 -101.5 101.5t-33.5 139.5q0 39 7 80q55 348 547 348q444 0 444 -282q0 -31 -6 -66q-18 -116 -65.5 -185.5t-162.5 -131.5q74 -51 112 -110.5t38 -143.5
q0 -31 -6 -67q-15 -96 -53 -167.5t-89.5 -115t-123 -70.5t-144 -36.5t-162.5 -9.5zM510 1711q0 -72 48.5 -99t139.5 -27q98 0 158.5 35.5t75.5 129.5q5 32 5 53q0 66 -50.5 97t-186.5 46q-162 -35 -187 -196q-3 -21 -3 -39zM1022 2350q3 20 3 35q0 66 -47 89.5t-136 23.5
q-97 0 -153.5 -30t-70.5 -118q-4 -28 -4 -39q0 -59 50 -91.5t181 -40.5q83 22 124 59t53 112z" />
    <glyph glyph-name="uni2079" unicode="&#x2079;" horiz-adv-x="1215" 
d="M282 2280q17 108 54.5 188t89.5 131t124.5 82t151 43t178.5 12q231 0 327.5 -93.5t96.5 -278.5q0 -81 -18 -197q-26 -162 -56.5 -277t-78 -210t-109.5 -155t-152 -101t-204 -57.5t-268 -16.5q-29 0 -180 4l14 235q31 2 87 2.5t98 1t98.5 5.5t100 14t91 28.5t82 47
t63 70.5t43.5 99q-120 -14 -204 -14q-107 0 -183.5 14.5t-136.5 49.5t-89.5 98.5t-29.5 156.5q0 57 10 118zM846 2491q-129 0 -184.5 -46.5t-74.5 -167.5q-5 -35 -5 -57q0 -83 49.5 -114t150.5 -31q80 0 185 15q13 60 20 106q12 72 12 122q0 81 -34.5 127t-118.5 46z" />
    <glyph glyph-name="uni2080" unicode="&#x2080;" horiz-adv-x="1247" 
d="M248 -2q0 109 28 292q23 148 52 252t75.5 192t112 140t159 80.5t219.5 28.5q234 0 330.5 -96t96.5 -304q0 -120 -28 -293q-23 -147 -52 -251t-75.5 -192t-112 -140t-159 -80.5t-219.5 -28.5q-234 0 -330.5 96t-96.5 304zM585 290q-30 -195 -30 -266q0 -91 35 -136
t121 -45q36 0 65.5 7.5t53 25t41.5 37t33 53.5t25.5 63.5t21 77.5t17 85.5t16.5 97.5q31 202 31 267q0 91 -35 136.5t-120 45.5q-36 0 -66 -7.5t-53.5 -25t-42 -37.5t-33.5 -54t-25.5 -64t-21 -78t-17.5 -86t-16 -97z" />
    <glyph glyph-name="uni2081" unicode="&#x2081;" horiz-adv-x="792" 
d="M386 -387l167 1054q-120 -27 -293 -47l24 241q209 30 386 108h235l-215 -1356h-304z" />
    <glyph glyph-name="uni2082" unicode="&#x2082;" horiz-adv-x="1150" 
d="M367 932q260 49 459 49q98 0 174 -14t136.5 -45.5t93 -88t32.5 -136.5q0 -34 -6 -73q-29 -183 -146 -305t-329 -202q-125 -48 -177.5 -101t-81.5 -147h614l-41 -259h-960q44 132 68 199t61.5 152.5t70 129.5t83 95.5t112 86.5t146.5 69q132 54 191.5 104.5t73.5 134.5
q3 21 3 38q0 66 -58.5 88t-211.5 22q-119 0 -315 -32z" />
    <glyph glyph-name="uni2083" unicode="&#x2083;" horiz-adv-x="1132" 
d="M1229 626q-15 -96 -70 -173t-146 -126q148 -71 148 -225q0 -37 -5 -66q-16 -99 -52 -174.5t-87 -125t-122.5 -81t-152.5 -44.5t-183 -13q-176 0 -419 49l69 236q230 -32 341 -32q141 0 205 34.5t80 140.5q4 21 4 45q0 102 -99 114q-104 14 -269 14h-42l35 224
q158 4 316 26q113 17 133 148q3 18 3 33q0 27 -10 46.5t-25.5 31t-42 17.5t-52.5 8t-63 2q-119 0 -373 -33l6 233q258 48 428 48q78 0 139.5 -6.5t122 -25t100.5 -49.5t64.5 -82t24.5 -119q0 -35 -6 -75z" />
    <glyph glyph-name="uni2084" unicode="&#x2084;" horiz-adv-x="1196" 
d="M717 -390l47 300h-416q-94 0 -133.5 30.5t-39.5 87.5q0 16 3 36q13 87 131 214l527 573q69 75 123 102.5t120 27.5q60 0 96 -34t36 -99q0 -18 -3 -39l-105 -663h159l-37 -236h-159l-48 -300h-301zM867 552l-362 -406h297z" />
    <glyph glyph-name="uni2085" unicode="&#x2085;" horiz-adv-x="1147" 
d="M615 480q12 0 32.5 0.5t28.5 0.5q95 0 164.5 -6.5t136.5 -27t108.5 -55.5t67 -93.5t25.5 -139.5q0 -49 -9 -109q-37 -236 -183 -342.5t-402 -106.5q-219 0 -433 50l68 236q223 -33 345 -33q77 0 122 7.5t82 30.5t56 66t31 115q3 16 3 31q0 44 -22.5 73t-66 43t-88.5 18.5
t-108 4.5q-143 0 -298 -8l166 736h844l-41 -257h-576z" />
    <glyph glyph-name="uni2086" unicode="&#x2086;" horiz-adv-x="1216" 
d="M1254 49q-17 -108 -54.5 -188t-89.5 -131t-124.5 -82t-151 -43t-178.5 -12q-232 0 -328.5 94t-96.5 280q0 80 18 195q26 162 56.5 277t78 210t109.5 155t152.5 100.5t204.5 57.5t268 17q10 0 180 -3l-14 -236q-31 -2 -86.5 -2.5t-97.5 -1t-99 -5.5t-100 -14t-91 -28.5
t-82.5 -47t-63 -70.5t-43.5 -99q120 14 204 14q107 0 183.5 -14.5t136.5 -49.5t89.5 -98t29.5 -156q0 -56 -10 -119zM690 -161q129 0 184 46.5t75 167.5q5 35 5 57q0 82 -49.5 113t-150.5 31q-73 0 -185 -14q-9 -37 -20 -107q-11 -77 -11 -121q0 -81 34 -127t118 -46z" />
    <glyph glyph-name="uni2087" unicode="&#x2087;" horiz-adv-x="1053" 
d="M1229 741l-676 -1128h-342l701 1098h-627l41 258h787q84 0 124 -36.5t30 -100.5q-5 -37 -38 -91z" />
    <glyph glyph-name="uni2088" unicode="&#x2088;" horiz-adv-x="1214" 
d="M660 -402q-106 0 -186.5 15.5t-142.5 50.5t-94.5 96.5t-32.5 148.5q0 44 7 87q18 112 77 183t171 135q-68 45 -101.5 101.5t-33.5 139.5q0 39 7 80q55 348 547 348q444 0 444 -282q0 -31 -6 -66q-18 -116 -65.5 -185.5t-162.5 -131.5q74 -51 112 -110.5t38 -143.5
q0 -31 -6 -67q-15 -96 -53 -167.5t-89.5 -115t-123 -70.5t-144 -36.5t-162.5 -9.5zM510 -37q0 -72 48.5 -99t139.5 -27q98 0 158.5 35.5t75.5 129.5q5 32 5 53q0 66 -50.5 97t-186.5 46q-162 -35 -187 -196q-3 -21 -3 -39zM1022 602q3 20 3 35q0 66 -47 89.5t-136 23.5
q-97 0 -153.5 -30t-70.5 -118q-4 -28 -4 -39q0 -59 50 -91.5t181 -40.5q83 22 124 59t53 112z" />
    <glyph glyph-name="uni2089" unicode="&#x2089;" horiz-adv-x="1215" 
d="M282 532q17 108 54.5 188t89.5 131t124.5 82t151 43t178.5 12q231 0 327.5 -93.5t96.5 -278.5q0 -81 -18 -197q-26 -162 -56.5 -277t-78 -210t-109.5 -155t-152 -101t-204 -57.5t-268 -16.5q-29 0 -180 4l14 235q31 2 87 2.5t98 1t98.5 5.5t100 14t91 28.5t82 47t63 70.5
t43.5 99q-120 -14 -204 -14q-107 0 -183.5 14.5t-136.5 49.5t-89.5 98.5t-29.5 156.5q0 57 10 118zM846 743q-129 0 -184.5 -46.5t-74.5 -167.5q-5 -35 -5 -57q0 -83 49.5 -114t150.5 -31q80 0 185 15q13 60 20 106q12 72 12 122q0 81 -34.5 127t-118.5 46z" />
    <glyph glyph-name="Euro" unicode="&#x20ac;" horiz-adv-x="1804" 
d="M1478 1058l-90 -247h-547q-4 -62 -4 -90q0 -87 16.5 -150.5t56 -112.5t109 -73.5t170.5 -24.5q182 0 404 44l-22 -356q-235 -72 -520 -72q-183 0 -309.5 38.5t-205.5 120.5t-114.5 203.5t-35.5 294.5q0 77 8 178h-241l91 247h179q2 18 11 72l15 90h-211l92 248h170
q53 217 125.5 366.5t181.5 252.5t258 150t352 47q284 0 496 -74l-90 -354q-212 44 -391 44q-89 0 -160 -20.5t-121.5 -56t-90 -91t-65.5 -118.5t-47 -146h684l-93 -248h-641l-26 -162h606z" />
    <glyph glyph-name="uni2113" unicode="&#x2113;" horiz-adv-x="1693" 
d="M178 510l-78 228l325 203q32 203 59.5 347.5t69.5 313t87 283.5t110.5 229t143 181.5t181.5 109t228 41.5q180 0 270.5 -107.5t90.5 -282.5q0 -60 -10 -119q-80 -504 -842 -1063q-11 -127 -11 -222q0 -196 53 -293t182 -97q81 0 171.5 53t223.5 167l126 -176
q-295 -330 -643 -330q-115 0 -204.5 35t-147 94.5t-94.5 145t-52 179t-16 205.5zM1235 2177q-59 0 -108.5 -51t-83 -127.5t-63.5 -189t-49 -210.5t-40 -217q-13 -75 -19 -110q199 181 311 341.5t139 333.5q9 59 9 93q0 137 -96 137z" />
    <glyph glyph-name="trademark" unicode="&#x2122;" horiz-adv-x="3192" 
d="M2937 932h-284v964h-2l-376 -964h-188l-376 963h-2v-963h-285v1398h395l367 -933l361 933h390v-1398zM1233 2330v-247h-415v-1151h-285v1151h-415v247h1115z" />
    <glyph glyph-name="Omega" unicode="&#x2126;" horiz-adv-x="2510" 
d="M1984 1210q12 76 12 156q0 98 -18.5 189t-59 172t-99 141.5t-144 95.5t-187.5 35q-143 0 -273 -62.5t-228.5 -170.5t-167 -253t-94.5 -309q-15 -94 -15 -184q0 -250 101.5 -451t256.5 -304l-43 -265h-970l56 355h384q-214 294 -214 672q0 109 17 212q38 242 154 450.5
t282 354t377 228t436 82.5q167 0 310.5 -47t249 -131t180.5 -198.5t112.5 -251t37.5 -286.5q0 -94 -15 -190q-42 -268 -172 -496.5t-310 -398.5h384l-57 -355h-967l42 265q108 60 207.5 149t188.5 206.5t154 270t92 319.5z" />
    <glyph glyph-name="estimated" unicode="&#x212e;" horiz-adv-x="2703" 
d="M2206 496h206q-99 -120 -206 -212t-236 -163t-283.5 -108t-329.5 -37q-266 0 -493 84t-384 229.5t-246 348t-89 433.5q0 144 38.5 282t109.5 259.5t178.5 223.5t239.5 175t297.5 114t348.5 41q224 0 413 -54t328.5 -151.5t241 -234.5t159 -301.5t74.5 -353.5h-1898v-741
q280 -236 682 -236q534 0 849 402zM675 1809v-619h1368v619q-302 240 -686 240q-404 0 -682 -240z" />
    <glyph glyph-name="uni2190" unicode="&#x2190;" horiz-adv-x="2268" 
d="M865 789l494 -618h-430l-753 807l753 807h430l-494 -617h1381v-379h-1381z" />
    <glyph glyph-name="uni2191" unicode="&#x2191;" horiz-adv-x="1813" 
d="M1173 1325v-1382h-378v1382l-619 -493v429l807 753l808 -753v-429z" />
    <glyph glyph-name="uni2192" unicode="&#x2192;" horiz-adv-x="2268" 
d="M2246 978l-753 -807h-430l494 618h-1381v379h1381l-494 617h430z" />
    <glyph glyph-name="uni2193" unicode="&#x2193;" horiz-adv-x="1812" 
d="M1790 1126v-429l-807 -754l-807 754v429l618 -494v1382h379v-1382z" />
    <glyph glyph-name="uni21E8" unicode="&#x21e8;" horiz-adv-x="2665" 
d="M1552 525h-1363v908h1363v555l1043 -1009l-1043 -1010v556zM2364 979l-649 617v-326h-1365v-582h1365v-326z" />
    <glyph glyph-name="partialdiff" unicode="&#x2202;" horiz-adv-x="1809" 
d="M619 2019l-36 266q287 184 580 184q160 0 280.5 -55t195.5 -159.5t112 -247.5t37 -326q0 -170 -32 -371q-62 -394 -212.5 -693.5t-378.5 -470t-503 -170.5q-136 0 -241 45t-170 124.5t-98 183t-33 225.5q0 69 13 155q30 187 107.5 344.5t192.5 271t271 177t335 63.5
q99 0 178.5 -38t132.5 -92q14 124 14 223q0 490 -332 490q-113 0 -205.5 -30.5t-207.5 -98.5zM556 582q0 -133 47.5 -217.5t144.5 -84.5q77 0 149 47t128.5 122.5t106 179.5t85 209.5t62.5 220.5q-46 92 -109.5 141.5t-161.5 49.5q-111 0 -206 -78t-154 -199t-82 -264
q-10 -61 -10 -127z" />
    <glyph glyph-name="Delta" unicode="&#x2206;" horiz-adv-x="2216" 
d="M2063 251l-40 -251h-2015l38 245l1124 2085h443zM1600 344l-306 1438l-767 -1438h1073z" />
    <glyph glyph-name="product" unicode="&#x220f;" horiz-adv-x="2560" 
d="M2762 2400l-59 -374h-361l-391 -2469h-441l391 2469h-754l-390 -2469h-441l391 2469h-364l59 374h2360z" />
    <glyph glyph-name="summation" unicode="&#x2211;" horiz-adv-x="2036" 
d="M416 2400h1781l-57 -360h-1192l592 -1015l-991 -1079h1311l-61 -389h-1869l42 262l1058 1158l-656 1150z" />
    <glyph glyph-name="minus" unicode="&#x2212;" horiz-adv-x="1878" 
d="M176 789l59 379h1621l-59 -379h-1621z" />
    <glyph glyph-name="uni2215" unicode="&#x2215;" horiz-adv-x="531" 
d="M-655 -48l1724 2426h302l-1724 -2426h-302z" />
    <glyph glyph-name="uni2219" unicode="&#x2219;" horiz-adv-x="908" 
d="M489 699q-123 0 -174 36t-51 126q0 41 9 94q23 146 86.5 201t210.5 55q123 0 173.5 -36.5t50.5 -127.5q0 -45 -8 -92q-23 -146 -86 -201t-211 -55z" />
    <glyph glyph-name="radical" unicode="&#x221a;" horiz-adv-x="1897" 
d="M2200 2866l-1176 -3076h-358l-240 1345l-237 -88l-42 289l620 234l172 -1086l901 2382h360z" />
    <glyph glyph-name="infinity" unicode="&#x221e;" horiz-adv-x="2727" 
d="M212 978q19 117 78 227.5t144 194.5t196.5 135t228.5 51q298 0 520 -317q64 66 107 108t108 100t120 94.5t121 71.5t135 51.5t140 16.5q105 0 193.5 -30t152 -84t108 -127.5t66 -161t21.5 -185.5q0 -71 -12 -145q-23 -144 -87 -275.5t-160.5 -233.5t-230 -162.5
t-282.5 -60.5q-61 0 -118.5 14t-103 35t-92 57t-80 69.5t-73 83.5t-65 87t-61.5 92q-317 -309 -619 -309q-139 0 -246 69.5t-162 183t-55 250.5q0 46 8 100zM802 1230q-89 0 -157.5 -68t-87.5 -184q-5 -33 -5 -58q0 -89 47 -139.5t124 -50.5q79 0 172.5 56t225.5 192
q-89 137 -164.5 194.5t-154.5 57.5zM2293 1074q0 133 -65 205.5t-174 72.5q-192 0 -505 -374q28 -55 55 -100.5t66.5 -98.5t78.5 -89t88 -60.5t98 -24.5q128 0 225 98.5t125 274.5q8 45 8 96z" />
    <glyph glyph-name="integral" unicode="&#x222b;" horiz-adv-x="1258" 
d="M1531 2357q-87 76 -196 76q-46 0 -86.5 -18.5t-71 -49.5t-56.5 -77t-44.5 -94t-34.5 -108.5t-26 -112t-20 -112.5q-42 -262 -96.5 -791t-98.5 -806q-13 -80 -33 -159.5t-53.5 -167t-75.5 -164.5t-101 -147.5t-128 -121t-158.5 -80.5t-190.5 -30q-87 0 -186.5 33.5
t-152.5 72.5l123 298q41 -32 103 -53.5t133 -21.5t124 35.5t91.5 110t64.5 172t49 238.5q39 248 99 802.5t100 807.5q14 90 34 171t52.5 170t73.5 162.5t100.5 141t130 114t164.5 74t203 27.5q80 0 159 -30.5t132 -70.5z" />
    <glyph glyph-name="approxequal" unicode="&#x2248;" horiz-adv-x="2138" 
d="M1464 706q130 0 267 48t241 142q-43 -271 -59 -377q-104 -94 -242 -142t-267 -48q-87 0 -163.5 21t-134 51.5t-113.5 61t-127.5 51.5t-150.5 21q-130 0 -267 -48t-241 -142l60 378q104 94 241.5 142t266.5 48q86 0 162.5 -21.5t134 -51.5t114 -60.5t128 -52t150.5 -21.5z
M380 1437q104 94 241 142t267 48q86 0 163 -21t134.5 -51.5t114 -61t127.5 -51.5t150 -21q130 0 267 48t241 142q-40 -252 -59 -378q-104 -94 -242 -142t-267 -48q-87 0 -163.5 21.5t-134 51.5t-113.5 60.5t-127.5 52t-150.5 21.5q-129 0 -266.5 -48t-241.5 -142z" />
    <glyph glyph-name="notequal" unicode="&#x2260;" horiz-adv-x="2055" 
d="M207 431l61 379h590l198 337h-735l60 379h898l283 482h294l-283 -482h429l-60 -379h-591l-198 -337h736l-61 -379h-897l-283 -482h-295l283 482h-429z" />
    <glyph glyph-name="lessequal" unicode="&#x2264;" horiz-adv-x="2054" 
d="M261 1080l49 311l1771 651l-62 -389l-1183 -418l1051 -417l-62 -390zM76 -85l61 378h1667l-61 -378h-1667z" />
    <glyph glyph-name="greaterequal" unicode="&#x2265;" horiz-adv-x="2054" 
d="M270 818l1184 417l-1052 418l62 389l1564 -651l-49 -311l-1771 -652zM126 -85l61 378h1667l-60 -378h-1668z" />
    <glyph glyph-name="lozenge" unicode="&#x25ca;" horiz-adv-x="1882" 
d="M1854 1167l-855 -1260h-329l-458 1260l856 1256h329zM903 340l544 827l-282 829l-545 -829z" />
    <glyph glyph-name="zero.numerator" horiz-adv-x="1247" 
d="M248 1357q0 109 28 292q23 148 52 252t75.5 192t112 140t159 80.5t219.5 28.5q234 0 330.5 -96t96.5 -304q0 -120 -28 -293q-23 -147 -52 -251t-75.5 -192t-112 -140t-159 -80.5t-219.5 -28.5q-234 0 -330.5 96t-96.5 304zM585 1649q-30 -195 -30 -266q0 -91 35 -136
t121 -45q36 0 65.5 7.5t53 25t41.5 37t33 53.5t25.5 63.5t21 77.5t17 85.5t16.5 97.5q31 202 31 267q0 91 -35 136.5t-120 45.5q-36 0 -66 -7.5t-53.5 -25t-42 -37.5t-33.5 -54t-25.5 -64t-21 -78t-17.5 -86t-16 -97z" />
    <glyph glyph-name="one.numerator" horiz-adv-x="792" 
d="M386 972l167 1054q-120 -27 -293 -47l24 241q209 30 386 108h235l-215 -1356h-304z" />
    <glyph glyph-name="two.numerator" horiz-adv-x="1150" 
d="M367 2291q260 49 459 49q98 0 174 -14t136.5 -45.5t93 -88t32.5 -136.5q0 -34 -6 -73q-29 -183 -146 -305t-329 -202q-125 -48 -177.5 -101t-81.5 -147h614l-41 -259h-960q44 132 68 199t61.5 152.5t70 129.5t83 95.5t112 86.5t146.5 69q132 54 191.5 104.5t73.5 134.5
q3 21 3 38q0 66 -58.5 88t-211.5 22q-119 0 -315 -32z" />
    <glyph glyph-name="three.numerator" horiz-adv-x="1132" 
d="M1229 1985q-15 -96 -70 -173t-146 -126q148 -71 148 -225q0 -37 -5 -66q-16 -99 -52 -174.5t-87 -125t-122.5 -81t-152.5 -44.5t-183 -13q-176 0 -419 49l69 236q230 -32 341 -32q141 0 205 34.5t80 140.5q4 21 4 45q0 102 -99 114q-104 14 -269 14h-42l35 224
q158 4 316 26q113 17 133 148q3 18 3 33q0 27 -10 46.5t-25.5 31t-42 17.5t-52.5 8t-63 2q-119 0 -373 -33l6 233q258 48 428 48q78 0 139.5 -6.5t122 -25t100.5 -49.5t64.5 -82t24.5 -119q0 -34 -6 -75z" />
    <glyph glyph-name="four.numerator" horiz-adv-x="1196" 
d="M717 969l47 300h-416q-94 0 -133.5 30.5t-39.5 87.5q0 17 3 36q13 87 131 214l527 573q69 75 123 102.5t120 27.5q60 0 96 -34t36 -99q0 -18 -3 -39l-105 -663h159l-37 -236h-159l-48 -300h-301zM867 1911l-362 -406h297z" />
    <glyph glyph-name="five.numerator" horiz-adv-x="1147" 
d="M615 1839q12 0 32.5 0.5t28.5 0.5q95 0 164.5 -6.5t136.5 -27t108.5 -55.5t67 -93.5t25.5 -139.5q0 -49 -9 -109q-37 -236 -183 -342.5t-402 -106.5q-219 0 -433 50l68 236q223 -33 345 -33q77 0 122 7.5t82 30.5t56 66t31 115q3 16 3 31q0 44 -22.5 73t-66 43
t-88.5 18.5t-108 4.5q-143 0 -298 -8l166 736h844l-41 -257h-576z" />
    <glyph glyph-name="six.numerator" horiz-adv-x="1216" 
d="M1254 1408q-17 -108 -54.5 -188t-89.5 -131t-124.5 -82t-151 -43t-178.5 -12q-232 0 -328.5 94t-96.5 280q0 80 18 195q26 162 56.5 277t78 210t109.5 155t152.5 100.5t204.5 57.5t268 17q10 0 180 -3l-14 -236q-31 -2 -86.5 -2.5t-97.5 -1t-99 -5.5t-100 -14t-91 -28.5
t-82.5 -47t-63 -70.5t-43.5 -99q120 14 204 14q107 0 183.5 -14.5t136.5 -49.5t89.5 -98t29.5 -156q0 -56 -10 -119zM690 1198q129 0 184 46.5t75 167.5q5 35 5 57q0 82 -49.5 113t-150.5 31q-73 0 -185 -14q-9 -37 -20 -107q-11 -77 -11 -121q0 -81 34 -127t118 -46z" />
    <glyph glyph-name="seven.numerator" horiz-adv-x="1053" 
d="M1229 2100l-676 -1128h-342l701 1098h-627l41 258h787q84 0 124 -36.5t30 -100.5q-5 -37 -38 -91z" />
    <glyph glyph-name="eight.numerator" horiz-adv-x="1214" 
d="M660 957q-106 0 -186.5 15.5t-142.5 50.5t-94.5 96.5t-32.5 148.5q0 44 7 87q18 112 77 183t171 135q-68 45 -101.5 101.5t-33.5 139.5q0 39 7 80q55 348 547 348q444 0 444 -282q0 -31 -6 -66q-18 -116 -65.5 -185.5t-162.5 -131.5q74 -51 112 -110.5t38 -143.5
q0 -31 -6 -67q-15 -96 -53 -167.5t-89.5 -115t-123 -70.5t-144 -36.5t-162.5 -9.5zM510 1322q0 -72 48.5 -99t139.5 -27q98 0 158.5 35.5t75.5 129.5q5 32 5 53q0 66 -50.5 97t-186.5 46q-162 -35 -187 -196q-3 -21 -3 -39zM1022 1961q3 20 3 35q0 66 -47 89.5t-136 23.5
q-97 0 -153.5 -30t-70.5 -118q-4 -28 -4 -39q0 -59 50 -91.5t181 -40.5q83 22 124 59t53 112z" />
    <glyph glyph-name="nine.numerator" horiz-adv-x="1215" 
d="M282 1891q17 108 54.5 188t89.5 131t124.5 82t151 43t178.5 12q231 0 327.5 -93.5t96.5 -278.5q0 -81 -18 -197q-26 -162 -56.5 -277t-78 -210t-109.5 -155t-152 -101t-204 -57.5t-268 -16.5q-29 0 -180 4l14 235q31 2 87 2.5t98 1t98.5 5.5t100 14t91 28.5t82 47
t63 70.5t43.5 99q-120 -14 -204 -14q-107 0 -183.5 14.5t-136.5 49.5t-89.5 98.5t-29.5 156.5q0 57 10 118zM846 2102q-129 0 -184.5 -46.5t-74.5 -167.5q-5 -35 -5 -57q0 -83 49.5 -114t150.5 -31q80 0 185 15q13 60 20 106q12 72 12 122q0 81 -34.5 127t-118.5 46z" />
    <glyph glyph-name="zero.denominator" horiz-adv-x="1247" 
d="M248 388q0 109 28 292q23 148 52 252t75.5 192t112 140t159 80.5t219.5 28.5q234 0 330.5 -96t96.5 -304q0 -120 -28 -293q-23 -147 -52 -251t-75.5 -192t-112 -140t-159 -80.5t-219.5 -28.5q-234 0 -330.5 96t-96.5 304zM585 680q-30 -195 -30 -266q0 -91 35 -136
t121 -45q36 0 65.5 7.5t53 25t41.5 37t33 53.5t25.5 63.5t21 77.5t17 85.5t16.5 97.5q31 202 31 267q0 91 -35 136.5t-120 45.5q-36 0 -66 -7.5t-53.5 -25t-42 -37.5t-33.5 -54t-25.5 -64t-21 -78t-17.5 -86t-16 -97z" />
    <glyph glyph-name="one.denominator" horiz-adv-x="792" 
d="M386 3l167 1054q-120 -27 -293 -47l24 241q209 30 386 108h235l-215 -1356h-304z" />
    <glyph glyph-name="two.denominator" horiz-adv-x="1150" 
d="M367 1322q260 49 459 49q98 0 174 -14t136.5 -45.5t93 -88t32.5 -136.5q0 -34 -6 -73q-29 -183 -146 -305t-329 -202q-125 -48 -177.5 -101t-81.5 -147h614l-41 -259h-960q44 132 68 199t61.5 152.5t70 129.5t83 95.5t112 86.5t146.5 69q132 54 191.5 104.5t73.5 134.5
q3 21 3 38q0 66 -58.5 88t-211.5 22q-119 0 -315 -32z" />
    <glyph glyph-name="three.denominator" horiz-adv-x="1132" 
d="M1229 1016q-15 -96 -70 -173t-146 -126q148 -71 148 -225q0 -37 -5 -66q-16 -99 -52 -174.5t-87 -125t-122.5 -81t-152.5 -44.5t-183 -13q-176 0 -419 49l69 236q230 -32 341 -32q141 0 205 34.5t80 140.5q4 21 4 45q0 102 -99 114q-104 14 -269 14h-42l35 224
q158 4 316 26q113 17 133 148q3 18 3 33q0 27 -10 46.5t-25.5 31t-42 17.5t-52.5 8t-63 2q-119 0 -373 -33l6 233q258 48 428 48q78 0 139.5 -6.5t122 -25t100.5 -49.5t64.5 -82t24.5 -119q0 -35 -6 -75z" />
    <glyph glyph-name="four.denominator" horiz-adv-x="1196" 
d="M717 0l47 300h-416q-94 0 -133.5 30.5t-39.5 87.5q0 16 3 36q13 87 131 214l527 573q69 75 123 102.5t120 27.5q60 0 96 -34t36 -99q0 -18 -3 -39l-105 -663h159l-37 -236h-159l-48 -300h-301zM867 942l-362 -406h297z" />
    <glyph glyph-name="five.denominator" horiz-adv-x="1147" 
d="M615 870q12 0 32.5 0.5t28.5 0.5q95 0 164.5 -6.5t136.5 -27t108.5 -55.5t67 -93.5t25.5 -139.5q0 -49 -9 -109q-37 -236 -183 -342.5t-402 -106.5q-219 0 -433 50l68 236q223 -33 345 -33q77 0 122 7.5t82 30.5t56 66t31 115q3 17 3 31q0 44 -22.5 73t-66 43t-88.5 18.5
t-108 4.5q-143 0 -298 -8l166 736h844l-41 -257h-576z" />
    <glyph glyph-name="six.denominator" horiz-adv-x="1216" 
d="M1254 439q-17 -108 -54.5 -188t-89.5 -131t-124.5 -82t-151 -43t-178.5 -12q-232 0 -328.5 94t-96.5 280q0 80 18 195q26 162 56.5 277t78 210t109.5 155t152.5 100.5t204.5 57.5t268 17q10 0 180 -3l-14 -236q-31 -2 -86.5 -2.5t-97.5 -1t-99 -5.5t-100 -14t-91 -28.5
t-82.5 -47t-63 -70.5t-43.5 -99q120 14 204 14q107 0 183.5 -14.5t136.5 -49.5t89.5 -98t29.5 -156q0 -56 -10 -119zM690 229q129 0 184 46.5t75 167.5q5 35 5 57q0 82 -49.5 113t-150.5 31q-73 0 -185 -14q-9 -37 -20 -107q-11 -77 -11 -121q0 -81 34 -127t118 -46z" />
    <glyph glyph-name="seven.denominator" horiz-adv-x="1053" 
d="M1229 1131l-676 -1128h-342l701 1098h-627l41 258h787q84 0 124 -36.5t30 -100.5q-5 -37 -38 -91z" />
    <glyph glyph-name="eight.denominator" horiz-adv-x="1214" 
d="M660 -12q-106 0 -186.5 15.5t-142.5 50.5t-94.5 96.5t-32.5 148.5q0 44 7 87q18 112 77 183t171 135q-68 45 -101.5 101.5t-33.5 139.5q0 39 7 80q55 348 547 348q444 0 444 -282q0 -31 -6 -66q-18 -116 -65.5 -185.5t-162.5 -131.5q74 -51 112 -110.5t38 -143.5
q0 -31 -6 -67q-15 -96 -53 -167.5t-89.5 -115t-123 -70.5t-144 -36.5t-162.5 -9.5zM510 353q0 -72 48.5 -99t139.5 -27q98 0 158.5 35.5t75.5 129.5q5 32 5 53q0 66 -50.5 97t-186.5 46q-162 -35 -187 -196q-3 -21 -3 -39zM1022 992q3 20 3 35q0 66 -47 89.5t-136 23.5
q-97 0 -153.5 -30t-70.5 -118q-4 -28 -4 -39q0 -59 50 -91.5t181 -40.5q83 22 124 59t53 112z" />
    <glyph glyph-name="nine.denominator" horiz-adv-x="1215" 
d="M282 922q17 108 54.5 188t89.5 131t124.5 82t151 43t178.5 12q231 0 327.5 -93.5t96.5 -278.5q0 -81 -18 -197q-26 -162 -56.5 -277t-78 -210t-109.5 -155t-152 -101t-204 -57.5t-268 -16.5q-29 0 -180 4l14 235q31 2 87 2.5t98 1t98.5 5.5t100 14t91 28.5t82 47t63 70.5
t43.5 99q-120 -14 -204 -14q-107 0 -183.5 14.5t-136.5 49.5t-89.5 98.5t-29.5 156.5q0 57 10 118zM846 1133q-129 0 -184.5 -46.5t-74.5 -167.5q-5 -35 -5 -57q0 -83 49.5 -114t150.5 -31q80 0 185 15q13 60 20 106q12 72 12 122q0 81 -34.5 127t-118.5 46z" />
    <glyph glyph-name="zero.onum" horiz-adv-x="1869" 
d="M857 -24q-146 0 -254.5 23.5t-183.5 68.5t-121.5 116t-67 160.5t-20.5 208.5q0 159 38 395q23 147 50 260.5t66 218t89 180t118 137.5t154 100t195.5 58t244.5 20q181 0 305.5 -35t199 -109t107 -178t32.5 -253q0 -160 -38 -399q-23 -146 -50 -259t-66 -217.5t-88.5 -180
t-117 -137.5t-153.5 -100t-195 -58t-244 -20zM641 603q0 -137 58.5 -204.5t206.5 -67.5q94 0 163 31t111 76.5t74 134.5t48 165.5t37 209.5q40 257 40 349q0 136 -58.5 203t-205.5 67q-53 0 -98 -9.5t-80.5 -25t-65 -43.5t-51.5 -56t-41 -73.5t-32 -84.5t-26 -99
t-21.5 -107.5t-19.5 -120.5q-39 -247 -39 -345z" />
    <glyph glyph-name="one.onum" horiz-adv-x="1164" 
d="M432 0l232 1461q-208 -49 -453 -76l36 352q317 46 579 163h333l-301 -1900h-426z" />
    <glyph glyph-name="two.onum" horiz-adv-x="1687" 
d="M371 1858q371 64 673 64q115 0 208 -11.5t175.5 -40.5t138.5 -74t88 -115t32 -162q0 -47 -9 -101q-42 -263 -212 -432t-484 -279q-104 -36 -172 -70.5t-113.5 -75.5t-71 -84t-47.5 -107h934l-59 -370h-1409q49 140 77 216.5t69.5 179t72 156.5t76.5 125t91.5 111.5
t108 88.5t135.5 83t166 70q209 78 303.5 148.5t111.5 180.5q4 21 4 45q0 93 -96 125t-347 32q-181 0 -453 -40z" />
    <glyph glyph-name="three.onum" horiz-adv-x="1692" 
d="M530 1060q224 4 470 40q100 15 153 74t70 163q4 25 4 52q0 45 -16.5 77t-42 50t-69 28t-85.5 13t-103 3q-200 0 -557 -47l11 339q366 70 636 70q81 0 150 -5t139 -17.5t126 -33t105.5 -54t82 -77t51.5 -104.5t19 -136q0 -56 -10 -115q-51 -317 -336 -460
q117 -54 175.5 -137.5t58.5 -208.5q0 -48 -9 -103q-24 -151 -78 -265t-131 -189.5t-184 -122.5t-229 -67t-274 -20q-268 0 -625 71l101 344q347 -46 506 -46q92 0 156 6.5t121 24t93 49t60.5 81t35.5 119.5q6 36 6 67q0 166 -173 189q-162 22 -417 22h-43z" />
    <glyph glyph-name="four.onum" horiz-adv-x="1798" 
d="M928 -171l73 462h-666q-133 0 -190 44.5t-57 127.5q0 22 5 54q23 137 198 326l813 884q104 113 183 154t173 41q83 0 132.5 -49t49.5 -143q0 -34 -5 -62l-164 -1034h247l-54 -343h-247l-73 -462h-418zM1167 1331l-621 -697h510z" />
    <glyph glyph-name="five.onum" horiz-adv-x="1717" 
d="M718 1141q114 3 116 3q100 0 179.5 -5t160.5 -18.5t141 -36.5t114 -60t88 -88t53.5 -121.5t19.5 -158.5q0 -82 -14 -167q-57 -359 -276 -521t-604 -162q-323 0 -646 73l100 344q305 -48 510 -48q83 0 140 4.5t109.5 18.5t86.5 38t63 63t46.5 94t29.5 131q4 24 4 50
q0 48 -17 85t-50 61t-73 39.5t-95.5 23.5t-106.5 11t-117 3q-239 0 -438 -12l253 1115h1257l-60 -377h-888z" />
    <glyph glyph-name="six.onum" horiz-adv-x="1821" 
d="M1718 669q-26 -164 -82.5 -285.5t-134 -199t-186.5 -124.5t-227 -65.5t-267 -18.5q-143 0 -251 25.5t-181 71.5t-118.5 117.5t-65 157.5t-19.5 196q0 127 27 300q39 247 86 423t119.5 321.5t166 236.5t230.5 153.5t309.5 88t405.5 25.5q81 0 255 -5l-19 -343
q-47 -2 -120 -4t-127.5 -3t-126.5 -5.5t-127 -11t-119.5 -21.5t-113.5 -35.5t-99 -53t-85.5 -74.5t-64 -99.5t-43.5 -128.5q192 24 338 24q127 0 224 -13t180.5 -46t137.5 -87.5t84 -138t30 -196.5q0 -85 -16 -182zM870 332q211 0 301.5 75t120.5 268q8 53 8 89
q0 132 -81.5 182t-246.5 50q-135 0 -308 -25q-15 -64 -33 -173q-18 -115 -18 -185q0 -63 12 -111.5t40 -88t80 -60.5t125 -21z" />
    <glyph glyph-name="seven.onum" horiz-adv-x="1575" 
d="M1674 1563l-1042 -1735h-483l1083 1694h-973l60 378h1191q107 0 163.5 -44t56.5 -121q0 -18 -3 -36q-11 -67 -53 -136z" />
    <glyph glyph-name="eight.onum" horiz-adv-x="1819" 
d="M1694 691q0 -50 -9 -110q-17 -105 -51 -190.5t-80 -147.5t-108.5 -109t-130 -77t-150.5 -48.5t-164 -25.5t-176 -7q-159 0 -279 23.5t-213 77t-141.5 146.5t-48.5 225q0 58 11 133q14 92 45 164t82 130t111 103t147 93q-107 67 -159 151.5t-52 211.5q0 56 11 130
q84 528 821 528q102 0 189 -10t177 -38.5t153 -74.5t103 -123.5t40 -180.5q0 -47 -9 -101q-28 -179 -102 -286.5t-253 -201.5q78 -50 127.5 -101.5t79 -123t29.5 -160.5zM1265 589q8 50 8 85q0 106 -82 155.5t-304 73.5q-128 -29 -210 -107t-102 -207q-5 -27 -5 -62
q0 -60 22.5 -101t66 -62.5t96.5 -30.5t125 -9q77 0 137 11.5t113.5 39.5t88 81.5t46.5 132.5zM732 1451q0 -62 30 -103t115.5 -70t233.5 -37q133 36 204 96.5t89 176.5q5 33 5 55q0 56 -22 93.5t-65.5 56.5t-94 26.5t-121.5 7.5q-61 0 -107 -5t-93 -20t-79 -41t-56 -69.5
t-33 -103.5q-6 -44 -6 -63z" />
    <glyph glyph-name="nine.onum" horiz-adv-x="1823" 
d="M251 1229q26 164 82.5 285.5t134.5 199t187 124.5t227 65.5t267 18.5q177 0 301.5 -38t197 -113t104.5 -176t32 -239q0 -121 -28 -302q-29 -184 -62 -326.5t-78.5 -268.5t-100.5 -217.5t-130 -167t-165.5 -124t-209 -82.5t-257.5 -48t-314 -14q-81 0 -255 5l19 343
q47 2 120 4t127.5 3t126.5 5.5t127.5 11t120 21.5t113.5 35.5t99 53t85.5 74.5t64 99.5t43.5 128.5q-194 -24 -337 -24q-127 0 -224.5 13t-181 46.5t-137.5 87.5t-84.5 138t-30.5 197q0 85 16 181zM670 1133q0 -68 22 -114t66.5 -71.5t101 -35.5t137.5 -10q137 0 308 25
q16 62 34 173q18 115 18 185q0 132 -58 206.5t-200 74.5q-211 0 -301 -75t-120 -268q-8 -53 -8 -90z" />
    <glyph glyph-name="dollar.onum" horiz-adv-x="1560" 
d="M1024 587q4 21 4 46q0 41 -15 73.5t-36.5 54t-63 43t-76 34t-95.5 32.5q-83 27 -143 51t-119.5 56t-99 68t-71 82t-46 104.5t-14.5 129.5q0 67 11 133q44 280 198.5 418t426.5 169l45 285h300l-44 -277q246 -11 475 -64l-92 -339q-287 46 -445 46q-43 0 -72.5 -1
t-75.5 -5t-78.5 -11.5t-70 -22.5t-62.5 -36t-44.5 -53t-26.5 -73q-4 -24 -4 -50q0 -24 5 -45t11.5 -37t21.5 -31.5t26 -26t34 -22t37 -18t43 -16t44 -14t49 -14.5t49 -14q122 -36 207 -78t145.5 -101t89 -136.5t28.5 -178.5q0 -60 -13 -146q-45 -280 -202 -426.5
t-426 -184.5l-46 -289h-301l44 276q-262 7 -508 64l98 347q302 -47 528 -47q167 0 257.5 52.5t112.5 192.5z" />
    <glyph glyph-name="cent.onum" horiz-adv-x="1335" 
d="M1221 597l-15 -316q-173 -44 -354 -56l-44 -278h-283l44 279q-110 15 -187.5 60t-120 115.5t-61 153t-18.5 187.5q0 132 28 307q22 143 51.5 250t77.5 202.5t113 160t158 109.5t214 64l46 286h283l-44 -273q171 -9 333 -61l-81 -306q-198 38 -281 38q-90 0 -153 -8.5
t-111 -33t-78 -56t-53.5 -89.5t-37.5 -120.5t-30 -162.5q-28 -173 -28 -250q0 -131 73 -187t269 -56q96 0 290 41z" />
    <glyph glyph-name="Euro.onum" horiz-adv-x="1666" 
d="M1372 979l-91 -244h-493q-3 -38 -3 -71q0 -158 69 -238.5t243 -80.5q157 0 375 42l-21 -343q-223 -68 -483 -68q-169 0 -285.5 35t-189 111t-105 187.5t-32.5 271.5q0 71 6 154h-223l90 244h161l21 126h-195l93 246h152q49 197 115.5 333t166.5 229t237 136t323 43
q264 0 462 -70l-87 -341q-210 42 -363 42q-97 0 -169.5 -25.5t-122 -76.5t-81 -115.5t-55.5 -154.5h624l-92 -246h-581l-20 -126h554z" />
    <glyph glyph-name="sterling.onum" horiz-adv-x="1794" 
d="M462 885h-286l51 325h242q7 147 30 288q22 139 77.5 244.5t131 171.5t178.5 107t210 56.5t236 15.5q87 0 158 -14t120 -33.5t99.5 -59t82.5 -72.5t82 -91l-260 -264q-80 85 -153 126t-177 41q-124 0 -199.5 -32.5t-112.5 -95t-54 -167.5q-14 -82 -21 -221h437l-51 -325
h-406q-5 -56 -17 -136q-12 -75 -52 -180.5t-87 -197.5h338q277 0 522 40l-19 -345q-117 -29 -312.5 -47.5t-399.5 -18.5h-464q-96 0 -142 39t-46 102q0 15 3 31q6 35 29 79t54 91t63 101t60 128.5t41 154.5q11 71 14 159z" />
    <glyph glyph-name="yen.onum" horiz-adv-x="1726" 
d="M763 2072l218 -822l491 822h419l-562 -925h211l-43 -270h-332l-47 -77l-16 -98h367l-42 -266h-367l-69 -436h-424l69 436h-363l42 266h363l16 98l-22 77h-329l43 270h208l-266 925h435z" />
    <glyph glyph-name="zero.tnum" 
d="M891 -24q-194 0 -327.5 40t-214 124.5t-116 204.5t-35.5 290q0 194 48 495q24 152 50.5 272.5t62.5 234t80 199.5t101 161t127.5 126.5t158.5 88.5t195.5 54.5t235.5 17.5q194 0 327.5 -40t214 -124.5t115.5 -204t35 -289.5q0 -194 -48 -496q-21 -134 -44.5 -243.5
t-53.5 -214t-66 -186t-81.5 -155.5t-101 -128.5t-123.5 -99t-149.5 -71.5t-179 -41.5t-211.5 -14.5zM646 674q0 -165 66.5 -247t230.5 -82q77 0 139.5 20t107.5 51.5t82 90.5t61 114.5t46.5 148t36 166.5t32.5 194q53 335 53 457q0 165 -66.5 247t-229.5 82q-90 0 -159 -23
t-119 -78t-84 -112.5t-61.5 -161t-44 -187t-38.5 -224.5q-53 -335 -53 -456z" />
    <glyph glyph-name="one.tnum" 
d="M828 0l286 1802q-224 -55 -502 -86l38 365q341 51 630 179h354l-358 -2260h-448z" />
    <glyph glyph-name="two.tnum" 
d="M482 2207q406 77 740 77q127 0 230 -13.5t194 -46.5t152.5 -85t97 -132.5t35.5 -186.5q0 -59 -10 -120q-49 -307 -239 -507t-540 -333q-100 -38 -171 -75.5t-119.5 -75.5t-83 -88.5t-56 -100.5t-43.5 -125h1044l-62 -395h-1555q48 144 75.5 224t68 188.5t70 168t72 138.5
t83 125t94.5 102t116.5 95t138 79.5t168.5 78.5q118 48 195 89t138.5 91.5t94.5 110t45 137.5q6 37 6 70q0 121 -106.5 162.5t-383.5 41.5q-211 0 -503 -48z" />
    <glyph glyph-name="three.tnum" 
d="M1891 1699q-28 -173 -125 -303t-263 -206q137 -58 205 -149.5t68 -232.5q0 -51 -9 -111q-26 -164 -84.5 -287.5t-142.5 -205.5t-200.5 -133.5t-249 -73t-298.5 -21.5q-181 0 -336.5 20t-339.5 57l106 357q371 -50 549 -50q103 0 175 7.5t136 27.5t104.5 56t68 92
t40.5 137q7 49 7 77q0 189 -198 215q-186 25 -457 25h-40l54 337q241 6 507 44q115 17 176.5 84.5t80.5 188.5q5 28 5 61q0 51 -18.5 87.5t-47.5 57t-78 32t-96.5 15t-116.5 3.5q-211 0 -603 -50l11 351q392 76 689 76q88 0 163 -5t151.5 -19t136.5 -36t114 -58t89.5 -83
t56 -113t20.5 -147q0 -61 -10 -124z" />
    <glyph glyph-name="four.tnum" 
d="M1044 0l81 509h-745q-141 0 -201.5 47t-60.5 134q0 24 5 57q10 64 53.5 144.5t161.5 208.5l895 973q113 122 197.5 166.5t185.5 44.5q87 0 139.5 -52t52.5 -151q0 -31 -6 -66l-182 -1150h271l-56 -356h-271l-81 -509h-439zM1311 1678l-725 -813h596z" />
    <glyph glyph-name="five.tnum" 
d="M830 1423q63 4 140 4q109 0 195.5 -5.5t174.5 -20t153.5 -39t124 -65t95.5 -95t58.5 -131t21.5 -172.5q0 -86 -16 -182q-61 -389 -299 -565t-656 -176q-366 0 -699 79l104 357q343 -51 552 -51q94 0 158 5.5t123.5 20.5t98 42t70.5 71.5t52 106.5t34 149q5 33 5 57
q0 66 -29 113.5t-74.5 74.5t-117 42.5t-138.5 20t-157 4.5q-224 0 -471 -12l273 1204h1363l-62 -392h-976z" />
    <glyph glyph-name="six.tnum" 
d="M1862 728q-24 -149 -69.5 -265.5t-112.5 -198.5t-148 -138.5t-185.5 -89t-215 -46.5t-244.5 -14q-193 0 -328 41t-213.5 123t-113 191.5t-34.5 259.5q0 141 30 329q32 201 67.5 356.5t85.5 293.5t110 238t142 182.5t180.5 136t227.5 90t281 52t342 15.5q80 0 272 -5
l-21 -357q-48 -2 -126.5 -3t-138 -1t-139.5 -4.5t-142 -12t-135 -24.5t-128.5 -41t-112 -62t-96 -87t-70.5 -117.5t-45 -151.5q211 29 384 29q138 0 243 -14.5t196 -50t149.5 -94t91.5 -150t33 -213.5q0 -86 -17 -197zM938 346q162 0 258 38t146 120t74 230q9 56 9 101
q0 78 -25 131t-75.5 82t-115 40.5t-155.5 11.5q-153 0 -349 -30q-19 -69 -39 -199q-20 -131 -20 -209q0 -71 13.5 -125.5t45.5 -99t90.5 -68t142.5 -23.5z" />
    <glyph glyph-name="seven.tnum" 
d="M1966 1905l-1142 -1905h-509l1193 1866h-1077l62 394h1301q114 0 173.5 -45.5t59.5 -127.5q0 -19 -3 -38q-10 -64 -58 -144z" />
    <glyph glyph-name="eight.tnum" 
d="M892 -24q-172 0 -302.5 25.5t-231.5 83t-154 158t-53 242.5q0 67 12 145q16 101 50.5 180.5t92.5 143.5t126 113.5t166 102.5q-122 74 -182.5 169.5t-60.5 239.5q0 63 12 136q91 569 891 569q77 0 146 -5t143 -19t135.5 -36.5t117.5 -58.5t94.5 -83t61 -113.5
t22.5 -146.5q0 -50 -9 -107q-31 -200 -114.5 -316.5t-288.5 -221.5q134 -85 202 -184.5t68 -245.5q0 -57 -10 -116q-25 -157 -87 -274.5t-146 -189t-200.5 -115.5t-235 -60t-265.5 -16zM598 569q0 -68 25.5 -115t75 -72t109.5 -35.5t141 -10.5q69 0 125.5 7.5t111 28
t93.5 54t68 87.5t40 126q9 54 9 97q0 82 -38.5 131.5t-133 80t-265.5 48.5q-309 -63 -355 -357q-6 -37 -6 -70zM1540 1658q5 29 5 64q0 52 -17.5 90t-46.5 61t-74.5 37t-93 18.5t-111.5 4.5q-69 0 -121 -5.5t-105 -23t-89.5 -47t-64 -80t-38.5 -119.5q-6 -38 -6 -72
q0 -53 18.5 -91t65 -70t132 -51.5t212.5 -26.5q157 40 235 107t99 204z" />
    <glyph glyph-name="nine.tnum" 
d="M283 1532q24 149 69.5 265.5t112.5 198.5t148 138.5t185.5 89t215 46.5t244.5 14q193 0 328 -41t213.5 -123t113 -191.5t34.5 -259.5q0 -141 -30 -329q-32 -201 -67.5 -356.5t-85.5 -293.5t-110 -238t-142 -182.5t-180.5 -136t-227.5 -90t-281 -52t-342 -15.5
q-80 0 -272 5l21 357q48 2 126.5 3t138 1t139.5 4.5t142 12t135 24.5t128.5 41t112 62t96 87t70.5 117.5t45 151.5q-209 -29 -383 -29q-138 0 -243.5 14.5t-196.5 50t-149.5 94t-91.5 150t-33 213.5q0 86 17 197zM721 1425q0 -78 25 -131t75 -82t114.5 -40.5t155.5 -11.5
q152 0 350 30q18 69 38 199q20 120 20 210q0 71 -13.5 125t-45.5 98.5t-90.5 68t-142.5 23.5q-122 0 -204 -19.5t-138 -67t-87 -119t-48 -182.5q-9 -56 -9 -101z" />
    <glyph glyph-name="dollar.tnum" 
d="M1263 638q4 25 4 54q0 47 -16 84.5t-43.5 63t-67 46t-85 37.5t-97.5 34q-7 2 -11 3q-110 36 -184.5 67.5t-146.5 77t-113.5 97.5t-66.5 125.5t-25 165.5q0 66 12 144q32 206 122.5 341.5t228 204t334.5 90.5l50 313h309l-48 -304q268 -11 522 -69l-96 -352
q-298 49 -480 49q-49 0 -82.5 -1t-85.5 -6t-88.5 -13.5t-79.5 -26t-71.5 -41.5t-51 -61t-29.5 -84q-5 -29 -5 -63t8 -62t21.5 -49.5t36 -39t47.5 -31t60.5 -26.5t70.5 -24t81 -24q23 -7 35 -10q134 -39 226.5 -84t157.5 -108t95.5 -146t30.5 -192q0 -71 -14 -164
q-48 -305 -220.5 -464t-468.5 -199l-50 -317h-309l47 303q-283 7 -557 69l101 362q322 -51 572 -51q74 0 130.5 7.5t107.5 26t86 50t60 81t36 116.5z" />
    <glyph glyph-name="cent.tnum" 
d="M1583 635l-16 -326q-192 -47 -388 -60l-48 -306h-290l48 307q-98 12 -172.5 47t-122.5 85.5t-78 119.5t-42.5 144t-12.5 166q0 136 31 334q25 157 57 273.5t84 221t123.5 175t174 119t236.5 68.5l50 314h290l-48 -301q191 -7 365 -65l-83 -316q-203 41 -300 41
q-76 0 -134 -5.5t-106 -20t-82.5 -33.5t-63 -52.5t-48 -70t-36 -93t-28.5 -114.5t-25 -141q-31 -191 -31 -280q0 -99 33 -156t117.5 -87t235.5 -30q102 0 310 42z" />
    <glyph glyph-name="Euro.tnum" 
d="M1561 1058l-90 -247h-547q-4 -62 -4 -90q0 -87 16.5 -150.5t56 -112.5t109 -73.5t170.5 -24.5q182 0 404 44l-22 -356q-235 -72 -520 -72q-183 0 -309.5 38.5t-205.5 120.5t-114.5 203.5t-35.5 294.5q0 77 8 178h-241l91 247h179q2 18 11 72l15 90h-211l92 248h170
q53 217 125.5 366.5t181.5 252.5t258 150t352 47q284 0 496 -74l-90 -354q-212 44 -391 44q-89 0 -160 -20.5t-121.5 -56t-90 -91t-65.5 -118.5t-47 -146h684l-93 -248h-641l-26 -162h606z" />
    <glyph glyph-name="sterling.tnum" 
d="M522 975h-316l53 336h269q7 164 33 329q20 126 64 226.5t109.5 170t144 118.5t176 77t196.5 40t214 12q68 0 126.5 -7.5t103.5 -19t88.5 -33.5t74 -42t67.5 -54.5t61 -60.5t63 -71l-270 -274q-86 92 -166 136t-196 44q-141 0 -227 -37.5t-128 -108.5t-61 -191
q-16 -102 -23 -254h479l-53 -336h-448q-7 -76 -21 -161q-13 -85 -59 -205.5t-98 -222.5h386q295 0 564 42l-18 -358q-124 -31 -335.5 -50.5t-436.5 -19.5h-511q-100 0 -149 40.5t-49 106.5q0 15 3 32q6 37 31.5 84.5t60 99t70 111.5t66.5 142.5t45 171.5q11 72 17 187z" />
    <glyph glyph-name="yen.tnum" 
d="M864 2260l245 -922l550 922h438l-619 -1019h238l-43 -275h-362l-57 -94l-19 -121h404l-43 -271h-404l-76 -480h-446l76 480h-400l43 271h400l19 122l-27 93h-357l42 275h236l-293 1019h455z" />
    <glyph glyph-name="period.tnum" horiz-adv-x="985" 
d="M775 323q0 -37 -8 -91q-23 -146 -86 -201t-211 -55q-123 0 -173.5 36.5t-50.5 127.5q0 36 8 92q23 146 86.5 201t210.5 55q122 0 173 -37t51 -128z" />
    <glyph glyph-name="comma.tnum" horiz-adv-x="985" 
d="M57 -433l345 888h483l-473 -888h-355z" />
    <glyph glyph-name="colon.tnum" horiz-adv-x="985" 
d="M200 140q0 36 8 92q23 146 86.5 201t210.5 55q123 0 174 -37t51 -128q0 -37 -8 -91q-23 -146 -86 -201t-212 -55q-123 0 -173.5 36.5t-50.5 127.5zM609 1143q-123 0 -174 36t-51 126q0 41 9 94q23 146 86.5 201t210.5 55q123 0 173.5 -36.5t50.5 -127.5q0 -45 -8 -92
q-23 -146 -86 -201t-211 -55z" />
    <glyph glyph-name="semicolon.tnum" horiz-adv-x="985" 
d="M709 1143q-123 0 -174 36t-51 126q0 41 9 94q23 146 86.5 201t210.5 55q123 0 173.5 -36.5t50.5 -127.5q0 -45 -8 -92q-23 -146 -86 -201t-211 -55zM6 -433l344 888h483l-473 -888h-354z" />
    <glyph glyph-name="zero.onum_tnum" horiz-adv-x="1810" 
d="M827 -24q-146 0 -254.5 23.5t-183.5 68.5t-121.5 116t-67 160.5t-20.5 208.5q0 159 38 395q23 147 50 260.5t66 218t89 180t118 137.5t154 100t195.5 58t244.5 20q181 0 305.5 -35t199 -109t107 -178t32.5 -253q0 -160 -38 -399q-23 -146 -50 -259t-66 -217.5t-88.5 -180
t-117 -137.5t-153.5 -100t-195 -58t-244 -20zM611 603q0 -137 58.5 -204.5t206.5 -67.5q94 0 163 31t111 76.5t74 134.5t48 165.5t37 209.5q40 257 40 349q0 136 -58.5 203t-205.5 67q-53 0 -98 -9.5t-80.5 -25t-65 -43.5t-51.5 -56t-41 -73.5t-32 -84.5t-26 -99
t-21.5 -107.5t-19.5 -120.5q-39 -247 -39 -345z" />
    <glyph glyph-name="one.onum_tnum" horiz-adv-x="1810" 
d="M755 0l232 1461q-208 -49 -453 -76l36 352q317 46 579 163h333l-301 -1900h-426z" />
    <glyph glyph-name="two.onum_tnum" horiz-adv-x="1810" 
d="M433 1858q371 64 673 64q115 0 208 -11.5t175.5 -40.5t138.5 -74t88 -115t32 -162q0 -47 -9 -101q-42 -263 -212 -432t-484 -279q-104 -36 -172 -70.5t-113.5 -75.5t-71 -84t-47.5 -107h934l-59 -370h-1409q49 140 77 216.5t69.5 179t72 156.5t76.5 125t91.5 111.5
t108 88.5t135.5 83t166 70q209 78 303.5 148.5t111.5 180.5q4 21 4 45q0 93 -96 125t-347 32q-181 0 -453 -40z" />
    <glyph glyph-name="three.onum_tnum" horiz-adv-x="1810" 
d="M589 1060q224 4 470 40q100 15 153 74t70 163q4 25 4 52q0 45 -16.5 77t-42 50t-69 28t-85.5 13t-103 3q-200 0 -557 -47l11 339q366 70 636 70q81 0 150 -5t139 -17.5t126 -33t105.5 -54t82 -77t51.5 -104.5t19 -136q0 -56 -10 -115q-51 -317 -336 -460
q117 -54 175.5 -137.5t58.5 -208.5q0 -48 -9 -103q-24 -151 -78 -265t-131 -189.5t-184 -122.5t-229 -67t-274 -20q-268 0 -625 71l101 344q347 -46 506 -46q92 0 156 6.5t121 24t93 49t60.5 81t35.5 119.5q6 36 6 67q0 166 -173 189q-162 22 -417 22h-43z" />
    <glyph glyph-name="four.onum_tnum" horiz-adv-x="1810" 
d="M934 -171l73 462h-666q-133 0 -190 44.5t-57 127.5q0 22 5 54q23 137 198 326l813 884q104 113 183 154t173 41q83 0 132.5 -49t49.5 -143q0 -34 -5 -62l-164 -1034h247l-54 -343h-247l-73 -462h-418zM1173 1331l-621 -697h510z" />
    <glyph glyph-name="five.onum_tnum" horiz-adv-x="1810" 
d="M765 1141q114 3 116 3q100 0 179.5 -5t160.5 -18.5t141 -36.5t114 -60t88 -88t53.5 -121.5t19.5 -158.5q0 -82 -14 -167q-57 -359 -276 -521t-604 -162q-323 0 -646 73l100 344q305 -48 510 -48q83 0 140 4.5t109.5 18.5t86.5 38t63 63t46.5 94t29.5 131q4 24 4 50
q0 48 -17 85t-50 61t-73 39.5t-95.5 23.5t-106.5 11t-117 3q-239 0 -438 -12l253 1115h1257l-60 -377h-888z" />
    <glyph glyph-name="six.onum_tnum" horiz-adv-x="1810" 
d="M1712 669q-26 -164 -82.5 -285.5t-134 -199t-186.5 -124.5t-227 -65.5t-267 -18.5q-143 0 -251 25.5t-181 71.5t-118.5 117.5t-65 157.5t-19.5 196q0 127 27 300q39 247 86 423t119.5 321.5t166 236.5t230.5 153.5t309.5 88t405.5 25.5q81 0 255 -5l-19 -343
q-47 -2 -120 -4t-127.5 -3t-126.5 -5.5t-127 -11t-119.5 -21.5t-113.5 -35.5t-99 -53t-85.5 -74.5t-64 -99.5t-43.5 -128.5q192 24 338 24q127 0 224 -13t180.5 -46t137.5 -87.5t84 -138t30 -196.5q0 -85 -16 -182zM864 332q211 0 301.5 75t120.5 268q8 53 8 89
q0 132 -81.5 182t-246.5 50q-135 0 -308 -25q-15 -64 -33 -173q-18 -115 -18 -185q0 -63 12 -111.5t40 -88t80 -60.5t125 -21z" />
    <glyph glyph-name="seven.onum_tnum" horiz-adv-x="1810" 
d="M1792 1563l-1042 -1735h-483l1083 1694h-973l60 378h1191q107 0 163.5 -44t56.5 -121q0 -18 -3 -36q-11 -67 -53 -136z" />
    <glyph glyph-name="eight.onum_tnum" horiz-adv-x="1810" 
d="M1689 691q0 -50 -9 -110q-17 -105 -51 -190.5t-80 -147.5t-108.5 -109t-130 -77t-150.5 -48.5t-164 -25.5t-176 -7q-159 0 -279 23.5t-213 77t-141.5 146.5t-48.5 225q0 58 11 133q14 92 45 164t82 130t111 103t147 93q-107 67 -159 151.5t-52 211.5q0 56 11 130
q84 528 821 528q102 0 189 -10t177 -38.5t153 -74.5t103 -123.5t40 -180.5q0 -47 -9 -101q-28 -179 -102 -286.5t-253 -201.5q78 -50 127.5 -101.5t79 -123t29.5 -160.5zM1260 589q8 50 8 85q0 106 -82 155.5t-304 73.5q-128 -29 -210 -107t-102 -207q-5 -27 -5 -62
q0 -60 22.5 -101t66 -62.5t96.5 -30.5t125 -9q77 0 137 11.5t113.5 39.5t88 81.5t46.5 132.5zM727 1451q0 -62 30 -103t115.5 -70t233.5 -37q133 36 204 96.5t89 176.5q5 33 5 55q0 56 -22 93.5t-65.5 56.5t-94 26.5t-121.5 7.5q-61 0 -107 -5t-93 -20t-79 -41t-56 -69.5
t-33 -103.5q-6 -44 -6 -63z" />
    <glyph glyph-name="nine.onum_tnum" horiz-adv-x="1810" 
d="M244 1229q26 164 82.5 285.5t134.5 199t187 124.5t227 65.5t267 18.5q177 0 301.5 -38t197 -113t104.5 -176t32 -239q0 -121 -28 -302q-29 -184 -62 -326.5t-78.5 -268.5t-100.5 -217.5t-130 -167t-165.5 -124t-209 -82.5t-257.5 -48t-314 -14q-81 0 -255 5l19 343
q47 2 120 4t127.5 3t126.5 5.5t127.5 11t120 21.5t113.5 35.5t99 53t85.5 74.5t64 99.5t43.5 128.5q-194 -24 -337 -24q-127 0 -224.5 13t-181 46.5t-137.5 87.5t-84.5 138t-30.5 197q0 85 16 181zM663 1133q0 -68 22 -114t66.5 -71.5t101 -35.5t137.5 -10q137 0 308 25
q16 62 34 173q18 115 18 185q0 132 -58 206.5t-200 74.5q-211 0 -301 -75t-120 -268q-8 -53 -8 -90z" />
    <glyph glyph-name="dollar.onum_tnum" horiz-adv-x="1810" 
d="M1149 587q4 21 4 46q0 41 -15 73.5t-36.5 54t-63 43t-76 34t-95.5 32.5q-83 27 -143 51t-119.5 56t-99 68t-71 82t-46 104.5t-14.5 129.5q0 67 11 133q44 280 198.5 418t426.5 169l45 285h300l-44 -277q246 -11 475 -64l-92 -339q-287 46 -445 46q-43 0 -72.5 -1
t-75.5 -5t-78.5 -11.5t-70 -22.5t-62.5 -36t-44.5 -53t-26.5 -73q-4 -24 -4 -50q0 -24 5 -45t11.5 -37t21.5 -31.5t26 -26t34 -22t37 -18t43 -16t44 -14t49 -14.5t49 -14q122 -36 207 -78t145.5 -101t89 -136.5t28.5 -178.5q0 -60 -13 -146q-45 -280 -202 -426.5
t-426 -184.5l-46 -289h-301l44 276q-262 7 -508 64l98 347q302 -47 528 -47q167 0 257.5 52.5t112.5 192.5z" />
    <glyph glyph-name="cent.onum_tnum" horiz-adv-x="1810" 
d="M1459 597l-15 -316q-173 -44 -354 -56l-44 -278h-283l44 279q-110 15 -187.5 60t-120 115.5t-61 153t-18.5 187.5q0 132 28 307q22 143 51.5 250t77.5 202.5t113 160t158 109.5t214 64l46 286h283l-44 -273q171 -9 333 -61l-81 -306q-198 38 -281 38q-90 0 -153 -8.5
t-111 -33t-78 -56t-53.5 -89.5t-37.5 -120.5t-30 -162.5q-28 -173 -28 -250q0 -131 73 -187t269 -56q96 0 290 41z" />
    <glyph glyph-name="Euro.onum_tnum" horiz-adv-x="1810" 
d="M1444 979l-91 -244h-493q-3 -38 -3 -71q0 -158 69 -238.5t243 -80.5q157 0 375 42l-21 -343q-223 -68 -483 -68q-169 0 -285.5 35t-189 111t-105 187.5t-32.5 271.5q0 71 6 154h-223l90 244h161l21 126h-195l93 246h152q49 197 115.5 333t166.5 229t237 136t323 43
q264 0 462 -70l-87 -341q-210 42 -363 42q-97 0 -169.5 -25.5t-122 -76.5t-81 -115.5t-55.5 -154.5h624l-92 -246h-581l-20 -126h554z" />
    <glyph glyph-name="sterling.onum_tnum" horiz-adv-x="1810" 
d="M470 885h-286l51 325h242q7 147 30 288q22 139 77.5 244.5t131 171.5t178.5 107t210 56.5t236 15.5q87 0 158 -14t120 -33.5t99.5 -59t82.5 -72.5t82 -91l-260 -264q-80 85 -153 126t-177 41q-124 0 -199.5 -32.5t-112.5 -95t-54 -167.5q-14 -82 -21 -221h437l-51 -325
h-406q-5 -56 -17 -136q-12 -75 -52 -180.5t-87 -197.5h338q277 0 522 40l-19 -345q-117 -29 -312.5 -47.5t-399.5 -18.5h-464q-96 0 -142 39t-46 102q0 15 3 31q6 35 29 79t54 91t63 101t60 128.5t41 154.5q11 71 14 159z" />
    <glyph glyph-name="yen.onum_tnum" horiz-adv-x="1810" 
d="M805 2072l218 -822l491 822h419l-562 -925h211l-43 -270h-332l-47 -77l-16 -98h367l-42 -266h-367l-69 -436h-424l69 436h-363l42 266h363l16 98l-22 77h-329l43 270h208l-266 925h435z" />
    <glyph glyph-name="parenleft.case" horiz-adv-x="1058" 
d="M825 -132l-281 -210q-363 355 -363 1009q0 219 43 494q28 178 68.5 337t106 326.5t150 311t205 281t266.5 246.5l215 -209q-103 -89 -190.5 -215t-146.5 -255.5t-107.5 -282t-76.5 -279t-49 -261.5q-49 -309 -49 -547q0 -505 209 -746z" />
    <glyph glyph-name="parenright.case" horiz-adv-x="1058" 
d="M379 2454l281 209q363 -354 363 -1008q0 -230 -43 -494q-28 -178 -68.5 -337t-106 -326.5t-150 -311.5t-205 -281.5t-266.5 -246.5l-213 210q420 356 569 1293q46 294 46 534q0 514 -207 759z" />
    <glyph glyph-name="bracketleft.case" horiz-adv-x="1069" 
d="M905 2301l-359 -2268h317l-54 -344h-723l467 2952h725l-54 -340h-319z" />
    <glyph glyph-name="bracketright.case" horiz-adv-x="1069" 
d="M351 2301l54 340h725l-467 -2952h-722l54 344h316l359 2268h-319z" />
    <glyph glyph-name="braceleft.case" horiz-adv-x="1078" 
d="M714 585l-26 -167q-18 -110 -18 -171q0 -100 48.5 -157.5t172.5 -73.5l-85 -307q-111 9 -191 26t-148.5 49.5t-110.5 82t-65 123.5t-23 174q0 90 18 207q40 249 40 383q0 131 -40.5 190.5t-134.5 69.5l49 305q61 6 105.5 31.5t78.5 70.5t61 124t48 175.5t44 241.5
q24 152 67.5 261.5t102 181.5t145.5 117.5t183.5 67.5t231.5 33l-12 -306q-54 -7 -98 -22.5t-75 -34.5t-55 -50.5t-39 -59t-28 -72t-19.5 -78t-15.5 -86.5l-27 -167q-33 -204 -62 -291q-73 -226 -236 -291q139 -76 139 -322q0 -91 -25 -258z" />
    <glyph glyph-name="braceright.case" horiz-adv-x="1079" 
d="M510 1747l27 167q18 112 18 172q0 100 -48.5 157.5t-172.5 73.5l85 306q111 -9 191 -26t148.5 -49.5t110.5 -82t65 -124t23 -174.5q0 -89 -18 -205q-40 -258 -40 -382q0 -131 40.5 -191.5t134.5 -69.5l-48 -305q-61 -6 -106 -31.5t-79 -70.5t-61 -123.5t-48 -175.5
t-44 -242q-20 -127 -52 -224t-79.5 -167.5t-104.5 -118.5t-135 -79t-162 -47.5t-196 -25.5l12 307q54 7 98 22t75 34.5t55.5 50.5t39.5 59.5t27.5 72t19 77.5t14.5 86l26 167q12 76 23.5 132t35.5 132t53.5 131t77.5 106t108 79q-145 67 -145 297q0 88 31 285z" />
    <glyph glyph-name="questiondown.case" horiz-adv-x="1734" 
d="M949 1636h382l-27 -219q-4 -41 -11 -81q-15 -93 -46.5 -158t-73.5 -99.5t-92 -55t-104 -30t-107.5 -18.5t-103.5 -27t-91.5 -48.5t-72 -89.5t-44.5 -144q-8 -54 -8 -92q0 -121 86 -168t303 -47q292 0 554 51l20 -367q-337 -79 -690 -79q-104 0 -184.5 5t-162 19
t-141.5 37.5t-113.5 62t-86.5 91.5t-52 126.5t-19 166.5q0 85 17 196q20 128 59.5 227.5t89.5 160.5t109 105t121 67t122.5 39.5t116 29.5t99.5 30t74.5 48t39.5 77zM1251 2342q122 0 173 -37.5t51 -127.5q0 -35 -8 -86q-22 -140 -86.5 -195.5t-208.5 -55.5
q-121 0 -172.5 38t-51.5 129q0 41 7 84q22 140 86 195.5t210 55.5z" />
    <glyph glyph-name="exclamdown.case" horiz-adv-x="936" 
d="M623 1840q-122 0 -173.5 38t-51.5 129q0 34 8 84q22 140 86 195.5t210 55.5q121 0 172.5 -38t51.5 -128q0 -34 -8 -85q-22 -140 -86.5 -195.5t-208.5 -55.5zM74 -12l329 1648h375l-193 -1648h-511z" />
    <glyph glyph-name="at.case" horiz-adv-x="2911" 
d="M1343 -24q-281 0 -491.5 51.5t-358 159t-221.5 278.5t-74 406q0 138 25 294q41 258 130 456.5t220 336.5t310.5 227t392.5 129t475 40q97 0 179 -13.5t155 -46t123.5 -82t79.5 -126t29 -173.5q0 -55 -11 -126l-111 -693q-27 -170 -67 -331q-121 -72 -312.5 -115.5
t-400.5 -43.5q-305 0 -445.5 105t-140.5 318q0 65 12 138q38 242 172 379.5t392 184.5q141 26 511 46q8 53 8 89q0 93 -54.5 130.5t-184.5 37.5q-182 0 -326 -25.5t-270 -87t-217 -160t-156 -247.5t-96 -347q-21 -131 -21 -238q0 -174 52.5 -296.5t158 -195t248 -104.5
t336.5 -32q179 0 322 26.5t267 88.5t213.5 161t153 246.5t94.5 343.5q20 123 20 237q0 61 -6 114l393 111q12 -81 12 -174q0 -127 -25 -288q-50 -313 -171 -541t-312 -370.5t-441.5 -210t-570.5 -67.5zM1825 1195l50 314q-243 -7 -364 -41q-72 -20 -115 -39t-78.5 -52
t-54.5 -81t-31 -122q-6 -39 -6 -72q0 -111 71.5 -152.5t222.5 -41.5q51 0 133 16.5t125 40.5q28 106 47 230z" />
    <glyph glyph-name="guilsinglleft.case" horiz-adv-x="1092" 
d="M601 1165l325 -690h-405l-369 690l587 690h405z" />
    <glyph glyph-name="guilsinglright.case" horiz-adv-x="1093" 
d="M1077 1165l-588 -690h-405l544 690l-325 690h404z" />
    <glyph glyph-name="guillemotleft.case" horiz-adv-x="1843" 
d="M601 1165l326 -690h-406l-369 690l587 690h406zM1352 1165l325 -690h-405l-370 690l588 690h405z" />
    <glyph glyph-name="guillemotright.case" horiz-adv-x="1843" 
d="M1077 1165l-589 -690h-404l543 690l-325 690h405zM1828 1165l-589 -690h-406l545 690l-326 690h406z" />
    <glyph glyph-name="hyphen.case" horiz-adv-x="1273" 
d="M246 987l57 356h862l-57 -356h-862z" />
    <glyph glyph-name="endash.case" horiz-adv-x="1985" 
d="M246 996l53 337h1575l-53 -337h-1575z" />
    <glyph glyph-name="emdash.case" horiz-adv-x="3506" 
d="M246 996l53 337h3096l-53 -337h-3096z" />
    <glyph glyph-name="periodcentered.case" horiz-adv-x="908" 
d="M489 909q-123 0 -174 36t-51 126q0 41 9 94q23 146 86.5 201t210.5 55q123 0 173.5 -36.5t50.5 -127.5q0 -45 -8 -92q-23 -146 -86 -201t-211 -55z" />
    </font>
</defs>
</svg>
