<?xml version="1.0" standalone="no"?>
<!DOCTYPE svg PUBLIC "-//W3C//DTD SVG 1.1//EN" "http://www.w3.org/Graphics/SVG/1.1/DTD/svg11.dtd" >
<svg xmlns="http://www.w3.org/2000/svg" xmlns:xlink="http://www.w3.org/1999/xlink" version="1.1">
<metadata>
Created by FontForge 20170731 at Wed Feb 22 19:30:32 2012
 By Aleksey,,,
Copyright (c) 2011-2012 Durotype, www.durotype.com. All rights reserved.
</metadata>
<defs>
<font id="Flexo-It" horiz-adv-x="1970" >
  <font-face 
    font-family="Flexo"
    font-weight="400"
    font-style="italic"
    font-stretch="normal"
    units-per-em="3333"
    panose-1="0 0 0 0 0 0 0 0 0 0"
    ascent="2633"
    descent="-700"
    x-height="1781"
    cap-height="2330"
    bbox="-615 -852 3969 3182"
    underline-thickness="167"
    underline-position="-894"
    slope="-9"
    unicode-range="U+0020-FB04"
  />
<missing-glyph horiz-adv-x="2168" 
d="M253 0v2400h1663v-2400h-1663zM985 1200l-565 874v-1748zM1650 171l-565 875l-566 -875h1131zM1650 2228h-1131l566 -874zM1750 2074l-565 -874l565 -874v1748z" />
    <glyph glyph-name="f_f" unicode="ff" horiz-adv-x="2150" 
d="M270 1781h311l30 191q40 255 188 388t398 133q79 0 147 -12l-47 -180h-84q-312 0 -363 -319l-32 -201h806l31 191q42 255 189.5 388t396.5 133q79 0 147 -12l-48 -180h-83q-314 0 -364 -319l-31 -201h393l-31 -192h-393l-251 -1589h-238l252 1589h-806l-252 -1589h-237
l252 1589h-311z" />
    <glyph glyph-name="fi" unicode="fi" horiz-adv-x="1896" 
d="M1553 0h-239l251 1589h-777l-252 -1589h-237l252 1589h-311l31 192h310l30 191q40 255 188.5 388t397.5 133q79 0 147 -12l-47 -180h-83q-313 0 -364 -319l-32 -201h1017zM1771 2139q-67 0 -94.5 23.5t-27.5 79.5q0 23 7 72q16 100 52.5 139.5t118.5 39.5q67 0 95 -24.5
t28 -82.5q0 -23 -7 -72q-15 -99 -51 -137t-121 -38z" />
    <glyph glyph-name="fl" unicode="fl" horiz-adv-x="1902" 
d="M581 1781l30 191q41 255 189 388t398 133q337 0 731 -24l-315 -1991q-13 -79 -13 -152q0 -168 81 -299l-219 -106q-106 151 -106 359q0 75 16 181l291 1840h-450q-313 0 -364 -319l-32 -201h393l-30 -192h-393l-252 -1589h-237l251 1589h-310l30 192h311z" />
    <glyph glyph-name="f_f_i" unicode="ffi" horiz-adv-x="2940" 
d="M581 1781l30 191q40 255 188.5 388t398.5 133q78 0 147 -12l-48 -180h-83q-312 0 -363 -319l-32 -201h806l30 191q40 255 188 388t398 133q81 0 147 -12l-47 -180h-83q-313 0 -364 -319l-32 -201h1016l-282 -1781h-238l251 1589h-777l-252 -1589h-237l252 1589h-806
l-252 -1589h-238l252 1589h-311l31 192h310zM2815 2139q-67 0 -94.5 23.5t-27.5 79.5q0 23 7 72q16 100 53 139.5t119 39.5q66 0 94 -24.5t28 -82.5q0 -23 -7 -72q-15 -99 -51.5 -137t-120.5 -38z" />
    <glyph glyph-name="f_f_l" unicode="ffl" horiz-adv-x="2945" 
d="M1893 1982l-31 -201h392l-30 -192h-393l-251 -1589h-238l252 1589h-806l-252 -1589h-237l252 1589h-311l30 192h311l30 191q41 255 188.5 388t397.5 133q79 0 147 -12l-47 -180h-84q-312 0 -363 -319l-32 -201h806l31 191q41 255 188.5 388t397.5 133q339 0 731 -24
l-315 -1991q-13 -88 -13 -149q0 -168 82 -302l-219 -106q-107 150 -107 359q0 75 16 181l292 1840h-451q-314 0 -364 -319z" />
    <glyph glyph-name="f_b" unicode="fb" horiz-adv-x="3027" 
d="M581 1781l30 191q40 255 188.5 388t397.5 133q338 0 732 -24l-116 -730q266 66 493 66q324 0 471 -132.5t147 -445.5q0 -145 -30 -336q-28 -174 -68.5 -308.5t-99 -237t-132 -172.5t-170 -114t-209 -63.5t-254.5 -19.5q-176 0 -342 35t-291 108q18 174 39 304l298 1878
h-451q-313 0 -364 -319l-32 -201h393l-30 -192h-393l-252 -1589h-237l252 1589h-311l30 192h311zM1993 177q161 0 275 43t190 136t121 220.5t74 314.5q30 188 30 310q0 144 -44 230t-151 129.5t-291 43.5q-96 0 -211.5 -20t-204.5 -50l-158 -997q-26 -171 -38 -280
q78 -39 189 -59.5t219 -20.5z" />
    <glyph glyph-name="f_f_b" unicode="ffb" horiz-adv-x="4071" 
d="M1832 1589l-252 -1589h-237l252 1589h-807l-252 -1589h-237l252 1589h-311l31 192h310l30 191q40 255 188.5 388t397.5 133q79 0 148 -12l-48 -180h-83q-313 0 -364 -319l-32 -201h807l30 191q40 255 188 388t398 133q339 0 731 -24l-115 -730q266 66 493 66
q324 0 471 -132.5t147 -445.5q0 -145 -30 -336q-28 -174 -68.5 -308.5t-99 -237t-132 -172.5t-170 -114t-209 -63.5t-254.5 -19.5q-389 0 -633 143q15 150 39 304l297 1878h-451q-312 0 -363 -319l-32 -201h393l-30 -192h-393zM2629 257q78 -39 189 -59.5t219 -20.5
q161 0 275 43t190 136t121 220.5t75 314.5q30 188 30 309q0 144 -44.5 230.5t-151.5 130t-291 43.5q-96 0 -211.5 -20t-205.5 -50l-158 -997q-23 -150 -37 -280z" />
    <glyph glyph-name="f_f_h" unicode="ffh" horiz-adv-x="4083" 
d="M818 1781h806l31 191q42 255 189.5 388t396.5 133q339 0 731 -24l-117 -738q268 73 520 74q139 1 243 -18.5t170.5 -54t107.5 -88t57 -115t16 -142.5q0 -83 -21 -219l-185 -1168h-238l177 1118q19 123 19 188q0 105 -39.5 167t-138.5 94t-273 32q-223 0 -448 -78
l-241 -1521h-237l364 2301h-451q-312 0 -363 -319l-32 -201h393l-31 -192h-392l-252 -1589h-238l252 1589h-806l-252 -1589h-237l252 1589h-311l30 192h311l30 191q40 255 188 388t398 133q79 0 147 -12l-47 -180h-83q-313 0 -364 -319z" />
    <glyph glyph-name="f_f_j" unicode="ffj" horiz-adv-x="2990" 
d="M1580 0h-237l252 1589h-807l-252 -1589h-237l252 1589h-311l31 192h310l30 191q40 255 188.5 388t397.5 133q79 0 147 -12l-47 -180h-83q-313 0 -364 -319l-32 -201h807l30 191q40 255 188 388t398 133q79 0 147 -12l-48 -180h-83q-312 0 -363 -319l-32 -201h1088
l-286 -1799q-56 -354 -217.5 -508t-459.5 -154q-38 0 -57 2l49 185q69 5 118.5 15.5t105.5 38t94.5 71t71 118.5t48.5 177l264 1662h-849zM2887 2139q-67 0 -94.5 23t-27.5 79q0 34 7 73q16 100 52.5 139.5t118.5 39.5q66 0 94.5 -25t28.5 -83q0 -24 -7 -71
q-16 -99 -52 -137t-120 -38z" />
    <glyph glyph-name="f_f_k" unicode="ffk" horiz-adv-x="3837" 
d="M2733 961l890 820h288l-956 -870l723 -911h-310l-653 840l-134 -840h-236l364 2301h-452q-312 0 -363 -319l-32 -201h393l-30 -192h-393l-252 -1589h-237l252 1589h-807l-252 -1589h-237l252 1589h-311l31 192h310l30 191q40 255 188.5 388t397.5 133q79 0 147 -12
l-47 -180h-83q-313 0 -364 -319l-32 -201h807l30 191q40 255 188 388t398 133q339 0 731 -24z" />
    <glyph glyph-name="f_h" unicode="fh" horiz-adv-x="3039" 
d="M240 1589l30 192h311l30 191q40 255 188.5 388t398.5 133q337 0 731 -24l-117 -738q268 73 520 74q139 1 242.5 -18.5t170 -54t107.5 -88t57 -115t16 -142.5q0 -83 -21 -219l-185 -1168h-237l177 1118q18 116 18 188q0 106 -39 168t-138 93.5t-273 31.5q-224 0 -449 -78
l-240 -1521h-238l364 2301h-450q-313 0 -364 -319l-32 -201h393l-30 -192h-393l-252 -1589h-237l251 1589h-310z" />
    <glyph glyph-name="f_j" unicode="fj" horiz-adv-x="1946" 
d="M818 1781h1088l-285 -1799q-56 -353 -218 -507.5t-459 -154.5q-39 0 -57 2l48 185q69 5 119 15.5t106 38t94.5 71t71 118.5t48.5 177l264 1662h-850l-252 -1589h-237l252 1589h-311l30 192h311l31 191q42 255 189.5 388t396.5 133q80 0 146 -12l-46 -180h-84
q-313 0 -364 -319zM1900 2493q66 0 94 -24.5t28 -82.5q0 -23 -7 -72q-16 -99 -52 -137t-120 -38q-67 0 -94.5 23.5t-27.5 79.5q0 23 7 72q16 100 53 139.5t119 39.5z" />
    <glyph glyph-name="f_k" unicode="fk" horiz-adv-x="2793" 
d="M270 1781h311l31 191q42 255 189.5 388t396.5 133q339 0 731 -24l-239 -1508l889 820h288l-956 -870l724 -911h-310l-653 840l-134 -840h-237l364 2301h-451q-313 0 -364 -319l-32 -201h394l-31 -192h-393l-252 -1589h-237l252 1589h-311z" />
    <glyph glyph-name=".notdef" horiz-adv-x="2168" 
d="M253 0v2400h1663v-2400h-1663zM985 1200l-565 874v-1748zM1650 171l-565 875l-566 -875h1131zM1650 2228h-1131l566 -874zM1750 2074l-565 -874l565 -874v1748z" />
    <glyph glyph-name=".null" horiz-adv-x="0" 
 />
    <glyph glyph-name="nonmarkingreturn" horiz-adv-x="1111" 
 />
    <glyph glyph-name="space" unicode=" " horiz-adv-x="950" 
 />
    <glyph glyph-name="exclam" unicode="!" horiz-adv-x="780" 
d="M294 -24q-67 0 -94.5 23t-27.5 79q0 35 7 74q16 100 53 139t118 39q66 0 94 -24t28 -82q0 -25 -7 -72q-16 -100 -52 -138t-119 -38zM302 679l220 1651h289l-302 -1651h-207z" />
    <glyph glyph-name="quotedbl" unicode="&#x22;" horiz-adv-x="1122" 
d="M329 1572l115 897h242l-168 -897h-189zM783 1572l115 897h242l-168 -897h-189z" />
    <glyph glyph-name="numbersign" unicode="#" horiz-adv-x="1846" 
d="M390 1633h362q16 55 100 339t105 358h194l-204 -697h437q16 55 100 339t105 358h195l-205 -697h293l-30 -193h-320l-159 -547h302l-30 -192h-330l-206 -701h-195l207 701h-438l-206 -701h-195l206 701h-321l31 192h348l159 547h-336zM1169 893l158 547h-437l-159 -547
h438z" />
    <glyph glyph-name="dollar" unicode="$" horiz-adv-x="1629" 
d="M1248 601q7 41 7 80q0 64 -21 114.5t-53.5 85.5t-92 67.5t-115.5 53.5t-145 50q-79 25 -134.5 45.5t-115.5 47.5t-100 54t-78 63.5t-59.5 78t-34.5 94.5t-13 116q0 65 11 131q46 293 217.5 432.5t476.5 163.5l50 315h188l-49 -309q257 -4 520 -51l-54 -200
q-245 39 -435 39q-88 0 -158 -5t-145 -17.5t-131.5 -37.5t-105.5 -62t-80 -94t-43 -131q-10 -59 -10 -110q0 -43 9 -78t23.5 -62.5t44.5 -52t60.5 -43t83 -39.5t100.5 -37t124 -39q98 -30 172 -61.5t142.5 -76.5t112 -98.5t69.5 -128t26 -164.5q0 -60 -10 -123
q-48 -297 -222 -446.5t-478 -180.5l-50 -318h-187l48 309q-303 0 -556 53l58 204q271 -43 525 -43q101 0 180.5 10t154.5 37.5t127.5 73t91 118.5t54.5 172z" />
    <glyph glyph-name="percent" unicode="%" horiz-adv-x="2684" 
d="M701 970q-218 0 -308.5 93.5t-90.5 293.5q0 115 29 299q19 121 41 211t55 170.5t76 134.5t102 94t136.5 58t176.5 18q219 0 310 -94t91 -295q0 -115 -29 -297q-23 -146 -51.5 -249t-73 -190t-107 -139t-151 -80t-206.5 -28zM477 1367q0 -124 54 -186t189 -62q61 0 110 14
t85 36t65 62t48 79t35.5 101t26.5 114t23 131q31 199 31 287q0 125 -54 188t-190 63q-54 0 -98 -9.5t-78.5 -30.5t-61 -45.5t-47.5 -64.5t-36 -76.5t-28.5 -93.5t-22 -103t-19.5 -115q-32 -196 -32 -289zM1938 -12q-218 0 -308 93.5t-90 293.5q0 115 29 299q23 146 51 249
t72.5 190t106.5 139t150.5 80t206.5 28q219 0 309 -93.5t90 -294.5q0 -122 -28 -298q-23 -146 -51 -249t-73 -190t-107 -139t-150.5 -80t-207.5 -28zM1714 386q0 -124 54 -186.5t189 -62.5q61 0 110.5 14t85.5 36t64.5 62t47.5 79t35.5 101t26.5 114t23 131q31 199 31 287
q0 125 -54 188t-190 63q-48 0 -88 -8.5t-72 -22t-58.5 -38.5t-46.5 -50t-37 -64t-29 -73.5t-23.5 -85.5t-19 -93t-17.5 -103q-32 -196 -32 -288zM467 -48l1724 2426h198l-1726 -2426h-196z" />
    <glyph glyph-name="ampersand" unicode="&#x26;" horiz-adv-x="2167" 
d="M1099 1228l456 -661q164 210 242 532l224 -10q-59 -227 -141 -397.5t-199 -309.5l268 -382h-298l-145 214q-279 -238 -716 -238q-326 0 -484.5 122.5t-158.5 372.5q0 76 13 155q15 98 56 183.5t96 150.5t132.5 124.5t156.5 103.5t178 89q-42 63 -65.5 102.5t-55 103.5
t-46 128t-14.5 131q0 46 7 88q18 113 61.5 202.5t104.5 149.5t140.5 99t166.5 56t187 17q80 0 150 -13t132 -43t106.5 -74.5t70 -111.5t25.5 -150q0 -53 -8 -100q-15 -98 -59 -183.5t-101 -148t-141 -120.5t-161.5 -98t-179.5 -84zM996 1376q62 29 101.5 48.5t95 50t92 55.5
t78 60t67.5 69.5t46.5 77.5t28.5 90q7 45 7 87q0 131 -75 187.5t-214 56.5q-150 0 -256 -81.5t-134 -256.5q-5 -35 -5 -62q0 -55 13.5 -106.5t46 -108.5t49 -81.5t59.5 -85.5zM1390 384l-508 740q-83 -43 -139.5 -76.5t-119.5 -82t-103.5 -99t-73 -120t-45.5 -151.5
q-7 -49 -7 -80q0 -76 27 -136.5t71.5 -98t106.5 -62t126 -34.5t136 -10q293 0 529 210z" />
    <glyph glyph-name="quotesingle" unicode="'" horiz-adv-x="669" 
d="M329 1572l116 897h242l-169 -897h-189z" />
    <glyph glyph-name="parenleft" unicode="(" horiz-adv-x="973" 
d="M692 -455l-160 -120q-316 357 -316 982q0 239 45 520q35 223 90 419.5t142 394.5t217.5 374t297.5 315l122 -120q-113 -99 -209.5 -235t-161.5 -274t-117.5 -299t-83.5 -296.5t-53 -278.5q-46 -288 -46 -540q0 -562 233 -842z" />
    <glyph glyph-name="parenright" unicode=")" horiz-adv-x="972" 
d="M427 2310l160 120q316 -358 316 -983q0 -239 -45 -520q-35 -223 -90 -419.5t-142 -394t-217 -373.5t-298 -315l-122 120q113 99 209.5 235t161.5 274t118 299t83.5 296t53.5 278q46 288 46 540q0 562 -234 843z" />
    <glyph glyph-name="asterisk" unicode="*" horiz-adv-x="1527" 
d="M1047 1161l-174 416l-303 -418l-142 91l310 426h-484l28 178h482l-173 424l173 92l168 -420l308 420l138 -91l-308 -425h482l-27 -178h-485l174 -428z" />
    <glyph glyph-name="plus" unicode="+" horiz-adv-x="1903" 
d="M932 1093l110 696h228l-110 -696h681l-36 -225h-680l-111 -700h-229l111 700h-678l36 225h678z" />
    <glyph glyph-name="comma" unicode="," horiz-adv-x="737" 
d="M23 -437l349 836h281l-425 -836h-205z" />
    <glyph glyph-name="hyphen" unicode="-" horiz-adv-x="1304" 
d="M286 780l34 211h838l-34 -211h-838z" />
    <glyph glyph-name="period" unicode="." horiz-adv-x="718" 
d="M341 -24q-66 0 -93.5 23t-27.5 79q0 33 7 74q15 100 52 139t119 39q66 0 93.5 -24.5t27.5 -83.5q0 -29 -6 -70q-16 -100 -52 -138t-120 -38z" />
    <glyph glyph-name="slash" unicode="/" horiz-adv-x="1363" 
d="M-33 -268l1350 2680h225l-1352 -2680h-223z" />
    <glyph glyph-name="zero" unicode="0" horiz-adv-x="2036" 
d="M923 -24q-184 0 -310.5 39.5t-203 122t-110 200t-33.5 283.5q0 202 49 509q28 174 58.5 308.5t73 258.5t96 213t125.5 163t162 118.5t204 68.5t255 24q184 0 311.5 -39.5t204 -122.5t110.5 -201t34 -285q0 -201 -49 -506q-24 -152 -50.5 -272.5t-61.5 -234t-77.5 -199.5
t-98 -161t-123.5 -126.5t-152.5 -88.5t-187.5 -54.5t-226 -17.5zM505 626q0 -108 21 -185.5t70 -137t136.5 -89t214.5 -29.5q111 0 200 24.5t154 63.5t117 109t86 139.5t63.5 178t47.5 200.5t40 230q56 355 56 501q0 86 -13 152.5t-44 122.5t-81 92.5t-127 56.5t-180 20
q-111 0 -200 -24.5t-154 -63t-116.5 -109.5t-85 -139t-63 -178t-47 -200.5t-39.5 -230.5q-56 -357 -56 -504z" />
    <glyph glyph-name="one" unicode="1" horiz-adv-x="1142" 
d="M531 0l316 1993q-282 -79 -570 -122l21 207q335 53 637 182h197l-358 -2260h-243z" />
    <glyph glyph-name="two" unicode="2" horiz-adv-x="1756" 
d="M432 2219q370 65 674 65q678 0 678 -436q0 -49 -9 -106q-24 -154 -87 -279t-164 -222.5t-227 -172t-292 -139.5q-124 -49 -215.5 -103.5t-156 -113t-113.5 -137.5t-82 -159.5t-67 -195.5h1162l-35 -220h-1450q36 109 62.5 185.5t59 161t60 143.5t62 123.5t68.5 110
t77 94.5t89.5 85t104 74t122.5 70t143 63q133 54 231.5 108t185.5 124t139.5 157.5t68.5 192.5q8 51 8 88q0 161 -131.5 224.5t-438.5 63.5q-233 0 -535 -47z" />
    <glyph glyph-name="three" unicode="3" horiz-adv-x="1763" 
d="M1717 1747q-66 -416 -438 -557q134 -41 222.5 -149.5t88.5 -277.5q0 -54 -8 -102q-25 -156 -81.5 -273.5t-137.5 -195.5t-193.5 -126.5t-240.5 -69t-288 -20.5q-311 0 -609 61l61 204h1h1h1l1 -1h1h1h1h1h1h1h1l1 -1h1h1h1h1h1h1l1 -1h1h1h1h1h1h1l1 -1h1h1h1h1h1h1l2 -1
q322 -42 479 -43q136 0 237.5 12.5t187 43t143 82t96 129t55.5 184.5q7 42 7 85q0 144 -84 229t-233 101q-141 16 -367 16q-15 0 -45 -0.5t-45 -0.5l31 193q225 4 465 39q170 25 274.5 128.5t129.5 258.5q8 56 8 95q0 55 -13.5 97.5t-36 72t-60.5 50.5t-77.5 33t-98 19
t-111 9t-125.5 2q-218 0 -549 -47l6 199q169 31 308.5 46t313.5 15q121 0 216.5 -9.5t190 -38t157 -74.5t101 -124t38.5 -182q0 -50 -9 -109z" />
    <glyph glyph-name="four" unicode="4" horiz-adv-x="1934" 
d="M1155 0l87 547h-945q-179 0 -179 123q0 18 3 37q16 95 161 252l1075 1171q74 80 137 117t128 37q52 0 83.5 -31.5t31.5 -94.5q0 -23 -4 -46l-216 -1364h303l-32 -201h-303l-87 -547h-243zM1466 1957l-1101 -1209h909z" />
    <glyph glyph-name="five" unicode="5" horiz-adv-x="1785" 
d="M577 1354q136 8 235 8q112 0 200 -5t178 -18.5t156 -36.5t125.5 -61.5t96.5 -90.5t58.5 -125.5t21.5 -166.5q0 -83 -14 -168q-60 -378 -288 -546t-631 -168q-333 0 -637 63l60 204q273 -48 523 -48q144 0 246 14t187 48t140 94t93 150t58 218q8 51 8 90q0 64 -18 115
t-49 87t-80.5 62t-104 42t-128.5 25.5t-144.5 12.5t-161.5 3q-212 0 -407 -11l252 1115h1270l-35 -219h-1054z" />
    <glyph glyph-name="six" unicode="6" horiz-adv-x="1971" 
d="M1828 696q-27 -170 -86 -296.5t-139.5 -207t-194.5 -129.5t-237.5 -68t-280.5 -19q-147 0 -258.5 26.5t-186.5 75.5t-122 123.5t-67.5 165t-20.5 206.5q0 141 30 330q32 204 68.5 361.5t87 297t111 240.5t143.5 185t182.5 137.5t230 91t283.5 53t345 15.5q50 0 183 -3
l-11 -205q-42 -2 -127 -4q-110 -2 -167 -4.5t-161.5 -11.5t-163.5 -22t-148.5 -39.5t-144 -62t-122 -90.5t-110.5 -125t-82 -165t-61 -210q358 46 565 46q93 0 169.5 -6.5t147.5 -22.5t126 -42t100 -64.5t74.5 -90.5t45.5 -120.5t16 -152.5q0 -83 -17 -193zM915 186
q222 0 358 52t209 162.5t103 300.5q12 78 12 140q0 105 -33.5 174t-105 106t-162 51t-226.5 14q-158 0 -517 -49q-24 -103 -52 -282q-23 -147 -23 -243q0 -75 12 -136t42 -116.5t79 -92.5t126 -59t178 -22z" />
    <glyph glyph-name="seven" unicode="7" horiz-adv-x="1651" 
d="M1774 2026l-1232 -2026h-277l1278 2043h-1228l35 217h1306q89 0 129 -34.5t31 -95.5q-8 -48 -42 -104z" />
    <glyph glyph-name="eight" unicode="8" horiz-adv-x="1982" 
d="M896 -24q-128 0 -232.5 15t-194.5 50.5t-150.5 91.5t-95 141t-34.5 195q0 69 11 136q19 117 60.5 209t105.5 159t138 114.5t170 86.5q-143 72 -207 172.5t-64 245.5q0 66 12 143q22 143 93 249t183 171.5t254.5 97t316.5 31.5q155 0 278 -26t215 -79.5t141.5 -141
t49.5 -203.5q0 -52 -8 -99q-32 -207 -128.5 -336.5t-312.5 -223.5q147 -67 227 -172.5t80 -273.5q0 -56 -11 -127q-24 -150 -84 -262t-141.5 -180.5t-193.5 -110.5t-225.5 -57.5t-252.5 -15.5zM434 518q0 -79 25.5 -138.5t68.5 -96.5t108 -60t135 -32t158 -9q99 0 178.5 10
t157.5 38.5t134 76t97 125t58 182.5q8 54 8 94q0 176 -131.5 256t-413.5 102q-120 -15 -211 -43.5t-169.5 -79.5t-127.5 -133.5t-67 -195.5q-8 -54 -8 -96zM643 1689q-6 -41 -6 -75q0 -160 128.5 -242.5t388.5 -100.5q89 15 159 34.5t138.5 52t116.5 76.5t82.5 108.5
t47.5 146.5q7 43 7 85q0 74 -25.5 129t-67.5 89t-105 54.5t-129 28t-149 7.5q-75 0 -137.5 -6.5t-127 -22t-115 -44.5t-93.5 -71t-71.5 -105.5t-41.5 -143.5z" />
    <glyph glyph-name="nine" unicode="9" horiz-adv-x="1966" 
d="M311 1564q27 170 86 296.5t139.5 207t194.5 129.5t237.5 68t280.5 19q147 0 258.5 -26.5t186.5 -75.5t122 -123.5t67.5 -165t20.5 -206.5q0 -141 -30 -330q-32 -204 -68.5 -361.5t-87 -297t-111 -240.5t-143.5 -185t-182.5 -137.5t-230 -91t-283.5 -53t-345 -15.5
q-50 0 -183 3l11 205q42 2 127 4q110 2 167 4.5t161.5 11.5t163.5 22t148.5 39.5t144 62t122.5 90.5t110.5 125t81.5 165t62 210q-360 -46 -566 -46q-131 0 -231.5 13.5t-187.5 48t-142.5 90.5t-86.5 143.5t-31 204.5q0 82 17 192zM1224 2074q-222 0 -358 -52t-208.5 -162.5
t-102.5 -300.5q-12 -78 -12 -141q0 -84 23 -145t64 -99.5t109 -60.5t145.5 -30.5t184.5 -8.5q158 0 517 49q22 92 52 282q23 147 23 243q0 75 -12 136t-42 116.5t-79 92.5t-126 59t-178 22z" />
    <glyph glyph-name="colon" unicode=":" horiz-adv-x="786" 
d="M326 -24q-67 0 -94.5 23.5t-27.5 80.5q0 23 7 72q16 100 53 139t118 39q66 0 94 -24t28 -82q0 -25 -7 -72q-15 -100 -51 -138t-120 -38zM526 1235q-67 0 -94.5 23t-27.5 79q0 35 7 74q16 100 52.5 139.5t118.5 39.5q65 0 93.5 -25t28.5 -83q0 -24 -7 -71
q-15 -100 -51 -138t-120 -38z" />
    <glyph glyph-name="semicolon" unicode=";" horiz-adv-x="828" 
d="M809 1411q-15 -100 -51 -138t-120 -38q-67 0 -94.5 23.5t-27.5 79.5q0 24 7 73q16 100 53 139.5t118 39.5q66 0 94 -24.5t28 -82.5q0 -25 -7 -72zM12 -437l349 836h281l-426 -836h-204z" />
    <glyph glyph-name="less" unicode="&#x3c;" horiz-adv-x="1948" 
d="M208 869l34 219l1682 745l-39 -244l-1386 -609l1193 -611l-39 -245z" />
    <glyph glyph-name="equal" unicode="=" horiz-adv-x="2090" 
d="M256 525l36 224h1587l-36 -224h-1587zM365 1209l36 224h1587l-36 -224h-1587z" />
    <glyph glyph-name="greater" unicode="&#x3e;" horiz-adv-x="1949" 
d="M218 369l1386 611l-1193 609l39 244l1445 -745l-34 -219l-1682 -745z" />
    <glyph glyph-name="question" unicode="?" horiz-adv-x="1642" 
d="M758 679h-210l28 202q1 5 5.5 38t6.5 46q13 81 46.5 137.5t80 86.5t104 48.5t119.5 30.5t124 25t120.5 38.5t107 65.5t84.5 112t52 172q14 87 14 149q0 177 -122 241t-440 64q-231 0 -502 -48l-10 205q302 62 608 62q99 0 176.5 -4.5t155.5 -17.5t135.5 -35.5
t108.5 -58.5t83 -85.5t50 -119t18 -156.5q0 -84 -16 -183q-21 -132 -62.5 -231.5t-94.5 -158.5t-116 -99t-129 -60t-131.5 -34.5t-125 -29t-107.5 -37t-82 -65.5t-45 -108zM598 330q66 0 94 -24.5t28 -82.5q0 -24 -7 -71q-16 -100 -52 -138t-120 -38q-66 0 -93.5 23
t-27.5 79q0 33 7 74q16 100 52.5 139t118.5 39z" />
    <glyph glyph-name="at" unicode="@" horiz-adv-x="3016" 
d="M1394 -298q-285 0 -497.5 51.5t-361 159.5t-223.5 279.5t-75 406.5q0 138 25 292q41 258 130.5 456.5t221.5 336.5t313.5 227t397 129t480.5 40q91 0 168 -13t144.5 -43t114 -76.5t73.5 -118t27 -162.5q0 -58 -10 -119l-116 -736q-27 -166 -58 -305q-142 -68 -315.5 -105
t-353.5 -37q-289 0 -423.5 98t-134.5 300q0 56 11 128q35 218 165.5 352.5t353.5 178.5q174 34 625 51q13 79 13 146q0 142 -75.5 199t-256.5 57q-213 0 -384 -30t-320 -100t-257 -182t-183.5 -280.5t-111.5 -391.5q-22 -136 -22 -256q0 -200 63.5 -342t188.5 -226t295 -122
t400 -38q210 0 379 31t315.5 102t253 184t181 280t109.5 387q27 170 27 302q0 6 -0.5 18t-0.5 17l240 68q2 -48 2 -74q0 -156 -28 -331q-49 -313 -171.5 -541t-315.5 -370.5t-446 -210t-577 -67.5zM1989 922l58 369q-391 -8 -539 -45q-152 -37 -233.5 -118t-105.5 -231
q-7 -43 -7 -85q0 -139 91.5 -194.5t280.5 -55.5q90 0 200.5 22t202.5 59q32 148 52 279z" />
    <glyph glyph-name="A" unicode="A" horiz-adv-x="2150" 
d="M1571 670h-977l-341 -670h-258l1136 2179q91 175 228 175t173 -175l435 -2179h-267zM699 875h832l-228 1184z" />
    <glyph glyph-name="B" unicode="B" horiz-adv-x="2096" 
d="M2047 1770q-72 -452 -429 -578q140 -49 216.5 -152t76.5 -288q0 -79 -15 -175q-17 -106 -55 -192.5t-90 -148t-123.5 -108t-148.5 -75.5t-172.5 -46.5t-187.5 -24t-201 -6.5q-397 0 -730 56l359 2269q332 53 705 53q93 0 171 -4.5t162.5 -17.5t151 -35t128 -58t102.5 -84
t65 -117t24 -154q0 -52 -9 -114zM1801 1821q0 70 -19 122.5t-58.5 87.5t-88 58t-118.5 34.5t-138.5 16t-159.5 4.5q-210 0 -451 -30l-130 -824h462q122 0 212 9.5t176.5 37.5t144.5 75.5t100.5 126t59.5 187.5q8 54 8 95zM1069 1094h-463l-139 -877q241 -30 470 -30
q90 0 159 4t141 16t125.5 32.5t104 54t85.5 80.5t61.5 112.5t39.5 148.5q9 58 9 106q0 88 -30 152t-80 102t-128.5 61t-161 30.5t-193.5 7.5z" />
    <glyph glyph-name="C" unicode="C" horiz-adv-x="1729" 
d="M1561 29q-256 -53 -530 -53q-214 0 -362 41.5t-239 130.5t-131.5 219t-40.5 316q0 198 45 482q25 160 55 289t69.5 245.5t88.5 205.5t112.5 164.5t141 127t174 87.5t211.5 53t253 17q277 0 513 -51l-57 -205q-236 37 -393 37q-149 0 -266 -22t-203.5 -59t-152.5 -104.5
t-109.5 -138t-78.5 -181.5t-56 -212.5t-45 -252.5q-46 -291 -46 -448q0 -107 18.5 -187t63.5 -145t119 -106t185.5 -62.5t263.5 -21.5q166 0 405 36z" />
    <glyph glyph-name="D" unicode="D" horiz-adv-x="2189" 
d="M548 2301q332 53 702 53q242 0 406.5 -43t262 -134.5t139 -219t41.5 -310.5q0 -195 -46 -482q-25 -157 -52.5 -279t-66.5 -240t-87.5 -206t-114.5 -166t-149 -131t-188 -92t-234.5 -57t-287.5 -18q-368 0 -685 55zM769 2110l-300 -1889q219 -30 371 -30q132 0 241.5 17
t192.5 40.5t152 73.5t115.5 91t86 119.5t62.5 132.5t46 156t34 163.5t30 180.5q50 313 50 447q0 100 -18.5 177t-66 145t-125.5 111.5t-201.5 68.5t-289.5 25q-146 0 -380 -29z" />
    <glyph glyph-name="E" unicode="E" horiz-adv-x="1760" 
d="M1853 2322l-31 -201h-572q-109 0 -183.5 -7t-135 -27.5t-97.5 -50t-66 -82.5t-45.5 -117t-32.5 -162l-61 -383h1014l-33 -210h-1014l-68 -430q-20 -128 -20 -194q0 -149 92 -199t347 -50h572l-32 -204q-252 -11 -565 -11q-69 0 -116.5 1t-110.5 5t-106 11.5t-94.5 21.5
t-85.5 34t-68 49t-54 66.5t-32.5 88t-12.5 111.5q0 54 11 126l208 1312q17 103 52 184t78.5 134.5t110 91.5t125.5 58.5t147 31.5t154 13.5t165 2.5q235 0 560 -14z" />
    <glyph glyph-name="F" unicode="F" horiz-adv-x="1712" 
d="M429 0h-251l288 1820q13 81 37 148t54 116.5t74 88.5t86 65.5t101.5 45t109 28.5t120 15.5t123 7t128.5 1.5q323 0 560 -14l-32 -201h-572q-110 0 -184.5 -7t-135 -27.5t-97.5 -50t-66 -82.5t-46 -117t-32 -162l-60 -383h1014l-33 -210h-1014z" />
    <glyph glyph-name="G" unicode="G" horiz-adv-x="2081" 
d="M1276 1015l32 207h665l-136 -860q-12 -76 -41 -135t-67 -99.5t-98 -69t-117.5 -44.5t-143.5 -24.5t-157.5 -11t-176.5 -2.5q-283 0 -453.5 76.5t-244.5 229.5t-74 402q0 199 45 481q34 217 76.5 379.5t105 300t144.5 229.5t194.5 157t256 94t327.5 29q380 0 662 -53
l-56 -206q-276 39 -543 39q-149 0 -266 -22t-203 -58.5t-152 -104t-109.5 -137.5t-78.5 -181t-56 -213t-45 -253q-47 -299 -47 -451q0 -133 30 -225.5t103 -160.5t200.5 -100.5t316.5 -32.5q91 0 159.5 8.5t114 28.5t74.5 41.5t47 58.5t26.5 68t16.5 81l84 534h-415z" />
    <glyph glyph-name="H" unicode="H" horiz-adv-x="2250" 
d="M1831 1300l163 1030h253l-369 -2330h-253l172 1085h-1186l-172 -1085h-252l369 2330h252l-163 -1030h1186z" />
    <glyph glyph-name="I" unicode="I" horiz-adv-x="806" 
d="M184 0l369 2330h253l-369 -2330h-253z" />
    <glyph glyph-name="J" unicode="J" horiz-adv-x="1275" 
d="M770 675l262 1655h253l-253 -1595q-33 -209 -85.5 -348t-141.5 -233.5t-217 -136t-313 -41.5q-173 0 -311 54l53 198q121 -37 271 -37q72 0 131 12t117.5 45t102 86t78.5 139.5t53 201.5z" />
    <glyph glyph-name="K" unicode="K" horiz-adv-x="1937" 
d="M803 2330l-171 -1080l1164 1080h308l-1225 -1123l882 -1207h-322l-824 1144l-181 -1144h-252l369 2330h252z" />
    <glyph glyph-name="L" unicode="L" horiz-adv-x="1582" 
d="M259 508l288 1822h252l-266 -1678q-19 -119 -19 -191q0 -150 92 -201t347 -51h529l-32 -206q-237 -9 -522 -9q-69 0 -116.5 1t-110.5 5t-106 11.5t-94.5 21.5t-85.5 34t-68 49t-54 66.5t-32.5 88t-12.5 111.5q0 54 11 126z" />
    <glyph glyph-name="M" unicode="M" horiz-adv-x="2777" 
d="M963 2192l434 -1539l928 1536q100 165 216 165q136 0 136 -141q0 -11 -2 -39l-221 -2174h-248l201 1946l-2 1l-896 -1504q-40 -66 -78.5 -97t-88.5 -31t-80 31.5t-48 96.5l-418 1507l-421 -1950h-238l473 2175q20 93 66 136t123 43q118 0 164 -162z" />
    <glyph glyph-name="N" unicode="N" horiz-adv-x="2294" 
d="M912 2187l832 -1848l315 1991h232l-344 -2171q-14 -93 -63 -138t-122 -45q-67 0 -111.5 40t-84.5 128l-831 1849l-316 -1993h-232l344 2171q15 93 63.5 138t120.5 45q65 0 112 -40.5t85 -126.5z" />
    <glyph glyph-name="O" unicode="O" horiz-adv-x="2214" 
d="M1011 -24q-400 0 -570.5 164.5t-170.5 537.5q0 202 46 487q34 217 77.5 381.5t106.5 301t143.5 229t189.5 156t245.5 92.5t309.5 29q270 0 432 -74t235 -226.5t73 -402.5q0 -197 -45 -486q-34 -217 -78 -381.5t-106.5 -301t-143.5 -229t-189.5 -156t-245 -92.5
t-309.5 -29zM1828 1165q54 343 54 492q0 117 -24 201t-81 149t-160 97.5t-253 32.5q-128 0 -230.5 -25.5t-176 -65.5t-131.5 -113.5t-95 -143.5t-68.5 -183.5t-49.5 -205t-41 -235.5q-54 -344 -54 -494q0 -92 14.5 -163t50 -132t94 -100t148.5 -61t211 -22q127 0 229 25.5
t175.5 66t132 113.5t96 144t69 183t50 205.5t40.5 234.5z" />
    <glyph glyph-name="P" unicode="P" horiz-adv-x="1989" 
d="M584 952l-152 -952h-251l364 2299q335 55 706 55q100 0 182 -5.5t165.5 -21t148 -40.5t122 -65.5t94.5 -95.5t58.5 -131t21.5 -171q0 -77 -15 -172q-27 -173 -89.5 -300t-147 -206t-204.5 -127t-246.5 -65.5t-288.5 -17.5q-172 0 -468 16zM618 1167q188 -21 442 -21
q128 0 225.5 13.5t183.5 47.5t145.5 91t101.5 145.5t61 208.5q11 74 11 130q0 192 -130 277t-428 85q-228 0 -462 -31z" />
    <glyph glyph-name="Q" unicode="Q" horiz-adv-x="2214" 
d="M1699 -360l-197 -129q-11 6 -52.5 28t-57 30.5t-54.5 31.5t-57.5 36.5t-52.5 39t-52.5 46t-45 51t-42.5 59.5t-32.5 66t-26.5 77q-270 0 -432 74t-235.5 226.5t-73.5 402.5q0 199 45 486q34 217 78 381.5t106.5 301t143.5 229t190 156t245.5 92.5t309.5 29
q399 0 569.5 -164.5t170.5 -537.5q0 -202 -46 -487q-45 -282 -106 -479t-156.5 -344.5t-229 -230t-317.5 -114.5q52 -118 145.5 -193.5t262.5 -163.5zM1053 193q127 0 229 25.5t175.5 66t132 113.5t96 144t69 183t50 205.5t40.5 234.5q54 343 54 492q0 117 -24 201t-81 149
t-160 97.5t-253 32.5q-128 0 -230.5 -25.5t-176 -65.5t-132 -113.5t-95.5 -144t-68.5 -183t-50 -205.5t-40.5 -235q-54 -344 -54 -493q0 -116 24 -200t81 -149t160.5 -97.5t253.5 -32.5z" />
    <glyph glyph-name="R" unicode="R" horiz-adv-x="2049" 
d="M432 0h-251l364 2299q333 55 706 55q100 0 181.5 -5.5t165.5 -20t148 -39t121.5 -64.5t95 -94t59 -130t21.5 -170q0 -83 -14 -168q-26 -166 -85 -289.5t-147 -203.5t-194.5 -126t-241.5 -67l402 -977h-293l-378 956h-36q-173 0 -469 16zM621 1188q189 -21 442 -21
q160 0 275.5 22.5t209.5 77.5t151 153t80 243q11 72 11 127q0 190 -130.5 272.5t-429.5 82.5q-216 0 -463 -31z" />
    <glyph glyph-name="S" unicode="S" horiz-adv-x="1712" 
d="M1312 704q0 55 -13 99.5t-42.5 80t-63.5 62.5t-89 52.5t-105 44t-126 42.5q-81 26 -138.5 47t-119.5 48.5t-103 55.5t-80.5 65.5t-62 80t-36 97t-13.5 119.5q0 62 12 135q22 139 72 244t124 176.5t178 116.5t226.5 64.5t276.5 19.5q280 0 569 -53l-55 -206
q-259 40 -449 40q-76 0 -138.5 -3.5t-130.5 -13.5t-122 -26.5t-105 -43.5t-87.5 -64t-63 -89t-36.5 -117q-10 -60 -10 -113q0 -45 9.5 -81t24.5 -64.5t46 -54t62 -44t86 -40t104 -38t128 -40.5q101 -31 177.5 -63t147 -78.5t115.5 -102t71.5 -131.5t26.5 -169
q0 -55 -11 -127q-28 -178 -101 -304.5t-190.5 -203.5t-270 -112.5t-352.5 -35.5q-311 0 -575 55l58 211q283 -45 542 -45q104 0 186 10.5t159 38.5t131.5 75t94 122t55.5 177q7 42 7 84z" />
    <glyph glyph-name="T" unicode="T" horiz-adv-x="1647" 
d="M1850 2330l-34 -212h-624l-335 -2118h-253l335 2118h-624l33 212h1502z" />
    <glyph glyph-name="U" unicode="U" horiz-adv-x="2180" 
d="M2185 2330l-249 -1577q-29 -181 -89 -317t-142 -223t-196.5 -140.5t-239 -75t-281.5 -21.5q-136 0 -242.5 16t-197.5 55.5t-151 103.5t-93.5 162t-33.5 228q0 95 18 212l249 1577h250l-253 -1603q-12 -78 -12 -144q0 -198 120 -292.5t382 -94.5q307 0 461 128t197 403
l253 1603h250z" />
    <glyph glyph-name="V" unicode="V" horiz-adv-x="2043" 
d="M2232 2330l-1089 -2178q-46 -93 -98.5 -134.5t-120.5 -41.5q-67 0 -107.5 42.5t-56.5 133.5l-395 2178h267l348 -2022l996 2022h256z" />
    <glyph glyph-name="W" unicode="W" horiz-adv-x="2970" 
d="M669 2330l123 -2010l741 1572q43 91 91 132t112 41q65 0 100.5 -41.5t48.5 -132.5l225 -1570l754 2009h246l-836 -2173q-70 -181 -210 -181q-68 0 -105.5 44t-51.5 137l-230 1573l-741 -1573q-44 -93 -95.5 -137t-118.5 -44q-139 0 -152 181l-156 2173h255z" />
    <glyph glyph-name="X" unicode="X" horiz-adv-x="1989" 
d="M1125 1410l704 920h274l-876 -1132l550 -1198h-291l-441 973l-742 -973h-278l920 1188l-524 1142h290z" />
    <glyph glyph-name="Y" unicode="Y" horiz-adv-x="1848" 
d="M1098 906l-144 -906h-253l143 906l-503 1424h274l401 -1163l779 1163h263z" />
    <glyph glyph-name="Z" unicode="Z" horiz-adv-x="1760" 
d="M1819 2099l-1437 -1884h1175l-34 -215h-1343q-77 0 -111.5 26.5t-26.5 75.5q9 56 66 129l1438 1885h-1110l34 214h1277q77 0 111 -26.5t26 -75.5q-8 -54 -65 -129z" />
    <glyph glyph-name="bracketleft" unicode="[" horiz-adv-x="969" 
d="M785 2213l-406 -2559h344l-31 -198h-569l467 2952h571l-30 -195h-346z" />
    <glyph glyph-name="backslash" unicode="\" horiz-adv-x="1363" 
d="M917 -268l-502 2680h225l501 -2680h-224z" />
    <glyph glyph-name="bracketright" unicode="]" horiz-adv-x="969" 
d="M392 2213l30 195h572l-467 -2952h-569l31 198h343l406 2559h-346z" />
    <glyph glyph-name="asciicircum" unicode="^" horiz-adv-x="1621" 
d="M921 2330h244l344 -1229h-230l-277 973l-585 -973h-229z" />
    <glyph glyph-name="underscore" unicode="_" horiz-adv-x="1661" 
d="M-10 -470l25 167h1656l-26 -167h-1655z" />
    <glyph glyph-name="grave" unicode="`" horiz-adv-x="746" 
d="M573 1905l-307 478h287l212 -478h-192z" />
    <glyph glyph-name="a" unicode="a" horiz-adv-x="1822" 
d="M1697 1264l-133 -841q-22 -145 -58 -304q-305 -143 -752 -143q-313 0 -460 94t-147 308q0 56 11 130q38 238 165.5 377.5t360.5 174.5q228 34 755 52l12 79q12 72 12 131q0 150 -94.5 215t-327.5 65q-232 0 -591 -51l9 192q395 62 658 62q106 0 190 -10.5t161 -38.5
t128.5 -73.5t81.5 -119t30 -171.5q0 -56 -11 -128zM811 174q273 0 485 80q28 134 51 280l63 396q-479 -10 -670 -48q-160 -32 -238 -110.5t-106 -257.5q-8 -54 -8 -92q0 -142 98.5 -195t324.5 -53z" />
    <glyph glyph-name="b" unicode="b" horiz-adv-x="1886" 
d="M1165 1805q324 0 471 -132.5t147 -445.5q0 -145 -30 -336q-28 -174 -68.5 -308.5t-99 -237t-132 -172.5t-170 -114t-209 -63.5t-254.5 -19.5q-176 0 -342 35t-291 108q15 150 39 304l324 2046h238l-116 -730q266 66 493 66zM640 1534l-158 -997q-27 -176 -37 -280
q77 -39 188 -59.5t219 -20.5q161 0 275 43t190 136t121 220.5t74 314.5q30 188 30 310q0 144 -44.5 230t-151 129.5t-289.5 43.5q-97 0 -212 -20t-205 -50z" />
    <glyph glyph-name="c" unicode="c" horiz-adv-x="1469" 
d="M1289 28q-260 -52 -465 -52q-132 0 -233 29t-166.5 80t-106.5 127t-58 163t-17 195q0 144 31 340q18 114 39.5 206t52 179.5t69 154.5t89 126t115 100t144.5 71t178 44t216 14q205 0 382 -51l-49 -186q-163 30 -286 30q-102 0 -182.5 -9t-145.5 -30t-113 -48t-86.5 -72.5
t-65 -93.5t-48.5 -120t-36.5 -143t-30.5 -172q-35 -220 -35 -332q0 -79 14.5 -138.5t50 -109t94 -80t147.5 -47.5t210 -17q106 0 300 38z" />
    <glyph glyph-name="d" unicode="d" horiz-adv-x="1886" 
d="M1563 1739l116 730h238l-325 -2046q-21 -135 -57 -304q-289 -143 -678 -143q-176 0 -298.5 30.5t-208 99.5t-125.5 182.5t-40 278.5q0 138 29 324q41 257 109 430.5t176 281.5t251 155t342 47q228 0 471 -66zM1135 1604q-91 0 -165 -10t-134.5 -32t-107.5 -52t-85 -76
t-66 -98t-50.5 -123.5t-39 -147t-32.5 -174.5q-26 -159 -26 -278q0 -225 106 -330.5t354 -105.5q108 0 225 20.5t208 59.5q28 134 51 280l158 997q-80 30 -189.5 50t-206.5 20z" />
    <glyph glyph-name="e" unicode="e" horiz-adv-x="1896" 
d="M269 891q39 248 104.5 416.5t173.5 282t261.5 164.5t369.5 51q178 0 304.5 -37.5t200 -111.5t107 -173t33.5 -232q0 -110 -22 -248q-14 -86 -31 -169q-153 -25 -419 -50.5t-452 -33.5l-416 -17q-5 -73 -5 -123q0 -111 22.5 -187.5t77.5 -132.5t152.5 -82.5t242.5 -26.5
q259 0 623 50l-8 -196q-192 -29 -355 -44t-386 -15q-167 0 -286 43.5t-188 126.5t-100 191.5t-31 251.5q0 132 27 302zM506 917l465 22q310 14 585 49q11 42 24 125q11 72 11 130q0 178 -104 271t-338 93q-108 0 -193 -18.5t-150 -58.5t-113 -95t-84 -135t-60 -171.5
t-43 -211.5z" />
    <glyph glyph-name="f" unicode="f" horiz-adv-x="1106" 
d="M850 1982l-32 -201h393l-30 -192h-393l-252 -1589h-237l251 1589h-310l30 192h311l30 191q40 255 188.5 388t398.5 133q80 0 146 -12l-47 -180h-83q-313 0 -364 -319z" />
    <glyph glyph-name="g" unicode="g" horiz-adv-x="1898" 
d="M166 -616l51 193q339 -54 586 -54q142 0 237.5 22.5t157.5 74.5t94.5 126.5t50.5 188.5l23 147q-264 -66 -491 -66q-325 0 -473.5 130t-148.5 441q0 137 29 323q40 254 112 425t187.5 276t267 149.5t363.5 44.5q389 0 633 -143q-15 -150 -39 -304l-237 -1497
q-20 -130 -70 -226.5t-117 -156t-160.5 -95.5t-189 -49.5t-214.5 -13.5q-276 0 -652 64zM523 910q-29 -182 -29 -295q0 -107 24.5 -179.5t81.5 -122.5t150.5 -73t231.5 -23q97 0 212 20t205 50l152 957q23 150 37 280q-78 39 -188.5 59.5t-219.5 20.5q-128 0 -226 -28.5
t-169.5 -82t-122.5 -140t-83.5 -193t-55.5 -250.5z" />
    <glyph glyph-name="h" unicode="h" horiz-adv-x="1900" 
d="M1580 0h-238l178 1118q18 116 18 187q0 106 -39 168t-138 94t-273 32q-224 0 -449 -78l-241 -1521h-237l391 2469h237l-117 -738q269 73 520 74q139 1 243 -18.5t170.5 -54t107.5 -88.5t57 -115.5t16 -142.5q0 -82 -21 -218z" />
    <glyph glyph-name="i" unicode="i" horiz-adv-x="728" 
d="M604 2139q-67 0 -94.5 23.5t-27.5 79.5q0 23 7 72q16 100 52.5 139.5t118.5 39.5q66 0 94 -24.5t28 -82.5q0 -23 -7 -72q-15 -99 -51 -137t-120 -38zM146 0l282 1781h239l-282 -1781h-239z" />
    <glyph glyph-name="j" unicode="j" horiz-adv-x="739" 
d="M636 2139q-67 0 -94.5 23.5t-27.5 79.5q0 23 7 72q16 100 52.5 139.5t118.5 39.5q67 0 95 -24.5t28 -82.5q0 -23 -7 -72q-16 -99 -52 -137t-120 -38zM166 -73l295 1854h238l-285 -1799q-56 -354 -217.5 -508t-459.5 -154q-38 0 -56 2l48 185q69 5 118.5 15.5t105 38
t94 71t71 118.5t48.5 177z" />
    <glyph glyph-name="k" unicode="k" horiz-adv-x="1653" 
d="M789 2469l-239 -1508l889 820h288l-956 -870l724 -911h-311l-653 840l-133 -840h-237l391 2469h237z" />
    <glyph glyph-name="l" unicode="l" horiz-adv-x="730" 
d="M202 461l318 2008h237l-315 -1991q-13 -88 -13 -149q0 -168 82 -302l-219 -106q-106 151 -106 359q0 75 16 181z" />
    <glyph glyph-name="m" unicode="m" horiz-adv-x="2941" 
d="M616 1235l-195 -1235h-237l214 1352q21 135 57 304q157 64 361 106.5t381 42.5q308 0 428 -144q311 144 665 144q121 0 211.5 -21.5t148.5 -58t94 -92.5t50 -118t14 -141q0 -90 -20 -217l-183 -1157h-238l176 1114q17 108 17 185q0 160 -84.5 230.5t-293.5 70.5
q-103 0 -232.5 -30t-243.5 -88q9 -54 9 -112q0 -90 -20 -213l-183 -1157h-237l176 1114q17 107 17 183q0 160 -85 231.5t-293 71.5q-85 0 -211.5 -25t-211.5 -61q-33 -164 -51 -279z" />
    <glyph glyph-name="n" unicode="n" horiz-adv-x="1962" 
d="M1398 0l176 1113q19 126 19 192q0 105 -38 167.5t-135 95.5t-266 33q-112 0 -257 -25t-230 -62q-28 -131 -51 -279l-196 -1235h-237l214 1352q21 135 57 304q166 69 375.5 109t436.5 40q136 0 237 -20.5t165 -56t103 -89.5t54 -115t15 -139q0 -93 -22 -228l-183 -1157
h-237z" />
    <glyph glyph-name="o" unicode="o" horiz-adv-x="1944" 
d="M897 -24q-346 0 -499 135.5t-153 447.5q0 145 30 332q40 254 107.5 424.5t177.5 281.5t261.5 159.5t365.5 48.5q344 0 497.5 -137.5t153.5 -449.5q0 -133 -30 -327q-40 -249 -107 -419.5t-176.5 -282.5t-262 -162.5t-365.5 -50.5zM485 573q0 -114 24 -189.5t78.5 -120.5
t133.5 -63.5t198 -18.5q153 0 258 34t183.5 118t127 218t81.5 340q29 186 29 311q0 221 -99 309.5t-335 88.5q-102 0 -179 -13t-144 -45.5t-116 -84t-89 -131.5t-69 -186t-52 -249q-30 -189 -30 -318z" />
    <glyph glyph-name="p" unicode="p" horiz-adv-x="1887" 
d="M455 42l-111 -698h-238l319 2014q22 145 58 304q289 143 678 143q176 0 298.5 -30.5t208 -100t125.5 -183t40 -278.5q0 -137 -29 -323q-41 -257 -109 -430.5t-176 -281.5t-251 -155t-342 -47q-228 0 -471 66zM882 177q91 0 165 10t135 32t108 52t85 76t66 98t50.5 123.5
t39 147t32.5 174.5q26 159 26 278q0 225 -106 330.5t-354 105.5q-108 0 -225 -20.5t-208 -59.5q-28 -134 -51 -280l-158 -997q80 -30 189 -50t206 -20z" />
    <glyph glyph-name="q" unicode="q" horiz-adv-x="1888" 
d="M1237 -656l111 698q-266 -66 -493 -66q-324 0 -471 132.5t-147 445.5q0 146 30 336q28 174 68.5 308.5t99 237t132 172.5t170 114t209 63.5t254.5 19.5q176 0 342 -35t291 -108q-13 -131 -40 -304l-318 -2014h-238zM1575 1524q-77 39 -188 59.5t-219 20.5
q-161 0 -275 -43t-190 -136t-120.5 -220t-74.5 -315t-30 -310q0 -144 44.5 -230t151 -129.5t289.5 -43.5q97 0 212 20t205 50l158 997q27 176 37 280z" />
    <glyph glyph-name="r" unicode="r" horiz-adv-x="1145" 
d="M418 0h-237l215 1358q22 145 58 304q289 143 678 143q94 0 161 -8l-52 -206q-60 7 -142 7q-107 0 -225 -21t-209 -60q-28 -129 -51 -280z" />
    <glyph glyph-name="s" unicode="s" horiz-adv-x="1544" 
d="M550 1291q0 -27 5.5 -50.5t13 -42t23 -35.5t29.5 -29.5t38.5 -25.5t43.5 -21.5t51 -20t54 -18.5t60.5 -19.5t62.5 -20.5q83 -28 138.5 -49.5t115 -50.5t96 -59t67.5 -70t44.5 -89.5t13.5 -110.5q0 -47 -9 -102q-18 -115 -65.5 -202.5t-114.5 -143.5t-158.5 -91.5
t-190 -49.5t-218.5 -14q-291 0 -546 59l54 191q243 -42 442 -42q58 0 93 1t95.5 6.5t100.5 15.5t89 30.5t80.5 49.5t57 74t34.5 102q5 29 5 62q0 49 -16.5 86.5t-43.5 63.5t-75 49t-96 40t-122 41q-15 5 -23 7q-179 58 -237 84q-158 72 -208 188q-28 65 -28 147q0 50 8 97
q17 109 59.5 192t102.5 136.5t143 87.5t173.5 47.5t200.5 13.5q286 0 560 -59l-54 -188q-237 43 -431 43q-53 0 -89 -1t-91 -6t-93.5 -14.5t-83 -28t-73.5 -44.5t-52 -66t-31 -90q-5 -37 -5 -60z" />
    <glyph glyph-name="t" unicode="t" horiz-adv-x="1148" 
d="M669 2245l245 39l-80 -503h389l-30 -192h-389l-177 -1114q-10 -61 -10 -111q0 -112 59.5 -150.5t199.5 -38.5q43 0 96 5l-10 -185q-114 -19 -191 -19q-206 0 -303 80t-97 252q0 60 12 134l182 1147h-318l30 192h319z" />
    <glyph glyph-name="u" unicode="u" horiz-adv-x="1955" 
d="M275 624l184 1157h237l-176 -1113q-20 -127 -20 -201q0 -104 37.5 -164t134 -91.5t267.5 -31.5q110 0 253.5 25t228.5 62q28 131 51 279l196 1235h236l-214 -1352q-18 -120 -56 -304q-361 -149 -808 -149q-136 0 -237 20.5t-164.5 56t-102.5 89.5t-54 115t-15 139
q0 91 22 228z" />
    <glyph glyph-name="v" unicode="v" horiz-adv-x="1825" 
d="M1932 1781l-881 -1632q-48 -88 -98.5 -130.5t-115.5 -42.5q-67 0 -106 42t-58 131l-356 1632h253l316 -1516l803 1516h243z" />
    <glyph glyph-name="w" unicode="w" horiz-adv-x="2780" 
d="M597 1781l145 -1514l652 1205q47 88 91.5 128t103.5 40q61 0 94.5 -41t51.5 -127l250 -1203l633 1512h235l-703 -1630q-75 -175 -206 -175q-64 0 -99 42.5t-55 132.5l-254 1175l-644 -1175q-50 -91 -97.5 -133t-110.5 -42q-136 0 -155 176l-177 1629h245z" />
    <glyph glyph-name="x" unicode="x" horiz-adv-x="1769" 
d="M996 1117l539 664h261l-703 -849l477 -932h-281l-369 738l-598 -738h-265l765 926l-435 855h277z" />
    <glyph glyph-name="y" unicode="y" horiz-adv-x="1685" 
d="M930 443l651 1338h240l-1199 -2437h-241l389 781l-443 1656h254z" />
    <glyph glyph-name="z" unicode="z" horiz-adv-x="1715" 
d="M1700 1603l-1265 -1399h1028l-32 -204h-1267q-51 0 -75 22t-18 60q6 45 54 97l1268 1404h-1008l31 198h1244q51 0 75.5 -22.5t18.5 -59.5q-6 -42 -54 -96z" />
    <glyph glyph-name="braceleft" unicode="{" horiz-adv-x="981" 
d="M581 318l-27 -177q-15 -102 -15 -171q0 -275 218 -315l-49 -179q-96 16 -165.5 45t-124 79.5t-81.5 129t-27 185.5q0 79 15 176q43 276 43 422q0 150 -42.5 229t-138.5 101l29 181q156 33 235.5 202t139.5 550q20 126 57.5 223.5t87.5 164t119 113t144 72.5t170 41
l-7 -178q-83 -15 -146 -57.5t-103.5 -109.5t-66 -144t-41.5 -176l-29 -177q-13 -79 -25.5 -139t-39.5 -142t-60 -140.5t-87.5 -112.5t-121.5 -81q161 -84 161 -368q0 -97 -22 -247z" />
    <glyph glyph-name="bar" unicode="|" horiz-adv-x="794" 
d="M288 -656v3125h219v-3125h-219z" />
    <glyph glyph-name="braceright" unicode="}" horiz-adv-x="980" 
d="M546 1548l29 177q16 98 16 171q0 274 -219 316l48 178q96 -16 166 -45.5t124.5 -79.5t81.5 -129t27 -186q0 -78 -15 -174q-43 -277 -43 -423q0 -150 42 -228.5t138 -100.5l-28 -181q-156 -34 -235.5 -202.5t-139.5 -549.5q-20 -126 -58 -224t-88 -164.5t-119 -113
t-143.5 -72.5t-169.5 -41l7 179q83 15 146 57t104 108.5t66 143.5t41 177l28 177q12 74 25.5 136t40.5 141t61 139t87.5 115t119.5 84q-165 76 -165 354q0 107 25 261z" />
    <glyph glyph-name="asciitilde" unicode="~" horiz-adv-x="1994" 
d="M1701 1309h220q-61 -246 -196.5 -378.5t-299.5 -132.5q-100 0 -186.5 31t-146.5 75t-114 87.5t-115.5 74.5t-124.5 31q-94 0 -160.5 -69t-115.5 -216h-221q61 246 196.5 378t299.5 132q100 0 186.5 -31t146.5 -75t114.5 -88t115.5 -75t124 -31q94 0 160 69.5t117 217.5z
" />
    <glyph glyph-name="uni00A0" unicode="&#xa0;" horiz-adv-x="950" 
 />
    <glyph glyph-name="exclamdown" unicode="&#xa1;" horiz-adv-x="748" 
d="M553 1429q-66 0 -94.5 24.5t-28.5 82.5q0 24 7 71q16 100 52 138t120 38q66 0 93.5 -23t27.5 -79q0 -33 -7 -74q-15 -99 -51.5 -138.5t-118.5 -39.5zM91 -571l303 1651h207l-221 -1651h-289z" />
    <glyph glyph-name="cent" unicode="&#xa2;" horiz-adv-x="1406" 
d="M1254 484l-9 -190q-222 -45 -388 -50l-48 -307h-179l50 312q-126 15 -215 62.5t-139 124.5t-72.5 170t-22.5 212q0 130 31 331q25 161 58 279.5t86.5 224t127 175t179.5 116.5t245 64l51 315h178l-49 -305q195 0 369 -50l-46 -180q-165 29 -278 29q-100 0 -178.5 -8.5
t-141.5 -29t-110 -47t-84 -70.5t-62.5 -90.5t-46.5 -116.5t-35.5 -139t-29.5 -167q-33 -212 -33 -321q0 -78 14 -135.5t48 -105.5t91 -78t143 -46t204 -16q107 0 292 37z" />
    <glyph glyph-name="sterling" unicode="&#xa3;" horiz-adv-x="1874" 
d="M571 1043h-339l31 196h310q4 241 36 442q22 141 79.5 248t136 173.5t185 108t217.5 57.5t244 16q124 0 219 -28t157.5 -73t125.5 -117l-151 -152q-158 153 -373 153q-155 0 -262.5 -27t-177 -87t-107 -144t-57.5 -209q-20 -127 -22 -361h518l-31 -196h-493
q-7 -137 -25 -254q-26 -161 -80 -287t-150 -284h582q247 0 511 36l-10 -200q-299 -54 -722 -54h-564q-64 0 -90 27.5t-19 73.5q4 25 31.5 71t65.5 105.5t78 130t75 164t50 188.5q19 128 21 283z" />
    <glyph glyph-name="currency" unicode="&#xa4;" horiz-adv-x="2012" 
d="M1573 701l236 -227l-155 -153l-232 235q-190 -136 -416 -136q-235 0 -421 136l-232 -235l-150 154l235 229q-137 183 -137 411q0 233 138 417l-236 233l150 151l236 -236q187 136 417 136t416 -133l232 232l154 -150l-235 -228q143 -187 143 -422q0 -231 -143 -414z
M1004 637q127 0 238.5 62t180 173t68.5 244q0 131 -64 242t-176 176.5t-247 65.5q-129 0 -239.5 -63.5t-176.5 -175t-66 -245.5q0 -127 62.5 -237t174 -176t245.5 -66z" />
    <glyph glyph-name="yen" unicode="&#xa5;" horiz-adv-x="1733" 
d="M642 2260l316 -1111l679 1111h247l-728 -1184h306l-27 -176h-387l-13 -21l-33 -205h397l-28 -174h-396l-79 -500h-246l79 500h-390l29 174h388l33 205l-6 21h-380l27 176h301l-346 1184h257z" />
    <glyph glyph-name="brokenbar" unicode="&#xa6;" horiz-adv-x="732" 
d="M256 -471v1076h220v-1076h-220zM256 1209v1075h220v-1075h-220z" />
    <glyph glyph-name="section" unicode="&#xa7;" horiz-adv-x="1772" 
d="M1679 873q-40 -257 -419 -458q164 -151 164 -329q0 -25 -5 -57q-16 -97 -58 -177t-103.5 -134.5t-135.5 -95t-159.5 -63t-168.5 -33t-170 -10.5q-298 0 -559 61l57 198q278 -50 477 -50q50 0 83.5 1t94.5 6.5t103.5 16t96 32.5t88.5 52t63.5 77.5t37.5 107.5q3 23 3 42
q0 29 -8 56t-18.5 49t-33 45.5t-40 39.5t-52.5 37t-56.5 33.5t-65.5 33t-66.5 30.5t-72.5 31q-66 28 -107 47t-102 51.5t-99.5 60.5t-82.5 70t-69 85t-42 100t-17 120q0 46 7 89q45 281 403 454q-135 128 -135 280q0 33 6 69q37 231 225 372t478 141q306 0 559 -59l-54 -193
q-253 50 -479 50q-203 0 -332 -76.5t-151 -215.5q-3 -21 -3 -40q0 -38 13.5 -73t32 -62.5t55 -56.5t66 -48.5t81 -45.5t84 -40.5t91.5 -40.5t101 -45.5t98.5 -50.5t95.5 -59t81 -67.5t67 -81t41.5 -94t16.5 -109.5q0 -36 -6 -73zM1448 899q0 93 -69 168t-234 154
q-45 22 -162.5 69t-187.5 86q-293 -133 -322 -314q-6 -33 -6 -65q0 -91 58.5 -164.5t203.5 -144.5q60 -29 179 -74.5t195 -83.5q69 33 121 63.5t101.5 69.5t80 85.5t38.5 97.5q4 24 4 53z" />
    <glyph glyph-name="dieresis" unicode="&#xa8;" horiz-adv-x="1227" 
d="M496 1968q-63 0 -100 44t-27 108t61.5 108.5t113.5 44.5t98 -44.5t25 -108.5t-60 -108t-111 -44zM1020 1968q-63 0 -99.5 44.5t-26.5 107.5q11 64 61.5 108.5t113.5 44.5q62 0 98 -44.5t25 -108.5t-60 -108t-112 -44z" />
    <glyph glyph-name="copyright" unicode="&#xa9;" horiz-adv-x="2748" 
d="M1774 896h190q-13 -138 -94 -244t-205.5 -161.5t-272.5 -55.5q-151 0 -270 57t-193.5 157.5t-113 232t-38.5 286.5q0 110 24.5 215t75.5 198t123 163t173 110.5t219 40.5q97 0 190.5 -26t174.5 -75.5t137 -131.5t70 -186h-190q-20 121 -125 187.5t-257 66.5
q-182 0 -298.5 -150t-116.5 -412q0 -265 112 -412.5t303 -147.5q143 0 251 78.5t131 209.5zM1374 2354q163 0 318 -42t285.5 -117.5t239.5 -184.5t185 -239t118.5 -284.5t42.5 -318.5q0 -163 -42.5 -318t-118.5 -286t-185 -240.5t-239.5 -186t-285.5 -119t-318 -42.5
t-318 42.5t-285.5 119t-239.5 186t-185 240.5t-118.5 286t-42.5 318q0 164 42.5 318.5t118.5 284.5t185 239t239.5 184.5t285.5 117.5t318 42zM1374 2185q-209 0 -395.5 -79t-321 -214t-213.5 -324t-79 -400q0 -171 50 -328.5t142.5 -282.5t216.5 -218t278.5 -143.5
t321.5 -50.5t321.5 50.5t278.5 143.5t216.5 218t142.5 282.5t50 328.5q0 211 -78.5 400t-213 324t-321.5 214t-396 79z" />
    <glyph glyph-name="ordfeminine" unicode="&#xaa;" horiz-adv-x="1371" 
d="M1307 1931l-88 -556q-18 -113 -39 -204q-211 -99 -508 -99q-212 0 -311.5 64t-99.5 208q0 44 7 87q52 324 359 371q140 21 489 33l7 47q8 51 8 86q0 97 -60.5 139t-209.5 42q-151 0 -401 -36l7 139q262 43 447 43q72 0 129 -7t109 -26t86.5 -49.5t55 -80t20.5 -115.5
q0 -43 -7 -86zM711 1215q175 0 312 52q24 131 32 181l41 256q-314 -9 -431 -32q-100 -20 -150.5 -71.5t-68.5 -165.5q-5 -27 -5 -60q0 -92 63 -126t207 -34z" />
    <glyph glyph-name="guillemotleft" unicode="&#xab;" horiz-adv-x="1575" 
d="M469 862l310 -655h-242l-351 655l559 656h241zM1062 862l310 -655h-241l-351 655l559 656h240z" />
    <glyph glyph-name="logicalnot" unicode="&#xac;" horiz-adv-x="2077" 
d="M1946 1293l-151 -954h-240l116 730h-1348l36 224h1587z" />
    <glyph glyph-name="uni00AD" unicode="&#xad;" horiz-adv-x="1304" 
d="M286 780l34 211h838l-34 -211h-838z" />
    <glyph glyph-name="registered" unicode="&#xae;" horiz-adv-x="1788" 
d="M750 1576v-348h-135v837h295q170 0 247.5 -61.5t77.5 -180.5q0 -89 -45.5 -148.5t-129.5 -79.5l180 -367h-151l-168 348h-171zM171 1633q0 149 56.5 282.5t153 229.5t230.5 152.5t283 56.5q148 0 282 -56.5t230.5 -152.5t153 -229.5t56.5 -282.5q0 -198 -96 -364.5
t-262 -263t-364 -96.5t-364.5 96.5t-262.5 263t-96 364.5zM1486 1633q0 165 -78 302t-214 215.5t-300 78.5t-300 -78.5t-214 -215.5t-78 -302q0 -167 78.5 -305t214 -216.5t299.5 -78.5t299.5 78.5t214 216.5t78.5 305zM894 1950h-144v-260h149q103 0 153 32t50 101t-51 98
t-157 29z" />
    <glyph glyph-name="macron" unicode="&#xaf;" horiz-adv-x="1361" 
d="M385 2026l28 175h896l-28 -175h-896z" />
    <glyph glyph-name="degree" unicode="&#xb0;" horiz-adv-x="1265" 
d="M632 1419q-127 0 -234.5 62.5t-170 170.5t-62.5 235q0 193 137 330t330 137t330.5 -137t137.5 -330q0 -95 -37 -181.5t-100 -149.5t-149.5 -100t-181.5 -37zM632 1592q123 0 209 85.5t86 209.5q0 122 -86 208t-209 86t-209 -86t-86 -208q0 -124 86 -209.5t209 -85.5z" />
    <glyph glyph-name="plusminus" unicode="&#xb1;" horiz-adv-x="1968" 
d="M996 1310l96 604h236l-96 -604h675l-34 -219h-675l-98 -614h-236l97 614h-675l34 219h676zM119 43l36 223h1587l-35 -223h-1588z" />
    <glyph glyph-name="twosuperior" unicode="&#xb2;" horiz-adv-x="1068" 
d="M368 2681q233 41 411 41q410 0 410 -263q0 -36 -5 -65q-28 -179 -143 -293.5t-318 -193.5q-161 -63 -234 -148t-120 -239h676l-25 -155h-881q27 83 47 138.5t44.5 116t46.5 100.5t51 82.5t59.5 72t71 59.5t87 54.5t105.5 48.5q154 62 244 138t108 189q4 23 4 47
q0 88 -73 123.5t-244 35.5q-129 0 -327 -30z" />
    <glyph glyph-name="threesuperior" unicode="&#xb3;" horiz-adv-x="1069" 
d="M1147 2398q-36 -230 -234 -323q71 -31 115.5 -94t44.5 -155q0 -34 -5 -61q-18 -117 -65 -198t-121.5 -127.5t-166.5 -66.5t-214 -20q-193 0 -372 39l42 144q219 -31 313 -31q191 0 284.5 53.5t115.5 196.5q4 23 4 48q0 79 -45.5 125.5t-124.5 55.5q-70 9 -203 9h-79
l21 138q153 3 286 23q91 14 148.5 71.5t71.5 141.5q5 32 5 52q0 42 -15 71t-38 45t-63 25t-78.5 11.5t-96.5 2.5q-130 0 -335 -30l4 142q207 38 381 38q73 0 131 -6t115 -23t95 -45t61 -75.5t23 -110.5q0 -36 -5 -66z" />
    <glyph glyph-name="acute" unicode="&#xb4;" horiz-adv-x="745" 
d="M244 1905l363 478h287l-458 -478h-192z" />
    <glyph glyph-name="mu" unicode="&#xb5;" horiz-adv-x="1946" 
d="M159 -656l386 2437h225l-181 -1142q-9 -54 -9 -106q0 -153 77 -245t228 -92q147 0 269 97t200 261.5t112 378.5l134 848h227l-185 -1170q-30 -184 -30 -259q0 -162 108 -200l-28 -176q-71 0 -124 22t-84 57.5t-50 88t-25 104.5t-6 117h-2q-95 -185 -242.5 -287
t-307.5 -102q-113 0 -193 43.5t-146 137.5l-129 -813h-224z" />
    <glyph glyph-name="paragraph" unicode="&#xb6;" horiz-adv-x="2018" 
d="M915 -513h-201l239 1510q-152 1 -276 44t-206 117.5t-126 175t-44 217.5q0 46 8 102q35 224 156.5 377t308 226.5t431.5 73.5h824l-451 -2843h-201l422 2662h-462z" />
    <glyph glyph-name="periodcentered" unicode="&#xb7;" horiz-adv-x="739" 
d="M294 882q0 23 7 72q16 100 53 139t118 39q66 0 94 -24t28 -82q0 -25 -7 -72q-16 -100 -51.5 -138t-119.5 -38q-67 0 -94.5 23.5t-27.5 80.5z" />
    <glyph glyph-name="cedilla" unicode="&#xb8;" horiz-adv-x="713" 
d="M139 -260l192 260h160l-135 -173q94 -5 156 -56t62 -136q0 -17 -3 -36q-22 -135 -128.5 -199.5t-252.5 -64.5q-132 0 -220 55l63 122q88 -45 180 -45q39 0 73 9.5t63.5 37.5t36.5 71q6 41 -17.5 72.5t-64.5 48.5t-83.5 25.5t-81.5 8.5z" />
    <glyph glyph-name="onesuperior" unicode="&#xb9;" horiz-adv-x="713" 
d="M420 1370l183 1156q-154 -42 -330 -68l14 147q203 32 385 108h135l-213 -1343h-174z" />
    <glyph glyph-name="ordmasculine" unicode="&#xba;" horiz-adv-x="1434" 
d="M1387 1902q0 -92 -20 -218q-52 -330 -191.5 -471t-422.5 -141q-233 0 -337 91t-104 301q0 92 20 220q53 334 191.5 472.5t422.5 138.5q233 0 337 -92t104 -301zM492 1476q0 -145 64 -200.5t215 -55.5q131 0 211 43t129 142.5t78 278.5q19 117 19 203q0 144 -64 202
t-216 58q-131 0 -209 -39t-128 -139t-79 -285q-20 -126 -20 -208z" />
    <glyph glyph-name="guillemotright" unicode="&#xbb;" horiz-adv-x="1575" 
d="M931 862l-559 -655h-241l518 655l-310 656h241zM1525 862l-559 -655h-241l517 655l-310 656h242z" />
    <glyph glyph-name="onequarter" unicode="&#xbc;" horiz-adv-x="2370" 
d="M1772 0l51 319h-534q-75 0 -100 28t-17 78q8 56 99 155l626 683q86 95 168 95q38 0 60.5 -21t22.5 -63q0 -14 -3 -30l-124 -782h177l-23 -143h-177l-50 -319h-176zM767 2331h135l-213 -1344h-174l183 1156q-172 -45 -331 -67l15 146q210 33 385 109zM2177 2378
l-1725 -2426h-197l1725 2426h197zM1362 462h484l102 644z" />
    <glyph glyph-name="onehalf" unicode="&#xbd;" horiz-adv-x="2618" 
d="M1697 1317q237 41 413 41q411 0 411 -260q0 -35 -5 -64q-28 -179 -144 -296t-319 -196q-84 -33 -142 -70t-97.5 -86t-64.5 -101.5t-48 -129.5h676l-25 -155h-882q37 112 62.5 180.5t59 141.5t67 117.5t81 89.5t105.5 78t136 65q155 63 245 139t107 189q4 23 4 47
q0 88 -73 123t-244 35q-138 0 -327 -30zM372 2076l15 146q209 33 385 109h135l-212 -1344h-175l183 1156q-172 -45 -331 -67zM1986 2378h198l-1726 -2426h-196z" />
    <glyph glyph-name="threequarters" unicode="&#xbe;" horiz-adv-x="2614" 
d="M1236 2015q-36 -231 -233 -322q71 -32 115.5 -95t44.5 -155q0 -25 -5 -60q-19 -117 -66 -198.5t-121.5 -128t-166.5 -66.5t-214 -20q-184 0 -372 39l43 144q210 -30 312 -30q191 0 285 53.5t116 196.5q4 23 4 47q0 78 -46 125.5t-125 56.5q-76 9 -193 9q-57 0 -89 -1
l22 139q159 3 286 22q90 14 147.5 71.5t71.5 141.5q5 32 5 53q0 42 -15 70.5t-37.5 45t-63 25t-78.5 11t-96 2.5q-132 0 -335 -30l4 142q210 39 380 39q73 0 131.5 -6t115.5 -23t94.5 -45.5t61 -75.5t23.5 -110q0 -31 -6 -67zM2016 0l50 319h-533q-75 0 -100 28t-17 78
q9 59 97 155l628 683q88 95 168 95q37 0 59.5 -21t22.5 -63q0 -14 -3 -30l-124 -782h177l-23 -143h-177l-50 -319h-175zM2420 2378l-1725 -2426h-196l1724 2426h197zM1605 462h484l102 644z" />
    <glyph glyph-name="questiondown" unicode="&#xbf;" horiz-adv-x="1642" 
d="M1023 1080h210l-29 -202q-1 -5 -5.5 -38t-6.5 -46q-13 -81 -46.5 -137.5t-80 -86.5t-104 -48.5t-119 -30.5t-124 -25t-120.5 -38.5t-106.5 -65.5t-84.5 -112t-52 -172q-14 -87 -14 -149q0 -177 122 -241t439 -64q233 0 502 48l11 -205q-304 -62 -609 -62q-100 0 -177 4.5
t-155.5 17.5t-135.5 35.5t-108 58.5t-83 86t-50 119.5t-18 156.5q0 85 16 182q21 132 62.5 231.5t94.5 158.5t116 99t129 60t131 34.5t124.5 29t107.5 37t82 66t46 107.5zM1060 1536q0 24 7 71q16 100 52 138t120 38q67 0 94.5 -23.5t27.5 -80.5q0 -23 -7 -72
q-16 -100 -53 -139t-119 -39q-66 0 -94 24.5t-28 82.5z" />
    <glyph glyph-name="Agrave" unicode="&#xc0;" horiz-adv-x="2150" 
d="M253 0h-258l1135 2179q91 175 228 175q138 0 174 -175l435 -2179h-268l-129 670h-976zM1292 2583l-347 387h307l247 -387h-207zM699 875h831l-228 1184z" />
    <glyph glyph-name="Aacute" unicode="&#xc1;" horiz-adv-x="2150" 
d="M1571 670h-977l-341 -670h-258l1136 2179q91 175 228 175t173 -175l435 -2179h-267zM1290 2563l370 387h306l-469 -387h-207zM699 875h832l-228 1184z" />
    <glyph glyph-name="Acircumflex" unicode="&#xc2;" horiz-adv-x="2151" 
d="M253 0h-258l1136 2179q91 175 228 175q138 0 174 -175l435 -2179h-268l-129 670h-977zM1339 2950h210l274 -387h-209l-186 267l-272 -267h-205zM699 875h832l-228 1184z" />
    <glyph glyph-name="Atilde" unicode="&#xc3;" horiz-adv-x="2150" 
d="M1688 2911h149q-38 -152 -117.5 -234t-164.5 -82q-51 0 -89.5 16.5t-60 40.5t-39.5 47.5t-39.5 40t-48.5 16.5q-82 0 -132 -154h-150q38 152 117.5 234t164.5 82q51 0 89 -16.5t60.5 -40t40.5 -47.5t39.5 -40.5t48.5 -16.5q82 0 132 154zM-5 0l1135 2179q91 175 228 175
q138 0 174 -175l435 -2179h-268l-129 670h-976l-341 -670h-258zM1530 875l-228 1184l-603 -1184h831z" />
    <glyph glyph-name="Adieresis" unicode="&#xc4;" horiz-adv-x="2150" 
d="M253 0h-258l1135 2179q91 175 229 175q137 0 173 -175l435 -2179h-268l-129 670h-976zM1133 2599q-62 0 -99 44t-27 108t61 108.5t113 44.5t98 -44.5t26 -108.5t-60 -108t-112 -44zM1658 2599q-63 0 -99.5 44t-26.5 108t61 108.5t113 44.5t98 -44.5t26 -108.5t-60 -108
t-112 -44zM699 875h831l-228 1184z" />
    <glyph glyph-name="Aring" unicode="&#xc5;" horiz-adv-x="2150" 
d="M1382 2531q-118 0 -194.5 78t-76.5 195q0 29 4 53q21 134 129.5 229.5t240.5 95.5q118 0 195 -78.5t77 -195.5q0 -28 -4 -51q-22 -135 -130.5 -230.5t-240.5 -95.5zM1623 2857q2 10 2 30q0 70 -45 116t-116 46q-79 0 -142.5 -56t-76.5 -136q-3 -17 -3 -32
q0 -69 45.5 -115t115.5 -46q78 0 142.5 56t77.5 137zM253 0h-258l1135 2179q91 175 229 175q137 0 173 -175l435 -2179h-268l-129 670h-976zM699 875h831l-228 1184z" />
    <glyph glyph-name="AE" unicode="&#xc6;" horiz-adv-x="2979" 
d="M253 0h-258l1088 2083q141 271 498 271q223 0 308 -153q56 45 127 74t158.5 41.5t160 16t179.5 3.5q235 0 559 -14l-32 -201h-571q-109 0 -183.5 -7t-135.5 -27.5t-97.5 -50t-66 -82.5t-46 -117t-32.5 -162l-61 -383h1015l-33 -210h-1015l-68 -430q-19 -120 -19 -192
q0 -62 14 -104.5t43.5 -72t83 -45.5t124 -22.5t174.5 -6.5h571l-32 -204q-250 -11 -563 -11q-90 0 -149.5 2t-138 10t-129 23.5t-105.5 44t-86.5 69t-52 101t-20.5 138.5q0 54 11 126l25 162h-903zM699 875h832l153 968q10 60 10 110q0 98 -43 140.5t-136 42.5
q-48 0 -89 -15t-69 -36t-57.5 -60.5t-47 -70t-44.5 -83.5z" />
    <glyph glyph-name="Ccedilla" unicode="&#xc7;" horiz-adv-x="1729" 
d="M1865 2098q-238 37 -393 37q-149 0 -266.5 -22t-203.5 -59t-152 -104.5t-110 -138t-79 -181.5t-56 -212.5t-45 -252.5q-46 -291 -46 -447q0 -135 30.5 -228.5t103.5 -161.5t200.5 -100.5t315.5 -32.5q166 0 405 36l-8 -202q-222 -46 -471 -52l-104 -134q94 -5 156 -56
t62 -136q0 -17 -3 -36q-11 -70 -47.5 -122.5t-89.5 -82.5t-114.5 -44.5t-129.5 -14.5q-132 0 -220 55l63 122q88 -45 180 -45q63 0 113 27.5t60 90.5q6 41 -17.5 72.5t-64.5 48.5t-83.5 25.5t-81.5 8.5l165 222q-186 9 -315.5 55.5t-209.5 135t-115.5 214t-35.5 300.5
q0 198 45 482q25 160 55 289t69.5 245.5t88.5 205.5t112.5 164.5t141 127t174 87.5t211.5 53t253 17q277 0 513 -51z" />
    <glyph glyph-name="Egrave" unicode="&#xc8;" horiz-adv-x="1760" 
d="M1853 2322l-31 -201h-572q-109 0 -183.5 -7t-135 -27.5t-97.5 -50t-66 -82.5t-45.5 -117t-32.5 -162l-61 -383h1014l-33 -210h-1014l-68 -430q-20 -128 -20 -194q0 -149 92 -199t347 -50h572l-33 -204q-250 -11 -563 -11q-106 0 -174 3t-156.5 14.5t-143.5 37t-107 67
t-76 108.5t-24 157q0 55 11 127l209 1312q16 103 51.5 184t78.5 134.5t109.5 91.5t126 58.5t147.5 31.5t154 13.5t165 2.5q235 0 559 -14zM1314 2545l-349 387h307l248 -387h-206z" />
    <glyph glyph-name="Eacute" unicode="&#xc9;" horiz-adv-x="1759" 
d="M1852 2322l-31 -201h-572q-109 0 -183.5 -7t-135 -27.5t-97.5 -50t-66 -82.5t-45.5 -117t-32.5 -162l-61 -383h1014l-33 -210h-1014l-68 -430q-19 -120 -19 -193q0 -150 91.5 -200t346.5 -50h572l-32 -204q-252 -11 -564 -11q-69 0 -116.5 1t-110.5 5t-106 11.5
t-94.5 21.5t-85.5 34t-68 49t-54 66.5t-32.5 88t-12.5 111.5q0 54 11 126l208 1312q16 103 51.5 184t78.5 134.5t109.5 91.5t126 58.5t147.5 31.5t154 13.5t165 2.5q235 0 559 -14zM1117 2545l369 387h307l-469 -387h-207z" />
    <glyph glyph-name="Ecircumflex" unicode="&#xca;" horiz-adv-x="1760" 
d="M1853 2322l-31 -201h-572q-109 0 -183.5 -7t-135 -27.5t-97.5 -50t-66 -82.5t-45.5 -117t-32.5 -162l-61 -383h1014l-33 -210h-1014l-68 -430q-19 -120 -19 -193q0 -150 91.5 -200t346.5 -50h572l-32 -204q-252 -11 -564 -11q-106 0 -174 3t-156.5 14.5t-143.5 37
t-107 67t-76 108.5t-24 157q0 55 11 127l209 1312q16 103 51.5 184t78.5 134.5t109.5 91.5t126 58.5t147.5 31.5t154 13.5t165 2.5q235 0 559 -14zM1235 2932h210l274 -387h-209l-185 267l-273 -267h-205z" />
    <glyph glyph-name="Edieresis" unicode="&#xcb;" horiz-adv-x="1759" 
d="M1852 2322l-32 -201h-572q-109 0 -183.5 -7t-135 -27.5t-97.5 -50t-66 -82.5t-46 -117t-32 -162l-60 -383h1014l-33 -210h-1014l-68 -430q-20 -128 -20 -194q0 -149 92 -199t347 -50h572l-33 -204q-250 -11 -563 -11q-69 0 -116.5 1t-110.5 5t-106 11.5t-94.5 21.5
t-85.5 34t-68 49t-54 66.5t-32.5 88t-12.5 111.5q0 54 11 126l207 1312q13 81 37 148t54 116.5t74 88.5t86 65.5t101.5 45t109 28.5t120 15.5t123 7t128.5 1.5q233 0 559 -14zM1036 2583q-63 0 -99.5 44.5t-26.5 107.5q10 64 61 108.5t113 44.5q63 0 99 -44.5t25 -108.5
q-10 -64 -59.5 -108t-112.5 -44zM1561 2583q-62 0 -98.5 44t-26.5 108t60.5 108.5t112.5 44.5q63 0 99 -44.5t26 -108.5q-11 -64 -60.5 -108t-112.5 -44z" />
    <glyph glyph-name="Igrave" unicode="&#xcc;" horiz-adv-x="805" 
d="M184 0l369 2330h252l-369 -2330h-252zM615 2553l-347 387h306l247 -387h-206z" />
    <glyph glyph-name="Iacute" unicode="&#xcd;" horiz-adv-x="805" 
d="M184 0l369 2330h252l-369 -2330h-252zM606 2553l371 387h307l-471 -387h-207z" />
    <glyph glyph-name="Icircumflex" unicode="&#xce;" horiz-adv-x="806" 
d="M665 2924h210l274 -387h-209l-186 267l-272 -267h-205zM184 0l369 2330h253l-369 -2330h-253z" />
    <glyph glyph-name="Idieresis" unicode="&#xcf;" horiz-adv-x="806" 
d="M458 2576q-63 0 -100 44t-27 108q11 64 61.5 108.5t112.5 44.5t98.5 -44.5t25.5 -108.5q-10 -64 -59.5 -108t-111.5 -44zM982 2576q-62 0 -99 44t-27 108q11 64 61.5 108.5t112.5 44.5t98.5 -44.5t25.5 -108.5q-10 -64 -59.5 -108t-112.5 -44zM184 0l369 2330h253
l-369 -2330h-253z" />
    <glyph glyph-name="Eth" unicode="&#xd0;" horiz-adv-x="2282" 
d="M452 1109h-198l29 189h199l159 1003q331 53 702 53q242 0 406.5 -43t262 -134.5t139 -219t41.5 -310.5q0 -195 -46 -482q-25 -157 -52.5 -279t-66.5 -240t-87.5 -206t-114.5 -166t-149 -131t-188 -92t-234.5 -57t-287.5 -18q-368 0 -685 55zM703 1109l-140 -888
q217 -30 370 -30q132 0 241.5 17t192.5 40.5t152 73.5t115.5 91t86 119.5t62.5 132.5t46 156t34 163.5t30 180.5q49 307 49 448q0 100 -18.5 177t-65.5 144.5t-125 111t-201.5 68.5t-289.5 25q-146 0 -380 -29l-129 -812h368l-30 -189h-368z" />
    <glyph glyph-name="Ntilde" unicode="&#xd1;" horiz-adv-x="2293" 
d="M911 2187l832 -1848l316 1991h231l-344 -2171q-14 -93 -62.5 -138t-121.5 -45q-67 0 -112 40t-85 128l-831 1849l-315 -1993h-232l344 2171q15 93 63.5 138t120.5 45q65 0 111.5 -40.5t84.5 -126.5zM1771 2909h149q-38 -152 -117.5 -234t-164.5 -82q-51 0 -89 16.5
t-60 40.5t-40.5 47.5t-40 40t-47.5 16.5q-83 0 -132 -154h-150q38 152 117.5 234t164.5 82q51 0 89 -16.5t60.5 -40t40.5 -47.5t39.5 -40.5t48.5 -16.5q82 0 132 154z" />
    <glyph glyph-name="Ograve" unicode="&#xd2;" horiz-adv-x="2214" 
d="M1012 -24q-270 0 -432.5 74t-236 226.5t-73.5 402.5q0 191 46 486q34 217 78 381.5t106.5 301t143.5 229t189.5 156t245 92.5t309.5 29q400 0 570.5 -164.5t170.5 -537.5q0 -202 -46 -487q-34 -217 -77.5 -381.5t-106 -301t-143.5 -229t-189.5 -156t-245 -92.5
t-309.5 -29zM518 671q0 -92 14.5 -163t50 -132t94 -100t148.5 -61t211 -22q127 0 229 25.5t175.5 66t132 113.5t96 144t69 183t50 205.5t40.5 234.5q54 343 54 492q0 117 -24 201t-81 149t-160 97.5t-253 32.5q-100 0 -184 -15.5t-150 -40.5t-121 -70t-95 -90.5t-74 -116
t-57 -133t-44.5 -154.5t-35.5 -167.5t-31 -184.5q-54 -344 -54 -494zM1405 2552l-348 387h307l247 -387h-206z" />
    <glyph glyph-name="Oacute" unicode="&#xd3;" horiz-adv-x="2214" 
d="M1012 -24q-270 0 -432.5 74t-236 226.5t-73.5 402.5q0 191 46 486q34 217 78 381.5t106.5 301t143.5 229t189.5 156t245 92.5t309.5 29q400 0 570.5 -164.5t170.5 -537.5q0 -202 -46 -487q-34 -217 -77.5 -381.5t-106 -301t-143.5 -229t-189.5 -156t-245 -92.5
t-309.5 -29zM518 671q0 -92 14.5 -163t50 -132t94 -100t148.5 -61t211 -22q127 0 229 25.5t175.5 66t132 113.5t96 144t69 183t50 205.5t40.5 234.5q54 343 54 492q0 117 -24 201t-81 149t-160 97.5t-253 32.5q-100 0 -184 -15.5t-150 -40.5t-121 -70t-95 -90.5t-74 -116
t-57 -133t-44.5 -154.5t-35.5 -167.5t-31 -184.5q-54 -344 -54 -494zM1246 2552l370 387h306l-469 -387h-207z" />
    <glyph glyph-name="Ocircumflex" unicode="&#xd4;" horiz-adv-x="2215" 
d="M1012 -24q-270 0 -432 74t-235.5 226.5t-73.5 403.5q0 198 45 485q34 217 78 381.5t106.5 301t143.5 229t190 156t245.5 92.5t309.5 29q400 0 570.5 -164.5t170.5 -537.5q0 -202 -46 -487q-34 -217 -78 -381.5t-106.5 -301t-143.5 -229t-189.5 -156t-245 -92.5
t-309.5 -29zM572 1165q-54 -344 -54 -494q0 -92 14.5 -163t50 -132t94 -100t148.5 -61t211 -22q127 0 229.5 25.5t176 66t132 113.5t95.5 144t69 183t50.5 205.5t40.5 234.5q54 343 54 491q0 117 -24 201t-81.5 149.5t-160.5 98t-253 32.5q-100 0 -184 -15.5t-150 -40.5
t-121 -70t-95 -90.5t-74 -116t-57 -133t-44.5 -154.5t-35.5 -167.5t-31 -184.5zM1374 2939h209l273 -387h-208l-186 267l-273 -267h-205z" />
    <glyph glyph-name="Otilde" unicode="&#xd5;" horiz-adv-x="2215" 
d="M1718 2884h149q-38 -152 -117.5 -234t-164.5 -82q-51 0 -89.5 16.5t-60 40t-39.5 47.5t-39.5 40.5t-48.5 16.5q-82 0 -132 -154h-150q38 152 117.5 234t164.5 82q51 0 89 -16.5t60 -40.5t40.5 -47.5t40 -40t47.5 -16.5q83 0 133 154zM316 1165q34 217 78 381.5t106.5 301
t143.5 229t190 156t245.5 92.5t309.5 29q270 0 432 -74t235 -226.5t73 -402.5q0 -197 -45 -486q-34 -217 -78 -381.5t-106.5 -301t-143.5 -229t-189.5 -156t-245 -92.5t-309.5 -29q-270 0 -432 74t-235.5 226.5t-73.5 403.5q0 198 45 485zM1036 193q127 0 229.5 25.5t176 66
t132 113.5t95.5 144t69 183t50.5 205.5t40.5 234.5q54 343 54 491q0 117 -24 201.5t-81.5 149.5t-160.5 97.5t-253 32.5q-128 0 -230 -25.5t-175.5 -65.5t-132 -113.5t-95.5 -143.5t-68.5 -183.5t-49.5 -205.5t-41 -235q-54 -344 -54 -494q0 -92 14.5 -163t50 -132t94 -100
t148.5 -61t211 -22z" />
    <glyph glyph-name="Odieresis" unicode="&#xd6;" horiz-adv-x="2214" 
d="M1012 -24q-270 0 -432.5 74t-236 226.5t-73.5 402.5q0 191 46 486q34 217 77.5 381.5t106.5 301t144 229t190 156t245.5 92.5t309.5 29q399 0 569.5 -164.5t170.5 -537.5q0 -202 -46 -487q-34 -217 -77.5 -381.5t-106 -301t-143.5 -229t-190 -156t-245 -92.5t-309 -29z
M518 671q0 -92 14.5 -163t50 -132t94 -100t148.5 -61t211 -22q127 0 229 25.5t175.5 66t132 113.5t96 144t69 183t50 205.5t40.5 234.5q54 343 54 492q0 117 -24 201t-81.5 149t-160 97.5t-252.5 32.5q-100 0 -184 -15.5t-150 -40.5t-121 -70t-95 -90.5t-74 -116t-57 -133
t-44.5 -154.5t-35.5 -167.5t-31 -184.5q-54 -344 -54 -494zM1162 2569q-63 0 -100 44t-27 108q11 64 61.5 108.5t112.5 44.5t98.5 -44.5t25.5 -108.5q-10 -64 -59.5 -108t-111.5 -44zM1686 2569q-62 0 -99 44t-27 108q11 64 61.5 108.5t112.5 44.5t98.5 -44.5t25.5 -108.5
q-10 -64 -59.5 -108t-112.5 -44z" />
    <glyph glyph-name="multiply" unicode="&#xd7;" horiz-adv-x="1781" 
d="M1407 254l-465 566l-643 -566l-131 160l643 564l-464 565l184 160l464 -564l641 563l128 -158l-639 -563l464 -564z" />
    <glyph glyph-name="Oslash" unicode="&#xd8;" horiz-adv-x="2214" 
d="M512 85l-161 -217l-148 105l177 239q-110 162 -110 466q0 202 46 487q34 217 77.5 381.5t106.5 301t143.5 229t189.5 156t245.5 92.5t309.5 29q326 0 498 -109l161 217l148 -105l-177 -239q110 -162 110 -468q0 -198 -45 -485q-34 -217 -78 -381.5t-106.5 -301
t-143.5 -229t-189.5 -156t-245 -92.5t-309.5 -29q-327 0 -499 109zM1848 1888l-1186 -1601q123 -94 374 -94q127 0 229 25.5t175.5 66t132 113.5t96 144t69 183t50 205.5t40.5 234.5q54 343 54 491q0 139 -34 232zM551 442l1185 1601q-123 94 -373 94q-128 0 -230 -25.5
t-175.5 -65.5t-131.5 -113.5t-95 -143.5t-68.5 -183.5t-49.5 -205t-41 -235.5q-54 -344 -54 -493q0 -139 33 -230z" />
    <glyph glyph-name="Ugrave" unicode="&#xd9;" horiz-adv-x="2180" 
d="M2185 2330l-249 -1577q-29 -181 -89 -317t-142.5 -223t-196 -140.5t-238 -75t-281.5 -21.5q-136 0 -242.5 16t-198 55.5t-151.5 103.5t-93.5 162t-33.5 228q0 95 18 212l249 1577h250l-254 -1603q-12 -78 -12 -144q0 -198 120 -292.5t382 -94.5q307 0 461.5 128
t197.5 403l253 1603h250zM1371 2536l-348 387h307l247 -387h-206z" />
    <glyph glyph-name="Uacute" unicode="&#xda;" horiz-adv-x="2179" 
d="M2185 2330l-250 -1577q-29 -181 -89 -317t-142 -223t-196 -140.5t-238.5 -75t-281.5 -21.5q-136 0 -242 16t-197.5 55.5t-151.5 103.5t-93.5 162t-33.5 228q0 95 18 212l249 1577h250l-254 -1603q-12 -78 -12 -144q0 -198 120 -292.5t382 -94.5q307 0 461 128t197 403
l254 1603h250zM1227 2536l371 387h306l-470 -387h-207z" />
    <glyph glyph-name="Ucircumflex" unicode="&#xdb;" horiz-adv-x="2180" 
d="M2185 2330l-249 -1577q-29 -181 -89 -317t-142.5 -223t-196 -140.5t-238 -75t-281.5 -21.5q-136 0 -242.5 16t-198 55.5t-151.5 103.5t-93.5 162t-33.5 228q0 95 18 212l249 1577h250l-254 -1603q-12 -78 -12 -144q0 -198 120 -292.5t382 -94.5q307 0 461.5 128
t197.5 403l253 1603h250zM1364 2923h211l273 -387h-210l-184 267l-273 -267h-206z" />
    <glyph glyph-name="Udieresis" unicode="&#xdc;" horiz-adv-x="2180" 
d="M2186 2330l-250 -1577q-29 -181 -89 -317t-142 -223t-196 -140.5t-238.5 -75t-281.5 -21.5q-113 0 -204.5 11.5t-174.5 36.5t-144 68.5t-106 105t-67.5 147.5t-22.5 195q0 96 18 213l250 1577h250l-254 -1603q-12 -78 -12 -144q0 -198 120 -292.5t382 -94.5
q307 0 461 128t197 403l255 1603h249zM1140 2577q-62 0 -99 44t-27 108q11 64 61.5 108.5t112.5 44.5t98 -44.5t26 -108.5q-11 -64 -60.5 -108t-111.5 -44zM1665 2577q-62 0 -99 44t-27 108q11 64 61 108.5t113 44.5q62 0 98.5 -44.5t25.5 -108.5q-10 -64 -60 -108t-112 -44
z" />
    <glyph glyph-name="Yacute" unicode="&#xdd;" horiz-adv-x="1849" 
d="M1098 906l-144 -906h-253l143 906l-503 1424h274l401 -1163l779 1163h264zM1084 2526l371 387h307l-471 -387h-207z" />
    <glyph glyph-name="Thorn" unicode="&#xde;" horiz-adv-x="1963" 
d="M164 0l369 2330h252l-70 -441q232 24 449 24q100 0 181.5 -5.5t165.5 -20t148.5 -39t122.5 -64.5t95.5 -93.5t59 -128.5t21.5 -168q0 -71 -14 -163q-19 -121 -56.5 -219.5t-88 -170.5t-119 -125.5t-143.5 -88t-169 -55.5t-188.5 -29.5t-207.5 -8.5q-154 0 -469 17
l-87 -551h-252zM537 765q199 -21 442 -21q127 0 223.5 13t183 45.5t146 87t101.5 140t60 201.5q11 69 11 121q0 187 -131.5 269t-429.5 82q-220 0 -463 -32z" />
    <glyph glyph-name="germandbls" unicode="&#xdf;" horiz-adv-x="2009" 
d="M642 1596l-253 -1596h-237l253 1596q76 482 281.5 689.5t603.5 207.5q321 0 476.5 -118.5t155.5 -318.5q0 -42 -8 -93q-12 -76 -40.5 -138.5t-67 -105.5t-85 -79t-96 -63t-98.5 -51.5t-94.5 -51t-81.5 -56.5t-61.5 -71.5t-33.5 -92.5q-3 -21 -3 -39q0 -59 32.5 -103
t84.5 -72.5t114.5 -55.5t125.5 -60t115 -76t84.5 -114.5t32.5 -164.5q0 -47 -9 -102q-17 -107 -57.5 -191.5t-97 -140t-130.5 -92t-154.5 -52t-172.5 -15.5q-229 0 -456 67l50 192q223 -54 351 -54q39 0 64.5 1t70.5 6.5t76 15t70 30t65 48.5t47.5 72t30.5 99q5 33 5 57
q0 56 -20 100t-54 74.5t-77.5 56t-92 47t-97 44.5t-92 53t-77.5 67t-54 91.5t-20 122.5q0 43 7 88q15 96 56.5 168t96.5 115t118.5 77.5t126.5 66t117 68.5t93.5 96.5t52.5 139.5q4 30 4 45q0 117 -104.5 187.5t-321.5 70.5q-140 0 -238.5 -33.5t-173.5 -114.5t-123 -212.5
t-80 -331.5z" />
    <glyph glyph-name="agrave" unicode="&#xe0;" horiz-adv-x="1821" 
d="M1697 1264l-134 -841q-21 -135 -57 -304q-307 -143 -753 -143q-313 0 -459.5 94t-146.5 308q0 56 11 130q38 238 165 377.5t360 174.5q228 34 755 52l12 79q11 75 11 130q0 151 -93.5 216t-327.5 65q-232 0 -591 -51l9 192q395 62 659 62q106 0 190 -10.5t161 -38.5
t128.5 -73.5t81.5 -118.5t30 -171q0 -55 -11 -129zM810 174q273 0 486 80q25 117 50 280l63 396q-479 -10 -670 -48q-160 -32 -238 -110.5t-106 -257.5q-8 -54 -8 -92q0 -142 98.5 -195t324.5 -53zM1056 2511l213 -478h-193l-306 478h286z" />
    <glyph glyph-name="aacute" unicode="&#xe1;" horiz-adv-x="1822" 
d="M1697 1264l-133 -841q-22 -145 -58 -304q-305 -143 -752 -143q-313 0 -460 94t-147 308q0 56 11 130q38 238 165.5 377.5t360.5 174.5q227 34 755 52l12 79q11 75 11 130q0 151 -93.5 216t-327.5 65q-232 0 -591 -51l9 192q397 62 659 62q106 0 190 -10.5t161 -38.5
t128 -73t81 -118.5t30 -171.5q0 -55 -11 -129zM811 174q273 0 486 80q25 117 50 280l63 396q-479 -10 -670 -48q-160 -32 -238 -110.5t-106 -257.5q-8 -54 -8 -92q0 -142 98.5 -195t324.5 -53zM1666 2508l-458 -478h-193l364 478h287z" />
    <glyph glyph-name="acircumflex" unicode="&#xe2;" horiz-adv-x="1822" 
d="M1697 1264l-133 -841q-21 -135 -57 -304q-308 -143 -753 -143q-314 0 -460.5 94t-146.5 308q0 56 11 130q38 238 165.5 377.5t360.5 174.5q226 34 755 52l12 79q12 82 12 131q0 150 -94.5 215t-327.5 65q-232 0 -591 -51l9 192q395 62 658 62q106 0 190 -10.5t161 -38.5
t128.5 -73.5t81.5 -119t30 -171.5q0 -56 -11 -128zM811 174q273 0 485 80q28 134 51 280l63 396q-479 -10 -670 -48q-160 -32 -238 -110.5t-106 -257.5q-8 -54 -8 -92q0 -142 98.5 -195t324.5 -53zM1559 2020h-196l-160 330l-268 -330h-192l382 478h196z" />
    <glyph glyph-name="atilde" unicode="&#xe3;" horiz-adv-x="1821" 
d="M1697 1264l-133 -841q-27 -168 -58 -304q-307 -143 -753 -143q-313 0 -459.5 94t-146.5 308q0 56 11 130q38 239 165.5 378t360.5 174q226 34 754 52l13 79q12 72 12 131q0 150 -94.5 215t-327.5 65q-232 0 -591 -51l9 192q395 62 658 62q106 0 190 -10.5t161 -38.5
t128.5 -73.5t81.5 -119t30 -171.5q0 -56 -11 -128zM1058 2436q50 0 88 -17t60 -42t39.5 -49.5t39 -41.5t48.5 -17q84 0 134 160h149q-39 -159 -119 -244.5t-165 -85.5q-51 0 -89 17.5t-60 42t-40 49t-39.5 42t-47.5 17.5q-82 0 -133 -160h-150q39 158 119 243.5t166 85.5z
M1347 534l63 396q-479 -10 -671 -48q-160 -32 -238 -110.5t-106 -257.5q-8 -54 -8 -92q0 -142 98.5 -195t324.5 -53q274 0 486 80q28 134 51 280z" />
    <glyph glyph-name="adieresis" unicode="&#xe4;" horiz-adv-x="1822" 
d="M1697 1264l-133 -841q-21 -135 -57 -304q-307 -143 -753 -143q-314 0 -460.5 94t-146.5 308q0 56 11 130q38 238 166 377.5t361 174.5q226 34 754 52l13 79q12 72 12 131q0 150 -94.5 215t-327.5 65q-231 0 -592 -51l10 192q393 62 657 62q106 0 190 -10.5t161 -38.5
t128.5 -73.5t81.5 -119t30 -171.5q0 -56 -11 -128zM811 174q273 0 486 80q28 134 51 280l62 396q-479 -10 -670 -48q-160 -32 -238 -110.5t-106 -257.5q-8 -54 -8 -92q0 -142 98.5 -195t324.5 -53zM962 2407q62 0 98 -44.5t25 -108.5t-60.5 -108t-111.5 -44q-63 0 -99.5 44
t-26.5 108t61 108.5t114 44.5zM1486 2407q63 0 99 -44.5t26 -108.5q-11 -64 -61 -108t-112 -44q-63 0 -99.5 44.5t-26.5 107.5q11 64 61.5 108.5t112.5 44.5z" />
    <glyph glyph-name="aring" unicode="&#xe5;" horiz-adv-x="1822" 
d="M1697 1264l-133 -841q-21 -135 -57 -304q-307 -143 -753 -143q-314 0 -460.5 94t-146.5 308q0 56 11 130q37 238 165 377.5t361 174.5q228 34 755 52l12 79q11 75 11 130q0 151 -93.5 216t-327.5 65q-232 0 -591 -51l9 192q395 62 659 62q106 0 190 -10.5t161 -38.5
t128 -73t81 -118.5t30 -171.5q0 -55 -11 -129zM811 174q273 0 486 80q25 117 50 280l63 396q-479 -10 -670 -48q-160 -32 -238 -110.5t-106 -257.5q-8 -54 -8 -92q0 -142 98.5 -195t324.5 -53zM875 2310q21 134 130 229.5t240 95.5q118 0 195 -78t77 -194q0 -29 -4 -53
q-22 -135 -130 -230.5t-241 -95.5q-118 0 -194.5 78t-76.5 195q0 29 4 53zM1386 2340q0 69 -45.5 115.5t-115.5 46.5q-79 0 -143 -56t-77 -136q-3 -16 -3 -32q0 -69 45.5 -115t115.5 -46q79 0 143.5 56t77.5 137q2 10 2 30z" />
    <glyph glyph-name="ae" unicode="&#xe6;" horiz-adv-x="3031" 
d="M1475 104q-302 -128 -721 -128q-313 0 -460 94t-147 308q0 56 11 130q38 238 165.5 377.5t360.5 174.5q227 34 755 52l12 79q11 74 11 129q0 151 -94 216.5t-327 65.5q-232 0 -591 -51l9 192q395 62 658 62q106 0 188.5 -11t157 -37.5t126 -76t76.5 -120.5
q105 126 262.5 185.5t384.5 59.5q179 0 305 -37.5t200 -111.5t107.5 -173.5t33.5 -232.5q0 -109 -22 -247q-15 -94 -32 -169q-152 -25 -418.5 -50.5t-451.5 -33.5l-416 -17q-5 -70 -5 -120q0 -112 23 -189t78.5 -133.5t152 -83t240.5 -26.5q258 0 624 50l-9 -196
q-191 -29 -354 -44t-387 -15q-353 0 -490 211zM1347 534l64 396q-480 -10 -671 -48q-160 -32 -238 -110.5t-106 -257.5q-8 -54 -8 -93q0 -142 99 -194.5t324 -52.5q273 0 485 80q20 96 51 280zM2714 1113q11 72 11 130q0 177 -105 270.5t-339 93.5q-109 0 -194.5 -18.5
t-150.5 -58.5t-112 -94.5t-82 -135.5t-58.5 -171.5t-42.5 -211.5l464 22q310 14 585 49q11 42 24 125z" />
    <glyph glyph-name="ccedilla" unicode="&#xe7;" horiz-adv-x="1469" 
d="M1510 1568q-161 30 -286 30q-81 0 -148.5 -5.5t-125 -19t-103 -30.5t-83.5 -45.5t-67 -58.5t-53.5 -74t-42 -88.5t-33.5 -106t-27.5 -121t-24.5 -139.5q-35 -220 -35 -332q0 -79 14.5 -138.5t50 -109t94 -80t147.5 -47.5t210 -17q106 0 300 38l-7 -196q-228 -45 -397 -51
l-105 -134q94 -5 156.5 -56t62.5 -136q0 -17 -3 -36q-11 -70 -47.5 -122.5t-89.5 -82.5t-114.5 -44.5t-129.5 -14.5q-131 0 -221 55l65 122q87 -45 179 -45q39 0 73 9.5t63.5 37.5t36.5 71q6 41 -17.5 72.5t-64.5 48.5t-83.5 25.5t-81.5 8.5l165 224q-112 9 -197.5 42.5
t-141 85t-91 125t-50 155.5t-14.5 183q0 145 31 339q21 131 46 233.5t62.5 198.5t86.5 166t116.5 128t152.5 94t195 55.5t244 19.5q205 0 383 -51z" />
    <glyph glyph-name="egrave" unicode="&#xe8;" horiz-adv-x="1897" 
d="M270 891q39 248 104.5 416.5t173 282t261 164.5t369.5 51q179 0 305 -37.5t200 -111.5t107.5 -173.5t33.5 -232.5q0 -109 -22 -247q-15 -94 -32 -169q-153 -25 -418.5 -50.5t-451.5 -33.5l-416 -17q-5 -73 -5 -124q0 -111 22.5 -187t77.5 -132.5t152.5 -82.5t242.5 -26
q257 0 623 50l-9 -196q-191 -29 -354 -44t-386 -15q-134 0 -237.5 29t-172.5 80.5t-113 129t-63 168.5t-19 205q0 131 27 303zM507 917l464 22q309 14 586 49q10 45 23 125q11 74 11 132q0 176 -104 269t-337 93q-108 0 -193 -18.5t-150 -58.5t-113 -95t-84 -135t-60 -171.5
t-43 -211.5zM1196 2511l212 -478h-193l-307 478h288z" />
    <glyph glyph-name="eacute" unicode="&#xe9;" horiz-adv-x="1896" 
d="M270 891q39 248 104 416.5t173 282t261.5 164.5t369.5 51q178 0 304.5 -37.5t200 -111.5t107 -173t33.5 -232q0 -110 -22 -248q-14 -86 -31 -169q-153 -25 -419 -50.5t-452 -33.5l-416 -17q-5 -73 -5 -124q0 -111 22.5 -187t77.5 -132.5t152.5 -82.5t242.5 -26
q258 0 624 50l-9 -196q-192 -29 -355 -44t-386 -15q-166 0 -285 43t-188 126t-100 191.5t-31 250.5q0 132 27 304zM506 917l465 22q311 14 585 49q14 62 24 125q11 72 11 131q0 177 -104.5 270t-337.5 93q-108 0 -193 -18.5t-150 -58.5t-113 -95t-84 -135t-60 -171.5
t-43 -211.5zM1761 2503l-458 -478h-193l364 478h287z" />
    <glyph glyph-name="ecircumflex" unicode="&#xea;" horiz-adv-x="1897" 
d="M270 891q39 248 104.5 416.5t173 282t261 164.5t369.5 51q143 0 253 -25t184 -70.5t121 -115t67.5 -153.5t20.5 -190q0 -110 -22 -248q-14 -86 -31 -169q-153 -25 -419 -50.5t-452 -33.5l-416 -17q-5 -73 -5 -123q0 -111 22.5 -187.5t77.5 -132.5t152.5 -82.5
t242.5 -26.5q257 0 623 50l-9 -196q-191 -29 -354 -44t-386 -15q-167 0 -286 43.5t-188 126.5t-100 191.5t-31 251.5q0 132 27 302zM507 917l464 22q312 14 586 49q14 62 24 125q12 71 12 132q0 176 -105 269t-338 93q-108 0 -193 -18.5t-150 -58.5t-113 -95t-84 -135
t-60 -171.5t-43 -211.5zM1646 2020h-196l-161 330l-268 -330h-191l382 478h196z" />
    <glyph glyph-name="edieresis" unicode="&#xeb;" horiz-adv-x="1897" 
d="M270 891q39 248 104.5 416.5t173 282t261 164.5t369.5 51q143 0 253 -25t184 -70.5t121 -115t67.5 -153.5t20.5 -190q0 -110 -22 -248q-14 -86 -31 -169q-153 -25 -419 -50.5t-452 -33.5l-416 -17q-5 -73 -5 -124q0 -111 22.5 -187t77.5 -132.5t152.5 -82.5t242.5 -26
q257 0 623 50l-9 -196q-191 -29 -354 -44t-386 -15q-134 0 -237.5 29t-172.5 80.5t-113 129t-63 168.5t-19 205q0 131 27 303zM507 917l464 22q312 14 586 49q14 62 24 125q11 72 11 131q0 177 -104.5 270t-337.5 93q-108 0 -193 -18.5t-150 -58.5t-113 -95t-84 -135
t-60 -171.5t-43 -211.5zM1053 2407q62 0 98 -44.5t26 -108.5q-11 -64 -60.5 -108t-111.5 -44q-63 0 -99.5 44.5t-26.5 107.5q10 64 61 108.5t113 44.5zM1578 2407q62 0 98 -44.5t26 -108.5q-11 -64 -60.5 -108t-111.5 -44q-63 0 -99.5 44t-26.5 108t61 108.5t113 44.5z" />
    <glyph glyph-name="igrave" unicode="&#xec;" horiz-adv-x="726" 
d="M146 0l282 1781h237l-282 -1781h-237zM488 2056l-307 478h286l213 -478h-192z" />
    <glyph glyph-name="iacute" unicode="&#xed;" horiz-adv-x="727" 
d="M146 0l282 1781h238l-282 -1781h-238zM501 2056l363 478h287l-457 -478h-193z" />
    <glyph glyph-name="icircumflex" unicode="&#xee;" horiz-adv-x="727" 
d="M566 2544h197l238 -478h-196l-161 330l-267 -330h-192zM146 0l282 1781h238l-282 -1781h-238z" />
    <glyph glyph-name="idieresis" unicode="&#xef;" horiz-adv-x="728" 
d="M340 2117q-62 0 -99.5 44t-27.5 108t61.5 108.5t113.5 44.5t98 -44.5t25 -108.5q-10 -64 -59.5 -108t-111.5 -44zM865 2117q-63 0 -100 44t-27 108t61.5 108.5t113.5 44.5t98 -44.5t25 -108.5q-10 -64 -59.5 -108t-111.5 -44zM146 0l282 1781h239l-282 -1781h-239z" />
    <glyph glyph-name="eth" unicode="&#xf0;" horiz-adv-x="1911" 
d="M1564 2260l293 103l57 -136l-287 -101q147 -357 147 -813q0 -220 -34 -433q-39 -247 -106 -415t-176 -279t-261.5 -160.5t-365.5 -49.5q-346 0 -499.5 134t-153.5 444q0 142 30 326q51 325 156 516t285.5 280t464.5 89q257 0 391 -93q-36 197 -107 373l-297 -104l-55 137
l292 102q-62 125 -146 243l220 70q88 -109 152 -233zM1501 880q27 168 27 288q0 216 -100 304t-337 88q-153 0 -255.5 -30.5t-181 -108.5t-126.5 -208t-80 -333q-30 -194 -30 -311q0 -113 24.5 -188t79 -119.5t133.5 -62.5t198 -18q153 0 258 33.5t183 116t126.5 214
t80.5 335.5z" />
    <glyph glyph-name="ntilde" unicode="&#xf1;" horiz-adv-x="1962" 
d="M616 1235l-196 -1235h-237l214 1352q26 160 57 304q359 149 812 149q136 0 237 -20.5t165 -56t103 -89.5t54 -115t15 -139q0 -93 -22 -228l-183 -1157h-238l176 1113q19 116 19 193q0 105 -38 167.5t-134.5 95t-265.5 32.5q-112 0 -257 -25t-231 -62q-29 -143 -50 -279z
M1557 2439h148q-39 -159 -119 -244.5t-165 -85.5q-51 0 -89 17.5t-60 42t-40 49t-39.5 42t-47.5 17.5q-83 0 -133 -160h-150q40 158 119.5 243.5t164.5 85.5q51 0 89 -17t60 -42t40 -49.5t39.5 -41.5t48.5 -17q83 0 134 160z" />
    <glyph glyph-name="ograve" unicode="&#xf2;" horiz-adv-x="1943" 
d="M896 -24q-345 0 -498 135t-153 447q0 146 30 333q40 254 107 424.5t177 281.5t261.5 159.5t365.5 48.5q344 0 497.5 -137.5t153.5 -449.5q0 -133 -30 -327q-40 -249 -107 -419.5t-176.5 -282.5t-262 -162.5t-365.5 -50.5zM485 573q0 -114 24 -189.5t78.5 -120.5
t133.5 -63.5t198 -18.5q153 0 258 34t183.5 118t126.5 218t81 340q30 193 30 312q0 220 -99.5 308.5t-335.5 88.5q-102 0 -179 -13t-144 -45.5t-115.5 -84t-89 -131.5t-69.5 -186t-51 -249q-30 -189 -30 -318zM1202 2033l-306 478h287l212 -478h-193z" />
    <glyph glyph-name="oacute" unicode="&#xf3;" horiz-adv-x="1943" 
d="M896 -24q-345 0 -498 135t-153 447q0 146 30 333q40 254 107 424.5t176.5 281.5t261 159.5t365.5 48.5q345 0 498.5 -137.5t153.5 -449.5q0 -133 -30 -327q-40 -249 -107 -419.5t-176.5 -282.5t-262 -162.5t-365.5 -50.5zM1568 891q30 193 30 311q0 220 -99 309t-335 89
q-102 0 -179 -13t-144 -45.5t-116 -84t-89 -131.5t-69 -186t-52 -249q-30 -189 -30 -318q0 -114 24 -189.5t78.5 -120.5t133.5 -63.5t198 -18.5q153 0 258 34t183.5 118t126.5 218t81 340zM1065 2047l364 478h287l-457 -478h-194z" />
    <glyph glyph-name="ocircumflex" unicode="&#xf4;" horiz-adv-x="1944" 
d="M897 -24q-346 0 -499 135.5t-153 447.5q0 145 30 332q40 254 107.5 424.5t177.5 281.5t261.5 159.5t365.5 48.5q344 0 497.5 -137.5t153.5 -449.5q0 -133 -30 -327q-39 -249 -106.5 -419.5t-177 -282.5t-262 -162.5t-365.5 -50.5zM1569 891q29 186 29 311
q0 221 -99 309.5t-335 88.5q-102 0 -179 -13t-144 -45.5t-115.5 -84t-89 -131.5t-69 -186t-51.5 -249q-30 -189 -30 -318q0 -114 24 -189.5t78.5 -120.5t133.5 -63.5t197 -18.5q153 0 258 34t183.5 118t127 218t81.5 340zM1195 2508h197l238 -478h-196l-161 330l-268 -330
h-192z" />
    <glyph glyph-name="otilde" unicode="&#xf5;" horiz-adv-x="1944" 
d="M1530 2419h149q-39 -159 -119 -244.5t-165 -85.5q-51 0 -89 17.5t-60 42t-39.5 49t-39 42t-48.5 17.5q-82 0 -133 -160h-150q39 158 119 243.5t165 85.5q51 0 89 -17t60 -42t39.5 -49.5t39 -41.5t48.5 -17q43 0 75.5 38.5t58.5 121.5zM275 891q40 254 107 424.5
t177 281.5t261.5 159.5t365.5 48.5q344 0 497.5 -137.5t153.5 -450.5q0 -140 -29 -326q-40 -249 -107 -419.5t-176.5 -282.5t-262 -162.5t-365.5 -50.5q-346 0 -499 135t-153 447q0 146 30 333zM919 181q153 0 258 34t183.5 118t127 218t81.5 340q30 193 30 312
q0 220 -99.5 308.5t-335.5 88.5q-102 0 -179 -13t-144 -45.5t-116 -84t-89 -131.5t-69 -186t-52 -249q-30 -189 -30 -318q0 -114 24 -189.5t78.5 -120.5t133.5 -63.5t198 -18.5z" />
    <glyph glyph-name="odieresis" unicode="&#xf6;" horiz-adv-x="1944" 
d="M897 -24q-346 0 -499 135.5t-153 447.5q0 145 30 332q40 254 107 424.5t177 281.5t261.5 159.5t365.5 48.5q344 0 497.5 -137.5t153.5 -450.5q0 -140 -29 -326q-40 -249 -107 -419.5t-176.5 -282.5t-262 -162.5t-365.5 -50.5zM516 891q-30 -189 -30 -318q0 -114 24 -189
t78.5 -120.5t133.5 -64t197 -18.5q153 0 258 34t183.5 118t127 218t81.5 340q30 193 30 312q0 220 -99.5 308.5t-335.5 88.5q-102 0 -179 -13t-144 -45.5t-115.5 -84t-89 -131.5t-69 -186t-51.5 -249zM972 2102q-63 0 -99.5 44.5t-26.5 107.5q10 64 61 108.5t113 44.5
t98 -44.5t26 -108.5q-11 -64 -60.5 -108t-111.5 -44zM1497 2102q-63 0 -99.5 44t-26.5 108t61 108.5t113 44.5t98 -44.5t26 -108.5q-11 -64 -60.5 -108t-111.5 -44z" />
    <glyph glyph-name="divide" unicode="&#xf7;" horiz-adv-x="1902" 
d="M890 103q-66 0 -108.5 43.5t-42.5 109.5q0 20 2 30q12 76 72.5 129t134.5 53q66 0 109 -43.5t43 -109.5q0 -19 -2 -29q-12 -76 -73 -129.5t-135 -53.5zM1110 1489q-66 0 -109 44t-43 110q0 19 2 29q12 76 73 129t135 53q66 0 109 -43.5t43 -109.5q0 -19 -2 -29
q-12 -76 -73 -129.5t-135 -53.5zM218 867l35 224h1587l-35 -224h-1587z" />
    <glyph glyph-name="oslash" unicode="&#xf8;" horiz-adv-x="1943" 
d="M472 58l-151 -190l-113 88l153 192q-117 136 -117 409q0 139 31 334q40 254 107.5 424.5t177 281.5t261 159.5t365.5 48.5q272 0 423 -85l152 192l113 -87l-155 -195q117 -139 117 -414q0 -139 -29 -325q-39 -249 -106.5 -419.5t-177 -282.5t-262 -162.5t-365.5 -50.5
q-276 0 -424 82zM485 573q0 -139 37 -222l941 1186q-99 63 -300 63q-102 0 -179 -13t-144 -45.5t-115.5 -84t-89 -131.5t-69 -186t-51.5 -249q-30 -189 -30 -318zM1559 1428l-942 -1187q95 -60 302 -60q153 0 258 34t183.5 118t126.5 218t81 340q30 193 30 312
q0 138 -39 225z" />
    <glyph glyph-name="ugrave" unicode="&#xf9;" horiz-adv-x="1955" 
d="M275 624l184 1157h237l-177 -1113q-20 -127 -20 -200q0 -104 37.5 -164.5t134 -92t267.5 -31.5q111 0 254.5 25t228.5 62q28 131 51 279l196 1235h236l-214 -1352q-21 -135 -57 -304q-359 -149 -807 -149q-136 0 -237 20.5t-164.5 56t-102.5 89.5t-54 115t-15 139
q0 91 22 228zM1180 2056l-307 478h287l213 -478h-193z" />
    <glyph glyph-name="uacute" unicode="&#xfa;" horiz-adv-x="1955" 
d="M275 624l183 1157h237l-176 -1113q-20 -127 -20 -201q0 -104 37.5 -164t134 -91.5t267.5 -31.5q110 0 253.5 25t229.5 62q28 131 51 279l195 1235h237l-214 -1352q-21 -135 -57 -304q-359 -149 -807 -149q-136 0 -237 20.5t-164.5 56t-102.5 89.5t-54 115t-15 139
q0 91 22 228zM1092 2076l364 478h286l-458 -478h-192z" />
    <glyph glyph-name="ucircumflex" unicode="&#xfb;" horiz-adv-x="1955" 
d="M275 624l183 1157h237l-176 -1113q-20 -127 -20 -201q0 -104 37.5 -164t134 -91.5t267.5 -31.5q110 0 253.5 25t228.5 62q28 123 52 279l195 1235h237l-214 -1352q-26 -160 -57 -304q-359 -149 -807 -149q-136 0 -237 20.5t-164.5 55.5t-102.5 89.5t-54 115t-15 138.5
q0 92 22 229zM1204 2564h196l238 -478h-196l-161 330l-268 -330h-192z" />
    <glyph glyph-name="udieresis" unicode="&#xfc;" horiz-adv-x="1955" 
d="M275 624l183 1157h238l-177 -1113q-20 -127 -20 -201q0 -104 37.5 -164t134 -91.5t267.5 -31.5q111 0 254 25t229 62q28 131 51 279l196 1235h236l-214 -1352q-26 -160 -57 -304q-359 -149 -807 -149q-136 0 -237 20.5t-164.5 56t-102.5 89.5t-54 115t-15 139
q0 91 22 228zM977 2138q-63 0 -99.5 44.5t-26.5 107.5q10 64 60.5 108.5t113.5 44.5q62 0 98 -44.5t25 -108.5q-10 -64 -59.5 -108t-111.5 -44zM1502 2138q-63 0 -99.5 44t-26.5 108t60.5 108.5t112.5 44.5q63 0 99 -44.5t26 -108.5q-11 -64 -60.5 -108t-111.5 -44z" />
    <glyph glyph-name="yacute" unicode="&#xfd;" horiz-adv-x="1685" 
d="M930 443l651 1338h240l-1199 -2437h-241l389 781l-443 1656h254zM1010 2036l365 478h287l-458 -478h-194z" />
    <glyph glyph-name="thorn" unicode="&#xfe;" horiz-adv-x="1910" 
d="M79 -656l472 2986h238l-94 -591q266 66 493 66q324 0 471 -132.5t147 -445.5q0 -145 -30 -336q-41 -257 -109 -431t-176 -282t-251 -155t-342 -47q-228 0 -471 66l-111 -698h-237zM459 247q80 -30 189.5 -50t206.5 -20q121 0 213 17.5t161 57.5t117.5 94t84.5 139
t59.5 179t44.5 227q31 196 31 311q0 144 -44.5 229.5t-151 129t-289.5 43.5q-97 0 -213 -20t-205 -50z" />
    <glyph glyph-name="ydieresis" unicode="&#xff;" horiz-adv-x="1686" 
d="M899 2108q-63 0 -100 44t-27 108q11 64 62 108.5t114 44.5q62 0 97.5 -44.5t24.5 -108.5q-10 -64 -59.5 -108t-111.5 -44zM1424 2108q-63 0 -99.5 44t-26.5 108t61 108.5t114 44.5q62 0 98 -44.5t25 -108.5q-10 -64 -60 -108t-112 -44zM930 443l651 1338h241l-1199 -2437
h-241l390 781l-445 1656h255z" />
    <glyph glyph-name="Abreve" unicode="&#x102;" horiz-adv-x="2150" 
d="M1047 2914h153q0 -87 52.5 -144.5t156.5 -57.5t174.5 57.5t98.5 144.5h154q-41 -155 -154.5 -251t-295.5 -96q-174 0 -257 87t-83 230q0 20 1 30zM-5 0l1135 2179q91 175 229 175q137 0 173 -175l436 -2179h-268l-129 670h-977l-341 -670h-258zM1531 875l-228 1184
l-604 -1184h832z" />
    <glyph glyph-name="abreve" unicode="&#x103;" horiz-adv-x="1822" 
d="M1697 1264l-133 -841q-22 -145 -58 -304q-307 -143 -753 -143q-313 0 -459.5 94t-146.5 308q0 56 11 130q37 238 165 377.5t361 174.5q226 34 755 52l12 79q12 82 12 131q0 150 -94.5 215t-327.5 65q-232 0 -591 -51l9 192q395 62 658 62q106 0 190 -10.5t161 -38.5
t128.5 -73.5t81.5 -119t30 -171.5q0 -56 -11 -128zM811 174q273 0 485 80q28 134 51 280l63 396q-479 -10 -670 -48q-160 -32 -238 -110.5t-106 -257.5q-8 -54 -8 -92q0 -142 98.5 -195t324.5 -53zM854 2451h153q-2 -99 49.5 -165t154.5 -66q104 0 176 66t102 165h154
q-44 -178 -160 -288.5t-298 -110.5q-87 0 -152 27t-104 75.5t-58 111t-19 139.5q0 16 2 46z" />
    <glyph glyph-name="Aogonek" unicode="&#x104;" horiz-adv-x="2151" 
d="M1957 -451l26 -117q-57 -41 -130 -64t-137 -23q-111 0 -178.5 57.5t-67.5 158.5q0 25 4 48q16 106 95.5 210t176.5 181h-46l-129 670h-976l-341 -670h-259l1136 2179q91 175 229 175q137 0 173 -175l435 -2179h-75q-81 -72 -147 -157.5t-79 -166.5q-3 -18 -3 -36
q0 -61 35.5 -96t99.5 -35q87 0 158 40zM1531 875l-227 1184l-604 -1184h831z" />
    <glyph glyph-name="aogonek" unicode="&#x105;" horiz-adv-x="1822" 
d="M1439 1112l12 79q11 74 11 129q0 151 -94 216.5t-327 65.5q-232 0 -591 -51l9 192q395 62 658 62q106 0 190 -10.5t161.5 -38.5t128.5 -73.5t81 -119t30 -171.5q0 -54 -11 -128l-133 -841q-22 -145 -58 -304q-129 -60 -270 -93q-163 -160 -182 -283q-3 -18 -3 -35
q0 -61 36 -96.5t101 -35.5q85 0 156 40l26 -117q-56 -41 -129.5 -64t-137.5 -23q-111 0 -178.5 57.5t-67.5 158.5q0 25 4 48q23 152 189 318q-142 -18 -296 -18q-313 0 -460 94t-147 308q0 56 11 130q38 238 165.5 377.5t360.5 174.5q227 34 755 52zM740 882
q-160 -32 -238 -110.5t-106 -257.5q-8 -54 -8 -93q0 -142 99 -194.5t324 -52.5q273 0 486 80q20 100 50 280l64 396q-480 -10 -671 -48z" />
    <glyph glyph-name="Cacute" unicode="&#x106;" horiz-adv-x="1729" 
d="M1561 29q-256 -53 -530 -53q-214 0 -362 41.5t-239 130.5t-131.5 219t-40.5 316q0 198 45 482q25 160 55 289t69.5 245.5t88.5 205.5t112.5 164.5t141 127t174 87.5t211.5 53t253 17q277 0 513 -51l-57 -205q-238 37 -393 37q-149 0 -266 -22t-203.5 -59t-152.5 -104.5
t-109.5 -138t-78.5 -181.5t-56 -212.5t-45 -252.5q-46 -291 -46 -447q0 -135 30.5 -228.5t103.5 -161.5t200.5 -100.5t315.5 -32.5q166 0 405 36zM1854 2938l-470 -387h-207l370 387h307z" />
    <glyph glyph-name="cacute" unicode="&#x107;" horiz-adv-x="1469" 
d="M1289 28q-260 -52 -465 -52q-132 0 -233 29t-166.5 80t-106.5 127t-58 163t-17 195q0 144 31 340q21 131 46 233.5t62.5 198.5t86.5 166t116.5 128t152.5 94t195 55.5t244 19.5q205 0 382 -51l-49 -186q-161 30 -286 30q-81 0 -148.5 -5.5t-125 -19t-103 -30.5
t-83.5 -45.5t-67 -58.5t-53.5 -74t-42 -88.5t-33.5 -106t-27.5 -121t-24.5 -139.5q-35 -220 -35 -332q0 -79 14.5 -138.5t50 -109t94 -80t147.5 -47.5t210 -17q106 0 300 38zM1569 2508l-457 -478h-193l363 478h287z" />
    <glyph glyph-name="Ccaron" unicode="&#x10c;" horiz-adv-x="1729" 
d="M1561 29q-256 -53 -530 -53q-214 0 -361.5 41.5t-239 130.5t-132 219.5t-40.5 316.5q0 197 45 481q25 160 55 289t69.5 245.5t88.5 205.5t112.5 164.5t141 127t174 87.5t211.5 53t253 17q277 0 513 -51l-57 -205q-236 37 -393 37q-149 0 -266 -22t-203.5 -59
t-152.5 -104.5t-109.5 -138t-78.5 -181.5t-56 -212.5t-45 -252.5q-46 -291 -46 -447q0 -135 30.5 -228.5t103.5 -161.5t200.5 -100.5t315.5 -32.5q166 0 405 36zM1352 2671l274 267h204l-389 -387h-210l-273 387h209z" />
    <glyph glyph-name="ccaron" unicode="&#x10d;" horiz-adv-x="1469" 
d="M1289 28q-258 -52 -465 -52q-132 0 -233 29t-166.5 80t-106.5 127t-58 163t-17 195q0 144 31 340q18 114 39.5 206t52 179.5t69 154.5t89 126t115 100t144.5 71t178 44t216 14q205 0 382 -51l-49 -186q-161 30 -286 30q-81 0 -148.5 -5.5t-125 -19t-103 -30.5
t-83.5 -45.5t-67 -58.5t-53.5 -74t-42 -88.5t-33.5 -106t-27.5 -121t-24.5 -139.5q-35 -220 -35 -332q0 -79 14.5 -138.5t50 -109t94 -80t147.5 -47.5t210 -17q106 0 300 38zM1117 2181l268 330h192l-382 -478h-197l-237 478h195z" />
    <glyph glyph-name="Dcaron" unicode="&#x10e;" horiz-adv-x="2189" 
d="M548 2301q332 53 702 53q242 0 406.5 -43t262 -134.5t139 -219t41.5 -310.5q0 -195 -46 -482q-22 -139 -46 -250t-56.5 -219t-72 -191.5t-91.5 -160.5t-116 -133t-145 -102t-178.5 -74.5t-215.5 -43.5t-258 -15q-367 0 -686 55zM769 2110l-300 -1889q219 -30 371 -30
q132 0 241.5 17t192.5 40.5t151.5 73.5t115.5 91.5t86.5 119.5t62 132t46 156t34 163.5t29.5 180.5q50 313 50 448q0 100 -18.5 177t-66 144.5t-125.5 111t-201 68.5t-289 25q-148 0 -380 -29zM1363 2674l273 267h204l-388 -387h-210l-275 387h210z" />
    <glyph glyph-name="dcaron" unicode="&#x10f;" horiz-adv-x="1884" 
d="M1563 1739l116 730h236l-324 -2046q-26 -160 -57 -304q-290 -143 -679 -143q-175 0 -297.5 30.5t-207.5 99.5t-125 182t-40 278q0 137 29 325q41 257 109 430.5t175.5 281.5t250.5 155t342 47q228 0 472 -66zM1135 1604q-104 0 -186.5 -14t-147 -39.5t-114 -70.5
t-85.5 -98.5t-64 -131.5t-47.5 -162t-37.5 -197q-26 -169 -26 -277q0 -225 106 -331t354 -106q108 0 225.5 20.5t208.5 59.5q32 152 52 280l157 997q-80 30 -189 50t-206 20zM2278 2469h225l-349 -686h-165z" />
    <glyph glyph-name="Dcroat" unicode="&#x110;" horiz-adv-x="2282" 
d="M452 1109h-198l29 189h199l159 1003q331 53 702 53q242 0 406.5 -43t262 -134.5t139 -219t41.5 -310.5q0 -195 -46 -482q-25 -157 -52.5 -279t-66.5 -240t-87.5 -206t-114.5 -166t-149 -131t-188 -92t-234.5 -57t-287.5 -18q-368 0 -685 55zM703 1109l-140 -888
q217 -30 370 -30q132 0 241.5 17t192.5 40.5t152 73.5t115.5 91t86 119.5t62.5 132.5t46 156t34 163.5t30 180.5q49 307 49 448q0 100 -18.5 177t-65.5 144.5t-125 111t-201.5 68.5t-289.5 25q-146 0 -380 -29l-129 -812h368l-30 -189h-368z" />
    <glyph glyph-name="dcroat" unicode="&#x111;" horiz-adv-x="1885" 
d="M2086 2035h-239l-256 -1612q-24 -159 -57 -304q-289 -143 -678 -143q-175 0 -298 30.5t-208 99.5t-125 182.5t-40 278.5q0 138 29 324q41 257 109 430.5t175.5 281.5t250.5 155t342 47q229 0 472 -66l47 296h-354l26 160h353l44 274h237l-44 -274h240zM1135 1604
q-121 0 -213 -17.5t-161.5 -57.5t-118 -93.5t-84.5 -138.5t-59.5 -179t-44.5 -227q-26 -169 -26 -277q0 -225 106 -331t354 -106q108 0 225.5 20.5t208.5 59.5q34 169 51 280l158 997q-80 30 -189.5 50t-206.5 20z" />
    <glyph glyph-name="Eogonek" unicode="&#x118;" horiz-adv-x="1759" 
d="M1821 2121h-572q-109 0 -183.5 -7t-135.5 -27.5t-97.5 -50t-65.5 -82.5t-46 -117t-32 -162l-60 -383h1014l-33 -210h-1015l-68 -430q-19 -120 -19 -193q0 -150 91.5 -200t346.5 -50h572l-32 -204q-67 -3 -202 -7q-199 -180 -223 -322q-3 -18 -3 -35q0 -61 36 -96.5
t101 -35.5q85 0 156 40l26 -117q-56 -41 -129.5 -64t-137.5 -23q-111 0 -178.5 57.5t-67.5 158.5q0 25 4 48q16 104 93 206.5t173 180.5q-146 -2 -211 -2q-90 0 -149.5 2t-138 10t-129 23.5t-105.5 44t-86.5 69t-52 101t-20.5 138.5q0 54 11 126l208 1312q13 81 37 148
t54 116.5t74 88.5t86 65.5t101.5 45t109 28.5t120 15.5t123 7t128.5 1.5q234 0 559 -14z" />
    <glyph glyph-name="eogonek" unicode="&#x119;" horiz-adv-x="1897" 
d="M270 891q39 248 104.5 416.5t173 282t261 164.5t369.5 51q178 0 304.5 -37.5t200.5 -111.5t107.5 -173.5t33.5 -233.5q0 -108 -22 -246q-15 -94 -32 -169q-152 -25 -418.5 -50.5t-451.5 -33.5l-417 -17q-5 -73 -5 -123q0 -111 22.5 -187.5t77.5 -132.5t152.5 -82.5
t242.5 -26.5q258 0 624 50l-9 -196q-220 -34 -371 -45q-182 -173 -203 -304q-3 -18 -3 -35q0 -61 36 -96.5t99 -35.5q85 0 158 40l26 -117q-57 -41 -130.5 -64t-137.5 -23q-110 0 -177.5 57.5t-67.5 158.5q0 25 4 48q14 95 81 189.5t155 171.5q-128 -4 -209 -4
q-134 0 -237.5 29t-172.5 80.5t-113 128.5t-63 168.5t-19 204.5q0 132 27 304zM506 917l465 22q310 14 585 49q11 42 24 125q11 74 11 131q0 177 -104.5 270t-337.5 93q-108 0 -193 -18.5t-150 -58.5t-113 -95t-84 -135t-60 -171.5t-43 -211.5z" />
    <glyph glyph-name="Ecaron" unicode="&#x11a;" horiz-adv-x="1759" 
d="M1853 2322l-32 -201h-572q-109 0 -183.5 -7t-135 -27.5t-97 -50t-66 -82.5t-46 -117t-32.5 -162l-61 -383h1015l-33 -210h-1015l-68 -430q-19 -120 -19 -192q0 -150 91.5 -200.5t346.5 -50.5h572l-32 -204q-252 -11 -564 -11q-69 0 -116.5 1t-110.5 5t-106 11.5
t-94.5 21.5t-85.5 34t-68 49t-54 66.5t-32.5 88t-12.5 111.5q0 54 11 126l208 1312q16 103 51.5 184t78.5 134.5t109.5 91.5t126 58.5t147.5 31.5t154 13.5t165 2.5q235 0 560 -14zM888 2932h209l185 -267l273 267h206l-389 -387h-210z" />
    <glyph glyph-name="ecaron" unicode="&#x11b;" horiz-adv-x="1897" 
d="M270 891q39 248 104.5 416.5t173 282t261 164.5t369.5 51q143 0 253 -25t184 -70.5t121 -115t67.5 -153.5t20.5 -190q0 -110 -22 -248q-14 -86 -31 -169q-153 -25 -419 -50.5t-452 -33.5l-416 -17q-5 -73 -5 -123q0 -111 22.5 -187.5t77.5 -132.5t152.5 -82.5
t242.5 -26.5q257 0 623 50l-9 -196q-191 -29 -354 -44t-386 -15q-167 0 -286 43.5t-188 126.5t-100 191.5t-31 251.5q0 132 27 302zM507 917l464 22q312 14 586 49q14 62 24 125q12 71 12 132q0 176 -105 269t-338 93q-108 0 -193 -18.5t-150 -58.5t-113 -95t-84 -135
t-60 -171.5t-43 -211.5zM1230 2171l268 330h192l-382 -478h-196l-239 478h196z" />
    <glyph glyph-name="Gbreve" unicode="&#x11e;" horiz-adv-x="2081" 
d="M1276 1015l32 207h665l-136 -860q-12 -76 -41 -135t-67 -99.5t-98 -69t-117.5 -44.5t-143 -24.5t-157 -11t-176.5 -2.5q-284 0 -454.5 76.5t-244.5 229.5t-74 402q0 199 45 481q34 217 76.5 379.5t105 300t144.5 229.5t194.5 157t256 94t327.5 29q380 0 662 -53l-55 -206
q-278 39 -544 39q-149 0 -266 -22t-203 -58.5t-152 -104t-109.5 -137.5t-78.5 -181t-56 -213t-45 -253q-46 -293 -46 -450q0 -134 30 -226.5t103 -160.5t200.5 -100.5t316.5 -32.5q78 0 139.5 7.5t105 19t75.5 33t51 42t32.5 54t20 60.5t13.5 70l84 534h-415zM1073 2909h153
q1 -87 53.5 -144.5t155.5 -57.5q104 0 174.5 57.5t98.5 144.5h154q-40 -155 -153.5 -251t-296.5 -96q-93 0 -162 27t-108 75t-56 109.5t-13 135.5z" />
    <glyph glyph-name="gbreve" unicode="&#x11f;" horiz-adv-x="1898" 
d="M166 -616l51 193q339 -54 586 -54q142 0 237.5 22.5t157.5 74.5t94.5 126.5t50.5 188.5l23 147q-264 -66 -492 -66q-162 0 -276 30t-192.5 97t-115.5 176t-37 267q0 146 29 324q40 254 112 425t187.5 276t267 149.5t363.5 44.5q388 0 632 -143q-13 -141 -38 -304
l-237 -1497q-21 -130 -70.5 -226.5t-116.5 -156t-160 -95.5t-189 -49.5t-215 -13.5q-278 0 -652 64zM522 910q-29 -182 -29 -295q0 -107 24.5 -179.5t81.5 -122.5t150.5 -73t231.5 -23q97 0 212.5 20t204.5 50l152 957q23 150 37 280q-78 39 -188.5 59.5t-218.5 20.5
q-128 0 -226 -28.5t-169.5 -82t-123 -140t-84 -193t-55.5 -250.5zM1546 2451h154q-44 -178 -160 -288.5t-298 -110.5q-169 0 -251 96t-82 255q0 16 2 48h153q-2 -98 49.5 -164.5t154.5 -66.5q104 0 176 66t102 165z" />
    <glyph glyph-name="Idotaccent" unicode="&#x130;" horiz-adv-x="806" 
d="M720 2578q-65 0 -103 46t-28 113t63 112.5t118 45.5q66 0 103.5 -45.5t26.5 -112.5t-62.5 -113t-117.5 -46zM184 0l369 2330h253l-369 -2330h-253z" />
    <glyph glyph-name="dotlessi" unicode="&#x131;" horiz-adv-x="727" 
d="M146 0l282 1781h238l-282 -1781h-238z" />
    <glyph glyph-name="Lacute" unicode="&#x139;" horiz-adv-x="1583" 
d="M954 209h529l-32 -206q-238 -9 -522 -9q-69 0 -116.5 1t-110.5 5t-106.5 11.5t-94.5 21.5t-85.5 34t-68.5 49t-54 66.5t-32.5 88t-12.5 111.5q0 54 11 126l288 1822h253l-266 -1678q-19 -120 -19 -192q0 -150 92 -200.5t347 -50.5zM975 2940h306l-468 -387h-208z" />
    <glyph glyph-name="lacute" unicode="&#x13a;" horiz-adv-x="731" 
d="M202 461l318 2008h238l-315 -1991q-13 -88 -13 -149q0 -168 82 -302l-218 -106q-107 152 -107 361q0 80 15 179zM568 2639l369 387h307l-470 -387h-206z" />
    <glyph glyph-name="Lcaron" unicode="&#x13d;" horiz-adv-x="1582" 
d="M259 508l289 1822h252l-267 -1678q-19 -119 -19 -191q0 -150 92 -201t347 -51h530l-32 -206q-238 -9 -522 -9q-69 0 -116.5 1t-110.5 5t-106.5 11.5t-94.5 21.5t-85.5 34t-68.5 49t-54 66.5t-32.5 88t-12.5 111.5q0 54 11 126zM1445 2330l-350 -686h-165l289 686h226z
" />
    <glyph glyph-name="lcaron" unicode="&#x13e;" horiz-adv-x="731" 
d="M202 461l318 2008h238l-315 -1991q-13 -79 -13 -152q0 -168 81 -299l-219 -106q-106 151 -106 359q0 75 16 181zM831 1783l289 686h226l-349 -686h-166z" />
    <glyph glyph-name="Lslash" unicode="&#x141;" horiz-adv-x="1730" 
d="M511 1162l185 1168h251l-156 -984l551 362l-35 -221l-551 -361l-75 -474q-19 -119 -19 -191q0 -150 92 -201t347 -51h529l-32 -206q-238 -9 -522 -9q-69 0 -116.5 1t-110.5 5t-106 11.5t-94.5 21.5t-85.5 34t-68 49t-54 66.5t-32.5 88t-12.5 111.5q0 54 11 126l69 434
l-311 -203l35 219z" />
    <glyph glyph-name="lslash" unicode="&#x142;" horiz-adv-x="792" 
d="M605 1272l-125 -794q-13 -88 -13 -149q0 -168 82 -302l-219 -106q-107 150 -107 359q0 75 16 181l96 609l-288 -216l35 225l289 217l186 1173h238l-154 -971l298 224l-36 -227z" />
    <glyph glyph-name="Nacute" unicode="&#x143;" horiz-adv-x="2294" 
d="M911 2187l832 -1848l316 1991h232l-345 -2171q-14 -93 -62.5 -138t-121.5 -45q-67 0 -112 40t-85 128l-831 1849l-316 -1993h-231l343 2171q14 93 63.5 138t121.5 45q65 0 111.5 -40.5t84.5 -126.5zM1670 2935h307l-470 -387h-207z" />
    <glyph glyph-name="nacute" unicode="&#x144;" horiz-adv-x="1962" 
d="M1398 0l175 1113q19 116 19 193q0 105 -38 167.5t-134.5 95t-265.5 32.5q-112 0 -257 -25t-230 -62q-28 -131 -51 -279l-196 -1235h-237l214 1352q21 135 57 304q166 69 375.5 109t436.5 40q136 0 237.5 -20.5t165 -55.5t102.5 -89.5t54 -115t15 -138.5q0 -92 -22 -229
l-183 -1157h-237zM1735 2516l-458 -478h-193l364 478h287z" />
    <glyph glyph-name="Ncaron" unicode="&#x147;" horiz-adv-x="2294" 
d="M912 2187l832 -1848l315 1991h232l-344 -2171q-14 -93 -63 -138t-121 -45q-67 0 -111.5 40t-84.5 128l-832 1849l-316 -1993h-232l344 2171q15 93 64 138t121 45q65 0 111.5 -40.5t84.5 -126.5zM1079 2925h209l186 -267l273 267h204l-388 -387h-210z" />
    <glyph glyph-name="ncaron" unicode="&#x148;" horiz-adv-x="1962" 
d="M1397 0l177 1113q19 116 19 193q0 105 -38 167.5t-135 95t-266 32.5q-112 0 -257 -25t-230 -62q-28 -131 -51 -279l-196 -1235h-237l215 1352q29 180 56 304q359 149 812 149q136 0 237 -20.5t165 -56t103 -89.5t54 -115t15 -139q0 -93 -22 -228l-183 -1157h-238z
M1254 2178l268 330h192l-382 -478h-196l-238 478h196z" />
    <glyph glyph-name="Ohungarumlaut" unicode="&#x150;" horiz-adv-x="2214" 
d="M1012 -24q-270 0 -432.5 74t-236 226.5t-73.5 402.5q0 191 46 486q34 217 77.5 381.5t106.5 301t143.5 229t189.5 156t245.5 92.5t309.5 29q400 0 570.5 -164.5t170.5 -537.5q0 -202 -46 -487q-34 -217 -78 -381.5t-106.5 -301t-143.5 -229t-189.5 -156t-244.5 -92.5
t-309 -29zM572 1165q-55 -351 -55 -495q0 -92 14.5 -163t50 -131.5t94 -99.5t148.5 -61t211 -22q127 0 229.5 25.5t176 66t132 113.5t95.5 144t69 183t50.5 205.5t40.5 234.5q54 343 54 492q0 117 -24 201t-81.5 149t-160 97.5t-252.5 32.5q-128 0 -230 -25.5t-175.5 -65.5
t-132 -113.5t-95.5 -143.5t-68.5 -183.5t-49.5 -205.5t-41 -235zM1035 2560l354 386h299l-457 -386h-196zM1521 2560l355 386h300l-457 -386h-198z" />
    <glyph glyph-name="ohungarumlaut" unicode="&#x151;" horiz-adv-x="1944" 
d="M897 -24q-346 0 -499 135.5t-153 447.5q0 145 30 332q32 203 81.5 351.5t122.5 257.5t174.5 175.5t232 98t301.5 31.5q344 0 497.5 -137.5t153.5 -449.5q0 -133 -30 -327q-40 -249 -107 -419.5t-176.5 -282.5t-262 -162.5t-365.5 -50.5zM516 891q-30 -189 -30 -318
q0 -114 24 -189.5t78.5 -120.5t133.5 -63.5t197 -18.5q153 0 258 34t183.5 118t127 218t81.5 340q30 193 30 312q0 220 -99.5 308.5t-335.5 88.5q-102 0 -179 -13t-144 -45.5t-115.5 -84t-89 -131.5t-69 -186t-51.5 -249zM855 2059l349 478h280l-445 -478h-184zM1310 2059
l350 478h280l-446 -478h-184z" />
    <glyph glyph-name="OE" unicode="&#x152;" horiz-adv-x="3231" 
d="M3293 2121h-572q-109 0 -183.5 -7t-135 -27.5t-97.5 -50t-66 -82.5t-45.5 -117t-32.5 -162l-61 -383h1014l-33 -210h-1014l-68 -430q-20 -128 -20 -194q0 -149 92 -199t347 -50h572l-32 -204q-252 -11 -564 -11q-77 0 -129 1.5t-120.5 7t-115 16t-98 30t-85 47.5
t-60.5 69.5t-40 94.5q-121 -147 -299 -215.5t-436 -68.5q-400 0 -570.5 164.5t-170.5 537.5q0 202 46 487q34 217 77.5 381.5t106.5 301t143.5 229t189.5 156t245.5 92.5t309.5 29q257 0 413.5 -69t231.5 -216q34 61 80.5 107t106 74.5t117 46.5t136.5 26t140.5 10.5
t151.5 2.5q235 0 559 -14zM572 1165q-54 -343 -54 -493q0 -116 24 -200t81 -149t160 -97.5t253 -32.5q127 0 229.5 25.5t176 66t132 113.5t95.5 144t69 183t50.5 205.5t40.5 234.5q54 343 54 491q0 117 -24 201.5t-81.5 149.5t-160.5 97.5t-253 32.5q-128 0 -230 -25.5
t-175.5 -65.5t-132 -113.5t-95.5 -143.5t-68.5 -183.5t-49.5 -205.5t-41 -235z" />
    <glyph glyph-name="oe" unicode="&#x153;" horiz-adv-x="3195" 
d="M1783 1495q106 161 273 235.5t420 74.5q179 0 305 -37.5t200 -111.5t107.5 -173.5t33.5 -232.5q0 -109 -22 -247q-15 -94 -32 -169q-152 -25 -418.5 -50.5t-451.5 -33.5l-416 -17q-5 -72 -5 -120q0 -112 22.5 -189t78 -133.5t152.5 -83t241 -26.5q258 0 624 50l-9 -196
q-191 -29 -354 -44t-387 -15q-437 0 -547 321q-108 -168 -277.5 -244.5t-424.5 -76.5q-345 0 -498 135t-153 447q0 146 30 333q40 254 107.5 424.5t177 281.5t261 159.5t365.5 48.5q251 0 395.5 -74t201.5 -236zM1163 1600q-102 0 -179 -13t-144 -45.5t-115.5 -84
t-89 -131.5t-69 -186t-51.5 -249q-30 -189 -30 -318q0 -114 24 -189.5t78.5 -120.5t133.5 -63.5t198 -18.5q153 0 258 34t183 118t126.5 218t81.5 340q30 193 30 311q0 220 -99.5 309t-335.5 89zM1805 917l464 22q310 14 585 49q11 42 24 125q11 72 11 130q0 177 -105 270.5
t-339 93.5q-109 0 -194.5 -18.5t-150.5 -58.5t-112 -94.5t-82 -135.5t-58.5 -171.5t-42.5 -211.5z" />
    <glyph glyph-name="Racute" unicode="&#x154;" horiz-adv-x="2049" 
d="M432 0h-252l365 2299q333 55 705 55q100 0 181.5 -5.5t165.5 -20t148 -39t121.5 -64.5t95 -94t59 -130t21.5 -170q0 -83 -14 -168q-26 -166 -85 -289.5t-147 -203.5t-194.5 -126t-241.5 -67l403 -977h-294l-378 956h-36q-173 0 -469 16zM620 1188q188 -21 442 -21
q160 0 275.5 22.5t209.5 77.5t151 153t80 243q11 72 11 127q0 190 -130.5 272.5t-429.5 82.5q-216 0 -463 -31zM1801 2941l-469 -387h-207l369 387h307z" />
    <glyph glyph-name="racute" unicode="&#x155;" horiz-adv-x="1145" 
d="M418 0h-237l215 1358q26 160 57 304q290 143 678 143q95 0 162 -8l-53 -206q-59 7 -141 7q-107 0 -225 -21t-209 -60q-28 -129 -51 -280zM1085 2518h287l-457 -478h-194z" />
    <glyph glyph-name="Rcaron" unicode="&#x158;" horiz-adv-x="2050" 
d="M433 0h-252l364 2299q335 55 706 55q100 0 181.5 -5.5t165.5 -20t148 -39t121.5 -64.5t95 -94t59 -130t21.5 -170q0 -83 -14 -168q-26 -166 -85 -289.5t-147 -203.5t-194.5 -126t-241.5 -67l403 -977h-294l-378 956h-36q-171 0 -470 16zM621 1188q188 -21 442 -21
q160 0 275.5 22.5t209.5 77.5t151 153t80 243q11 72 11 126q0 190 -131 273t-429 83q-216 0 -463 -31zM1326 2674l273 267h204l-388 -387h-210l-275 387h210z" />
    <glyph glyph-name="rcaron" unicode="&#x159;" horiz-adv-x="1144" 
d="M417 0h-236l215 1358q24 159 57 304q290 143 679 143q94 0 161 -8l-53 -206q-59 7 -141 7q-107 0 -225 -21t-209 -60q-27 -121 -52 -280zM771 2508l161 -330l268 330h191l-381 -478h-197l-238 478h196z" />
    <glyph glyph-name="Sacute" unicode="&#x15a;" horiz-adv-x="1712" 
d="M1312 704q0 55 -13 99.5t-42.5 80t-63 62.5t-89 52.5t-105 44t-125.5 42.5q-81 26 -138.5 47t-119.5 49t-103.5 56t-81 65t-62 80t-36 97.5t-13.5 119.5q0 60 12 134q28 173 97.5 294t183 192.5t258 103t338.5 31.5q282 0 569 -53l-55 -206q-259 40 -449 40
q-76 0 -138.5 -3.5t-130.5 -13.5t-121.5 -26.5t-105 -43.5t-88 -64t-63 -89t-36.5 -117q-10 -60 -10 -113q0 -45 9.5 -81t24.5 -64.5t46 -54t62 -44t86 -40t104 -38t128 -40.5q101 -31 177 -63t147 -78.5t116 -102t71.5 -131.5t26.5 -169q0 -56 -11 -127
q-55 -349 -282 -502.5t-632 -153.5q-311 0 -575 55l59 211q281 -45 542 -45q104 0 185.5 10.5t159 38.5t131.5 75t93.5 122t55.5 177q7 42 7 84zM1734 2948l-470 -387h-207l370 387h307z" />
    <glyph glyph-name="sacute" unicode="&#x15b;" horiz-adv-x="1544" 
d="M1155 525q0 49 -16.5 86.5t-43.5 63.5t-75 49t-96 40t-122 41q-15 5 -23 7q-180 58 -239 85q-158 72 -207 188q-27 65 -27 146q0 50 8 97q17 109 60 192t103 136.5t142.5 87.5t173 47.5t200.5 13.5q287 0 559 -59l-54 -188q-237 43 -430 43q-53 0 -89 -1t-91 -6
t-93 -14.5t-82.5 -28t-74 -44.5t-52.5 -66t-31 -90q-5 -37 -5 -60q0 -27 5.5 -50.5t13 -42t23 -35.5t29.5 -29.5t38.5 -25.5t43.5 -21.5t51 -20t54 -18.5t60.5 -19.5t62.5 -20.5q83 -28 138.5 -49.5t115 -50.5t96 -59t67.5 -70t44.5 -89.5t13.5 -110.5q0 -47 -9 -102
q-18 -115 -65.5 -202.5t-114.5 -143.5t-158.5 -91.5t-190 -49.5t-218.5 -14q-291 0 -546 59l54 191q243 -42 442 -42q44 0 71 0.5t74 3t78 7.5t74 14.5t72.5 23.5t62.5 35t54.5 48t39 64.5t24.5 82.5q5 29 5 62zM1578 2528l-458 -478h-193l365 478h286z" />
    <glyph glyph-name="Scedilla" unicode="&#x15e;" horiz-adv-x="1713" 
d="M889 -9l-115 -148q94 -5 156 -55.5t62 -135.5q0 -18 -3 -37q-22 -135 -129 -199.5t-253 -64.5q-132 0 -220 55l63 122q88 -45 181 -45q39 0 73 9.5t63 37.5t36 71q6 41 -17.5 72.5t-64 48.5t-83 25.5t-81.5 8.5l163 221q-11 0 -33 -0.5t-33 -0.5q-311 0 -575 55l58 211
q283 -45 543 -45q104 0 186 10.5t159 38.5t131.5 75t93.5 122t55 177q7 42 7 84q0 55 -13 99.5t-42.5 80t-63 62t-89.5 52.5t-105.5 44t-125.5 43q-81 26 -138.5 47t-119.5 48.5t-103 55.5t-80.5 65.5t-62 80t-36 97t-13.5 119.5q0 62 12 135q27 173 97 294t183.5 192.5
t258.5 103t339 31.5q281 0 568 -53l-55 -206q-259 40 -449 40q-76 0 -138.5 -3.5t-130.5 -13.5t-121.5 -26.5t-105 -43.5t-88 -64t-63 -89t-36.5 -117q-10 -60 -10 -113q0 -45 9.5 -81t24.5 -64.5t46 -54t62 -44t86 -40t104 -38t128 -40.5q101 -31 177.5 -63t147 -78.5
t116 -102t72 -131.5t26.5 -169q0 -56 -11 -127q-47 -295 -216.5 -449t-463.5 -192z" />
    <glyph glyph-name="scedilla" unicode="&#x15f;" horiz-adv-x="1543" 
d="M844 -12l-113 -146q94 -5 156 -56t62 -136q0 -16 -3 -36q-11 -70 -47.5 -122.5t-89.5 -82.5t-114.5 -44.5t-129.5 -14.5q-132 0 -220 55l64 122q87 -45 180 -45q62 0 112 27.5t60 90.5q6 41 -17.5 72.5t-64.5 48.5t-83.5 25.5t-81.5 8.5l164 221h-28q-291 0 -547 59
l55 191q242 -42 442 -42q44 0 71 0.5t74 3t78 7.5t74 14.5t72.5 23.5t62.5 35t54.5 48t39 64.5t24.5 82.5q5 29 5 62q0 49 -16.5 86.5t-43.5 63.5t-75 49t-96 40t-122 41q-15 5 -23 7q-180 58 -240 85q-158 73 -208 191q-26 63 -26 144q0 49 8 96q17 109 60 192t103 136.5
t143 87.5t173.5 47.5t200.5 13.5q287 0 559 -59l-54 -188q-237 43 -430 43q-53 0 -89 -1t-91 -6t-93.5 -14.5t-83 -28t-73.5 -44.5t-52 -66t-31 -90q-5 -37 -5 -60q0 -27 5.5 -50.5t13 -42t23 -35.5t29.5 -29.5t38.5 -25.5t43.5 -21.5t50.5 -20t54 -18.5t60.5 -19.5
t62 -20.5q83 -28 139 -49.5t115 -50.5t95.5 -59.5t67.5 -70t44.5 -89t13.5 -110.5q0 -47 -9 -102q-19 -118 -67 -207t-121.5 -146t-163 -89.5t-200.5 -46.5z" />
    <glyph glyph-name="Scaron" unicode="&#x160;" horiz-adv-x="1712" 
d="M1312 704q0 55 -13 99.5t-42.5 80t-63.5 62.5t-89 52.5t-105 44t-126 42.5q-81 26 -138.5 47t-119.5 48.5t-103 55.5t-80.5 65.5t-62 80t-36 97t-13.5 119.5q0 62 12 135q22 139 72 244t124 176.5t178 116.5t226.5 64.5t276.5 19.5q280 0 569 -53l-55 -206
q-261 40 -449 40q-76 0 -138.5 -3.5t-130.5 -13.5t-121.5 -26.5t-105 -43.5t-88 -64t-63 -89t-36.5 -117q-10 -60 -10 -113q0 -45 9.5 -81t24.5 -64.5t46 -54t62 -44t85.5 -40t103.5 -38t128 -40.5q101 -31 177.5 -63t147 -78.5t116 -102t72 -131.5t26.5 -169
q0 -56 -11 -127q-55 -349 -282 -502.5t-632 -153.5q-312 0 -575 55l58 211q283 -45 542 -45q104 0 186 10.5t159.5 38.5t132 75t93.5 122t55 177q7 42 7 84zM1216 2681l273 267h205l-389 -387h-210l-274 387h210z" />
    <glyph glyph-name="scaron" unicode="&#x161;" horiz-adv-x="1546" 
d="M551 1291q0 -27 5.5 -50.5t13 -42t23 -35.5t29.5 -29.5t38.5 -25.5t43.5 -21.5t51 -20t54 -18.5t60.5 -19.5t62.5 -20.5q70 -23 120 -41.5t103 -42.5t88.5 -48t68.5 -55t52 -65.5t30.5 -79t11.5 -96.5q0 -48 -9 -103q-18 -115 -65.5 -202.5t-114 -143.5t-158 -91.5
t-190.5 -49.5t-218 -14q-291 0 -546 59l54 191q243 -42 442 -42q44 0 71 0.5t74 3t78 7.5t74 14.5t72.5 23.5t62.5 35t54.5 48t39 64.5t24.5 82.5q5 29 5 62q0 49 -16.5 86.5t-43.5 63.5t-75 49t-96 40t-122 41q-15 5 -23 7q-181 58 -241 86q-159 73 -207 192
q-26 63 -26 143q0 41 8 95q17 109 60 192t103 136.5t143 87.5t173.5 47.5t200.5 13.5q287 0 559 -59l-54 -188q-237 43 -430 43q-53 0 -89 -1t-91 -6t-93.5 -14.5t-83 -28t-73.5 -44.5t-52 -66t-31 -90q-5 -37 -5 -60zM1055 2181l268 330h192l-382 -478h-197l-238 478h196z
" />
    <glyph glyph-name="uni0162" unicode="&#x162;" horiz-adv-x="1646" 
d="M1848 2330l-33 -212h-624l-336 -2118h-252l336 2118h-625l33 212h1501zM324 -839l267 638h211l-325 -638h-153z" />
    <glyph glyph-name="uni0163" unicode="&#x163;" horiz-adv-x="1148" 
d="M669 2245l244 39l-79 -503h389l-30 -192h-389l-177 -1114q-10 -61 -10 -112q0 -112 59 -150t199 -38q44 0 97 5l-10 -185q-114 -19 -191 -19q-206 0 -303 80t-97 252q0 60 12 134l182 1147h-318l30 192h319zM240 -852l268 638h210l-325 -638h-153z" />
    <glyph glyph-name="Tcaron" unicode="&#x164;" horiz-adv-x="1646" 
d="M1849 2330l-34 -212h-624l-335 -2118h-253l336 2118h-625l33 212h1502zM752 2905h208l186 -267l273 267h205l-390 -387h-209z" />
    <glyph glyph-name="tcaron" unicode="&#x165;" horiz-adv-x="1147" 
d="M669 2245l244 39l-79 -503h389l-31 -192h-389l-176 -1114q-10 -61 -10 -112q0 -112 59 -150t200 -38q42 0 95 5l-10 -185q-112 -19 -191 -19q-206 0 -302 79.5t-96 251.5q0 61 12 135l181 1147h-319l31 192h319zM1063 2004l289 686h226l-350 -686h-165z" />
    <glyph glyph-name="Uring" unicode="&#x16e;" horiz-adv-x="2180" 
d="M2185 2330l-249 -1577q-29 -181 -89 -317t-142.5 -223t-196 -140.5t-238 -75t-281.5 -21.5q-136 0 -242.5 16t-198 55.5t-151.5 103.5t-93.5 162t-33.5 228q0 95 18 212l249 1577h250l-254 -1603q-12 -78 -12 -144q0 -198 120 -292.5t382 -94.5q307 0 461 128t197 403
l254 1603h250zM1760 2852q0 -28 -4 -51q-22 -135 -130.5 -230.5t-240.5 -95.5q-118 0 -195 78t-77 195q0 29 4 53q21 134 130 229.5t241 95.5q118 0 195 -78.5t77 -195.5zM1626 2801q3 17 3 31q0 69 -45.5 115t-116.5 46q-79 0 -143.5 -56.5t-76.5 -135.5q-3 -17 -3 -32
q0 -70 45.5 -115.5t116.5 -45.5q79 0 143 56t77 137z" />
    <glyph glyph-name="uring" unicode="&#x16f;" horiz-adv-x="1955" 
d="M275 624l183 1157h237l-176 -1113q-20 -127 -20 -201q0 -104 37.5 -164t134 -91.5t267.5 -31.5q110 0 253.5 25t229.5 62q28 131 51 279l195 1235h237l-214 -1352q-26 -160 -57 -304q-359 -149 -807 -149q-136 0 -237 20.5t-164.5 56t-102.5 89.5t-54 115t-15 139
q0 91 22 228zM1208 1960q-118 0 -194.5 78t-76.5 195q0 29 4 53q21 134 129.5 229.5t240.5 95.5q119 0 195.5 -78t76.5 -195q0 -28 -4 -52q-22 -135 -130.5 -230.5t-240.5 -95.5zM1068 2254q0 -70 45.5 -115.5t115.5 -45.5q79 0 143 56t77 137q3 16 3 31q0 69 -45.5 115
t-116.5 46q-78 0 -142.5 -56.5t-76.5 -135.5q-3 -16 -3 -32z" />
    <glyph glyph-name="Uhungarumlaut" unicode="&#x170;" horiz-adv-x="2180" 
d="M2186 2330l-250 -1577q-29 -181 -89 -317t-142 -223t-196 -140.5t-238.5 -75t-281.5 -21.5q-136 0 -242.5 16t-198 55.5t-151.5 103t-93.5 161.5t-33.5 228q0 96 18 213l250 1577h250l-254 -1603q-12 -78 -12 -144q0 -198 120 -292.5t382 -94.5q307 0 461 128t197 403
l254 1603h250zM987 2564l353 386h300l-457 -386h-196zM1473 2564l354 386h301l-458 -386h-197z" />
    <glyph glyph-name="uhungarumlaut" unicode="&#x171;" horiz-adv-x="1955" 
d="M275 624l183 1157h238l-176 -1113q-20 -127 -20 -201q0 -104 37.5 -164t134 -91.5t267.5 -31.5q110 0 253.5 25t228.5 62q28 131 51 279l196 1235h236l-214 -1352q-24 -149 -56 -304q-361 -149 -807 -149q-136 0 -237 20.5t-165 56t-103 89.5t-54 115t-15 139
q0 93 22 228zM855 2085l349 478h280l-446 -478h-183zM1310 2085l350 478h280l-446 -478h-184z" />
    <glyph glyph-name="Ydieresis" unicode="&#x178;" horiz-adv-x="1848" 
d="M994 2566q-63 0 -99.5 44t-26.5 108t61 108.5t114 44.5q62 0 98 -44.5t25 -108.5q-10 -64 -59.5 -108t-112.5 -44zM1519 2566q-63 0 -99 44t-26 108t60 108.5t113 44.5t99 -44.5t26 -108.5t-60 -108t-113 -44zM1097 906l-144 -906h-253l144 906l-503 1424h273l401 -1163
l780 1163h263z" />
    <glyph glyph-name="Zacute" unicode="&#x179;" horiz-adv-x="1760" 
d="M1819 2099l-1437 -1884h1175l-34 -215h-1343q-76 0 -111 26.5t-27 75.5q7 53 66 129l1438 1885h-1110l34 214h1277q77 0 111.5 -27t26.5 -75q-9 -55 -66 -129zM1035 2536l370 387h307l-470 -387h-207z" />
    <glyph glyph-name="zacute" unicode="&#x17a;" horiz-adv-x="1715" 
d="M1700 1603l-1265 -1399h1029l-33 -204h-1266q-51 0 -75.5 22t-18.5 60q6 43 54 97l1268 1404h-1008l31 198h1245q50 0 74.5 -22.5t18.5 -59.5q-6 -42 -54 -96zM978 2056l363 478h287l-457 -478h-193z" />
    <glyph glyph-name="Zdotaccent" unicode="&#x17b;" horiz-adv-x="1760" 
d="M1819 2099l-1438 -1884h1175l-34 -215h-1342q-77 0 -111.5 26.5t-26.5 75.5q9 55 65 129l1439 1885h-1110l34 214h1276q78 0 112 -26.5t26 -75.5q-8 -54 -65 -129zM1205 2579q-66 0 -104.5 46t-27.5 113q10 67 63 112.5t118 45.5t102.5 -45.5t26.5 -112.5t-62.5 -113
t-115.5 -46z" />
    <glyph glyph-name="zdotaccent" unicode="&#x17c;" horiz-adv-x="1715" 
d="M435 204h1028l-32 -204h-1266q-51 0 -75.5 22.5t-18.5 59.5q8 47 54 97l1269 1404h-1009l32 198h1244q50 0 75 -22.5t19 -59.5q-6 -44 -54 -96zM1039 2239q10 66 63 112t119 46q65 0 102.5 -45.5t26.5 -112.5t-62.5 -113t-116.5 -46q-66 0 -104.5 46t-27.5 113z" />
    <glyph glyph-name="Zcaron" unicode="&#x17d;" horiz-adv-x="1760" 
d="M1819 2099l-1437 -1884h1175l-34 -215h-1343q-76 0 -111 26.5t-27 75.5q7 53 66 129l1438 1885h-1110l34 214h1277q77 0 111 -26.5t27 -75.5q-9 -55 -66 -129zM835 2923h209l185 -267l273 267h206l-389 -387h-210z" />
    <glyph glyph-name="zcaron" unicode="&#x17e;" horiz-adv-x="1716" 
d="M1701 1603l-1265 -1399h1028l-33 -204h-1266q-51 0 -75.5 22.5t-18.5 59.5q6 43 54 97l1269 1404h-1009l32 198h1244q50 0 75 -22.5t19 -59.5q-8 -46 -54 -96zM793 2534h195l161 -330l268 330h192l-381 -478h-197z" />
    <glyph glyph-name="florin" unicode="&#x192;" horiz-adv-x="1510" 
d="M621 1394l55 397q32 227 185.5 360t388.5 133q86 0 174 -18l-26 -199q-58 12 -126 12q-311 0 -363 -382l-42 -303h437l-26 -196h-438l-143 -1032q-42 -302 -206 -460.5t-407 -158.5q-58 0 -92 5l27 197h33q155 0 262.5 98t134.5 294l145 1057h-373l26 196h374z" />
    <glyph glyph-name="uni0218" unicode="&#x218;" horiz-adv-x="1712" 
d="M1312 704q0 55 -13 99.5t-42.5 80t-63 62t-89.5 52.5t-105.5 44t-125.5 43q-81 26 -138.5 47t-119.5 48.5t-103 55.5t-80.5 65.5t-62 80t-36 97t-13.5 119.5q0 62 12 135q27 173 97 294t183.5 192.5t258.5 103t339 31.5q279 0 568 -53l-55 -206q-259 40 -449 40
q-76 0 -138.5 -3.5t-130.5 -13.5t-121.5 -26.5t-105 -43.5t-88 -64t-63 -89t-36.5 -117q-10 -60 -10 -113q0 -45 9.5 -81t24.5 -64.5t46 -54t62 -44t86 -40t104 -38t128 -40.5q101 -31 177.5 -63t147 -78.5t115.5 -102t71.5 -131.5t26.5 -169q0 -55 -11 -127
q-28 -178 -101 -304.5t-190.5 -203.5t-270 -112.5t-352.5 -35.5q-311 0 -575 55l58 211q283 -45 543 -45q104 0 185.5 10.5t159 38.5t131.5 75t93.5 122t55.5 177q7 42 7 84zM898 -211l-323 -638h-154l267 638h210z" />
    <glyph glyph-name="uni0219" unicode="&#x219;" horiz-adv-x="1544" 
d="M1156 525q0 49 -16.5 86.5t-43.5 63.5t-75 49t-96 40t-122 41q-15 5 -23 7q-180 58 -239 84q-158 72 -208 189q-27 64 -27 146q0 50 8 97q17 109 60 192t103 136.5t143 87.5t173.5 47.5t200.5 13.5q287 0 559 -59l-54 -188q-237 43 -430 43q-53 0 -89 -1t-91 -6
t-93.5 -14.5t-83 -28t-73.5 -44.5t-52 -66t-31 -90q-5 -37 -5 -60q0 -27 5.5 -50.5t13 -42t23 -35.5t29.5 -29.5t38.5 -25.5t43.5 -21.5t50.5 -20t54 -18.5t60.5 -19.5t62 -20.5q83 -28 139 -49.5t115 -50.5t95.5 -59.5t67.5 -70t44.5 -89t13.5 -110.5q0 -47 -9 -102
q-18 -115 -65.5 -202.5t-114 -143.5t-158.5 -91.5t-190.5 -49.5t-218.5 -14q-291 0 -546 59l55 191q241 -42 442 -42q44 0 71 0.5t74 3t78 7.5t74 14.5t72.5 23.5t62.5 35t54.5 48t39 64.5t24.5 82.5q5 29 5 62zM851 -204l-324 -638h-153l267 638h210z" />
    <glyph glyph-name="uni021A" unicode="&#x21a;" horiz-adv-x="1647" 
d="M1883 2330l-33 -212h-624l-336 -2118h-252l336 2118h-625l33 212h1501zM359 -839l267 638h211l-325 -638h-153z" />
    <glyph glyph-name="uni021B" unicode="&#x21b;" horiz-adv-x="1148" 
d="M702 2245l244 39l-79 -503h389l-30 -192h-389l-177 -1114q-10 -61 -10 -112q0 -112 59 -150t199 -38q44 0 97 5l-10 -185q-114 -19 -191 -19q-206 0 -303 80t-97 252q0 60 12 134l182 1147h-318l30 192h319zM273 -852l268 638h210l-325 -638h-153z" />
    <glyph glyph-name="circumflex" unicode="&#x2c6;" horiz-adv-x="1076" 
d="M644 2383h196l238 -478h-196l-160 330l-268 -330h-192z" />
    <glyph glyph-name="caron" unicode="&#x2c7;" horiz-adv-x="1023" 
d="M310 2383h196l161 -330l268 330h192l-383 -478h-196z" />
    <glyph glyph-name="uni02C9" unicode="&#x2c9;" horiz-adv-x="1361" 
d="M385 2026l28 175h896l-28 -175h-896z" />
    <glyph glyph-name="breve" unicode="&#x2d8;" horiz-adv-x="1062" 
d="M338 2343h153q-2 -98 49.5 -164.5t154.5 -66.5q104 0 176 66t101 165h155q-21 -85 -59 -155.5t-94 -126t-134 -86.5t-172 -31q-87 0 -152 27t-103.5 75.5t-57.5 111.5t-19 139q0 14 2 46z" />
    <glyph glyph-name="dotaccent" unicode="&#x2d9;" horiz-adv-x="640" 
d="M465 1980q-65 0 -103.5 46t-28.5 113q11 67 64 112.5t118 45.5q66 0 103.5 -45.5t26.5 -112.5t-62.5 -113t-117.5 -46z" />
    <glyph glyph-name="ring" unicode="&#x2da;" horiz-adv-x="968" 
d="M604 1853q-118 0 -194.5 78.5t-76.5 195.5q0 28 4 52q21 134 129.5 229.5t240.5 95.5q119 0 195.5 -78t76.5 -195q0 -28 -4 -52q-21 -135 -130 -230.5t-241 -95.5zM464 2147q0 -69 45.5 -115t115.5 -46q79 0 143 56t77 137q3 17 3 31q0 69 -45.5 115t-116.5 46
q-78 0 -142 -56t-77 -136q-3 -17 -3 -32z" />
    <glyph glyph-name="ogonek" unicode="&#x2db;" horiz-adv-x="699" 
d="M348 0h146q-215 -189 -238 -334q-3 -18 -3 -35q0 -61 36 -96.5t101 -35.5q84 0 157 40l26 -117q-58 -41 -130.5 -64t-136.5 -23q-111 0 -178.5 57.5t-67.5 158.5q0 25 4 48q17 109 100.5 216.5t183.5 184.5z" />
    <glyph glyph-name="tilde" unicode="&#x2dc;" horiz-adv-x="1151" 
d="M1016 2293h149q-39 -159 -119 -244.5t-166 -85.5q-51 0 -89 17.5t-59.5 42t-39.5 49t-39.5 42t-47.5 17.5q-83 0 -134 -160h-149q39 158 119 243.5t165 85.5q51 0 89 -17t60 -42t39.5 -49.5t39 -41.5t48.5 -17q43 0 75 38t59 122z" />
    <glyph glyph-name="hungarumlaut" unicode="&#x2dd;" horiz-adv-x="1180" 
d="M242 1893l349 478h280l-445 -478h-184zM697 1893l350 478h280l-446 -478h-184z" />
    <glyph glyph-name="uni03A9" unicode="&#x3a9;" horiz-adv-x="2415" 
d="M2048 1213q15 93 15 188q0 116 -22 222.5t-69.5 201.5t-116.5 165t-169.5 111t-221.5 41q-225 0 -416.5 -125.5t-314 -337t-164.5 -473.5q-17 -103 -17 -212q0 -275 104.5 -495t260.5 -333l-26 -166h-803l34 210h470q-127 145 -202.5 347.5t-75.5 444.5q0 119 19 240
q38 241 147.5 449t264.5 353t351 227.5t404 82.5q152 0 283 -46t227 -128t164.5 -194t102.5 -246t34 -281q0 -104 -16 -204q-52 -326 -216.5 -600t-375.5 -445h470l-33 -210h-799l27 166q87 52 170.5 123t166 169t149.5 210.5t118.5 253.5t75.5 291z" />
    <glyph glyph-name="uni03BC" unicode="&#x3bc;" horiz-adv-x="1946" 
d="M159 -656l386 2437h225l-181 -1142q-9 -54 -9 -106q0 -153 77 -245t228 -92q147 0 269 97t200 261.5t112 378.5l134 848h227l-185 -1170q-30 -184 -30 -259q0 -162 108 -200l-28 -176q-71 0 -124 22t-84 57.5t-50 88t-25 104.5t-6 117h-2q-95 -185 -242.5 -287
t-307.5 -102q-113 0 -193 43.5t-146 137.5l-129 -813h-224z" />
    <glyph glyph-name="pi" unicode="&#x3c0;" horiz-adv-x="2226" 
d="M2282 1567h-435q-106 -325 -172 -735q-23 -143 -23 -249q0 -202 82.5 -301t258.5 -99l-51 -207q-121 0 -213.5 23.5t-152.5 65.5t-98 104.5t-54 135t-16 162.5q0 102 21 238q69 428 205 862h-653q-121 -557 -236.5 -967.5t-203.5 -599.5h-260q143 318 252.5 677
t234.5 890h-131q-92 0 -166.5 -16.5t-172.5 -60.5l-36 137q173 154 501 154h1578z" />
    <glyph glyph-name="uni200A" unicode="&#x200a;" horiz-adv-x="73" 
 />
    <glyph glyph-name="uni2010" unicode="&#x2010;" horiz-adv-x="1304" 
d="M286 780l34 211h838l-34 -211h-838z" />
    <glyph glyph-name="endash" unicode="&#x2013;" horiz-adv-x="2038" 
d="M286 787l31 198h1575l-31 -198h-1575z" />
    <glyph glyph-name="emdash" unicode="&#x2014;" horiz-adv-x="3559" 
d="M286 787l31 198h3096l-31 -198h-3096z" />
    <glyph glyph-name="quoteleft" unicode="&#x2018;" horiz-adv-x="706" 
d="M242 1675l403 794h195l-332 -794h-266z" />
    <glyph glyph-name="quoteright" unicode="&#x2019;" horiz-adv-x="706" 
d="M242 1675l332 794h266l-403 -794h-195z" />
    <glyph glyph-name="quotesinglbase" unicode="&#x201a;" horiz-adv-x="702" 
d="M22 -415l333 794h266l-404 -794h-195z" />
    <glyph glyph-name="quotedblleft" unicode="&#x201c;" horiz-adv-x="1178" 
d="M242 1675l403 794h195l-332 -794h-266zM713 1675l404 794h195l-332 -794h-267z" />
    <glyph glyph-name="quotedblright" unicode="&#x201d;" horiz-adv-x="1178" 
d="M242 1675l332 794h266l-404 -794h-194zM714 1675l332 794h266l-403 -794h-195z" />
    <glyph glyph-name="quotedblbase" unicode="&#x201e;" horiz-adv-x="1174" 
d="M22 -415l333 794h266l-405 -794h-194zM494 -415l333 794h266l-404 -794h-195z" />
    <glyph glyph-name="dagger" unicode="&#x2020;" horiz-adv-x="1759" 
d="M947 1702l106 674h236l-107 -674h639l-33 -210h-639l-302 -1912h-236l303 1912h-626l33 210h626z" />
    <glyph glyph-name="daggerdbl" unicode="&#x2021;" horiz-adv-x="1840" 
d="M658 -420l185 1171h-629l33 209h629l97 608h-629l33 210h629l94 598h235l-94 -598h629l-33 -210h-629l-97 -608h629l-33 -209h-629l-185 -1171h-235z" />
    <glyph glyph-name="bullet" unicode="&#x2022;" horiz-adv-x="1302" 
d="M650 663q-189 0 -322 133.5t-133 322.5t133 322.5t322 133.5t322.5 -133.5t133.5 -322.5t-133.5 -322.5t-322.5 -133.5z" />
    <glyph glyph-name="ellipsis" unicode="&#x2026;" horiz-adv-x="2809" 
d="M514 152q-16 -100 -52 -138t-120 -38q-67 0 -94.5 23.5t-27.5 79.5q0 24 7 73q16 100 53 139t118 39q66 0 94 -25t28 -83q0 -29 -6 -70zM1558 152q-16 -100 -51.5 -138t-118.5 -38q-67 0 -94.5 23t-27.5 79q0 25 7 74q16 100 52.5 139t118.5 39q65 0 92.5 -24.5
t27.5 -82.5q0 -30 -6 -71zM2433 -24q-67 0 -95 23.5t-28 79.5q0 24 7 73q15 99 52.5 138.5t119.5 39.5q66 0 93.5 -24.5t27.5 -83.5q0 -29 -6 -70q-16 -100 -52 -138t-119 -38z" />
    <glyph glyph-name="perthousand" unicode="&#x2030;" horiz-adv-x="3811" 
d="M700 970q-218 0 -308.5 93.5t-90.5 293.5q0 115 29 299q19 121 41 211t55 170.5t76 134.5t102 94t136.5 58t176.5 18q219 0 310 -94t91 -295q0 -115 -29 -297q-23 -146 -51 -249t-73 -190t-107 -139t-150.5 -80t-207.5 -28zM476 1367q0 -124 54 -186t189 -62q61 0 110 14
t85 36t65 62t48 79t35.5 101t26.5 114t23 131q31 199 31 286q0 126 -54 189t-190 63q-54 0 -98 -9.5t-79 -30.5t-61.5 -45.5t-47.5 -64.5t-36 -77t-28 -93t-21.5 -102.5t-19.5 -115.5q-32 -196 -32 -289zM1540 375q0 115 29 299q23 146 51 249t72.5 190t106.5 139t150.5 80
t206.5 28q219 0 310 -94t91 -295q0 -115 -29 -297q-23 -146 -51 -249t-73 -190t-107 -139t-151 -80t-208 -28q-218 0 -308 93.5t-90 293.5zM1715 384q0 -123 53.5 -185t188.5 -62q61 0 110.5 14t85.5 36t64.5 62t47.5 79t35.5 101t26.5 114t23 131q32 205 32 288
q0 124 -54.5 187t-190.5 63q-48 0 -88 -8.5t-72 -22t-58.5 -38.5t-46.5 -50t-37 -64t-29 -73.5t-23 -85.5t-18.5 -93t-17.5 -103q-32 -196 -32 -290zM3682 972q0 -114 -29 -298q-23 -146 -51 -249t-73 -190t-107 -139t-150.5 -80t-207.5 -28q-218 0 -308 93t-90 293
q0 115 29 300q19 121 41 211t54.5 170.5t75.5 134.5t102.5 94t137 58t176.5 18q219 0 309.5 -93.5t90.5 -294.5zM2840 385q0 -124 54 -186t189 -62q53 0 97.5 9.5t79 30.5t61 45.5t48 64t36.5 76.5t28 93t22 102.5t20 115.5q32 205 32 287q0 125 -54 188t-190 63
q-61 0 -110.5 -14t-85 -36t-64.5 -62t-47.5 -79t-35 -101.5t-26.5 -114.5t-22 -131q-32 -196 -32 -289zM467 -48l1725 2426h197l-1726 -2426h-196z" />
    <glyph glyph-name="guilsinglleft" unicode="&#x2039;" horiz-adv-x="981" 
d="M469 862l309 -655h-241l-351 655l559 656h240z" />
    <glyph glyph-name="guilsinglright" unicode="&#x203a;" horiz-adv-x="981" 
d="M931 862l-558 -655h-242l518 655l-310 656h241z" />
    <glyph glyph-name="fraction" unicode="&#x2044;" horiz-adv-x="506" 
d="M-615 -48l1724 2426h197l-1725 -2426h-196z" />
    <glyph glyph-name="uni2070" unicode="&#x2070;" horiz-adv-x="1230" 
d="M268 1740q0 115 29 299q23 146 50.5 249t72.5 190t107 138.5t150.5 79.5t207.5 28q219 0 309 -93.5t90 -294.5q0 -121 -28 -297q-23 -146 -51 -249t-73 -190.5t-107 -139t-150.5 -79.5t-206.5 -28q-219 0 -309.5 93.5t-90.5 293.5zM443 1750q0 -124 54 -186t190 -62
q61 0 110 14t85 36t64.5 61.5t47.5 78.5t35.5 101t26.5 114.5t23 131.5q32 205 32 287q0 124 -54.5 187t-189.5 63q-48 0 -88.5 -8.5t-72.5 -22.5t-58.5 -38t-46.5 -49.5t-37.5 -64t-29 -73.5t-23 -85.5t-19.5 -93t-17 -102.5q-32 -196 -32 -289z" />
    <glyph glyph-name="uni2074" unicode="&#x2074;" horiz-adv-x="1166" 
d="M782 1365l50 318h-534q-75 0 -100 28.5t-17 78.5q8 56 98 154l627 683q88 95 169 95q37 0 59.5 -21t22.5 -63q0 -14 -3 -30l-123 -781h177l-23 -144h-177l-51 -318h-175zM957 2470l-585 -643h484z" />
    <glyph glyph-name="uni2075" unicode="&#x2075;" horiz-adv-x="1084" 
d="M488 2185q68 4 119 4q67 0 119.5 -3t106.5 -11t94 -22t75.5 -37t58 -54.5t35.5 -75.5t13 -100q0 -46 -9 -101q-36 -227 -173 -328t-381 -101q-200 0 -389 40l41 144q184 -30 321 -30q80 0 137 7.5t104 26.5t78 52.5t52 83.5t32 121q4 24 4 50q0 41 -12.5 72.5t-38.5 52
t-58.5 34.5t-79 21t-92 9.5t-105.5 2.5q-138 0 -254 -7l153 676h773l-24 -154h-616z" />
    <glyph glyph-name="uni2076" unicode="&#x2076;" horiz-adv-x="1191" 
d="M1213 1783q-16 -102 -51.5 -178t-84.5 -124.5t-117.5 -78t-143 -41t-169.5 -11.5q-111 0 -188.5 24t-123 71.5t-65.5 112t-20 151.5q0 79 18 195q25 162 56 277.5t78.5 211t109 155t152 100.5t203.5 58t266 17q5 0 19 -0.5t42.5 -1t61.5 -0.5l-9 -145q-25 -1 -75 -2
q-211 -6 -308 -28q-210 -48 -303 -213q-38 -67 -60 -157q202 24 312 24q100 0 171.5 -14t127.5 -47t83.5 -93t27.5 -148q0 -55 -10 -115zM666 1500q182 0 264.5 64.5t107.5 221.5q7 49 7 77q0 113 -70.5 153t-222.5 40q-94 0 -285 -27q-13 -56 -28 -153q-13 -87 -13 -138
q0 -111 53.5 -174.5t186.5 -63.5z" />
    <glyph glyph-name="uni2077" unicode="&#x2077;" horiz-adv-x="1001" 
d="M1175 2556l-722 -1188h-198l745 1190h-708l24 152h778q61 0 88.5 -23.5t20.5 -65.5q-4 -27 -28 -65z" />
    <glyph glyph-name="uni2078" unicode="&#x2078;" horiz-adv-x="1196" 
d="M650 1353q-98 0 -173 15t-134 48.5t-90 92t-31 141.5q0 40 7 82q21 127 86.5 204.5t174.5 127.5q-75 43 -109.5 101.5t-34.5 140.5q0 36 8 86q27 170 161.5 251t350.5 81q193 0 304 -67t111 -205q0 -25 -5 -60q-19 -119 -72 -194.5t-169 -132.5q163 -85 163 -259
q0 -34 -6 -75q-14 -91 -50.5 -158.5t-85.5 -109t-117 -67t-136.5 -34.5t-152.5 -9zM400 1686q0 -54 20.5 -92t59.5 -58t85.5 -28.5t107.5 -8.5q55 0 99 5.5t87 21.5t74 42t54 69t32 101q4 24 4 50q0 97 -73 142t-229 58q-137 -17 -217.5 -73t-99.5 -177q-4 -25 -4 -52z
M518 2325q0 -89 71 -134.5t214 -56.5q61 11 107 26t88.5 41t68.5 67t35 97q4 23 4 46q0 41 -14 71t-37 49t-57.5 30.5t-71 15.5t-82.5 4q-64 0 -112.5 -8.5t-94.5 -31t-76 -67t-40 -109.5q-3 -21 -3 -40z" />
    <glyph glyph-name="uni2079" unicode="&#x2079;" horiz-adv-x="1189" 
d="M295 2294q20 127 68 213.5t124 133.5t165 66.5t208 19.5q216 0 306.5 -90t90.5 -268q0 -80 -18 -196q-26 -162 -56.5 -277.5t-78 -211t-109 -155t-151.5 -100.5t-203.5 -58t-266.5 -17q-5 0 -18.5 0.5t-42 1t-62.5 0.5l9 145q25 1 75 2q211 6 308 28q210 47 303 212
q39 68 61 158q-204 -24 -313 -24q-100 0 -171 13.5t-127 46.5t-83.5 92.5t-27.5 147.5q0 56 10 117zM1068 2201q13 87 13 139q0 111 -53 174t-186 63q-183 0 -265 -64.5t-107 -221.5q-7 -41 -7 -78q0 -112 70.5 -152t222.5 -40q92 0 285 27q6 28 27 153z" />
    <glyph glyph-name="uni2080" unicode="&#x2080;" horiz-adv-x="1230" 
d="M268 -8q0 115 29 299q23 146 50.5 249t72.5 190t107 138.5t150.5 79.5t207.5 28q219 0 309 -93.5t90 -294.5q0 -121 -28 -297q-23 -146 -51 -249t-73 -190.5t-107 -139t-150.5 -79.5t-206.5 -28q-219 0 -309.5 93.5t-90.5 293.5zM443 2q0 -124 54 -186t190 -62
q61 0 110 14t85 36t64.5 61.5t47.5 78.5t35.5 101t26.5 114.5t23 131.5q32 205 32 287q0 124 -54.5 187t-189.5 63q-48 0 -88.5 -8.5t-72.5 -22.5t-58.5 -38t-46.5 -49.5t-37.5 -64t-29 -73.5t-23 -85.5t-19.5 -93t-17 -102.5q-32 -196 -32 -289z" />
    <glyph glyph-name="uni2081" unicode="&#x2081;" horiz-adv-x="713" 
d="M420 -378l183 1156q-154 -42 -330 -68l14 147q203 32 385 108h135l-213 -1343h-174z" />
    <glyph glyph-name="uni2082" unicode="&#x2082;" horiz-adv-x="1068" 
d="M368 933q233 41 411 41q410 0 410 -263q0 -36 -5 -65q-28 -179 -143 -293.5t-318 -193.5q-161 -63 -234 -148t-120 -239h676l-25 -155h-881q27 83 47 138.5t44.5 116t46.5 100.5t51 82.5t59.5 72t71 59.5t87 54.5t105.5 48.5q154 62 244 138t108 189q4 23 4 47
q0 88 -73 123.5t-244 35.5q-129 0 -327 -30z" />
    <glyph glyph-name="uni2083" unicode="&#x2083;" horiz-adv-x="1069" 
d="M1147 650q-36 -230 -234 -323q71 -31 115.5 -94t44.5 -155q0 -34 -5 -61q-18 -117 -65 -198t-121.5 -127.5t-166.5 -66.5t-214 -20q-193 0 -372 39l42 144q219 -31 313 -31q191 0 284.5 53.5t115.5 196.5q4 23 4 48q0 79 -45.5 125.5t-124.5 55.5q-70 9 -203 9h-79
l21 138q153 3 286 23q91 14 148.5 71.5t71.5 141.5q5 32 5 52q0 42 -15 71t-38 45t-63 25t-78.5 11.5t-96.5 2.5q-130 0 -335 -30l4 142q207 38 381 38q73 0 131 -6t115 -23t95 -45t61 -75.5t23 -110.5q0 -36 -5 -66z" />
    <glyph glyph-name="uni2084" unicode="&#x2084;" horiz-adv-x="1166" 
d="M782 -383l50 318h-534q-75 0 -100 28.5t-17 78.5q8 56 98 154l627 683q88 95 169 95q37 0 59.5 -21t22.5 -63q0 -14 -3 -30l-123 -781h177l-23 -144h-177l-51 -318h-175zM957 722l-585 -643h484z" />
    <glyph glyph-name="uni2085" unicode="&#x2085;" horiz-adv-x="1084" 
d="M488 437q68 4 119 4q67 0 119.5 -3t106.5 -11t94 -22t75.5 -37t58 -54.5t35.5 -75.5t13 -100q0 -46 -9 -101q-36 -227 -173 -328t-381 -101q-200 0 -389 40l41 144q184 -30 321 -30q80 0 137 7.5t104 26.5t78 52.5t52 83.5t32 121q4 24 4 50q0 41 -12.5 72.5t-38.5 52
t-58.5 34.5t-79 21t-92 9.5t-105.5 2.5q-138 0 -254 -7l153 676h773l-24 -154h-616z" />
    <glyph glyph-name="uni2086" unicode="&#x2086;" horiz-adv-x="1191" 
d="M1213 35q-16 -102 -51.5 -178t-84.5 -124.5t-117.5 -78t-143 -41t-169.5 -11.5q-111 0 -188.5 24t-123 71.5t-65.5 112t-20 151.5q0 79 18 195q25 162 56 277.5t78.5 211t109 155t152 100.5t203.5 58t266 17q5 0 19 -0.5t42.5 -1t61.5 -0.5l-9 -145q-25 -1 -75 -2
q-211 -6 -308 -28q-210 -48 -303 -213q-38 -67 -60 -157q202 24 312 24q100 0 171.5 -14t127.5 -47t83.5 -93t27.5 -148q0 -55 -10 -115zM666 -248q182 0 264.5 64.5t107.5 221.5q7 49 7 77q0 113 -70.5 153t-222.5 40q-94 0 -285 -27q-13 -56 -28 -153q-13 -87 -13 -138
q0 -111 53.5 -174.5t186.5 -63.5z" />
    <glyph glyph-name="uni2087" unicode="&#x2087;" horiz-adv-x="1001" 
d="M1175 808l-722 -1188h-198l745 1190h-708l24 152h778q61 0 88.5 -23.5t20.5 -65.5q-4 -27 -28 -65z" />
    <glyph glyph-name="uni2088" unicode="&#x2088;" horiz-adv-x="1196" 
d="M650 -395q-98 0 -173 15t-134 48.5t-90 92t-31 141.5q0 40 7 82q21 127 86.5 204.5t174.5 127.5q-75 43 -109.5 101.5t-34.5 140.5q0 36 8 86q27 170 161.5 251t350.5 81q193 0 304 -67t111 -205q0 -25 -5 -60q-19 -119 -72 -194.5t-169 -132.5q163 -85 163 -259
q0 -34 -6 -75q-14 -91 -50.5 -158.5t-85.5 -109t-117 -67t-136.5 -34.5t-152.5 -9zM400 -62q0 -54 20.5 -92t59.5 -58t85.5 -28.5t107.5 -8.5q55 0 99 5.5t87 21.5t74 42t54 69t32 101q4 24 4 50q0 97 -73 142t-229 58q-137 -17 -217.5 -73t-99.5 -177q-4 -25 -4 -52z
M518 577q0 -89 71 -134.5t214 -56.5q61 11 107 26t88.5 41t68.5 67t35 97q4 23 4 46q0 41 -14 71t-37 49t-57.5 30.5t-71 15.5t-82.5 4q-64 0 -112.5 -8.5t-94.5 -31t-76 -67t-40 -109.5q-3 -21 -3 -40z" />
    <glyph glyph-name="uni2089" unicode="&#x2089;" horiz-adv-x="1189" 
d="M295 546q20 127 68 213.5t124 133.5t165 66.5t208 19.5q216 0 306.5 -90t90.5 -268q0 -80 -18 -196q-26 -162 -56.5 -277.5t-78 -211t-109 -155t-151.5 -100.5t-203.5 -58t-266.5 -17q-5 0 -18.5 0.5t-42 1t-62.5 0.5l9 145q25 1 75 2q211 6 308 28q210 47 303 212
q39 68 61 158q-204 -24 -313 -24q-100 0 -171 13.5t-127 46.5t-83.5 92.5t-27.5 147.5q0 56 10 117zM1068 453q13 87 13 139q0 111 -53 174t-186 63q-183 0 -265 -64.5t-107 -221.5q-7 -41 -7 -78q0 -112 70.5 -152t222.5 -40q92 0 285 27q6 28 27 153z" />
    <glyph glyph-name="Euro" unicode="&#x20ac;" horiz-adv-x="1727" 
d="M1385 1027l-62 -167h-636q-13 -122 -13 -208q0 -118 23 -201t76.5 -143.5t145.5 -90t226 -29.5q140 0 366 38l-12 -196q-225 -54 -447 -54q-173 0 -292.5 37.5t-194 117.5t-107.5 197.5t-33 285.5q0 108 14 246h-249l62 167h207q13 83 16 103l21 129h-223l62 168h196
q41 183 92.5 317.5t124 239.5t168 169.5t219.5 97.5t283 33q230 0 430 -52l-52 -199q-207 39 -353 39q-128 0 -226.5 -28.5t-168.5 -79t-122.5 -133t-86 -178t-62.5 -226.5h759l-63 -168h-728l-37 -232h677z" />
    <glyph glyph-name="uni2113" unicode="&#x2113;" horiz-adv-x="1575" 
d="M120 696l316 204q32 204 58.5 346.5t66 310.5t81 281t101.5 226.5t129.5 179.5t162.5 107t204 41q147 0 220.5 -95t73.5 -251q0 -51 -10 -119q-19 -116 -77 -238.5t-139.5 -232t-190.5 -221.5t-219 -205t-235 -186q-12 -149 -12 -237q0 -228 66.5 -338t225.5 -110
q101 0 185 49t204 156l76 -110q-246 -278 -548 -278q-101 0 -179.5 33.5t-128.5 90t-82.5 138.5t-45.5 171.5t-13 196.5q0 62 2 94l-248 -142zM1195 2222q-56 0 -105 -26t-88.5 -76.5t-72.5 -110t-60 -142.5t-48 -157t-40.5 -170.5t-32 -166t-28.5 -160.5t-25 -138
q138 117 238.5 216t186 206.5t136.5 216.5t69 223q8 50 8 95q0 190 -138 190z" />
    <glyph glyph-name="trademark" unicode="&#x2122;" horiz-adv-x="3243" 
d="M2952 934h-187v1173h-2l-502 -1173h-126l-501 1173h-2v-1173h-188v1396h290l469 -1100l462 1100h287v-1396zM1238 2330v-163h-452v-1233h-186v1233h-452v163h1090z" />
    <glyph glyph-name="Omega" unicode="&#x2126;" horiz-adv-x="2415" 
d="M2048 1213q15 93 15 188q0 116 -22 222.5t-69.5 201.5t-116.5 165t-169.5 111t-221.5 41q-225 0 -416.5 -125.5t-314 -337t-164.5 -473.5q-17 -103 -17 -212q0 -275 104.5 -495t260.5 -333l-26 -166h-803l34 210h470q-127 145 -202.5 347.5t-75.5 444.5q0 119 19 240
q38 241 147.5 449t264.5 353t351 227.5t404 82.5q152 0 283 -46t227 -128t164.5 -194t102.5 -246t34 -281q0 -104 -16 -204q-52 -326 -216.5 -600t-375.5 -445h470l-33 -210h-799l27 166q87 52 170.5 123t166 169t149.5 210.5t118.5 253.5t75.5 291z" />
    <glyph glyph-name="estimated" unicode="&#x212e;" horiz-adv-x="2768" 
d="M2241 496h206q-99 -120 -206 -212t-236 -163t-283.5 -108t-329.5 -37q-266 0 -493 84t-384 229.5t-246 348t-89 433.5q0 144 38.5 282t109.5 259.5t178.5 223.5t239.5 175t297.5 114t348.5 41q224 0 413 -54t328.5 -151.5t241 -234.5t159 -301.5t74.5 -353.5h-1898v-741
q280 -236 682 -236q534 0 849 402zM710 1809v-619h1368v619q-302 240 -686 240q-404 0 -682 -240z" />
    <glyph glyph-name="uni2190" unicode="&#x2190;" horiz-adv-x="2306" 
d="M634 866l570 -674h-258l-729 786l729 786h258l-570 -673h1610v-225h-1610z" />
    <glyph glyph-name="uni2191" unicode="&#x2191;" horiz-adv-x="1851" 
d="M1116 1575v-1611h-225v1611l-674 -570v257l786 730l786 -730v-257z" />
    <glyph glyph-name="uni2192" unicode="&#x2192;" horiz-adv-x="2306" 
d="M2244 978l-730 -786h-258l571 674h-1610v225h1610l-571 673h258z" />
    <glyph glyph-name="uni2193" unicode="&#x2193;" horiz-adv-x="1851" 
d="M1789 953v-258l-786 -731l-786 731v258l674 -571v1610h225v-1610z" />
    <glyph glyph-name="uni21E8" unicode="&#x21e8;" horiz-adv-x="2665" 
d="M1552 525h-1363v908h1363v555l1043 -1009l-1043 -1010v556zM2364 979l-649 617v-326h-1365v-582h1365v-326z" />
    <glyph glyph-name="partialdiff" unicode="&#x2202;" horiz-adv-x="1731" 
d="M646 2117l-21 156q220 142 482 142q190 0 317.5 -93t185.5 -258t58 -398q0 -176 -33 -380q-61 -385 -202 -679.5t-353 -462.5t-464 -168q-119 0 -211 41.5t-148.5 115t-85 169t-28.5 208.5q0 75 12 153q28 178 99.5 328t176.5 258.5t247 169t305 60.5q76 0 146 -22
t121 -58t87 -75.5t56 -80.5h2q34 229 34 399q0 291 -103 435.5t-321 144.5q-101 0 -181.5 -26t-177.5 -79zM388 539q0 -107 29 -191t95.5 -138t162.5 -54q99 0 191.5 51.5t164 135.5t133 197.5t104.5 231.5t72 243q-119 278 -367 278q-112 0 -212 -52t-172.5 -140
t-121.5 -200.5t-69 -236.5q-10 -60 -10 -125z" />
    <glyph glyph-name="Delta" unicode="&#x2206;" horiz-adv-x="2096" 
d="M1909 175l-28 -175h-1850l26 169l1132 2161h288zM1650 206l-368 1853l-962 -1853h1330z" />
    <glyph glyph-name="product" unicode="&#x220f;" horiz-adv-x="2529" 
d="M2709 2400l-35 -222h-385l-415 -2622h-245l415 2622h-1023l-415 -2622h-244l415 2622h-388l35 222h2285z" />
    <glyph glyph-name="summation" unicode="&#x2211;" horiz-adv-x="1959" 
d="M441 2400h1665l-33 -212h-1339l687 -1176l-1125 -1226h1451l-37 -231h-1758l29 181l1141 1247l-708 1239z" />
    <glyph glyph-name="minus" unicode="&#x2212;" horiz-adv-x="1902" 
d="M217 866l36 225h1587l-35 -225h-1588z" />
    <glyph glyph-name="uni2215" unicode="&#x2215;" horiz-adv-x="506" 
d="M-615 -48l1724 2426h197l-1725 -2426h-196z" />
    <glyph glyph-name="uni2219" unicode="&#x2219;" horiz-adv-x="739" 
d="M294 882q0 23 7 72q16 100 53 139t118 39q66 0 94 -24t28 -82q0 -25 -7 -72q-16 -100 -51.5 -138t-119.5 -38q-67 0 -94.5 23.5t-27.5 80.5z" />
    <glyph glyph-name="radical" unicode="&#x221a;" horiz-adv-x="1805" 
d="M2058 2833l-1148 -3009h-234l-248 1394l-238 -90l-26 179l471 178l206 -1302l1002 2650h215z" />
    <glyph glyph-name="infinity" unicode="&#x221e;" horiz-adv-x="2637" 
d="M2512 1108q0 -66 -10 -129q-20 -129 -77 -245.5t-141.5 -207.5t-201.5 -145t-248 -54q-57 0 -110.5 14.5t-96 35.5t-87.5 59.5t-76.5 72t-72.5 89t-66 94t-66 102.5q-317 -340 -613 -340q-179 0 -288 126.5t-109 309.5q0 47 7 89q22 136 100.5 256.5t200.5 196t256 75.5
q288 0 504 -347q71 76 116.5 122t112 108t119.5 99t116.5 72.5t128 52t130.5 16.5q115 0 206 -41t148.5 -113t87.5 -165.5t30 -202.5zM778 1292q-116 0 -204.5 -84.5t-111.5 -228.5q-6 -36 -6 -69q0 -113 61.5 -177.5t162.5 -64.5q97 0 210.5 70t273.5 241
q-106 172 -197 242.5t-189 70.5zM2293 1086q0 156 -78 241t-209 85q-60 0 -129 -29.5t-127.5 -72.5t-124 -106t-110.5 -113.5t-95 -111.5q31 -62 59.5 -112.5t74 -113.5t90.5 -105.5t104.5 -72t119.5 -29.5q153 0 268 114t148 319q9 57 9 107z" />
    <glyph glyph-name="integral" unicode="&#x222b;" horiz-adv-x="1139" 
d="M1455 2464q-27 22 -69 37t-84 15q-62 0 -116 -22.5t-93 -58.5t-72 -90.5t-54.5 -107.5t-40 -122t-29 -121.5t-20.5 -117.5q-42 -265 -98 -805t-100 -819q-12 -76 -30.5 -151t-49 -157.5t-68 -155t-90 -139t-113.5 -114t-140 -76t-167 -28.5q-68 0 -144 22t-116 48l80 195
q35 -22 88.5 -40t107.5 -18q311 0 410 627q41 256 101.5 820.5t100.5 815.5q14 85 32 161.5t48 160.5t66.5 153t89.5 133t116 108t146 70t178 26q55 0 118.5 -20t94.5 -43z" />
    <glyph glyph-name="approxequal" unicode="&#x2248;" horiz-adv-x="2125" 
d="M1927 819l-35 -227q-93 -86 -222.5 -130t-255.5 -44q-84 0 -159.5 21.5t-133.5 52.5t-115.5 62.5t-131 53t-154.5 21.5q-124 0 -253.5 -44t-222.5 -130l36 227q93 86 222.5 129.5t254.5 43.5q84 0 159 -21.5t133 -52.5t115.5 -62t131 -52.5t154.5 -21.5q125 0 255 44
t222 130zM2035 1502l-36 -228q-92 -86 -221.5 -129.5t-254.5 -43.5q-84 0 -159.5 21.5t-133.5 52.5t-115.5 62t-131 52.5t-154.5 21.5q-125 0 -254.5 -43.5t-223.5 -129.5l36 227q94 87 223 130.5t255 43.5q71 0 136.5 -15.5t113 -39t101 -51t100 -51t110.5 -39t133 -15.5
q125 0 254.5 44t221.5 130z" />
    <glyph glyph-name="notequal" unicode="&#x2260;" horiz-adv-x="2089" 
d="M256 524l36 224h603l271 460h-802l36 223h897l327 556h181l-327 -556h509l-36 -223h-604l-270 -460h802l-36 -224h-898l-326 -555h-181l326 555h-508z" />
    <glyph glyph-name="lessequal" unicode="&#x2264;" horiz-adv-x="2007" 
d="M298 1080l33 212l1669 682l-39 -245l-1361 -543l1189 -543l-39 -245zM123 -17l37 225h1560l-36 -225h-1561z" />
    <glyph glyph-name="greaterequal" unicode="&#x2265;" horiz-adv-x="2006" 
d="M266 643l1360 543l-1188 543l39 245l1452 -682l-34 -212l-1668 -682zM161 -17l36 225h1561l-37 -225h-1560z" />
    <glyph glyph-name="lozenge" unicode="&#x25ca;" horiz-adv-x="1736" 
d="M1681 1168l-801 -1233h-229l-412 1233l802 1228h228zM802 167l637 1001l-320 1003l-637 -1003z" />
    <glyph glyph-name="zero.numerator" horiz-adv-x="1230" 
d="M268 1358q0 115 29 299q23 146 50.5 249t72.5 190t107 138.5t150.5 79.5t207.5 28q219 0 309 -93.5t90 -294.5q0 -121 -28 -297q-23 -146 -51 -249t-73 -190.5t-107 -139t-150.5 -79.5t-206.5 -28q-219 0 -309.5 93.5t-90.5 293.5zM443 1368q0 -124 54 -186t190 -62
q61 0 110 14t85 36t64.5 61.5t47.5 78.5t35.5 101t26.5 114.5t23 131.5q32 205 32 287q0 124 -54.5 187t-189.5 63q-48 0 -88.5 -8.5t-72.5 -22.5t-58.5 -38t-46.5 -49.5t-37.5 -64t-29 -73.5t-23 -85.5t-19.5 -93t-17 -102.5q-32 -196 -32 -289z" />
    <glyph glyph-name="one.numerator" horiz-adv-x="713" 
d="M420 988l183 1156q-154 -42 -330 -68l14 147q203 32 385 108h135l-213 -1343h-174z" />
    <glyph glyph-name="two.numerator" horiz-adv-x="1068" 
d="M368 2299q233 41 411 41q410 0 410 -263q0 -36 -5 -65q-28 -179 -143 -293.5t-318 -193.5q-161 -63 -234 -148t-120 -239h676l-25 -155h-881q27 83 47 138.5t44.5 116t46.5 100.5t51 82.5t59.5 72t71 59.5t87 54.5t105.5 48.5q154 62 244 138t108 189q4 23 4 47
q0 88 -73 123.5t-244 35.5q-129 0 -327 -30z" />
    <glyph glyph-name="three.numerator" horiz-adv-x="1069" 
d="M1147 2016q-36 -230 -234 -323q71 -31 115.5 -94t44.5 -155q0 -33 -5 -61q-18 -117 -65 -198t-121.5 -127.5t-166.5 -66.5t-214 -20q-193 0 -372 39l42 144q219 -31 313 -31q191 0 284.5 53.5t115.5 196.5q4 23 4 48q0 79 -45.5 125.5t-124.5 55.5q-70 9 -203 9h-79
l21 138q153 3 286 23q91 14 148.5 71.5t71.5 141.5q5 32 5 52q0 42 -15 71t-38 45t-63 25t-78.5 11.5t-96.5 2.5q-130 0 -335 -30l4 142q207 38 381 38q73 0 131 -6t115 -23t95 -45t61 -75.5t23 -110.5q0 -36 -5 -66z" />
    <glyph glyph-name="four.numerator" horiz-adv-x="1166" 
d="M782 983l50 318h-534q-75 0 -100 28.5t-17 78.5q8 56 98 154l627 683q88 95 169 95q37 0 59.5 -21t22.5 -63q0 -14 -3 -30l-123 -781h177l-23 -144h-177l-51 -318h-175zM957 2088l-585 -643h484z" />
    <glyph glyph-name="five.numerator" horiz-adv-x="1084" 
d="M488 1803q68 4 119 4q67 0 119.5 -3t106.5 -11t94 -22t75.5 -37t58 -54.5t35.5 -75.5t13 -100q0 -46 -9 -101q-36 -227 -173 -328t-381 -101q-200 0 -389 40l41 144q184 -30 321 -30q80 0 137 7.5t104 26.5t78 52.5t52 83.5t32 121q4 24 4 50q0 41 -12.5 72.5t-38.5 52
t-58.5 34.5t-79 21t-92 9.5t-105.5 2.5q-138 0 -254 -7l153 676h773l-24 -154h-616z" />
    <glyph glyph-name="six.numerator" horiz-adv-x="1191" 
d="M1213 1401q-16 -102 -51.5 -178t-84.5 -124.5t-117.5 -78t-143 -41t-169.5 -11.5q-111 0 -188.5 24t-123 71.5t-65.5 112t-20 151.5q0 79 18 195q25 162 56 277.5t78.5 211t109 155t152 100.5t203.5 58t266 17q5 0 19 -0.5t42.5 -1t61.5 -0.5l-9 -145q-25 -1 -75 -2
q-211 -6 -308 -28q-210 -48 -303 -213q-38 -67 -60 -157q202 24 312 24q100 0 171.5 -14t127.5 -47t83.5 -93t27.5 -148q0 -55 -10 -115zM666 1118q182 0 264.5 64.5t107.5 221.5q7 49 7 77q0 113 -70.5 153t-222.5 40q-94 0 -285 -27q-13 -56 -28 -153q-13 -87 -13 -138
q0 -111 53.5 -174.5t186.5 -63.5z" />
    <glyph glyph-name="seven.numerator" horiz-adv-x="1001" 
d="M1175 2174l-722 -1188h-198l745 1190h-708l24 152h778q61 0 88.5 -23.5t20.5 -65.5q-4 -27 -28 -65z" />
    <glyph glyph-name="eight.numerator" horiz-adv-x="1196" 
d="M650 971q-98 0 -173 15t-134 48.5t-90 92t-31 141.5q0 40 7 82q21 127 86.5 204.5t174.5 127.5q-75 43 -109.5 101.5t-34.5 140.5q0 36 8 86q27 170 161.5 251t350.5 81q193 0 304 -67t111 -205q0 -25 -5 -60q-19 -119 -72 -194.5t-169 -132.5q163 -85 163 -259
q0 -34 -6 -75q-14 -91 -50.5 -158.5t-85.5 -109t-117 -67t-136.5 -34.5t-152.5 -9zM400 1304q0 -54 20.5 -92t59.5 -58t85.5 -28.5t107.5 -8.5q55 0 99 5.5t87 21.5t74 42t54 69t32 101q4 24 4 50q0 97 -73 142t-229 58q-137 -17 -217.5 -73t-99.5 -177q-4 -25 -4 -52z
M518 1943q0 -89 71 -134.5t214 -56.5q61 11 107 26t88.5 41t68.5 67t35 97q4 23 4 46q0 41 -14 71t-37 49t-57.5 30.5t-71 15.5t-82.5 4q-64 0 -112.5 -8.5t-94.5 -31t-76 -67t-40 -109.5q-3 -21 -3 -40z" />
    <glyph glyph-name="nine.numerator" horiz-adv-x="1189" 
d="M295 1912q20 127 68 213.5t124 133.5t165 66.5t208 19.5q216 0 306.5 -90t90.5 -268q0 -80 -18 -196q-26 -162 -56.5 -277.5t-78 -211t-109 -155t-151.5 -100.5t-203.5 -58t-266.5 -17q-5 0 -18.5 0.5t-42 1t-62.5 0.5l9 145q25 1 75 2q211 6 308 28q210 47 303 212
q39 68 61 158q-204 -24 -313 -24q-100 0 -171 13.5t-127 46.5t-83.5 92.5t-27.5 147.5q0 56 10 117zM1068 1819q13 87 13 139q0 111 -53 174t-186 63q-183 0 -265 -64.5t-107 -221.5q-7 -41 -7 -78q0 -112 70.5 -152t222.5 -40q92 0 285 27q6 28 27 153z" />
    <glyph glyph-name="zero.denominator" horiz-adv-x="1230" 
d="M268 375q0 115 29 299q23 146 50.5 249t72.5 190t107 138.5t150.5 79.5t207.5 28q219 0 309 -93.5t90 -294.5q0 -121 -28 -297q-23 -146 -51 -249t-73 -190.5t-107 -139t-150.5 -79.5t-206.5 -28q-219 0 -309.5 93t-90.5 294zM443 385q0 -124 54 -186t190 -62
q61 0 110 14t85 36t64.5 61.5t47.5 78.5t35.5 101t26.5 114.5t23 131.5q32 205 32 287q0 124 -54.5 187t-189.5 63q-48 0 -88.5 -8.5t-72.5 -22.5t-58.5 -38t-46.5 -49.5t-37.5 -64t-29 -73.5t-23 -85.5t-19.5 -93t-17 -102.5q-32 -196 -32 -289z" />
    <glyph glyph-name="one.denominator" horiz-adv-x="713" 
d="M420 5l183 1156q-154 -42 -330 -68l14 147q203 32 385 108h135l-213 -1343h-174z" />
    <glyph glyph-name="two.denominator" horiz-adv-x="1068" 
d="M368 1316q233 41 411 41q410 0 410 -263q0 -36 -5 -65q-28 -179 -143 -293.5t-318 -193.5q-161 -63 -234 -148t-120 -239h676l-25 -155h-881q27 83 47 138.5t44.5 116t46.5 100.5t51 82.5t59.5 72t71 59.5t87 54.5t105.5 48.5q154 62 244 138t108 189q4 23 4 47
q0 88 -73 123.5t-244 35.5q-129 0 -327 -30z" />
    <glyph glyph-name="three.denominator" horiz-adv-x="1069" 
d="M1147 1033q-36 -230 -234 -323q71 -31 115.5 -94t44.5 -155q0 -33 -5 -61q-18 -117 -65 -198t-121.5 -127.5t-166.5 -66.5t-214 -20q-193 0 -372 39l42 144q219 -31 313 -31q191 0 284.5 53.5t115.5 196.5q4 23 4 48q0 79 -45.5 125.5t-124.5 55.5q-70 9 -203 9h-79
l21 138q153 3 286 23q91 14 148.5 71.5t71.5 141.5q5 32 5 52q0 42 -15 71t-38 45t-63 25t-78.5 11.5t-96.5 2.5q-130 0 -335 -30l4 142q207 38 381 38q73 0 131 -6t115 -23t95 -45t61 -75.5t23 -110.5q0 -36 -5 -66z" />
    <glyph glyph-name="four.denominator" horiz-adv-x="1166" 
d="M782 0l50 318h-534q-75 0 -100 28.5t-17 78.5q8 56 98 154l627 683q88 95 169 95q37 0 59.5 -21t22.5 -63q0 -13 -3 -30l-123 -781h177l-23 -144h-177l-51 -318h-175zM957 1105l-585 -643h484z" />
    <glyph glyph-name="five.denominator" horiz-adv-x="1084" 
d="M488 820q68 4 119 4q67 0 119.5 -3t106.5 -11t94 -22t75.5 -37t58 -54.5t35.5 -75.5t13 -100q0 -45 -9 -101q-36 -227 -173 -328t-381 -101q-200 0 -389 40l41 144q184 -30 321 -30q80 0 137 7.5t104 26.5t78 52.5t52 83.5t32 121q4 24 4 50q0 41 -12.5 72.5t-38.5 52
t-58.5 34.5t-79 21t-92 9.5t-105.5 2.5q-138 0 -254 -7l153 676h773l-24 -154h-616z" />
    <glyph glyph-name="six.denominator" horiz-adv-x="1191" 
d="M1213 418q-16 -102 -51.5 -178t-84.5 -124.5t-117.5 -78t-143 -41t-169.5 -11.5q-111 0 -188.5 24t-123 71.5t-65.5 112t-20 151.5q0 79 18 195q25 162 56 277.5t78.5 211t109 155t152 100.5t203.5 58t266 17q5 0 19 -0.5t42.5 -1t61.5 -0.5l-9 -145q-25 -1 -75 -2
q-211 -6 -308 -28q-210 -48 -303 -213q-38 -67 -60 -157q202 24 312 24q100 0 171.5 -14t127.5 -47t83.5 -93t27.5 -148q0 -55 -10 -115zM666 135q182 0 264.5 64.5t107.5 221.5q7 49 7 77q0 113 -70.5 153t-222.5 40q-94 0 -285 -27q-13 -56 -28 -153q-13 -87 -13 -138
q0 -111 53.5 -174.5t186.5 -63.5z" />
    <glyph glyph-name="seven.denominator" horiz-adv-x="1001" 
d="M1175 1191l-722 -1188h-198l745 1190h-708l24 152h778q61 0 88.5 -23.5t20.5 -65.5q-4 -27 -28 -65z" />
    <glyph glyph-name="eight.denominator" horiz-adv-x="1196" 
d="M650 -12q-98 0 -173 15t-134 48.5t-90 92t-31 141.5q0 40 7 82q21 127 86.5 204.5t174.5 127.5q-75 43 -109.5 101.5t-34.5 140.5q0 36 8 86q27 170 161.5 251t350.5 81q193 0 304 -67t111 -205q0 -25 -5 -60q-19 -119 -72 -194.5t-169 -132.5q163 -85 163 -259
q0 -35 -6 -75q-14 -91 -50.5 -158.5t-85.5 -109t-117 -67t-136.5 -34.5t-152.5 -9zM400 321q0 -54 20.5 -92t59.5 -58t85.5 -28.5t107.5 -8.5q55 0 99 5.5t87 21.5t74 42t54 69t32 101q4 24 4 50q0 97 -73 142t-229 58q-137 -17 -217.5 -73t-99.5 -177q-4 -25 -4 -52z
M518 960q0 -89 71 -134.5t214 -56.5q61 11 107 26t88.5 41t68.5 67t35 97q4 23 4 46q0 41 -14 71t-37 49t-57.5 30.5t-71 15.5t-82.5 4q-64 0 -112.5 -8.5t-94.5 -31t-76 -67t-40 -109.5q-3 -21 -3 -40z" />
    <glyph glyph-name="nine.denominator" horiz-adv-x="1189" 
d="M295 929q20 127 68 213.5t124 133.5t165 66.5t208 19.5q216 0 306.5 -90t90.5 -268q0 -80 -18 -196q-26 -162 -56.5 -277.5t-78 -211t-109 -155t-151.5 -100.5t-203.5 -58t-266.5 -17q-5 0 -18.5 0.5t-42 1t-62.5 0.5l9 145q25 1 75 2q211 6 308 28q210 47 303 212
q39 68 61 158q-204 -24 -313 -24q-100 0 -171 13.5t-127 46.5t-83.5 92.5t-27.5 147.5q0 56 10 117zM1068 836q13 87 13 139q0 111 -53 174t-186 63q-183 0 -265 -64.5t-107 -221.5q-7 -41 -7 -78q0 -112 70.5 -152t222.5 -40q92 0 285 27q6 28 27 153z" />
    <glyph glyph-name="zero.onum" horiz-adv-x="1875" 
d="M858 -24q-172 0 -290.5 34.5t-190 107t-102.5 175.5t-31 249q0 167 39 407q23 146 49.5 259.5t64.5 218t86.5 180t113.5 137.5t147.5 100t187.5 58t234 20q173 0 291.5 -34.5t190 -107t102.5 -175.5t31 -249q0 -157 -39 -407q-23 -147 -50 -260t-65 -217.5t-86 -180
t-113 -137.5t-148 -99.5t-188 -58t-234 -20.5zM477 556q0 -92 19 -158.5t63.5 -117t124.5 -76t197 -25.5q70 0 130 8.5t109 28t89.5 43t74 60t59 73t47.5 89t37.5 100t30 113t25 122t22.5 133.5q43 265 43 392q0 93 -19 159t-63.5 117t-125 76.5t-197.5 25.5
q-78 0 -143.5 -12t-117 -32t-94.5 -54.5t-74.5 -71t-58.5 -91.5t-45.5 -105t-36 -122.5t-28.5 -133.5t-25 -148q-43 -277 -43 -393z" />
    <glyph glyph-name="one.onum" horiz-adv-x="1104" 
d="M521 0l260 1639q-281 -79 -547 -117l20 203q329 51 615 175h189l-301 -1900h-236z" />
    <glyph glyph-name="two.onum" horiz-adv-x="1673" 
d="M383 1868q352 54 643 54q650 0 650 -382q0 -42 -7 -83q-40 -253 -220 -414t-499 -272q-140 -49 -237 -104t-164 -125t-108 -147t-76 -185h1106l-33 -210h-1383q37 104 64.5 176t60.5 150t62.5 132t66.5 111.5t76 98t87 82t105 74t124 63.5t148 60q125 44 218.5 88.5
t174.5 101.5t129.5 127t61.5 153q5 27 5 61q0 133 -126 185t-424 52q-215 0 -509 -39z" />
    <glyph glyph-name="three.onum" horiz-adv-x="1624" 
d="M1566 1425q-28 -181 -126 -309t-257 -197q118 -42 194 -140t76 -248q0 -42 -8 -95q-23 -143 -75 -251.5t-126 -180.5t-178 -116.5t-222 -63.5t-265 -19q-278 0 -563 57l60 200q326 -45 472 -45q123 0 214.5 11t168.5 38.5t129 73.5t86.5 115.5t49.5 165.5q6 39 6 75
q0 128 -75.5 204.5t-207.5 91.5q-134 15 -322 15q-16 0 -49 -0.5t-51 -0.5l29 190q218 4 431 35q151 22 245 115t116 230q7 43 7 84q0 49 -12 87t-32.5 64.5t-54.5 45.5t-70 29.5t-88.5 16.5t-99.5 8t-113 2q-213 0 -507 -43l7 195q307 57 574 57q111 0 199 -9t174.5 -35
t143.5 -68.5t92.5 -114.5t35.5 -168q0 -54 -8 -102z" />
    <glyph glyph-name="four.onum" horiz-adv-x="1776" 
d="M1038 -173l78 498h-853q-169 0 -169 117q0 18 3 36q14 89 148 234l979 1067q130 143 248 143q50 0 80 -29.5t30 -89.5q0 -24 -4 -45l-196 -1235h277l-32 -198h-277l-78 -498h-234zM1318 1595l-976 -1072h806z" />
    <glyph glyph-name="five.onum" horiz-adv-x="1645" 
d="M532 1075q157 7 206 7q103 0 183.5 -4.5t163 -17t143.5 -34t115.5 -56.5t88.5 -83.5t54 -116.5t20 -153q0 -73 -13 -154q-55 -348 -265 -503t-581 -155q-306 0 -589 59l59 199q252 -44 483 -44q129 0 221 12.5t168.5 43t126.5 84.5t84 134.5t52 194.5q7 51 7 80
q0 57 -16.5 103t-44 78.5t-72.5 56t-94 37.5t-115.5 22.5t-130.5 11.5t-146 3q-202 0 -378 -11l232 1031h1171l-34 -214h-961z" />
    <glyph glyph-name="six.onum" horiz-adv-x="1814" 
d="M1682 639q-25 -157 -79 -273.5t-128 -190.5t-178.5 -119t-218 -62.5t-258.5 -17.5q-136 0 -238.5 24.5t-172 69.5t-113 114t-62 152t-18.5 190q0 121 28 302q40 251 87.5 429t120.5 325.5t168 240t233.5 155.5t312.5 89t409 26q53 0 173 -3l-11 -201q-40 -2 -120 -4
q-101 -3 -153 -5.5t-146.5 -10.5t-147.5 -20t-133.5 -35.5t-129.5 -55.5t-109.5 -80.5t-99.5 -110.5t-74.5 -146t-56.5 -185q309 40 507 40q152 0 260.5 -20.5t193.5 -71t127 -141.5t42 -226q0 -79 -15 -178zM845 181q151 0 255 25t175.5 81.5t111.5 142t60 213.5
q11 74 11 126q0 76 -21 130.5t-58 89t-97.5 54.5t-130 27.5t-166.5 7.5q-150 0 -466 -43q-17 -77 -45 -251q-20 -125 -20 -219q0 -86 18 -151.5t60.5 -120t121 -83.5t191.5 -29z" />
    <glyph glyph-name="seven.onum" horiz-adv-x="1520" 
d="M1616 1677l-1125 -1850h-267l1163 1861h-1115l34 212h1196q85 0 123.5 -33.5t29.5 -92.5q-8 -46 -39 -97z" />
    <glyph glyph-name="eight.onum" horiz-adv-x="1823" 
d="M826 -24q-118 0 -214 13.5t-179 46.5t-139 84t-88 129.5t-32 180.5q0 55 11 127q17 107 54 190.5t93 144.5t121.5 104t151.5 79q-125 65 -180.5 155t-55.5 220q0 62 12 136q21 132 86.5 230t168.5 158.5t234 89.5t291 29q142 0 255.5 -24t198 -73t130 -129.5t45.5 -188.5
q0 -41 -8 -92q-29 -187 -115 -305.5t-275 -204.5q85 -40 142 -90.5t92 -129.5t35 -182q0 -59 -10 -120q-16 -100 -49 -181.5t-77.5 -140.5t-104.5 -104t-125.5 -73.5t-144.5 -46.5t-156.5 -25t-167.5 -7zM420 565q-7 -43 -7 -86q0 -88 33.5 -148.5t97 -93t139 -46
t175.5 -13.5q89 0 160 9t141 35t120 68t87 111.5t52 163.5q7 42 7 83q0 157 -118 229.5t-370 92.5q-85 -11 -153 -29t-131.5 -49.5t-109 -75t-78 -107t-45.5 -144.5zM1549 1544q6 40 6 75q0 82 -33 138t-94.5 85t-133 41t-165.5 12q-82 0 -148 -8t-132.5 -31.5t-113.5 -61.5
t-82.5 -101.5t-49.5 -148.5q-6 -34 -6 -66q0 -144 116 -218t349 -90q78 14 140 31.5t123.5 47t105 68.5t75.5 97t43 130z" />
    <glyph glyph-name="nine.onum" horiz-adv-x="1811" 
d="M272 1259q25 157 79 273.5t128 190.5t178.5 119t218 62.5t258.5 17.5q169 0 287 -36.5t187 -109.5t99.5 -171t30.5 -232q0 -122 -28 -303q-40 -251 -87.5 -429t-120.5 -325.5t-168 -240t-233.5 -155.5t-312.5 -89t-409 -26q-52 0 -173 3l11 201q40 2 120 4q130 4 197 7.5
t184.5 18.5t184.5 39.5t157.5 72t144.5 113.5t105 167t78 231q-310 -40 -508 -40q-152 0 -260.5 20.5t-193.5 71t-127 141.5t-42 226q0 79 15 178zM1109 1717q-200 0 -322 -47t-187 -145.5t-92 -269.5q-11 -74 -11 -126q0 -76 21 -130.5t58 -89t97.5 -54.5t130 -27.5
t166.5 -7.5q149 0 465 43q21 92 46 251q20 125 20 218q0 68 -10.5 123t-38 105t-71 83.5t-112.5 53.5t-160 20z" />
    <glyph glyph-name="dollar.onum" horiz-adv-x="1499" 
d="M1138 552q5 29 5 66q0 56 -19 101.5t-49.5 78.5t-82 63t-104 50.5t-128.5 45.5q-84 28 -141.5 50t-118.5 52t-99.5 63t-71 76t-47 98t-14.5 122q0 58 10 119q42 269 198.5 398t434.5 152l46 287h185l-44 -281q238 -4 473 -48l-53 -196q-231 36 -402 36q-96 0 -169.5 -6
t-151 -25.5t-130.5 -52t-92.5 -89.5t-51.5 -135q-8 -54 -8 -93q0 -36 5.5 -65.5t20 -54.5t29.5 -43.5t45 -37.5t54.5 -32t70.5 -29.5t80 -27.5t95 -30q114 -35 195 -73.5t149 -95t102.5 -136.5t34.5 -183q0 -53 -9 -113q-43 -273 -202.5 -411t-437.5 -167l-46 -291h-185
l45 282q-272 1 -508 50l57 200q243 -40 485 -40q91 0 162 9t138.5 33.5t114.5 64.5t81.5 105.5t48.5 153.5z" />
    <glyph glyph-name="cent.onum" horiz-adv-x="1298" 
d="M1157 455l-8 -187q-199 -42 -354 -47l-44 -280h-177l45 285q-114 14 -195 58t-126.5 114.5t-65.5 155.5t-20 194q0 128 28 304q23 147 53 255.5t79 205.5t116 161t163.5 107.5t222.5 59.5l46 288h177l-44 -278q177 -1 337 -46l-47 -179q-156 27 -259 27q-80 0 -144.5 -7
t-117.5 -19t-95 -34.5t-74 -48t-57.5 -65t-44 -79.5t-34.5 -98.5t-27 -115t-23 -134.5q-30 -196 -30 -291q0 -88 20.5 -148.5t70.5 -105.5t138 -66.5t220 -21.5q93 0 271 36z" />
    <glyph glyph-name="Euro.onum" horiz-adv-x="1592" 
d="M1282 948l-62 -167h-578q-11 -104 -11 -182q0 -105 20.5 -179.5t68.5 -129t131.5 -80.5t204.5 -26q136 0 338 36l-12 -193q-204 -51 -414 -51q-313 0 -445.5 139.5t-132.5 448.5q0 98 12 217h-229l62 167h187l31 196h-206l65 168h175q47 208 111 350.5t160.5 241.5
t229.5 144t315 45q213 0 399 -49l-50 -196q-199 37 -327 37q-96 0 -172.5 -16.5t-136 -51t-104.5 -81t-80 -113.5t-59.5 -141t-45.5 -170h694l-65 -168h-661l-18 -110q-12 -72 -14 -86h619z" />
    <glyph glyph-name="sterling.onum" horiz-adv-x="1727" 
d="M522 950h-309l30 194h281q4 206 34 395q20 130 73 228.5t124.5 160t170 99.5t200.5 53t224 15q166 0 272.5 -51.5t194.5 -154.5l-148 -149q-149 143 -341 143q-139 0 -235 -24t-158.5 -78t-96 -129t-51.5 -187q-17 -106 -21 -321h473l-30 -194h-448q-5 -112 -22 -224
q-23 -146 -71.5 -258t-134.5 -255h520q239 0 473 35l-10 -198q-286 -50 -665 -50h-515q-61 0 -87 27.5t-19 71.5q4 28 41.5 89.5t81.5 128t88.5 172t61.5 210.5q15 95 19 251z" />
    <glyph glyph-name="yen.onum" horiz-adv-x="1603" 
d="M604 2073l285 -1001l613 1001h240l-665 -1079h277l-28 -174h-356l-8 -14l-28 -177h361l-27 -174h-362l-72 -455h-238l72 455h-354l28 174h354l28 177l-4 14h-347l27 174h269l-315 1079h250z" />
    <glyph glyph-name="zero.tnum" 
d="M890 -24q-184 0 -310.5 39.5t-203 122t-110 200t-33.5 283.5q0 202 49 509q28 174 58.5 308.5t73 258.5t96 213t125.5 163t162 118.5t204 68.5t255 24q184 0 311.5 -39.5t204 -122.5t110.5 -201t34 -285q0 -201 -49 -506q-24 -152 -50.5 -272.5t-61.5 -234t-77.5 -199.5
t-98 -161t-123.5 -126.5t-152.5 -88.5t-187.5 -54.5t-226 -17.5zM472 626q0 -108 21 -185.5t70 -137t136.5 -89t214.5 -29.5q111 0 200 24.5t154 63.5t117 109t86 139.5t63.5 178t47.5 200.5t40 230q56 355 56 501q0 86 -13 152.5t-44 122.5t-81 92.5t-127 56.5t-180 20
q-111 0 -200 -24.5t-154 -63t-116.5 -109.5t-85 -139t-63 -178t-47 -200.5t-39.5 -230.5q-56 -357 -56 -504z" />
    <glyph glyph-name="one.tnum" 
d="M945 0l316 1993q-282 -79 -570 -122l21 207q335 53 637 182h197l-358 -2260h-243z" />
    <glyph glyph-name="two.tnum" 
d="M539 2219q370 65 674 65q678 0 678 -436q0 -49 -9 -106q-24 -154 -87 -279t-164 -222.5t-227 -172t-292 -139.5q-124 -49 -215.5 -103.5t-156 -113t-113.5 -137.5t-82 -159.5t-67 -195.5h1162l-35 -220h-1450q36 109 62.5 185.5t59 161t60 143.5t62 123.5t68.5 110
t77 94.5t89.5 85t104 74t122.5 70t143 63q133 54 231.5 108t185.5 124t139.5 157.5t68.5 192.5q8 51 8 88q0 161 -131.5 224.5t-438.5 63.5q-233 0 -535 -47z" />
    <glyph glyph-name="three.tnum" 
d="M1821 1747q-66 -416 -438 -557q134 -41 222.5 -149.5t88.5 -277.5q0 -54 -8 -102q-25 -156 -81.5 -273.5t-137.5 -195.5t-193.5 -126.5t-240.5 -69t-288 -20.5q-311 0 -609 61l61 204h1h1h1l1 -1h1h1h1h1h1h1h1l1 -1h1h1h1h1h1h1l1 -1h1h1h1h1h1h1l1 -1h1h1h1h1h1h1l2 -1
q322 -42 479 -43q136 0 237.5 12.5t187 43t143 82t96 129t55.5 184.5q7 42 7 85q0 144 -84 229t-233 101q-141 16 -367 16q-15 0 -45 -0.5t-45 -0.5l31 193q225 4 465 39q170 25 274.5 128.5t129.5 258.5q8 56 8 95q0 55 -13.5 97.5t-36 72t-60.5 50.5t-77.5 33t-98 19
t-111 9t-125.5 2q-218 0 -549 -47l6 199q169 31 308.5 46t313.5 15q121 0 216.5 -9.5t190 -38t157 -74.5t101 -124t38.5 -182q0 -50 -9 -109z" />
    <glyph glyph-name="four.tnum" 
d="M1173 0l87 547h-945q-179 0 -179 123q0 18 3 37q16 95 161 252l1075 1171q74 80 137 117t128 37q52 0 83.5 -31.5t31.5 -94.5q0 -23 -4 -46l-216 -1364h303l-32 -201h-303l-87 -547h-243zM1484 1957l-1101 -1209h909z" />
    <glyph glyph-name="five.tnum" 
d="M670 1354q136 8 235 8q112 0 200 -5t178 -18.5t156 -36.5t125.5 -61.5t96.5 -90.5t58.5 -125.5t21.5 -166.5q0 -83 -14 -168q-60 -378 -288 -546t-631 -168q-333 0 -637 63l60 204q273 -48 523 -48q144 0 246 14t187 48t140 94t93 150t58 218q8 51 8 90q0 64 -18 115
t-49 87t-80.5 62t-104 42t-128.5 25.5t-144.5 12.5t-161.5 3q-212 0 -407 -11l252 1115h1270l-35 -219h-1054z" />
    <glyph glyph-name="six.tnum" 
d="M1827 696q-27 -170 -86 -296.5t-139.5 -207t-194.5 -129.5t-237.5 -68t-280.5 -19q-147 0 -258.5 26.5t-186.5 75.5t-122 123.5t-67.5 165t-20.5 206.5q0 141 30 330q32 204 68.5 361.5t87 297t111 240.5t143.5 185t182.5 137.5t230 91t283.5 53t345 15.5q50 0 183 -3
l-11 -205q-42 -2 -127 -4q-110 -2 -167 -4.5t-161.5 -11.5t-163.5 -22t-148.5 -39.5t-144 -62t-122 -90.5t-110.5 -125t-82 -165t-61 -210q358 46 565 46q93 0 169.5 -6.5t147.5 -22.5t126 -42t100 -64.5t74.5 -90.5t45.5 -120.5t16 -152.5q0 -83 -17 -193zM914 186
q222 0 358 52t209 162.5t103 300.5q12 78 12 140q0 105 -33.5 174t-105 106t-162 51t-226.5 14q-158 0 -517 -49q-24 -103 -52 -282q-23 -147 -23 -243q0 -75 12 -136t42 -116.5t79 -92.5t126 -59t178 -22z" />
    <glyph glyph-name="seven.tnum" 
d="M1934 2026l-1232 -2026h-277l1278 2043h-1228l35 217h1306q89 0 129 -34.5t31 -95.5q-8 -48 -42 -104z" />
    <glyph glyph-name="eight.tnum" 
d="M890 -24q-128 0 -232.5 15t-194.5 50.5t-150.5 91.5t-95 141t-34.5 195q0 69 11 136q19 117 60.5 209t105.5 159t138 114.5t170 86.5q-143 72 -207 172.5t-64 245.5q0 66 12 143q22 143 93 249t183 171.5t254.5 97t316.5 31.5q155 0 278 -26t215 -79.5t141.5 -141
t49.5 -203.5q0 -52 -8 -99q-32 -207 -128.5 -336.5t-312.5 -223.5q147 -67 227 -172.5t80 -273.5q0 -56 -11 -127q-24 -150 -84 -262t-141.5 -180.5t-193.5 -110.5t-225.5 -57.5t-252.5 -15.5zM428 518q0 -79 25.5 -138.5t68.5 -96.5t108 -60t135 -32t158 -9q99 0 178.5 10
t157.5 38.5t134 76t97 125t58 182.5q8 54 8 94q0 176 -131.5 256t-413.5 102q-120 -15 -211 -43.5t-169.5 -79.5t-127.5 -133.5t-67 -195.5q-8 -54 -8 -96zM637 1689q-6 -41 -6 -75q0 -160 128.5 -242.5t388.5 -100.5q89 15 159 34.5t138.5 52t116.5 76.5t82.5 108.5
t47.5 146.5q7 43 7 85q0 74 -25.5 129t-67.5 89t-105 54.5t-129 28t-149 7.5q-75 0 -137.5 -6.5t-127 -22t-115 -44.5t-93.5 -71t-71.5 -105.5t-41.5 -143.5z" />
    <glyph glyph-name="nine.tnum" 
d="M313 1564q27 170 86 296.5t139.5 207t194.5 129.5t237.5 68t280.5 19q147 0 258.5 -26.5t186.5 -75.5t122 -123.5t67.5 -165t20.5 -206.5q0 -141 -30 -330q-32 -204 -68.5 -361.5t-87 -297t-111 -240.5t-143.5 -185t-182.5 -137.5t-230 -91t-283.5 -53t-345 -15.5
q-50 0 -183 3l11 205q42 2 127 4q110 2 167 4.5t161.5 11.5t163.5 22t148.5 39.5t144 62t122.5 90.5t110.5 125t81.5 165t62 210q-360 -46 -566 -46q-131 0 -231.5 13.5t-187.5 48t-142.5 90.5t-86.5 143.5t-31 204.5q0 82 17 192zM1226 2074q-222 0 -358 -52t-208.5 -162.5
t-102.5 -300.5q-12 -78 -12 -141q0 -84 23 -145t64 -99.5t109 -60.5t145.5 -30.5t184.5 -8.5q158 0 517 49q22 92 52 282q23 147 23 243q0 75 -12 136t-42 116.5t-79 92.5t-126 59t-178 22z" />
    <glyph glyph-name="dollar.tnum" 
d="M1419 601q7 41 7 80q0 64 -21 114.5t-53.5 85.5t-92 67.5t-115.5 53.5t-145 50q-79 25 -134.5 45.5t-115.5 47.5t-100 54t-78 63.5t-59.5 78t-34.5 94.5t-13 116q0 65 11 131q46 293 217.5 432.5t476.5 163.5l50 315h188l-49 -309q257 -4 520 -51l-54 -200
q-245 39 -435 39q-88 0 -158 -5t-145 -17.5t-131.5 -37.5t-105.5 -62t-80 -94t-43 -131q-10 -59 -10 -110q0 -43 9 -78t23.5 -62.5t44.5 -52t60.5 -43t83 -39.5t100.5 -37t124 -39q98 -30 172 -61.5t142.5 -76.5t112 -98.5t69.5 -128t26 -164.5q0 -60 -10 -123
q-48 -297 -222 -446.5t-478 -180.5l-50 -318h-187l48 309q-303 0 -556 53l58 204q271 -43 525 -43q101 0 180.5 10t154.5 37.5t127.5 73t91 118.5t54.5 172z" />
    <glyph glyph-name="cent.tnum" 
d="M1536 484l-9 -190q-222 -45 -388 -50l-48 -307h-179l50 312q-126 15 -215 62.5t-139 124.5t-72.5 170t-22.5 212q0 130 31 331q25 161 58 279.5t86.5 224t127 175t179.5 116.5t245 64l51 315h178l-49 -305q195 0 369 -50l-46 -180q-165 29 -278 29q-100 0 -178.5 -8.5
t-141.5 -29t-110 -47t-84 -70.5t-62.5 -90.5t-46.5 -116.5t-35.5 -139t-29.5 -167q-33 -212 -33 -321q0 -78 14 -135.5t48 -105.5t91 -78t143 -46t204 -16q107 0 292 37z" />
    <glyph glyph-name="Euro.tnum" 
d="M1507 1027l-62 -167h-636q-13 -122 -13 -208q0 -118 23 -201t76.5 -143.5t145.5 -90t226 -29.5q140 0 366 38l-12 -196q-225 -54 -447 -54q-173 0 -292.5 37.5t-194 117.5t-107.5 197.5t-33 285.5q0 108 14 246h-249l62 167h207q13 83 16 103l21 129h-223l62 168h196
q41 183 92.5 317.5t124 239.5t168 169.5t219.5 97.5t283 33q230 0 430 -52l-52 -199q-207 39 -353 39q-128 0 -226.5 -28.5t-168.5 -79t-122.5 -133t-86 -178t-62.5 -226.5h759l-63 -168h-728l-37 -232h677z" />
    <glyph glyph-name="sterling.tnum" 
d="M619 1043h-339l31 196h310q4 241 36 442q22 141 79.5 248t136 173.5t185 108t217.5 57.5t244 16q124 0 219 -28t157.5 -73t125.5 -117l-151 -152q-158 153 -373 153q-155 0 -262.5 -27t-177 -87t-107 -144t-57.5 -209q-20 -127 -22 -361h518l-31 -196h-493
q-7 -137 -25 -254q-26 -161 -80 -287t-150 -284h582q247 0 511 36l-10 -200q-299 -54 -722 -54h-564q-64 0 -90 27.5t-19 73.5q4 25 31.5 71t65.5 105.5t78 130t75 164t50 188.5q19 128 21 283z" />
    <glyph glyph-name="yen.tnum" 
d="M761 2260l316 -1111l679 1111h247l-728 -1184h306l-27 -176h-387l-13 -21l-33 -205h397l-28 -174h-396l-79 -500h-246l79 500h-390l29 174h388l33 205l-6 21h-380l27 176h301l-346 1184h257z" />
    <glyph glyph-name="period.tnum" horiz-adv-x="985" 
d="M475 -24q-66 0 -93.5 23t-27.5 79q0 33 7 74q15 100 52 139t119 39q66 0 93.5 -24.5t27.5 -83.5q0 -29 -6 -70q-16 -100 -52 -138t-120 -38z" />
    <glyph glyph-name="comma.tnum" horiz-adv-x="985" 
d="M147 -437l349 836h281l-425 -836h-205z" />
    <glyph glyph-name="colon.tnum" horiz-adv-x="985" 
d="M426 -24q-67 0 -94.5 23.5t-27.5 80.5q0 23 7 72q16 100 53 139t118 39q66 0 94 -24t28 -82q0 -25 -7 -72q-15 -100 -51 -138t-120 -38zM626 1235q-67 0 -94.5 23t-27.5 79q0 35 7 74q16 100 52.5 139.5t118.5 39.5q65 0 93.5 -25t28.5 -83q0 -24 -7 -71
q-15 -100 -51 -138t-120 -38z" />
    <glyph glyph-name="semicolon.tnum" horiz-adv-x="985" 
d="M888 1411q-15 -100 -51 -138t-120 -38q-67 0 -94.5 23.5t-27.5 79.5q0 24 7 73q16 100 53 139.5t118 39.5q66 0 94 -24.5t28 -82.5q0 -25 -7 -72zM91 -437l349 836h281l-426 -836h-204z" />
    <glyph glyph-name="zero.onum_tnum" horiz-adv-x="1810" 
d="M825 -24q-172 0 -290.5 34.5t-190 107t-102.5 175.5t-31 249q0 167 39 407q23 146 49.5 259.5t64.5 218t86.5 180t113.5 137.5t147.5 100t187.5 58t234 20q173 0 291.5 -34.5t190 -107t102.5 -175.5t31 -249q0 -157 -39 -407q-23 -147 -50 -260t-65 -217.5t-86 -180
t-113 -137.5t-148 -99.5t-188 -58t-234 -20.5zM444 556q0 -92 19 -158.5t63.5 -117t124.5 -76t197 -25.5q70 0 130 8.5t109 28t89.5 43t74 60t59 73t47.5 89t37.5 100t30 113t25 122t22.5 133.5q43 265 43 392q0 93 -19 159t-63.5 117t-125 76.5t-197.5 25.5
q-78 0 -143.5 -12t-117 -32t-94.5 -54.5t-74.5 -71t-58.5 -91.5t-45.5 -105t-36 -122.5t-28.5 -133.5t-25 -148q-43 -277 -43 -393z" />
    <glyph glyph-name="one.onum_tnum" horiz-adv-x="1810" 
d="M874 0l260 1639q-281 -79 -547 -117l20 203q329 51 615 175h189l-301 -1900h-236z" />
    <glyph glyph-name="two.onum_tnum" horiz-adv-x="1810" 
d="M452 1868q352 54 643 54q650 0 650 -382q0 -42 -7 -83q-40 -253 -220 -414t-499 -272q-140 -49 -237 -104t-164 -125t-108 -147t-76 -185h1106l-33 -210h-1383q37 104 64.5 176t60.5 150t62.5 132t66.5 111.5t76 98t87 82t105 74t124 63.5t148 60q125 44 218.5 88.5
t174.5 101.5t129.5 127t61.5 153q5 27 5 61q0 133 -126 185t-424 52q-215 0 -509 -39z" />
    <glyph glyph-name="three.onum_tnum" horiz-adv-x="1810" 
d="M1659 1425q-28 -181 -126 -309t-257 -197q118 -42 194 -140t76 -248q0 -42 -8 -95q-23 -143 -75 -251.5t-126 -180.5t-178 -116.5t-222 -63.5t-265 -19q-278 0 -563 57l60 200q326 -45 472 -45q123 0 214.5 11t168.5 38.5t129 73.5t86.5 115.5t49.5 165.5q6 39 6 75
q0 128 -75.5 204.5t-207.5 91.5q-134 15 -322 15q-16 0 -49 -0.5t-51 -0.5l29 190q218 4 431 35q151 22 245 115t116 230q7 43 7 84q0 49 -12 87t-32.5 64.5t-54.5 45.5t-70 29.5t-88.5 16.5t-99.5 8t-113 2q-213 0 -507 -43l7 195q307 57 574 57q111 0 199 -9t174.5 -35
t143.5 -68.5t92.5 -114.5t35.5 -168q0 -54 -8 -102z" />
    <glyph glyph-name="four.onum_tnum" horiz-adv-x="1810" 
d="M1055 -173l78 498h-853q-169 0 -169 117q0 18 3 36q14 89 148 234l979 1067q130 143 248 143q50 0 80 -29.5t30 -89.5q0 -24 -4 -45l-196 -1235h277l-32 -198h-277l-78 -498h-234zM1335 1595l-976 -1072h806z" />
    <glyph glyph-name="five.onum_tnum" horiz-adv-x="1810" 
d="M615 1075q157 7 206 7q103 0 183.5 -4.5t163 -17t143.5 -34t115.5 -56.5t88.5 -83.5t54 -116.5t20 -153q0 -73 -13 -154q-55 -348 -265 -503t-581 -155q-306 0 -589 59l59 199q252 -44 483 -44q129 0 221 12.5t168.5 43t126.5 84.5t84 134.5t52 194.5q7 51 7 80
q0 57 -16.5 103t-44 78.5t-72.5 56t-94 37.5t-115.5 22.5t-130.5 11.5t-146 3q-202 0 -378 -11l232 1031h1171l-34 -214h-961z" />
    <glyph glyph-name="six.onum_tnum" horiz-adv-x="1810" 
d="M1680 639q-25 -157 -79 -273.5t-128 -190.5t-178.5 -119t-218 -62.5t-258.5 -17.5q-136 0 -238.5 24.5t-172 69.5t-113 114t-62 152t-18.5 190q0 121 28 302q40 251 87.5 429t120.5 325.5t168 240t233.5 155.5t312.5 89t409 26q53 0 173 -3l-11 -201q-40 -2 -120 -4
q-101 -3 -153 -5.5t-146.5 -10.5t-147.5 -20t-133.5 -35.5t-129.5 -55.5t-109.5 -80.5t-99.5 -110.5t-74.5 -146t-56.5 -185q309 40 507 40q152 0 260.5 -20.5t193.5 -71t127 -141.5t42 -226q0 -79 -15 -178zM843 181q151 0 255 25t175.5 81.5t111.5 142t60 213.5
q11 74 11 126q0 76 -21 130.5t-58 89t-97.5 54.5t-130 27.5t-166.5 7.5q-150 0 -466 -43q-17 -77 -45 -251q-20 -125 -20 -219q0 -86 18 -151.5t60.5 -120t121 -83.5t191.5 -29z" />
    <glyph glyph-name="seven.onum_tnum" horiz-adv-x="1810" 
d="M1761 1677l-1125 -1850h-267l1163 1861h-1115l34 212h1196q85 0 123.5 -33.5t29.5 -92.5q-8 -46 -39 -97z" />
    <glyph glyph-name="eight.onum_tnum" horiz-adv-x="1810" 
d="M819 -24q-118 0 -214 13.5t-179 46.5t-139 84t-88 129.5t-32 180.5q0 55 11 127q17 107 54 190.5t93 144.5t121.5 104t151.5 79q-125 65 -180.5 155t-55.5 220q0 62 12 136q21 132 86.5 230t168.5 158.5t234 89.5t291 29q142 0 255.5 -24t198 -73t130 -129.5t45.5 -188.5
q0 -41 -8 -92q-29 -187 -115 -305.5t-275 -204.5q85 -40 142 -90.5t92 -129.5t35 -182q0 -59 -10 -120q-16 -100 -49 -181.5t-77.5 -140.5t-104.5 -104t-125.5 -73.5t-144.5 -46.5t-156.5 -25t-167.5 -7zM413 565q-7 -43 -7 -86q0 -88 33.5 -148.5t97 -93t139 -46
t175.5 -13.5q89 0 160 9t141 35t120 68t87 111.5t52 163.5q7 42 7 83q0 157 -118 229.5t-370 92.5q-85 -11 -153 -29t-131.5 -49.5t-109 -75t-78 -107t-45.5 -144.5zM1542 1544q6 40 6 75q0 82 -33 138t-94.5 85t-133 41t-165.5 12q-82 0 -148 -8t-132.5 -31.5t-113.5 -61.5
t-82.5 -101.5t-49.5 -148.5q-6 -34 -6 -66q0 -144 116 -218t349 -90q78 14 140 31.5t123.5 47t105 68.5t75.5 97t43 130z" />
    <glyph glyph-name="nine.onum_tnum" horiz-adv-x="1810" 
d="M271 1259q25 157 79 273.5t128 190.5t178.5 119t218 62.5t258.5 17.5q169 0 287 -36.5t187 -109.5t99.5 -171t30.5 -232q0 -122 -28 -303q-40 -251 -87.5 -429t-120.5 -325.5t-168 -240t-233.5 -155.5t-312.5 -89t-409 -26q-52 0 -173 3l11 201q40 2 120 4q130 4 197 7.5
t184.5 18.5t184.5 39.5t157.5 72t144.5 113.5t105 167t78 231q-310 -40 -508 -40q-152 0 -260.5 20.5t-193.5 71t-127 141.5t-42 226q0 79 15 178zM1108 1717q-200 0 -322 -47t-187 -145.5t-92 -269.5q-11 -74 -11 -126q0 -76 21 -130.5t58 -89t97.5 -54.5t130 -27.5
t166.5 -7.5q149 0 465 43q21 92 46 251q20 125 20 218q0 68 -10.5 123t-38 105t-71 83.5t-112.5 53.5t-160 20z" />
    <glyph glyph-name="dollar.onum_tnum" horiz-adv-x="1810" 
d="M1294 552q5 29 5 66q0 56 -19 101.5t-49.5 78.5t-82 63t-104 50.5t-128.5 45.5q-84 28 -141.5 50t-118.5 52t-99.5 63t-71 76t-47 98t-14.5 122q0 58 10 119q42 269 198.5 398t434.5 152l46 287h185l-44 -281q238 -4 473 -48l-53 -196q-231 36 -402 36q-96 0 -169.5 -6
t-151 -25.5t-130.5 -52t-92.5 -89.5t-51.5 -135q-8 -54 -8 -93q0 -36 5.5 -65.5t20 -54.5t29.5 -43.5t45 -37.5t54.5 -32t70.5 -29.5t80 -27.5t95 -30q114 -35 195 -73.5t149 -95t102.5 -136.5t34.5 -183q0 -53 -9 -113q-43 -273 -202.5 -411t-437.5 -167l-46 -291h-185
l45 282q-272 1 -508 50l57 200q243 -40 485 -40q91 0 162 9t138.5 33.5t114.5 64.5t81.5 105.5t48.5 153.5z" />
    <glyph glyph-name="cent.onum_tnum" horiz-adv-x="1810" 
d="M1413 455l-8 -187q-199 -42 -354 -47l-44 -280h-177l45 285q-114 14 -195 58t-126.5 114.5t-65.5 155.5t-20 194q0 128 28 304q23 147 53 255.5t79 205.5t116 161t163.5 107.5t222.5 59.5l46 288h177l-44 -278q177 -1 337 -46l-47 -179q-156 27 -259 27q-80 0 -144.5 -7
t-117.5 -19t-95 -34.5t-74 -48t-57.5 -65t-44 -79.5t-34.5 -98.5t-27 -115t-23 -134.5q-30 -196 -30 -291q0 -88 20.5 -148.5t70.5 -105.5t138 -66.5t220 -21.5q93 0 271 36z" />
    <glyph glyph-name="Euro.onum_tnum" horiz-adv-x="1810" 
d="M1391 948l-62 -167h-578q-11 -104 -11 -182q0 -105 20.5 -179.5t68.5 -129t131.5 -80.5t204.5 -26q136 0 338 36l-12 -193q-204 -51 -414 -51q-313 0 -445.5 139.5t-132.5 448.5q0 98 12 217h-229l62 167h187l31 196h-206l65 168h175q47 208 111 350.5t160.5 241.5
t229.5 144t315 45q213 0 399 -49l-50 -196q-199 37 -327 37q-96 0 -172.5 -16.5t-136 -51t-104.5 -81t-80 -113.5t-59.5 -141t-45.5 -170h694l-65 -168h-661l-18 -110q-12 -72 -14 -86h619z" />
    <glyph glyph-name="sterling.onum_tnum" horiz-adv-x="1810" 
d="M564 950h-309l30 194h281q4 206 34 395q20 130 73 228.5t124.5 160t170 99.5t200.5 53t224 15q166 0 272.5 -51.5t194.5 -154.5l-148 -149q-149 143 -341 143q-139 0 -235 -24t-158.5 -78t-96 -129t-51.5 -187q-17 -106 -21 -321h473l-30 -194h-448q-5 -112 -22 -224
q-23 -146 -71.5 -258t-134.5 -255h520q239 0 473 35l-10 -198q-286 -50 -665 -50h-515q-61 0 -87 27.5t-19 71.5q4 28 41.5 89.5t81.5 128t88.5 172t61.5 210.5q15 95 19 251z" />
    <glyph glyph-name="yen.onum_tnum" horiz-adv-x="1810" 
d="M708 2073l285 -1001l613 1001h240l-665 -1079h277l-28 -174h-356l-8 -14l-28 -177h361l-27 -174h-362l-72 -455h-238l72 455h-354l28 174h354l28 177l-4 14h-347l27 174h269l-315 1079h250z" />
    <glyph glyph-name="parenleft.case" horiz-adv-x="973" 
d="M692 -222l-160 -120q-316 357 -316 982q0 239 45 520q35 223 90 419.5t142 394.5t217.5 374t297.5 315l122 -120q-113 -99 -209.5 -235t-161.5 -274t-117.5 -299t-83.5 -296.5t-53 -278.5q-46 -288 -46 -540q0 -562 233 -842z" />
    <glyph glyph-name="parenright.case" horiz-adv-x="972" 
d="M427 2543l160 120q316 -358 316 -983q0 -239 -45 -520q-35 -223 -90 -419.5t-142 -394t-217 -373.5t-298 -315l-122 120q113 99 209.5 235t161.5 274t118 299t83.5 296t53.5 278q46 288 46 540q0 562 -234 843z" />
    <glyph glyph-name="bracketleft.case" horiz-adv-x="969" 
d="M785 2446l-406 -2559h344l-31 -198h-569l467 2952h571l-30 -195h-346z" />
    <glyph glyph-name="bracketright.case" horiz-adv-x="969" 
d="M392 2446l30 195h572l-467 -2952h-569l31 198h343l406 2559h-346z" />
    <glyph glyph-name="braceleft.case" horiz-adv-x="981" 
d="M581 551l-27 -177q-15 -102 -15 -171q0 -275 218 -315l-49 -179q-96 16 -165.5 45t-124 79.5t-81.5 129t-27 185.5q0 78 15 176q43 276 43 422q0 150 -42.5 229t-138.5 101l29 181q156 33 235.5 202t139.5 550q20 126 57.5 223.5t87.5 164t119 113t144 72.5t170 41
l-7 -178q-83 -15 -146 -57.5t-103.5 -109.5t-66 -144t-41.5 -176l-29 -177q-13 -79 -25.5 -139t-39.5 -142t-60 -140.5t-87.5 -112.5t-121.5 -81q161 -84 161 -368q0 -97 -22 -247z" />
    <glyph glyph-name="braceright.case" horiz-adv-x="980" 
d="M546 1781l29 177q16 98 16 171q0 274 -219 316l48 178q96 -16 166 -45.5t124.5 -79.5t81.5 -129t27 -186q0 -78 -15 -174q-43 -277 -43 -423q0 -150 42 -228.5t138 -100.5l-28 -181q-156 -34 -235.5 -202.5t-139.5 -549.5q-20 -126 -58 -224t-88 -164.5t-119 -113
t-143.5 -72.5t-169.5 -41l7 179q83 15 146 57t104 108.5t66 143.5t41 177l28 177q12 74 25.5 136t40.5 141t61 139t87.5 115t119.5 84q-165 76 -165 354q0 107 25 261z" />
    <glyph glyph-name="questiondown.case" horiz-adv-x="1642" 
d="M1023 1639h210l-29 -202q-1 -5 -5.5 -38t-6.5 -46q-13 -81 -46.5 -137.5t-80 -86.5t-104 -48.5t-119 -30.5t-124 -25t-120.5 -38.5t-106.5 -65.5t-84.5 -112t-52 -172q-14 -87 -14 -149q0 -177 122 -241t439 -64q233 0 502 48l11 -205q-304 -62 -609 -62q-100 0 -177 4.5
t-155.5 17.5t-135.5 35.5t-108 58.5t-83 86t-50 119.5t-18 156.5q0 85 16 182q21 132 62.5 231.5t94.5 158.5t116 99t129 60t131 34.5t124.5 29t107.5 37t82 66t46 107.5zM1060 2095q0 24 7 71q16 100 52 138t120 38q67 0 94.5 -23.5t27.5 -80.5q0 -23 -7 -72
q-16 -100 -53 -139t-119 -39q-66 0 -94 24.5t-28 82.5z" />
    <glyph glyph-name="exclamdown.case" horiz-adv-x="748" 
d="M553 1988q-66 0 -94.5 24.5t-28.5 82.5q0 24 7 71q16 100 52 138t120 38q66 0 93.5 -23t27.5 -79q0 -33 -7 -74q-15 -99 -51.5 -138.5t-118.5 -39.5zM91 -12l303 1651h207l-221 -1651h-289z" />
    <glyph glyph-name="at.case" horiz-adv-x="3016" 
d="M1394 -24q-285 0 -497.5 51.5t-361 159.5t-223.5 279.5t-75 406.5q0 138 25 292q41 258 130.5 456.5t221.5 336.5t313.5 227t397 129t480.5 40q91 0 168 -13t144.5 -43t114 -76.5t73.5 -118t27 -162.5q0 -58 -10 -119l-116 -736q-27 -166 -58 -305q-142 -68 -315.5 -105
t-353.5 -37q-289 0 -423.5 98t-134.5 300q0 56 11 128q35 218 165.5 352.5t353.5 178.5q174 34 625 51q13 79 13 146q0 142 -75.5 199t-256.5 57q-213 0 -384 -30t-320 -100t-257 -182t-183.5 -280.5t-111.5 -391.5q-22 -136 -22 -256q0 -200 63.5 -342t188.5 -226t295 -122
t400 -38q210 0 379 31t315.5 102t253 184t181 280t109.5 387q27 170 27 302q0 6 -0.5 18t-0.5 17l240 68q2 -48 2 -74q0 -156 -28 -331q-49 -313 -171.5 -541t-315.5 -370.5t-446 -210t-577 -67.5zM1989 1196l58 369q-391 -8 -539 -45q-152 -37 -233.5 -118t-105.5 -231
q-7 -43 -7 -85q0 -139 91.5 -194.5t280.5 -55.5q90 0 200.5 22t202.5 59q32 148 52 279z" />
    <glyph glyph-name="guilsinglleft.case" horiz-adv-x="981" 
d="M469 1164l309 -655h-241l-351 655l559 656h240z" />
    <glyph glyph-name="guilsinglright.case" horiz-adv-x="981" 
d="M931 1164l-558 -655h-242l518 655l-310 656h241z" />
    <glyph glyph-name="guillemotleft.case" horiz-adv-x="1574" 
d="M469 1164l310 -655h-242l-351 655l559 656h241zM1062 1164l310 -655h-241l-351 655l559 656h240z" />
    <glyph glyph-name="guillemotright.case" horiz-adv-x="1574" 
d="M931 1164l-559 -655h-241l518 655l-310 656h241zM1525 1164l-559 -655h-241l517 655l-310 656h242z" />
    <glyph glyph-name="hyphen.case" horiz-adv-x="1304" 
d="M286 1059l34 211h838l-34 -211h-838z" />
    <glyph glyph-name="endash.case" horiz-adv-x="2042" 
d="M286 1066l31 198h1575l-31 -198h-1575z" />
    <glyph glyph-name="emdash.case" horiz-adv-x="3563" 
d="M286 1066l31 198h3096l-31 -198h-3096z" />
    <glyph glyph-name="periodcentered.case" horiz-adv-x="739" 
d="M294 1092q0 23 7 72q16 100 53 139t118 39q66 0 94 -24t28 -82q0 -25 -7 -72q-16 -100 -51.5 -138t-119.5 -38q-67 0 -94.5 23.5t-27.5 80.5z" />
    </font>
</defs>
</svg>
