<?xml version="1.0" standalone="no"?>
<!DOCTYPE svg PUBLIC "-//W3C//DTD SVG 1.1//EN" "http://www.w3.org/Graphics/SVG/1.1/DTD/svg11.dtd" >
<svg xmlns="http://www.w3.org/2000/svg" xmlns:xlink="http://www.w3.org/1999/xlink" version="1.1">
<metadata>
Created by FontForge 20170731 at Wed Feb 22 19:30:10 2012
 By Aleksey,,,
Copyright (c) 2011-2012 Durotype, www.durotype.com. All rights reserved.
</metadata>
<defs>
<font id="Flexo-Thin" horiz-adv-x="1970" >
  <font-face 
    font-family="Flexo Thin"
    font-weight="250"
    font-stretch="normal"
    units-per-em="3333"
    panose-1="0 0 0 0 0 0 0 0 0 0"
    ascent="2633"
    descent="-700"
    x-height="1781"
    cap-height="2330"
    bbox="-510 -876 3861 3167"
    underline-thickness="167"
    underline-position="-894"
    unicode-range="U+0020-FB04"
  />
<missing-glyph horiz-adv-x="2203" 
d="M1933 0h-1663v2400h1663v-2400zM1002 1200l-565 874v-1748zM1667 171l-565 875l-566 -875h1131zM1667 2228h-1131l566 -874zM1767 2074l-565 -874l565 -874v1748z" />
    <glyph glyph-name="f_f" unicode="ff" horiz-adv-x="2086" 
d="M564 0h-136v1659h-329v122h329v207q0 250 122 377.5t360 127.5q46 0 89 -8l-12 -114h-49q-183 0 -278.5 -86.5t-95.5 -286.5v-217h885v207q0 250 122 377.5t360 127.5q46 0 89 -8l-12 -114h-49q-183 0 -278.5 -86.5t-95.5 -286.5v-217h419v-122h-419v-1659h-136v1659
h-885v-1659z" />
    <glyph glyph-name="fi" unicode="fi" horiz-adv-x="1804" 
d="M564 1781h982v-1781h-136v1659h-846v-1659h-136v1659h-329v122h329v207q0 250 122 377.5t360 127.5q46 0 89 -8l-12 -114h-49q-183 0 -278.5 -86.5t-95.5 -286.5v-217zM1478 2222q-49 0 -65 28.5t-16 104.5t17 107t64 31t64.5 -31.5t17.5 -106.5t-16.5 -104t-65.5 -29z
" />
    <glyph glyph-name="fl" unicode="fl" horiz-adv-x="1837" 
d="M983 1781v-122h-419v-1659h-136v1659h-329v122h329v207q0 250 122 377.5t360 127.5q298 0 634 -24v-1991q0 -303 153 -490l-109 -67q-91 103 -135.5 231.5t-44.5 308.5v1910h-470q-183 0 -278.5 -86.5t-95.5 -286.5v-217h419z" />
    <glyph glyph-name="f_f_i" unicode="ffi" horiz-adv-x="2825" 
d="M1585 1781h982v-1781h-136v1659h-846v-1659h-136v1659h-885v-1659h-136v1659h-329v122h329v207q0 250 122 377.5t360 127.5q46 0 89 -8l-12 -114h-49q-183 0 -278.5 -86.5t-95.5 -286.5v-217h885v207q0 250 122 377.5t360 127.5q46 0 89 -8l-12 -114h-49
q-183 0 -278.5 -86.5t-95.5 -286.5v-217zM2581 2355q0 -75 -16.5 -104t-65.5 -29t-65 28.5t-16 104.5t17 107t64 31t64.5 -31.5t17.5 -106.5z" />
    <glyph glyph-name="f_f_l" unicode="ffl" horiz-adv-x="2858" 
d="M2004 1781v-122h-419v-1659h-136v1659h-885v-1659h-136v1659h-329v122h329v207q0 250 122 377.5t360 127.5q46 0 89 -8l-12 -114h-49q-183 0 -278.5 -86.5t-95.5 -286.5v-217h885v207q0 250 122 377.5t360 127.5q298 0 634 -24v-1991q0 -303 153 -490l-109 -67
q-91 103 -135.5 231.5t-44.5 308.5v1910h-470q-183 0 -278.5 -86.5t-95.5 -286.5v-217h419z" />
    <glyph glyph-name="f_b" unicode="fb" horiz-adv-x="3051" 
d="M564 1781h419v-122h-419v-1659h-136v1659h-329v122h329v207q0 250 122 377.5t360 127.5q298 0 634 -24v-744q304 80 572 80q266 0 422 -88t229 -286.5t73 -539.5q0 -208 -29 -360.5t-87 -259.5t-153 -172t-219.5 -94t-293.5 -29q-376 0 -645 133q-5 152 -5 287v1975h-470
q-183 0 -278.5 -86.5t-95.5 -286.5v-217zM1544 514q0 -123 4 -311q111 -48 248 -72.5t262 -24.5q140 0 242.5 25t180.5 80t126 147t71.5 223t23.5 310q0 156 -13 269.5t-44 203t-79 147.5t-123 95.5t-170.5 53t-225.5 15.5q-121 0 -260 -24.5t-243 -59.5v-1077z" />
    <glyph glyph-name="f_f_b" unicode="ffb" horiz-adv-x="4072" 
d="M2429 2371h-470q-183 0 -278.5 -86.5t-95.5 -286.5v-217h419v-122h-419v-1659h-136v1659h-885v-1659h-136v1659h-329v122h329v207q0 250 122 377.5t360 127.5q46 0 89 -8l-12 -114h-49q-183 0 -278.5 -86.5t-95.5 -286.5v-217h885v207q0 250 122 377.5t360 127.5
q298 0 634 -24v-744q304 80 572 80q266 0 422 -88t229 -286.5t73 -539.5q0 -208 -29 -360.5t-87 -259.5t-153 -172t-219.5 -94t-293.5 -29q-376 0 -645 133q-5 152 -5 287v1975zM2565 514q0 -123 4 -311q111 -48 248 -72.5t262 -24.5q140 0 242.5 25t180.5 80t126 147
t71.5 223t23.5 310q0 156 -13 269.5t-44 203t-79 147.5t-123 95.5t-170.5 53t-225.5 15.5q-121 0 -260 -24.5t-243 -59.5v-1077z" />
    <glyph glyph-name="f_f_h" unicode="ffh" horiz-adv-x="4077" 
d="M99 1781h329v207q0 250 122 377.5t360 127.5q46 0 89 -8l-12 -114h-49q-183 0 -278.5 -86.5t-95.5 -286.5v-217h885v207q0 250 122 377.5t360 127.5q298 0 634 -24v-744q296 77 578 80q146 1 256 -16.5t184.5 -56.5t122.5 -89t74 -124.5t35.5 -150.5t9.5 -180v-1188h-136
v1135q0 75 -4 131.5t-15.5 111.5t-31.5 94t-51.5 74t-75.5 57.5t-104.5 39.5t-137.5 24.5t-175 7.5q-265 0 -529 -84v-1591h-136v2371h-470q-183 0 -278.5 -86.5t-95.5 -286.5v-217h419v-122h-419v-1659h-136v1659h-885v-1659h-136v1659h-329v122z" />
    <glyph glyph-name="f_f_j" unicode="ffj" horiz-adv-x="2907" 
d="M99 1659v122h329v207q0 250 122 377.5t360 127.5q46 0 89 -8l-12 -114h-49q-183 0 -278.5 -86.5t-95.5 -286.5v-217h885v207q0 250 122 377.5t360 127.5q46 0 89 -8l-12 -114h-49q-183 0 -278.5 -86.5t-95.5 -286.5v-217h1059v-1816q0 -342 -123.5 -493.5t-380.5 -151.5
q-23 0 -34 1l12 111q68 4 118.5 15t104.5 43t88.5 83t56.5 139.5t22 208.5v1738h-923v-1659h-136v1659h-885v-1659h-136v1659h-329zM2576 2493q47 0 64.5 -31.5t17.5 -106.5t-16.5 -104t-65.5 -29t-65 28.5t-16 104.5t17 107t64 31z" />
    <glyph glyph-name="f_f_k" unicode="ffk" horiz-adv-x="3749" 
d="M564 0h-136v1659h-329v122h329v207q0 250 122 377.5t360 127.5q46 0 89 -8l-12 -114h-49q-183 0 -278.5 -86.5t-95.5 -286.5v-217h885v207q0 250 122 377.5t360 127.5q298 0 634 -24v-1532l855 844h186l-911 -900l971 -881h-205l-896 813v-813h-136v2371h-470
q-183 0 -278.5 -86.5t-95.5 -286.5v-217h419v-122h-419v-1659h-136v1659h-885v-1659z" />
    <glyph glyph-name="f_h" unicode="fh" horiz-adv-x="3056" 
d="M2804 1188v-1188h-136v1135q0 75 -4 131.5t-15.5 111.5t-31.5 94t-51.5 74t-75.5 57.5t-104.5 39.5t-137.5 24.5t-175 7.5q-265 0 -529 -84v-1591h-136v2371h-470q-183 0 -278.5 -86.5t-95.5 -286.5v-217h419v-122h-419v-1659h-136v1659h-329v122h329v207
q0 250 122 377.5t360 127.5q298 0 634 -24v-744q296 77 578 80q146 1 256 -16.5t184.5 -56.5t122.5 -89t74 -124.5t35.5 -150.5t9.5 -180z" />
    <glyph glyph-name="f_j" unicode="fj" horiz-adv-x="1886" 
d="M428 1781v207q0 250 122 377.5t360 127.5q46 0 89 -8l-12 -114h-49q-183 0 -278.5 -86.5t-95.5 -286.5v-217h1059v-1816q0 -342 -123.5 -493.5t-380.5 -151.5q-23 0 -34 1l12 111q68 4 118.5 15t104.5 43t88.5 83t56.5 139.5t22 208.5v1738h-923v-1659h-136v1659h-329
v122h329zM1555 2493q47 0 64.5 -31.5t17.5 -106.5t-16.5 -104t-65.5 -29t-65 28.5t-16 104.5t17 107t64 31z" />
    <glyph glyph-name="f_k" unicode="fk" horiz-adv-x="2728" 
d="M99 1781h329v207q0 250 122 377.5t360 127.5q298 0 634 -24v-1532l855 844h186l-911 -900l971 -881h-205l-896 813v-813h-136v2371h-470q-183 0 -278.5 -86.5t-95.5 -286.5v-217h419v-122h-419v-1659h-136v1659h-329v122z" />
    <glyph glyph-name=".notdef" horiz-adv-x="2203" 
d="M1933 0h-1663v2400h1663v-2400zM1002 1200l-565 874v-1748zM1667 171l-565 875l-566 -875h1131zM1667 2228h-1131l566 -874zM1767 2074l-565 -874l565 -874v1748z" />
    <glyph glyph-name=".null" horiz-adv-x="0" 
 />
    <glyph glyph-name="nonmarkingreturn" horiz-adv-x="1111" 
 />
    <glyph glyph-name="space" unicode=" " horiz-adv-x="1050" 
 />
    <glyph glyph-name="exclam" unicode="!" horiz-adv-x="694" 
d="M429 109q0 -75 -16.5 -104t-65.5 -29t-65 28.5t-16 104.5t17 107t64 31t64.5 -31.5t17.5 -106.5zM409 679h-124l-25 1651h174z" />
    <glyph glyph-name="quotedbl" unicode="&#x22;" horiz-adv-x="1032" 
d="M382 1572h-124l-25 897h174zM774 1572h-124l-25 897h174z" />
    <glyph glyph-name="numbersign" unicode="#" horiz-adv-x="1851" 
d="M1693 1484h-323l-83 -635h313v-126h-331l-96 -723h-135l97 723h-510l-96 -723h-135l96 723h-332v126h350l84 635h-347v127h365q16 123 48.5 363t47.5 356h134l-96 -719h510q16 124 48 365t47 354h136l-97 -719h305v-127zM642 849h511l83 635h-510z" />
    <glyph glyph-name="dollar" unicode="$" horiz-adv-x="1640" 
d="M866 -17v-320h-128v314q-6 0 -17 -0.5t-17 -0.5q-178 0 -292.5 9.5t-245.5 35.5l15 121q247 -40 514 -40q119 0 211.5 12t177 44.5t139.5 85t87.5 137.5t32.5 199q0 76 -14.5 136t-48 109t-76.5 86t-111.5 71t-141 60.5t-176.5 57.5q-74 22 -127 39t-113 40t-101.5 44
t-86 49.5t-73.5 59t-56.5 69.5t-43 84t-24.5 100t-9 119q0 287 154.5 421.5t465.5 154.5v317h128v-313q270 0 534 -41l-13 -120q-226 34 -426 34q-137 0 -239.5 -10t-194 -37t-148.5 -72.5t-90 -117.5t-33 -171q0 -84 8 -141t34 -107t62 -83t106 -68t150.5 -63t210.5 -66
q111 -33 195 -66t171 -86.5t143 -116.5t91.5 -155.5t35.5 -204.5q0 -292 -155.5 -437.5t-464.5 -171.5z" />
    <glyph glyph-name="percent" unicode="%" horiz-adv-x="2663" 
d="M184 1660q0 145 11.5 247t41.5 189t83 138.5t136 79.5t200 28t200 -28t136 -79.5t84 -138t42.5 -189t11.5 -247.5t-11.5 -247.5t-42.5 -189.5t-84 -138.5t-136 -79.5t-200 -28t-200 28t-136 79.5t-83 138.5t-41.5 189t-11.5 248zM1023 1660q0 66 -1 111t-5 101t-11.5 93
t-20.5 79.5t-32 70t-46.5 54t-63.5 42t-83 24.5t-104 9q-58 0 -105 -9.5t-82.5 -24t-63 -42t-46 -54.5t-31.5 -69.5t-20 -79.5t-11 -93.5t-5 -100.5t-1 -111q0 -123 4.5 -195t24 -156.5t57 -128.5t107.5 -74t172 -30q57 0 104 9t83 24.5t63.5 42t46.5 54t32 70t20.5 79.5
t11.5 93t5 101t1 111zM1517 671q0 145 11.5 247.5t41.5 189t83 138t135.5 79.5t199.5 28t200 -28t136.5 -79.5t84 -138t42 -189t11.5 -247.5t-11.5 -247.5t-42 -189.5t-84 -138.5t-136.5 -79.5t-200 -28t-199.5 28t-135.5 79.5t-83 138.5t-41.5 189t-11.5 248zM2355 671
q0 66 -1 111t-5 101t-11.5 93t-20.5 79.5t-32 70t-46.5 54t-63.5 42t-83 24.5t-104 9t-104 -9.5t-82.5 -24t-63 -42t-46 -54.5t-31.5 -69.5t-20 -79.5t-11 -93.5t-5 -100.5t-1 -111q0 -124 4.5 -196t24 -156.5t57 -128.5t107 -74t171.5 -30t172 30t108 74t58 128.5t24.5 157
t4.5 195.5zM564 -48l1368 2426h145l-1369 -2426h-144z" />
    <glyph glyph-name="ampersand" unicode="&#x26;" horiz-adv-x="2180" 
d="M175 609q0 101 32 190t81 154.5t127.5 128.5t150 106t170.5 93q-47 55 -78.5 94.5t-75.5 103.5t-70.5 118t-46 122.5t-19.5 132.5q0 135 43 234.5t120.5 156.5t175.5 84t219 27q86 0 162 -15.5t145 -51t119 -88.5t79 -133.5t29 -181.5q0 -74 -18.5 -139.5t-45 -115.5
t-77 -100t-92 -82.5t-113.5 -74t-118 -64.5t-128 -62l673 -790q184 259 219 640l134 -7q-49 -472 -256 -746l293 -343h-182l-203 238q-271 -262 -724 -262q-368 0 -546.5 157t-178.5 476zM1397 1849q0 105 -28.5 180t-83.5 117.5t-126.5 61.5t-165.5 19q-86 0 -157.5 -21
t-128.5 -65.5t-88.5 -121t-31.5 -179.5q0 -32 5 -64.5t18.5 -66.5t24 -59.5t34.5 -61t35 -54t41.5 -55t39 -47t41.5 -48t36 -40.5q60 29 92.5 45t86.5 44.5t84 47.5t73.5 48.5t68 53.5t53 56.5t43 63.5t24.5 68.5t10 77.5zM1530 349l-711 835q-89 -45 -153 -83t-133 -94
t-111.5 -115t-70 -140t-27.5 -175q0 -112 37 -197.5t95.5 -137t142 -84t166.5 -44t178 -11.5q349 0 587 246z" />
    <glyph glyph-name="quotesingle" unicode="'" horiz-adv-x="640" 
d="M233 2469h174l-25 -897h-124z" />
    <glyph glyph-name="parenleft" unicode="(" horiz-adv-x="962" 
d="M711 2430l92 -77q-105 -103 -185.5 -243t-128 -283t-78 -308t-41 -305.5t-10.5 -286.5q0 -187 19 -365.5t65 -376.5t137.5 -377t221.5 -306l-92 -77q-141 141 -240 317.5t-153 373.5t-77.5 393t-23.5 418t23.5 418.5t77.5 393.5t153 373.5t240 317.5z" />
    <glyph glyph-name="parenright" unicode=")" horiz-adv-x="962" 
d="M159 2353l92 77q141 -141 240 -317.5t153 -373.5t77.5 -393.5t23.5 -418.5t-23.5 -418t-77.5 -393t-153 -373.5t-240 -317.5l-92 77q130 127 221.5 306t137.5 377t65 376.5t19 365.5q0 146 -10.5 286.5t-41 305.5t-78 308t-128 283t-185.5 243z" />
    <glyph glyph-name="asterisk" unicode="*" horiz-adv-x="1594" 
d="M1070 1179l-273 462l-267 -465l-103 60l276 474h-553v113h549l-271 471l104 60l265 -465l274 465l98 -59l-271 -472h547v-113h-550l275 -475z" />
    <glyph glyph-name="plus" unicode="+" horiz-adv-x="1956" 
d="M1775 1047v-133h-727v-732h-142v732h-724v133h724v728h142v-728h727z" />
    <glyph glyph-name="comma" unicode="," horiz-adv-x="679" 
d="M334 399h174l-287 -836h-124z" />
    <glyph glyph-name="hyphen" unicode="-" horiz-adv-x="1362" 
d="M1106 821h-849v129h849v-129z" />
    <glyph glyph-name="period" unicode="." horiz-adv-x="647" 
d="M323 247q47 0 64.5 -31.5t17.5 -106.5t-16.5 -104t-65.5 -29t-65 28.5t-16 104.5t17 107t64 31z" />
    <glyph glyph-name="slash" unicode="/" horiz-adv-x="1323" 
d="M1195 2412l-946 -2680h-147l945 2680h148z" />
    <glyph glyph-name="zero" unicode="0" horiz-adv-x="2086" 
d="M1834 1130q0 -151 -7 -272t-24.5 -234.5t-46.5 -199.5t-72.5 -161t-103 -126.5t-138.5 -88.5t-178.5 -54.5t-222.5 -17.5t-222.5 17.5t-177.5 54.5t-137.5 88.5t-102.5 126.5t-71.5 161t-45.5 199.5t-24 234t-7 272.5t7 272.5t24 234t45.5 199.5t71.5 161t102.5 126.5
t137.5 88.5t177.5 54.5t222.5 17.5t222.5 -17.5t178.5 -54.5t138.5 -88.5t103 -126.5t72.5 -161t46.5 -199.5t24.5 -234.5t7 -272zM392 1130q0 -117 2 -195t8.5 -176.5t19.5 -163t36 -139.5t56.5 -122.5t82 -95t112 -73.5t147 -42.5t185.5 -16.5q131 0 231.5 27t169.5 69
t117 119t74.5 151t40.5 193t17.5 216.5t3.5 248.5q0 116 -2 195t-9 177t-20.5 163t-37 139.5t-57 122.5t-82.5 95t-112.5 73.5t-147.5 42.5t-186 16t-186 -16.5t-147 -42.5t-111.5 -73.5t-82 -94.5t-56.5 -122.5t-36 -139.5t-20 -163t-8.5 -176.5t-1.5 -195.5z" />
    <glyph glyph-name="one" unicode="1" horiz-adv-x="1113" 
d="M700 2260h111v-2260h-137v2089q-321 -96 -595 -141l-7 129q160 26 334.5 78.5t293.5 104.5z" />
    <glyph glyph-name="two" unicode="2" horiz-adv-x="1722" 
d="M1555 0h-1423q22 127 40.5 217.5t43.5 184t51.5 158.5t63.5 131.5t81 114.5t102.5 96t129.5 87t161 77q102 43 186 89t165.5 107.5t137 128.5t89.5 152t34 179q0 235 -157 332t-517 97q-277 0 -565 -48l-15 122q348 59 642 59q751 0 751 -510q0 -155 -45.5 -281
t-134.5 -222.5t-203 -169.5t-269 -138q-127 -53 -221 -117t-157 -134t-106.5 -163.5t-68.5 -190t-44 -228.5h1248v-130z" />
    <glyph glyph-name="three" unicode="3" horiz-adv-x="1745" 
d="M708 2284q93 0 171 -5.5t159 -20.5t145 -39t121.5 -64t96 -92.5t60.5 -126.5t22 -165q0 -451 -374 -580v-2q70 -14 140 -55.5t133 -107.5t102.5 -166t39.5 -217q0 -152 -38 -266.5t-107 -190t-174 -123t-230 -67.5t-285 -20q-329 0 -594 54l18 127q13 -2 79.5 -10.5
t89 -11.5t80.5 -9.5t92 -9t82 -5t90 -2.5q196 0 332.5 25t234 84.5t143 159.5t45.5 248q0 205 -130.5 331.5t-339.5 145.5q-121 11 -315 11q-82 0 -121 -1v120q224 5 436 36q198 30 314.5 152.5t116.5 292.5q0 67 -10.5 122t-28.5 97t-48.5 75t-63 56t-81 39t-94 25.5
t-109 15t-119 7t-131.5 1.5q-219 0 -523 -46l-16 124q160 29 284.5 41.5t304.5 12.5z" />
    <glyph glyph-name="four" unicode="4" horiz-adv-x="1974" 
d="M1345 0v565h-1074q-155 0 -155 121q0 64 100 193l995 1284q94 121 182 121q92 0 92 -121v-1472h327v-126h-327v-565h-140zM1345 2112l-1101 -1421h1101v1421z" />
    <glyph glyph-name="five" unicode="5" horiz-adv-x="1772" 
d="M163 32l17 127q258 -47 528 -47q203 0 339 28t229.5 95.5t135 179t41.5 280.5q0 93 -20 165.5t-55.5 125.5t-94 91t-125.5 62t-160.5 37.5t-188.5 18.5t-220 5q-208 0 -380 -12l72 1072h1245v-130h-1115l-56 -810q180 11 301 11q127 0 224.5 -6t199 -23.5t175 -47
t140.5 -79t108.5 -117.5t65.5 -163.5t24 -216.5q0 -190 -52 -325.5t-156 -218t-250.5 -120.5t-346.5 -38q-325 0 -625 56z" />
    <glyph glyph-name="six" unicode="6" horiz-adv-x="2008" 
d="M1062 1358q124 0 222 -12.5t187 -41.5t152.5 -79.5t110.5 -125t70 -179.5t23 -241q0 -119 -19.5 -216.5t-56 -170t-92 -127t-122 -90.5t-152.5 -58t-178 -31.5t-203 -9.5q-133 0 -240 21.5t-186.5 61.5t-139 101.5t-98 135t-62 170.5t-33 199.5t-9.5 228.5
q0 206 11.5 364.5t40.5 299t75 242t117.5 186t165 138.5t221.5 91t282 53t351 16q39 0 139 -2l13 -125q-333 -9 -424 -17q-321 -26 -496 -130q-250 -149 -316 -508q-17 -92 -23 -198q436 54 669 54zM1688 684q0 115 -18.5 200.5t-59.5 145.5t-95.5 98.5t-137 60t-172.5 30
t-213 8.5q-166 0 -610 -58q-7 -128 -7 -267v-57q0 -88 5.5 -159t22 -150t44 -139t75 -117t111.5 -93.5t156 -58.5t206 -22q259 0 410 59.5t217 183.5t66 335z" />
    <glyph glyph-name="seven" unicode="7" horiz-adv-x="1654" 
d="M404 0l995 2134h-1329v126h1330q146 0 146 -90q0 -34 -22 -81l-968 -2089h-152z" />
    <glyph glyph-name="eight" unicode="8" horiz-adv-x="2024" 
d="M1807 590q0 -106 -22 -192.5t-60.5 -149.5t-96.5 -111t-124 -78t-149 -49t-165.5 -26.5t-179.5 -7.5q-141 0 -256 18.5t-216.5 62.5t-170.5 113.5t-109 177t-40 247.5q0 127 32.5 228t91 169t129.5 112.5t159 71.5q-204 83 -288.5 220t-84.5 346q0 260 186.5 401
t566.5 141q373 0 565.5 -142.5t192.5 -399.5q0 -140 -34.5 -243t-119.5 -186t-226 -139q89 -28 161 -72.5t132 -113.5t93 -170t33 -228zM990 1103q-82 -8 -148.5 -19t-134 -30t-118.5 -45t-96 -64t-74 -86t-45.5 -112.5t-16.5 -142.5q0 -98 23.5 -176t68 -131.5t102 -91
t133.5 -59t154.5 -30.5t171.5 -9q117 0 208.5 11.5t179 44.5t144.5 87t91.5 143.5t34.5 210.5q0 106 -34 188.5t-93 137t-146.5 92t-185.5 56t-219 25.5zM1030 1230q70 9 130.5 21t123 31.5t112 45t94.5 62t74.5 81t47 103.5t17.5 129q0 106 -34 187t-89.5 130.5t-137.5 80
t-168 42t-190 11.5q-105 0 -190 -11t-166.5 -41.5t-136 -80t-88 -130.5t-33.5 -188q0 -96 34 -173t91.5 -128.5t140 -88.5t172.5 -56t196 -27z" />
    <glyph glyph-name="nine" unicode="9" horiz-adv-x="2000" 
d="M929 902q-124 0 -222 12.5t-187 41.5t-152.5 79.5t-110.5 125t-70 179.5t-23 241q0 119 19.5 216.5t56 170t92 127t122 90.5t152.5 58t178 31.5t203 9.5q133 0 240 -21.5t186.5 -61.5t139 -101.5t98 -135t62 -170.5t33 -199.5t9.5 -228.5q0 -206 -11.5 -364.5t-40.5 -299
t-75 -242t-117.5 -186t-165 -138.5t-221.5 -91t-282 -53t-351 -16q-39 0 -139 2l-13 125q333 9 424 17q321 26 496 130q250 149 316 508q17 92 23 198q-436 -54 -669 -54zM303 1576q0 -115 18.5 -200.5t59.5 -145.5t95.5 -98.5t137 -60t172.5 -30t213 -8.5q166 0 610 58
q7 128 7 267v57q0 88 -5.5 159t-22 150t-44 139t-75 117t-111.5 93.5t-156 58.5t-206 22q-259 0 -410 -59.5t-217 -183.5t-66 -335z" />
    <glyph glyph-name="colon" unicode=":" horiz-adv-x="695" 
d="M347 247q47 0 64.5 -31.5t17.5 -106.5t-16.5 -104t-65.5 -29t-65 28.5t-16 104.5t17 107t64 31zM347 1549q47 0 64.5 -31.5t17.5 -106.5t-16.5 -104t-65.5 -29t-65 28.5t-16 104.5t17 107t64 31z" />
    <glyph glyph-name="semicolon" unicode=";" horiz-adv-x="786" 
d="M381 1411q0 76 17 107t64 31t64.5 -31.5t17.5 -106.5t-16.5 -104t-65.5 -29t-65 28.5t-16 104.5zM547 399l-287 -836h-124l237 836h174z" />
    <glyph glyph-name="less" unicode="&#x3c;" horiz-adv-x="1949" 
d="M169 907v143l1529 767v-153l-1388 -684l1388 -686v-154z" />
    <glyph glyph-name="equal" unicode="=" horiz-adv-x="2147" 
d="M277 582v132h1593v-132h-1593zM277 1244v132h1593v-132h-1593z" />
    <glyph glyph-name="greater" unicode="&#x3e;" horiz-adv-x="1949" 
d="M251 1817l1529 -767v-143l-1529 -767v154l1388 686l-1388 684v153z" />
    <glyph glyph-name="question" unicode="?" horiz-adv-x="1629" 
d="M668 861l-1 -182h-126l-1 192q0 10 -0.5 40.5t-0.5 44.5q0 74 27 125.5t73 79.5t105.5 46t125.5 31.5t131.5 29t125 45.5t105.5 75t73 123t27 184q0 94 -10.5 164t-32.5 127.5t-62 96.5t-94 67.5t-134 44t-176.5 23t-226.5 7.5q-205 0 -475 -47l-26 123q282 53 569 53
q113 0 199 -6t174 -23t151 -46t120 -77t92 -115t55 -160t20 -211q0 -340 -183 -472q-85 -62 -252 -98q-152 -33 -171 -39q-127 -36 -171 -114q-30 -53 -30 -132zM686 109q0 -75 -16.5 -104t-65.5 -29t-65 28.5t-16 104.5t17 107t64 31t64.5 -31.5t17.5 -106.5z" />
    <glyph glyph-name="at" unicode="@" horiz-adv-x="3142" 
d="M2773 1221l133 39q24 -168 24 -369q0 -313 -88.5 -541t-264 -370.5t-424.5 -210t-582 -67.5q-335 0 -583.5 67.5t-422.5 210t-261.5 370t-87.5 541.5q0 258 60 456.5t173.5 336.5t285.5 227t387 129t487 40q100 0 184 -15.5t159.5 -52t127.5 -94t82.5 -146t30.5 -202.5
v-764q0 -135 -5 -287q-299 -132 -631 -132q-325 0 -473.5 122.5t-148.5 381.5q0 203 110.5 335.5t306.5 174.5q181 39 705 54q0 144 -22.5 237t-78.5 151.5t-142.5 82.5t-221.5 24q-239 0 -426 -32.5t-342.5 -108.5t-257 -197t-157 -302t-55.5 -419q0 -235 54 -415
t154.5 -301.5t252.5 -198.5t336.5 -110.5t419.5 -33.5t420.5 33.5t338 110.5t253 198.5t155 301.5t54.5 415q0 191 -19 330zM2057 1324q-178 -3 -379 -15t-287 -32q-152 -35 -235 -132t-83 -248q0 -109 30.5 -183t94 -117t150 -61t209.5 -18q232 0 496 95q4 188 4 311v400z
" />
    <glyph glyph-name="A" unicode="A" horiz-adv-x="2170" 
d="M256 0h-144l884 2258q20 50 40.5 73t52.5 23t54 -23.5t41 -72.5l874 -2258h-151l-275 709h-1099zM583 835h1000l-497 1285z" />
    <glyph glyph-name="B" unicode="B" horiz-adv-x="2137" 
d="M980 2354q79 0 147.5 -3t143.5 -11.5t137 -22.5t124.5 -36.5t111.5 -52.5t92 -72.5t71.5 -94.5t44.5 -119.5t16 -147.5q0 -241 -83 -389.5t-261 -212.5q71 -23 127 -54t106 -82.5t82.5 -119t51.5 -164.5t19 -218q0 -102 -24 -185t-65.5 -142.5t-105.5 -104t-136 -72
t-165 -44.5t-185 -23.5t-203 -6.5q-393 0 -732 53v2279q319 46 686 46zM996 1129h-561v-989q307 -34 572 -34q107 0 187.5 4.5t163.5 17.5t141.5 36.5t112 61.5t85.5 91t50.5 127.5t18.5 169.5q0 93 -20 167.5t-54.5 128t-89.5 92.5t-116 63.5t-143.5 39t-163.5 19.5t-183 5
zM435 1255h561q101 0 181.5 5.5t158.5 20t135.5 38.5t107.5 61.5t81 89t48.5 121.5t17.5 158q0 87 -20.5 157t-55 119t-89 85.5t-114 58t-139.5 34t-156 17t-172 4.5q-243 0 -545 -36v-933z" />
    <glyph glyph-name="C" unicode="C" horiz-adv-x="1693" 
d="M1645 2313l-15 -124q-254 36 -368 36q-168 0 -296 -21.5t-222 -59.5t-159 -107t-105.5 -147t-62.5 -196.5t-30 -238.5t-8 -290q0 -116 4 -208t14.5 -183t28 -161.5t44.5 -137t64 -115.5t87 -92.5t113.5 -72.5t142.5 -50t174.5 -30.5t210.5 -9.5q114 0 369 35l14 -119
q-251 -45 -490 -45q-159 0 -284.5 23t-222 67.5t-166.5 117.5t-117.5 165t-76 219t-40.5 270t-12 327t12 327t40.5 270t76 219t118 165t167 117.5t221.5 67.5t284 23q252 0 490 -41z" />
    <glyph glyph-name="D" unicode="D" horiz-adv-x="2238" 
d="M296 26v2282q319 46 681 46q128 0 235.5 -11.5t196.5 -36.5t161 -59t128.5 -84t99.5 -106.5t74 -131t51.5 -154t33 -179t17.5 -201.5t5 -226t-5 -226t-17.5 -201.5t-33 -179t-51.5 -154t-74 -131t-99.5 -106.5t-128.5 -84t-161 -59t-196.5 -36.5t-235.5 -11.5
q-345 0 -681 50zM436 2190v-2047q286 -38 470 -38q508 0 721 194q146 133 187 393q22 142 22 450v23q0 310 -18 445q-36 265 -171 403q-195 197 -666 211l-75 1q-163 0 -470 -35z" />
    <glyph glyph-name="E" unicode="E" horiz-adv-x="1747" 
d="M288 480v1366q0 77 13.5 140t35.5 110.5t59.5 84.5t75 62t93.5 42.5t103.5 27.5t115.5 15t120.5 6.5t126.5 1.5q231 0 541 -12v-118h-551q-133 0 -221.5 -8t-158 -31t-108 -56.5t-63.5 -95t-33 -135t-8 -185.5v-444h1093v-126h-1093v-494q0 -112 8 -185.5t33 -134
t63.5 -93.5t108 -56t158 -30.5t221.5 -7.5h551v-122q-196 -8 -541 -8q-86 0 -142.5 2t-133.5 8t-127.5 20.5t-109.5 37t-96 59t-70 86t-48.5 118.5t-15.5 155z" />
    <glyph glyph-name="F" unicode="F" horiz-adv-x="1728" 
d="M292 0v1846q0 77 13.5 140t35.5 110.5t59.5 84.5t75.5 62t93.5 42.5t103 27.5t116 15t120.5 6.5t127 1.5q334 0 541 -12v-118h-551q-133 0 -221.5 -8t-158 -31t-108.5 -57t-64 -95t-33 -134.5t-8 -185.5v-444h1093v-126h-1093v-1125h-141z" />
    <glyph glyph-name="G" unicode="G" horiz-adv-x="2109" 
d="M1812 2309l-14 -126q-320 40 -530 40q-147 0 -263 -14.5t-205.5 -48t-155 -77.5t-112 -114t-75 -145t-44.5 -184t-22 -217.5t-6 -257.5q0 -168 8 -288.5t30.5 -238t63.5 -196.5t106 -147.5t159 -107.5t221.5 -60.5t294.5 -21.5q76 0 138 5.5t108.5 14.5t83 25t61.5 32
t42 41t27 47.5t15 55.5t6.5 60t1.5 67v601h-443v126h584v-851q0 -54 -12 -99t-31.5 -79t-53.5 -60.5t-69 -45t-87.5 -31.5t-100.5 -20t-116 -11.5t-125 -5.5t-136 -1q-159 0 -284 23t-221.5 67.5t-166.5 117.5t-118 165t-76.5 219t-40.5 270t-12 327q0 186 12 330t40.5 271
t76.5 219t118 164t167 116t221.5 66.5t283.5 22.5q365 0 651 -45z" />
    <glyph glyph-name="H" unicode="H" horiz-adv-x="2297" 
d="M444 1258h1409v1072h141v-2330h-141v1129h-1409v-1129h-141v2330h141v-1072z" />
    <glyph glyph-name="I" unicode="I" horiz-adv-x="740" 
d="M441 0h-141v2330h141v-2330z" />
    <glyph glyph-name="J" unicode="J" horiz-adv-x="1252" 
d="M818 2330h141v-1612q0 -204 -29.5 -340t-101 -228.5t-188.5 -133t-294 -40.5q-145 0 -283 44l13 116q116 -30 254 -30q92 0 162 13.5t133.5 50.5t104 99t64.5 161t24 234v1666z" />
    <glyph glyph-name="K" unicode="K" horiz-adv-x="1895" 
d="M435 0h-141v2330h141v-1080l1134 1080h194l-1185 -1129l1219 -1201h-200l-1162 1144v-1144z" />
    <glyph glyph-name="L" unicode="L" horiz-adv-x="1589" 
d="M1532 124v-124q-186 -6 -388 -6h-109q-86 0 -142.5 2t-133.5 8t-127.5 20.5t-109.5 37t-96 59t-70 86t-48.5 118.5t-15.5 155v1850h141v-1699q0 -111 8 -184t33 -133.5t64 -94t108.5 -56.5t158 -31t221.5 -8h506z" />
    <glyph glyph-name="M" unicode="M" horiz-adv-x="2850" 
d="M598 2258l826 -1720l835 1720q25 51 49.5 73.5t57.5 22.5q35 0 59 -24t28 -72l152 -2258h-145l-139 2077l-810 -1666l-21 -42t-18 -28t-23.5 -21t-27.5 -5q-30 0 -48 21.5t-44 74.5l-799 1666l-144 -2077h-141l159 2258q4 49 27 72.5t58 23.5q33 0 58.5 -22.5t50.5 -73.5
z" />
    <glyph glyph-name="N" unicode="N" horiz-adv-x="2340" 
d="M1825 72l-1384 2047v-2119h-138v2258q0 48 25.5 72t61.5 24q61 0 126 -96l1384 -2048v2120h138v-2258q0 -48 -25.5 -72t-61.5 -24q-61 0 -126 96z" />
    <glyph glyph-name="O" unicode="O" horiz-adv-x="2271" 
d="M2021 1165q0 -217 -17.5 -381.5t-58.5 -301t-107.5 -229t-165 -156t-230.5 -92.5t-306 -29t-306 29t-231 92.5t-165.5 156t-107.5 229t-58.5 301t-17.5 381.5t17.5 381.5t58.5 301t107.5 229t165.5 156t231 92.5t306 29t306 -29t230.5 -92.5t165 -156t107.5 -229
t58.5 -301t17.5 -381.5zM393 1165q0 -108 1.5 -180.5t7 -165.5t17 -155.5t30.5 -136.5t48 -123t69 -101.5t95 -85t124 -60t157 -39.5t194 -12q116 0 211.5 17t167.5 44.5t128 77t94 99t64.5 127t41.5 145t23 168.5t10 181.5t2 199.5q0 120 -2 200.5t-10 181.5t-23 168.5
t-41.5 145t-64.5 127t-94 98.5t-128 76.5t-167.5 44.5t-211.5 17q-106 0 -194 -12t-157 -39.5t-124 -59.5t-95 -84.5t-69 -101t-48 -123t-30.5 -137t-17 -155.5t-7 -166t-1.5 -181z" />
    <glyph glyph-name="P" unicode="P" horiz-adv-x="2024" 
d="M294 0v2304q336 50 686 50q112 0 203 -7t185.5 -26t167 -51t137 -84.5t106.5 -123t66.5 -169t24.5 -221.5q0 -121 -21.5 -219.5t-60.5 -170.5t-98.5 -126t-129.5 -88.5t-160.5 -56t-184.5 -30t-208 -8.5q-165 0 -572 20v-993h-141zM435 2186v-1057q264 -26 545 -26
q150 0 262 15t206.5 53.5t154 102.5t92 163.5t32.5 234.5q0 198 -72.5 317.5t-233 177t-429.5 57.5q-264 0 -557 -38z" />
    <glyph glyph-name="Q" unicode="Q" horiz-adv-x="2271" 
d="M1136 -24q-174 0 -306 29t-231 92.5t-165.5 156t-107.5 229t-58.5 301t-17.5 381.5t17.5 381.5t58.5 301t107.5 229t165.5 156t231 92.5t306 29t306 -29t230.5 -92.5t165 -156t107.5 -229t58.5 -301t17.5 -381.5q0 -239 -21.5 -416t-71.5 -318t-134 -232t-206 -145
t-290 -70q72 -127 192.5 -212t322.5 -176l-119 -85q-171 83 -211 106q-210 118 -307 281q-23 38 -40 78zM393 1165q0 -108 1.5 -180.5t7 -165.5t17 -155.5t30.5 -136.5t48 -123t69 -101.5t95 -85t124 -60t157 -39.5t194 -12q116 0 211.5 17t167.5 44.5t128 77t94 99
t64.5 127t41.5 145t23 168.5t10 181.5t2 199.5q0 120 -2 200.5t-10 181.5t-23 168.5t-41.5 145t-64.5 127t-94 98.5t-128 76.5t-167.5 44.5t-211.5 17q-106 0 -194 -12t-157 -39.5t-124 -59.5t-95 -84.5t-69 -101t-48 -123t-30.5 -137t-17 -155.5t-7 -166t-1.5 -181z" />
    <glyph glyph-name="R" unicode="R" horiz-adv-x="2066" 
d="M294 0v2304q336 50 686 50q113 0 203.5 -6.5t185.5 -24.5t166.5 -49t137 -82t107 -120.5t66 -167.5t24.5 -221q0 -173 -45 -299t-132.5 -203.5t-200.5 -118.5t-265 -57l592 -1005h-166l-576 996q-23 -1 -70 -1q-165 0 -572 20v-1015h-141zM435 2186v-1035
q264 -26 545 -26q150 0 262 15.5t206.5 54t154 101.5t92 159.5t32.5 227.5q0 198 -72.5 315t-232.5 171.5t-430 54.5q-264 0 -557 -38z" />
    <glyph glyph-name="S" unicode="S" horiz-adv-x="1685" 
d="M1013 2223q-118 0 -210 -7.5t-177 -25t-145.5 -48.5t-106 -77t-67.5 -112t-22 -151q0 -87 8 -145.5t35.5 -110t64 -85.5t109 -70t155.5 -64t217 -68q80 -24 144.5 -47t134.5 -56t123.5 -69t102.5 -85.5t81 -105.5t51 -129t19 -156q0 -172 -52 -294.5t-157 -197
t-251.5 -109t-345.5 -34.5q-183 0 -301.5 10t-253.5 37l15 124q261 -41 530 -41q123 0 218.5 12.5t182.5 46t144 87.5t90 141.5t33 205.5q0 94 -24 165.5t-66.5 124t-118.5 97t-161.5 77.5t-214.5 71q-77 23 -131 40.5t-116.5 41t-105 45.5t-88.5 51t-76 60.5t-58 71.5
t-44 86.5t-25.5 103t-9.5 122.5q0 166 50 282.5t152 185.5t241 99.5t331 30.5q273 0 548 -43l-14 -123q-240 35 -438 35z" />
    <glyph glyph-name="T" unicode="T" horiz-adv-x="1654" 
d="M84 2330h1486v-126h-671v-2204h-141v2204h-674v126z" />
    <glyph glyph-name="U" unicode="U" horiz-adv-x="2229" 
d="M285 736v1594h141v-1620q0 -306 162.5 -455t518.5 -149q360 0 520.5 148.5t160.5 455.5v1620h141v-1594q0 -177 -38.5 -310t-107 -218t-173.5 -137.5t-226 -73.5t-277 -21q-129 0 -233.5 14.5t-199.5 48.5t-164.5 91.5t-121 140.5t-77.5 200t-26 265z" />
    <glyph glyph-name="V" unicode="V" horiz-adv-x="2050" 
d="M926 72l-814 2258h150l762 -2117l772 2117h143l-824 -2258q-18 -50 -39 -73t-54 -23q-61 0 -96 96z" />
    <glyph glyph-name="W" unicode="W" horiz-adv-x="3062" 
d="M2902 2330l-550 -2258q-23 -96 -97 -96q-62 0 -96 96l-610 1755l-635 -1755q-34 -96 -96 -96q-34 0 -59 24.5t-37 71.5l-562 2258h145l523 -2101l631 1740q18 50 39.5 73t53.5 23q62 0 96 -96l605 -1740l511 2101h138z" />
    <glyph glyph-name="X" unicode="X" horiz-adv-x="1928" 
d="M1622 0l-664 1063l-660 -1063h-158l739 1190l-711 1140h166l628 -1006l624 1006h158l-703 -1133l747 -1197h-166z" />
    <glyph glyph-name="Y" unicode="Y" horiz-adv-x="1814" 
d="M830 0v910l-739 1420h158l657 -1261l665 1261h152l-749 -1420v-910h-144z" />
    <glyph glyph-name="Z" unicode="Z" horiz-adv-x="1729" 
d="M287 126h1306v-126h-1381q-104 0 -104 65q0 40 40 104l1275 2035h-1233v126h1308q104 0 104 -65q0 -40 -40 -104z" />
    <glyph glyph-name="bracketleft" unicode="[" horiz-adv-x="944" 
d="M814 2282h-367v-2698h365v-128h-502v2952h504v-126z" />
    <glyph glyph-name="backslash" unicode="\" horiz-adv-x="1323" 
d="M276 2412l945 -2680h-147l-946 2680h148z" />
    <glyph glyph-name="bracketright" unicode="]" horiz-adv-x="944" 
d="M132 -416h365v2698h-367v126h504v-2952h-502v128z" />
    <glyph glyph-name="asciicircum" unicode="^" horiz-adv-x="1613" 
d="M709 2330h196l531 -1164h-140l-489 1050l-490 -1050h-140z" />
    <glyph glyph-name="underscore" unicode="_" horiz-adv-x="1670" 
d="M1680 -470h-1690v167h1690v-167z" />
    <glyph glyph-name="grave" unicode="`" horiz-adv-x="698" 
d="M564 1924h-122l-356 440h198z" />
    <glyph glyph-name="a" unicode="a" horiz-adv-x="1857" 
d="M1574 1280v-884q0 -135 -5 -287q-300 -133 -705 -133q-185 0 -312 24t-220 82.5t-136.5 159t-43.5 249.5q0 483 424 547q241 36 862 56v138q0 86 -9 147t-32.5 113t-63.5 84.5t-104 56t-151 33t-207 9.5q-209 0 -577 -56l-14 126q196 31 336 45.5t307 14.5
q119 0 210.5 -12.5t177.5 -47t141.5 -92.5t88.5 -152t33 -221zM1438 514v449q-579 -7 -824 -52q-169 -31 -246 -123t-77 -291q0 -95 20.5 -161.5t61.5 -111.5t112 -70.5t161.5 -36t220.5 -10.5q299 0 567 96q4 188 4 311z" />
    <glyph glyph-name="b" unicode="b" horiz-adv-x="1920" 
d="M413 2469v-744q304 80 572 80q266 0 422 -88t229 -286.5t73 -539.5q0 -208 -29 -360.5t-87 -259.5t-153 -172t-219.5 -94t-293.5 -29q-376 0 -645 133q-5 152 -5 287v2073h136zM413 514q0 -123 4 -311q111 -48 248 -72.5t262 -24.5q140 0 242.5 25t180.5 80t126 147
t71.5 223t23.5 310q0 156 -13 269.5t-44 203t-79 147.5t-123 95.5t-170.5 53t-225.5 15.5q-121 0 -260 -24.5t-243 -59.5v-1077z" />
    <glyph glyph-name="c" unicode="c" horiz-adv-x="1441" 
d="M1350 1763l-12 -113q-145 25 -288 25q-94 0 -171.5 -7t-140 -23t-112.5 -37t-88 -53.5t-66 -67t-47.5 -84.5t-31.5 -98.5t-18.5 -115.5t-9 -130.5t-2.5 -147.5q0 -88 3 -155t11.5 -140.5t23.5 -127.5t41 -110t62 -95t86.5 -74.5t115.5 -56.5t149.5 -33t186.5 -12
q116 0 296 37l15 -123q-87 -16 -134 -23.5t-120 -14.5t-145 -7q-127 0 -230.5 24.5t-178.5 67.5t-131.5 109t-92 142t-57.5 174t-30.5 198t-8.5 220q0 131 9 233.5t31.5 198t60.5 165.5t96.5 128t139 94t187.5 55.5t243 19.5q182 0 358 -42z" />
    <glyph glyph-name="d" unicode="d" horiz-adv-x="1917" 
d="M1629 2469v-2073q0 -135 -5 -287q-269 -133 -645 -133q-169 0 -293.5 29t-219.5 94t-153 172t-87 259.5t-29 360.5q0 341 73 539.5t229 286.5t422 88q268 0 572 -80v744h136zM1493 1591q-104 35 -243 59.5t-260 24.5q-130 0 -225.5 -15.5t-170.5 -53t-123 -95.5
t-79 -147.5t-44 -203t-13 -269.5q0 -179 23.5 -310t71.5 -223t126 -147t180.5 -80t242.5 -25q125 0 262 24.5t248 72.5q4 188 4 311v1077z" />
    <glyph glyph-name="e" unicode="e" horiz-adv-x="1947" 
d="M870 777l-505 -20q9 -95 18.5 -157t30 -137.5t50 -122.5t79 -96.5t116.5 -76.5t163 -44t219 -17q262 0 621 53l15 -128q-193 -28 -348 -41.5t-381 -13.5q-168 0 -294.5 45.5t-207.5 124t-131.5 196.5t-70.5 250.5t-20 298.5q0 248 38.5 416.5t129 282t236.5 164.5t364 51
q211 0 360 -52.5t235 -154t124 -234t38 -309.5q0 -100 -5 -197q-151 -24 -417 -48.5t-457 -32.5zM362 883l557 26q341 16 688 56q4 61 4 158q0 127 -32.5 224.5t-103.5 173t-192.5 115t-290.5 39.5q-127 0 -221.5 -19t-165 -61t-117 -103t-75 -152.5t-40 -200.5t-11.5 -256z
" />
    <glyph glyph-name="f" unicode="f" horiz-adv-x="1065" 
d="M564 1659v-1659h-136v1659h-329v122h329v207q0 250 122 377.5t360 127.5q46 0 89 -8l-12 -114h-49q-183 0 -278.5 -86.5t-95.5 -286.5v-217h419v-122h-419z" />
    <glyph glyph-name="g" unicode="g" horiz-adv-x="1923" 
d="M1497 -107v203q-304 -80 -572 -80q-200 0 -334.5 45t-223 151.5t-127.5 275.5t-39 422q0 169 19.5 299.5t61 230.5t103.5 169t150.5 113t198 63.5t249.5 19.5q376 0 645 -133q5 -152 5 -287v-1540q0 -127 -33 -221t-88.5 -152t-141.5 -92.5t-177.5 -47t-210.5 -12.5
q-167 0 -307 14.5t-336 45.5l14 126q368 -56 577 -56q120 0 207 9.5t151 33t104 56t63.5 84.5t32.5 113t9 147zM1497 230v1037q0 123 -4 311q-111 48 -248 72.5t-262 24.5q-175 0 -293.5 -38.5t-198.5 -129t-116 -236t-36 -361.5q0 -183 20 -308.5t63.5 -216.5t121.5 -142
t185.5 -74t264.5 -23q121 0 260 24.5t243 59.5z" />
    <glyph glyph-name="h" unicode="h" horiz-adv-x="1928" 
d="M416 2469v-744q296 77 578 80q146 1 256 -16.5t184.5 -56.5t122.5 -89t74 -124.5t35.5 -150.5t9.5 -180v-1188h-136v1135q0 75 -4 131.5t-15.5 111.5t-31.5 94t-51.5 74t-75.5 57.5t-104.5 39.5t-137.5 24.5t-175 7.5q-265 0 -529 -84v-1591h-136v2469h136z" />
    <glyph glyph-name="i" unicode="i" horiz-adv-x="652" 
d="M245 2355q0 76 17 107t64 31t64.5 -31.5t17.5 -106.5t-16.5 -104t-65.5 -29t-65 28.5t-16 104.5zM394 1781v-1781h-136v1781h136z" />
    <glyph glyph-name="j" unicode="j" horiz-adv-x="662" 
d="M263 -79v1860h136v-1816q0 -342 -123.5 -493.5t-380.5 -151.5q-23 0 -34 1l12 111q68 4 118.5 15t104.5 43t88.5 83t56.5 139.5t22 208.5zM331 2222q-49 0 -65 28.5t-16 104.5t17 107t64 31t64.5 -31.5t17.5 -106.5t-16.5 -104t-65.5 -29z" />
    <glyph glyph-name="k" unicode="k" horiz-adv-x="1600" 
d="M416 0h-136v2469h136v-1532l855 844h186l-911 -900l971 -881h-205l-896 813v-813z" />
    <glyph glyph-name="l" unicode="l" horiz-adv-x="677" 
d="M248 461v2008h136v-1991q0 -303 153 -490l-109 -67q-91 103 -135.5 231.5t-44.5 308.5z" />
    <glyph glyph-name="m" unicode="m" horiz-adv-x="3085" 
d="M1465 0v1124q0 102 -9 177t-32 139t-61 106t-96 72t-137.5 43t-185.5 13q-101 0 -262.5 -31.5t-265.5 -74.5q-4 -188 -4 -311v-1257h-136v1375q0 135 5 287q156 59 360 101t366 42q334 0 475 -168q144 79 329 123.5t387 44.5q109 0 196 -17.5t148 -47.5t106.5 -77
t72.5 -98t43.5 -119t22 -132.5t5.5 -145.5v-1168h-136v1124q0 154 -22 252.5t-80.5 168.5t-159.5 99.5t-259 29.5q-131 0 -290 -38t-297 -110q53 -130 53 -358v-1168h-136z" />
    <glyph glyph-name="n" unicode="n" horiz-adv-x="2018" 
d="M1599 0v1122q0 87 -5.5 150t-20 124t-41.5 102.5t-70 77t-104.5 56t-145 32t-192.5 11.5q-132 0 -318 -32.5t-287 -74.5q-4 -188 -4 -311v-1257h-136v1375q0 135 5 287q162 63 373.5 103t430.5 40q124 0 222 -17.5t166 -46t116.5 -76t76.5 -97t44 -120t21 -133t5 -147.5
v-1168h-136z" />
    <glyph glyph-name="o" unicode="o" horiz-adv-x="2015" 
d="M1781 891q0 -249 -40.5 -419t-133 -282.5t-238.5 -163t-361 -50.5q-216 0 -361 48.5t-238 159.5t-133.5 282t-40.5 425t40.5 424.5t133.5 281.5t238 159.5t361 48.5q215 0 360.5 -49.5t238.5 -161.5t133.5 -282t40.5 -421zM373 891q0 -188 22 -320t67.5 -223.5t123 -144
t178 -75t244.5 -22.5q145 0 248 25t179 79.5t121 147.5t66 222t21 311t-20.5 310.5t-65 222t-120 147.5t-179.5 79t-250 25q-120 0 -208.5 -14.5t-161.5 -50.5t-121.5 -93.5t-81.5 -146t-47.5 -205.5t-14.5 -274z" />
    <glyph glyph-name="p" unicode="p" horiz-adv-x="1920" 
d="M277 -656v2041q0 135 5 287q269 133 645 133q169 0 293.5 -29t219.5 -94t153 -172t87 -259.5t29 -360.5q0 -341 -73 -539.5t-229 -286.5t-422 -88q-268 0 -572 80v-712h-136zM413 190q104 -35 243 -59.5t260 -24.5q130 0 225.5 15.5t170.5 53t123 95.5t79 147.5t44 203
t13 269.5q0 179 -23.5 310t-71.5 223t-126 147t-180.5 80t-242.5 25q-125 0 -262 -24.5t-248 -72.5q-4 -188 -4 -311v-1077z" />
    <glyph glyph-name="q" unicode="q" horiz-adv-x="1920" 
d="M1495 -656v712q-304 -80 -572 -80q-266 0 -422 88t-229 286.5t-73 539.5q0 208 29 360.5t87 259.5t153 172t219.5 94t293.5 29q376 0 645 -133q5 -152 5 -287v-2041h-136zM1495 1267q0 123 -4 311q-111 48 -248 72.5t-262 24.5q-140 0 -242.5 -25t-180.5 -80t-126 -147
t-71.5 -223t-23.5 -310q0 -156 13 -269.5t44 -203t79 -147.5t123 -95.5t170.5 -53t225.5 -15.5q121 0 260 24.5t243 59.5v1077z" />
    <glyph glyph-name="r" unicode="r" horiz-adv-x="1160" 
d="M410 0h-136v1385q0 135 5 287q269 133 645 133q97 0 166 -8l-13 -132q-71 6 -153 6q-125 0 -262 -24.5t-248 -72.5q-4 -188 -4 -311v-1263z" />
    <glyph glyph-name="s" unicode="s" horiz-adv-x="1532" 
d="M858 1675q-51 0 -85 -0.5t-84 -3.5t-84 -8.5t-77 -16.5t-71.5 -26t-58 -38t-47 -52t-28.5 -69t-11 -88q0 -38 3.5 -70t13 -59.5t19.5 -49t29.5 -41t36 -33.5t46.5 -29t53 -25t64 -23t70.5 -22t81.5 -24q51 -15 79 -23q157 -46 258.5 -91t174.5 -105.5t104.5 -137.5
t31.5 -182q0 -111 -33 -195t-91 -138t-144 -88t-183.5 -47.5t-218.5 -13.5q-273 0 -530 50l15 119q234 -37 446 -37q73 0 116.5 1t114.5 7.5t114.5 19t96.5 37t83 59.5t50.5 89t20.5 123q0 46 -6 83t-22 69t-34.5 56.5t-52.5 47.5t-67.5 40.5t-88 38t-105 36.5t-126.5 38
q-195 57 -251 79q-183 72 -253 190q-55 93 -55 226q0 105 29 184.5t80 131t128.5 83.5t167 45t203.5 13q266 0 539 -52l-15 -117q-240 39 -447 39z" />
    <glyph glyph-name="t" unicode="t" horiz-adv-x="1113" 
d="M96 1659v122h344v481l136 22v-503h418v-122h-418v-1198q0 -80 8 -137t27.5 -97.5t44.5 -64.5t68 -37.5t89.5 -18t115.5 -4.5q30 0 68 5l12 -117q-72 -14 -133 -14q-230 0 -333 105.5t-103 344.5v1233h-344z" />
    <glyph glyph-name="u" unicode="u" horiz-adv-x="2012" 
d="M1723 1781v-1375q0 -135 -5 -287q-162 -63 -371.5 -103t-426.5 -40q-124 0 -222 17.5t-166 46t-116.5 76t-76.5 97t-44 120t-21 133t-5 147.5v1168h136v-1122q0 -87 5.5 -150t20 -124t41.5 -102.5t70 -77t104.5 -56t145 -32t192.5 -11.5q130 0 314 32.5t285 74.5
q4 188 4 311v1257h136z" />
    <glyph glyph-name="v" unicode="v" horiz-adv-x="1846" 
d="M920 191l655 1590h142l-695 -1687q-27 -64 -47.5 -91t-53.5 -27q-36 0 -60.5 28t-49.5 90l-682 1687h148z" />
    <glyph glyph-name="w" unicode="w" horiz-adv-x="2903" 
d="M310 1781l452 -1588l597 1329q30 67 49.5 92.5t52.5 25.5q36 0 60 -28t50 -90l564 -1329l465 1588h137l-496 -1687q-34 -118 -106 -118q-36 0 -59.5 27.5t-49.5 90.5l-565 1332l-598 -1332q-20 -46 -31.5 -66.5t-30 -36t-42.5 -15.5q-77 0 -111 118l-481 1687h143z" />
    <glyph glyph-name="x" unicode="x" horiz-adv-x="1711" 
d="M1397 0l-546 812l-544 -812h-158l623 930l-571 851h165l489 -728l488 728h158l-567 -846l629 -935h-166z" />
    <glyph glyph-name="y" unicode="y" horiz-adv-x="1664" 
d="M261 1781l635 -1453l500 1453h138l-829 -2437h-139l267 785l-722 1652h150z" />
    <glyph glyph-name="z" unicode="z" horiz-adv-x="1686" 
d="M313 126h1168v-126h-1301q-74 0 -74 53q0 31 28 67l1196 1535h-1142v126h1275q74 0 74 -53q0 -31 -28 -67z" />
    <glyph glyph-name="braceleft" unicode="{" horiz-adv-x="961" 
d="M556 302v-182q0 -136 30.5 -243.5t97.5 -182.5t166 -98l-14 -120q-95 25 -167 66t-130.5 108.5t-89 173t-30.5 245.5q0 388 -57 571.5t-214 232.5v121q157 49 214 231.5t57 572.5q0 140 30.5 245t89 172.5t130.5 108.5t167 66l14 -120q-146 -35 -220 -176t-74 -348v-182
q0 -524 -259 -631q259 -115 259 -631z" />
    <glyph glyph-name="bar" unicode="|" horiz-adv-x="761" 
d="M451 2469v-3125h-141v3125h141z" />
    <glyph glyph-name="braceright" unicode="}" horiz-adv-x="961" 
d="M813 994v-121q-157 -49 -214 -232.5t-57 -571.5q0 -140 -30.5 -245.5t-89 -173t-130.5 -108.5t-167 -66l-14 120q99 23 166 98t97.5 182.5t30.5 243.5v182q0 516 259 631q-259 107 -259 631v182q0 207 -74 348t-220 176l14 120q95 -25 167 -66t130.5 -108.5t89 -172.5
t30.5 -245q0 -390 57 -572.5t214 -231.5z" />
    <glyph glyph-name="asciitilde" unicode="~" horiz-adv-x="2009" 
d="M360 856h-142q19 201 125 311.5t258 110.5q96 0 189.5 -32t167 -77t143.5 -90.5t145 -77.5t144 -32q109 0 170.5 71.5t89.5 223.5h142q-19 -201 -125 -311.5t-258 -110.5q-81 0 -161 22.5t-141.5 57t-127 74t-119.5 74t-117.5 57t-122.5 22.5q-110 0 -171 -70.5
t-89 -222.5z" />
    <glyph glyph-name="uni00A0" unicode="&#xa0;" horiz-adv-x="1050" 
 />
    <glyph glyph-name="exclamdown" unicode="&#xa1;" horiz-adv-x="652" 
d="M407 1650q0 -76 -17 -107t-64 -31t-64.5 31.5t-17.5 106.5t16.5 104t65.5 29t65 -28.5t16 -104.5zM413 -571h-174l25 1651h124z" />
    <glyph glyph-name="cent" unicode="&#xa2;" horiz-adv-x="1430" 
d="M904 243v-310h-124v316q-101 11 -183.5 41.5t-143 75.5t-105.5 109t-74 135.5t-47 161t-25 180t-7 198.5q0 135 10 239t34.5 200t67.5 165t107.5 123.5t155.5 87t210 45.5v317h124v-310q5 0 17 0.5t18 0.5q173 0 347 -41l-11 -110q-137 24 -280 24q-91 0 -166 -7
t-136 -22.5t-109 -35.5t-85 -51.5t-64 -65t-46 -82t-30.5 -95.5t-18 -112.5t-9 -126.5t-2.5 -143q0 -86 2.5 -150.5t11 -136t23.5 -124t39.5 -106.5t59.5 -92t84.5 -72t112 -54.5t144.5 -32.5t181 -12q105 0 288 36l14 -119q-89 -16 -131 -23t-113.5 -14t-140.5 -7z" />
    <glyph glyph-name="sterling" unicode="&#xa3;" horiz-adv-x="1867" 
d="M1213 1202v-122h-529q23 -166 23 -305q0 -91 -9 -168t-19 -127.5t-38 -120.5t-44.5 -105t-60.5 -124h703q226 0 487 33l14 -118q-327 -45 -702 -45h-607q-73 0 -73 61q0 21 33 89t72.5 148t72.5 203.5t33 243.5q0 131 -30 335h-360v122h340q-43 278 -43 500q0 136 40 239
t107.5 167.5t167.5 104.5t207.5 55.5t240.5 15.5q306 0 497 -180l-75 -88q-174 138 -410 138q-186 0 -309 -31t-195 -99.5t-101 -165t-29 -240.5q0 -34 2.5 -72t4.5 -64.5t8.5 -73t9.5 -64t12 -74t11 -68.5h548z" />
    <glyph glyph-name="currency" unicode="&#xa4;" horiz-adv-x="1935" 
d="M324 1851l230 -229q183 146 414 146q233 0 415 -142l226 225l96 -95l-228 -222q155 -182 155 -419q0 -233 -155 -412l229 -222l-97 -96l-226 228q-184 -146 -415 -146q-237 0 -418 147l-226 -229l-94 97l228 223q-148 180 -148 410q0 235 149 414l-229 227zM965 606
q137 0 257 66t193.5 184.5t73.5 260.5q0 138 -68.5 256t-189.5 187.5t-266 69.5q-138 0 -256.5 -67.5t-189.5 -186t-71 -259.5q0 -136 67 -253t186.5 -187.5t263.5 -70.5z" />
    <glyph glyph-name="yen" unicode="&#xa5;" horiz-adv-x="1705" 
d="M917 494v-494h-140v494h-395v122h395v236h-395v122h353l-595 1286h153l558 -1207l566 1207h148l-605 -1286h362v-122h-405v-236h405v-122h-405z" />
    <glyph glyph-name="brokenbar" unicode="&#xa6;" horiz-adv-x="699" 
d="M420 605v-1076h-141v1076h141zM420 2284v-1075h-141v1075h141z" />
    <glyph glyph-name="section" unicode="&#xa7;" horiz-adv-x="1784" 
d="M1021 1431q67 -26 116.5 -47.5t114.5 -54t111.5 -63.5t95 -74.5t78.5 -88.5t49.5 -102.5t19.5 -120.5q0 -250 -406 -472q132 -94 202.5 -200.5t70.5 -207.5q0 -110 -42.5 -196.5t-110.5 -139.5t-162 -87.5t-188 -47.5t-198 -13q-281 0 -539 54l18 131q301 -48 460 -48
q55 0 94.5 1t107.5 8t117 19.5t106.5 38t94 60.5t61 89.5t24.5 123.5q0 50 -14.5 93.5t-40 78.5t-64 66.5t-81 57t-97.5 51t-108 47t-117 46.5q-2 1 -3.5 1.5t-3.5 1t-4 1.5q-77 30 -126 51t-120.5 56.5t-117 67t-97.5 78.5t-82 97t-50 115t-20 139q0 137 90 251t292 208
q-126 91 -176.5 178.5t-50.5 191.5q0 220 160.5 352t443.5 132q301 0 539 -51l-16 -127q-257 48 -462 48q-237 0 -376.5 -90t-139.5 -249q0 -58 20.5 -108.5t60 -91.5t86.5 -75t113 -65.5t125 -56.5t136 -55q4 -1 6 -2zM1073 487q84 40 144 74.5t120.5 81.5t92.5 101t32 113
q0 127 -86.5 219t-314.5 189q-50 21 -177.5 67t-212.5 89q-79 -35 -138.5 -70.5t-112.5 -80t-81.5 -98t-28.5 -113.5q0 -66 14 -116t51 -102t107.5 -100t179.5 -95q70 -30 193.5 -73.5t217.5 -85.5z" />
    <glyph glyph-name="dieresis" unicode="&#xa8;" horiz-adv-x="1122" 
d="M341 2004q-48 0 -81.5 34t-33.5 82t33.5 82t81.5 34t82 -34t34 -82t-34 -82t-82 -34zM781 2004q-48 0 -82 34t-34 82t34 82t82 34t82 -34t34 -82t-34 -82t-82 -34z" />
    <glyph glyph-name="copyright" unicode="&#xa9;" horiz-adv-x="2798" 
d="M1858 853h136q-13 -130 -93.5 -230t-206 -152.5t-274.5 -52.5q-152 0 -271.5 59t-193.5 162.5t-112.5 237.5t-38.5 291q0 112 24.5 219t75.5 202t123 167t173.5 114t219.5 42q78 0 154 -14.5t147.5 -46.5t127.5 -77t95 -110.5t50 -143.5h-136q-22 126 -143.5 195.5
t-294.5 69.5q-100 0 -186 -41t-151 -117.5t-102 -194.5t-37 -264q0 -294 129 -456.5t347 -162.5q162 0 288 83t150 221zM1399 2354q164 0 319 -41.5t285.5 -117t239.5 -184t185 -238.5t118 -285t42 -320q0 -197 -59 -379.5t-168 -329t-255 -255.5t-328 -168.5t-379 -59.5
q-165 0 -320 42t-285.5 118.5t-239.5 185.5t-184.5 240t-117.5 286.5t-42 319.5q0 165 42 319.5t117.5 285t184.5 239t239.5 184t285.5 117t320 41.5zM1399 2229q-217 0 -412.5 -82.5t-336.5 -223.5t-223.5 -338t-82.5 -417q0 -223 82.5 -421t223.5 -339.5t336 -224
t413 -82.5t413 82.5t335.5 224t223 339.5t82.5 421q0 220 -82.5 417t-223 338t-336 223.5t-412.5 82.5z" />
    <glyph glyph-name="ordfeminine" unicode="&#xaa;" horiz-adv-x="1402" 
d="M1138 1370q0 -73 -4 -191q-205 -91 -471 -91q-249 0 -362.5 75t-113.5 269q0 321 287 364q164 24 549 36v82q0 82 -13.5 131.5t-53 84.5t-108 49t-181.5 14q-134 0 -387 -39l-11 100q258 41 432 41q80 0 141.5 -8.5t119 -31.5t95 -61.5t59.5 -101t22 -147.5v-575z
M1023 1447v283q-374 -7 -520 -34q-102 -19 -151 -78t-49 -182q0 -144 79.5 -194.5t282.5 -50.5q188 0 356 59q2 122 2 197z" />
    <glyph glyph-name="guillemotleft" unicode="&#xab;" horiz-adv-x="1451" 
d="M144 862l448 634h152l-407 -634l407 -633h-152zM1254 229h-153l-448 633l448 634h152l-408 -634z" />
    <glyph glyph-name="logicalnot" unicode="&#xac;" horiz-adv-x="2152" 
d="M256 1131v132h1593v-894h-154v762h-1439z" />
    <glyph glyph-name="uni00AD" unicode="&#xad;" horiz-adv-x="1362" 
d="M1106 821h-849v129h849v-129z" />
    <glyph glyph-name="registered" unicode="&#xae;" horiz-adv-x="1834" 
d="M740 1586v-366h-103v855h296q171 0 249.5 -61.5t78.5 -180.5q0 -93 -50.5 -154t-142.5 -79l188 -380h-117l-178 366h-221zM195 1633q0 199 95.5 365t261.5 261t365 95t365 -95t261.5 -261t95.5 -365t-95.5 -365.5t-261.5 -262t-365 -95.5t-365 95.5t-261.5 262
t-95.5 365.5zM1537 1633q0 172 -82 315t-224.5 225t-313.5 82q-170 0 -312 -82t-224 -225t-82 -315q0 -174 82 -318t223.5 -226t312.5 -82q128 0 243 48.5t197.5 131.5t131 199.5t48.5 246.5zM924 1983h-184v-305h189q114 0 171.5 37t57.5 118q0 82 -58 116t-176 34z" />
    <glyph glyph-name="macron" unicode="&#xaf;" horiz-adv-x="1346" 
d="M246 2054v118h854v-118h-854z" />
    <glyph glyph-name="degree" unicode="&#xb0;" horiz-adv-x="1237" 
d="M1051 1922q0 -178 -126.5 -305t-305.5 -127t-306 126.5t-127 305.5t127 305.5t306 126.5t305.5 -127t126.5 -305zM317 1922q0 -126 88 -213.5t214 -87.5q125 0 213 87.5t88 213.5q0 125 -88 213t-213 88q-126 0 -214 -88t-88 -213z" />
    <glyph glyph-name="plusminus" unicode="&#xb1;" horiz-adv-x="2028" 
d="M1811 1234v-125h-722v-665h-149v665h-722v125h722v651h149v-651h722zM218 72v132h1593v-132h-1593z" />
    <glyph glyph-name="twosuperior" unicode="&#xb2;" horiz-adv-x="1035" 
d="M934 1467v-99h-855q18 103 33 171t37 135.5t49 111.5t67 87t92 74.5t123 61.5q348 149 348 372q0 130 -88.5 184t-290.5 54q-153 0 -340 -30l-11 93q215 37 387 37q450 0 450 -308q0 -92 -27 -167t-80 -132.5t-120.5 -101t-159.5 -81.5q-88 -37 -148 -81.5t-97.5 -103
t-58 -122.5t-34.5 -155h724z" />
    <glyph glyph-name="threesuperior" unicode="&#xb3;" horiz-adv-x="1049" 
d="M428 2721q79 0 142 -7t125.5 -27t104 -53.5t67 -90t25.5 -132.5q0 -250 -196 -336q88 -32 154 -115.5t66 -204.5q0 -113 -34 -191.5t-101 -123.5t-155 -64.5t-208 -19.5q-193 0 -360 34l14 96q218 -30 309 -30q223 0 324.5 64t101.5 225q0 113 -73 184t-188 83
q-70 7 -152 7q-38 0 -114 -2v93q148 2 265 20q109 17 174.5 86t65.5 162q0 48 -10 85t-26 62.5t-44 43.5t-57 28t-72.5 16t-82 7.5t-94.5 1.5q-134 0 -315 -29l-12 94q185 34 356 34z" />
    <glyph glyph-name="acute" unicode="&#xb4;" horiz-adv-x="698" 
d="M256 1924h-122l280 440h198z" />
    <glyph glyph-name="mu" unicode="&#xb5;" horiz-adv-x="1892" 
d="M1517 1781v-1223q0 -65 0.5 -98.5t3 -87.5t8.5 -83.5t16.5 -68t26 -60.5t39.5 -42t55 -30v-112q-52 0 -93.5 16t-70 47t-49 68t-33.5 88t-20 98t-12 106h-2q-57 -193 -200 -308t-310 -115q-124 0 -217 48.5t-186 157.5v-838h-134v2437h135v-1186q0 -97 25 -181.5
t73 -150.5t125.5 -104t175.5 -38q152 0 268.5 101t177.5 272.5t61 385.5v901h137z" />
    <glyph glyph-name="paragraph" unicode="&#xb6;" horiz-adv-x="2007" 
d="M1567 2209h-541v-2722h-129v1551q-175 0 -319 50t-239 136.5t-146.5 202.5t-51.5 248q0 324 200.5 489.5t558.5 165.5h796v-2843h-129v2722z" />
    <glyph glyph-name="periodcentered" unicode="&#xb7;" horiz-adv-x="668" 
d="M333 1091q47 0 64.5 -31.5t17.5 -106.5t-16.5 -104t-65.5 -29t-65 28.5t-16 104.5t17 107t64 31z" />
    <glyph glyph-name="cedilla" unicode="&#xb8;" horiz-adv-x="725" 
d="M324 0h120l-103 -161q111 -5 182.5 -63.5t71.5 -159.5q0 -86 -47 -143.5t-116 -80.5t-157 -23q-121 0 -206 45l35 93q89 -38 178 -38q32 0 60.5 6t56 20t44 41.5t16.5 65.5q0 43 -28.5 77.5t-71.5 53.5t-87 29t-83 10z" />
    <glyph glyph-name="onesuperior" unicode="&#xb9;" horiz-adv-x="686" 
d="M500 1375h-105v1210q-183 -53 -345 -79l-6 97q97 16 201.5 47t174.5 62h80v-1337z" />
    <glyph glyph-name="ordmasculine" unicode="&#xba;" horiz-adv-x="1483" 
d="M742 2295q283 0 399.5 -138t116.5 -465q0 -326 -117 -465t-399 -139q-284 0 -400 136.5t-116 467.5q0 330 116 466.5t400 136.5zM742 2193q-114 0 -186.5 -22.5t-122.5 -79.5t-70.5 -153t-20.5 -246t21 -246t70.5 -153.5t122.5 -80t186 -22.5q152 0 237 46.5t124 154.5
t39 301q0 116 -13 198.5t-41 142t-75.5 94t-113 50.5t-157.5 16z" />
    <glyph glyph-name="guillemotright" unicode="&#xbb;" horiz-adv-x="1451" 
d="M350 1496l448 -634l-448 -633h-153l409 633l-408 634h152zM1114 862l-407 634h152l448 -634l-448 -633h-152z" />
    <glyph glyph-name="onequarter" unicode="&#xbc;" horiz-adv-x="2354" 
d="M1984 424h191v-95h-191v-329h-107v329h-611q-103 0 -103 81q0 40 61 119l578 747q58 75 116 75q66 0 66 -82v-845zM600 996h-105v1210q-183 -53 -345 -79l-6 97q97 16 201.5 47t174.5 62h80v-1337zM1714 2378h145l-1369 -2426h-144zM1877 424v779l-602 -779h602z" />
    <glyph glyph-name="onehalf" unicode="&#xbd;" horiz-adv-x="2582" 
d="M1658 98h724v-98h-856q22 125 40.5 202t47.5 151t69.5 121.5t99.5 89t144 77.5q348 148 348 372q0 130 -88 184t-291 54q-152 0 -339 -30l-12 93q216 37 387 37q450 0 450 -308q0 -92 -27 -167t-80 -132.5t-120.5 -101t-159.5 -81.5q-88 -37 -148 -81.5t-97.5 -103.5
t-57.5 -122.5t-34 -155.5zM604 996h-105v1210q-183 -53 -345 -79l-6 97q97 16 201.5 47t174.5 62h80v-1337zM1720 2378h145l-1369 -2426h-144z" />
    <glyph glyph-name="threequarters" unicode="&#xbe;" horiz-adv-x="2611" 
d="M540 2342q79 0 142 -7t125.5 -27t104 -53.5t67 -90t25.5 -132.5q0 -250 -196 -336q88 -32 154 -115.5t66 -204.5q0 -113 -34 -191.5t-101 -123.5t-155 -64.5t-208 -19.5q-193 0 -360 34l14 96q218 -30 309 -30q223 0 324.5 64t101.5 225q0 113 -73 184t-188 83
q-70 7 -152 7q-38 0 -114 -2v93q148 2 265 20q109 17 174.5 86t65.5 162q0 48 -10 85t-26 62.5t-44 43.5t-57 28t-72.5 16t-82 7.5t-94.5 1.5q-134 0 -315 -29l-12 94q185 34 356 34zM2134 0v329h-611q-103 0 -103 81q0 41 60 119l579 747q58 75 116 75q66 0 66 -82v-845
h191v-95h-191v-329h-107zM745 -48h-144l1367 2426h145zM1531 424h603v779z" />
    <glyph glyph-name="questiondown" unicode="&#xbf;" horiz-adv-x="1629" 
d="M962 1080h126l1 -192q0 -10 0.5 -40.5t0.5 -44.5q0 -74 -27 -125.5t-73 -79.5t-105.5 -46t-125 -31.5t-131.5 -29t-125.5 -45.5t-105.5 -75t-73 -123t-27 -184q0 -94 10.5 -164t32.5 -127.5t62 -96.5t94 -67.5t134 -44t176.5 -23t226.5 -7.5q205 0 475 47l26 -123
q-282 -53 -569 -53q-113 0 -199 6t-174 23t-151 46t-120 77t-92 115t-55 160t-20 211q0 340 183 472q85 62 252 98q152 33 171 39q127 36 171 114q30 53 30 132zM1025 1512q-47 0 -64.5 31.5t-17.5 106.5t16.5 104t65.5 29t65 -28.5t16 -104.5t-17 -107t-64 -31z" />
    <glyph glyph-name="Agrave" unicode="&#xc0;" horiz-adv-x="2170" 
d="M256 0h-144l884 2258q20 50 40.5 73t52.5 23t54 -23.5t41 -72.5l874 -2258h-151l-275 709h-1099zM1150 2598h-131l-381 357h212zM583 835h1000l-497 1285z" />
    <glyph glyph-name="Aacute" unicode="&#xc1;" horiz-adv-x="2170" 
d="M256 0h-144l884 2258q20 50 40.5 73t52.5 23t54 -23.5t41 -72.5l874 -2258h-151l-275 709h-1099zM1164 2578h-131l300 357h212zM583 835h1000l-497 1285z" />
    <glyph glyph-name="Acircumflex" unicode="&#xc2;" horiz-adv-x="2170" 
d="M256 0h-144l884 2258q20 50 40.5 73t52.5 23t54 -23.5t41 -72.5l874 -2258h-151l-275 709h-1099zM1171 2935l296 -357h-136l-249 283l-249 -283h-132l289 357h181zM583 835h1000l-497 1285z" />
    <glyph glyph-name="Atilde" unicode="&#xc3;" horiz-adv-x="2170" 
d="M830 2627h-109q15 128 73 196.5t132 68.5q48 0 87 -16t63.5 -38t46 -44.5t46.5 -38.5t54 -16q91 0 117 146h108q-15 -127 -73 -196t-132 -69q-48 0 -87 16t-63.5 38t-45.5 44.5t-46 38.5t-54 16q-90 0 -117 -146zM112 0l884 2258q20 50 40.5 73t52.5 23t54 -23.5
t41 -72.5l874 -2258h-151l-275 709h-1099l-277 -709h-144zM1583 835l-497 1285l-503 -1285h1000z" />
    <glyph glyph-name="Adieresis" unicode="&#xc4;" horiz-adv-x="2170" 
d="M256 0h-144l884 2258q20 50 40.5 73t52.5 23t54 -23.5t41 -72.5l874 -2258h-151l-275 709h-1099zM868 2635q-48 0 -81.5 34t-33.5 82t33.5 82t81.5 34t82 -34t34 -82t-34 -82t-82 -34zM1308 2635q-48 0 -82 34t-34 82t34 82t82 34t82 -34t34 -82t-34 -82t-82 -34z
M583 835h1000l-497 1285z" />
    <glyph glyph-name="Aring" unicode="&#xc5;" horiz-adv-x="2170" 
d="M256 0h-144l884 2258q20 50 40.5 73t52.5 23t54 -23.5t41 -72.5l874 -2258h-151l-275 709h-1099zM1396 2857q0 -129 -91 -220t-220 -91q-128 0 -219 91t-91 220q0 128 91 219t219 91q129 0 220 -91t91 -219zM883 2857q0 -85 59 -144t143 -59t143.5 59t59.5 144
q0 84 -59.5 143t-143.5 59t-143 -59t-59 -143zM583 835h1000l-497 1285z" />
    <glyph glyph-name="AE" unicode="&#xc6;" horiz-adv-x="3042" 
d="M256 0h-144l832 2125q47 119 156 174t240 55q236 0 334 -192q38 47 94.5 80.5t114 51.5t139 27.5t146 12t158.5 2.5q230 0 541 -12v-118h-551q-133 0 -221.5 -8t-158 -31t-108 -56.5t-63.5 -95t-33 -135t-8 -185.5v-444h1093v-126h-1093v-494q0 -112 8 -185.5t33 -134
t63.5 -93.5t108 -56t158 -30.5t221.5 -7.5h551v-122q-196 -8 -541 -8q-86 0 -142.5 2t-133.5 8t-127.5 20.5t-109.5 37t-96 59t-70 86t-48.5 118.5t-15.5 155v229h-1050zM1001 1903l-418 -1068h1000v1040q0 193 -61 271t-204 78q-32 0 -60.5 -5.5t-50.5 -13t-42.5 -22.5
t-35 -27.5t-30 -35.5t-24.5 -38t-21 -43t-18 -43.5t-17.5 -47t-17.5 -45.5z" />
    <glyph glyph-name="Ccedilla" unicode="&#xc7;" horiz-adv-x="1693" 
d="M856 -570l35 93q89 -38 178 -38q32 0 60.5 6t56 20t44 41.5t16.5 65.5q0 43 -28.5 77.5t-71.5 53.5t-87 29t-83 10l112 189q-147 5 -263 31.5t-205.5 73t-154.5 120.5t-109.5 165.5t-70.5 216t-37.5 264t-11.5 317.5q0 184 12 327t40.5 270t76 219t118 165t167 117.5
t221.5 67.5t284 23q252 0 490 -41l-15 -124q-254 36 -368 36q-168 0 -296 -21.5t-222 -59.5t-159 -107t-105.5 -147t-62.5 -196.5t-30 -238.5t-8 -290q0 -116 4 -208t14.5 -183t28 -161.5t44.5 -137t64 -115.5t87 -92.5t113.5 -72.5t142.5 -50t174.5 -30.5t210.5 -9.5
q114 0 369 35l14 -119q-230 -40 -440 -44l-77 -122q111 -5 182.5 -63.5t71.5 -159.5q0 -86 -47 -143.5t-116 -80.5t-157 -23q-121 0 -206 45z" />
    <glyph glyph-name="Egrave" unicode="&#xc8;" horiz-adv-x="1747" 
d="M288 480v1366q0 77 13.5 140t35.5 110.5t59.5 84.5t75 62t93.5 42.5t103.5 27.5t115.5 15t120.5 6.5t126.5 1.5q231 0 541 -12v-118h-551q-133 0 -221.5 -8t-158 -31t-108 -56.5t-63.5 -95t-33 -135t-8 -185.5v-444h1093v-126h-1093v-494q0 -112 8 -185.5t33 -134
t63.5 -93.5t108 -56t158 -30.5t221.5 -7.5h551v-122q-196 -8 -541 -8q-86 0 -142.5 2t-133.5 8t-127.5 20.5t-109.5 37t-96 59t-70 86t-48.5 118.5t-15.5 155zM660 2917h212l300 -357h-131z" />
    <glyph glyph-name="Eacute" unicode="&#xc9;" horiz-adv-x="1747" 
d="M288 480v1366q0 77 13.5 140t35.5 110.5t59.5 84.5t75 62t93.5 42.5t103.5 27.5t115.5 15t120.5 6.5t126.5 1.5q231 0 541 -12v-118h-551q-133 0 -221.5 -8t-158 -31t-108 -56.5t-63.5 -95t-33 -135t-8 -185.5v-444h1093v-126h-1093v-494q0 -112 8 -185.5t33 -134
t63.5 -93.5t108 -56t158 -30.5t221.5 -7.5h551v-122q-196 -8 -541 -8q-86 0 -142.5 2t-133.5 8t-127.5 20.5t-109.5 37t-96 59t-70 86t-48.5 118.5t-15.5 155zM1164 2917h212l-381 -357h-131z" />
    <glyph glyph-name="Ecircumflex" unicode="&#xca;" horiz-adv-x="1747" 
d="M288 480v1366q0 77 13.5 140t35.5 110.5t59.5 84.5t75 62t93.5 42.5t103.5 27.5t115.5 15t120.5 6.5t126.5 1.5q231 0 541 -12v-118h-551q-133 0 -221.5 -8t-158 -31t-108 -56.5t-63.5 -95t-33 -135t-8 -185.5v-444h1093v-126h-1093v-494q0 -112 8 -185.5t33 -134
t63.5 -93.5t108 -56t158 -30.5t221.5 -7.5h551v-122q-196 -8 -541 -8q-86 0 -142.5 2t-133.5 8t-127.5 20.5t-109.5 37t-96 59t-70 86t-48.5 118.5t-15.5 155zM1229 2560l-249 283l-249 -283h-132l289 357h181l296 -357h-136z" />
    <glyph glyph-name="Edieresis" unicode="&#xcb;" horiz-adv-x="1747" 
d="M288 480v1366q0 77 13.5 140t35.5 110.5t59.5 84.5t75 62t93.5 42.5t103.5 27.5t115.5 15t120.5 6.5t126.5 1.5q231 0 541 -12v-118h-551q-133 0 -221.5 -8t-158 -31t-108 -56.5t-63.5 -95t-33 -135t-8 -185.5v-444h1093v-126h-1093v-494q0 -112 8 -185.5t33 -134
t63.5 -93.5t108 -56t158 -30.5t221.5 -7.5h551v-122q-196 -8 -541 -8q-86 0 -142.5 2t-133.5 8t-127.5 20.5t-109.5 37t-96 59t-70 86t-48.5 118.5t-15.5 155zM778 2851q48 0 82 -34t34 -82t-34 -82t-82 -34t-81.5 34t-33.5 82t33.5 82t81.5 34zM1218 2851q48 0 82 -34
t34 -82t-34 -82t-82 -34t-82 34t-34 82t34 82t82 34z" />
    <glyph glyph-name="Igrave" unicode="&#xcc;" horiz-adv-x="740" 
d="M431 2568h-131l-381 357h212zM441 0h-141v2330h141v-2330z" />
    <glyph glyph-name="Iacute" unicode="&#xcd;" horiz-adv-x="740" 
d="M441 0h-141v2330h141v-2330zM441 2568h-131l300 357h212z" />
    <glyph glyph-name="Icircumflex" unicode="&#xce;" horiz-adv-x="740" 
d="M458 2909l296 -357h-136l-249 283l-249 -283h-132l289 357h181zM441 0h-141v2330h141v-2330z" />
    <glyph glyph-name="Idieresis" unicode="&#xcf;" horiz-adv-x="740" 
d="M151 2612q-48 0 -81.5 34t-33.5 82t33.5 82t81.5 34t82 -34t34 -82t-34 -82t-82 -34zM591 2612q-48 0 -82 34t-34 82t34 82t82 34t82 -34t34 -82t-34 -82t-82 -34zM441 0h-141v2330h141v-2330z" />
    <glyph glyph-name="Eth" unicode="&#xd0;" horiz-adv-x="2346" 
d="M404 1264v1044q319 46 681 46q128 0 235.5 -11.5t196.5 -36.5t161 -59t128.5 -84t99.5 -106.5t74 -131t51.5 -154t33 -179t17.5 -201.5t5 -226t-5 -226t-17.5 -201.5t-33 -179t-51.5 -154t-74 -131t-99.5 -106.5t-128.5 -84t-161 -59t-196.5 -36.5t-235.5 -11.5
q-345 0 -681 50v1120h-214v118h214zM939 1264v-118h-395v-1003q286 -38 470 -38q508 0 721 194q146 133 187 393q22 142 22 450v23q0 310 -18 445q-36 265 -171 403q-195 197 -666 211q-36 1 -75 1q-163 0 -470 -35v-926h395z" />
    <glyph glyph-name="Ntilde" unicode="&#xd1;" horiz-adv-x="2340" 
d="M1825 72l-1384 2047v-2119h-138v2258q0 48 25.5 72t61.5 24q61 0 126 -96l1384 -2048v2120h138v-2258q0 -48 -25.5 -72t-61.5 -24q-61 0 -126 96zM1435 2883h108q-15 -127 -73 -196t-132 -69q-48 0 -87 16t-63.5 38t-45.5 44.5t-46 38.5t-54 16q-90 0 -117 -146h-109
q15 128 73 196.5t132 68.5q48 0 87 -16t63.5 -38t46 -44.5t46.5 -38.5t54 -16q91 0 117 146z" />
    <glyph glyph-name="Ograve" unicode="&#xd2;" horiz-adv-x="2271" 
d="M2021 1165q0 -217 -17.5 -381.5t-58.5 -301t-107.5 -229t-165 -156t-230.5 -92.5t-306 -29t-306 29t-231 92.5t-165.5 156t-107.5 229t-58.5 301t-17.5 381.5t17.5 381.5t58.5 301t107.5 229t165.5 156t231 92.5t306 29t306 -29t230.5 -92.5t165 -156t107.5 -229
t58.5 -301t17.5 -381.5zM393 1165q0 -108 1.5 -180.5t7 -165.5t17 -155.5t30.5 -136.5t48 -123t69 -101.5t95 -85t124 -60t157 -39.5t194 -12q116 0 211.5 17t167.5 44.5t128 77t94 99t64.5 127t41.5 145t23 168.5t10 181.5t2 199.5q0 120 -2 200.5t-10 181.5t-23 168.5
t-41.5 145t-64.5 127t-94 98.5t-128 76.5t-167.5 44.5t-211.5 17q-106 0 -194 -12t-157 -39.5t-124 -59.5t-95 -84.5t-69 -101t-48 -123t-30.5 -137t-17 -155.5t-7 -166t-1.5 -181zM1282 2567h-131l-381 357h212z" />
    <glyph glyph-name="Oacute" unicode="&#xd3;" horiz-adv-x="2271" 
d="M2021 1165q0 -217 -17.5 -381.5t-58.5 -301t-107.5 -229t-165 -156t-230.5 -92.5t-306 -29t-306 29t-231 92.5t-165.5 156t-107.5 229t-58.5 301t-17.5 381.5t17.5 381.5t58.5 301t107.5 229t165.5 156t231 92.5t306 29t306 -29t230.5 -92.5t165 -156t107.5 -229
t58.5 -301t17.5 -381.5zM393 1165q0 -108 1.5 -180.5t7 -165.5t17 -155.5t30.5 -136.5t48 -123t69 -101.5t95 -85t124 -60t157 -39.5t194 -12q116 0 211.5 17t167.5 44.5t128 77t94 99t64.5 127t41.5 145t23 168.5t10 181.5t2 199.5q0 120 -2 200.5t-10 181.5t-23 168.5
t-41.5 145t-64.5 127t-94 98.5t-128 76.5t-167.5 44.5t-211.5 17q-106 0 -194 -12t-157 -39.5t-124 -59.5t-95 -84.5t-69 -101t-48 -123t-30.5 -137t-17 -155.5t-7 -166t-1.5 -181zM1139 2567h-131l300 357h212z" />
    <glyph glyph-name="Ocircumflex" unicode="&#xd4;" horiz-adv-x="2271" 
d="M2021 1165q0 -217 -17.5 -381.5t-58.5 -301t-107.5 -229t-165 -156t-230.5 -92.5t-306 -29t-306 29t-231 92.5t-165.5 156t-107.5 229t-58.5 301t-17.5 381.5t17.5 381.5t58.5 301t107.5 229t165.5 156t231 92.5t306 29t306 -29t230.5 -92.5t165 -156t107.5 -229
t58.5 -301t17.5 -381.5zM393 1165q0 -108 1.5 -180.5t7 -165.5t17 -155.5t30.5 -136.5t48 -123t69 -101.5t95 -85t124 -60t157 -39.5t194 -12q116 0 211.5 17t167.5 44.5t128 77t94 99t64.5 127t41.5 145t23 168.5t10 181.5t2 199.5q0 120 -2 200.5t-10 181.5t-23 168.5
t-41.5 145t-64.5 127t-94 98.5t-128 76.5t-167.5 44.5t-211.5 17q-106 0 -194 -12t-157 -39.5t-124 -59.5t-95 -84.5t-69 -101t-48 -123t-30.5 -137t-17 -155.5t-7 -166t-1.5 -181zM1224 2924l296 -357h-136l-249 283l-249 -283h-132l289 357h181z" />
    <glyph glyph-name="Otilde" unicode="&#xd5;" horiz-adv-x="2271" 
d="M879 2600h-109q15 128 73 196.5t132 68.5q48 0 87 -16t63.5 -38.5t46 -44.5t46.5 -38t54 -16q91 0 117 146h108q-15 -127 -73 -196t-132 -69q-48 0 -87 16t-63.5 38.5t-45.5 44.5t-46 38t-54 16q-90 0 -117 -146zM1136 2354q174 0 306 -29t230.5 -92.5t165 -156
t107.5 -229t58.5 -301t17.5 -381.5t-17.5 -381.5t-58.5 -301t-107.5 -229t-165 -156t-230.5 -92.5t-306 -29t-306 29t-231 92.5t-165.5 156t-107.5 229t-58.5 301t-17.5 381.5t17.5 381.5t58.5 301t107.5 229t165.5 156t231 92.5t306 29zM1136 2224q-106 0 -194 -12
t-157 -39.5t-124 -59.5t-95 -84.5t-69 -101t-48 -123t-30.5 -137t-17 -155.5t-7 -166t-1.5 -181t1.5 -180.5t7 -165.5t17 -155.5t30.5 -136.5t48 -123t69 -101.5t95 -85t124 -60t157 -39.5t194 -12q116 0 211.5 17t167.5 44.5t128 77t94 99t64.5 127t41.5 145t23 168.5
t10 181.5t2 199.5q0 120 -2 200.5t-10 181.5t-23 168.5t-41.5 145t-64.5 127t-94 98.5t-128 76.5t-167.5 44.5t-211.5 17z" />
    <glyph glyph-name="Odieresis" unicode="&#xd6;" horiz-adv-x="2271" 
d="M916 2605q-48 0 -81.5 34t-33.5 82t33.5 82t81.5 34t82 -34t34 -82t-34 -82t-82 -34zM2021 1165q0 -217 -17.5 -381.5t-58.5 -301t-107.5 -229t-165 -156t-230.5 -92.5t-306 -29t-306 29t-231 92.5t-165.5 156t-107.5 229t-58.5 301t-17.5 381.5t17.5 381.5t58.5 301
t107.5 229t165.5 156t231 92.5t306 29t306 -29t230.5 -92.5t165 -156t107.5 -229t58.5 -301t17.5 -381.5zM393 1165q0 -108 1.5 -180.5t7 -165.5t17 -155.5t30.5 -136.5t48 -123t69 -101.5t95 -85t124 -60t157 -39.5t194 -12q116 0 211.5 17t167.5 44.5t128 77t94 99
t64.5 127t41.5 145t23 168.5t10 181.5t2 199.5q0 120 -2 200.5t-10 181.5t-23 168.5t-41.5 145t-64.5 127t-94 98.5t-128 76.5t-167.5 44.5t-211.5 17q-106 0 -194 -12t-157 -39.5t-124 -59.5t-95 -84.5t-69 -101t-48 -123t-30.5 -137t-17 -155.5t-7 -166t-1.5 -181z
M1356 2605q-48 0 -82 34t-34 82t34 82t82 34t82 -34t34 -82t-34 -82t-82 -34z" />
    <glyph glyph-name="multiply" unicode="&#xd7;" horiz-adv-x="1838" 
d="M1625 1590l-607 -609l611 -609l-101 -103l-611 611l-609 -611l-99 100l610 609l-609 609l101 101l609 -609l608 607z" />
    <glyph glyph-name="Oslash" unicode="&#xd8;" horiz-adv-x="2271" 
d="M557 125l-124 -197l-105 66l137 219q-116 138 -165.5 368.5t-49.5 583.5q0 217 17.5 381.5t58.5 301t107.5 229t165.5 156t231 92.5t306 29q381 0 578 -150l124 199l105 -67l-138 -219q116 -138 166 -369.5t50 -582.5q0 -217 -17.5 -381.5t-58.5 -301t-107.5 -229
t-165 -156t-230.5 -92.5t-306 -29q-382 0 -579 149zM1136 106q116 0 211.5 17t167.5 44.5t128 77t94 99t64.5 127t41.5 145t23 168.5t10 181.5t2 199.5q0 153 -4.5 255t-18.5 216.5t-45.5 202.5t-80.5 156l-1100 -1754q171 -135 507 -135zM541 333l1100 1755
q-172 136 -505 136q-106 0 -194 -12t-157 -39.5t-124 -59.5t-95 -84.5t-69 -101t-48 -123t-30.5 -137t-17 -155.5t-7 -166t-1.5 -181q0 -155 4 -255t18 -216.5t45 -204.5t81 -156z" />
    <glyph glyph-name="Ugrave" unicode="&#xd9;" horiz-adv-x="2229" 
d="M285 736v1594h141v-1620q0 -306 162.5 -455t518.5 -149q360 0 520.5 148.5t160.5 455.5v1620h141v-1594q0 -177 -38.5 -310t-107 -218t-173.5 -137.5t-226 -73.5t-277 -21q-129 0 -233.5 14.5t-199.5 48.5t-164.5 91.5t-121 140.5t-77.5 200t-26 265zM1245 2551h-131
l-381 357h212z" />
    <glyph glyph-name="Uacute" unicode="&#xda;" horiz-adv-x="2229" 
d="M285 736v1594h141v-1620q0 -306 162.5 -455t518.5 -149q360 0 520.5 148.5t160.5 455.5v1620h141v-1594q0 -177 -38.5 -310t-107 -218t-173.5 -137.5t-226 -73.5t-277 -21q-129 0 -233.5 14.5t-199.5 48.5t-164.5 91.5t-121 140.5t-77.5 200t-26 265zM1118 2551h-131
l300 357h212z" />
    <glyph glyph-name="Ucircumflex" unicode="&#xdb;" horiz-adv-x="2229" 
d="M285 736v1594h141v-1620q0 -306 162.5 -455t518.5 -149q360 0 520.5 148.5t160.5 455.5v1620h141v-1594q0 -177 -38.5 -310t-107 -218t-173.5 -137.5t-226 -73.5t-277 -21q-129 0 -233.5 14.5t-199.5 48.5t-164.5 91.5t-121 140.5t-77.5 200t-26 265zM1213 2908l296 -357
h-136l-249 283l-249 -283h-132l289 357h181z" />
    <glyph glyph-name="Udieresis" unicode="&#xdc;" horiz-adv-x="2229" 
d="M285 736v1594h141v-1620q0 -306 162.5 -455t518.5 -149q360 0 520.5 148.5t160.5 455.5v1620h141v-1594q0 -177 -38.5 -310t-107 -218t-173.5 -137.5t-226 -73.5t-277 -21q-129 0 -233.5 14.5t-199.5 48.5t-164.5 91.5t-121 140.5t-77.5 200t-26 265zM887 2613
q-48 0 -81.5 34t-33.5 82t33.5 82t81.5 34t82 -34t34 -82t-34 -82t-82 -34zM1327 2613q-48 0 -82 34t-34 82t34 82t82 34t82 -34t34 -82t-34 -82t-82 -34z" />
    <glyph glyph-name="Yacute" unicode="&#xdd;" horiz-adv-x="1814" 
d="M830 0v910l-739 1420h158l657 -1261l665 1261h152l-749 -1420v-910h-144zM940 2541h-131l300 357h212z" />
    <glyph glyph-name="Thorn" unicode="&#xde;" horiz-adv-x="2006" 
d="M417 2330v-469q267 32 545 32q112 0 203.5 -7t185.5 -25.5t166.5 -49.5t137 -82t106.5 -119t66.5 -164t24.5 -215q0 -164 -42 -284.5t-114.5 -195.5t-185 -120.5t-236 -62t-285.5 -16.5q-165 0 -572 20v-572h-141v2330h141zM974 1763q-264 0 -557 -38v-1017
q264 -26 545 -26q150 0 262 14.5t206.5 51.5t154 99t92 157.5t32.5 226.5q0 191 -72.5 306t-233 170.5t-429.5 55.5z" />
    <glyph glyph-name="germandbls" unicode="&#xdf;" horiz-adv-x="2050" 
d="M1266 107q39 0 60.5 0.5t65 3t70 8t66.5 16.5t65 26.5t54 40t45.5 55.5t27.5 74.5t11 95.5q0 75 -25.5 135t-68.5 100.5t-98.5 74t-117 61t-123.5 55.5t-117.5 64t-98.5 80.5t-68.5 110t-25.5 147.5q0 94 32 164t83 112.5t112.5 77t123 67.5t112.5 73.5t83 106.5t32 155
q0 155 -139.5 253.5t-420.5 98.5q-166 0 -276 -36.5t-183.5 -125t-106 -232t-32.5 -360.5v-1609h-136v1609q0 474 170.5 679t563.5 205q181 0 317.5 -38.5t218.5 -108.5t122 -160t40 -199q0 -75 -20 -136.5t-53 -103.5t-76.5 -77t-91.5 -62t-96 -52t-91.5 -53.5t-76.5 -61.5
t-53 -80.5t-20 -105.5q0 -62 25.5 -111t68.5 -82.5t98.5 -62.5t117.5 -55.5t123.5 -55.5t117 -69t98.5 -89.5t68.5 -123.5t25.5 -165q0 -127 -39 -219t-110 -144.5t-160 -77t-200 -24.5q-197 0 -434 58l13 122q214 -49 327 -49z" />
    <glyph glyph-name="agrave" unicode="&#xe0;" horiz-adv-x="1857" 
d="M1574 1280v-884q0 -135 -5 -287q-300 -133 -705 -133q-185 0 -312 24t-220 82.5t-136.5 159t-43.5 249.5q0 483 424 547q241 36 862 56v138q0 86 -9 147t-32.5 113t-63.5 84.5t-104 56t-151 33t-207 9.5q-209 0 -577 -56l-14 126q196 31 336 45.5t307 14.5
q119 0 210.5 -12.5t177.5 -47t141.5 -92.5t88.5 -152t33 -221zM1438 514v449q-579 -7 -824 -52q-169 -31 -246 -123t-77 -291q0 -95 20.5 -161.5t61.5 -111.5t112 -70.5t161.5 -36t220.5 -10.5q299 0 567 96q4 188 4 311zM707 2492l280 -440h-122l-356 440h198z" />
    <glyph glyph-name="aacute" unicode="&#xe1;" horiz-adv-x="1857" 
d="M1574 1280v-884q0 -135 -5 -287q-300 -133 -705 -133q-185 0 -312 24t-220 82.5t-136.5 159t-43.5 249.5q0 483 424 547q241 36 862 56v138q0 86 -9 147t-32.5 113t-63.5 84.5t-104 56t-151 33t-207 9.5q-209 0 -577 -56l-14 126q196 31 336 45.5t307 14.5
q119 0 210.5 -12.5t177.5 -47t141.5 -92.5t88.5 -152t33 -221zM1438 514v449q-579 -7 -824 -52q-169 -31 -246 -123t-77 -291q0 -95 20.5 -161.5t61.5 -111.5t112 -70.5t161.5 -36t220.5 -10.5q299 0 567 96q4 188 4 311zM1304 2489l-356 -440h-122l280 440h198z" />
    <glyph glyph-name="acircumflex" unicode="&#xe2;" horiz-adv-x="1857" 
d="M1574 1280v-884q0 -135 -5 -287q-300 -133 -705 -133q-185 0 -312 24t-220 82.5t-136.5 159t-43.5 249.5q0 483 424 547q241 36 862 56v138q0 86 -9 147t-32.5 113t-63.5 84.5t-104 56t-151 33t-207 9.5q-209 0 -577 -56l-14 126q196 31 336 45.5t307 14.5
q119 0 210.5 -12.5t177.5 -47t141.5 -92.5t88.5 -152t33 -221zM1438 514v449q-579 -7 -824 -52q-169 -31 -246 -123t-77 -291q0 -95 20.5 -161.5t61.5 -111.5t112 -70.5t161.5 -36t220.5 -10.5q299 0 567 96q4 188 4 311zM907 2388l-233 -349h-123l270 440h169l277 -440
h-127z" />
    <glyph glyph-name="atilde" unicode="&#xe3;" horiz-adv-x="1857" 
d="M1574 1280v-884q0 -135 -5 -287q-300 -133 -705 -133q-185 0 -312 24t-220 82.5t-136.5 159t-43.5 249.5q0 483 424 547q241 36 862 56v138q0 86 -9 147t-32.5 113t-63.5 84.5t-104 56t-151 33t-207 9.5q-209 0 -577 -56l-14 126q196 31 336 45.5t307 14.5
q119 0 210.5 -12.5t177.5 -47t141.5 -92.5t88.5 -152t33 -221zM557 2133q15 133 73 204.5t132 71.5q48 0 87 -16.5t63.5 -39.5t46 -46.5t46.5 -40t54 -16.5q91 0 117 152h108q-15 -133 -73 -204.5t-132 -71.5q-48 0 -87 16.5t-63.5 40t-45.5 46.5t-46 39.5t-54 16.5
q-90 0 -117 -152h-109zM1438 963q-579 -7 -824 -52q-169 -31 -246 -123t-77 -291q0 -95 20.5 -161.5t61.5 -111.5t112 -70.5t161.5 -36t220.5 -10.5q299 0 567 96q4 188 4 311v449z" />
    <glyph glyph-name="adieresis" unicode="&#xe4;" horiz-adv-x="1857" 
d="M1574 1280v-884q0 -135 -5 -287q-300 -133 -705 -133q-185 0 -312 24t-220 82.5t-136.5 159t-43.5 249.5q0 483 424 547q241 36 862 56v138q0 86 -9 147t-32.5 113t-63.5 84.5t-104 56t-151 33t-207 9.5q-209 0 -577 -56l-14 126q196 31 336 45.5t307 14.5
q119 0 210.5 -12.5t177.5 -47t141.5 -92.5t88.5 -152t33 -221zM1438 514v449q-579 -7 -824 -52q-169 -31 -246 -123t-77 -291q0 -95 20.5 -161.5t61.5 -111.5t112 -70.5t161.5 -36t220.5 -10.5q299 0 567 96q4 188 4 311zM822 2254q0 -48 -34 -82t-82 -34t-81.5 34t-33.5 82
t33.5 82t81.5 34t82 -34t34 -82zM1262 2254q0 -48 -34 -82t-82 -34t-82 34t-34 82t34 82t82 34t82 -34t34 -82z" />
    <glyph glyph-name="aring" unicode="&#xe5;" horiz-adv-x="1857" 
d="M1574 1280v-884q0 -135 -5 -287q-300 -133 -705 -133q-185 0 -312 24t-220 82.5t-136.5 159t-43.5 249.5q0 483 424 547q241 36 862 56v138q0 86 -9 147t-32.5 113t-63.5 84.5t-104 56t-151 33t-207 9.5q-209 0 -577 -56l-14 126q196 31 336 45.5t307 14.5
q119 0 210.5 -12.5t177.5 -47t141.5 -92.5t88.5 -152t33 -221zM1438 514v449q-579 -7 -824 -52q-169 -31 -246 -123t-77 -291q0 -95 20.5 -161.5t61.5 -111.5t112 -70.5t161.5 -36t220.5 -10.5q299 0 567 96q4 188 4 311zM913 2620q129 0 220 -91t91 -219q0 -129 -91 -220
t-220 -91q-128 0 -219 91t-91 220q0 128 91 219t219 91zM913 2512q-84 0 -143 -59t-59 -143q0 -85 59 -144t143 -59t143.5 59t59.5 144q0 84 -59.5 143t-143.5 59z" />
    <glyph glyph-name="ae" unicode="&#xe6;" horiz-adv-x="3161" 
d="M294 1619l-14 126q196 31 336 45.5t307 14.5q120 0 213 -13.5t177 -47t142.5 -96t88.5 -153.5q82 160 242.5 235t419.5 75q211 0 360 -52.5t235 -154t124 -234t38 -309.5q0 -100 -5 -197q-151 -24 -417 -48.5t-457 -32.5l-505 -20q9 -95 18.5 -157t30 -137.5t50 -122.5
t79 -96.5t116.5 -76.5t163 -44t219 -17q262 0 621 53l15 -128q-193 -28 -348 -41.5t-381 -13.5q-417 0 -587 276h-2l-4 -143q-300 -133 -705 -133q-185 0 -312 24t-220 82.5t-136.5 159t-43.5 249.5q0 483 424 547q241 36 862 56v138q0 86 -9 147t-32.5 113t-63.5 84.5
t-104 56t-151 33t-207 9.5q-209 0 -577 -56zM1438 514v449q-579 -7 -824 -52q-169 -31 -246 -123t-77 -291q0 -95 20.5 -161.5t61.5 -111.5t112 -70.5t161.5 -36t220.5 -10.5q299 0 567 96q4 188 4 311zM2821 965q4 61 4 158q0 127 -32.5 224.5t-103.5 173t-192.5 115
t-290.5 39.5q-127 0 -221.5 -19t-165 -61t-117 -103t-75 -152.5t-40 -200.5t-11.5 -256l557 26q341 16 688 56z" />
    <glyph glyph-name="ccedilla" unicode="&#xe7;" horiz-adv-x="1441" 
d="M611 -570l35 93q89 -38 178 -38q32 0 60.5 6t56 20t44 41.5t16.5 65.5q0 43 -28.5 77.5t-71.5 53.5t-87 29t-83 10l114 193q-125 11 -223 49.5t-165 102t-113 143t-71.5 184t-36.5 212t-11 239.5q0 131 9 233.5t31.5 198t60.5 165.5t96.5 128t139 94t187.5 55.5t243 19.5
q182 0 358 -42l-12 -113q-145 25 -288 25q-94 0 -171.5 -7t-140 -23t-112.5 -37t-88 -53.5t-66 -67t-47.5 -84.5t-31.5 -98.5t-18.5 -115.5t-9 -130.5t-2.5 -147.5q0 -88 3 -155t11.5 -140.5t23.5 -127.5t41 -110t62 -95t86.5 -74.5t115.5 -56.5t149.5 -33t186.5 -12
q116 0 296 37l15 -123q-89 -16 -133 -23t-117 -14.5t-143 -7.5l-77 -121q111 -5 182.5 -63.5t71.5 -159.5q0 -86 -47 -143.5t-116 -80.5t-157 -23q-121 0 -206 45z" />
    <glyph glyph-name="egrave" unicode="&#xe8;" horiz-adv-x="1947" 
d="M870 777l-505 -20q9 -95 18.5 -157t30 -137.5t50 -122.5t79 -96.5t116.5 -76.5t163 -44t219 -17q262 0 621 53l15 -128q-193 -28 -348 -41.5t-381 -13.5q-168 0 -294.5 45.5t-207.5 124t-131.5 196.5t-70.5 250.5t-20 298.5q0 248 38.5 416.5t129 282t236.5 164.5t364 51
q211 0 360 -52.5t235 -154t124 -234t38 -309.5q0 -100 -5 -197q-151 -24 -417 -48.5t-457 -32.5zM362 883l557 26q341 16 688 56q4 61 4 158q0 127 -32.5 224.5t-103.5 173t-192.5 115t-290.5 39.5q-127 0 -221.5 -19t-165 -61t-117 -103t-75 -152.5t-40 -200.5t-11.5 -256z
M860 2492l280 -440h-122l-356 440h198z" />
    <glyph glyph-name="eacute" unicode="&#xe9;" horiz-adv-x="1947" 
d="M870 777l-505 -20q9 -95 18.5 -157t30 -137.5t50 -122.5t79 -96.5t116.5 -76.5t163 -44t219 -17q262 0 621 53l15 -128q-193 -28 -348 -41.5t-381 -13.5q-168 0 -294.5 45.5t-207.5 124t-131.5 196.5t-70.5 250.5t-20 298.5q0 248 38.5 416.5t129 282t236.5 164.5t364 51
q211 0 360 -52.5t235 -154t124 -234t38 -309.5q0 -100 -5 -197q-151 -24 -417 -48.5t-457 -32.5zM362 883l557 26q341 16 688 56q4 61 4 158q0 127 -32.5 224.5t-103.5 173t-192.5 115t-290.5 39.5q-127 0 -221.5 -19t-165 -61t-117 -103t-75 -152.5t-40 -200.5t-11.5 -256z
M1414 2484l-356 -440h-122l280 440h198z" />
    <glyph glyph-name="ecircumflex" unicode="&#xea;" horiz-adv-x="1947" 
d="M870 777l-505 -20q9 -95 18.5 -157t30 -137.5t50 -122.5t79 -96.5t116.5 -76.5t163 -44t219 -17q262 0 621 53l15 -128q-193 -28 -348 -41.5t-381 -13.5q-168 0 -294.5 45.5t-207.5 124t-131.5 196.5t-70.5 250.5t-20 298.5q0 248 38.5 416.5t129 282t236.5 164.5t364 51
q211 0 360 -52.5t235 -154t124 -234t38 -309.5q0 -100 -5 -197q-151 -24 -417 -48.5t-457 -32.5zM362 883l557 26q341 16 688 56q4 61 4 158q0 127 -32.5 224.5t-103.5 173t-192.5 115t-290.5 39.5q-127 0 -221.5 -19t-165 -61t-117 -103t-75 -152.5t-40 -200.5t-11.5 -256z
M1017 2388l-233 -349h-123l270 440h169l277 -440h-127z" />
    <glyph glyph-name="edieresis" unicode="&#xeb;" horiz-adv-x="1947" 
d="M870 777l-505 -20q9 -95 18.5 -157t30 -137.5t50 -122.5t79 -96.5t116.5 -76.5t163 -44t219 -17q262 0 621 53l15 -128q-193 -28 -348 -41.5t-381 -13.5q-168 0 -294.5 45.5t-207.5 124t-131.5 196.5t-70.5 250.5t-20 298.5q0 248 38.5 416.5t129 282t236.5 164.5t364 51
q211 0 360 -52.5t235 -154t124 -234t38 -309.5q0 -100 -5 -197q-151 -24 -417 -48.5t-457 -32.5zM931 2254q0 -48 -34 -82t-82 -34t-81.5 34t-33.5 82t33.5 82t81.5 34t82 -34t34 -82zM362 883l557 26q341 16 688 56q4 61 4 158q0 127 -32.5 224.5t-103.5 173t-192.5 115
t-290.5 39.5q-127 0 -221.5 -19t-165 -61t-117 -103t-75 -152.5t-40 -200.5t-11.5 -256zM1371 2254q0 -48 -34 -82t-82 -34t-82 34t-34 82t34 82t82 34t82 -34t34 -82z" />
    <glyph glyph-name="igrave" unicode="&#xec;" horiz-adv-x="652" 
d="M380 2075h-122l-356 440h198zM394 1781v-1781h-136v1781h136z" />
    <glyph glyph-name="iacute" unicode="&#xed;" horiz-adv-x="652" 
d="M394 1781v-1781h-136v1781h136zM394 2075h-122l280 440h198z" />
    <glyph glyph-name="icircumflex" unicode="&#xee;" horiz-adv-x="652" 
d="M408 2525l277 -440h-127l-233 349l-233 -349h-123l270 440h169zM394 1781v-1781h-136v1781h136z" />
    <glyph glyph-name="idieresis" unicode="&#xef;" horiz-adv-x="652" 
d="M106 2153q-48 0 -81.5 34t-33.5 82t33.5 82t81.5 34t82 -34t34 -82t-34 -82t-82 -34zM546 2153q-48 0 -82 34t-34 82t34 82t82 34t82 -34t34 -82t-34 -82t-82 -34zM394 1781v-1781h-136v1781h136z" />
    <glyph glyph-name="eth" unicode="&#xf0;" horiz-adv-x="1979" 
d="M1367 2235l280 102l58 -98l-279 -102q153 -273 231.5 -602.5t78.5 -663.5q0 -244 -40.5 -410.5t-133 -276t-238.5 -159t-361 -49.5q-216 0 -361 47.5t-238 156t-133.5 275.5t-40.5 416q0 248 40.5 415.5t133.5 275.5t238 155.5t361 47.5q351 0 524 -135l2 1
q-72 244 -191 460l-290 -106l-56 99l288 105q-86 140 -194 264l120 40q113 -119 201 -258zM328 871q0 -153 14.5 -267.5t47.5 -200.5t81.5 -142.5t121.5 -91t161.5 -49t208.5 -14.5q181 0 299 37t195 127.5t109 234.5t32 366q0 220 -31.5 363t-107.5 234.5t-194.5 129
t-301.5 37.5q-144 0 -244.5 -22t-178 -73t-123 -140t-67.5 -217.5t-22 -311.5z" />
    <glyph glyph-name="ntilde" unicode="&#xf1;" horiz-adv-x="2018" 
d="M1599 0v1122q0 87 -5.5 150t-20 124t-41.5 102.5t-70 77t-104.5 56t-145 32t-192.5 11.5q-132 0 -318 -32.5t-287 -74.5q-4 -188 -4 -311v-1257h-136v1375q0 135 5 287q162 63 373.5 103t430.5 40q124 0 222 -17.5t166 -46t116.5 -76t76.5 -97t44 -120t21 -133t5 -147.5
v-1168h-136zM765 2143h-109q15 133 73 204.5t132 71.5q48 0 87 -16.5t63.5 -39.5t46 -46.5t46.5 -40t54 -16.5q91 0 117 152h108q-15 -133 -73 -204.5t-132 -71.5q-48 0 -87 16.5t-63.5 40t-45.5 46.5t-46 39.5t-54 16.5q-90 0 -117 -152z" />
    <glyph glyph-name="ograve" unicode="&#xf2;" horiz-adv-x="2015" 
d="M1781 891q0 -249 -40.5 -419t-133 -282.5t-238.5 -163t-361 -50.5q-216 0 -361 48.5t-238 159.5t-133.5 282t-40.5 425t40.5 424.5t133.5 281.5t238 159.5t361 48.5q215 0 360.5 -49.5t238.5 -161.5t133.5 -282t40.5 -421zM373 891q0 -188 22 -320t67.5 -223.5t123 -144
t178 -75t244.5 -22.5q145 0 248 25t179 79.5t121 147.5t66 222t21 311t-20.5 310.5t-65 222t-120 147.5t-179.5 79t-250 25q-120 0 -208.5 -14.5t-161.5 -50.5t-121.5 -93.5t-81.5 -146t-47.5 -205.5t-14.5 -274zM1139 2052h-122l-356 440h198z" />
    <glyph glyph-name="oacute" unicode="&#xf3;" horiz-adv-x="2015" 
d="M1781 891q0 -249 -40.5 -419t-133 -282.5t-238.5 -163t-361 -50.5q-216 0 -361 48.5t-238 159.5t-133.5 282t-40.5 425t40.5 424.5t133.5 281.5t238 159.5t361 48.5q215 0 360.5 -49.5t238.5 -161.5t133.5 -282t40.5 -421zM373 891q0 -188 22 -320t67.5 -223.5t123 -144
t178 -75t244.5 -22.5q145 0 248 25t179 79.5t121 147.5t66 222t21 311t-20.5 310.5t-65 222t-120 147.5t-179.5 79t-250 25q-120 0 -208.5 -14.5t-161.5 -50.5t-121.5 -93.5t-81.5 -146t-47.5 -205.5t-14.5 -274zM1014 2066h-122l280 440h198z" />
    <glyph glyph-name="ocircumflex" unicode="&#xf4;" horiz-adv-x="2015" 
d="M1781 891q0 -249 -40.5 -419t-133 -282.5t-238.5 -163t-361 -50.5q-216 0 -361 48.5t-238 159.5t-133.5 282t-40.5 425t40.5 424.5t133.5 281.5t238 159.5t361 48.5q215 0 360.5 -49.5t238.5 -161.5t133.5 -282t40.5 -421zM373 891q0 -188 22 -320t67.5 -223.5t123 -144
t178 -75t244.5 -22.5q145 0 248 25t179 79.5t121 147.5t66 222t21 311t-20.5 310.5t-65 222t-120 147.5t-179.5 79t-250 25q-120 0 -208.5 -14.5t-161.5 -50.5t-121.5 -93.5t-81.5 -146t-47.5 -205.5t-14.5 -274zM1088 2489l277 -440h-127l-233 349l-233 -349h-123l270 440
h169z" />
    <glyph glyph-name="otilde" unicode="&#xf5;" horiz-adv-x="2015" 
d="M753 2123h-109q15 133 73 204.5t132 71.5q48 0 87 -16.5t63.5 -39.5t46 -46.5t46.5 -40t54 -16.5q91 0 117 152h108q-15 -133 -73 -204.5t-132 -71.5q-48 0 -87 16.5t-63.5 40t-45.5 46.5t-46 39.5t-54 16.5q-90 0 -117 -152zM1008 1805q215 0 360.5 -49.5t238.5 -161.5
t133.5 -282t40.5 -421q0 -249 -40.5 -419t-133 -282.5t-238.5 -163t-361 -50.5q-216 0 -361 48.5t-238 159.5t-133.5 282t-40.5 425t40.5 424.5t133.5 281.5t238 159.5t361 48.5zM1008 1675q-120 0 -208.5 -14.5t-161.5 -50.5t-121.5 -93.5t-81.5 -146t-47.5 -205.5
t-14.5 -274q0 -188 22 -320t67.5 -223.5t123 -144t178 -75t244.5 -22.5q145 0 248 25t179 79.5t121 147.5t66 222t21 311t-20.5 310.5t-65 222t-120 147.5t-179.5 79t-250 25z" />
    <glyph glyph-name="odieresis" unicode="&#xf6;" horiz-adv-x="2015" 
d="M787 2138q-48 0 -81.5 34t-33.5 82t33.5 82t81.5 34t82 -34t34 -82t-34 -82t-82 -34zM1781 891q0 -249 -40.5 -419t-133 -282.5t-238.5 -163t-361 -50.5q-216 0 -361 48.5t-238 159.5t-133.5 282t-40.5 425t40.5 424.5t133.5 281.5t238 159.5t361 48.5q215 0 360.5 -49.5
t238.5 -161.5t133.5 -282t40.5 -421zM373 891q0 -188 22 -320t67.5 -223.5t123 -144t178 -75t244.5 -22.5q145 0 248 25t179 79.5t121 147.5t66 222t21 311t-20.5 310.5t-65 222t-120 147.5t-179.5 79t-250 25q-120 0 -208.5 -14.5t-161.5 -50.5t-121.5 -93.5t-81.5 -146
t-47.5 -205.5t-14.5 -274zM1227 2138q-48 0 -82 34t-34 82t34 82t82 34t82 -34t34 -82t-34 -82t-82 -34z" />
    <glyph glyph-name="divide" unicode="&#xf7;" horiz-adv-x="1956" 
d="M979 132q-58 0 -99 41t-41 99t41 99t99 41t99 -41t41 -99t-41 -99t-99 -41zM979 1546q-58 0 -99 41t-41 99t41 98.5t99 40.5t99 -40.5t41 -98.5t-41 -99t-99 -41zM182 913v132h1593v-132h-1593z" />
    <glyph glyph-name="oslash" unicode="&#xf8;" horiz-adv-x="2015" 
d="M1493 1695l122 176l96 -68l-127 -183q103 -107 150 -285.5t47 -443.5q0 -249 -40.5 -419t-133 -282.5t-238.5 -163t-361 -50.5q-315 0 -486 108l-121 -175l-96 69l125 181q-102 106 -148.5 284.5t-46.5 447.5q0 254 40.5 424.5t133.5 281.5t238 159.5t361 48.5
q310 0 485 -110zM1008 106q145 0 248 25t179 79.5t121 147.5t66 222t21 311q0 227 -32.5 376t-105.5 238l-907 -1311q136 -88 410 -88zM510 274l907 1311q-140 90 -409 90q-120 0 -208.5 -14.5t-161.5 -50.5t-121.5 -93.5t-81.5 -146t-47.5 -205.5t-14.5 -274
q0 -229 33 -378.5t104 -238.5z" />
    <glyph glyph-name="ugrave" unicode="&#xf9;" horiz-adv-x="2012" 
d="M1723 1781v-1375q0 -135 -5 -287q-162 -63 -371.5 -103t-426.5 -40q-124 0 -222 17.5t-166 46t-116.5 76t-76.5 97t-44 120t-21 133t-5 147.5v1168h136v-1122q0 -87 5.5 -150t20 -124t41.5 -102.5t70 -77t104.5 -56t145 -32t192.5 -11.5q130 0 314 32.5t285 74.5
q4 188 4 311v1257h136zM1098 2075h-122l-356 440h198z" />
    <glyph glyph-name="uacute" unicode="&#xfa;" horiz-adv-x="2012" 
d="M1723 1781v-1375q0 -135 -5 -287q-162 -63 -371.5 -103t-426.5 -40q-124 0 -222 17.5t-166 46t-116.5 76t-76.5 97t-44 120t-21 133t-5 147.5v1168h136v-1122q0 -87 5.5 -150t20 -124t41.5 -102.5t70 -77t104.5 -56t145 -32t192.5 -11.5q130 0 314 32.5t285 74.5
q4 188 4 311v1257h136zM1025 2095h-122l280 440h198z" />
    <glyph glyph-name="ucircumflex" unicode="&#xfb;" horiz-adv-x="2012" 
d="M1723 1781v-1375q0 -135 -5 -287q-162 -63 -371.5 -103t-426.5 -40q-124 0 -222 17.5t-166 46t-116.5 76t-76.5 97t-44 120t-21 133t-5 147.5v1168h136v-1122q0 -87 5.5 -150t20 -124t41.5 -102.5t70 -77t104.5 -56t145 -32t192.5 -11.5q130 0 314 32.5t285 74.5
q4 188 4 311v1257h136zM1078 2545l277 -440h-127l-233 349l-233 -349h-123l270 440h169z" />
    <glyph glyph-name="udieresis" unicode="&#xfc;" horiz-adv-x="2012" 
d="M1723 1781v-1375q0 -135 -5 -287q-162 -63 -371.5 -103t-426.5 -40q-124 0 -222 17.5t-166 46t-116.5 76t-76.5 97t-44 120t-21 133t-5 147.5v1168h136v-1122q0 -87 5.5 -150t20 -124t41.5 -102.5t70 -77t104.5 -56t145 -32t192.5 -11.5q130 0 314 32.5t285 74.5
q4 188 4 311v1257h136zM775 2174q-48 0 -81.5 34t-33.5 82t33.5 82t81.5 34t82 -34t34 -82t-34 -82t-82 -34zM1215 2174q-48 0 -82 34t-34 82t34 82t82 34t82 -34t34 -82t-34 -82t-82 -34z" />
    <glyph glyph-name="yacute" unicode="&#xfd;" horiz-adv-x="1664" 
d="M261 1781l635 -1453l500 1453h138l-829 -2437h-139l267 785l-722 1652h150zM885 2055h-122l280 440h198z" />
    <glyph glyph-name="thorn" unicode="&#xfe;" horiz-adv-x="1916" 
d="M407 2330v-605q304 80 572 80q266 0 422 -88t229 -286.5t73 -539.5q0 -256 -39 -429t-127.5 -282t-223 -156.5t-334.5 -47.5q-268 0 -572 80v-712h-136v2986h136zM910 1675q-121 0 -260 -24.5t-243 -59.5v-1401q104 -35 243 -59.5t260 -24.5q130 0 225.5 15.5t170.5 53.5
t123 95.5t79 147.5t44 203.5t13 269.5t-13 269.5t-44 203t-79 147.5t-123 95.5t-170.5 53t-225.5 15.5z" />
    <glyph glyph-name="ydieresis" unicode="&#xff;" horiz-adv-x="1664" 
d="M637 2144q-48 0 -81.5 34t-33.5 82t33.5 82t81.5 34t82 -34t34 -82t-34 -82t-82 -34zM1077 2144q-48 0 -82 34t-34 82t34 82t82 34t82 -34t34 -82t-34 -82t-82 -34zM261 1781l635 -1453l500 1453h138l-829 -2437h-139l267 785l-722 1652h150z" />
    <glyph glyph-name="Abreve" unicode="&#x102;" horiz-adv-x="2170" 
d="M714 2896h107q15 -89 82 -147.5t179 -58.5t179 58.5t82 147.5h109q-17 -139 -108.5 -225t-261.5 -86q-169 0 -260 86t-108 225zM112 0l884 2258q20 50 40.5 73t52.5 23t54 -23.5t41 -72.5l874 -2258h-151l-275 709h-1099l-277 -709h-144zM1583 835l-497 1285l-503 -1285
h1000z" />
    <glyph glyph-name="abreve" unicode="&#x103;" horiz-adv-x="1857" 
d="M1574 1280v-884q0 -135 -5 -287q-300 -133 -705 -133q-185 0 -312 24t-220 82.5t-136.5 159t-43.5 249.5q0 483 424 547q241 36 862 56v138q0 86 -9 147t-32.5 113t-63.5 84.5t-104 56t-151 33t-207 9.5q-209 0 -577 -56l-14 126q196 31 336 45.5t307 14.5
q119 0 210.5 -12.5t177.5 -47t141.5 -92.5t88.5 -152t33 -221zM1438 514v449q-579 -7 -824 -52q-169 -31 -246 -123t-77 -291q0 -95 20.5 -161.5t61.5 -111.5t112 -70.5t161.5 -36t220.5 -10.5q299 0 567 96q4 188 4 311zM1206 2431h109q-17 -160 -108.5 -259t-261.5 -99
q-169 0 -260 98.5t-108 259.5h107q15 -102 82 -169.5t179 -67.5t179 67.5t82 169.5z" />
    <glyph glyph-name="Aogonek" unicode="&#x104;" horiz-adv-x="2170" 
d="M2189 -461l34 -86q-47 -35 -110 -54.5t-121 -19.5q-115 0 -189 66.5t-74 180.5q0 101 59 200t140 174h-21l-275 709h-1099l-277 -709h-144l884 2258q20 50 40.5 73t52.5 23t54 -23.5t41 -72.5l874 -2258h-33q-160 -172 -160 -310q0 -83 49 -132.5t132 -49.5q79 0 143 31z
M583 835h1000l-497 1285z" />
    <glyph glyph-name="aogonek" unicode="&#x105;" horiz-adv-x="1857" 
d="M1478 -394l34 -86q-47 -35 -110 -54.5t-121 -19.5q-115 0 -189 66.5t-74 180.5q0 145 131 301q-139 -18 -285 -18q-185 0 -312 24t-220 82.5t-136.5 159t-43.5 249.5q0 483 424 547q241 36 862 56v138q0 86 -9 147t-32.5 113t-63.5 84.5t-104 56t-151 33t-207 9.5
q-209 0 -577 -56l-14 126q196 31 336 45.5t307 14.5q119 0 210.5 -12.5t177.5 -47t141.5 -92.5t88.5 -152t33 -221v-884q0 -135 -5 -287q-142 -63 -301 -95q-114 -142 -114 -257q0 -83 49 -132.5t132 -49.5q79 0 143 31zM1438 514v449q-579 -7 -824 -52q-169 -31 -246 -123
t-77 -291q0 -95 20.5 -161.5t61.5 -111.5t112 -70.5t161.5 -36t220.5 -10.5q299 0 567 96q4 188 4 311z" />
    <glyph glyph-name="Cacute" unicode="&#x106;" horiz-adv-x="1693" 
d="M1645 2313l-15 -124q-254 36 -368 36q-168 0 -296 -21.5t-222 -59.5t-159 -107t-105.5 -147t-62.5 -196.5t-30 -238.5t-8 -290q0 -116 4 -208t14.5 -183t28 -161.5t44.5 -137t64 -115.5t87 -92.5t113.5 -72.5t142.5 -50t174.5 -30.5t210.5 -9.5q114 0 369 35l14 -119
q-251 -45 -490 -45q-159 0 -284.5 23t-222 67.5t-166.5 117.5t-117.5 165t-76 219t-40.5 270t-12 327t12 327t40.5 270t76 219t118 165t167 117.5t221.5 67.5t284 23q252 0 490 -41zM1447 2923l-381 -357h-131l300 357h212z" />
    <glyph glyph-name="cacute" unicode="&#x107;" horiz-adv-x="1441" 
d="M1350 1763l-12 -113q-145 25 -288 25q-94 0 -171.5 -7t-140 -23t-112.5 -37t-88 -53.5t-66 -67t-47.5 -84.5t-31.5 -98.5t-18.5 -115.5t-9 -130.5t-2.5 -147.5q0 -88 3 -155t11.5 -140.5t23.5 -127.5t41 -110t62 -95t86.5 -74.5t115.5 -56.5t149.5 -33t186.5 -12
q116 0 296 37l15 -123q-87 -16 -134 -23.5t-120 -14.5t-145 -7q-127 0 -230.5 24.5t-178.5 67.5t-131.5 109t-92 142t-57.5 174t-30.5 198t-8.5 220q0 131 9 233.5t31.5 198t60.5 165.5t96.5 128t139 94t187.5 55.5t243 19.5q182 0 358 -42zM1212 2489l-356 -440h-122
l280 440h198z" />
    <glyph glyph-name="Ccaron" unicode="&#x10c;" horiz-adv-x="1693" 
d="M1645 2313l-15 -124q-254 36 -368 36q-168 0 -296 -21.5t-222 -59.5t-159 -107t-105.5 -147t-62.5 -196.5t-30 -238.5t-8 -290q0 -116 4 -208t14.5 -183t28 -161.5t44.5 -137t64 -115.5t87 -92.5t113.5 -72.5t142.5 -50t174.5 -30.5t210.5 -9.5q114 0 369 35l14 -119
q-251 -45 -490 -45q-159 0 -284.5 23t-222 67.5t-166.5 117.5t-117.5 165t-76 219t-40.5 270t-12 327t12 327t40.5 270t76 219t118 165t167 117.5t221.5 67.5t284 23q252 0 490 -41zM955 2566l-297 357h136l249 -283l250 283h131l-289 -357h-180z" />
    <glyph glyph-name="ccaron" unicode="&#x10d;" horiz-adv-x="1441" 
d="M1350 1763l-12 -113q-145 25 -288 25q-94 0 -171.5 -7t-140 -23t-112.5 -37t-88 -53.5t-66 -67t-47.5 -84.5t-31.5 -98.5t-18.5 -115.5t-9 -130.5t-2.5 -147.5q0 -88 3 -155t11.5 -140.5t23.5 -127.5t41 -110t62 -95t86.5 -74.5t115.5 -56.5t149.5 -33t186.5 -12
q116 0 296 37l15 -123q-87 -16 -134 -23.5t-120 -14.5t-145 -7q-127 0 -230.5 24.5t-178.5 67.5t-131.5 109t-92 142t-57.5 174t-30.5 198t-8.5 220q0 131 9 233.5t31.5 198t60.5 165.5t96.5 128t139 94t187.5 55.5t243 19.5q182 0 358 -42zM781 2052l-277 440h127l233 -349
l233 349h123l-270 -440h-169z" />
    <glyph glyph-name="Dcaron" unicode="&#x10e;" horiz-adv-x="2238" 
d="M296 26v2282q319 46 681 46q128 0 235.5 -11.5t196.5 -36.5t161 -59t128.5 -84t99.5 -106.5t74 -131t51.5 -154t33 -179t17.5 -201.5t5 -226t-5 -226t-17.5 -201.5t-33 -179t-51.5 -154t-74 -131t-99.5 -106.5t-128.5 -84t-161 -59t-196.5 -36.5t-235.5 -11.5
q-345 0 -681 50zM436 2190v-2047q286 -38 470 -38q508 0 721 194q146 133 187 393q22 142 22 450v23q0 310 -18 445q-36 265 -171 403q-195 197 -666 211l-75 1q-163 0 -470 -35zM961 2569l-297 357h136l249 -283l250 283h131l-289 -357h-180z" />
    <glyph glyph-name="dcaron" unicode="&#x10f;" horiz-adv-x="1917" 
d="M1629 2469v-2073q0 -135 -5 -287q-269 -133 -645 -133q-169 0 -293.5 29t-219.5 94t-153 172t-87 259.5t-29 360.5q0 341 73 539.5t229 286.5t422 88q268 0 572 -80v744h136zM1493 1591q-104 35 -243 59.5t-260 24.5q-130 0 -225.5 -15.5t-170.5 -53t-123 -95.5
t-79 -147.5t-44 -203t-13 -269.5q0 -179 23.5 -310t71.5 -223t126 -147t180.5 -80t242.5 -25q125 0 262 24.5t248 72.5q4 188 4 311v1077zM1843 1757l202 712h148l-244 -712h-106z" />
    <glyph glyph-name="Dcroat" unicode="&#x110;" horiz-adv-x="2346" 
d="M404 1264v1044q319 46 681 46q128 0 235.5 -11.5t196.5 -36.5t161 -59t128.5 -84t99.5 -106.5t74 -131t51.5 -154t33 -179t17.5 -201.5t5 -226t-5 -226t-17.5 -201.5t-33 -179t-51.5 -154t-74 -131t-99.5 -106.5t-128.5 -84t-161 -59t-196.5 -36.5t-235.5 -11.5
q-345 0 -681 50v1120h-214v118h214zM939 1264v-118h-395v-1003q286 -38 470 -38q508 0 721 194q146 133 187 393q22 142 22 450v23q0 310 -18 445q-36 265 -171 403q-195 197 -666 211q-36 1 -75 1q-163 0 -470 -35v-926h395z" />
    <glyph glyph-name="dcroat" unicode="&#x111;" horiz-adv-x="1917" 
d="M1886 2171v-112h-257v-1663q0 -135 -5 -287q-269 -133 -645 -133q-169 0 -293.5 29t-219.5 94t-153 172t-87 259.5t-29 360.5q0 341 73 539.5t229 286.5t422 88q268 0 572 -80v334h-371v112h371v298h136v-298h257zM1493 1591q-104 35 -243 59.5t-260 24.5
q-130 0 -225.5 -15.5t-170.5 -53t-123 -95.5t-79 -147.5t-44 -203t-13 -269.5q0 -179 23.5 -310t71.5 -223t126 -147t180.5 -80t242.5 -25q125 0 262 24.5t248 72.5q4 188 4 311v1077z" />
    <glyph glyph-name="Eogonek" unicode="&#x118;" horiz-adv-x="1747" 
d="M1572 2324v-118h-551q-133 0 -221.5 -8t-158 -31t-108 -56.5t-63.5 -95t-33 -135t-8 -185.5v-444h1093v-126h-1093v-494q0 -112 8 -185.5t33 -134t63.5 -93.5t108 -56t158 -30.5t221.5 -7.5h551v-122q-110 -5 -207 -6q-156 -170 -156 -306q0 -83 49 -132.5t132 -49.5
q79 0 143 31l34 -86q-47 -35 -110 -54.5t-121 -19.5q-115 0 -189 66.5t-74 180.5q0 99 57 196.5t137 172.5q-77 -1 -236 -1q-86 0 -142.5 2t-133.5 8t-127.5 20.5t-109.5 37t-96 59t-70 86t-48.5 118.5t-15.5 155v1366q0 77 13.5 140t35.5 110.5t59.5 84.5t75 62t93.5 42.5
t103.5 27.5t115.5 15t120.5 6.5t126.5 1.5q231 0 541 -12z" />
    <glyph glyph-name="eogonek" unicode="&#x119;" horiz-adv-x="1947" 
d="M1662 159l15 -128q-231 -34 -400 -45q-138 -159 -138 -286q0 -83 49 -132.5t132 -49.5q79 0 143 31l34 -86q-47 -35 -110 -54.5t-121 -19.5q-115 0 -189 66.5t-74 180.5q0 91 48.5 180.5t120.5 163.5q-134 -4 -224 -4q-168 0 -294.5 45.5t-207.5 124t-131.5 196.5
t-70.5 250.5t-20 298.5q0 248 38.5 416.5t129 282t236.5 164.5t364 51q211 0 360 -52.5t235 -154t124 -234t38 -309.5q0 -100 -5 -197q-151 -24 -417 -48.5t-457 -32.5l-505 -20q9 -95 18.5 -157t30 -137.5t50 -122.5t79 -96.5t116.5 -76.5t163 -44t219 -17q262 0 621 53z
M992 1675q-127 0 -221.5 -19t-165 -61t-117 -103t-75 -152.5t-40 -200.5t-11.5 -256l557 26q341 16 688 56q4 61 4 158q0 127 -32.5 224.5t-103.5 173t-192.5 115t-290.5 39.5z" />
    <glyph glyph-name="Ecaron" unicode="&#x11a;" horiz-adv-x="1747" 
d="M288 480v1366q0 77 13.5 140t35.5 110.5t59.5 84.5t75 62t93.5 42.5t103.5 27.5t115.5 15t120.5 6.5t126.5 1.5q231 0 541 -12v-118h-551q-133 0 -221.5 -8t-158 -31t-108 -56.5t-63.5 -95t-33 -135t-8 -185.5v-444h1093v-126h-1093v-494q0 -112 8 -185.5t33 -134
t63.5 -93.5t108 -56t158 -30.5t221.5 -7.5h551v-122q-196 -8 -541 -8q-86 0 -142.5 2t-133.5 8t-127.5 20.5t-109.5 37t-96 59t-70 86t-48.5 118.5t-15.5 155zM1055 2560h-180l-297 357h136l249 -283l250 283h131z" />
    <glyph glyph-name="ecaron" unicode="&#x11b;" horiz-adv-x="1947" 
d="M870 777l-505 -20q9 -95 18.5 -157t30 -137.5t50 -122.5t79 -96.5t116.5 -76.5t163 -44t219 -17q262 0 621 53l15 -128q-193 -28 -348 -41.5t-381 -13.5q-168 0 -294.5 45.5t-207.5 124t-131.5 196.5t-70.5 250.5t-20 298.5q0 248 38.5 416.5t129 282t236.5 164.5t364 51
q211 0 360 -52.5t235 -154t124 -234t38 -309.5q0 -100 -5 -197q-151 -24 -417 -48.5t-457 -32.5zM362 883l557 26q341 16 688 56q4 61 4 158q0 127 -32.5 224.5t-103.5 173t-192.5 115t-290.5 39.5q-127 0 -221.5 -19t-165 -61t-117 -103t-75 -152.5t-40 -200.5t-11.5 -256z
M904 2042l-277 440h127l233 -349l233 349h123l-270 -440h-169z" />
    <glyph glyph-name="Gbreve" unicode="&#x11e;" horiz-adv-x="2109" 
d="M1812 2309l-14 -126q-320 40 -530 40q-147 0 -263 -14.5t-205.5 -48t-155 -77.5t-112 -114t-75 -145t-44.5 -184t-22 -217.5t-6 -257.5q0 -168 8 -288.5t30.5 -238t63.5 -196.5t106 -147.5t159 -107.5t221.5 -60.5t294.5 -21.5q76 0 138 5.5t108.5 14.5t83 25t61.5 32
t42 41t27 47.5t15 55.5t6.5 60t1.5 67v601h-443v126h584v-851q0 -54 -12 -99t-31.5 -79t-53.5 -60.5t-69 -45t-87.5 -31.5t-100.5 -20t-116 -11.5t-125 -5.5t-136 -1q-159 0 -284 23t-221.5 67.5t-166.5 117.5t-118 165t-76.5 219t-40.5 270t-12 327q0 186 12 330t40.5 271
t76.5 219t118 164t167 116t221.5 66.5t283.5 22.5q365 0 651 -45zM755 2891h107q15 -89 82 -147.5t179 -58.5t179 58.5t82 147.5h109q-17 -139 -108.5 -225t-261.5 -86q-169 0 -260 86t-108 225z" />
    <glyph glyph-name="gbreve" unicode="&#x11f;" horiz-adv-x="1923" 
d="M1497 -107v203q-304 -80 -572 -80q-200 0 -334.5 45t-223 151.5t-127.5 275.5t-39 422q0 169 19.5 299.5t61 230.5t103.5 169t150.5 113t198 63.5t249.5 19.5q376 0 645 -133q5 -152 5 -287v-1540q0 -127 -33 -221t-88.5 -152t-141.5 -92.5t-177.5 -47t-210.5 -12.5
q-167 0 -307 14.5t-336 45.5l14 126q368 -56 577 -56q120 0 207 9.5t151 33t104 56t63.5 84.5t32.5 113t9 147zM1497 230v1037q0 123 -4 311q-111 48 -248 72.5t-262 24.5q-175 0 -293.5 -38.5t-198.5 -129t-116 -236t-36 -361.5q0 -183 20 -308.5t63.5 -216.5t121.5 -142
t185.5 -74t264.5 -23q121 0 260 24.5t243 59.5zM1230 2431h109q-17 -160 -108.5 -259t-261.5 -99q-169 0 -260 98.5t-108 259.5h107q15 -102 82 -169.5t179 -67.5t179 67.5t82 169.5z" />
    <glyph glyph-name="Idotaccent" unicode="&#x130;" horiz-adv-x="740" 
d="M250 2737q0 50 35.5 85.5t85.5 35.5t85.5 -35.5t35.5 -85.5t-35.5 -85.5t-85.5 -35.5t-85.5 35.5t-35.5 85.5zM441 0h-141v2330h141v-2330z" />
    <glyph glyph-name="dotlessi" unicode="&#x131;" horiz-adv-x="652" 
d="M394 1781v-1781h-136v1781h136z" />
    <glyph glyph-name="Lacute" unicode="&#x139;" horiz-adv-x="1589" 
d="M1532 124v-124q-186 -6 -388 -6h-109q-86 0 -142.5 2t-133.5 8t-127.5 20.5t-109.5 37t-96 59t-70 86t-48.5 118.5t-15.5 155v1850h141v-1699q0 -111 8 -184t33 -133.5t64 -94t108.5 -56.5t158 -31t221.5 -8h506zM814 2925l-381 -357h-131l300 357h212z" />
    <glyph glyph-name="lacute" unicode="&#x13a;" horiz-adv-x="677" 
d="M248 461v2008h136v-1991q0 -303 153 -490l-109 -67q-91 103 -135.5 231.5t-44.5 308.5zM765 3011l-381 -357h-131l300 357h212z" />
    <glyph glyph-name="Lcaron" unicode="&#x13d;" horiz-adv-x="1589" 
d="M1532 124v-124q-186 -6 -388 -6h-109q-86 0 -142.5 2t-133.5 8t-127.5 20.5t-109.5 37t-96 59t-70 86t-48.5 118.5t-15.5 155v1850h141v-1699q0 -111 8 -184t33 -133.5t64 -94t108.5 -56.5t158 -31t221.5 -8h506zM686 1618l202 712h148l-244 -712h-106z" />
    <glyph glyph-name="lcaron" unicode="&#x13e;" horiz-adv-x="677" 
d="M248 461v2008h136v-1991q0 -303 153 -490l-109 -67q-91 103 -135.5 231.5t-44.5 308.5zM598 1757l202 712h148l-244 -712h-106z" />
    <glyph glyph-name="Lslash" unicode="&#x141;" horiz-adv-x="1734" 
d="M437 2330h141v-1085l489 370v-153l-489 -369v-462q0 -111 8 -184t33 -133.5t64 -94t108.5 -56.5t158 -31t221.5 -8h506v-124q-186 -6 -388 -6h-109q-86 0 -142.5 2t-133.5 8t-127.5 20.5t-109.5 37t-96 59t-70 86t-48.5 118.5t-15.5 155v507l-275 -207v150l275 208v1192z
" />
    <glyph glyph-name="lslash" unicode="&#x142;" horiz-adv-x="681" 
d="M251 1284v1185h136v-1062l237 214v-157l-237 -212v-774q0 -303 153 -490l-109 -67q-91 103 -135.5 231.5t-44.5 308.5v669l-237 -212v153z" />
    <glyph glyph-name="Nacute" unicode="&#x143;" horiz-adv-x="2340" 
d="M1825 72l-1384 2047v-2119h-138v2258q0 48 25.5 72t61.5 24q61 0 126 -96l1384 -2048v2120h138v-2258q0 -48 -25.5 -72t-61.5 -24q-61 0 -126 96zM1060 2563l300 357h212l-381 -357h-131z" />
    <glyph glyph-name="nacute" unicode="&#x144;" horiz-adv-x="2018" 
d="M1599 0v1122q0 87 -5.5 150t-20 124t-41.5 102.5t-70 77t-104.5 56t-145 32t-192.5 11.5q-132 0 -318 -32.5t-287 -74.5q-4 -188 -4 -311v-1257h-136v1375q0 135 5 287q162 63 373.5 103t430.5 40q124 0 222 -17.5t166 -46t116.5 -76t76.5 -97t44 -120t21 -133t5 -147.5
v-1168h-136zM1025 2057h-122l280 440h198z" />
    <glyph glyph-name="Ncaron" unicode="&#x147;" horiz-adv-x="2340" 
d="M1825 72l-1384 2047v-2119h-138v2258q0 48 25.5 72t61.5 24q61 0 126 -96l1384 -2048v2120h138v-2258q0 -48 -25.5 -72t-61.5 -24q-61 0 -126 96zM1549 2910l-289 -357h-180l-297 357h136l249 -283l250 283h131z" />
    <glyph glyph-name="ncaron" unicode="&#x148;" horiz-adv-x="2018" 
d="M1599 0v1122q0 87 -5.5 150t-20 124t-41.5 102.5t-70 77t-104.5 56t-145 32t-192.5 11.5q-132 0 -318 -32.5t-287 -74.5q-4 -188 -4 -311v-1257h-136v1375q0 135 5 287q162 63 373.5 103t430.5 40q124 0 222 -17.5t166 -46t116.5 -76t76.5 -97t44 -120t21 -133t5 -147.5
v-1168h-136zM1239 2489h123l-270 -440h-169l-277 440h127l233 -349z" />
    <glyph glyph-name="Ohungarumlaut" unicode="&#x150;" horiz-adv-x="2271" 
d="M2021 1165q0 -217 -17.5 -381.5t-58.5 -301t-107.5 -229t-165 -156t-230.5 -92.5t-306 -29t-306 29t-231 92.5t-165.5 156t-107.5 229t-58.5 301t-17.5 381.5t17.5 381.5t58.5 301t107.5 229t165.5 156t231 92.5t306 29t306 -29t230.5 -92.5t165 -156t107.5 -229
t58.5 -301t17.5 -381.5zM393 1165q0 -108 1.5 -180.5t7 -165.5t17 -155.5t30.5 -136.5t48 -123t69 -101.5t95 -85t124 -60t157 -39.5t194 -12q116 0 211.5 17t167.5 44.5t128 77t94 99t64.5 127t41.5 145t23 168.5t10 181.5t2 199.5q0 120 -2 200.5t-10 181.5t-23 168.5
t-41.5 145t-64.5 127t-94 98.5t-128 76.5t-167.5 44.5t-211.5 17q-106 0 -194 -12t-157 -39.5t-124 -59.5t-95 -84.5t-69 -101t-48 -123t-30.5 -137t-17 -155.5t-7 -166t-1.5 -181zM959 2575h-121l284 356h213zM1523 2931h213l-377 -356h-122z" />
    <glyph glyph-name="ohungarumlaut" unicode="&#x151;" horiz-adv-x="2015" 
d="M1781 891q0 -249 -40.5 -419t-133 -282.5t-238.5 -163t-361 -50.5q-216 0 -361 48.5t-238 159.5t-133.5 282t-40.5 425t40.5 424.5t133.5 281.5t238 159.5t361 48.5q215 0 360.5 -49.5t238.5 -161.5t133.5 -282t40.5 -421zM373 891q0 -188 22 -320t67.5 -223.5t123 -144
t178 -75t244.5 -22.5q145 0 248 25t179 79.5t121 147.5t66 222t21 311t-20.5 310.5t-65 222t-120 147.5t-179.5 79t-250 25q-120 0 -208.5 -14.5t-161.5 -50.5t-121.5 -93.5t-81.5 -146t-47.5 -205.5t-14.5 -274zM832 2078h-113l265 440h199zM1359 2518h199l-352 -440h-114z
" />
    <glyph glyph-name="OE" unicode="&#x152;" horiz-adv-x="3337" 
d="M2019 1251h1093v-126h-1093v-494q0 -112 8 -185.5t33 -134t63.5 -93.5t108 -56t158 -30.5t221.5 -7.5h551v-122q-196 -8 -541 -8q-67 0 -113 1t-108 4.5t-105.5 10.5t-95.5 19.5t-89 30t-75.5 44t-65 60.5t-47.5 79t-32 100q-94 -191 -275.5 -279t-478.5 -88
q-174 0 -306 29t-231 92.5t-165.5 156t-107.5 229t-58.5 301t-17.5 381.5t17.5 381.5t58.5 301t107.5 229t165.5 156t231 92.5t306 29q297 0 478.5 -88.5t276.5 -280.5q14 70 45 124.5t69 91t96 62.5t110.5 40t129 21.5t135.5 9.5t145 2q231 0 541 -12v-118h-551
q-133 0 -221.5 -8t-158 -31t-108 -56.5t-63.5 -95t-33 -135t-8 -185.5v-444zM393 1165q0 -108 1.5 -180.5t7 -165.5t17 -155.5t30.5 -136.5t48 -123t69 -101.5t95 -85t124 -60t157 -39.5t194 -12q116 0 211.5 17t167.5 44.5t128 77t94 99t64.5 127t41.5 145t23 168.5
t10 181.5t2 199.5q0 120 -2 200.5t-10 181.5t-23 168.5t-41.5 145t-64.5 127t-94 98.5t-128 76.5t-167.5 44.5t-211.5 17q-106 0 -194 -12t-157 -39.5t-124 -59.5t-95 -84.5t-69 -101t-48 -123t-30.5 -137t-17 -155.5t-7 -166t-1.5 -181z" />
    <glyph glyph-name="oe" unicode="&#x153;" horiz-adv-x="3366" 
d="M1008 1805q290 0 458.5 -94.5t244.5 -302.5q74 207 241 302t459 95q211 0 360 -52.5t235 -154t124 -234t38 -309.5q0 -100 -5 -197q-151 -24 -417 -48.5t-457 -32.5l-505 -20q9 -95 18.5 -157t30 -137.5t50 -122.5t79 -96.5t116.5 -76.5t163 -44t219 -17q262 0 621 53
l15 -128q-193 -28 -348 -41.5t-381 -13.5q-503 0 -652 411q-75 -215 -244.5 -313t-462.5 -98q-216 0 -361 48.5t-238 159.5t-133.5 282t-40.5 425t40.5 424.5t133.5 281.5t238 159.5t361 48.5zM1008 106q145 0 248 25t179 79.5t121 147.5t66 222t21 311t-20.5 310.5t-65 222
t-120 147.5t-179.5 79t-250 25q-120 0 -208.5 -14.5t-161.5 -50.5t-121.5 -93.5t-81.5 -146t-47.5 -205.5t-14.5 -274q0 -188 22 -320t67.5 -223.5t123 -144t178 -75t244.5 -22.5zM1781 883l557 26q341 16 688 56q4 61 4 158q0 127 -32.5 224.5t-103.5 173t-192.5 115
t-290.5 39.5q-127 0 -221.5 -19t-165 -61t-117 -103t-75 -152.5t-40 -200.5t-11.5 -256z" />
    <glyph glyph-name="Racute" unicode="&#x154;" horiz-adv-x="2066" 
d="M294 0v2304q336 50 686 50q113 0 203.5 -6.5t185.5 -24.5t166.5 -49t137 -82t107 -120.5t66 -167.5t24.5 -221q0 -173 -45 -299t-132.5 -203.5t-200.5 -118.5t-265 -57l592 -1005h-166l-576 996q-23 -1 -70 -1q-165 0 -572 20v-1015h-141zM435 2186v-1035
q264 -26 545 -26q150 0 262 15.5t206.5 54t154 101.5t92 159.5t32.5 227.5q0 198 -72.5 315t-232.5 171.5t-430 54.5q-264 0 -557 -38zM1373 2926l-381 -357h-131l300 357h212z" />
    <glyph glyph-name="racute" unicode="&#x155;" horiz-adv-x="1160" 
d="M410 0h-136v1385q0 135 5 287q269 133 645 133q97 0 166 -8l-13 -132q-71 6 -153 6q-125 0 -262 -24.5t-248 -72.5q-4 -188 -4 -311v-1263zM525 2059l280 440h198l-356 -440h-122z" />
    <glyph glyph-name="Rcaron" unicode="&#x158;" horiz-adv-x="2066" 
d="M294 0v2304q336 50 686 50q113 0 203.5 -6.5t185.5 -24.5t166.5 -49t137 -82t107 -120.5t66 -167.5t24.5 -221q0 -173 -45 -299t-132.5 -203.5t-200.5 -118.5t-265 -57l592 -1005h-166l-576 996q-23 -1 -70 -1q-165 0 -572 20v-1015h-141zM435 2186v-1035
q264 -26 545 -26q150 0 262 15.5t206.5 54t154 101.5t92 159.5t32.5 227.5q0 198 -72.5 315t-232.5 171.5t-430 54.5q-264 0 -557 -38zM909 2569l-297 357h136l249 -283l250 283h131l-289 -357h-180z" />
    <glyph glyph-name="rcaron" unicode="&#x159;" horiz-adv-x="1160" 
d="M410 0h-136v1385q0 135 5 287q269 133 645 133q97 0 166 -8l-13 -132q-71 6 -153 6q-125 0 -262 -24.5t-248 -72.5q-4 -188 -4 -311v-1263zM1025 2489l-270 -440h-169l-277 440h127l233 -349l233 349h123z" />
    <glyph glyph-name="Sacute" unicode="&#x15a;" horiz-adv-x="1685" 
d="M1013 2223q-118 0 -210 -7.5t-177 -25t-145.5 -48.5t-106 -77t-67.5 -112t-22 -151q0 -87 8 -145.5t35.5 -110t64 -85.5t109 -70t155.5 -64t217 -68q80 -24 144.5 -47t134.5 -56t123.5 -69t102.5 -85.5t81 -105.5t51 -129t19 -156q0 -172 -52 -294.5t-157 -197
t-251.5 -109t-345.5 -34.5q-183 0 -301.5 10t-253.5 37l15 124q261 -41 530 -41q123 0 218.5 12.5t182.5 46t144 87.5t90 141.5t33 205.5q0 94 -24 165.5t-66.5 124t-118.5 97t-161.5 77.5t-214.5 71q-77 23 -131 40.5t-116.5 41t-105 45.5t-88.5 51t-76 60.5t-58 71.5
t-44 86.5t-25.5 103t-9.5 122.5q0 166 50 282.5t152 185.5t241 99.5t331 30.5q273 0 548 -43l-14 -123q-240 35 -438 35zM1284 2933l-381 -357h-131l300 357h212z" />
    <glyph glyph-name="sacute" unicode="&#x15b;" horiz-adv-x="1532" 
d="M858 1675q-51 0 -85 -0.5t-84 -3.5t-84 -8.5t-77 -16.5t-71.5 -26t-58 -38t-47 -52t-28.5 -69t-11 -88q0 -38 3.5 -70t13 -59.5t19.5 -49t29.5 -41t36 -33.5t46.5 -29t53 -25t64 -23t70.5 -22t81.5 -24q51 -15 79 -23q157 -46 258.5 -91t174.5 -105.5t104.5 -137.5
t31.5 -182q0 -111 -33 -195t-91 -138t-144 -88t-183.5 -47.5t-218.5 -13.5q-273 0 -530 50l15 119q234 -37 446 -37q73 0 116.5 1t114.5 7.5t114.5 19t96.5 37t83 59.5t50.5 89t20.5 123q0 46 -6 83t-22 69t-34.5 56.5t-52.5 47.5t-67.5 40.5t-88 38t-105 36.5t-126.5 38
q-195 57 -251 79q-183 72 -253 190q-55 93 -55 226q0 105 29 184.5t80 131t128.5 83.5t167 45t203.5 13q266 0 539 -52l-15 -117q-240 39 -447 39zM1191 2509l-356 -440h-122l280 440h198z" />
    <glyph glyph-name="Scedilla" unicode="&#x15e;" horiz-adv-x="1685" 
d="M1465 2311l-14 -123q-240 35 -438 35q-118 0 -210 -7.5t-177 -25t-145.5 -48.5t-106 -77t-67.5 -112t-22 -151q0 -87 8 -145.5t35.5 -110t64 -85.5t109 -70t155.5 -64t217 -68q80 -24 144.5 -47t134.5 -56t123.5 -69t102.5 -85.5t81 -105.5t51 -129t19 -156
q0 -290 -148.5 -439.5t-443.5 -183.5l-85 -133q111 -5 182.5 -63.5t71.5 -159.5q0 -86 -47 -143.5t-116 -80.5t-157 -23q-121 0 -206 45l35 93q89 -38 178 -38q32 0 60.5 6t56 20t44 41.5t16.5 65.5q0 43 -28.5 77.5t-71.5 53.5t-87 29t-83 10l112 190q-58 -2 -89 -2
q-183 0 -301.5 10t-253.5 37l15 124q261 -41 530 -41q123 0 218.5 12.5t182.5 46t144 87.5t90 141.5t33 205.5q0 94 -24 165.5t-66.5 124t-118.5 97t-161.5 77.5t-214.5 71q-77 23 -131 40.5t-116.5 41t-105 45.5t-88.5 51t-76 60.5t-58 71.5t-44 86.5t-25.5 103t-9.5 122.5
q0 166 50 282.5t152 185.5t241 99.5t331 30.5q273 0 548 -43z" />
    <glyph glyph-name="scedilla" unicode="&#x15f;" horiz-adv-x="1532" 
d="M1320 1753l-15 -117q-240 39 -447 39q-51 0 -85 -0.5t-84 -3.5t-84 -8.5t-77 -16.5t-71.5 -26t-58 -38t-47 -52t-28.5 -69t-11 -88q0 -38 3.5 -70t13 -59.5t19.5 -49t29.5 -41t36 -33.5t46.5 -29t53 -25t64 -23t70.5 -22t81.5 -24q51 -15 79 -23q157 -46 258.5 -91
t174.5 -105.5t104.5 -137.5t31.5 -182q0 -116 -34.5 -202t-101 -141t-153 -86t-199.5 -43l-84 -132q111 -5 182.5 -63.5t71.5 -159.5q0 -86 -47 -143.5t-116 -80.5t-157 -23q-121 0 -206 45l35 93q89 -38 178 -38q32 0 60.5 6t56 20t44 41.5t16.5 65.5q0 43 -28.5 77.5
t-71.5 53.5t-87 29t-83 10l112 190q-9 0 -28.5 -0.5t-29.5 -0.5q-273 0 -530 50l15 119q234 -37 446 -37q73 0 116.5 1t114.5 7.5t114.5 19t96.5 37t83 59.5t50.5 89t20.5 123q0 46 -6 83t-22 69t-34.5 56.5t-52.5 47.5t-67.5 40.5t-88 38t-105 36.5t-126.5 38
q-195 57 -251 79q-183 72 -253 190q-55 93 -55 226q0 105 29 184.5t80 131t128.5 83.5t167 45t203.5 13q266 0 539 -52z" />
    <glyph glyph-name="Scaron" unicode="&#x160;" horiz-adv-x="1685" 
d="M1013 2223q-118 0 -210 -7.5t-177 -25t-145.5 -48.5t-106 -77t-67.5 -112t-22 -151q0 -87 8 -145.5t35.5 -110t64 -85.5t109 -70t155.5 -64t217 -68q80 -24 144.5 -47t134.5 -56t123.5 -69t102.5 -85.5t81 -105.5t51 -129t19 -156q0 -172 -52 -294.5t-157 -197
t-251.5 -109t-345.5 -34.5q-183 0 -301.5 10t-253.5 37l15 124q261 -41 530 -41q123 0 218.5 12.5t182.5 46t144 87.5t90 141.5t33 205.5q0 94 -24 165.5t-66.5 124t-118.5 97t-161.5 77.5t-214.5 71q-77 23 -131 40.5t-116.5 41t-105 45.5t-88.5 51t-76 60.5t-58 71.5
t-44 86.5t-25.5 103t-9.5 122.5q0 166 50 282.5t152 185.5t241 99.5t331 30.5q273 0 548 -43l-14 -123q-240 35 -438 35zM778 2576l-297 357h136l249 -283l250 283h131l-289 -357h-180z" />
    <glyph glyph-name="scaron" unicode="&#x161;" horiz-adv-x="1532" 
d="M858 1675q-51 0 -85 -0.5t-84 -3.5t-84 -8.5t-77 -16.5t-71.5 -26t-58 -38t-47 -52t-28.5 -69t-11 -88q0 -38 3.5 -70t13 -59.5t19.5 -49t29.5 -41t36 -33.5t46.5 -29t53 -25t64 -23t70.5 -22t81.5 -24q51 -15 79 -23q157 -46 258.5 -91t174.5 -105.5t104.5 -137.5
t31.5 -182q0 -111 -33 -195t-91 -138t-144 -88t-183.5 -47.5t-218.5 -13.5q-273 0 -530 50l15 119q234 -37 446 -37q73 0 116.5 1t114.5 7.5t114.5 19t96.5 37t83 59.5t50.5 89t20.5 123q0 46 -6 83t-22 69t-34.5 56.5t-52.5 47.5t-67.5 40.5t-88 38t-105 36.5t-126.5 38
q-195 57 -251 79q-183 72 -253 190q-55 93 -55 226q0 105 29 184.5t80 131t128.5 83.5t167 45t203.5 13q266 0 539 -52l-15 -117q-240 39 -447 39zM692 2052l-277 440h127l233 -349l233 349h123l-270 -440h-169z" />
    <glyph glyph-name="uni0162" unicode="&#x162;" horiz-adv-x="1654" 
d="M84 2330h1486v-126h-671v-2204h-141v2204h-674v126zM752 -201h138l-227 -662h-99z" />
    <glyph glyph-name="uni0163" unicode="&#x163;" horiz-adv-x="1113" 
d="M96 1659v122h344v481l136 22v-503h418v-122h-418v-1198q0 -80 8 -137t27.5 -97.5t44.5 -64.5t68 -37.5t89.5 -18t115.5 -4.5q30 0 68 5l12 -117q-72 -14 -133 -14q-230 0 -333 105.5t-103 344.5v1233h-344zM808 -214l-227 -662h-99l188 662h138z" />
    <glyph glyph-name="Tcaron" unicode="&#x164;" horiz-adv-x="1654" 
d="M84 2330h1486v-126h-671v-2204h-141v2204h-674v126zM1076 2890h131l-289 -357h-180l-297 357h136l249 -283z" />
    <glyph glyph-name="tcaron" unicode="&#x165;" horiz-adv-x="1113" 
d="M96 1659v122h344v481l136 22v-503h418v-122h-418v-1198q0 -80 8 -137t27.5 -97.5t44.5 -64.5t68 -37.5t89.5 -18t115.5 -4.5q30 0 68 5l12 -117q-72 -14 -133 -14q-230 0 -333 105.5t-103 344.5v1233h-344zM1142 2725l-244 -712h-106l202 712h148z" />
    <glyph glyph-name="Uring" unicode="&#x16e;" horiz-adv-x="2229" 
d="M285 736v1594h141v-1620q0 -306 162.5 -455t518.5 -149q360 0 520.5 148.5t160.5 455.5v1620h141v-1594q0 -177 -38.5 -310t-107 -218t-173.5 -137.5t-226 -73.5t-277 -21q-129 0 -233.5 14.5t-199.5 48.5t-164.5 91.5t-121 140.5t-77.5 200t-26 265zM1419 2801
q0 -129 -91 -220t-220 -91q-128 0 -219 91t-91 220q0 128 91 219t219 91q129 0 220 -91t91 -219zM906 2801q0 -85 59 -144t143 -59t143.5 59t59.5 144q0 84 -59.5 143t-143.5 59t-143 -59t-59 -143z" />
    <glyph glyph-name="uring" unicode="&#x16f;" horiz-adv-x="2012" 
d="M1723 1781v-1375q0 -135 -5 -287q-162 -63 -371.5 -103t-426.5 -40q-124 0 -222 17.5t-166 46t-116.5 76t-76.5 97t-44 120t-21 133t-5 147.5v1168h136v-1122q0 -87 5.5 -150t20 -124t41.5 -102.5t70 -77t104.5 -56t145 -32t192.5 -11.5q130 0 314 32.5t285 74.5
q4 188 4 311v1257h136zM1305 2286q0 -129 -91 -220t-220 -91q-128 0 -219 91t-91 220q0 128 91 219t219 91q129 0 220 -91t91 -219zM792 2286q0 -85 59 -144t143 -59t143.5 59t59.5 144q0 84 -59.5 143t-143.5 59t-143 -59t-59 -143z" />
    <glyph glyph-name="Uhungarumlaut" unicode="&#x170;" horiz-adv-x="2229" 
d="M285 736v1594h141v-1620q0 -306 162.5 -455t518.5 -149q360 0 520.5 148.5t160.5 455.5v1620h141v-1594q0 -177 -38.5 -310t-107 -218t-173.5 -137.5t-226 -73.5t-277 -21q-129 0 -233.5 14.5t-199.5 48.5t-164.5 91.5t-121 140.5t-77.5 200t-26 265zM903 2579h-121
l284 356h213zM1467 2935h213l-377 -356h-122z" />
    <glyph glyph-name="uhungarumlaut" unicode="&#x171;" horiz-adv-x="2012" 
d="M1723 1781v-1375q0 -135 -5 -287q-162 -63 -371.5 -103t-426.5 -40q-124 0 -222 17.5t-166 46t-116.5 76t-76.5 97t-44 120t-21 133t-5 147.5v1168h136v-1122q0 -87 5.5 -150t20 -124t41.5 -102.5t70 -77t104.5 -56t145 -32t192.5 -11.5q130 0 314 32.5t285 74.5
q4 188 4 311v1257h136zM809 2104h-113l265 440h199zM1336 2544h199l-352 -440h-114z" />
    <glyph glyph-name="Ydieresis" unicode="&#x178;" horiz-adv-x="1814" 
d="M706 2602q-48 0 -81.5 34t-33.5 82t33.5 82t81.5 34t82 -34t34 -82t-34 -82t-82 -34zM1146 2602q-48 0 -82 34t-34 82t34 82t82 34t82 -34t34 -82t-34 -82t-82 -34zM830 0v910l-739 1420h158l657 -1261l665 1261h152l-749 -1420v-910h-144z" />
    <glyph glyph-name="Zacute" unicode="&#x179;" horiz-adv-x="1729" 
d="M287 126h1306v-126h-1381q-104 0 -104 65q0 40 40 104l1275 2035h-1233v126h1308q104 0 104 -65q0 -40 -40 -104zM1057 2908h212l-381 -357h-131z" />
    <glyph glyph-name="zacute" unicode="&#x17a;" horiz-adv-x="1686" 
d="M313 126h1168v-126h-1301q-74 0 -74 53q0 31 28 67l1196 1535h-1142v126h1275q74 0 74 -53q0 -31 -28 -67zM1028 2515h198l-356 -440h-122z" />
    <glyph glyph-name="Zdotaccent" unicode="&#x17b;" horiz-adv-x="1729" 
d="M287 126h1306v-126h-1381q-104 0 -104 65q0 40 40 104l1275 2035h-1233v126h1308q104 0 104 -65q0 -40 -40 -104zM993 2738q0 -50 -35.5 -85.5t-85.5 -35.5t-85.5 35.5t-35.5 85.5t35.5 85.5t85.5 35.5t85.5 -35.5t35.5 -85.5z" />
    <glyph glyph-name="zdotaccent" unicode="&#x17c;" horiz-adv-x="1686" 
d="M313 126h1168v-126h-1301q-74 0 -74 53q0 31 28 67l1196 1535h-1142v126h1275q74 0 74 -53q0 -31 -28 -67zM1066 2239q0 -50 -35.5 -85.5t-85.5 -35.5t-85.5 35.5t-35.5 85.5t35.5 85.5t85.5 35.5t85.5 -35.5t35.5 -85.5z" />
    <glyph glyph-name="Zcaron" unicode="&#x17d;" horiz-adv-x="1729" 
d="M287 126h1306v-126h-1381q-104 0 -104 65q0 40 40 104l1275 2035h-1233v126h1308q104 0 104 -65q0 -40 -40 -104zM977 2551h-180l-297 357h136l249 -283l250 283h131z" />
    <glyph glyph-name="zcaron" unicode="&#x17e;" horiz-adv-x="1686" 
d="M313 126h1168v-126h-1301q-74 0 -74 53q0 31 28 67l1196 1535h-1142v126h1275q74 0 74 -53q0 -31 -28 -67zM937 2075h-169l-277 440h127l233 -349l233 349h123z" />
    <glyph glyph-name="florin" unicode="&#x192;" horiz-adv-x="1466" 
d="M766 1246l-156 -1120q-39 -279 -187.5 -429t-347.5 -150q-46 0 -73 4l17 124h24q154 0 274.5 115.5t151.5 333.5l157 1122h-381l16 122h382l62 443q29 208 169 340.5t358 132.5q63 0 127 -14l-16 -125q-36 9 -94 9q-174 0 -278.5 -101t-131.5 -288l-56 -397h450l-16 -122
h-451z" />
    <glyph glyph-name="uni0218" unicode="&#x218;" horiz-adv-x="1685" 
d="M1013 2223q-118 0 -210 -7.5t-177 -25t-145.5 -48.5t-106 -77t-67.5 -112t-22 -151q0 -87 8 -145.5t35.5 -110t64 -85.5t109 -70t155.5 -64t217 -68q80 -24 144.5 -47t134.5 -56t123.5 -69t102.5 -85.5t81 -105.5t51 -129t19 -156q0 -172 -52 -294.5t-157 -197
t-251.5 -109t-345.5 -34.5q-183 0 -301.5 10t-253.5 37l15 124q261 -41 530 -41q123 0 218.5 12.5t182.5 46t144 87.5t90 141.5t33 205.5q0 94 -24 165.5t-66.5 124t-118.5 97t-161.5 77.5t-214.5 71q-77 23 -131 40.5t-116.5 41t-105 45.5t-88.5 51t-76 60.5t-58 71.5
t-44 86.5t-25.5 103t-9.5 122.5q0 166 50 282.5t152 185.5t241 99.5t331 30.5q273 0 548 -43l-14 -123q-240 35 -438 35zM640 -873l188 662h138l-227 -662h-99z" />
    <glyph glyph-name="uni0219" unicode="&#x219;" horiz-adv-x="1532" 
d="M858 1675q-51 0 -85 -0.5t-84 -3.5t-84 -8.5t-77 -16.5t-71.5 -26t-58 -38t-47 -52t-28.5 -69t-11 -88q0 -38 3.5 -70t13 -59.5t19.5 -49t29.5 -41t36 -33.5t46.5 -29t53 -25t64 -23t70.5 -22t81.5 -24q51 -15 79 -23q157 -46 258.5 -91t174.5 -105.5t104.5 -137.5
t31.5 -182q0 -111 -33 -195t-91 -138t-144 -88t-183.5 -47.5t-218.5 -13.5q-273 0 -530 50l15 119q234 -37 446 -37q73 0 116.5 1t114.5 7.5t114.5 19t96.5 37t83 59.5t50.5 89t20.5 123q0 46 -6 83t-22 69t-34.5 56.5t-52.5 47.5t-67.5 40.5t-88 38t-105 36.5t-126.5 38
q-195 57 -251 79q-183 72 -253 190q-55 93 -55 226q0 105 29 184.5t80 131t128.5 83.5t167 45t203.5 13q266 0 539 -52l-15 -117q-240 39 -447 39zM587 -866l188 662h138l-227 -662h-99z" />
    <glyph glyph-name="uni021A" unicode="&#x21a;" horiz-adv-x="1654" 
d="M84 2330h1486v-126h-671v-2204h-141v2204h-674v126zM752 -201h138l-227 -662h-99z" />
    <glyph glyph-name="uni021B" unicode="&#x21b;" horiz-adv-x="1113" 
d="M96 1659v122h344v481l136 22v-503h418v-122h-418v-1198q0 -80 8 -137t27.5 -97.5t44.5 -64.5t68 -37.5t89.5 -18t115.5 -4.5q30 0 68 5l12 -117q-72 -14 -133 -14q-230 0 -333 105.5t-103 344.5v1233h-344zM808 -214l-227 -662h-99l188 662h138z" />
    <glyph glyph-name="circumflex" unicode="&#x2c6;" horiz-adv-x="1038" 
d="M600 2364l277 -440h-127l-233 349l-233 -349h-123l270 440h169z" />
    <glyph glyph-name="caron" unicode="&#x2c7;" horiz-adv-x="989" 
d="M730 2364h123l-270 -440h-169l-277 440h127l233 -349z" />
    <glyph glyph-name="uni02C9" unicode="&#x2c9;" horiz-adv-x="1346" 
d="M246 2054v118h854v-118h-854z" />
    <glyph glyph-name="breve" unicode="&#x2d8;" horiz-adv-x="1065" 
d="M164 2323h107q15 -102 82 -169.5t179 -67.5t179 67.5t82 169.5h109q-17 -160 -108.5 -259t-261.5 -99q-169 0 -260 98.5t-108 259.5z" />
    <glyph glyph-name="dotaccent" unicode="&#x2d9;" horiz-adv-x="621" 
d="M190 2139q0 50 35.5 85.5t85.5 35.5t85.5 -35.5t35.5 -85.5t-35.5 -85.5t-85.5 -35.5t-85.5 35.5t-35.5 85.5z" />
    <glyph glyph-name="ring" unicode="&#x2da;" horiz-adv-x="1015" 
d="M818 2179q0 -129 -91 -220t-220 -91q-128 0 -219 91t-91 220q0 128 91 219t219 91q129 0 220 -91t91 -219zM305 2179q0 -85 59 -144t143 -59t143.5 59t59.5 144q0 84 -59.5 143t-143.5 59t-143 -59t-59 -143z" />
    <glyph glyph-name="ogonek" unicode="&#x2db;" horiz-adv-x="701" 
d="M590 -471l34 -86q-47 -35 -110 -54.5t-121 -19.5q-115 0 -189 66.5t-74 180.5q0 104 63.5 207t147.5 177h95q-170 -177 -170 -320q0 -83 49 -132.5t132 -49.5q79 0 143 31z" />
    <glyph glyph-name="tilde" unicode="&#x2dc;" horiz-adv-x="1142" 
d="M316 1997h-109q15 133 73 204.5t132 71.5q48 0 87 -16.5t63.5 -39.5t46 -46.5t46.5 -40t54 -16.5q91 0 117 152h108q-15 -133 -73 -204.5t-132 -71.5q-48 0 -87 16.5t-63.5 40t-45.5 46.5t-46 39.5t-54 16.5q-90 0 -117 -152z" />
    <glyph glyph-name="hungarumlaut" unicode="&#x2dd;" horiz-adv-x="1059" 
d="M247 1912h-113l265 440h199zM774 2352h199l-352 -440h-114z" />
    <glyph glyph-name="uni03A9" unicode="&#x3a9;" horiz-adv-x="2419" 
d="M2212 0h-718v112q80 55 154.5 129t144.5 178t122 222t83 266.5t31 306.5q0 146 -31.5 288.5t-98 273t-160.5 230t-228 158.5t-291 59q-151 0 -282.5 -50.5t-230 -143t-169.5 -218.5t-107 -280t-36 -325q0 -185 46.5 -361.5t124.5 -315t171 -244.5t193 -173v-112h-723v128
h526q-135 118 -239.5 280t-170.5 381t-66 455q0 241 74.5 448.5t203 352t307 227t381.5 82.5q168 0 318 -58.5t263 -162t195.5 -241t125 -300.5t42.5 -335q0 -183 -39 -358.5t-107 -318t-153 -257t-182 -195.5h526v-128z" />
    <glyph glyph-name="uni03BC" unicode="&#x3bc;" horiz-adv-x="1892" 
d="M1517 1781v-1223q0 -65 0.5 -98.5t3 -87.5t8.5 -83.5t16.5 -68t26 -60.5t39.5 -42t55 -30v-112q-52 0 -93.5 16t-70 47t-49 68t-33.5 88t-20 98t-12 106h-2q-57 -193 -200 -308t-310 -115q-124 0 -217 48.5t-186 157.5v-838h-134v2437h135v-1186q0 -97 25 -181.5
t73 -150.5t125.5 -104t175.5 -38q152 0 268.5 101t177.5 272.5t61 385.5v901h137z" />
    <glyph glyph-name="pi" unicode="&#x3c0;" horiz-adv-x="2268" 
d="M1557 1649h-802q-34 -597 -85.5 -1029.5t-110.5 -619.5h-169q93 315 146.5 692t99.5 959h-174q-95 0 -170.5 -15.5t-170.5 -58.5l-35 78q127 126 446 126h1626l-17 -132h-463q-31 -174 -49 -399t-18 -421q0 -372 102.5 -545t342.5 -173l-11 -135q-136 0 -237 37t-164 99
t-101 156.5t-52.5 196.5t-14.5 232q0 210 21.5 467t59.5 485z" />
    <glyph glyph-name="uni200A" unicode="&#x200a;" horiz-adv-x="73" 
 />
    <glyph glyph-name="uni2010" unicode="&#x2010;" horiz-adv-x="1362" 
d="M1106 821h-849v129h849v-129z" />
    <glyph glyph-name="endash" unicode="&#x2013;" horiz-adv-x="2120" 
d="M1864 826h-1607v120h1607v-120z" />
    <glyph glyph-name="emdash" unicode="&#x2014;" horiz-adv-x="3673" 
d="M3417 826h-3160v120h3160v-120z" />
    <glyph glyph-name="quoteleft" unicode="&#x2018;" horiz-adv-x="656" 
d="M320 1675h-165l273 794h118z" />
    <glyph glyph-name="quoteright" unicode="&#x2019;" horiz-adv-x="656" 
d="M381 2469h165l-273 -794h-118z" />
    <glyph glyph-name="quotesinglbase" unicode="&#x201a;" horiz-adv-x="646" 
d="M318 379h165l-273 -794h-118z" />
    <glyph glyph-name="quotedblleft" unicode="&#x201c;" horiz-adv-x="1037" 
d="M545 2469l-225 -794h-165l272 794h118zM927 2469l-226 -794h-165l273 794h118z" />
    <glyph glyph-name="quotedblright" unicode="&#x201d;" horiz-adv-x="1037" 
d="M155 1675l226 794h165l-273 -794h-118zM537 1675l225 794h165l-272 -794h-118z" />
    <glyph glyph-name="quotedblbase" unicode="&#x201e;" horiz-adv-x="1027" 
d="M318 379h165l-273 -794h-118zM699 379h165l-272 -794h-118z" />
    <glyph glyph-name="dagger" unicode="&#x2020;" horiz-adv-x="1768" 
d="M147 1661h662v715h136v-715h677v-128h-677v-1953h-136v1953h-662v128z" />
    <glyph glyph-name="daggerdbl" unicode="&#x2021;" horiz-adv-x="1860" 
d="M999 920h665v-128h-665v-1212h-136v1212h-667v128h667v690h-667v128h667v638h136v-638h665v-128h-665v-690z" />
    <glyph glyph-name="bullet" unicode="&#x2022;" horiz-adv-x="1336" 
d="M220 1119q0 186 131 317t317 131q185 0 316.5 -131t131.5 -317q0 -185 -131.5 -316.5t-316.5 -131.5q-186 0 -317 131.5t-131 316.5z" />
    <glyph glyph-name="ellipsis" unicode="&#x2026;" horiz-adv-x="2780" 
d="M323 247q47 0 64.5 -31.5t17.5 -106.5t-16.5 -104t-65.5 -29t-65 28.5t-16 104.5t17 107t64 31zM1390 247q47 0 64 -31t17 -107q0 -75 -16.5 -104t-64.5 -29q-49 0 -65 28.5t-16 104.5t17 107t64 31zM2456 247q47 0 64.5 -31.5t17.5 -106.5t-16.5 -104t-65.5 -29
t-65 28.5t-16 104.5t17 107t64 31z" />
    <glyph glyph-name="perthousand" unicode="&#x2030;" horiz-adv-x="3771" 
d="M184 1660q0 145 11.5 247t41.5 189t83 138.5t136 79.5t200 28t200 -28t136 -79.5t84 -138t42.5 -189t11.5 -247.5t-11.5 -247.5t-42.5 -189.5t-84 -138.5t-136 -79.5t-200 -28t-200 28t-136 79.5t-83 138.5t-41.5 189t-11.5 248zM1023 1660q0 66 -1 111t-5 101t-11.5 93
t-20.5 79.5t-32 70t-46.5 54t-63.5 42t-83 24.5t-104 9q-58 0 -105 -9.5t-82.5 -24t-63 -42t-46 -54.5t-31.5 -69.5t-20 -79.5t-11 -93.5t-5 -100.5t-1 -111q0 -123 4.5 -195t24 -156.5t57 -128.5t107.5 -74t172 -30q57 0 104 9t83 24.5t63.5 42t46.5 54t32 70t20.5 79.5
t11.5 93t5 101t1 111zM1517 671q0 145 11.5 247.5t41.5 189t83 138t135.5 79.5t199.5 28t200.5 -28t136.5 -79.5t84 -138t42.5 -189t11.5 -247.5t-11.5 -247.5t-42.5 -189.5t-84 -138.5t-136.5 -79.5t-200.5 -28t-199.5 28t-135.5 79.5t-83 138.5t-41.5 189t-11.5 248z
M2356 671q0 66 -1 111t-5 101t-11.5 93t-20.5 79.5t-32 70t-47 54t-63.5 42t-82.5 24.5t-105 9q-57 0 -104 -9.5t-82.5 -24t-63 -42t-46 -54.5t-31.5 -69.5t-20 -79.5t-11 -93.5t-5 -100.5t-1 -111q0 -124 4.5 -196t24 -156.5t57 -128.5t107 -74t171.5 -30q57 0 104.5 9
t83 24.5t63 42t46.5 54t32.5 70t21 80t11.5 93t5 101t1 111.5zM2625 671q0 145 11.5 247.5t41.5 189t83 138t135.5 79.5t199.5 28t200 -28t136.5 -79.5t84 -138t42 -189t11.5 -247.5t-11.5 -247.5t-42 -189.5t-84 -138.5t-136.5 -79.5t-200 -28t-199.5 28t-135.5 79.5
t-83 138.5t-41.5 189t-11.5 248zM3463 671q0 66 -1 111t-5 101t-11.5 93t-20.5 79.5t-32 70t-46.5 54t-63.5 42t-83 24.5t-104 9t-104 -9.5t-82.5 -24t-63 -42t-46 -54.5t-31.5 -69.5t-20 -79.5t-11 -93.5t-5 -100.5t-1 -111t1 -111.5t5 -101t11 -93t20 -79.5t31.5 -70
t46 -54.5t63 -42t82.5 -24t104 -9.5q102 0 172 30t108 74t58 128.5t24.5 157t4.5 195.5zM566 -48l1368 2426h145l-1369 -2426h-144z" />
    <glyph glyph-name="guilsinglleft" unicode="&#x2039;" horiz-adv-x="942" 
d="M144 862l448 634h152l-408 -634l409 -633h-153z" />
    <glyph glyph-name="guilsinglright" unicode="&#x203a;" horiz-adv-x="942" 
d="M350 1496l448 -634l-448 -633h-153l409 633l-408 634h152z" />
    <glyph glyph-name="fraction" unicode="&#x2044;" horiz-adv-x="493" 
d="M1003 2378l-1369 -2426h-144l1368 2426h145z" />
    <glyph glyph-name="uni2070" unicode="&#x2070;" horiz-adv-x="1248" 
d="M623 2721q117 0 200 -28t136 -79.5t84 -138t42.5 -189t11.5 -247.5t-11.5 -247.5t-42.5 -189.5t-84 -138.5t-136 -79.5t-200 -28t-200 28t-136 79.5t-83 138.5t-41.5 189t-11.5 248q0 145 11.5 247t41.5 189t83 138.5t136 79.5t200 28zM623 2623q-58 0 -105 -9.5
t-82.5 -24t-63 -42t-46 -54.5t-31.5 -69.5t-20 -79.5t-11 -93.5t-5 -100.5t-1 -111t1 -111.5t5 -100.5t11 -93t20 -80t32 -70t46.5 -54t63 -41.5t82.5 -24t104 -9.5t104 9t83 24t63.5 42t46.5 54.5t32 69.5t20.5 79.5t11.5 93t5 101t1 111.5t-1 111t-5 101t-11.5 93
t-20.5 79.5t-32 70t-46.5 54t-63.5 42t-83 24.5t-104 9z" />
    <glyph glyph-name="uni2074" unicode="&#x2074;" horiz-adv-x="1179" 
d="M1082 1792v-95h-191v-329h-107v329h-612q-103 0 -103 81q0 42 61 119l579 747q58 75 116 75q66 0 66 -82v-845h191zM784 1792v779l-603 -779h603z" />
    <glyph glyph-name="uni2075" unicode="&#x2075;" horiz-adv-x="1065" 
d="M98 1394l13 96q163 -29 318 -29q228 0 324.5 71t96.5 256q0 72 -22.5 123t-60 82t-102.5 48t-134.5 23t-170.5 6q-130 0 -235 -7l44 646h749v-98h-649l-31 -448q84 6 161 6q76 0 134 -3.5t118.5 -14t104 -28.5t83.5 -47.5t64.5 -70t39 -98t14.5 -129.5
q0 -222 -120 -320.5t-361 -98.5q-186 0 -378 35z" />
    <glyph glyph-name="uni2076" unicode="&#x2076;" horiz-adv-x="1200" 
d="M634 2182q90 0 157.5 -10.5t126 -37.5t95.5 -72.5t58 -117t21 -168.5q0 -123 -34 -207t-101.5 -130t-152.5 -64.5t-204 -18.5q-111 0 -192 25.5t-132 69.5t-81.5 114.5t-42 150t-11.5 185.5q0 163 12.5 278.5t45.5 211t86 155.5t138 101t197.5 57.5t268.5 16.5
q34 0 93 -1l9 -95q-232 -6 -309 -16q-212 -28 -310 -136q-98 -109 -113 -320q247 29 375 29zM985 1779q0 96 -23.5 157t-76 93t-119.5 43.5t-173 11.5q-91 0 -342 -33q-4 -61 -4 -178q0 -71 6.5 -125.5t28 -112t58 -95t101.5 -61.5t154 -24q215 0 302.5 74t87.5 250z" />
    <glyph glyph-name="uni2077" unicode="&#x2077;" horiz-adv-x="991" 
d="M808 2611h-766v96h786q98 0 98 -64q0 -21 -14 -51l-566 -1221h-117z" />
    <glyph glyph-name="uni2078" unicode="&#x2078;" horiz-adv-x="1210" 
d="M130 1727q0 256 221 339q-108 51 -153.5 130.5t-45.5 198.5q0 156 112 241t339 85q224 0 339 -85.5t115 -240.5q0 -120 -46 -199.5t-156 -130.5q225 -86 225 -340q0 -88 -25.5 -154t-68 -106.5t-105.5 -65.5t-129 -34t-149 -9q-84 0 -153 11t-129.5 37.5t-102 68.5
t-65 106t-23.5 148zM973 1733q0 73 -28.5 126t-82 84.5t-119 47.5t-151.5 21q-83 -8 -142 -23.5t-110 -45.5t-77 -82.5t-26 -127.5q0 -81 28.5 -137.5t81.5 -86t114.5 -42t141.5 -12.5q66 0 117.5 6.5t100.5 25t81 48.5t51.5 80.5t19.5 117.5zM259 2372q0 -53 19 -96t51 -72
t78.5 -49.5t97 -31.5t109.5 -15q56 7 101.5 18t91 31.5t75.5 48t49 70t19 96.5q0 59 -19 104t-50 72.5t-77 44.5t-94 23.5t-107 6.5q-74 0 -131.5 -11t-108 -37.5t-77.5 -77.5t-27 -125z" />
    <glyph glyph-name="uni2079" unicode="&#x2079;" horiz-adv-x="1195" 
d="M556 1895q-90 0 -157.5 10.5t-126 37.5t-95.5 72.5t-58 117t-21 168.5q0 123 34 207t101.5 130t152.5 64.5t204 18.5q111 0 192 -25.5t132 -69.5t81.5 -114.5t42 -150t11.5 -185.5q0 -163 -12.5 -278.5t-45.5 -211t-86 -155.5t-138 -101t-197.5 -57.5t-268.5 -16.5
q-34 0 -93 1l-9 95q232 6 309 16q212 28 310 136q98 110 113 320q-247 -29 -375 -29zM205 2298q0 -96 23.5 -157t76 -93t119.5 -43.5t173 -11.5q91 0 342 33q4 61 4 178q0 71 -6.5 125.5t-28 112t-58 95t-101.5 61.5t-154 24q-215 0 -302.5 -74t-87.5 -250z" />
    <glyph glyph-name="uni2080" unicode="&#x2080;" horiz-adv-x="1248" 
d="M623 973q117 0 200 -28t136 -79.5t84 -138t42.5 -189t11.5 -247.5t-11.5 -247.5t-42.5 -189.5t-84 -138.5t-136 -79.5t-200 -28t-200 28t-136 79.5t-83 138.5t-41.5 189t-11.5 248q0 145 11.5 247t41.5 189t83 138.5t136 79.5t200 28zM623 875q-58 0 -105 -9.5t-82.5 -24
t-63 -42t-46 -54.5t-31.5 -69.5t-20 -79.5t-11 -93.5t-5 -100.5t-1 -111t1 -111.5t5 -100.5t11 -93t20 -80t32 -70t46.5 -54t63 -41.5t82.5 -24t104 -9.5t104 9t83 24t63.5 42t46.5 54.5t32 69.5t20.5 79.5t11.5 93t5 101t1 111.5t-1 111t-5 101t-11.5 93t-20.5 79.5t-32 70
t-46.5 54t-63.5 42t-83 24.5t-104 9z" />
    <glyph glyph-name="uni2081" unicode="&#x2081;" horiz-adv-x="686" 
d="M500 -373h-105v1210q-183 -53 -345 -79l-6 97q97 16 201.5 47t174.5 62h80v-1337z" />
    <glyph glyph-name="uni2082" unicode="&#x2082;" horiz-adv-x="1035" 
d="M934 -281v-99h-855q18 103 33 171t37 135.5t49 111.5t67 87t92 74.5t123 61.5q348 149 348 372q0 130 -88.5 184t-290.5 54q-153 0 -340 -30l-11 93q215 37 387 37q450 0 450 -308q0 -92 -27 -167t-80 -132.5t-120.5 -101t-159.5 -81.5q-88 -37 -148 -81.5t-97.5 -103
t-58 -122.5t-34.5 -155h724z" />
    <glyph glyph-name="uni2083" unicode="&#x2083;" horiz-adv-x="1049" 
d="M428 973q79 0 142 -7t125.5 -27t104 -53.5t67 -90t25.5 -132.5q0 -250 -196 -336q88 -32 154 -115.5t66 -204.5q0 -113 -34 -191.5t-101 -123.5t-155 -64.5t-208 -19.5q-193 0 -360 34l14 96q218 -30 309 -30q223 0 324.5 64t101.5 225q0 113 -73 184t-188 83
q-70 7 -152 7q-38 0 -114 -2v93q148 2 265 20q109 17 174.5 86t65.5 162q0 48 -10 85t-26 62.5t-44 43.5t-57 28t-72.5 16t-82 7.5t-94.5 1.5q-134 0 -315 -29l-12 94q185 34 356 34z" />
    <glyph glyph-name="uni2084" unicode="&#x2084;" horiz-adv-x="1179" 
d="M1082 44v-95h-191v-329h-107v329h-612q-103 0 -103 81q0 42 61 119l579 747q58 75 116 75q66 0 66 -82v-845h191zM784 44v779l-603 -779h603z" />
    <glyph glyph-name="uni2085" unicode="&#x2085;" horiz-adv-x="1065" 
d="M98 -354l13 96q163 -29 318 -29q228 0 324.5 71t96.5 256q0 72 -22.5 123t-60 82t-102.5 48t-134.5 23t-170.5 6q-130 0 -235 -7l44 646h749v-98h-649l-31 -448q84 6 161 6q76 0 134 -3.5t118.5 -14t104 -28.5t83.5 -47.5t64.5 -70t39 -98t14.5 -129.5
q0 -222 -120 -320.5t-361 -98.5q-186 0 -378 35z" />
    <glyph glyph-name="uni2086" unicode="&#x2086;" horiz-adv-x="1200" 
d="M634 434q90 0 157.5 -10.5t126 -37.5t95.5 -72.5t58 -117t21 -168.5q0 -123 -34 -207t-101.5 -130t-152.5 -64.5t-204 -18.5q-111 0 -192 25.5t-132 69.5t-81.5 114.5t-42 150t-11.5 185.5q0 163 12.5 278.5t45.5 211t86 155.5t138 101t197.5 57.5t268.5 16.5q34 0 93 -1
l9 -95q-232 -6 -309 -16q-212 -28 -310 -136q-98 -109 -113 -320q247 29 375 29zM985 31q0 96 -23.5 157t-76 93t-119.5 43.5t-173 11.5q-91 0 -342 -33q-4 -61 -4 -178q0 -71 6.5 -125.5t28 -112t58 -95t101.5 -61.5t154 -24q215 0 302.5 74t87.5 250z" />
    <glyph glyph-name="uni2087" unicode="&#x2087;" horiz-adv-x="991" 
d="M808 863h-766v96h786q98 0 98 -64q0 -21 -14 -51l-566 -1221h-117z" />
    <glyph glyph-name="uni2088" unicode="&#x2088;" horiz-adv-x="1210" 
d="M130 -21q0 256 221 339q-108 51 -153.5 130.5t-45.5 198.5q0 156 112 241t339 85q224 0 339 -85.5t115 -240.5q0 -120 -46 -199.5t-156 -130.5q225 -86 225 -340q0 -88 -25.5 -154t-68 -106.5t-105.5 -65.5t-129 -34t-149 -9q-84 0 -153 11t-129.5 37.5t-102 68.5
t-65 106t-23.5 148zM973 -15q0 73 -28.5 126t-82 84.5t-119 47.5t-151.5 21q-83 -8 -142 -23.5t-110 -45.5t-77 -82.5t-26 -127.5q0 -81 28.5 -137.5t81.5 -86t114.5 -42t141.5 -12.5q66 0 117.5 6.5t100.5 25t81 48.5t51.5 80.5t19.5 117.5zM259 624q0 -53 19 -96t51 -72
t78.5 -49.5t97 -31.5t109.5 -15q56 7 101.5 18t91 31.5t75.5 48t49 70t19 96.5q0 59 -19 104t-50 72.5t-77 44.5t-94 23.5t-107 6.5q-74 0 -131.5 -11t-108 -37.5t-77.5 -77.5t-27 -125z" />
    <glyph glyph-name="uni2089" unicode="&#x2089;" horiz-adv-x="1195" 
d="M556 147q-90 0 -157.5 10.5t-126 37.5t-95.5 72.5t-58 117t-21 168.5q0 123 34 207t101.5 130t152.5 64.5t204 18.5q111 0 192 -25.5t132 -69.5t81.5 -114.5t42 -150t11.5 -185.5q0 -163 -12.5 -278.5t-45.5 -211t-86 -155.5t-138 -101t-197.5 -57.5t-268.5 -16.5
q-34 0 -93 1l-9 95q232 6 309 16q212 28 310 136q98 110 113 320q-247 -29 -375 -29zM205 550q0 -96 23.5 -157t76 -93t119.5 -43.5t173 -11.5q91 0 342 33q4 61 4 178q0 71 -6.5 125.5t-28 112t-58 95t-101.5 61.5t-154 24q-215 0 -302.5 -74t-87.5 -250z" />
    <glyph glyph-name="Euro" unicode="&#x20ac;" horiz-adv-x="1691" 
d="M557 1404h806l-28 -122h-783q-1 -49 -1 -152q0 -86 1 -126h721l-27 -122h-690q7 -137 23.5 -241t48 -194.5t80 -152.5t118.5 -106.5t165.5 -65.5t218.5 -21q135 0 339 34l11 -116q-203 -43 -399 -43q-161 0 -281 35t-204 103t-138.5 179t-82.5 253t-38 336h-251l27 122
h220q-1 40 -1 126q0 103 2 152h-228l27 122h206q11 188 40 326t83.5 246t138.5 174.5t202.5 100t277.5 33.5q207 0 399 -39l-12 -121q-201 35 -338 35q-124 0 -220 -20t-166 -63.5t-118 -103.5t-79 -148t-47 -188t-23 -232z" />
    <glyph glyph-name="uni2113" unicode="&#x2113;" horiz-adv-x="1537" 
d="M409 730l-242 -150l-42 93l285 203q0 204 3 344t15 307.5t34 278t61.5 222.5t95.5 176.5t138.5 105t187.5 40.5q106 0 180.5 -61t108 -158t33.5 -219q0 -116 -41 -240t-108 -234.5t-161.5 -224t-191.5 -207.5t-209 -186q10 -147 28.5 -256t50 -199t78.5 -145.5
t114.5 -85.5t156.5 -30q61 0 111.5 14t96.5 45.5t77 59t80 78.5l62 -76q-180 -249 -464 -249q-109 0 -197 42t-146.5 111t-100 168.5t-63 204.5t-31.5 228zM1137 1922q0 56 -10 107t-32 98.5t-64 76t-99 28.5q-60 0 -110 -25.5t-85.5 -68t-64 -107t-46.5 -132.5t-31.5 -155
t-20 -164t-11 -170.5t-5.5 -163t-2.5 -152.5t-3.5 -130q113 105 197 192.5t160.5 185.5t124 188t75.5 190t28 202z" />
    <glyph glyph-name="trademark" unicode="&#x2122;" horiz-adv-x="3266" 
d="M1673 2330l536 -1197l527 1197h219v-1395h-129v1277l-2 1l-577 -1278h-89l-574 1279l-2 -1v-1278h-130v1395h221zM159 2330h1075v-115h-475v-1280h-125v1280h-475v115z" />
    <glyph glyph-name="Omega" unicode="&#x2126;" horiz-adv-x="2419" 
d="M2212 0h-718v112q80 55 154.5 129t144.5 178t122 222t83 266.5t31 306.5q0 146 -31.5 288.5t-98 273t-160.5 230t-228 158.5t-291 59q-151 0 -282.5 -50.5t-230 -143t-169.5 -218.5t-107 -280t-36 -325q0 -185 46.5 -361.5t124.5 -315t171 -244.5t193 -173v-112h-723v128
h526q-135 118 -239.5 280t-170.5 381t-66 455q0 241 74.5 448.5t203 352t307 227t381.5 82.5q168 0 318 -58.5t263 -162t195.5 -241t125 -300.5t42.5 -335q0 -183 -39 -358.5t-107 -318t-153 -257t-182 -195.5h526v-128z" />
    <glyph glyph-name="estimated" unicode="&#x212e;" horiz-adv-x="2809" 
d="M2261 496h206q-99 -120 -206 -212t-236 -163t-283.5 -108t-329.5 -37q-266 0 -493 84t-384 229.5t-246 348t-89 433.5q0 144 38.5 282t109.5 259.5t178.5 223.5t239.5 175t297.5 114t348.5 41q224 0 413 -54t328.5 -151.5t241 -234.5t159 -301.5t74.5 -353.5h-1898v-741
q280 -236 682 -236q534 0 849 402zM730 1809v-619h1368v619q-302 240 -686 240q-404 0 -682 -240z" />
    <glyph glyph-name="uni2190" unicode="&#x2190;" horiz-adv-x="2357" 
d="M2176 1045v-134h-1741l620 -703h-160l-713 770l713 771h160l-620 -704h1741z" />
    <glyph glyph-name="uni2191" unicode="&#x2191;" horiz-adv-x="1904" 
d="M1723 1262v-160l-703 620v-1741h-134v1741l-704 -620v160l771 713z" />
    <glyph glyph-name="uni2192" unicode="&#x2192;" horiz-adv-x="2357" 
d="M1302 1749h161l713 -771l-713 -770h-161l620 703h-1740v134h1740z" />
    <glyph glyph-name="uni2193" unicode="&#x2193;" horiz-adv-x="1904" 
d="M1020 1975v-1740l703 620v-160l-770 -714l-771 714v160l704 -620v1740h134z" />
    <glyph glyph-name="uni21E8" unicode="&#x21e8;" horiz-adv-x="2665" 
d="M2595 979l-1043 -1010v556h-1363v908h1363v555zM1715 688v-326l649 617l-649 617v-326h-1365v-582h1365z" />
    <glyph glyph-name="partialdiff" unicode="&#x2202;" horiz-adv-x="1725" 
d="M706 -24q-131 0 -235 54t-169 146t-99 209.5t-34 249.5q0 173 45.5 318t130 250t211.5 163.5t283 58.5q91 0 178 -28t152 -72t113 -93.5t74 -98.5h2q2 576 -142 846t-470 270q-94 0 -167 -24.5t-154 -70.5l-31 101q170 118 417 118q173 0 304 -80.5t212.5 -228.5
t122 -348.5t40.5 -449.5q0 -283 -53 -520t-151.5 -408t-247.5 -266.5t-332 -95.5zM859 1308q-129 0 -234.5 -55t-173 -148.5t-104 -214t-36.5 -254.5q0 -105 27 -201.5t78 -174t132.5 -123.5t182.5 -46q112 0 208 53t163 140t117.5 204t78 240t37.5 252q-186 328 -476 328z
" />
    <glyph glyph-name="Delta" unicode="&#x2206;" horiz-adv-x="2081" 
d="M1150 2330l790 -2198v-132h-1798v126l805 2204h203zM290 129h1497l-744 2075z" />
    <glyph glyph-name="product" unicode="&#x220f;" horiz-adv-x="2570" 
d="M1885 2265h-1196v-2710h-140v2710h-410v135h2292v-135h-406v-2710h-140v2710z" />
    <glyph glyph-name="summation" unicode="&#x2211;" horiz-adv-x="1963" 
d="M292 -307h1557v-139h-1733v136l1002 1298l-961 1289v123h1636v-129h-1450l962 -1269z" />
    <glyph glyph-name="minus" unicode="&#x2212;" horiz-adv-x="1956" 
d="M182 912v133h1593v-133h-1593z" />
    <glyph glyph-name="uni2215" unicode="&#x2215;" horiz-adv-x="493" 
d="M1003 2378l-1369 -2426h-144l1368 2426h145z" />
    <glyph glyph-name="uni2219" unicode="&#x2219;" horiz-adv-x="668" 
d="M333 1091q47 0 64.5 -31.5t17.5 -106.5t-16.5 -104t-65.5 -29t-65 28.5t-16 104.5t17 107t64 31z" />
    <glyph glyph-name="radical" unicode="&#x221a;" horiz-adv-x="1796" 
d="M85 1291l374 147l453 -1404l622 2773h143l-673 -2957h-169l-485 1412l-228 -90z" />
    <glyph glyph-name="infinity" unicode="&#x221e;" horiz-adv-x="2633" 
d="M1207 1095q54 69 90 113.5t86 100.5t88.5 91.5t88 73t94.5 58.5t97.5 34.5t107.5 13.5q122 0 223 -49.5t166.5 -133.5t101 -191.5t35.5 -226.5q0 -118 -35.5 -226t-101 -192t-166.5 -134t-223 -50q-55 0 -108.5 14.5t-98.5 35t-95.5 60t-88 73.5t-89 92t-84.5 98.5
t-88 109.5q-129 -175 -272.5 -266.5t-289.5 -91.5q-123 0 -224 68t-156 176.5t-55 232.5t55 233.5t156 178t224 68.5q287 0 562 -364zM1134 979q-149 192 -264 270.5t-225 78.5q-134 0 -222 -94.5t-88 -254.5q0 -159 88 -252.5t222 -93.5q111 0 225.5 77.5t263.5 268.5z
M1290 979q43 -65 82 -118.5t100 -122t118 -115t129 -79t140 -32.5q172 0 280 123t108 344t-108 344t-280 123q-68 0 -140 -32.5t-129 -79t-118 -115t-100 -122t-82 -118.5z" />
    <glyph glyph-name="integral" unicode="&#x222b;" horiz-adv-x="1099" 
d="M-30 -354q101 -49 185 -49q118 0 198.5 84t118.5 231t38 349q0 255 -29 822.5t-29 819.5q0 82 5.5 156t21 154.5t40 147t65 128t93 104t126.5 67.5t164 25q43 0 100.5 -14t78.5 -28l-38 -128q-24 15 -63.5 26.5t-73.5 11.5q-72 0 -130 -24t-96 -61.5t-66 -95.5
t-43 -113.5t-23.5 -128.5t-10.5 -127t-2 -122q0 -263 30 -807t30 -824q0 -73 -6.5 -145t-22.5 -151.5t-40.5 -149.5t-64 -134t-89.5 -110t-120 -73.5t-153 -27.5q-59 0 -126 16t-102 35z" />
    <glyph glyph-name="approxequal" unicode="&#x2248;" horiz-adv-x="2181" 
d="M1904 779v-138q-77 -83 -198.5 -125t-247.5 -42q-84 0 -163 21.5t-142.5 52t-127 61.5t-141.5 52.5t-161 21.5q-126 0 -247.5 -42t-198.5 -125v138q77 83 198.5 125t247.5 42q84 0 163.5 -21.5t143 -52.5t126.5 -61.5t141.5 -52t160.5 -21.5q125 0 247 42.5t199 124.5z
M1904 1441v-139q-77 -83 -198.5 -125t-247.5 -42q-84 0 -163 21.5t-142.5 52t-127 61.5t-141.5 52.5t-161 21.5q-126 0 -247.5 -42t-198.5 -125v139q77 83 198.5 125t247.5 42q84 0 163.5 -21.5t143 -52t126.5 -61.5t141.5 -52.5t160.5 -21.5q126 0 247.5 42t198.5 125z" />
    <glyph glyph-name="notequal" unicode="&#x2260;" horiz-adv-x="2147" 
d="M697 -15h-119l261 595h-562v132h620l233 530h-853v132h911l262 597h119l-262 -597h563v-132h-621l-233 -530h854v-132h-912z" />
    <glyph glyph-name="lessequal" unicode="&#x2264;" horiz-adv-x="2014" 
d="M232 1085v143l1522 702v-157l-1374 -617l1374 -615v-157zM232 27v134h1522v-134h-1522z" />
    <glyph glyph-name="greaterequal" unicode="&#x2265;" horiz-adv-x="2014" 
d="M260 1930l1522 -702v-143l-1522 -701v157l1374 615l-1374 617v157zM260 27v134h1522v-134h-1522z" />
    <glyph glyph-name="lozenge" unicode="&#x25ca;" horiz-adv-x="1694" 
d="M936 2375l589 -1207l-589 -1212h-177l-590 1212l590 1207h177zM326 1168l521 -1089l521 1089l-521 1091z" />
    <glyph glyph-name="zero.numerator" horiz-adv-x="1248" 
d="M623 2342q117 0 200 -28t136 -79.5t84 -138t42.5 -189t11.5 -247.5t-11.5 -247.5t-42.5 -189.5t-84 -138.5t-136 -79.5t-200 -28t-200 28t-136 79.5t-83 138.5t-41.5 189t-11.5 248q0 145 11.5 247t41.5 189t83 138.5t136 79.5t200 28zM623 2244q-58 0 -105 -9.5
t-82.5 -24t-63 -42t-46 -54.5t-31.5 -69.5t-20 -79.5t-11 -93.5t-5 -100.5t-1 -111t1 -111.5t5 -100.5t11 -93t20 -80t32 -70t46.5 -54t63 -41.5t82.5 -24t104 -9.5t104 9t83 24t63.5 42t46.5 54.5t32 69.5t20.5 79.5t11.5 93t5 101t1 111.5t-1 111t-5 101t-11.5 93
t-20.5 79.5t-32 70t-46.5 54t-63.5 42t-83 24.5t-104 9z" />
    <glyph glyph-name="one.numerator" horiz-adv-x="686" 
d="M500 996h-105v1210q-183 -53 -345 -79l-6 97q97 16 201.5 47t174.5 62h80v-1337z" />
    <glyph glyph-name="two.numerator" horiz-adv-x="1035" 
d="M934 1088v-99h-855q18 103 33 171t37 135.5t49 111.5t67 87t92 74.5t123 61.5q348 149 348 372q0 130 -88.5 184t-290.5 54q-153 0 -340 -30l-11 93q215 37 387 37q450 0 450 -308q0 -92 -27 -167t-80 -132.5t-120.5 -101t-159.5 -81.5q-88 -37 -148 -81.5t-97.5 -103
t-58 -122.5t-34.5 -155h724z" />
    <glyph glyph-name="three.numerator" horiz-adv-x="1049" 
d="M428 2342q79 0 142 -7t125.5 -27t104 -53.5t67 -90t25.5 -132.5q0 -250 -196 -336q88 -32 154 -115.5t66 -204.5q0 -113 -34 -191.5t-101 -123.5t-155 -64.5t-208 -19.5q-193 0 -360 34l14 96q218 -30 309 -30q223 0 324.5 64t101.5 225q0 113 -73 184t-188 83
q-70 7 -152 7q-38 0 -114 -2v93q148 2 265 20q109 17 174.5 86t65.5 162q0 48 -10 85t-26 62.5t-44 43.5t-57 28t-72.5 16t-82 7.5t-94.5 1.5q-134 0 -315 -29l-12 94q185 34 356 34z" />
    <glyph glyph-name="four.numerator" horiz-adv-x="1179" 
d="M1082 1413v-95h-191v-329h-107v329h-612q-103 0 -103 81q0 42 61 119l579 747q58 75 116 75q66 0 66 -82v-845h191zM784 1413v779l-603 -779h603z" />
    <glyph glyph-name="five.numerator" horiz-adv-x="1065" 
d="M98 1015l13 96q163 -29 318 -29q228 0 324.5 71t96.5 256q0 72 -22.5 123t-60 82t-102.5 48t-134.5 23t-170.5 6q-130 0 -235 -7l44 646h749v-98h-649l-31 -448q84 6 161 6q76 0 134 -3.5t118.5 -14t104 -28.5t83.5 -47.5t64.5 -70t39 -98t14.5 -129.5
q0 -222 -120 -320.5t-361 -98.5q-186 0 -378 35z" />
    <glyph glyph-name="six.numerator" horiz-adv-x="1200" 
d="M634 1803q90 0 157.5 -10.5t126 -37.5t95.5 -72.5t58 -117t21 -168.5q0 -123 -34 -207t-101.5 -130t-152.5 -64.5t-204 -18.5q-111 0 -192 25.5t-132 69.5t-81.5 114.5t-42 150t-11.5 185.5q0 163 12.5 278.5t45.5 211t86 155.5t138 101t197.5 57.5t268.5 16.5
q34 0 93 -1l9 -95q-232 -6 -309 -16q-212 -28 -310 -136q-98 -109 -113 -320q247 29 375 29zM985 1400q0 96 -23.5 157t-76 93t-119.5 43.5t-173 11.5q-91 0 -342 -33q-4 -61 -4 -178q0 -71 6.5 -125.5t28 -112t58 -95t101.5 -61.5t154 -24q215 0 302.5 74t87.5 250z" />
    <glyph glyph-name="seven.numerator" horiz-adv-x="991" 
d="M808 2232h-766v96h786q98 0 98 -64q0 -21 -14 -51l-566 -1221h-117z" />
    <glyph glyph-name="eight.numerator" horiz-adv-x="1210" 
d="M130 1348q0 256 221 339q-108 51 -153.5 130.5t-45.5 198.5q0 156 112 241t339 85q224 0 339 -85.5t115 -240.5q0 -120 -46 -199.5t-156 -130.5q225 -86 225 -340q0 -88 -25.5 -154t-68 -106.5t-105.5 -65.5t-129 -34t-149 -9q-84 0 -153 11t-129.5 37.5t-102 68.5
t-65 106t-23.5 148zM973 1354q0 73 -28.5 126t-82 84.5t-119 47.5t-151.5 21q-83 -8 -142 -23.5t-110 -45.5t-77 -82.5t-26 -127.5q0 -81 28.5 -137.5t81.5 -86t114.5 -42t141.5 -12.5q66 0 117.5 6.5t100.5 25t81 48.5t51.5 80.5t19.5 117.5zM259 1993q0 -53 19 -96t51 -72
t78.5 -49.5t97 -31.5t109.5 -15q56 7 101.5 18t91 31.5t75.5 48t49 70t19 96.5q0 59 -19 104t-50 72.5t-77 44.5t-94 23.5t-107 6.5q-74 0 -131.5 -11t-108 -37.5t-77.5 -77.5t-27 -125z" />
    <glyph glyph-name="nine.numerator" horiz-adv-x="1195" 
d="M556 1516q-90 0 -157.5 10.5t-126 37.5t-95.5 72.5t-58 117t-21 168.5q0 123 34 207t101.5 130t152.5 64.5t204 18.5q111 0 192 -25.5t132 -69.5t81.5 -114.5t42 -150t11.5 -185.5q0 -163 -12.5 -278.5t-45.5 -211t-86 -155.5t-138 -101t-197.5 -57.5t-268.5 -16.5
q-34 0 -93 1l-9 95q232 6 309 16q212 28 310 136q98 110 113 320q-247 -29 -375 -29zM205 1919q0 -96 23.5 -157t76 -93t119.5 -43.5t173 -11.5q91 0 342 33q4 61 4 178q0 71 -6.5 125.5t-28 112t-58 95t-101.5 61.5t-154 24q-215 0 -302.5 -74t-87.5 -250z" />
    <glyph glyph-name="zero.denominator" horiz-adv-x="1248" 
d="M623 1353q117 0 200 -28t136 -79.5t84 -138t42.5 -189t11.5 -247.5t-11.5 -247.5t-42.5 -189.5t-84 -138.5t-136 -79.5t-200 -28t-200 28t-136 79.5t-83 138.5t-41.5 189t-11.5 248q0 145 11.5 247t41.5 189t83 138.5t136 79.5t200 28zM623 1255q-58 0 -105 -9.5
t-82.5 -24t-63 -42t-46 -54.5t-31.5 -69.5t-20 -79.5t-11 -93.5t-5 -100.5t-1 -111t1 -111.5t5 -100.5t11 -93t20 -80t32 -70t46.5 -54t63 -41.5t82.5 -24t104 -9.5t104 9t83 24t63.5 42t46.5 54.5t32 69.5t20.5 79.5t11.5 93t5 101t1 111.5t-1 111t-5 101t-11.5 93
t-20.5 79.5t-32 70t-46.5 54t-63.5 42t-83 24.5t-104 9z" />
    <glyph glyph-name="one.denominator" horiz-adv-x="686" 
d="M500 7h-105v1210q-183 -53 -345 -79l-6 97q97 16 201.5 47t174.5 62h80v-1337z" />
    <glyph glyph-name="two.denominator" horiz-adv-x="1035" 
d="M934 99v-99h-855q18 103 33 171t37 135.5t49 111.5t67 87t92 74.5t123 61.5q348 149 348 372q0 130 -88.5 184t-290.5 54q-153 0 -340 -30l-11 93q215 37 387 37q450 0 450 -308q0 -92 -27 -167t-80 -132.5t-120.5 -101t-159.5 -81.5q-88 -37 -148 -81.5t-97.5 -103
t-58 -122.5t-34.5 -155h724z" />
    <glyph glyph-name="three.denominator" horiz-adv-x="1049" 
d="M428 1353q79 0 142 -7t125.5 -27t104 -53.5t67 -90t25.5 -132.5q0 -250 -196 -336q88 -32 154 -115.5t66 -204.5q0 -113 -34 -191.5t-101 -123.5t-155 -64.5t-208 -19.5q-193 0 -360 34l14 96q218 -30 309 -30q223 0 324.5 64t101.5 225q0 113 -73 184t-188 83
q-70 7 -152 7q-38 0 -114 -2v93q148 2 265 20q109 17 174.5 86t65.5 162q0 48 -10 85t-26 62.5t-44 43.5t-57 28t-72.5 16t-82 7.5t-94.5 1.5q-134 0 -315 -29l-12 94q185 34 356 34z" />
    <glyph glyph-name="four.denominator" horiz-adv-x="1179" 
d="M1082 424v-95h-191v-329h-107v329h-612q-103 0 -103 81q0 42 61 119l579 747q58 75 116 75q66 0 66 -82v-845h191zM784 424v779l-603 -779h603z" />
    <glyph glyph-name="five.denominator" horiz-adv-x="1065" 
d="M98 26l13 96q163 -29 318 -29q228 0 324.5 71t96.5 256q0 72 -22.5 123t-60 82t-102.5 48t-134.5 23t-170.5 6q-130 0 -235 -7l44 646h749v-98h-649l-31 -448q84 6 161 6q76 0 134 -3.5t118.5 -14t104 -28.5t83.5 -47.5t64.5 -70t39 -98t14.5 -129.5q0 -222 -120 -320.5
t-361 -98.5q-186 0 -378 35z" />
    <glyph glyph-name="six.denominator" horiz-adv-x="1200" 
d="M634 814q90 0 157.5 -10.5t126 -37.5t95.5 -72.5t58 -117t21 -168.5q0 -123 -34 -207t-101.5 -130t-152.5 -64.5t-204 -18.5q-111 0 -192 25.5t-132 69.5t-81.5 114.5t-42 150t-11.5 185.5q0 163 12.5 278.5t45.5 211t86 155.5t138 101t197.5 57.5t268.5 16.5q34 0 93 -1
l9 -95q-232 -6 -309 -16q-212 -28 -310 -136q-98 -109 -113 -320q247 29 375 29zM985 411q0 96 -23.5 157t-76 93t-119.5 43.5t-173 11.5q-91 0 -342 -33q-4 -61 -4 -178q0 -71 6.5 -125.5t28 -112t58 -95t101.5 -61.5t154 -24q215 0 302.5 74t87.5 250z" />
    <glyph glyph-name="seven.denominator" horiz-adv-x="991" 
d="M808 1243h-766v96h786q98 0 98 -64q0 -21 -14 -51l-566 -1221h-117z" />
    <glyph glyph-name="eight.denominator" horiz-adv-x="1210" 
d="M130 359q0 256 221 339q-108 51 -153.5 130.5t-45.5 198.5q0 156 112 241t339 85q224 0 339 -85.5t115 -240.5q0 -120 -46 -199.5t-156 -130.5q225 -86 225 -340q0 -88 -25.5 -154t-68 -106.5t-105.5 -65.5t-129 -34t-149 -9q-84 0 -153 11t-129.5 37.5t-102 68.5
t-65 106t-23.5 148zM973 365q0 73 -28.5 126t-82 84.5t-119 47.5t-151.5 21q-83 -8 -142 -23.5t-110 -45.5t-77 -82.5t-26 -127.5q0 -81 28.5 -137.5t81.5 -86t114.5 -42t141.5 -12.5q66 0 117.5 6.5t100.5 25t81 48.5t51.5 80.5t19.5 117.5zM259 1004q0 -53 19 -96t51 -72
t78.5 -49.5t97 -31.5t109.5 -15q56 7 101.5 18t91 31.5t75.5 48t49 70t19 96.5q0 59 -19 104t-50 72.5t-77 44.5t-94 23.5t-107 6.5q-74 0 -131.5 -11t-108 -37.5t-77.5 -77.5t-27 -125z" />
    <glyph glyph-name="nine.denominator" horiz-adv-x="1195" 
d="M556 527q-90 0 -157.5 10.5t-126 37.5t-95.5 72.5t-58 117t-21 168.5q0 123 34 207t101.5 130t152.5 64.5t204 18.5q111 0 192 -25.5t132 -69.5t81.5 -114.5t42 -150t11.5 -185.5q0 -163 -12.5 -278.5t-45.5 -211t-86 -155.5t-138 -101t-197.5 -57.5t-268.5 -16.5
q-34 0 -93 1l-9 95q232 6 309 16q212 28 310 136q98 110 113 320q-247 -29 -375 -29zM205 930q0 -96 23.5 -157t76 -93t119.5 -43.5t173 -11.5q91 0 342 33q4 61 4 178q0 71 -6.5 125.5t-28 112t-58 95t-101.5 61.5t-154 24q-215 0 -302.5 -74t-87.5 -250z" />
    <glyph glyph-name="zero.onum" horiz-adv-x="1919" 
d="M958 -24q-129 0 -230 20.5t-177 58t-131 99.5t-91 137.5t-57.5 180t-30 217.5t-8.5 260t8.5 260t30 217.5t57.5 180t91 137.5t131 99.5t177 58t230 20.5t230.5 -20t178 -58t132 -100t92 -137.5t58 -180t30 -218t8.5 -259.5t-8.5 -259.5t-30 -218t-58 -180t-92 -137.5
t-132 -100t-178 -58t-230.5 -20zM958 102q118 0 209.5 22t154 57t106 98t68 125t37.5 159.5t16.5 179.5t3.5 206t-3.5 206t-16.5 179.5t-37.5 159.5t-68 125t-106 98t-154 57t-209.5 22q-104 0 -186.5 -15t-142.5 -48t-104 -71.5t-72.5 -102t-46 -121t-25.5 -146.5
t-10.5 -161.5t-2.5 -181.5t2.5 -181.5t10.5 -161.5t25.5 -146.5t46 -121t72.5 -102t104 -71.5t142.5 -48t186.5 -15z" />
    <glyph glyph-name="one.onum" horiz-adv-x="1113" 
d="M811 0h-137v1729q-321 -96 -595 -141l-7 129q160 26 334.5 78.5t293.5 104.5h111v-1900z" />
    <glyph glyph-name="two.onum" horiz-adv-x="1701" 
d="M1536 129v-129h-1406q23 109 41.5 186.5t43.5 157.5t51.5 135.5t63.5 112t80 97.5t101 81t128 73t158 64q603 215 603 537q0 190 -154.5 268t-509.5 78q-261 0 -556 -40l-18 124q343 48 635 48q740 0 740 -435q0 -130 -46 -236.5t-135 -189t-200.5 -144t-261.5 -116.5
q-147 -54 -250.5 -119.5t-170.5 -150t-105 -179.5t-60 -223h1228z" />
    <glyph glyph-name="three.onum" horiz-adv-x="1607" 
d="M653 1922q122 0 218 -10.5t192 -41.5t160 -82t103.5 -137.5t39.5 -202.5q0 -195 -86 -329.5t-246 -199.5q66 -17 128.5 -56t117.5 -99t89 -150t34 -195q0 -140 -35 -245.5t-98 -175t-159.5 -113t-211.5 -62t-262 -18.5q-307 0 -549 50l19 127q332 -45 472 -45
q178 0 301 22.5t211 76t129.5 144t41.5 224.5q0 182 -118.5 297t-304.5 133q-105 10 -255 10q-98 0 -148 -1v120q214 5 403 32q178 27 283 138t105 263q0 68 -11 122t-34.5 94t-52.5 69.5t-74 49t-88.5 31.5t-107 18.5t-119 8.5t-133.5 2q-204 0 -481 -43l-17 124
q147 27 262 38.5t282 11.5z" />
    <glyph glyph-name="four.onum" horiz-adv-x="1814" 
d="M1228 -173v515h-974q-147 0 -147 116q0 62 92 180l907 1171q89 113 171 113q89 0 89 -116v-1338h299v-126h-299v-515h-138zM1228 1743l-987 -1275h987v1275z" />
    <glyph glyph-name="five.onum" horiz-adv-x="1632" 
d="M150 -143l18 127q233 -44 486 -44q184 0 307 25t207.5 86t122 162t37.5 253q0 73 -13 132.5t-40.5 105t-63.5 80t-89.5 58.5t-111.5 39.5t-135 24.5t-154 12.5t-176 3.5q-190 0 -352 -11l66 989h1147v-129h-1018q-8 -122 -25 -364.5t-25 -364.5q160 10 269 10
q117 0 206.5 -5.5t182.5 -21.5t160.5 -43.5t129 -72.5t99.5 -107.5t60 -151t22 -199.5q0 -175 -47.5 -299.5t-143.5 -200.5t-230.5 -111t-318.5 -35q-302 0 -577 52z" />
    <glyph glyph-name="six.onum" horiz-adv-x="1845" 
d="M976 1248q115 0 204.5 -11.5t171.5 -38t140 -73t101.5 -115t64.5 -166t21 -222.5q0 -153 -35.5 -266.5t-97.5 -185.5t-159 -116t-208 -61t-256 -17q-122 0 -220.5 20t-172 56.5t-128 93t-89.5 124t-57 156.5t-30.5 183t-8.5 210q0 253 19.5 432.5t71 328t133.5 241.5
t214 156.5t306 89.5t415 26q41 0 132 -2l13 -125q-313 -9 -395 -15q-299 -24 -460 -125q-232 -145 -283 -502q-8 -60 -12 -125q388 49 605 49zM355 774q0 -79 5 -143.5t20 -136t40 -126t67.5 -106t100 -84.5t141 -53t186.5 -20q235 0 371.5 54t195.5 166t59 302
q0 89 -13 158.5t-37.5 121t-65 88.5t-89 61t-116.5 37.5t-140.5 19t-167.5 5.5q-152 0 -552 -53q-5 -81 -5 -218v-73z" />
    <glyph glyph-name="seven.onum" horiz-adv-x="1521" 
d="M366 -173l909 1947h-1211v126h1219q139 0 139 -88q0 -33 -20 -76l-885 -1909h-151z" />
    <glyph glyph-name="eight.onum" horiz-adv-x="1859" 
d="M1289 1075q371 -118 371 -533q0 -97 -20 -177t-55.5 -138t-88.5 -102.5t-114 -72t-137 -45t-152 -24.5t-165 -7q-129 0 -235 16.5t-199.5 57.5t-157 105t-100 163t-36.5 228q0 415 363 531q-179 77 -253.5 202t-74.5 314q0 240 171.5 370t521.5 130q343 0 520 -131.5
t177 -368.5q0 -190 -77 -315.5t-259 -202.5zM928 106q87 0 158.5 7.5t141 25.5t121.5 51.5t92 82t61 119.5t21 162q0 96 -31 170.5t-84 123.5t-132.5 83t-167.5 50.5t-198 23.5q-106 -11 -185.5 -27.5t-156 -49t-124.5 -80t-77.5 -122t-29.5 -172.5q0 -105 31.5 -185
t84 -129t130 -80t160.5 -42.5t185 -11.5zM928 1964q-78 0 -144 -7.5t-130.5 -24t-114 -47.5t-88 -74.5t-58.5 -107.5t-20 -145q0 -87 30.5 -156t82.5 -116t126.5 -80t156 -50.5t177.5 -24.5q91 11 164 28.5t146 50.5t122 77.5t79.5 114t30.5 156.5q0 96 -30.5 168.5t-81 117
t-125 72t-152 38t-171.5 10.5z" />
    <glyph glyph-name="nine.onum" horiz-adv-x="1838" 
d="M854 650q-115 0 -204.5 11.5t-171.5 38t-140 73t-101.5 115t-64.5 166t-21 222.5q0 153 35.5 266.5t97.5 185.5t159 116t208 61t256 17q122 0 220.5 -20t172 -56.5t128 -93t89.5 -124t57 -156.5t30.5 -183t8.5 -210q0 -253 -19.5 -432.5t-71 -328t-133.5 -241.5
t-214 -156.5t-306 -89.5t-415 -26q-41 0 -132 2l-13 125q313 9 395 15q299 24 460 125q232 145 283 502q8 59 12 125q-388 -49 -605 -49zM1475 1124q0 79 -5 143.5t-20 136t-40 126t-67.5 106t-100 84.5t-141 53t-186.5 20q-235 0 -371.5 -54t-195.5 -166t-59 -302
q0 -89 13 -158.5t37.5 -121t65 -88.5t89 -61t116.5 -37.5t140.5 -19t167.5 -5.5q152 0 552 53q5 101 5 218v73z" />
    <glyph glyph-name="dollar.onum" horiz-adv-x="1510" 
d="M167 139q229 -37 474 -37q108 0 192 11t160 40t126 76.5t79 123.5t29 179q0 98 -33.5 171t-104.5 127.5t-158.5 93t-218.5 78.5q-76 23 -128.5 40.5t-112.5 41.5t-100.5 48t-82.5 55.5t-68.5 68t-48 81.5t-31.5 100.5t-10 121.5q0 264 141 387.5t425 142.5v290h127v-286
q251 0 488 -38l-14 -121q-198 32 -393 32q-102 0 -182.5 -6.5t-155 -22t-127.5 -42.5t-93 -67t-59.5 -97.5t-19.5 -131.5q0 -76 7 -127t31 -96t56 -75t96 -61.5t136.5 -56.5t190.5 -60q102 -30 179 -61t157 -80t131.5 -107.5t84 -143.5t32.5 -188q0 -268 -142 -401.5
t-424 -158.5v-293h-127v287q-5 0 -13.5 -0.5t-12.5 -0.5q-164 0 -269.5 9t-227.5 33z" />
    <glyph glyph-name="cent.onum" horiz-adv-x="1319" 
d="M837 220v-283h-124v289q-107 12 -191 47.5t-142 92.5t-97.5 127.5t-61.5 162.5t-31.5 186.5t-9.5 210.5q0 149 13 259t48 207.5t94.5 161t153.5 106t224 56.5v290h124v-283q5 0 14 0.5t13 0.5q165 0 322 -38l-11 -111q-147 22 -260 22q-91 0 -165 -8.5t-132.5 -23.5
t-103 -41.5t-76.5 -56t-54.5 -75t-36.5 -90t-21.5 -108.5t-10 -124.5t-2.5 -143.5q0 -144 9.5 -237.5t43.5 -191t97 -152.5t174 -90t270 -35q93 0 268 34l14 -120q-85 -15 -121 -21t-102.5 -13t-128.5 -7z" />
    <glyph glyph-name="Euro.onum" horiz-adv-x="1560" 
d="M523 1290h737l-29 -123h-713q-1 -43 -1 -133q0 -74 1 -109h660l-27 -122h-629q6 -123 21 -216t43.5 -174.5t72.5 -137.5t107.5 -96t149.5 -59t197 -19q133 0 314 32l11 -117q-183 -40 -370 -40q-148 0 -258 32t-187.5 94t-127.5 163.5t-76 231t-35 306.5h-231l27 122h200
q-1 35 -1 109q0 90 1 133h-209l28 123h187q10 171 37 297.5t77 225t127.5 158.5t186 91t254.5 31q191 0 371 -36l-13 -122q-191 33 -313 33q-134 0 -232 -28t-163.5 -79.5t-106.5 -137t-60.5 -188t-27.5 -245.5z" />
    <glyph glyph-name="sterling.onum" horiz-adv-x="1718" 
d="M1119 1108v-123h-482q21 -150 21 -272q0 -102 -8.5 -178t-33.5 -150t-44.5 -118t-66.5 -138h632q212 0 450 32l14 -119q-294 -42 -646 -42h-554q-73 0 -73 61q0 18 20 59.5t48 99t56.5 126t48.5 159.5t20 180q0 117 -28 300h-328v123h309q-38 239 -38 451q0 125 37 220
t99 154.5t153.5 96.5t190.5 51t221 14q283 0 462 -170l-76 -88q-164 129 -375 129q-135 0 -232.5 -19t-163.5 -55t-105 -96t-55.5 -135.5t-16.5 -178.5q0 -22 1 -46.5t2.5 -44t5 -48.5t5 -44t6.5 -49t7 -45t8.5 -49.5t7.5 -47.5h501z" />
    <glyph glyph-name="yen.onum" horiz-adv-x="1576" 
d="M129 2073h152l505 -1094l514 1094h147l-553 -1174h328v-122h-370v-204h370v-122h-370v-451h-138v451h-361v122h361v204h-361v122h320z" />
    <glyph glyph-name="zero.tnum" 
d="M1776 1130q0 -151 -7 -272t-24.5 -234.5t-46.5 -199.5t-72.5 -161t-103 -126.5t-138.5 -88.5t-178.5 -54.5t-222.5 -17.5t-222.5 17.5t-177.5 54.5t-137.5 88.5t-102.5 126.5t-71.5 161t-45.5 199.5t-24 234t-7 272.5t7 272.5t24 234t45.5 199.5t71.5 161t102.5 126.5
t137.5 88.5t177.5 54.5t222.5 17.5t222.5 -17.5t178.5 -54.5t138.5 -88.5t103 -126.5t72.5 -161t46.5 -199.5t24.5 -234.5t7 -272zM334 1130q0 -117 2 -195t8.5 -176.5t19.5 -163t36 -139.5t56.5 -122.5t82 -95t112 -73.5t147 -42.5t185.5 -16.5q131 0 231.5 27t169.5 69
t117 119t74.5 151t40.5 193t17.5 216.5t3.5 248.5q0 116 -2 195t-9 177t-20.5 163t-37 139.5t-57 122.5t-82.5 95t-112.5 73.5t-147.5 42.5t-186 16t-186 -16.5t-147 -42.5t-111.5 -73.5t-82 -94.5t-56.5 -122.5t-36 -139.5t-20 -163t-8.5 -176.5t-1.5 -195.5z" />
    <glyph glyph-name="one.tnum" 
d="M1129 2260h111v-2260h-137v2089q-321 -96 -595 -141l-7 129q160 26 334.5 78.5t293.5 104.5z" />
    <glyph glyph-name="two.tnum" 
d="M1679 0h-1423q22 127 40.5 217.5t43.5 184t51.5 158.5t63.5 131.5t81 114.5t102.5 96t129.5 87t161 77q102 43 186 89t165.5 107.5t137 128.5t89.5 152t34 179q0 235 -157 332t-517 97q-277 0 -565 -48l-15 122q348 59 642 59q751 0 751 -510q0 -155 -45.5 -281
t-134.5 -222.5t-203 -169.5t-269 -138q-127 -53 -221 -117t-157 -134t-106.5 -163.5t-68.5 -190t-44 -228.5h1248v-130z" />
    <glyph glyph-name="three.tnum" 
d="M821 2284q93 0 171 -5.5t159 -20.5t145 -39t121.5 -64t96 -92.5t60.5 -126.5t22 -165q0 -451 -374 -580v-2q70 -14 140 -55.5t133 -107.5t102.5 -166t39.5 -217q0 -152 -38 -266.5t-107 -190t-174 -123t-230 -67.5t-285 -20q-329 0 -594 54l18 127q13 -2 79.5 -10.5
t89 -11.5t80.5 -9.5t92 -9t82 -5t90 -2.5q196 0 332.5 25t234 84.5t143 159.5t45.5 248q0 205 -130.5 331.5t-339.5 145.5q-121 11 -315 11q-82 0 -121 -1v120q224 5 436 36q198 30 314.5 152.5t116.5 292.5q0 67 -10.5 122t-28.5 97t-48.5 75t-63 56t-81 39t-94 25.5
t-109 15t-119 7t-131.5 1.5q-219 0 -523 -46l-16 124q160 29 284.5 41.5t304.5 12.5z" />
    <glyph glyph-name="four.tnum" 
d="M1343 0v565h-1074q-155 0 -155 121q0 64 100 193l995 1284q94 121 182 121q92 0 92 -121v-1472h327v-126h-327v-565h-140zM1343 2112l-1101 -1421h1101v1421z" />
    <glyph glyph-name="five.tnum" 
d="M262 32l17 127q258 -47 528 -47q203 0 339 28t229.5 95.5t135 179t41.5 280.5q0 93 -20 165.5t-55.5 125.5t-94 91t-125.5 62t-160.5 37.5t-188.5 18.5t-220 5q-208 0 -380 -12l72 1072h1245v-130h-1115l-56 -810q180 11 301 11q127 0 224.5 -6t199 -23.5t175 -47
t140.5 -79t108.5 -117.5t65.5 -163.5t24 -216.5q0 -190 -52 -325.5t-156 -218t-250.5 -120.5t-346.5 -38q-325 0 -625 56z" />
    <glyph glyph-name="six.tnum" 
d="M1043 1358q124 0 222 -12.5t187 -41.5t152.5 -79.5t110.5 -125t70 -179.5t23 -241q0 -119 -19.5 -216.5t-56 -170t-92 -127t-122 -90.5t-152.5 -58t-178 -31.5t-203 -9.5q-133 0 -240 21.5t-186.5 61.5t-139 101.5t-98 135t-62 170.5t-33 199.5t-9.5 228.5
q0 206 11.5 364.5t40.5 299t75 242t117.5 186t165 138.5t221.5 91t282 53t351 16q39 0 139 -2l13 -125q-333 -9 -424 -17q-321 -26 -496 -130q-250 -149 -316 -508q-17 -92 -23 -198q436 54 669 54zM1669 684q0 115 -18.5 200.5t-59.5 145.5t-95.5 98.5t-137 60t-172.5 30
t-213 8.5q-166 0 -610 -58q-7 -128 -7 -267v-57q0 -88 5.5 -159t22 -150t44 -139t75 -117t111.5 -93.5t156 -58.5t206 -22q259 0 410 59.5t217 183.5t66 335z" />
    <glyph glyph-name="seven.tnum" 
d="M562 0l995 2134h-1329v126h1330q146 0 146 -90q0 -34 -22 -81l-968 -2089h-152z" />
    <glyph glyph-name="eight.tnum" 
d="M1780 590q0 -106 -22 -192.5t-60.5 -149.5t-96.5 -111t-124 -78t-149 -49t-165.5 -26.5t-179.5 -7.5q-141 0 -256 18.5t-216.5 62.5t-170.5 113.5t-109 177t-40 247.5q0 127 32.5 228t91 169t129.5 112.5t159 71.5q-204 83 -288.5 220t-84.5 346q0 260 186.5 401
t566.5 141q373 0 565.5 -142.5t192.5 -399.5q0 -140 -34.5 -243t-119.5 -186t-226 -139q89 -28 161 -72.5t132 -113.5t93 -170t33 -228zM963 1103q-82 -8 -148.5 -19t-134 -30t-118.5 -45t-96 -64t-74 -86t-45.5 -112.5t-16.5 -142.5q0 -98 23.5 -176t68 -131.5t102 -91
t133.5 -59t154.5 -30.5t171.5 -9q117 0 208.5 11.5t179 44.5t144.5 87t91.5 143.5t34.5 210.5q0 106 -34 188.5t-93 137t-146.5 92t-185.5 56t-219 25.5zM1003 1230q70 9 130.5 21t123 31.5t112 45t94.5 62t74.5 81t47 103.5t17.5 129q0 106 -34 187t-89.5 130.5t-137.5 80
t-168 42t-190 11.5q-105 0 -190 -11t-166.5 -41.5t-136 -80t-88 -130.5t-33.5 -188q0 -96 34 -173t91.5 -128.5t140 -88.5t172.5 -56t196 -27z" />
    <glyph glyph-name="nine.tnum" 
d="M914 902q-124 0 -222 12.5t-187 41.5t-152.5 79.5t-110.5 125t-70 179.5t-23 241q0 119 19.5 216.5t56 170t92 127t122 90.5t152.5 58t178 31.5t203 9.5q133 0 240 -21.5t186.5 -61.5t139 -101.5t98 -135t62 -170.5t33 -199.5t9.5 -228.5q0 -206 -11.5 -364.5t-40.5 -299
t-75 -242t-117.5 -186t-165 -138.5t-221.5 -91t-282 -53t-351 -16q-39 0 -139 2l-13 125q333 9 424 17q321 26 496 130q250 149 316 508q17 92 23 198q-436 -54 -669 -54zM288 1576q0 -115 18.5 -200.5t59.5 -145.5t95.5 -98.5t137 -60t172.5 -30t213 -8.5q166 0 610 58
q7 128 7 267v57q0 88 -5.5 159t-22 150t-44 139t-75 117t-111.5 93.5t-156 58.5t-206 22q-259 0 -410 -59.5t-217 -183.5t-66 -335z" />
    <glyph glyph-name="dollar.tnum" 
d="M1031 -17v-320h-128v314q-5 0 -17 -0.5t-17 -0.5q-178 0 -292.5 9.5t-245.5 35.5l15 121q247 -40 514 -40q119 0 211.5 12t177 44.5t139.5 85t87.5 137.5t32.5 199q0 76 -14.5 136t-48 109t-76.5 86t-111.5 71t-141 60.5t-176.5 57.5q-74 22 -127 39t-113 40t-101.5 44
t-86 49.5t-73.5 59t-56.5 69.5t-43 84t-24.5 100t-9 119q0 287 154.5 421.5t465.5 154.5v317h128v-313q270 0 534 -41l-13 -120q-226 34 -426 34q-137 0 -239.5 -10t-194 -37t-148.5 -72.5t-90 -117.5t-33 -171q0 -84 8 -141t34 -107t62 -83t106 -68t150.5 -63t210.5 -66
q111 -33 195 -66t171 -86.5t143 -116.5t91.5 -155.5t35.5 -204.5q0 -292 -155.5 -437.5t-464.5 -171.5z" />
    <glyph glyph-name="cent.tnum" 
d="M1174 243v-310h-124v316q-101 11 -183.5 41.5t-143 75.5t-105.5 109t-74 135.5t-47 161t-25 180t-7 198.5q0 135 10 239t34.5 200t67.5 165t107.5 123.5t155.5 87t210 45.5v317h124v-310q5 0 17 0.5t18 0.5q173 0 347 -41l-11 -110q-137 24 -280 24q-91 0 -166 -7
t-136 -22.5t-109 -35.5t-85 -51.5t-64 -65t-46 -82t-30.5 -95.5t-18 -112.5t-9 -126.5t-2.5 -143q0 -86 2.5 -150.5t11 -136t23.5 -124t39.5 -106.5t59.5 -92t84.5 -72t112 -54.5t144.5 -32.5t181 -12q105 0 288 36l14 -119q-89 -16 -131 -23t-113.5 -14t-140.5 -7z" />
    <glyph glyph-name="Euro.tnum" 
d="M697 1404h806l-28 -122h-783q-1 -49 -1 -152q0 -86 1 -126h721l-27 -122h-690q7 -137 23.5 -241t48 -194.5t80 -152.5t118.5 -106.5t165.5 -65.5t218.5 -21q135 0 339 34l11 -116q-203 -43 -399 -43q-161 0 -281 35t-204 103t-138.5 179t-82.5 253t-38 336h-251l27 122
h220q-1 40 -1 126q0 103 2 152h-228l27 122h206q11 188 40 326t83.5 246t138.5 174.5t202.5 100t277.5 33.5q207 0 399 -39l-12 -121q-201 35 -338 35q-124 0 -220 -20t-166 -63.5t-118 -103.5t-79 -148t-47 -188t-23 -232z" />
    <glyph glyph-name="sterling.tnum" 
d="M1265 1202v-122h-529q23 -166 23 -305q0 -91 -9 -168t-19 -127.5t-38 -120.5t-44.5 -105t-60.5 -124h703q226 0 487 33l14 -118q-327 -45 -702 -45h-607q-73 0 -73 61q0 21 33 89t72.5 148t72.5 203.5t33 243.5q0 131 -30 335h-360v122h340q-43 278 -43 500q0 136 40 239
t107.5 167.5t167.5 104.5t207.5 55.5t240.5 15.5q306 0 497 -180l-75 -88q-174 138 -410 138q-186 0 -309 -31t-195 -99.5t-101 -165t-29 -240.5q0 -34 2.5 -72t4.5 -64.5t8.5 -73t9.5 -64t12 -74t11 -68.5h548z" />
    <glyph glyph-name="yen.tnum" 
d="M1050 494v-494h-140v494h-395v122h395v236h-395v122h353l-595 1286h153l558 -1207l566 1207h148l-605 -1286h362v-122h-405v-236h405v-122h-405z" />
    <glyph glyph-name="period.tnum" horiz-adv-x="985" 
d="M492 247q47 0 64.5 -31.5t17.5 -106.5t-16.5 -104t-65.5 -29t-65 28.5t-16 104.5t17 107t64 31z" />
    <glyph glyph-name="comma.tnum" horiz-adv-x="985" 
d="M487 399h174l-287 -836h-124z" />
    <glyph glyph-name="colon.tnum" horiz-adv-x="985" 
d="M492 247q47 0 64.5 -31.5t17.5 -106.5t-16.5 -104t-65.5 -29t-65 28.5t-16 104.5t17 107t64 31zM492 1549q47 0 64.5 -31.5t17.5 -106.5t-16.5 -104t-65.5 -29t-65 28.5t-16 104.5t17 107t64 31z" />
    <glyph glyph-name="semicolon.tnum" horiz-adv-x="985" 
d="M481 1411q0 76 17 107t64 31t64.5 -31.5t17.5 -106.5t-16.5 -104t-65.5 -29t-65 28.5t-16 104.5zM647 399l-287 -836h-124l237 836h174z" />
    <glyph glyph-name="zero.onum_tnum" horiz-adv-x="1810" 
d="M903 -24q-129 0 -230 20.5t-177 58t-131 99.5t-91 137.5t-57.5 180t-30 217.5t-8.5 260t8.5 260t30 217.5t57.5 180t91 137.5t131 99.5t177 58t230 20.5t230.5 -20t178 -58t132 -100t92 -137.5t58 -180t30 -218t8.5 -259.5t-8.5 -259.5t-30 -218t-58 -180t-92 -137.5
t-132 -100t-178 -58t-230.5 -20zM903 102q118 0 209.5 22t154 57t106 98t68 125t37.5 159.5t16.5 179.5t3.5 206t-3.5 206t-16.5 179.5t-37.5 159.5t-68 125t-106 98t-154 57t-209.5 22q-104 0 -186.5 -15t-142.5 -48t-104 -71.5t-72.5 -102t-46 -121t-25.5 -146.5
t-10.5 -161.5t-2.5 -181.5t2.5 -181.5t10.5 -161.5t25.5 -146.5t46 -121t72.5 -102t104 -71.5t142.5 -48t186.5 -15z" />
    <glyph glyph-name="one.onum_tnum" horiz-adv-x="1810" 
d="M1160 0h-137v1729q-321 -96 -595 -141l-7 129q160 26 334.5 78.5t293.5 104.5h111v-1900z" />
    <glyph glyph-name="two.onum_tnum" horiz-adv-x="1810" 
d="M1591 129v-129h-1406q23 109 41.5 186.5t43.5 157.5t51.5 135.5t63.5 112t80 97.5t101 81t128 73t158 64q603 215 603 537q0 190 -154.5 268t-509.5 78q-261 0 -556 -40l-18 124q343 48 635 48q740 0 740 -435q0 -130 -46 -236.5t-135 -189t-200.5 -144t-261.5 -116.5
q-147 -54 -250.5 -119.5t-170.5 -150t-105 -179.5t-60 -223h1228z" />
    <glyph glyph-name="three.onum_tnum" horiz-adv-x="1810" 
d="M755 1922q122 0 218 -10.5t192 -41.5t160 -82t103.5 -137.5t39.5 -202.5q0 -195 -86 -329.5t-246 -199.5q66 -17 128.5 -56t117.5 -99t89 -150t34 -195q0 -140 -35 -245.5t-98 -175t-159.5 -113t-211.5 -62t-262 -18.5q-307 0 -549 50l19 127q332 -45 472 -45
q178 0 301 22.5t211 76t129.5 144t41.5 224.5q0 182 -118.5 297t-304.5 133q-105 10 -255 10q-98 0 -148 -1v120q214 5 403 32q178 27 283 138t105 263q0 68 -11 122t-34.5 94t-52.5 69.5t-74 49t-88.5 31.5t-107 18.5t-119 8.5t-133.5 2q-204 0 -481 -43l-17 124
q147 27 262 38.5t282 11.5z" />
    <glyph glyph-name="four.onum_tnum" horiz-adv-x="1810" 
d="M1226 -173v515h-974q-147 0 -147 116q0 62 92 180l907 1171q89 113 171 113q89 0 89 -116v-1338h299v-126h-299v-515h-138zM1226 1743l-987 -1275h987v1275z" />
    <glyph glyph-name="five.onum_tnum" horiz-adv-x="1810" 
d="M239 -143l18 127q233 -44 486 -44q184 0 307 25t207.5 86t122 162t37.5 253q0 73 -13 132.5t-40.5 105t-63.5 80t-89.5 58.5t-111.5 39.5t-135 24.5t-154 12.5t-176 3.5q-190 0 -352 -11l66 989h1147v-129h-1018q-8 -122 -25 -364.5t-25 -364.5q160 10 269 10
q117 0 206.5 -5.5t182.5 -21.5t160.5 -43.5t129 -72.5t99.5 -107.5t60 -151t22 -199.5q0 -175 -47.5 -299.5t-143.5 -200.5t-230.5 -111t-318.5 -35q-302 0 -577 52z" />
    <glyph glyph-name="six.onum_tnum" horiz-adv-x="1810" 
d="M958 1248q115 0 204.5 -11.5t171.5 -38t140 -73t101.5 -115t64.5 -166t21 -222.5q0 -153 -35.5 -266.5t-97.5 -185.5t-159 -116t-208 -61t-256 -17q-122 0 -220.5 20t-172 56.5t-128 93t-89.5 124t-57 156.5t-30.5 183t-8.5 210q0 253 19.5 432.5t71 328t133.5 241.5
t214 156.5t306 89.5t415 26q41 0 132 -2l13 -125q-313 -9 -395 -15q-299 -24 -460 -125q-232 -145 -283 -502q-8 -60 -12 -125q388 49 605 49zM337 774q0 -79 5 -143.5t20 -136t40 -126t67.5 -106t100 -84.5t141 -53t186.5 -20q235 0 371.5 54t195.5 166t59 302
q0 89 -13 158.5t-37.5 121t-65 88.5t-89 61t-116.5 37.5t-140.5 19t-167.5 5.5q-152 0 -552 -53q-5 -81 -5 -218v-73z" />
    <glyph glyph-name="seven.onum_tnum" horiz-adv-x="1810" 
d="M511 -173l909 1947h-1211v126h1219q139 0 139 -88q0 -33 -20 -76l-885 -1909h-151z" />
    <glyph glyph-name="eight.onum_tnum" horiz-adv-x="1810" 
d="M1264 1075q371 -118 371 -533q0 -97 -20 -177t-55.5 -138t-88.5 -102.5t-114 -72t-137 -45t-152 -24.5t-165 -7q-129 0 -235 16.5t-199.5 57.5t-157 105t-100 163t-36.5 228q0 415 363 531q-179 77 -253.5 202t-74.5 314q0 240 171.5 370t521.5 130q343 0 520 -131.5
t177 -368.5q0 -190 -77 -315.5t-259 -202.5zM903 106q87 0 158.5 7.5t141 25.5t121.5 51.5t92 82t61 119.5t21 162q0 96 -31 170.5t-84 123.5t-132.5 83t-167.5 50.5t-198 23.5q-106 -11 -185.5 -27.5t-156 -49t-124.5 -80t-77.5 -122t-29.5 -172.5q0 -105 31.5 -185
t84 -129t130 -80t160.5 -42.5t185 -11.5zM903 1964q-78 0 -144 -7.5t-130.5 -24t-114 -47.5t-88 -74.5t-58.5 -107.5t-20 -145q0 -87 30.5 -156t82.5 -116t126.5 -80t156 -50.5t177.5 -24.5q91 11 164 28.5t146 50.5t122 77.5t79.5 114t30.5 156.5q0 96 -30.5 168.5t-81 117
t-125 72t-152 38t-171.5 10.5z" />
    <glyph glyph-name="nine.onum_tnum" horiz-adv-x="1810" 
d="M840 650q-115 0 -204.5 11.5t-171.5 38t-140 73t-101.5 115t-64.5 166t-21 222.5q0 153 35.5 266.5t97.5 185.5t159 116t208 61t256 17q122 0 220.5 -20t172 -56.5t128 -93t89.5 -124t57 -156.5t30.5 -183t8.5 -210q0 -253 -19.5 -432.5t-71 -328t-133.5 -241.5
t-214 -156.5t-306 -89.5t-415 -26q-41 0 -132 2l-13 125q313 9 395 15q299 24 460 125q232 145 283 502q8 59 12 125q-388 -49 -605 -49zM1461 1124q0 79 -5 143.5t-20 136t-40 126t-67.5 106t-100 84.5t-141 53t-186.5 20q-235 0 -371.5 -54t-195.5 -166t-59 -302
q0 -89 13 -158.5t37.5 -121t65 -88.5t89 -61t116.5 -37.5t140.5 -19t167.5 -5.5q152 0 552 53q5 101 5 218v73z" />
    <glyph glyph-name="dollar.onum_tnum" horiz-adv-x="1810" 
d="M317 139q229 -37 474 -37q108 0 192 11t160 40t126 76.5t79 123.5t29 179q0 98 -33.5 171t-104.5 127.5t-158.5 93t-218.5 78.5q-76 23 -128.5 40.5t-112.5 41.5t-100.5 48t-82.5 55.5t-68.5 68t-48 81.5t-31.5 100.5t-10 121.5q0 264 141 387.5t425 142.5v290h127v-286
q251 0 488 -38l-14 -121q-198 32 -393 32q-102 0 -182.5 -6.5t-155 -22t-127.5 -42.5t-93 -67t-59.5 -97.5t-19.5 -131.5q0 -76 7 -127t31 -96t56 -75t96 -61.5t136.5 -56.5t190.5 -60q102 -30 179 -61t157 -80t131.5 -107.5t84 -143.5t32.5 -188q0 -268 -142 -401.5
t-424 -158.5v-293h-127v287q-5 0 -13.5 -0.5t-12.5 -0.5q-164 0 -269.5 9t-227.5 33z" />
    <glyph glyph-name="cent.onum_tnum" horiz-adv-x="1810" 
d="M1083 220v-283h-124v289q-107 12 -191 47.5t-142 92.5t-97.5 127.5t-61.5 162.5t-31.5 186.5t-9.5 210.5q0 149 13 259t48 207.5t94.5 161t153.5 106t224 56.5v290h124v-283q5 0 14 0.5t13 0.5q165 0 322 -38l-11 -111q-147 22 -260 22q-91 0 -165 -8.5t-132.5 -23.5
t-103 -41.5t-76.5 -56t-54.5 -75t-36.5 -90t-21.5 -108.5t-10 -124.5t-2.5 -143.5q0 -144 9.5 -237.5t43.5 -191t97 -152.5t174 -90t270 -35q93 0 268 34l14 -120q-85 -15 -121 -21t-102.5 -13t-128.5 -7z" />
    <glyph glyph-name="Euro.onum_tnum" horiz-adv-x="1810" 
d="M648 1290h737l-29 -123h-713q-1 -43 -1 -133q0 -74 1 -109h660l-27 -122h-629q6 -123 21 -216t43.5 -174.5t72.5 -137.5t107.5 -96t149.5 -59t197 -19q133 0 314 32l11 -117q-183 -40 -370 -40q-148 0 -258 32t-187.5 94t-127.5 163.5t-76 231t-35 306.5h-231l27 122h200
q-1 35 -1 109q0 90 1 133h-209l28 123h187q10 171 37 297.5t77 225t127.5 158.5t186 91t254.5 31q191 0 371 -36l-13 -122q-191 33 -313 33q-134 0 -232 -28t-163.5 -79.5t-106.5 -137t-60.5 -188t-27.5 -245.5z" />
    <glyph glyph-name="sterling.onum_tnum" horiz-adv-x="1810" 
d="M1165 1108v-123h-482q21 -150 21 -272q0 -102 -8.5 -178t-33.5 -150t-44.5 -118t-66.5 -138h632q212 0 450 32l14 -119q-294 -42 -646 -42h-554q-73 0 -73 61q0 18 20 59.5t48 99t56.5 126t48.5 159.5t20 180q0 117 -28 300h-328v123h309q-38 239 -38 451q0 125 37 220
t99 154.5t153.5 96.5t190.5 51t221 14q283 0 462 -170l-76 -88q-164 129 -375 129q-135 0 -232.5 -19t-163.5 -55t-105 -96t-55.5 -135.5t-16.5 -178.5q0 -22 1 -46.5t2.5 -44t5 -48.5t5 -44t6.5 -49t7 -45t8.5 -49.5t7.5 -47.5h501z" />
    <glyph glyph-name="yen.onum_tnum" horiz-adv-x="1810" 
d="M246 2073h152l505 -1094l514 1094h147l-553 -1174h328v-122h-370v-204h370v-122h-370v-451h-138v451h-361v122h361v204h-361v122h320z" />
    <glyph glyph-name="parenleft.case" horiz-adv-x="962" 
d="M711 2663l92 -77q-105 -103 -185.5 -243t-128 -283t-78 -308t-41 -305.5t-10.5 -286.5q0 -187 19 -365.5t65 -376.5t137.5 -377t221.5 -306l-92 -77q-141 141 -240 317.5t-153 373.5t-77.5 393t-23.5 418t23.5 418.5t77.5 393.5t153 373.5t240 317.5z" />
    <glyph glyph-name="parenright.case" horiz-adv-x="962" 
d="M159 2586l92 77q141 -141 240 -317.5t153 -373.5t77.5 -393.5t23.5 -418.5t-23.5 -418t-77.5 -393t-153 -373.5t-240 -317.5l-92 77q130 127 221.5 306t137.5 377t65 376.5t19 365.5q0 146 -10.5 286.5t-41 305.5t-78 308t-128 283t-185.5 243z" />
    <glyph glyph-name="bracketleft.case" horiz-adv-x="944" 
d="M814 2515h-367v-2698h365v-128h-502v2952h504v-126z" />
    <glyph glyph-name="bracketright.case" horiz-adv-x="944" 
d="M132 -183h365v2698h-367v126h504v-2952h-502v128z" />
    <glyph glyph-name="braceleft.case" horiz-adv-x="961" 
d="M556 535v-182q0 -136 30.5 -243.5t97.5 -182.5t166 -98l-14 -120q-95 25 -167 66t-130.5 108.5t-89 173t-30.5 245.5q0 388 -57 571.5t-214 232.5v121q157 49 214 231.5t57 572.5q0 140 30.5 245t89 172.5t130.5 108.5t167 66l14 -120q-146 -35 -220 -176t-74 -348v-182
q0 -524 -259 -631q259 -115 259 -631z" />
    <glyph glyph-name="braceright.case" horiz-adv-x="961" 
d="M813 1227v-121q-157 -49 -214 -232.5t-57 -571.5q0 -140 -30.5 -245.5t-89 -173t-130.5 -108.5t-167 -66l-14 120q99 23 166 98t97.5 182.5t30.5 243.5v182q0 516 259 631q-259 107 -259 631v182q0 207 -74 348t-220 176l14 120q95 -25 167 -66t130.5 -108.5t89 -172.5
t30.5 -245q0 -390 57 -572.5t214 -231.5z" />
    <glyph glyph-name="questiondown.case" horiz-adv-x="1629" 
d="M962 1639h126l1 -192q0 -10 0.5 -40.5t0.5 -44.5q0 -74 -27 -125.5t-73 -79.5t-105.5 -46t-125 -31.5t-131.5 -29t-125.5 -45.5t-105.5 -75t-73 -123t-27 -184q0 -94 10.5 -164t32.5 -127.5t62 -96.5t94 -67.5t134 -44t176.5 -23t226.5 -7.5q205 0 475 47l26 -123
q-282 -53 -569 -53q-113 0 -199 6t-174 23t-151 46t-120 77t-92 115t-55 160t-20 211q0 340 183 472q85 62 252 98q152 33 171 39q127 36 171 114q30 53 30 132zM1025 2071q-47 0 -64.5 31.5t-17.5 106.5t16.5 104t65.5 29t65 -28.5t16 -104.5t-17 -107t-64 -31z" />
    <glyph glyph-name="exclamdown.case" horiz-adv-x="652" 
d="M407 2209q0 -76 -17 -107t-64 -31t-64.5 31.5t-17.5 106.5t16.5 104t65.5 29t65 -28.5t16 -104.5zM413 -12h-174l25 1651h124z" />
    <glyph glyph-name="at.case" horiz-adv-x="3142" 
d="M2773 1495l133 39q24 -168 24 -369q0 -313 -88.5 -541t-264 -370.5t-424.5 -210t-582 -67.5q-335 0 -583.5 67.5t-422.5 210t-261.5 370t-87.5 541.5q0 258 60 456.5t173.5 336.5t285.5 227t387 129t487 40q100 0 184 -15.5t159.5 -52t127.5 -94t82.5 -146t30.5 -202.5
v-764q0 -135 -5 -287q-299 -132 -631 -132q-325 0 -473.5 122.5t-148.5 381.5q0 203 110.5 335.5t306.5 174.5q181 39 705 54q0 144 -22.5 237t-78.5 151.5t-142.5 82.5t-221.5 24q-239 0 -426 -32.5t-342.5 -108.5t-257 -197t-157 -302t-55.5 -419q0 -235 54 -415
t154.5 -301.5t252.5 -198.5t336.5 -110.5t419.5 -33.5t420.5 33.5t338 110.5t253 198.5t155 301.5t54.5 415q0 191 -19 330zM2057 1598q-178 -3 -379 -15t-287 -32q-152 -35 -235 -132t-83 -248q0 -109 30.5 -183t94 -117t150 -61t209.5 -18q232 0 496 95q4 188 4 311v400z
" />
    <glyph glyph-name="guilsinglleft.case" horiz-adv-x="942" 
d="M144 1164l448 634h152l-408 -634l409 -633h-153z" />
    <glyph glyph-name="guilsinglright.case" horiz-adv-x="942" 
d="M350 1798l448 -634l-448 -633h-153l409 633l-408 634h152z" />
    <glyph glyph-name="guillemotleft.case" horiz-adv-x="1451" 
d="M144 1164l448 634h152l-407 -634l407 -633h-152zM1254 531h-153l-448 633l448 634h152l-408 -634z" />
    <glyph glyph-name="guillemotright.case" horiz-adv-x="1451" 
d="M350 1798l448 -634l-448 -633h-153l409 633l-408 634h152zM1114 1164l-407 634h152l448 -634l-448 -633h-152z" />
    <glyph glyph-name="hyphen.case" horiz-adv-x="1362" 
d="M1106 1100h-849v129h849v-129z" />
    <glyph glyph-name="endash.case" horiz-adv-x="2120" 
d="M1864 1105h-1607v120h1607v-120z" />
    <glyph glyph-name="emdash.case" horiz-adv-x="3673" 
d="M3417 1105h-3160v120h3160v-120z" />
    <glyph glyph-name="periodcentered.case" horiz-adv-x="668" 
d="M333 1300q47 0 64.5 -31.5t17.5 -106.5t-16.5 -104t-65.5 -29t-65 28.5t-16 104.5t17 107t64 31z" />
    </font>
</defs>
</svg>
