<?xml version="1.0" standalone="no"?>
<!DOCTYPE svg PUBLIC "-//W3C//DTD SVG 1.1//EN" "http://www.w3.org/Graphics/SVG/1.1/DTD/svg11.dtd" >
<svg xmlns="http://www.w3.org/2000/svg" xmlns:xlink="http://www.w3.org/1999/xlink" version="1.1">
<metadata>
Created by FontForge 20170731 at Wed Feb 22 19:30:41 2012
 By Aleksey,,,
Copyright (c) 2011-2012 Durotype, www.durotype.com. All rights reserved.
</metadata>
<defs>
<font id="Flexo-HeavyIt" horiz-adv-x="1970" >
  <font-face 
    font-family="Flexo Medium"
    font-weight="800"
    font-style="italic"
    font-stretch="normal"
    units-per-em="3333"
    panose-1="0 0 0 0 0 0 0 0 0 0"
    ascent="2633"
    descent="-700"
    x-height="1781"
    cap-height="2330"
    bbox="-676 -844 4453 3210"
    underline-thickness="167"
    underline-position="-894"
    slope="-9"
    unicode-range="U+0020-FB04"
  />
<missing-glyph horiz-adv-x="2036" 
d="M186 0v2400h1663v-2400h-1663zM918 1200l-565 874v-1748zM1583 171l-565 875l-566 -875h1131zM1583 2228h-1131l566 -874zM1683 2074l-565 -874l565 -874v1748z" />
    <glyph glyph-name="f_f" unicode="ff" horiz-adv-x="2455" 
d="M270 1781h280l21 139q42 276 212.5 424.5t461.5 148.5q148 0 304 -22l-95 -359h-142q-109 0 -166 -47.5t-74 -151.5l-21 -132h667l22 139q43 276 213 424.5t460 148.5q148 0 304 -22l-95 -359h-142q-109 0 -166 -47.5t-74 -151.5l-21 -132h347l-63 -398h-347l-219 -1383
h-501l219 1383h-667l-219 -1383h-501l219 1383h-280z" />
    <glyph glyph-name="fi" unicode="fi" horiz-adv-x="2234" 
d="M1916 0h-507l219 1383h-640l-219 -1383h-501l219 1383h-280l63 398h280l21 139q42 276 213 424.5t461 148.5q148 0 304 -22l-95 -359h-141q-110 0 -167 -47.5t-74 -151.5l-21 -132h1147zM1970 1947q-137 0 -195.5 43t-58.5 143q0 36 8 87q24 149 97.5 211t234.5 62
q137 0 195.5 -43.5t58.5 -143.5q0 -35 -8 -86q-24 -150 -97 -211.5t-235 -61.5z" />
    <glyph glyph-name="fl" unicode="fl" horiz-adv-x="2219" 
d="M550 1781l21 139q42 276 212.5 424.5t461.5 148.5q518 0 1040 -24l-313 -1975q-11 -72 -11 -127q0 -128 65 -252l-481 -213q-101 149 -101 355q0 88 16 188l265 1667h-413q-110 0 -167 -47.5t-74 -151.5l-21 -132h348l-63 -398h-348l-219 -1383h-500l219 1383h-280
l63 398h280z" />
    <glyph glyph-name="f_f_i" unicode="ffi" horiz-adv-x="3403" 
d="M551 1781l21 139q42 276 212.5 424.5t460.5 148.5q149 0 305 -22l-95 -359h-142q-109 0 -166 -47t-74 -152l-22 -132h668l22 139q43 276 213 424.5t460 148.5q150 0 304 -22l-95 -359h-142q-109 0 -166 -47t-74 -152l-22 -132h1147l-282 -1781h-506l219 1383h-641
l-219 -1383h-500l219 1383h-668l-219 -1383h-500l219 1383h-281l63 398h281zM3138 1947q-136 0 -194.5 43t-58.5 143q0 36 8 87q24 150 97 211.5t235 61.5q137 0 195.5 -43.5t58.5 -143.5q0 -35 -8 -86q-24 -149 -97.5 -211t-235.5 -62z" />
    <glyph glyph-name="f_f_l" unicode="ffl" horiz-adv-x="3387" 
d="M2240 1913l-22 -132h347l-63 -398h-346l-220 -1383h-500l219 1383h-668l-219 -1383h-501l219 1383h-279l63 398h279l22 139q44 276 214 424.5t460 148.5q148 0 304 -22l-95 -359h-142q-109 0 -166 -47t-74 -152l-22 -132h668l22 139q43 276 213 424.5t460 148.5
q518 0 1040 -24l-313 -1975q-11 -72 -11 -127q0 -126 66 -252l-482 -213q-101 149 -101 353q0 82 17 190l264 1667h-413q-109 0 -166 -47t-74 -152z" />
    <glyph glyph-name="f_b" unicode="fb" horiz-adv-x="3213" 
d="M550 1781l21 139q42 276 213 424.5t461 148.5q518 0 1040 -24l-110 -691q148 27 286 27q173 0 296 -31t209 -101t127.5 -186t41.5 -283q0 -139 -28 -313q-28 -176 -70 -311.5t-103.5 -237.5t-138.5 -171.5t-180 -113t-222.5 -62.5t-270.5 -19q-195 0 -380 43.5
t-313 131.5q15 183 42 350l255 1611h-413q-110 0 -167 -47.5t-74 -151.5l-21 -132h347l-63 -398h-347l-219 -1383h-501l219 1383h-280l63 398h280zM2186 383q48 0 89.5 7t75 22t61.5 32.5t50.5 45t39.5 52.5t31.5 61.5t24 66t19 72t15 73.5t12.5 76q24 155 24 231
q0 66 -14.5 113t-49.5 84.5t-99.5 56.5t-158.5 19q-96 0 -196 -27l-112 -712q-23 -141 -27 -239q79 -34 215 -34z" />
    <glyph glyph-name="f_f_b" unicode="ffb" horiz-adv-x="4382" 
d="M2156 1383l-219 -1383h-500l219 1383h-668l-219 -1383h-500l219 1383h-281l63 398h281l21 139q42 276 212.5 424.5t460.5 148.5q149 0 305 -22l-95 -359h-142q-110 0 -167.5 -47.5t-73.5 -151.5l-21 -132h668l22 139q43 276 213 424.5t460 148.5q516 0 1040 -24
l-110 -691q146 27 286 27q174 0 296.5 -31t209 -101t127.5 -185.5t41 -282.5q0 -140 -28 -314q-42 -264 -117 -439.5t-197 -281.5t-282.5 -150t-388.5 -44q-196 0 -380.5 43.5t-312.5 131.5q13 176 41 350l255 1611h-413q-110 0 -167.5 -47.5t-73.5 -151.5l-21 -132h348
l-63 -398h-348zM3140 417q79 -34 216 -34q53 0 98.5 9.5t80.5 25t64.5 42t50.5 52t39 64.5t29.5 70.5t22.5 79t17 81t14 84.5q25 163 25 232q0 65 -14.5 112t-49.5 84.5t-99.5 56.5t-158.5 19q-96 0 -196 -27l-112 -712q-23 -141 -27 -239z" />
    <glyph glyph-name="f_f_h" unicode="ffh" horiz-adv-x="4411" 
d="M1051 1781h667l22 139q43 276 213.5 424.5t460.5 148.5q517 0 1039 -24l-113 -710q174 46 349 46q146 0 255 -22.5t177.5 -61t110 -97.5t57.5 -124t16 -148q0 -92 -23 -241l-176 -1111h-504l170 1069q12 72 12 126q0 101 -59.5 144.5t-215.5 43.5q-121 0 -235 -40
l-212 -1343h-504l335 2112h-413q-109 0 -166 -47.5t-74 -151.5l-21 -132h347l-63 -398h-347l-219 -1383h-501l219 1383h-667l-219 -1383h-501l219 1383h-280l63 398h280l22 139q43 276 213 424.5t460 148.5q148 0 304 -22l-95 -359h-141q-110 0 -167 -47.5t-74 -151.5z" />
    <glyph glyph-name="f_f_j" unicode="ffj" horiz-adv-x="3451" 
d="M1937 0h-501l219 1383h-667l-219 -1383h-501l219 1383h-280l63 398h280l22 139q43 276 213 424.5t460 148.5q148 0 304 -22l-95 -359h-141q-110 0 -167 -47.5t-74 -151.5l-21 -132h667l22 139q43 276 213.5 424.5t460.5 148.5q149 0 303 -22l-95 -359h-142
q-109 0 -166 -47.5t-74 -151.5l-21 -132h1218l-274 -1731q-32 -202 -96 -340.5t-170 -225.5t-250 -125.5t-344 -38.5q-79 0 -148 7l101 380q50 6 82.5 10.5t74 14.5t68.5 22.5t57 34t49 49t35 67t24 89.5l220 1389h-710zM3209 1947q-137 0 -195.5 43t-58.5 142q0 35 8 88
q24 149 97.5 211t235.5 62q137 0 195.5 -43.5t58.5 -143.5q0 -35 -8 -86q-24 -150 -97.5 -211.5t-235.5 -61.5z" />
    <glyph glyph-name="f_f_k" unicode="ffk" horiz-adv-x="4333" 
d="M3222 1012l651 769h580l-718 -810l464 -971h-606l-389 897l-142 -897h-501l335 2112h-416q-109 0 -166 -47.5t-74 -151.5l-21 -132h347l-63 -398h-347l-219 -1383h-501l219 1383h-668l-219 -1383h-500l219 1383h-280l63 398h280l21 139q42 276 213 424.5t461 148.5
q149 0 303 -22l-94 -359h-142q-109 0 -166 -47t-74 -152l-22 -132h668l22 139q43 276 213 424.5t460 148.5q518 0 1040 -24z" />
    <glyph glyph-name="f_h" unicode="fh" horiz-adv-x="3242" 
d="M207 1383l63 398h280l22 139q43 276 213 424.5t460 148.5q517 0 1040 -24l-113 -710q174 46 349 46q146 0 254.5 -22.5t177 -61t110 -97t57.5 -123.5t16 -148q0 -92 -23 -242l-176 -1111h-503l170 1069q12 72 12 127q0 101 -59.5 144t-215.5 43q-122 0 -234 -40
l-213 -1343h-503l334 2112h-412q-110 0 -167 -47.5t-74 -151.5l-21 -132h347l-63 -398h-347l-219 -1383h-501l219 1383h-280z" />
    <glyph glyph-name="f_j" unicode="fj" horiz-adv-x="2282" 
d="M1051 1781h1218l-275 -1731q-32 -202 -95.5 -340.5t-169.5 -225.5t-250 -125.5t-344 -38.5q-81 0 -148 7l101 380q50 6 82.5 10.5t74.5 14.5t69 22.5t56.5 34t48.5 49t35 67t24 89.5l221 1389h-711l-219 -1383h-501l219 1383h-280l63 398h280l22 139q43 276 213 424.5
t460 148.5q150 0 304 -22l-94 -359h-142q-110 0 -167 -47.5t-74 -151.5zM1787 2132q0 35 8 88q24 149 97.5 211t235.5 62q136 0 194.5 -43t58.5 -142q0 -37 -8 -88q-24 -150 -97 -211.5t-235 -61.5q-137 0 -195.5 43t-58.5 142z" />
    <glyph glyph-name="f_k" unicode="fk" horiz-adv-x="3165" 
d="M270 1781h281l21 139q42 276 212.5 424.5t460.5 148.5q518 0 1040 -24l-231 -1457l651 769h580l-717 -810l464 -971h-607l-389 897l-142 -897h-501l335 2112h-415q-110 0 -167 -47.5t-74 -151.5l-21 -132h347l-63 -398h-347l-219 -1383h-500l219 1383h-281z" />
    <glyph glyph-name=".notdef" horiz-adv-x="2036" 
d="M186 0v2400h1663v-2400h-1663zM918 1200l-565 874v-1748zM1583 171l-565 875l-566 -875h1131zM1583 2228h-1131l566 -874zM1683 2074l-565 -874l565 -874v1748z" />
    <glyph glyph-name=".null" horiz-adv-x="0" 
 />
    <glyph glyph-name="nonmarkingreturn" horiz-adv-x="1111" 
 />
    <glyph glyph-name="space" unicode=" " horiz-adv-x="825" 
 />
    <glyph glyph-name="exclam" unicode="!" horiz-adv-x="1016" 
d="M411 -24q-136 0 -194.5 43t-58.5 143q0 36 8 87q24 150 97.5 211.5t234.5 61.5q136 0 195 -43t59 -143q0 -36 -8 -87q-24 -150 -97.5 -211.5t-235.5 -61.5zM305 685l187 1645h584l-333 -1645h-438z" />
    <glyph glyph-name="quotedbl" unicode="&#x22;" horiz-adv-x="1417" 
d="M277 1472l125 997h432l-191 -997h-366zM929 1472l124 997h433l-191 -997h-366z" />
    <glyph glyph-name="numbersign" unicode="#" horiz-adv-x="1955" 
d="M752 1682l198 648h341l-198 -648h294l199 648h339l-197 -648h282l-54 -342h-331l-105 -347h289l-54 -342h-341l-199 -651h-341l199 651h-295l-198 -651h-341l200 651h-310l54 342h360l107 347h-327l55 342h374zM885 993h294l105 347h-294z" />
    <glyph glyph-name="dollar" unicode="$" horiz-adv-x="1733" 
d="M1092 648q4 21 4 45q0 39 -14 70t-35.5 52.5t-62 43t-77 35.5t-97.5 34q-108 36 -184 69t-147 79.5t-113.5 100.5t-67.5 128.5t-25 168.5q0 68 12 147q24 157 79.5 273t143 193.5t199.5 121.5t259 62l50 313h352l-48 -304q262 -13 521 -74l-112 -404q-307 54 -495 54
q-44 0 -76 -1t-77 -5t-77.5 -12t-69 -22.5t-60.5 -35.5t-43 -52t-25 -71q-4 -24 -4 -50q0 -92 78 -140q53 -33 212 -79h1h1l1 -1h1h1l1 -1h1h1h1l1 -1h1h1l1 -1h1h1h1l1 -1h1h1l1 -1h2h1l1 -1h1h1l1 -1h1h1h1l1 -1h1h1l1 -1h1h1h1l1 -1h1q273 -79 392 -200.5t119 -333.5
q0 -79 -15 -173q-49 -308 -220.5 -470.5t-464.5 -205.5l-50 -318h-353l47 302q-285 9 -555 74l116 415q128 -21 295 -37.5t286 -16.5q168 0 255.5 52t108.5 183z" />
    <glyph glyph-name="percent" unicode="%" horiz-adv-x="2850" 
d="M675 952q-162 0 -258.5 46t-136.5 132.5t-40 225.5q0 110 28 291q24 148 53 252t76 192.5t113.5 141t161.5 81t223 28.5q239 0 337 -97t98 -306q0 -119 -28 -292q-23 -148 -52.5 -252.5t-77 -192.5t-113.5 -140.5t-161 -81t-223 -28.5zM587 1390q0 -81 29.5 -121
t100.5 -40q35 0 63.5 11t49.5 27t38.5 48t28.5 60.5t22.5 79.5t18.5 88.5t17 103.5q29 179 29 254q0 82 -29.5 123t-101.5 41q-27 0 -50.5 -6.5t-41.5 -16.5t-34 -30t-27.5 -38t-22.5 -50t-18 -56.5t-15.5 -67t-13.5 -72.5t-13 -81q-30 -189 -30 -257zM2116 -12
q-238 0 -336 96.5t-98 305.5q0 120 28 293q24 148 52.5 252t76 192.5t113.5 141t161 81t223 28.5q162 0 258.5 -46t136.5 -132.5t40 -225.5q0 -110 -28 -291q-24 -148 -53 -252t-76 -192.5t-113.5 -141t-161.5 -81t-223 -28.5zM2027 428q0 -81 29.5 -121.5t101.5 -40.5
q31 0 56.5 7t45.5 23.5t35.5 34t28.5 50t22 59t18.5 73t15.5 79.5t15 91q30 189 30 256q0 82 -29.5 122.5t-101.5 40.5q-35 0 -63.5 -11t-49 -27t-38 -48.5t-28.5 -61t-22.5 -79.5t-18.5 -88.5t-17 -103.5q-30 -189 -30 -255zM475 -48l1725 2426h336l-1724 -2426h-337z" />
    <glyph glyph-name="ampersand" unicode="&#x26;" horiz-adv-x="2271" 
d="M1289 1176l233 -309q49 97 81 242l442 -20q-46 -185 -107.5 -328.5t-155.5 -274.5l353 -486h-616l-96 141q-121 -87 -268.5 -126t-358.5 -39q-345 0 -515.5 132.5t-170.5 400.5q0 74 14 166q36 225 163 369t343 237q-33 57 -46 82t-35 75t-30.5 98.5t-8.5 106.5
q0 60 10 124q20 127 69 227t117.5 166.5t159 110.5t189.5 63.5t213 19.5q116 0 212.5 -24.5t174 -75.5t121.5 -138.5t44 -204.5q0 -52 -9 -112q-19 -118 -69 -219.5t-123 -176.5t-154 -130t-176 -97zM1074 1479q239 116 265 285q5 35 5 56q0 140 -150 140
q-79 0 -135.5 -48.5t-72.5 -151.5q-4 -25 -4 -54q0 -111 92 -227zM1194 474l-351 491q-105 -64 -156.5 -134t-68.5 -177q-4 -21 -4 -47q0 -111 82 -172t204 -61q168 0 294 100z" />
    <glyph glyph-name="quotesingle" unicode="'" horiz-adv-x="765" 
d="M277 1472l124 997h433l-191 -997h-366z" />
    <glyph glyph-name="parenleft" unicode="(" horiz-adv-x="1106" 
d="M887 -327l-330 -248q-380 353 -380 1019q0 222 42 484q29 179 69.5 337.5t107 327t153 312t210 280.5t274.5 245l252 -245q-100 -84 -185 -205.5t-143 -248t-105.5 -275t-75.5 -273t-49 -255.5q-48 -297 -48 -536q0 -494 208 -719z" />
    <glyph glyph-name="parenright" unicode=")" horiz-adv-x="1105" 
d="M365 2185l330 245q380 -352 380 -1017q0 -222 -42 -485q-36 -225 -94 -423.5t-152 -397.5t-238 -373.5t-330 -308.5l-250 248q410 332 556 1255q44 280 44 513q0 510 -204 744z" />
    <glyph glyph-name="asterisk" unicode="*" horiz-adv-x="1473" 
d="M1482 1611h-374l135 -332l-284 -148l-133 323q-112 -152 -235 -322l-239 150l238 329h-370l49 302h369l-135 330l288 151l132 -327q158 218 236 327l239 -151l-243 -330h376z" />
    <glyph glyph-name="plus" unicode="+" horiz-adv-x="1870" 
d="M838 1188l98 618h413l-98 -618h605l-66 -415h-605l-98 -622h-413l98 622h-603l66 415h603z" />
    <glyph glyph-name="comma" unicode="," horiz-adv-x="955" 
d="M1 -429l360 945h546l-507 -945h-399z" />
    <glyph glyph-name="hyphen" unicode="-" horiz-adv-x="1278" 
d="M238 688l63 396h878l-63 -396h-878z" />
    <glyph glyph-name="period" unicode="." horiz-adv-x="904" 
d="M427 -24q-140 0 -197.5 41t-57.5 143q0 43 9 100q17 110 53.5 170t102.5 86t179 26q139 0 197 -40.5t58 -142.5q0 -43 -9 -99q-26 -162 -97 -223t-238 -61z" />
    <glyph glyph-name="slash" unicode="/" horiz-adv-x="1502" 
d="M-57 -268l1350 2680h419l-1351 -2680h-418z" />
    <glyph glyph-name="zero" unicode="0" horiz-adv-x="2030" 
d="M921 -24q-158 0 -276 26.5t-199.5 78.5t-132 133.5t-73 185t-22.5 239.5q0 198 47 491q24 152 50.5 272.5t63 234t80.5 199.5t102 161t129.5 126.5t160.5 88.5t197.5 54.5t238.5 17.5q197 0 333 -40.5t217.5 -125.5t117 -205t35.5 -291q0 -199 -47 -492
q-21 -134 -44.5 -243.5t-54 -214t-66.5 -186t-82.5 -155.5t-102 -128.5t-125 -99t-152 -71.5t-181 -41.5t-214.5 -14.5zM737 698q0 -145 56 -218t193 -73q58 0 105.5 12t85 41t66.5 59.5t53 86.5t40 102.5t33 126t27 138t26 157.5q49 305 49 430q0 147 -55.5 220.5
t-193.5 73.5q-58 0 -105.5 -12t-85 -41t-66 -60t-52.5 -87t-40 -102t-33 -126t-27 -138.5t-26 -157.5q-50 -313 -50 -432z" />
    <glyph glyph-name="one" unicode="1" horiz-adv-x="1301" 
d="M457 0l274 1731q-184 -46 -478 -75l45 426q351 53 633 178h400l-358 -2260h-516z" />
    <glyph glyph-name="two" unicode="2" horiz-adv-x="1880" 
d="M408 2202q414 82 763 82q128 0 231.5 -13t197 -46t156 -86t99 -135.5t36.5 -191.5q0 -55 -11 -126q-50 -314 -239 -517t-544 -335q-145 -53 -228.5 -109.5t-121 -115t-65.5 -152.5h1002l-72 -457h-1590q58 175 86.5 258.5t77 211t80.5 187.5t85 148.5t103 134.5
t122 105.5t155.5 102t189.5 85.5q211 85 307 163.5t115 201.5q5 27 5 61q0 107 -97 143.5t-354 36.5q-208 0 -505 -51z" />
    <glyph glyph-name="three" unicode="3" horiz-adv-x="1841" 
d="M1838 1680q-25 -160 -118 -288t-253 -202q137 -58 199 -144.5t62 -216.5q0 -58 -10 -118q-26 -167 -85 -293t-144 -209.5t-202.5 -136t-252 -74.5t-302.5 -22q-130 0 -265 14t-215 28t-218 41l123 416q381 -52 562 -52q90 0 153.5 6.5t119 23.5t91 47.5t59.5 78t35 115.5
q6 34 6 64q0 163 -175 184q-204 26 -461 26h-34l62 391q232 4 506 45q99 15 152 71t70 160q4 23 4 47q0 42 -15.5 72t-40.5 47.5t-66 27.5t-82.5 13t-98.5 3q-221 0 -619 -53l11 410q416 82 711 82q90 0 165.5 -5.5t153.5 -19.5t139 -37t115.5 -59.5t90.5 -85t57 -116.5
t21 -151q0 -56 -11 -130z" />
    <glyph glyph-name="four" unicode="4" horiz-adv-x="1977" 
d="M1007 0l79 493h-679q-155 0 -222.5 52.5t-67.5 151.5q0 31 6 65q5 34 13 60.5t30 72t68.5 107t116.5 137.5l845 919q125 135 213.5 180.5t201.5 45.5q99 0 159 -59t60 -171q0 -33 -6 -72l-169 -1072h260l-65 -417h-261l-78 -493h-504zM1261 1593l-603 -683h495z" />
    <glyph glyph-name="five" unicode="5" horiz-adv-x="1876" 
d="M835 1450q63 3 126 3q122 0 217.5 -8.5t190 -29.5t162 -60t120.5 -97.5t79.5 -144.5t26.5 -198q0 -88 -16 -187q-32 -200 -109.5 -344.5t-201 -234t-285.5 -131.5t-372 -42q-374 0 -719 85l121 416q362 -54 564 -54q82 0 139.5 5t109 19t85 37.5t61.5 62t45 91t29 126.5
q4 25 4 52q0 55 -23 94.5t-61 63t-98.5 37.5t-124 18.5t-150.5 4.5q-254 0 -496 -14l281 1240h1394l-71 -453h-947z" />
    <glyph glyph-name="six" unicode="6" horiz-adv-x="1982" 
d="M1954 2278l-24 -408q-84 -2 -133 -2q-15 0 -45 0.5t-46 0.5q-74 0 -126 -1t-124 -5.5t-123.5 -12.5t-114 -23t-107.5 -36.5t-91.5 -53.5t-78.5 -72.5t-56.5 -95.5t-35.5 -121q188 22 322 22q140 0 247.5 -14.5t200 -51t151.5 -96.5t92.5 -152.5t33.5 -216.5
q0 -95 -17 -200q-24 -151 -70 -269t-114 -201.5t-150.5 -141t-188 -90.5t-217 -47t-247.5 -14q-196 0 -333.5 41.5t-217.5 124t-115 193.5t-35 263q0 141 30 329q32 200 67.5 354.5t85 292t109 236.5t141.5 181.5t180.5 135.5t227 89.5t280 52t341.5 15.5q54 0 301 -6z
M709 682q0 -129 54.5 -201.5t188.5 -72.5q208 0 295 73t117 265q8 51 8 87q0 131 -80 181.5t-239 50.5q-147 0 -294 -23q-16 -67 -32 -169q-18 -108 -18 -191z" />
    <glyph glyph-name="seven" unicode="7" horiz-adv-x="1733" 
d="M1850 1861l-1113 -1861h-580l1151 1802h-1019l73 458h1291q129 0 196.5 -52t67.5 -145q0 -14 -4 -44q-11 -72 -63 -158z" />
    <glyph glyph-name="eight" unicode="8" horiz-adv-x="1974" 
d="M896 -24q-139 0 -250.5 16t-207 53.5t-159.5 96t-99.5 148t-35.5 205.5q0 69 12 148q16 99 51 177t93 140.5t122 109t158 100.5q-75 46 -124 97t-80.5 129t-31.5 178q0 56 11 128q93 582 907 582q730 0 730 -471q0 -53 -9 -111q-31 -196 -114.5 -310t-278.5 -214
q84 -56 138 -110.5t89 -135t35 -178.5q0 -52 -9 -110q-18 -116 -56 -210.5t-88.5 -163t-119.5 -120.5t-143.5 -84.5t-165.5 -53t-180.5 -28.5t-193.5 -8zM1336 652q8 53 8 89q0 72 -33.5 115t-117.5 71t-237 45q-118 -28 -194 -107.5t-97 -212.5q-5 -35 -5 -59
q0 -58 21.5 -97t64 -60.5t94 -30t122.5 -8.5q74 0 133 11.5t111 39.5t85 79t45 125zM832 1580q0 -46 16.5 -79.5t58 -61.5t117.5 -45t189 -23q127 35 191.5 94t83.5 179q4 24 4 51q0 53 -21 89t-62 55t-91.5 26.5t-120.5 7.5q-76 0 -131.5 -9t-105.5 -33t-80.5 -70.5
t-41.5 -116.5q-6 -34 -6 -64z" />
    <glyph glyph-name="nine" unicode="9" horiz-adv-x="1985" 
d="M278 1521q24 151 70.5 269t114.5 201.5t150.5 141t188 90.5t217 47t247.5 14q157 0 277 -28t200 -79t130.5 -129t72 -172t21.5 -215q0 -140 -30 -328q-32 -200 -67.5 -354.5t-85 -292t-109 -236.5t-141.5 -181.5t-180.5 -135.5t-227 -89.5t-280 -52t-341.5 -15.5
q-54 0 -301 6l24 408q84 2 133 2q15 0 45 -0.5t46 -0.5q74 0 126 1t123.5 5.5t123 12.5t114.5 23t107.5 36.5t91.5 53.5t78.5 72.5t56.5 95.5t36 121q-188 -22 -322 -22q-140 0 -247.5 14.5t-200 51t-152 96.5t-93 152.5t-33.5 217.5q0 96 17 199zM1206 1852
q-208 0 -295 -73t-117 -265q-8 -51 -8 -87q0 -131 80 -181.5t239 -50.5q145 0 294 23q16 67 32 169q18 108 18 191q0 129 -54.5 201.5t-188.5 72.5z" />
    <glyph glyph-name="colon" unicode=":" horiz-adv-x="1011" 
d="M436 -24q-139 0 -196.5 40.5t-57.5 141.5q0 44 9 102q25 161 96.5 221.5t237.5 60.5q139 0 197 -40.5t58 -142.5q0 -43 -9 -99q-26 -162 -97 -223t-238 -61zM614 1103q-140 0 -197 40.5t-57 141.5q0 43 9 102q26 162 97 222t237 60q139 0 197 -40.5t58 -142.5
q0 -44 -9 -99q-26 -163 -96.5 -223.5t-238.5 -60.5z" />
    <glyph glyph-name="semicolon" unicode=";" horiz-adv-x="1022" 
d="M720 1103q-140 0 -197 40.5t-57 141.5q0 43 9 102q26 162 96.5 222t237.5 60q139 0 197 -40.5t58 -142.5q0 -44 -9 -99q-26 -163 -97 -223.5t-238 -60.5zM-16 -429l360 945h546l-507 -945h-399z" />
    <glyph glyph-name="less" unicode="&#x3c;" horiz-adv-x="2024" 
d="M167 799l57 360l1791 694l-68 -432l-1158 -442l1017 -442l-68 -433z" />
    <glyph glyph-name="equal" unicode="=" horiz-adv-x="2040" 
d="M197 411l66 415h1621l-66 -415h-1621zM311 1131l66 415h1621l-66 -415h-1621z" />
    <glyph glyph-name="greater" unicode="&#x3e;" horiz-adv-x="2024" 
d="M232 537l1157 442l-1017 442l69 432l1571 -694l-57 -360l-1791 -695z" />
    <glyph glyph-name="question" unicode="?" horiz-adv-x="1768" 
d="M976 685h-444l26 223q4 41 11 80q15 95 46 162.5t71.5 103.5t89 58t100 32t102.5 18t98.5 23.5t86.5 42.5t68.5 79.5t41.5 130.5q6 39 6 71q0 103 -75 145.5t-258 42.5q-310 0 -571 -55l-21 427q349 85 715 85q105 0 186.5 -5t164.5 -19.5t143.5 -38.5t114.5 -63.5
t87.5 -93.5t53 -129t19.5 -170q0 -96 -17 -201q-18 -116 -52 -209t-76 -153.5t-93 -107.5t-104 -73t-108 -46.5t-105.5 -31t-97 -25t-82.5 -30t-61 -43.5t-33 -68zM388 161q0 37 8 88q24 150 97.5 211.5t235.5 61.5q136 0 194.5 -43t58.5 -143q0 -36 -8 -87
q-24 -150 -97 -211.5t-235 -61.5q-137 0 -195.5 43t-58.5 142z" />
    <glyph glyph-name="at" unicode="@" horiz-adv-x="2884" 
d="M631 891q-20 -131 -20 -232q0 -170 51 -289.5t153 -189.5t240 -101.5t327 -31.5q145 0 265 18t228 57.5t192 104.5t151.5 158t114 219.5t71.5 286.5q21 129 21 236q0 61 -8 120l415 117q12 -86 12 -181q0 -144 -24 -292q-49 -313 -170 -541t-312 -370.5t-440.5 -210
t-569.5 -67.5q-567 0 -855 215.5t-288 679.5q0 138 25 294q41 258 130 456.5t219.5 336.5t309.5 227t392 129t474 40q99 0 181.5 -14t156 -46.5t124 -82.5t80 -127t29.5 -175q0 -56 -11 -128l-109 -685q-26 -169 -70 -336q-118 -74 -311 -118t-407 -44q-308 0 -449.5 106
t-141.5 321q0 65 12 140q39 246 173.5 384.5t398.5 185.5q137 25 493 45q7 41 7 76q0 85 -51.5 119.5t-174.5 34.5q-176 0 -316 -25t-262.5 -84.5t-210.5 -155.5t-151 -241t-94 -339zM1791 921l48 300q-228 -7 -341 -38q-90 -25 -138 -52.5t-79 -81t-45 -146.5
q-6 -39 -6 -71q0 -105 67.5 -144.5t212.5 -39.5q46 0 121 15.5t116 37.5q22 88 44 220z" />
    <glyph glyph-name="A" unicode="A" horiz-adv-x="2207" 
d="M493 0h-550l978 1979q98 198 210 286.5t259 88.5q282 0 347 -375l340 -1979h-566l-70 532h-713zM914 954h471l-108 822z" />
    <glyph glyph-name="B" unicode="B" horiz-adv-x="2094" 
d="M2098 1703q-27 -167 -137 -307.5t-281 -203.5q292 -107 292 -426q0 -55 -11 -126q-19 -117 -60 -212.5t-97 -164t-132.5 -120t-157 -83t-180.5 -51t-194 -26.5t-205 -7q-438 0 -784 65l355 2243q147 30 357.5 50t412.5 20q92 0 171.5 -5t166.5 -19.5t157 -38.5t134.5 -64
t108 -93.5t69.5 -130t26 -170.5q0 -58 -11 -130zM1577 1725q0 43 -11.5 75t-35.5 53.5t-53.5 35t-74.5 20.5t-89 9.5t-105 2.5q-113 0 -231 -15l-82 -515h244q73 0 128 6t110 23t92 46.5t64.5 78.5t38.5 117q5 29 5 63zM1076 989h-246l-89 -559q114 -17 254 -17q63 0 112 4
t98.5 15t86.5 31.5t68 50.5t51.5 75.5t29.5 104.5q6 38 6 69q0 47 -12.5 83.5t-37.5 61t-56 41t-75.5 25t-88.5 12t-101 3.5z" />
    <glyph glyph-name="C" unicode="C" horiz-adv-x="1848" 
d="M1663 52q-263 -76 -634 -76q-225 0 -380 42t-250.5 132t-138 222t-42.5 322q0 191 44 471q34 215 77.5 376.5t107.5 299t149.5 230.5t202.5 158t266.5 95t340.5 30q357 0 609 -78l-115 -425q-255 43 -486 43q-101 0 -181.5 -20t-137.5 -49.5t-102 -86.5t-72.5 -108
t-51 -138t-36 -152.5t-29.5 -174.5q-39 -247 -39 -358q0 -90 19 -154.5t65 -115t129 -76t205 -25.5q252 0 499 44z" />
    <glyph glyph-name="D" unicode="D" horiz-adv-x="2184" 
d="M506 2283q357 71 771 71q199 0 346.5 -29t248 -85t162 -144.5t88 -199t26.5 -257.5q0 -188 -45 -474q-25 -156 -53 -279t-67.5 -240.5t-89 -205.5t-116.5 -166t-152 -131t-192 -92t-239.5 -57t-293.5 -18q-421 0 -749 68zM979 1891l-231 -1453q86 -12 162 -12
q79 0 146.5 8.5t121.5 29t97.5 42t78.5 61t61 71t47.5 87t35.5 95t28 108.5t22 113.5t20 123.5q39 252 39 353q0 73 -12.5 130t-44 106.5t-83.5 81.5t-133 50t-190 18q-70 0 -165 -13z" />
    <glyph glyph-name="E" unicode="E" horiz-adv-x="1899" 
d="M1947 2318l-68 -429h-650q-87 0 -138 -10.5t-86 -42.5t-51.5 -80t-30.5 -134l-35 -219h873l-69 -438h-873l-40 -254q-12 -72 -12 -121q0 -87 49.5 -117.5t183.5 -30.5h649l-67 -428q-388 -20 -644 -20q-97 0 -161 2t-147.5 11.5t-137.5 27t-112 49.5t-91.5 77.5
t-55 113.5t-21.5 155q0 73 13 154l185 1165q19 118 57.5 210t85 153.5t118 104.5t134.5 66t159 35.5t166 15t179 2.5q307 0 638 -18z" />
    <glyph glyph-name="F" unicode="F" horiz-adv-x="1797" 
d="M676 0h-534l277 1749q15 92 41.5 168.5t59 133.5t80 101.5t92.5 74t109 50.5t116.5 32.5t129 17.5t132.5 7.5t139 1.5q197 0 638 -18l-68 -429h-650q-87 0 -138 -10.5t-85.5 -42.5t-51 -80t-30.5 -134l-35 -219h872l-69 -438h-873z" />
    <glyph glyph-name="G" unicode="G" horiz-adv-x="2110" 
d="M1135 912l67 422h839l-139 -873q-11 -68 -29.5 -125t-46 -102t-58 -80.5t-73.5 -62t-83.5 -45.5t-97.5 -31.5t-106.5 -20.5t-118.5 -12t-124.5 -5t-134.5 -1q-225 0 -379.5 42t-250.5 132t-138.5 222.5t-42.5 322.5t44 470q29 185 65 330t86 271.5t114.5 218.5t149 164
t192 116t240.5 66.5t297 22.5q414 0 739 -75l-114 -422q-268 42 -616 42q-101 0 -181.5 -20t-137.5 -49.5t-102 -87t-72.5 -108.5t-51.5 -139t-36.5 -154t-29.5 -176q-39 -251 -39 -362q0 -91 19 -156.5t64.5 -116t128 -76t202.5 -25.5q76 0 124 10.5t76 37.5t41 61t22 91
l44 283h-352z" />
    <glyph glyph-name="H" unicode="H" horiz-adv-x="2254" 
d="M1609 1415l144 915h538l-369 -2330h-538l153 964h-703l-153 -964h-534l369 2330h534l-144 -915h703z" />
    <glyph glyph-name="I" unicode="I" horiz-adv-x="1005" 
d="M142 0l369 2330h535l-369 -2330h-535z" />
    <glyph glyph-name="J" unicode="J" horiz-adv-x="1428" 
d="M689 727l253 1603h538l-244 -1537q-24 -150 -56.5 -264t-81.5 -207.5t-113.5 -157t-152 -106.5t-197 -62.5t-249.5 -19.5q-109 0 -227 22.5t-191 62.5l108 408q168 -64 315 -64q247 0 298 322z" />
    <glyph glyph-name="K" unicode="K" horiz-adv-x="2102" 
d="M1048 2330l-171 -1080l847 1080h622l-911 -1113l550 -1217h-645l-480 1144l-181 -1144h-534l369 2330h534z" />
    <glyph glyph-name="L" unicode="L" horiz-adv-x="1699" 
d="M235 584l277 1746h534l-257 -1619q-12 -72 -12 -120q0 -87 49.5 -118t183.5 -31h613l-68 -430q-399 -18 -606 -18q-74 0 -125.5 1t-118.5 6t-113.5 13.5t-101 24.5t-91 38.5t-72.5 55.5t-57.5 75t-34.5 98.5t-13 124.5q0 72 13 153z" />
    <glyph glyph-name="M" unicode="M" horiz-adv-x="2723" 
d="M1195 2010l226 -1012l550 1005q93 171 204.5 261t225.5 90q147 0 209 -60.5t62 -209.5q0 -60 -9 -137l-222 -1947h-515l208 1547l-2 1l-487 -976q-68 -135 -148.5 -201.5t-182.5 -66.5t-160 65.5t-86 202.5l-197 972h-2l-279 -1544h-496l397 1949q43 213 133.5 309
t256.5 96q237 0 314 -344z" />
    <glyph glyph-name="N" unicode="N" horiz-adv-x="2336" 
d="M1219 2000l420 -1256l251 1586h482l-307 -1936q-66 -418 -385 -418q-146 0 -229 76t-151 280l-419 1260l-252 -1592h-482l307 1938q66 416 385 416q136 0 225.5 -81t154.5 -273z" />
    <glyph glyph-name="O" unicode="O" horiz-adv-x="2190" 
d="M998 -24q-283 0 -453.5 75.5t-247.5 231t-77 410.5q0 199 44 472q34 217 78.5 382t109 301t149 228.5t197.5 156t255 92.5t322 29q283 0 453.5 -75.5t247.5 -231t77 -410.5q0 -191 -44 -472q-34 -217 -79 -382t-109.5 -301t-148.5 -228.5t-197 -156t-255 -92.5t-322 -29z
M758 753q0 -162 68.5 -242.5t239.5 -80.5q70 0 126.5 12.5t101 42t78 61t60.5 89t45 104t36 128t28.5 140t26.5 158.5q47 297 47 413q0 162 -68.5 243t-239.5 81q-79 0 -142.5 -19.5t-109 -48.5t-82.5 -86t-60 -107.5t-44.5 -140t-33.5 -155.5t-30 -180q-47 -297 -47 -412z
" />
    <glyph glyph-name="P" unicode="P" horiz-adv-x="2031" 
d="M811 842l-134 -842h-533l362 2286q357 68 770 68q105 0 190.5 -6t173 -22t154 -42.5t125.5 -69.5t97.5 -101.5t60.5 -139.5t22 -182q0 -90 -16 -192q-21 -133 -60.5 -240.5t-92.5 -186.5t-125 -138t-151.5 -97t-178.5 -61.5t-198.5 -32.5t-219.5 -9q-106 0 -246 8z
M880 1278q81 -11 228 -11q99 0 171 15t130.5 51.5t94.5 102.5t51 163q8 56 8 94q0 123 -78.5 176t-265.5 53q-125 0 -240 -16z" />
    <glyph glyph-name="Q" unicode="Q" horiz-adv-x="2189" 
d="M1883 -232l-393 -257q-11 6 -52.5 28t-57 30.5t-54.5 31.5t-57.5 36.5t-52.5 39t-52.5 46t-45 51t-42.5 59.5t-32.5 66t-26.5 77q-283 0 -454 75.5t-248 231t-77 411.5q0 190 44 471q34 217 79 382t109.5 301t148.5 228.5t197.5 156t255.5 92.5t322 29q283 0 453 -75.5
t247 -230.5t77 -410q0 -200 -44 -473q-73 -461 -207 -722t-378 -372q29 -53 62 -94t81.5 -79t86 -62t111.5 -68zM1325 1902q-69 0 -126 -12.5t-101 -42.5t-78 -61.5t-61 -88.5t-45.5 -105t-36 -128.5t-28 -140t-26.5 -158.5q-47 -297 -47 -411q0 -162 68.5 -243t240.5 -81
q69 0 126 12.5t101 42t77.5 61t60.5 89t45 104t36 128t28.5 140t26.5 158.5q47 297 47 413q0 162 -68.5 243t-239.5 81z" />
    <glyph glyph-name="R" unicode="R" horiz-adv-x="2124" 
d="M812 859l-136 -859h-532l362 2286q355 68 769 68q105 0 190.5 -6t173 -22t154 -42.5t126.5 -69.5t98.5 -100.5t60.5 -138t22 -180.5q0 -88 -16 -187q-45 -286 -174 -451t-336 -237l364 -920h-608l-315 850q-89 1 -203 9zM882 1297q83 -10 228 -10q99 0 170.5 14.5t130 50
t94.5 99.5t51 158q8 51 8 88q0 120 -79.5 173t-266.5 53q-114 0 -240 -16z" />
    <glyph glyph-name="S" unicode="S" horiz-adv-x="1825" 
d="M1156 716q0 40 -14.5 71.5t-36 54t-63.5 44t-80 36t-101 35.5q-78 26 -138.5 50t-120 54.5t-103 62.5t-81.5 73t-61.5 88.5t-36.5 106.5t-13 128q0 71 13 150q24 154 78 270t133 194.5t190 127.5t241.5 70.5t295.5 21.5q337 0 665 -80l-114 -417q-311 55 -512 55
q-54 0 -91.5 -1.5t-91 -7.5t-91 -19.5t-74.5 -35t-60 -57.5t-30 -83q-4 -25 -4 -51q0 -35 9 -61.5t29 -48t44.5 -37t64 -30.5t77.5 -27t95 -28l6 -1.5t5.5 -1.5t6.5 -2q282 -81 405 -206.5t123 -344.5q0 -74 -16 -178q-31 -195 -109.5 -333.5t-204.5 -222t-287.5 -121.5
t-372.5 -38q-340 0 -672 78l120 428q352 -55 600 -55q172 0 262 53.5t112 188.5q4 23 4 47z" />
    <glyph glyph-name="T" unicode="T" horiz-adv-x="1723" 
d="M1944 2330l-70 -446h-541l-298 -1884h-537l299 1884h-536l71 446h1612z" />
    <glyph glyph-name="U" unicode="U" horiz-adv-x="2190" 
d="M2237 2330l-242 -1532q-22 -138 -60.5 -250.5t-90 -197.5t-120.5 -149t-146 -106.5t-172 -69.5t-194 -38t-216 -11q-144 0 -256 17t-208.5 58.5t-159.5 108.5t-98 170.5t-35 240.5q0 99 20 227l242 1532h526l-246 -1558q-10 -59 -10 -110q0 -121 69 -173t229 -52
q189 0 277.5 75.5t117.5 259.5l246 1558h527z" />
    <glyph glyph-name="V" unicode="V" horiz-adv-x="2127" 
d="M2369 2330l-955 -2001q-89 -186 -196 -269.5t-248 -83.5q-145 0 -221.5 78.5t-108.5 274.5l-328 2001h568l200 -1689l740 1689h549z" />
    <glyph glyph-name="W" unicode="W" horiz-adv-x="2877" 
d="M347 2330h537l1 -1663l2 -1l375 1003q82 218 185.5 312t232.5 94q130 0 203 -94.5t85 -313.5l55 -998h2l533 1661h526l-729 -1976q-74 -201 -173.5 -289.5t-241.5 -88.5q-149 0 -227 86t-90 289l-64 1027h-2l-378 -1027q-138 -375 -435 -375q-142 0 -214 88t-82 288z" />
    <glyph glyph-name="X" unicode="X" horiz-adv-x="2165" 
d="M1254 1639l529 691h579l-891 -1132l565 -1198h-616l-331 736l-551 -736h-594l933 1185l-537 1145h610z" />
    <glyph glyph-name="Y" unicode="Y" horiz-adv-x="2030" 
d="M1331 896l-142 -896h-534l142 896l-510 1434h577l289 -890l585 890h557z" />
    <glyph glyph-name="Z" unicode="Z" horiz-adv-x="1860" 
d="M1873 1929l-1088 -1473h907l-73 -456h-1302q-133 0 -201 44.5t-68 128.5q0 17 3 37q14 89 91 191l1094 1476h-858l72 453h1249q134 0 201 -44.5t67 -126.5q0 -19 -3 -38q-13 -86 -91 -192z" />
    <glyph glyph-name="bracketleft" unicode="[" horiz-adv-x="1115" 
d="M952 2008l-339 -2148h308l-64 -404h-780l467 2952h782l-64 -400h-310z" />
    <glyph glyph-name="backslash" unicode="\" horiz-adv-x="1503" 
d="M886 -268l-502 2680h420l501 -2680h-419z" />
    <glyph glyph-name="bracketright" unicode="]" horiz-adv-x="1114" 
d="M339 2008l64 400h781l-467 -2952h-778l63 404h307l340 2148h-310z" />
    <glyph glyph-name="asciicircum" unicode="^" horiz-adv-x="1704" 
d="M913 2330h355l354 -1354h-429l-196 767l-441 -767h-428z" />
    <glyph glyph-name="underscore" unicode="_" horiz-adv-x="1667" 
d="M-10 -470l9 167h1678l-10 -167h-1677z" />
    <glyph glyph-name="grave" unicode="`" horiz-adv-x="899" 
d="M561 1872l-332 543h497l215 -543h-380z" />
    <glyph glyph-name="a" unicode="a" horiz-adv-x="1806" 
d="M1731 1219l-114 -718q-29 -179 -70 -350q-316 -175 -808 -175q-316 0 -462 107.5t-146 330.5q0 66 12 143q39 248 178.5 390t409.5 186q172 28 504 42q5 35 5 57q0 88 -57 126t-181 38q-264 0 -633 -48l20 386q408 71 709 71q112 0 203.5 -12.5t175.5 -44t141 -81.5
t90.5 -130.5t33.5 -185.5q0 -58 -11 -132zM849 803q-69 -17 -108 -40t-65 -70.5t-39 -129.5q-4 -23 -4 -48q0 -80 53.5 -112.5t161.5 -32.5q156 0 253 35q24 88 49 239l32 196q-7 0 -53 -3t-60.5 -4t-53.5 -4.5t-60.5 -6.5t-51 -8t-54.5 -11z" />
    <glyph glyph-name="b" unicode="b" horiz-adv-x="1929" 
d="M1178 1805q173 0 295.5 -31t209 -101t127.5 -185.5t41 -282.5q0 -140 -28 -314q-28 -176 -70 -311.5t-103.5 -237.5t-138.5 -171.5t-180 -113t-222.5 -62.5t-270.5 -19q-196 0 -380.5 43.5t-311.5 131.5q11 171 40 350l312 1968h503l-110 -691q146 27 287 27zM826 1368
l-112 -712q-23 -141 -27 -239q79 -34 216 -34q53 0 98.5 9.5t80.5 25t64.5 42t50.5 52t39 64.5t29.5 70.5t22.5 79t17 81t14 84.5q25 163 25 232q0 65 -14.5 112t-49.5 84.5t-99.5 56.5t-158.5 19q-96 0 -196 -27z" />
    <glyph glyph-name="c" unicode="c" horiz-adv-x="1556" 
d="M1367 50q-281 -74 -613 -74q-129 0 -227.5 30t-161 82t-102 128t-55 160.5t-15.5 187.5q0 145 32 342q21 131 46.5 234t64.5 199t89 166.5t119 129t156.5 95t200 56t249.5 19.5q268 0 480 -75l-99 -374q-80 17 -114.5 24t-96.5 15t-113 8q-90 0 -154 -9.5t-113.5 -35.5
t-81.5 -60.5t-56.5 -95t-40 -127t-31.5 -169.5q-29 -187 -29 -261q0 -92 30 -145.5t107 -81.5t213 -28q114 0 335 46z" />
    <glyph glyph-name="d" unicode="d" horiz-adv-x="1933" 
d="M1406 1778l110 691h503l-312 -1968q-29 -179 -70 -350q-155 -88 -353.5 -131.5t-394.5 -43.5q-189 0 -321 30t-224 100t-135 185.5t-43 284.5q0 141 28 315q33 208 88 361.5t132 260t184 171t236 93t296 28.5q141 0 276 -27zM1155 1395q-60 0 -110.5 -8.5t-89.5 -21.5
t-71 -37.5t-55 -48t-42 -61t-31.5 -69t-24 -80t-18 -85t-15.5 -93.5q-24 -158 -24 -229q0 -63 12.5 -111t43 -87.5t87 -60t137.5 -20.5q136 0 227 34q26 105 48 239l112 712q-89 27 -186 27z" />
    <glyph glyph-name="e" unicode="e" horiz-adv-x="1854" 
d="M214 891q39 247 106.5 416t179 282.5t270 164.5t380.5 51q150 0 263.5 -25.5t188.5 -72t122 -118.5t66.5 -158.5t19.5 -197.5q0 -133 -29 -321q-14 -87 -31 -154q-148 -28 -383.5 -53.5t-422.5 -35.5l-269 -15q-3 -27 -3 -49q0 -122 75.5 -168.5t242.5 -46.5
q259 0 639 48l-19 -390q-427 -72 -786 -72q-176 0 -301 44t-197.5 128t-105 194t-32.5 255q0 125 26 294zM717 1006l246 13q178 9 335 29q7 24 13 58q8 53 8 91q0 105 -55 157.5t-177 52.5q-79 0 -139 -20.5t-98 -53t-65 -87t-41.5 -109t-26.5 -131.5z" />
    <glyph glyph-name="f" unicode="f" horiz-adv-x="1287" 
d="M1072 1913l-22 -132h347l-63 -398h-347l-219 -1383h-500l219 1383h-280l63 398h280l22 139q43 276 213 424.5t460 148.5q150 0 304 -22l-95 -359h-142q-109 0 -166 -47t-74 -152z" />
    <glyph glyph-name="g" unicode="g" horiz-adv-x="1922" 
d="M97 -599l102 383q374 -54 626 -54q303 0 343 285l4 28q-145 -27 -285 -27q-173 0 -296 30.5t-210 100t-128.5 184.5t-41.5 280q0 131 27 299q32 205 89 356t137 254.5t193.5 166.5t249.5 90.5t313 27.5q195 0 380 -43.5t312 -131.5q-13 -176 -41 -350l-216 -1367
q-22 -139 -77.5 -244t-131 -170.5t-178.5 -106.5t-209 -56.5t-233 -15.5q-319 0 -729 81zM741 910q-22 -141 -22 -213q0 -64 14.5 -111t49.5 -84.5t99.5 -56.5t159.5 -19q97 0 195 27l106 672q22 138 28 239q-80 34 -216 34q-64 0 -118 -15t-92.5 -40t-70.5 -64t-52 -78
t-36.5 -92t-26 -97.5t-18.5 -101.5z" />
    <glyph glyph-name="h" unicode="h" horiz-adv-x="1963" 
d="M1834 1111l-176 -1111h-504l170 1069q12 72 12 126q0 101 -59.5 144.5t-215.5 43.5q-121 0 -235 -40l-212 -1343h-503l391 2469h503l-113 -710q176 46 348 46q146 0 255.5 -22.5t177.5 -61t110 -97.5t58 -124t16 -148q0 -92 -23 -241z" />
    <glyph glyph-name="i" unicode="i" horiz-adv-x="945" 
d="M1021 2306q0 -35 -8 -86q-24 -150 -97 -211.5t-235 -61.5q-137 0 -195.5 43t-58.5 143q0 36 8 87q24 149 97.5 211t234.5 62q137 0 195.5 -43.5t58.5 -143.5zM121 0l282 1781h506l-282 -1781h-506z" />
    <glyph glyph-name="j" unicode="j" horiz-adv-x="955" 
d="M713 1947q-136 0 -194.5 42.5t-58.5 141.5q0 36 8 89q24 150 97 211.5t235 61.5q137 0 195.5 -43.5t58.5 -143.5q0 -35 -8 -86q-24 -150 -97.5 -211.5t-235.5 -61.5zM150 -6l284 1787h507l-274 -1731q-32 -202 -96 -340.5t-169.5 -225.5t-249.5 -125.5t-344 -38.5
q-79 0 -148 7l101 380q50 6 82.5 10.5t74 14.5t68.5 22.5t57 34t49 49t34.5 67t23.5 89.5z" />
    <glyph glyph-name="k" unicode="k" horiz-adv-x="1883" 
d="M1004 2469l-231 -1457l651 769h579l-717 -810l464 -971h-606l-389 897l-142 -897h-501l391 2469h501z" />
    <glyph glyph-name="l" unicode="l" horiz-adv-x="918" 
d="M161 445l320 2024h503l-312 -1975q-11 -72 -11 -127q0 -126 66 -252l-482 -213q-101 149 -101 353q0 82 17 190z" />
    <glyph glyph-name="m" unicode="m" horiz-adv-x="2746" 
d="M809 1117l-177 -1117h-498l202 1280q27 166 71 350q162 87 366 131t414 44q259 0 395 -92q268 92 515 92q133 0 233 -23t163.5 -62t103 -98.5t55 -125.5t15.5 -149q0 -87 -21 -222l-179 -1125h-499l172 1086q11 66 11 115q0 96 -48.5 142.5t-164.5 46.5q-100 0 -192 -39
q3 -100 -18 -226l-178 -1125h-500l173 1086q10 68 10 113q0 94 -44 142.5t-150 48.5q-103 0 -181 -34q-26 -100 -49 -239z" />
    <glyph glyph-name="n" unicode="n" horiz-adv-x="1911" 
d="M808 1117l-177 -1117h-498l202 1280q29 183 71 350q325 175 802 175q149 0 260 -20.5t181.5 -57t113.5 -93.5t60 -121.5t17 -149.5q0 -88 -23 -238l-178 -1125h-500l172 1086q12 82 12 125q0 97 -53.5 138t-191.5 42q-130 0 -221 -35q-26 -100 -49 -239z" />
    <glyph glyph-name="o" unicode="o" horiz-adv-x="1864" 
d="M185 566q0 139 29 325q40 252 108.5 422.5t180.5 282t268 160.5t375 49q356 0 514 -138.5t158 -453.5q0 -139 -29 -322q-53 -335 -161 -532.5t-294 -290t-478 -92.5q-356 0 -513.5 137t-157.5 453zM688 620q0 -129 52 -178t179 -49q89 0 147 22t101 81.5t70 151t51 243.5
q27 173 27 265q0 131 -52 182t-179 51q-71 0 -121 -14.5t-89.5 -46.5t-67.5 -91.5t-49 -141t-41 -204.5q-28 -176 -28 -271z" />
    <glyph glyph-name="p" unicode="p" horiz-adv-x="1931" 
d="M664 3l-104 -659h-503l306 1936q29 183 71 350q155 88 353.5 131.5t393.5 43.5q190 0 321.5 -30.5t224 -100t135.5 -185.5t43 -285q0 -140 -28 -314t-70 -309t-101.5 -236.5t-134 -172t-171.5 -114t-208.5 -63t-250.5 -19.5q-140 0 -277 27zM916 386q67 0 122 9t97 30
t73.5 44.5t55.5 62t40.5 72.5t29.5 87.5t21 94t18 104.5q24 156 24 228q0 63 -12.5 111t-43 87.5t-87 60.5t-137.5 21q-136 0 -227 -34q-26 -100 -49 -239l-112 -712q89 -27 187 -27z" />
    <glyph glyph-name="q" unicode="q" horiz-adv-x="1930" 
d="M1881 1280l-307 -1936h-503l105 659q-146 -27 -286 -27q-174 0 -296.5 31t-209 101t-127.5 185.5t-41 282.5q0 140 28 314q42 264 117 439.5t197 281.5t282.5 150t388.5 44q196 0 380.5 -43.5t311.5 -131.5q-11 -171 -40 -350zM1380 1364q-79 34 -216 34
q-53 0 -98.5 -9.5t-80.5 -25t-64.5 -42t-50.5 -52t-39 -64.5t-29.5 -70.5t-22.5 -79t-17 -81t-14 -84.5q-25 -152 -25 -232q0 -65 14.5 -112t49.5 -84.5t99.5 -56.5t158.5 -19q96 0 196 27l112 712q23 141 27 239z" />
    <glyph glyph-name="r" unicode="r" horiz-adv-x="1200" 
d="M803 1099l-175 -1099h-497l202 1280q27 166 71 350q154 88 352.5 131.5t394.5 43.5q110 0 190 -11l-105 -413q-59 7 -118 7q-162 0 -267 -50q-24 -90 -48 -239z" />
    <glyph glyph-name="s" unicode="s" horiz-adv-x="1607" 
d="M982 514q6 40 -3.5 68.5t-42 48t-54 28t-75.5 24.5q-36 11 -54 17q-59 19 -98 33.5t-93 38.5t-89.5 48t-74.5 60t-62 76t-38 94t-15 117q0 49 9 104q84 534 719 534q189 0 335 -18.5t314 -61.5l-107 -371q-260 55 -441 55q-45 0 -70.5 -0.5t-67 -4t-66.5 -11.5
t-52.5 -20.5t-42.5 -34.5t-20 -51t4 -53t23.5 -39.5t45.5 -31t53.5 -23.5t65.5 -22t65 -22q172 -63 223 -88q141 -69 191 -176q35 -74 35 -177q0 -53 -11 -125q-20 -127 -71 -223.5t-122 -158.5t-167 -101.5t-198.5 -55t-224.5 -15.5q-160 0 -331.5 22.5t-298.5 60.5
l108 380q103 -22 244 -40.5t233 -18.5q141 0 198 14q109 28 124 120z" />
    <glyph glyph-name="t" unicode="t" horiz-adv-x="1330" 
d="M616 2201l513 83l-80 -503h338l-62 -395h-339l-132 -832q-4 -25 -4 -52q0 -67 37 -100t118 -33q83 0 163 7l-19 -364q-196 -36 -342 -36q-244 0 -358.5 94.5t-114.5 286.5q0 63 12 137l141 892h-274l63 395h274z" />
    <glyph glyph-name="u" unicode="u" horiz-adv-x="1904" 
d="M408 1781h500l-172 -1086q-12 -72 -12 -125q0 -97 53 -138.5t188 -41.5q127 0 218 35q26 100 49 239l177 1117h499l-203 -1280q-29 -183 -71 -350q-325 -175 -798 -175q-148 0 -258.5 20.5t-181 57t-113.5 93.5t-60 121.5t-17 149.5q0 98 23 238z" />
    <glyph glyph-name="v" unicode="v" horiz-adv-x="1878" 
d="M2034 1781l-764 -1504q-153 -301 -406 -301q-127 0 -202.5 73t-105.5 228l-287 1504h527l169 -1242l558 1242h511z" />
    <glyph glyph-name="w" unicode="w" horiz-adv-x="2611" 
d="M278 1781h511l36 -1224h2l301 744q72 178 165 262t210 84q234 0 266 -346l70 -739l2 -1l420 1220h496l-599 -1463q-140 -342 -390 -342q-249 0 -294 341l-87 660l-284 -659q-147 -342 -405 -342q-129 0 -197 81.5t-85 263.5z" />
    <glyph glyph-name="x" unicode="x" horiz-adv-x="1944" 
d="M1124 1300l389 481h541l-726 -855l490 -926h-586l-266 533l-427 -533h-554l780 918l-456 863h576z" />
    <glyph glyph-name="y" unicode="y" horiz-adv-x="1844" 
d="M1040 780l465 1001h512l-1198 -2437h-513l404 786l-438 1651h534z" />
    <glyph glyph-name="z" unicode="z" horiz-adv-x="1748" 
d="M1702 1437l-872 -1016h725l-67 -421h-1225q-89 0 -138 38t-49 105q0 15 3 31q12 78 93 173l880 1030h-717l64 404h1212q87 0 136 -38.5t49 -104.5q0 -15 -3 -30q-13 -80 -91 -171z" />
    <glyph glyph-name="braceleft" unicode="{" horiz-adv-x="1131" 
d="M1311 2390l-13 -362q-48 -6 -87.5 -16.5t-69.5 -28t-52.5 -35.5t-39 -46t-27.5 -50.5t-20 -59t-13.5 -61.5t-11.5 -68l-26 -163q-33 -205 -61 -293q-70 -215 -225 -277q132 -70 132 -302q0 -95 -26 -261l-25 -164q-16 -108 -16 -151q0 -91 48 -144.5t174 -68.5l-102 -363
q-104 8 -180 21t-145.5 35.5t-116 56t-81 82.5t-50.5 116t-16 154q0 97 19 217q39 242 39 360q0 121 -40 174.5t-134 62.5l57 357q60 5 102.5 27.5t75 62.5t58 113t45.5 164t42 231q18 115 45.5 204.5t63.5 157.5t87 118.5t108 85t134.5 57.5t159 36t188.5 21z" />
    <glyph glyph-name="bar" unicode="|" horiz-adv-x="891" 
d="M240 -656v3125h411v-3125h-411z" />
    <glyph glyph-name="braceright" unicode="}" horiz-adv-x="1131" 
d="M506 1500l26 163q16 98 16 152q0 91 -48 144.5t-174 68.5l102 362q125 -10 212.5 -26.5t163 -49t120 -82.5t69 -126t24.5 -180q0 -98 -19 -216q-38 -242 -38 -358q0 -123 39.5 -177t133.5 -63l-57 -357q-60 -6 -103 -28t-75.5 -62t-57.5 -112.5t-45 -163t-42 -231.5
q-21 -134 -54 -234.5t-83.5 -173t-109.5 -121t-144.5 -80t-176.5 -47.5t-217 -26l13 363q55 6 98.5 20.5t74 32t54 46.5t37.5 54t26 65t17.5 69t12.5 77l25 164q12 76 23 131t33.5 129t51 126.5t74.5 101.5t104 75q-138 61 -138 281q0 93 32 289z" />
    <glyph glyph-name="asciitilde" unicode="~" horiz-adv-x="1992" 
d="M1595 1404h390q-83 -340 -247 -519.5t-357 -179.5q-80 0 -145 15.5t-108.5 40t-79.5 54t-65 59.5t-57.5 54.5t-64.5 40t-79 15.5q-129 0 -218 -266h-391q42 172 108 306.5t145.5 219.5t168.5 128.5t182 43.5q79 0 144.5 -15.5t109 -40t79.5 -54.5t65.5 -59.5t58 -54
t64.5 -40t78 -15.5q129 0 219 267z" />
    <glyph glyph-name="uni00A0" unicode="&#xa0;" horiz-adv-x="825" 
 />
    <glyph glyph-name="exclamdown" unicode="&#xa1;" horiz-adv-x="983" 
d="M638 1237q-136 0 -194.5 43.5t-58.5 143.5q0 35 8 86q24 150 97 211.5t235 61.5q137 0 195 -43t58 -142q0 -37 -8 -88q-24 -150 -97 -211.5t-235 -61.5zM61 -571l333 1645h437l-187 -1645h-583z" />
    <glyph glyph-name="cent" unicode="&#xa2;" horiz-adv-x="1479" 
d="M1350 689l-18 -374q-184 -48 -382 -64l-49 -307h-331l48 306q-120 16 -205 65t-131.5 126.5t-67 167.5t-20.5 204q0 137 31 333q25 155 57 271.5t84 220.5t123 174.5t173 119.5t234 69l50 315h331l-48 -301q185 -11 358 -70l-95 -363q-79 17 -111.5 23t-93 14t-110.5 8
q-65 0 -116 -5t-93 -18.5t-72.5 -31t-56 -48t-43 -64t-33 -84.5t-26 -103.5t-22.5 -126.5q-28 -177 -28 -254q0 -133 73 -190.5t266 -57.5q20 0 41.5 1t38 2.5t41.5 5t38 5.5t41.5 7t38.5 7t43.5 8.5t41.5 8.5z" />
    <glyph glyph-name="sterling" unicode="&#xa3;" horiz-adv-x="1960" 
d="M491 953h-308l61 383h255q8 143 31 288q18 111 54.5 202.5t86.5 159t116.5 119.5t139.5 85.5t160.5 55t174.5 30t187 8.5q72 0 133 -8.5t107 -19.5t92 -36t76 -44.5t71 -59.5t64.5 -65.5t68.5 -77.5l-310 -314q-44 47 -77.5 77t-77 56.5t-93.5 39t-111 12.5
q-178 0 -255.5 -68t-102.5 -224q-16 -99 -22 -216h468l-61 -383h-435q-5 -53 -17 -130q-12 -76 -51.5 -184.5t-83.5 -194.5h325q311 0 581 44l-22 -412q-131 -34 -343.5 -55t-444.5 -21h-495q-114 0 -169 46.5t-55 122.5q0 19 3 38q7 42 32 89.5t58 96.5t67 105t63.5 134.5
t43.5 165.5q12 78 15 155z" />
    <glyph glyph-name="currency" unicode="&#xa4;" horiz-adv-x="2141" 
d="M1763 709l249 -239l-288 -288l-249 252q-192 -110 -405 -110q-222 0 -410 109l-249 -251l-283 288l248 241q-112 185 -112 403q0 223 114 411l-250 246l283 284l252 -252q190 110 407 110q220 0 406 -107l248 248l288 -283l-249 -242q118 -192 118 -415q0 -217 -118 -405
zM1070 720q156 0 273 115.5t117 279.5q0 166 -113 284t-277 118q-158 0 -272.5 -116.5t-114.5 -285.5q0 -161 112 -278t275 -117z" />
    <glyph glyph-name="yen" unicode="&#xa5;" horiz-adv-x="1921" 
d="M875 2260l221 -854l507 854h500l-598 -985h234l-49 -306h-370l-59 -97l-19 -120h414l-48 -302h-414l-71 -450h-507l71 450h-410l48 302h410l19 121l-28 96h-366l48 306h230l-283 985h520z" />
    <glyph glyph-name="brokenbar" unicode="&#xa6;" horiz-adv-x="827" 
d="M208 -471v1076h411v-1076h-411zM208 1209v1075h411v-1075h-411z" />
    <glyph glyph-name="section" unicode="&#xa7;" horiz-adv-x="1849" 
d="M13 -405l108 383q287 -59 562 -59h62t62 3t66 9t57 18t53 29t36 44.5t22 62.5q6 36 -7.5 67.5t-38 55.5t-66 49t-81.5 44t-96 44q-2 1 -3.5 1.5t-4 1.5t-4.5 2q-72 32 -110 49.5t-104.5 53.5t-103.5 64t-84.5 74t-72.5 92t-43 108.5t-18 132.5q0 50 9 107q43 271 299 438
q-60 101 -60 212q0 40 7 79q41 264 255.5 429t539.5 165q190 0 338.5 -19t322.5 -63l-107 -373q-291 60 -563 60q-256 0 -283 -166q-5 -31 3 -58.5t31.5 -53t48 -45.5t67.5 -43t74 -37.5t82 -37.5q65 -29 106.5 -48.5t102.5 -53.5t100.5 -64t84 -74t70 -89.5t43 -105.5
t17.5 -126q0 -43 -8 -97q-41 -255 -300 -424q73 -104 73 -239q0 -46 -7 -87q-21 -133 -84.5 -237.5t-150 -170t-198 -109t-220.5 -60.5t-225 -17q-191 0 -340.5 18t-318.5 61zM772 1238q-43 -25 -73 -68t-39 -97q-2 -10 -2 -29q0 -64 49 -121t156 -114q52 -27 174 -73
t174 -75q94 56 110 158q12 79 -43 144.5t-187 133.5q-43 23 -154.5 66.5t-164.5 74.5z" />
    <glyph glyph-name="dieresis" unicode="&#xa8;" horiz-adv-x="1447" 
d="M511 1880q-89 0 -146 56t-57 143q0 20 3 41q16 102 95.5 171t180.5 69q88 0 143 -55.5t55 -141.5q0 -13 -4 -43q-16 -102 -93 -171t-177 -69zM1199 1880q-89 0 -146 57t-57 144q0 19 3 39q16 102 96 171t180 69q88 0 143 -55.5t55 -141.5q0 -13 -4 -43q-16 -102 -93 -171
t-177 -69z" />
    <glyph glyph-name="copyright" unicode="&#xa9;" horiz-adv-x="2634" 
d="M1597 989h294q-21 -232 -182 -373.5t-381 -141.5q-148 0 -264.5 53t-189.5 147.5t-111 219.5t-38 274q0 134 39.5 256t113 219t190 155t260.5 58q94 0 185 -29.5t170.5 -86t135.5 -150.5t72 -212h-294q-17 108 -89 167t-180 59q-131 0 -211.5 -117t-80.5 -319t77.5 -316
t214.5 -114q101 0 175.5 68t93.5 183zM1317 2354q242 0 462 -93.5t379.5 -252t253.5 -378t94 -461.5t-94 -463t-253.5 -381t-379.5 -254.5t-462 -94.5t-462 94.5t-379.5 254.5t-253.5 381t-94 463t94 461.5t253.5 378t379.5 252t462 93.5zM1317 2080q-187 0 -354.5 -70.5
t-287.5 -192t-190 -290.5t-70 -358q0 -192 70 -362.5t190 -292t287 -192.5t355 -71q187 0 354 71t287 192.5t190 292t70 362.5q0 189 -70 358t-190 290.5t-287 192t-354 70.5z" />
    <glyph glyph-name="ordfeminine" unicode="&#xaa;" horiz-adv-x="1354" 
d="M1345 1892l-79 -497q-20 -125 -47 -240q-216 -121 -561 -121q-221 0 -323 74t-102 227q0 45 9 98q26 166 125.5 265.5t283.5 130.5q115 20 347 28q4 21 4 45q0 63 -39 90t-123 27q-176 0 -442 -34l14 261q285 49 493 49q78 0 142 -8.5t122 -30t97.5 -56.5t63 -90
t23.5 -128q0 -39 -8 -90zM733 1608q-68 -17 -101 -52t-46 -118q-3 -19 -3 -35q0 -57 37 -80.5t111 -23.5q105 0 176 25q18 73 34 169l22 141q-173 -12 -230 -26z" />
    <glyph glyph-name="guillemotleft" unicode="&#xab;" horiz-adv-x="1921" 
d="M646 862l329 -696h-454l-373 696l593 696h454zM1434 862l328 -696h-454l-372 696l593 696h453z" />
    <glyph glyph-name="logicalnot" unicode="&#xac;" horiz-adv-x="2042" 
d="M1941 1349l-169 -1066h-426l103 650h-1195l66 416h1621z" />
    <glyph glyph-name="uni00AD" unicode="&#xad;" horiz-adv-x="1278" 
d="M238 688l63 396h878l-63 -396h-878z" />
    <glyph glyph-name="registered" unicode="&#xae;" horiz-adv-x="1667" 
d="M759 1561v-292h-190v764h281q159 0 232 -59t73 -175q0 -157 -133 -208l158 -322h-211l-140 292h-70zM111 1633q0 147 57 281t154 230t231 153t281 57t280.5 -57t230.5 -153t154 -230t57 -281t-57 -281.5t-154 -231.5t-230.5 -154.5t-280.5 -57.5t-281 57.5t-231 154.5
t-154 231.5t-57 281.5zM1361 1633q0 148 -69.5 270.5t-190.5 192t-267 69.5q-223 0 -375.5 -153.5t-152.5 -378.5q0 -150 69.5 -273t191 -193t267.5 -70t267 70t190.5 193t69.5 273zM827 1873h-68v-152h71q139 0 139 78q0 41 -33.5 57.5t-108.5 16.5z" />
    <glyph glyph-name="macron" unicode="&#xaf;" horiz-adv-x="1405" 
d="M330 1959l49 309h1028l-49 -309h-1028z" />
    <glyph glyph-name="degree" unicode="&#xb0;" horiz-adv-x="1312" 
d="M655 1265q-148 0 -273 73t-198 198.5t-73 273.5t73 273t198 198t273 73t273.5 -73t199 -198.5t73.5 -272.5t-73.5 -273t-199 -199t-273.5 -73zM655 1546q111 0 188 76.5t77 187.5q0 110 -77.5 187t-187.5 77t-186.5 -77t-76.5 -187q0 -111 76.5 -187.5t186.5 -76.5z" />
    <glyph glyph-name="plusminus" unicode="&#xb1;" horiz-adv-x="1919" 
d="M902 1470l79 495h423l-79 -495h599l-65 -415h-599l-79 -496h-423l79 496h-599l65 415h599zM70 -8l65 415h1621l-65 -415h-1621z" />
    <glyph glyph-name="twosuperior" unicode="&#xb2;" horiz-adv-x="1162" 
d="M357 2679q262 52 473 52q79 0 143 -8t121 -28t95.5 -52t61 -82.5t22.5 -117.5q0 -37 -6 -77q-30 -187 -146.5 -311t-332.5 -205q-109 -41 -157 -85.5t-72 -116.5h594l-46 -292h-984q40 121 60 178.5t53.5 141.5t58.5 123.5t63.5 93.5t82 85.5t101 65.5t132.5 64
q118 48 172 91.5t65 113.5q3 18 3 33q0 59 -54 79.5t-196 20.5q-126 0 -317 -34z" />
    <glyph glyph-name="threesuperior" unicode="&#xb3;" horiz-adv-x="1138" 
d="M415 1931l40 253q155 3 317 28q49 7 77 38t37 88q6 37 -3 60.5t-33.5 34.5t-52.5 15t-72 4q-114 0 -384 -34l7 263q258 52 442 52q79 0 141.5 -6.5t124 -25.5t102 -50.5t65.5 -84t25 -123.5q0 -29 -7 -78q-15 -92 -68 -167.5t-143 -122.5q76 -36 111 -88t35 -127
q0 -32 -6 -70q-20 -126 -70 -213.5t-129.5 -138t-178 -72.5t-228.5 -22q-75 0 -155 8.5t-130.5 17t-147.5 26.5l79 268q229 -33 350 -33q124 0 180 30t70 119q3 21 3 39q0 86 -87 98q-111 14 -271 14h-40z" />
    <glyph glyph-name="acute" unicode="&#xb4;" horiz-adv-x="899" 
d="M210 1872l388 543h497l-504 -543h-381z" />
    <glyph glyph-name="mu" unicode="&#xb5;" horiz-adv-x="2098" 
d="M1929 302l-52 -326q-109 0 -195 20.5t-141.5 57t-89 80t-49.5 95.5q-111 -136 -224.5 -194.5t-253.5 -58.5q-73 0 -138.5 24.5t-105.5 68.5l-115 -725h-462l386 2437h464l-169 -1065q-7 -42 -7 -85q0 -117 55.5 -185.5t159.5 -68.5q97 0 171 45t124 133t82 197t56 258
l122 771h465l-170 -1081q-24 -150 -24 -213q0 -72 25 -117.5t86 -67.5z" />
    <glyph glyph-name="paragraph" unicode="&#xb6;" horiz-adv-x="2141" 
d="M1062 -513h-360l225 1421q-300 15 -481.5 182.5t-181.5 415.5q0 48 8 102q57 356 319.5 539t679.5 183h921l-451 -2843h-359l399 2521h-319z" />
    <glyph glyph-name="periodcentered" unicode="&#xb7;" horiz-adv-x="970" 
d="M261 856q0 43 9 100q17 110 53.5 170t102.5 86t179 26q139 0 196.5 -40.5t57.5 -142.5q0 -42 -9 -99q-26 -162 -96.5 -223t-237.5 -61q-140 0 -197.5 41t-57.5 143z" />
    <glyph glyph-name="cedilla" unicode="&#xb8;" horiz-adv-x="717" 
d="M57 -321l238 321h265l-147 -188q90 -14 150.5 -69t60.5 -139q0 -16 -3 -34q-12 -77 -54 -135.5t-104 -92t-133 -50t-150 -16.5q-73 0 -147 21t-129 58l96 185q107 -61 207 -61q42 0 74.5 19.5t39.5 63.5q6 34 -20 59t-71.5 36.5t-88 16.5t-84.5 5z" />
    <glyph glyph-name="onesuperior" unicode="&#xb9;" horiz-adv-x="821" 
d="M381 1359l162 1020q-110 -24 -283 -41l28 273q216 32 389 108h262l-215 -1360h-343z" />
    <glyph glyph-name="ordmasculine" unicode="&#xba;" horiz-adv-x="1375" 
d="M1386 1885q0 -94 -20 -220q-54 -344 -200.5 -487.5t-447.5 -143.5q-247 0 -357 95t-110 313q0 94 20 223q54 343 200.5 486.5t446.5 143.5q248 0 358 -96t110 -314zM601 1474q0 -90 36 -124t124 -34q120 0 171.5 71t84.5 278q19 120 19 184q0 92 -36.5 128t-124.5 36
q-120 0 -170.5 -70t-83.5 -278q-20 -123 -20 -191z" />
    <glyph glyph-name="guillemotright" unicode="&#xbb;" horiz-adv-x="1921" 
d="M1121 862l-593 -696h-454l549 696l-328 696h453zM1909 862l-593 -696h-455l550 696l-329 696h454z" />
    <glyph glyph-name="onequarter" unicode="&#xbc;" horiz-adv-x="2521" 
d="M1832 0l47 293h-383q-101 0 -144 33t-43 96q0 13 4 43q15 93 139 228l501 545q76 83 131.5 110.5t129.5 27.5q66 0 107 -38t41 -109q0 -13 -4 -43l-99 -625h154l-43 -268h-154l-47 -293h-337zM721 2327h262l-216 -1361h-343l161 1020q-126 -25 -282 -40l29 274
q220 33 389 107zM2341 2378l-1725 -2426h-336l1724 2426h337zM1677 561h246l54 341z" />
    <glyph glyph-name="onehalf" unicode="&#xbd;" horiz-adv-x="2798" 
d="M1816 1324q273 52 473 52q80 0 143.5 -8t121.5 -28t96.5 -52t61 -82.5t22.5 -116.5q0 -35 -6 -76q-30 -188 -147 -313t-332 -205q-111 -42 -158.5 -86.5t-70.5 -116.5h593l-46 -292h-983q35 105 53 157.5t47 129.5t49 114t52 90t63 81.5t75 64.5t95 62t116 53
q118 48 172 92t65 114q3 18 3 33q0 59 -54 79t-196 20q-120 0 -318 -33zM307 1946l28 274q219 33 389 107h262l-216 -1361h-343l162 1020q-130 -25 -282 -40zM2007 2378h337l-1724 -2426h-336z" />
    <glyph glyph-name="threequarters" unicode="&#xbe;" horiz-adv-x="2743" 
d="M2060 0l47 293h-384q-101 0 -144 33t-43 96q0 13 4 43q15 93 139 228l501 545q76 82 132 110t129 28q67 0 108 -38t41 -110q0 -12 -4 -42l-99 -625h154l-43 -268h-154l-46 -293h-338zM1292 1973q-14 -91 -67 -166.5t-144 -122.5q77 -36 111.5 -88t34.5 -127q0 -33 -6 -70
q-20 -126 -70 -214t-130 -138.5t-178 -72.5t-228 -22q-75 0 -155 8t-131 17t-147 27l79 268q243 -33 349 -33q124 0 180.5 30t70.5 120q3 20 3 37q0 87 -88 99q-120 15 -276 15h-34l40 253q171 3 316 26q50 7 77.5 38t36.5 89q11 69 -30 91.5t-130 22.5q-130 0 -385 -34
l7 264q270 52 443 52q79 0 141.5 -6.5t124 -26t102 -51t65.5 -84t25 -123.5q0 -29 -7 -78zM2568 2378l-1724 -2426h-337l1725 2426h336zM1904 561h246l54 341z" />
    <glyph glyph-name="questiondown" unicode="&#xbf;" horiz-adv-x="1768" 
d="M929 1074h445l-26 -223q-4 -41 -11 -80q-15 -95 -46 -162.5t-72 -103.5t-89.5 -58t-99.5 -32t-102.5 -18t-99 -23.5t-86.5 -42.5t-68 -79.5t-41 -130.5q-6 -39 -6 -71q0 -103 74.5 -145.5t257.5 -42.5q311 0 572 55l22 -427q-351 -85 -716 -85q-105 0 -186.5 5
t-164.5 19.5t-143.5 38.5t-114.5 63.5t-87.5 93.5t-53 129t-19.5 170q0 96 17 201q18 116 51.5 209t76 153.5t93 107.5t103.5 73t108.5 46.5t106.5 31t97.5 25t82 30t60.5 43.5t33 68zM1177 1237q-136 0 -195 44t-59 144q0 35 8 85q24 149 97.5 211t235.5 62
q137 0 195.5 -43t58.5 -143q0 -36 -8 -87q-24 -150 -97.5 -211.5t-235.5 -61.5z" />
    <glyph glyph-name="Agrave" unicode="&#xc0;" horiz-adv-x="2206" 
d="M492 0h-549l977 1979q98 198 210.5 286.5t258.5 88.5q282 0 347 -375l340 -1979h-565l-71 532h-713zM1221 2556l-378 440h532l253 -440h-407zM913 954h472l-109 822z" />
    <glyph glyph-name="Aacute" unicode="&#xc1;" horiz-adv-x="2206" 
d="M492 0h-549l977 1979q98 198 210 286.5t259 88.5q281 0 346 -375l341 -1979h-565l-71 532h-713zM1212 2536l393 440h531l-516 -440h-408zM913 954h472l-109 822z" />
    <glyph glyph-name="Acircumflex" unicode="&#xc2;" horiz-adv-x="2207" 
d="M493 0h-550l978 1979q98 198 210.5 286.5t258.5 88.5q282 0 347 -375l340 -1979h-566l-70 532h-713zM1338 2978h283l365 -443h-381l-157 213l-230 -213h-377zM914 954h471l-108 822z" />
    <glyph glyph-name="Atilde" unicode="&#xc3;" horiz-adv-x="2206" 
d="M1718 2972h252q-49 -210 -155.5 -324t-220.5 -114q-56 0 -100 18.5t-70 45t-46 53t-40 45t-41 18.5q-72 0 -125 -172h-251q25 107 67.5 192.5t93 138t105.5 80t109 27.5q56 0 100 -18.5t70 -45t46.5 -53t40.5 -45t41 -18.5q73 0 124 172zM-57 0l977 1979
q98 198 210 286.5t259 88.5q282 0 347 -375l340 -1979h-565l-71 532h-713l-235 -532h-549zM1385 954l-109 822l-363 -822h472z" />
    <glyph glyph-name="Adieresis" unicode="&#xc4;" horiz-adv-x="2207" 
d="M1067 2511q-90 0 -147 56.5t-57 144.5q0 20 3 39q16 101 96.5 170.5t180.5 69.5q88 0 143 -56t55 -143q0 -20 -3 -41q-17 -102 -94.5 -171t-176.5 -69zM1755 2511q-89 0 -146 56.5t-57 144.5q0 20 3 39q16 102 96.5 171t179.5 69q89 0 143.5 -55.5t54.5 -142.5
q0 -21 -3 -42q-17 -102 -94.5 -171t-176.5 -69zM493 0h-550l977 1979q98 198 210.5 286.5t259.5 88.5q281 0 346 -375l341 -1979h-566l-71 532h-713zM913 954h472l-109 822z" />
    <glyph glyph-name="Aring" unicode="&#xc5;" horiz-adv-x="2207" 
d="M1112 2800q0 25 5 57q23 146 141 249.5t261 103.5q128 0 212 -85t84 -212q0 -24 -5 -56q-23 -146 -141.5 -250t-261.5 -104q-128 0 -211.5 85t-83.5 212zM493 0h-550l978 1979q98 198 210.5 286.5t258.5 88.5q282 0 347 -375l340 -1979h-566l-70 532h-713zM1438 2694
q66 0 120 47.5t65 115.5q11 67 -28.5 115t-105.5 48t-120 -48t-65 -115q-11 -68 28.5 -115.5t105.5 -47.5zM914 954h471l-108 822z" />
    <glyph glyph-name="AE" unicode="&#xc6;" horiz-adv-x="2994" 
d="M-57 0l983 1988q55 112 124 186t152 112.5t167 53t194 14.5q209 0 327 -78q101 38 221 49t294 11q309 0 637 -18l-68 -429h-650q-87 0 -138 -10.5t-86 -42.5t-51.5 -80t-30.5 -134l-35 -219h873l-69 -438h-873l-41 -254q-12 -72 -12 -120q0 -87 50 -118t184 -31h649
l-67 -428q-385 -20 -643 -20q-97 0 -161 2t-147.5 11.5t-137.5 27t-112 49.5t-91.5 78t-55 114t-21.5 155q0 47 6 101h-581l-238 -532h-552zM922 954h457l128 807q4 25 4 50q0 89 -76 89q-49 0 -83.5 -32t-64.5 -99z" />
    <glyph glyph-name="Ccedilla" unicode="&#xc7;" horiz-adv-x="1848" 
d="M1901 1851q-255 43 -486 43q-101 0 -181.5 -20t-137.5 -49.5t-102 -86.5t-72.5 -108t-51 -138t-36.5 -152.5t-30 -174.5q-39 -247 -39 -357q0 -90 19 -155t65.5 -115.5t129.5 -76t205 -25.5q251 0 498 44l-18 -428q-218 -62 -520 -74l-116 -149q90 -14 151 -68.5
t61 -138.5q0 -17 -3 -35q-10 -63 -39.5 -113t-72 -83.5t-97 -56t-112.5 -32t-121 -9.5q-74 0 -148 21t-128 58l96 184q106 -60 207 -60q43 0 75.5 19.5t39.5 63.5q5 34 -21 58.5t-71 36.5t-87.5 17t-84.5 5l210 285q-243 17 -390 101t-211 233t-64 381q0 189 44 469
q34 215 77.5 376.5t107.5 299t149.5 230.5t202.5 158t266.5 95t341.5 30q356 0 609 -78z" />
    <glyph glyph-name="Egrave" unicode="&#xc8;" horiz-adv-x="1898" 
d="M225 584l184 1165q19 118 57.5 210t85 153.5t118.5 104.5t135 66t159 35.5t166 15t179 2.5q309 0 637 -18l-68 -429h-649q-88 0 -139 -10.5t-86 -42.5t-52 -80t-30 -134l-34 -219h873l-70 -438h-872l-41 -254q-12 -72 -12 -120q0 -87 49.5 -118t183.5 -31h650l-68 -428
q-385 -20 -643 -20q-97 0 -161 2t-147.5 11.5t-137.5 27t-112 49.5t-91.5 78t-55 114t-21.5 155q0 72 13 153zM1245 2518l-378 440h531l254 -440h-407z" />
    <glyph glyph-name="Eacute" unicode="&#xc9;" horiz-adv-x="1898" 
d="M225 584l185 1165q19 118 57.5 210t84.5 153.5t118 104.5t135 66t159 35.5t166 15t179 2.5q309 0 637 -18l-68 -429h-649q-88 0 -139 -10.5t-86 -42.5t-52 -80t-30 -134l-34 -219h873l-70 -438h-872l-41 -254q-12 -72 -12 -120q0 -87 49.5 -118t183.5 -31h650l-68 -428
q-385 -20 -643 -20q-97 0 -161 2t-147.5 11.5t-137.5 27t-112 49.5t-91.5 77.5t-55 113.5t-21.5 155q0 73 13 154zM1032 2518l392 440h532l-517 -440h-407z" />
    <glyph glyph-name="Ecircumflex" unicode="&#xca;" horiz-adv-x="1899" 
d="M1946 2318l-68 -429h-649q-88 0 -139 -10.5t-85.5 -42.5t-51 -80t-30.5 -134l-35 -219h873l-69 -438h-873l-40 -254q-12 -72 -12 -121q0 -87 49.5 -117.5t182.5 -30.5h650l-68 -428q-385 -20 -643 -20q-97 0 -161 2t-147.5 11.5t-137.5 27t-112 49.5t-91.5 77.5
t-55 113.5t-21.5 155q0 73 13 154l185 1165q19 118 57.5 210t84.5 153.5t118 104.5t135 66t159 35.5t166 15t179 2.5q309 0 637 -18zM1229 2960h283l365 -443h-381l-157 213l-231 -213h-376z" />
    <glyph glyph-name="Edieresis" unicode="&#xcb;" horiz-adv-x="1898" 
d="M1946 2318l-69 -429h-649q-88 0 -139 -10.5t-85.5 -42.5t-51 -80t-30.5 -134l-35 -219h873l-70 -438h-873l-40 -254q-12 -81 -12 -119q0 -88 49.5 -119t184.5 -31h650l-68 -428q-387 -20 -643 -20q-97 0 -161 2t-147.5 11.5t-138 27t-112.5 49.5t-91 78t-54.5 114
t-21.5 155q0 72 13 153l184 1165q19 118 57.5 210t85 153.5t118.5 104.5t134.5 66t158.5 35.5t166.5 15t179.5 2.5q306 0 637 -18zM962 2495q-89 0 -146 56t-57 143q0 20 3 41q16 102 96 171t180 69q89 0 143.5 -55.5t54.5 -142.5q0 -19 -3 -42q-16 -102 -93.5 -171
t-177.5 -69zM1650 2495q-88 0 -145 56t-57 143q0 20 3 41q16 102 96 171t179 69q89 0 144 -55.5t55 -141.5q0 -13 -4 -43q-16 -102 -93.5 -171t-177.5 -69z" />
    <glyph glyph-name="Igrave" unicode="&#xcc;" horiz-adv-x="1005" 
d="M142 0l369 2330h535l-369 -2330h-535zM632 2526l-378 440h532l253 -440h-407z" />
    <glyph glyph-name="Iacute" unicode="&#xcd;" horiz-adv-x="1005" 
d="M142 0l369 2330h535l-369 -2330h-535zM580 2526l393 440h531l-518 -440h-406z" />
    <glyph glyph-name="Icircumflex" unicode="&#xce;" horiz-adv-x="1006" 
d="M733 2952h283l365 -443h-381l-158 213l-230 -213h-377zM142 0l369 2330h536l-369 -2330h-536z" />
    <glyph glyph-name="Idieresis" unicode="&#xcf;" horiz-adv-x="1006" 
d="M463 2488q-89 0 -146 57t-57 144q0 19 3 39q16 102 96 171t180 69q89 0 143.5 -55.5t54.5 -142.5q0 -20 -3 -42q-16 -102 -93.5 -171t-177.5 -69zM1151 2488q-88 0 -145 56t-57 143q0 20 3 41q16 102 96 171t179 69q89 0 144 -55.5t55 -141.5q0 -13 -4 -43
q-16 -102 -93.5 -171t-177.5 -69zM142 0l369 2330h536l-369 -2330h-536z" />
    <glyph glyph-name="Eth" unicode="&#xd0;" horiz-adv-x="2250" 
d="M373 1028h-171l55 342h170l145 913q357 71 772 71q199 0 346.5 -29t247.5 -84.5t161.5 -144t88 -199t26.5 -257.5q0 -189 -45 -475q-22 -139 -46 -250t-57 -219t-73.5 -191.5t-93.5 -160.5t-118.5 -133t-147.5 -102t-182 -74.5t-220.5 -43.5t-263.5 -15q-422 0 -749 68z
M907 1028l-93 -590q88 -12 162 -12q88 0 161.5 12.5t130 31t103 56t78.5 69.5t60 90.5t44 100.5t33 118t25.5 124.5t22.5 136.5q39 252 39 353q0 73 -12.5 130t-44 106.5t-83.5 81.5t-133 50t-190 18q-66 0 -166 -13l-83 -521h321l-55 -342h-320z" />
    <glyph glyph-name="Ntilde" unicode="&#xd1;" horiz-adv-x="2336" 
d="M1218 2000l421 -1256l251 1586h482l-307 -1936q-66 -418 -385 -418q-146 0 -229.5 76.5t-150.5 279.5l-419 1260l-252 -1592h-482l307 1938q66 416 384 416q136 0 225.5 -81t154.5 -273zM1247 2540h-252q49 210 155.5 324t220.5 114q56 0 100 -18.5t70 -45t46 -53
t40.5 -45t41.5 -18.5q71 0 125 172h251q-49 -210 -155.5 -324t-220.5 -114q-56 0 -100 18.5t-70 45t-46 53t-40 45t-41 18.5q-74 0 -125 -172z" />
    <glyph glyph-name="Ograve" unicode="&#xd2;" horiz-adv-x="2190" 
d="M999 -24q-283 0 -454 75.5t-248 231t-77 410.5q0 191 44 472q34 217 79 382t109.5 301t148.5 228.5t197 156t255 92.5t322 29q283 0 453.5 -75.5t247.5 -231t77 -410.5q0 -199 -44 -472q-34 -217 -78.5 -382t-109 -301t-148.5 -228.5t-197.5 -156t-255 -92.5t-321.5 -29z
M1568 1165q47 297 47 413q0 162 -68.5 243t-239.5 81q-79 0 -142.5 -19.5t-109 -48.5t-82.5 -86t-60 -107.5t-45 -139.5t-34 -155.5t-30 -180.5q-47 -297 -47 -411q0 -162 69 -243t241 -81q79 0 142.5 19.5t108.5 48t82 85.5t60 107t44.5 139t33.5 155.5t30 180.5z
M1290 2525l-377 440h531l253 -440h-407z" />
    <glyph glyph-name="Oacute" unicode="&#xd3;" horiz-adv-x="2191" 
d="M999 -24q-283 0 -454 75.5t-248 231t-77 411.5q0 190 44 471q34 217 79 382t109.5 301t148.5 228.5t197.5 156t255.5 92.5t322 29q283 0 453.5 -75.5t247.5 -231t77 -410.5q0 -199 -44 -472q-34 -217 -78.5 -382t-109 -301t-149 -228.5t-197.5 -156t-255 -92.5t-322 -29z
M759 754q0 -80 14.5 -137t49 -100.5t95.5 -65t150 -21.5q79 0 142.5 19.5t108.5 48t82 85.5t60 107t44.5 139t33.5 155.5t30 180.5q47 297 47 413q0 162 -68.5 243t-239.5 81q-79 0 -142.5 -19.5t-109 -48.5t-82.5 -86t-60 -107.5t-45 -139.5t-34 -155.5t-30 -180.5
q-46 -291 -46 -411zM1123 2525l393 440h531l-517 -440h-407z" />
    <glyph glyph-name="Ocircumflex" unicode="&#xd4;" horiz-adv-x="2191" 
d="M999 -24q-283 0 -454 75.5t-248 231t-77 411.5q0 190 44 471q34 217 79 382t109.5 301t148.5 228.5t197.5 156t255.5 92.5t322 29q283 0 453.5 -75.5t247.5 -231t77 -410.5q0 -199 -44 -472q-34 -217 -79 -382t-109.5 -301t-148.5 -228.5t-197 -156t-255 -92.5t-322 -29z
M759 754q0 -162 68.5 -243t239.5 -81q70 0 126.5 12.5t101 42t78 61t60.5 89t45 104t36 128t28.5 140t26.5 158.5q47 297 47 412q0 80 -15 137t-49.5 101t-95.5 65.5t-149 21.5q-69 0 -126 -12.5t-101 -42.5t-78 -61.5t-61 -88.5t-45.5 -105t-36 -128.5t-28 -140
t-26.5 -158.5q-46 -291 -46 -411zM1328 2967h283l365 -443h-382l-157 213l-230 -213h-377z" />
    <glyph glyph-name="Otilde" unicode="&#xd5;" horiz-adv-x="2191" 
d="M1709 2945h251q-25 -107 -67.5 -192.5t-93.5 -138t-106 -80t-109 -27.5q-56 0 -100 18.5t-70 45t-46 53t-40 45t-41 18.5q-72 0 -125 -172h-252q49 209 156 323.5t220 114.5q56 0 100 -18.5t70 -45t46.5 -53t40.5 -45t41 -18.5q71 0 125 172zM264 1165q34 217 79 382
t109.5 301t148.5 228.5t197.5 156t255.5 92.5t322 29q283 0 453.5 -75.5t247.5 -231t77 -410.5q0 -199 -44 -472q-34 -217 -78.5 -382t-109 -301t-149 -228.5t-197.5 -156t-255 -92.5t-322 -29q-283 0 -454 75.5t-248 231t-77 411.5q0 190 44 471zM1616 1577q0 80 -15 137
t-49.5 101t-95.5 65.5t-149 21.5q-69 0 -126 -12.5t-101 -42.5t-78 -61.5t-61 -88.5t-45.5 -105t-36 -128.5t-28 -140t-26.5 -158.5q-46 -291 -46 -411q0 -162 68.5 -243t239.5 -81q79 0 142.5 19.5t109 48t82.5 85.5t60 107t44.5 139t33.5 155.5t30 180.5q47 297 47 412z
" />
    <glyph glyph-name="Odieresis" unicode="&#xd6;" horiz-adv-x="2191" 
d="M998 -24q-283 0 -453.5 75.5t-247.5 231t-77 410.5q0 191 44 472q34 217 78.5 382t109.5 301t149 228.5t197.5 156t255 92.5t321.5 29q283 0 454 -75.5t248 -231t77 -411.5q0 -190 -44 -471q-34 -217 -79 -382t-109.5 -301t-148.5 -228.5t-197.5 -156t-255.5 -92.5
t-322 -29zM758 753q0 -79 15 -136t49.5 -100.5t95.5 -65t149 -21.5q79 0 142.5 19.5t108.5 48t82 85.5t60 107t45 139t34 155t30 181q47 297 47 413q0 162 -68.5 243t-239.5 81q-79 0 -142.5 -19.5t-109 -48.5t-82.5 -86t-60 -107.5t-45 -139.5t-34 -155.5t-30 -180.5
q-47 -297 -47 -412zM1055 2481q-89 0 -146 56t-57 143q0 20 3 41q16 102 96 171t180 69q89 0 143.5 -55.5t54.5 -142.5q0 -19 -3 -42q-16 -102 -93.5 -171t-177.5 -69zM1744 2481q-90 0 -146.5 56.5t-56.5 144.5q0 20 3 39q16 102 96 171t179 69q89 0 144 -55.5t55 -141.5
q0 -13 -4 -43q-16 -102 -93 -171t-177 -69z" />
    <glyph glyph-name="multiply" unicode="&#xd7;" horiz-adv-x="1717" 
d="M1273 234l-383 465l-527 -464l-229 279l528 464l-382 465l323 279l379 -462l527 463l226 -280l-524 -462l381 -464z" />
    <glyph glyph-name="Oslash" unicode="&#xd8;" horiz-adv-x="2191" 
d="M602 28l-192 -280l-262 189l190 277q-118 164 -118 478q0 200 44 473q34 217 78.5 382t109 301t149 228.5t197.5 156t255 92.5t322 29q240 0 396 -53l193 281l263 -189l-191 -278q118 -165 118 -479q0 -190 -44 -471q-34 -217 -79 -382t-109.5 -301t-148.5 -228.5
t-197.5 -156t-255.5 -92.5t-322 -29q-237 0 -396 52zM1067 430q79 0 142.5 19.5t108.5 48t82 85.5t60 107t45 139t34 155t30 181q36 231 43 329l-2 1l-711 -1035q65 -30 168 -30zM763 833l713 1039q-68 30 -168 30q-79 0 -142.5 -19.5t-109 -48.5t-82.5 -86t-60 -107.5
t-45 -139.5t-34 -155.5t-30 -180.5q-38 -238 -44 -331z" />
    <glyph glyph-name="Ugrave" unicode="&#xd9;" horiz-adv-x="2191" 
d="M2239 2330l-243 -1532q-22 -138 -60.5 -250.5t-90 -197.5t-120.5 -149t-146 -106.5t-172 -69.5t-194 -38t-216 -11q-144 0 -256 17t-208 58.5t-159 109t-98.5 171t-35.5 240.5q0 105 19 226l243 1532h527l-247 -1558q-10 -59 -10 -110q0 -121 69 -173t229 -52
q189 0 277 75t117 260l247 1558h528zM1280 2509l-377 440h532l253 -440h-408z" />
    <glyph glyph-name="Uacute" unicode="&#xda;" horiz-adv-x="2190" 
d="M2238 2330l-243 -1532q-30 -192 -93.5 -335.5t-150 -235.5t-206.5 -149t-251.5 -79.5t-296.5 -22.5q-144 0 -256 17t-208.5 58.5t-159.5 109t-98 171t-35 240.5q0 105 19 226l242 1532h527l-247 -1558q-10 -68 -10 -110q0 -122 69.5 -173.5t229.5 -51.5q188 0 276 75.5
t117 259.5l247 1558h528zM1126 2509l393 440h532l-518 -440h-407z" />
    <glyph glyph-name="Ucircumflex" unicode="&#xdb;" horiz-adv-x="2190" 
d="M2238 2330l-243 -1532q-30 -192 -93.5 -335.5t-150 -236t-206.5 -149t-251.5 -79t-296.5 -22.5q-144 0 -256 17t-208.5 58.5t-159.5 109t-98 171t-35 240.5q0 105 19 226l243 1532h526l-247 -1558q-10 -68 -10 -110q0 -122 69.5 -173.5t229.5 -51.5q188 0 276.5 75.5
t117.5 259.5l247 1558h527zM1339 2951h283l364 -443h-381l-157 213l-231 -213h-376z" />
    <glyph glyph-name="Udieresis" unicode="&#xdc;" horiz-adv-x="2190" 
d="M2239 2330l-244 -1532q-26 -161 -73 -287t-115.5 -216t-151.5 -152.5t-189 -98.5t-219 -52t-250 -16q-144 0 -256 17t-208 58.5t-159 109t-98.5 171t-35.5 240.5q0 105 19 226l243 1532h527l-247 -1558q-10 -59 -10 -110q0 -121 69 -173t229 -52q189 0 277 75t117 260
l247 1558h528zM1054 2489q-90 0 -147 56.5t-57 144.5q0 20 3 39q16 102 96 171t180 69q89 0 143.5 -55.5t54.5 -142.5q0 -19 -3 -42q-16 -102 -93.5 -171t-176.5 -69zM1742 2489q-90 0 -146.5 56.5t-56.5 144.5q0 20 3 39q16 102 96 171t179 69q89 0 144 -55.5t55 -141.5
q0 -13 -4 -43q-16 -102 -93 -171t-177 -69z" />
    <glyph glyph-name="Yacute" unicode="&#xdd;" horiz-adv-x="2030" 
d="M1331 896l-142 -896h-534l142 896l-510 1434h577l289 -890l585 890h557zM1061 2499l393 440h531l-517 -440h-407z" />
    <glyph glyph-name="Thorn" unicode="&#xde;" horiz-adv-x="1978" 
d="M113 0l369 2330h533l-58 -371q128 7 226 7q105 0 190.5 -5.5t173 -21.5t154.5 -41.5t127 -68t98.5 -99.5t61 -137t22.5 -179q0 -86 -16 -183q-21 -130 -60.5 -235t-92.5 -182t-125 -134.5t-151 -94.5t-178 -59.5t-198.5 -31.5t-218.5 -9q-118 0 -246 9l-78 -494h-533z
M793 929q75 -10 228 -10q98 0 169.5 14t130 48t94.5 96t50 154q8 50 8 85q0 117 -79.5 167.5t-267.5 50.5q-115 0 -240 -16z" />
    <glyph glyph-name="germandbls" unicode="&#xdf;" horiz-adv-x="2137" 
d="M1524 565q0 48 -29 82t-75 55.5t-102 41.5t-111.5 48.5t-101.5 68t-75 109t-29 162.5q0 57 10 118q14 89 52 159.5t88.5 116t108.5 82.5t115 67t105 60t81.5 72t41.5 94q12 79 -62 125.5t-230 46.5q-138 0 -225 -47t-143 -158.5t-87 -308.5l-247 -1559h-503l247 1559
q40 254 115.5 429.5t199 289t293.5 164.5t404 51q156 0 281 -24t211.5 -68t144.5 -106t85 -137t27 -163q0 -47 -8 -101q-15 -92 -54 -167.5t-90 -125t-109.5 -90t-116 -71t-105 -58.5t-80.5 -63t-39 -75q-6 -39 8 -68.5t43 -49t68.5 -36t85 -33.5t91 -37t87.5 -51
t74.5 -70.5t52 -101t19.5 -138.5q0 -57 -10 -118q-24 -153 -89.5 -264.5t-162.5 -176t-211.5 -94.5t-251.5 -30q-122 0 -279 23.5t-276 62.5l106 379q102 -23 229 -41.5t208 -18.5q30 0 59.5 5.5t64.5 20t60.5 47.5t32.5 80q3 16 3 31z" />
    <glyph glyph-name="agrave" unicode="&#xe0;" horiz-adv-x="1807" 
d="M1731 1219l-113 -718q-29 -183 -71 -350q-314 -175 -806 -175q-317 0 -463.5 107.5t-146.5 330.5q0 66 12 143q39 247 179.5 389.5t410.5 186.5q171 28 502 42q5 35 5 59q0 87 -57 124.5t-180 37.5q-264 0 -633 -48l20 386q408 71 708 71q113 0 204.5 -12.5t175.5 -44
t140.5 -82t90 -130.5t33.5 -186q0 -57 -11 -131zM850 803q-69 -17 -108 -40t-65.5 -70.5t-39.5 -129.5q-4 -23 -4 -48q0 -80 54 -112.5t162 -32.5q156 0 253 35q26 100 49 239l31 196q-8 -1 -53 -3.5t-60 -3.5t-53 -4.5t-60 -6.5t-51.5 -8t-54.5 -11zM1150 2543l216 -543
h-380l-332 543h496z" />
    <glyph glyph-name="aacute" unicode="&#xe1;" horiz-adv-x="1806" 
d="M1731 1219l-113 -718q-27 -166 -71 -350q-314 -175 -807 -175q-317 0 -463 107.5t-146 329.5q0 67 12 144q39 248 179 390t410 186q173 28 503 42q5 35 5 57q0 87 -57 125.5t-180 38.5q-265 0 -634 -48l20 386q408 71 709 71q113 0 204.5 -12.5t175.5 -44t140.5 -82
t90 -130.5t33.5 -186q0 -57 -11 -131zM849 803q-69 -17 -108 -40t-65.5 -70.5t-39.5 -129.5q-4 -23 -4 -47q0 -80 54.5 -113t161.5 -33q156 0 254 35q30 115 49 239l30 196q-8 -1 -53 -3.5t-60 -3.5t-53 -4.5t-60 -6.5t-51.5 -8t-54.5 -11zM1789 2540l-504 -543h-381
l389 543h496z" />
    <glyph glyph-name="acircumflex" unicode="&#xe2;" horiz-adv-x="1806" 
d="M1731 1219l-114 -718q-29 -179 -70 -350q-314 -175 -808 -175q-316 0 -462 107.5t-146 330.5q0 66 12 143q39 248 178.5 390t409.5 186q173 28 504 42q5 35 5 57q0 88 -57 126t-181 38q-264 0 -633 -48l19 386q408 71 709 71q113 0 204.5 -12.5t175.5 -44t141 -81.5
t90.5 -130.5t33.5 -185.5q0 -58 -11 -132zM849 803q-102 -24 -147.5 -72t-64.5 -168q-4 -23 -4 -48q0 -80 53.5 -112.5t161.5 -32.5q156 0 253 35q24 88 49 239l31 196q-8 -1 -53 -3.5t-60 -3.5t-53 -4.5t-60 -6.5t-51.5 -8t-54.5 -11zM1690 1986h-357l-138 262l-224 -262
h-352l485 546h265z" />
    <glyph glyph-name="atilde" unicode="&#xe3;" horiz-adv-x="1807" 
d="M1732 1219l-114 -718q-29 -179 -70 -350q-314 -175 -807 -175q-318 0 -464 108t-146 331q0 65 12 142q39 247 179.5 389.5t409.5 186.5q174 28 503 42q5 35 5 58q0 87 -57 125t-180 38q-263 0 -634 -48l21 386q408 71 709 71q112 0 203.5 -12.5t175.5 -44t141 -81.5
t90.5 -130.5t33.5 -185.5q0 -58 -11 -132zM1047 2501q56 0 100 -19.5t70 -47t46 -55t40 -47t41 -19.5q73 0 126 179h252q-26 -112 -69.5 -201t-94.5 -143.5t-106 -83.5t-109 -29q-56 0 -100 19.5t-69.5 47t-45.5 55t-40 47t-41 19.5q-72 0 -127 -179h-251
q50 218 157.5 337.5t220.5 119.5zM850 803q-69 -17 -107.5 -40t-65.5 -70.5t-40 -129.5q-4 -23 -4 -48q0 -80 54 -112.5t162 -32.5q156 0 253 35q24 88 49 239l32 196q-11 -1 -46.5 -3t-50.5 -3t-46.5 -3.5t-51 -5t-46 -5.5t-49 -7.5t-43.5 -9.5z" />
    <glyph glyph-name="adieresis" unicode="&#xe4;" horiz-adv-x="1807" 
d="M1732 1219l-114 -718q-29 -183 -71 -350q-314 -175 -807 -175q-317 0 -463 108t-146 331q0 65 12 142q39 247 179.5 389.5t409.5 186.5q172 28 503 42q5 35 5 57q0 87 -57 125.5t-180 38.5q-265 0 -634 -48l20 386q408 71 709 71q113 0 204.5 -12.5t175.5 -44t141 -81.5
t90.5 -130.5t33.5 -185.5q0 -58 -11 -132zM849 803q-69 -17 -107.5 -40t-65 -70.5t-39.5 -129.5q-4 -23 -4 -48q0 -80 53.5 -112.5t161.5 -32.5q157 0 254 35q24 88 49 239l31 196q-6 0 -53 -3t-60.5 -4t-53 -4.5t-60.5 -6.5t-51 -8t-55 -11zM617 2254q16 102 95.5 171
t180.5 69q88 0 143 -56t55 -143q0 -20 -3 -41q-17 -102 -94.5 -171t-176.5 -69q-90 0 -146.5 56t-56.5 143q0 20 3 41zM1305 2254q16 102 96 171t180 69q89 0 144 -56t55 -143q0 -20 -3 -41q-17 -102 -94.5 -171t-177.5 -69q-89 0 -146 57t-57 144q0 19 3 39z" />
    <glyph glyph-name="aring" unicode="&#xe5;" horiz-adv-x="1807" 
d="M1732 1219l-114 -718q-29 -179 -70 -350q-314 -175 -807 -175q-317 0 -463.5 107.5t-146.5 330.5q0 66 12 143q39 247 179.5 389.5t410.5 186.5q173 28 502 42q5 35 5 59q0 87 -57 124.5t-180 37.5q-264 0 -633 -48l20 386q408 71 709 71q112 0 203.5 -12.5t175.5 -44
t141 -81.5t90.5 -130.5t33.5 -185.5q0 -58 -11 -132zM850 803q-69 -17 -108 -40t-65.5 -70.5t-39.5 -129.5q-4 -23 -4 -47q0 -80 54.5 -113t161.5 -33q157 0 254 35q24 88 49 239l31 196q-7 0 -53 -3t-60.5 -4t-53.5 -4.5t-60.5 -6.5t-51 -8t-54.5 -11zM847 2310
q23 146 141 249.5t260 103.5q129 0 212.5 -85t83.5 -211q0 -25 -5 -57q-23 -146 -141 -250t-261 -104q-128 0 -211.5 85t-83.5 212q0 25 5 57zM1218 2473q-65 0 -120 -48t-65 -115q-11 -68 28.5 -115.5t105.5 -47.5q67 0 121 47.5t65 115.5q11 67 -28.5 115t-106.5 48z" />
    <glyph glyph-name="ae" unicode="&#xe6;" horiz-adv-x="2830" 
d="M1918 669l-269 -15q-3 -27 -3 -49q0 -122 75.5 -168.5t242.5 -46.5q258 0 640 48l-20 -390q-427 -72 -785 -72q-266 0 -414 101q-263 -101 -646 -101q-316 0 -462 107.5t-146 330.5q0 66 12 143q39 248 179 390t409 186q172 28 503 42q5 35 5 59q0 87 -57 124.5
t-180 37.5q-266 0 -633 -48l20 386q406 71 708 71q341 0 496 -124q197 124 531 124q187 0 317 -38t204.5 -114t107 -177.5t32.5 -241.5q0 -127 -30 -322q-14 -87 -31 -154q-148 -28 -383.5 -53.5t-422.5 -35.5zM1181 840q-8 -1 -53 -3.5t-60 -3.5t-53 -4.5t-60 -6.5
t-51.5 -8t-54.5 -11q-69 -17 -108 -40t-65.5 -70.5t-39.5 -129.5q-4 -23 -4 -48q0 -80 53.5 -112.5t161.5 -32.5q157 0 254 35q24 88 49 239zM1937 1019q178 9 335 29q7 24 13 58q8 53 8 91q0 105 -55 157.5t-177 52.5q-79 0 -139 -20.5t-98 -53t-65 -87t-41.5 -109
t-26.5 -131.5z" />
    <glyph glyph-name="ccedilla" unicode="&#xe7;" horiz-adv-x="1557" 
d="M1531 1356q-80 17 -114.5 24t-96.5 15t-113 8q-90 0 -154 -9.5t-113 -35.5t-81 -60.5t-56.5 -95t-40 -127t-31.5 -169.5q-29 -189 -29 -262q0 -91 30 -144.5t106.5 -81.5t212.5 -28q115 0 334 46l-18 -386q-186 -49 -396 -66l-123 -156q89 -14 150 -68.5t61 -138.5
q0 -17 -3 -35q-12 -77 -54 -135.5t-103.5 -92t-132.5 -50t-151 -16.5q-72 0 -147 21t-129 58l97 185q107 -61 207 -61q42 0 74.5 19.5t39.5 63.5q5 34 -20.5 59t-71 36.5t-88 16.5t-84.5 5l209 283q-117 6 -206 38.5t-145.5 84.5t-92.5 126.5t-50 156t-14 181.5
q0 141 31 341q21 131 46.5 234t64.5 199t89 166.5t119 129t156.5 95t200 56t249.5 19.5q265 0 481 -75z" />
    <glyph glyph-name="egrave" unicode="&#xe8;" horiz-adv-x="1854" 
d="M214 891q39 247 106 416t178.5 282.5t270 164.5t380.5 51q187 0 317 -38t204.5 -114.5t107 -178.5t32.5 -242q0 -133 -29 -320q-11 -70 -31 -154q-146 -27 -380.5 -52.5t-426.5 -36.5l-268 -15q-3 -27 -3 -51q0 -121 75.5 -167t241.5 -46q258 0 640 48l-19 -390
q-427 -72 -786 -72q-176 0 -301 44t-197.5 128t-105 193.5t-32.5 254.5q0 134 26 295zM717 1006l246 13q179 9 335 29q4 15 12 58q8 54 8 93q0 105 -54.5 156.5t-176.5 51.5q-98 0 -166 -28.5t-108 -87t-60.5 -123t-35.5 -162.5zM1262 2543l217 -543h-381l-332 543h496z" />
    <glyph glyph-name="eacute" unicode="&#xe9;" horiz-adv-x="1854" 
d="M214 891q39 247 106.5 416t179 282.5t270 164.5t380.5 51q150 0 263.5 -25.5t188.5 -72t122 -118.5t66.5 -158.5t19.5 -197.5q0 -133 -29 -321q-13 -83 -30 -154q-148 -28 -384.5 -53.5t-422.5 -35.5l-269 -15q-3 -27 -3 -51q0 -121 75.5 -167t241.5 -46q260 0 640 48
l-20 -390q-425 -72 -784 -72q-176 0 -301.5 44t-198 128t-105 193.5t-32.5 254.5q0 136 26 295zM716 1006l247 13q178 9 335 29q7 24 13 58q8 53 8 92q0 105 -55 157t-177 52q-79 0 -139 -20.5t-98 -53t-65.5 -87t-42 -109t-26.5 -131.5zM1857 2535l-504 -543h-380l387 543
h497z" />
    <glyph glyph-name="ecircumflex" unicode="&#xea;" horiz-adv-x="1855" 
d="M214 891q39 247 106 416t178.5 282.5t270 164.5t380.5 51q187 0 317 -38t205 -114.5t107.5 -178t32.5 -241.5q0 -126 -30 -321q-11 -70 -31 -154q-148 -28 -384 -53.5t-423 -35.5l-268 -15q-3 -27 -3 -51q0 -121 75.5 -167t241.5 -46q258 0 640 48l-20 -390
q-427 -72 -785 -72q-141 0 -250 29.5t-181.5 82t-118.5 131t-66 171t-20 207.5q0 125 26 294zM716 1006l246 13q179 9 336 29q4 15 12 58q8 53 8 92q0 105 -55 157t-177 52q-79 0 -139 -20.5t-98 -53t-65 -87t-41.5 -109t-26.5 -131.5zM1736 1986h-357l-138 262l-224 -262
h-352l485 546h265z" />
    <glyph glyph-name="edieresis" unicode="&#xeb;" horiz-adv-x="1854" 
d="M214 891q39 247 106.5 416t179 282.5t270 164.5t380.5 51q150 0 263.5 -25.5t188.5 -72t122 -118.5t66.5 -158.5t19.5 -197.5q0 -133 -29 -321q-9 -58 -30 -154q-148 -28 -384.5 -53.5t-422.5 -35.5l-269 -15q-3 -27 -3 -51q0 -121 75.5 -167t241.5 -46q260 0 640 48
l-20 -390q-425 -72 -785 -72q-176 0 -301 44t-197.5 128t-105 193.5t-32.5 254.5q0 134 26 295zM680 2254q16 102 95.5 171t179.5 69q88 0 143 -56t55 -143q0 -20 -3 -41q-17 -102 -94.5 -171t-176.5 -69q-89 0 -145.5 56t-56.5 143q0 20 3 41zM1368 2254q16 102 96 171
t179 69q89 0 144 -56t55 -143q0 -20 -3 -41q-17 -102 -94.5 -171t-177.5 -69q-88 0 -145 56t-57 143q0 20 3 41zM716 1006l247 13q178 9 335 29q4 15 12 58q8 53 8 92q0 105 -54.5 157t-176.5 52q-79 0 -139 -20.5t-98 -53t-65.5 -87t-42 -109t-26.5 -131.5z" />
    <glyph glyph-name="igrave" unicode="&#xec;" horiz-adv-x="945" 
d="M121 0l282 1781h506l-282 -1781h-506zM515 2023l-332 543h497l216 -543h-381z" />
    <glyph glyph-name="iacute" unicode="&#xed;" horiz-adv-x="945" 
d="M121 0l282 1781h506l-282 -1781h-506zM493 2023l388 543h497l-505 -543h-380z" />
    <glyph glyph-name="icircumflex" unicode="&#xee;" horiz-adv-x="945" 
d="M646 2578h265l320 -546h-356l-137 262l-225 -262h-353zM121 0l282 1781h506l-282 -1781h-506z" />
    <glyph glyph-name="idieresis" unicode="&#xef;" horiz-adv-x="944" 
d="M354 2029q-90 0 -146.5 56t-56.5 143q0 20 3 41q16 102 95.5 171t180.5 69q88 0 143 -56t55 -143q0 -20 -3 -41q-17 -102 -94 -171t-177 -69zM1042 2029q-90 0 -146.5 56.5t-56.5 144.5q0 20 3 39q16 102 96 171t180 69q88 0 143 -56t55 -143q0 -20 -3 -41
q-17 -102 -94 -171t-177 -69zM121 0l282 1781h505l-282 -1781h-505z" />
    <glyph glyph-name="eth" unicode="&#xf0;" horiz-adv-x="1854" 
d="M1488 2337l292 103l104 -229l-271 -96q165 -359 165 -813q0 -202 -33 -411q-78 -498 -289 -706.5t-644 -208.5q-356 0 -513.5 137t-157.5 453q0 139 29 325q75 474 283.5 673.5t638.5 200.5q85 0 147 -17q-30 101 -83 206l-288 -102l-102 230l258 91q-47 70 -129 171
l472 149q60 -66 121 -156zM1244 891q23 143 23 231q0 127 -52.5 177t-181.5 50q-89 0 -146 -20.5t-99.5 -75t-68 -139t-47.5 -223.5q-28 -176 -28 -271q0 -129 52 -178t179 -49q89 0 147 22t101 81.5t70 151t51 243.5z" />
    <glyph glyph-name="ntilde" unicode="&#xf1;" horiz-adv-x="1910" 
d="M808 1117l-177 -1117h-499l203 1280q31 194 70 350q326 175 802 175q149 0 260 -20.5t181.5 -57t113.5 -93.5t60 -121.5t17 -149.5q0 -88 -23 -238l-178 -1125h-500l173 1086q12 72 12 125q0 97 -53.5 138t-190.5 42q-132 0 -223 -35q-24 -90 -48 -239zM1535 2502h251
q-50 -219 -157 -338t-221 -119q-56 0 -99.5 19.5t-69.5 47t-46 55t-40 47t-41 19.5q-73 0 -126 -179h-252q26 112 69.5 201t94.5 143.5t106 83.5t109 29q56 0 99.5 -19.5t69.5 -47t46 -55t40.5 -47t41.5 -19.5q72 0 125 179z" />
    <glyph glyph-name="ograve" unicode="&#xf2;" horiz-adv-x="1864" 
d="M856 -24q-356 0 -513.5 137t-157.5 453q0 139 29 325q40 252 108 422.5t180 282t268 160.5t376 49q356 0 514 -138.5t158 -454.5q0 -138 -29 -321q-53 -335 -161 -532.5t-294 -290t-478 -92.5zM716 891q-28 -176 -28 -271q0 -129 52 -178t179 -49q89 0 147 22t101 81.5
t70 151t51 243.5q27 173 27 264q0 131 -52.5 182.5t-179.5 51.5q-59 0 -103 -9t-81 -32.5t-63 -59t-48 -93t-39 -130t-33 -174.5zM1070 2000l-332 543h497l216 -543h-381z" />
    <glyph glyph-name="oacute" unicode="&#xf3;" horiz-adv-x="1865" 
d="M857 -24q-356 0 -514 137.5t-158 453.5q0 138 29 324q40 252 108.5 422.5t180.5 282t268 160.5t375 49q356 0 514.5 -138.5t158.5 -454.5q0 -138 -29 -321q-40 -251 -108.5 -422t-180.5 -282.5t-268.5 -161t-375.5 -49.5zM1288 891q27 173 27 265q0 131 -52 182t-179 51
q-59 0 -103 -9t-81 -32.5t-63 -59t-48 -93t-39 -130t-33 -174.5q-28 -176 -28 -272q0 -129 51.5 -177.5t178.5 -48.5q60 0 104 9.5t81 33t63.5 59.5t49 93.5t39 129.5t32.5 173zM920 2014l388 543h497l-504 -543h-381z" />
    <glyph glyph-name="ocircumflex" unicode="&#xf4;" horiz-adv-x="1864" 
d="M1818 1212q0 -138 -29 -321q-40 -251 -108.5 -422t-180.5 -282.5t-268.5 -161t-375.5 -49.5q-356 0 -513.5 137t-157.5 453q0 139 29 325q40 252 108 422.5t180.5 282t268 160.5t375.5 49q356 0 514 -138.5t158 -454.5zM688 619q0 -129 51.5 -177.5t178.5 -48.5
q60 0 104 9.5t81 33t63.5 59.5t49 93.5t39 129.5t32.5 173q27 173 27 265q0 131 -52 182t-179 51q-71 0 -121 -14.5t-89.5 -46.5t-67.5 -91.5t-49 -141t-40 -204.5q-28 -176 -28 -272zM1127 2542h265l321 -546h-357l-137 262l-225 -262h-352z" />
    <glyph glyph-name="otilde" unicode="&#xf5;" horiz-adv-x="1864" 
d="M1493 2482h251q-50 -219 -157.5 -338t-221.5 -119q-56 0 -99.5 19.5t-69 47t-45.5 55t-40 47t-41 19.5q-73 0 -126 -179h-252q50 219 157.5 338t221.5 119q56 0 100 -19.5t69.5 -47t46 -55t40 -47t40.5 -19.5q73 0 126 179zM1818 1213q0 -139 -29 -322
q-53 -335 -161 -532.5t-294 -290t-478 -92.5q-356 0 -513.5 137t-157.5 453q0 139 29 325q40 252 108.5 422.5t180.5 282t268 160.5t375 49q356 0 514 -138.5t158 -453.5zM919 393q60 0 104 9.5t81 33t63.5 59.5t49 93.5t39 129.5t32.5 173q27 173 27 265q0 131 -52 182
t-179 51q-71 0 -121 -14.5t-89.5 -46.5t-67.5 -91.5t-49 -141t-41 -204.5q-28 -176 -28 -271q0 -129 52 -178t179 -49z" />
    <glyph glyph-name="odieresis" unicode="&#xf6;" horiz-adv-x="1864" 
d="M856 -24q-356 0 -513.5 137t-157.5 453q0 139 29 325q40 252 108.5 422.5t180.5 282t268 160.5t375 49q356 0 514 -138.5t158 -453.5q0 -139 -29 -322q-78 -498 -289 -706.5t-644 -208.5zM688 620q0 -129 52 -178t179 -49q89 0 147 22t101 81.5t70 151t51 243.5
q27 173 27 265q0 131 -52 182t-179 51q-71 0 -121 -14.5t-89.5 -46.5t-67.5 -91.5t-49 -141t-41 -204.5q-28 -176 -28 -271zM839 2014q-89 0 -146 56t-57 143q0 20 3 41q16 102 96 171t180 69q88 0 143 -56t55 -143q0 -20 -3 -41q-17 -102 -94.5 -171t-176.5 -69zM1527 2014
q-88 0 -145 56t-57 143q0 20 3 41q16 102 96 171t179 69q89 0 143.5 -55.5t54.5 -142.5q0 -21 -3 -42q-17 -102 -94 -171t-177 -69z" />
    <glyph glyph-name="divide" unicode="&#xf7;" horiz-adv-x="1870" 
d="M863 41q-98 0 -161.5 64t-63.5 161q0 15 4 45q18 113 107.5 192t199.5 79q99 0 162.5 -64.5t63.5 -161.5q0 -15 -4 -45q-17 -112 -107.5 -191t-200.5 -79zM849 1601q0 15 4 45q18 112 107.5 191t199.5 79q99 0 163 -64.5t64 -161.5q0 -14 -4 -44q-18 -113 -108 -192
t-201 -79q-98 0 -161.5 64.5t-63.5 161.5zM169 770l65 417h1621l-65 -417h-1621z" />
    <glyph glyph-name="oslash" unicode="&#xf8;" horiz-adv-x="1865" 
d="M510 21l-169 -237l-174 122l159 222q-142 139 -142 436q0 142 30 327q40 252 108.5 422.5t180.5 282t268 160.5t376 49q207 0 345 -46l170 238l175 -122l-160 -224q142 -141 142 -439q0 -138 -29 -321q-40 -251 -108.5 -422t-180.5 -282.5t-268.5 -161t-375.5 -49.5
q-211 0 -347 45zM1313 1142l-524 -731q47 -18 130 -18q89 0 147 22t101 81.5t70 151t51 243.5q26 165 27 251h-2zM691 639l522 730q-47 20 -129 20q-59 0 -103 -9t-81 -32.5t-63 -59t-48 -93t-39 -130t-33 -174.5q-25 -152 -28 -252h2z" />
    <glyph glyph-name="ugrave" unicode="&#xf9;" horiz-adv-x="1903" 
d="M229 656l178 1125h500l-172 -1086q-12 -72 -12 -125q0 -97 53 -138.5t188 -41.5q127 0 218 35q26 100 49 239l177 1117h499l-203 -1280q-29 -183 -71 -350q-325 -175 -798 -175q-148 0 -258.5 20.5t-180.5 57t-113 93.5t-60 122t-17 149q0 88 23 238zM1064 2023l-332 543
h497l215 -543h-380z" />
    <glyph glyph-name="uacute" unicode="&#xfa;" horiz-adv-x="1902" 
d="M229 656l178 1125h500l-173 -1086q-12 -81 -12 -124q0 -97 53 -139t189 -42q127 0 218 35q26 100 49 239l176 1117h499l-202 -1280q-29 -183 -71 -350q-325 -175 -798 -175q-148 0 -258.5 20.5t-180.5 57t-113 93.5t-60 122t-17 149q0 88 23 238zM963 2043l388 543h496
l-504 -543h-380z" />
    <glyph glyph-name="ucircumflex" unicode="&#xfb;" horiz-adv-x="1903" 
d="M408 1781h499l-172 -1086q-12 -72 -12 -125q0 -97 53 -138.5t188 -41.5q129 0 218 35q24 88 49 239l177 1117h499l-202 -1280q-27 -166 -71 -350q-326 -175 -799 -175q-148 0 -258.5 20.5t-180.5 57t-113 93.5t-60 122t-17 149q0 98 23 238zM665 2052l487 546h264
l321 -546h-357l-137 262l-225 -262h-353z" />
    <glyph glyph-name="udieresis" unicode="&#xfc;" horiz-adv-x="1903" 
d="M229 656l178 1125h500l-171 -1086q-12 -72 -12 -126q0 -96 52.5 -137.5t187.5 -41.5q129 0 218 35q24 88 49 239l177 1117h499l-202 -1280q-29 -183 -71 -350q-326 -175 -798 -175q-148 0 -258.5 20.5t-181 57t-113.5 93.5t-60 121.5t-17 149.5q0 88 23 238zM858 2050
q-89 0 -145.5 56t-56.5 143q0 20 3 41q16 102 95.5 171t180.5 69q88 0 142.5 -55.5t54.5 -142.5q0 -20 -3 -42q-16 -102 -93.5 -171t-177.5 -69zM1546 2050q-89 0 -145.5 57t-56.5 144q0 18 3 39q16 102 96 171t180 69q88 0 143 -55.5t55 -141.5q0 -13 -4 -43
q-16 -102 -93.5 -171t-177.5 -69z" />
    <glyph glyph-name="yacute" unicode="&#xfd;" horiz-adv-x="1845" 
d="M1041 780l465 1001h512l-1198 -2437h-514l404 786l-437 1651h534zM975 2003l389 543h496l-504 -543h-381z" />
    <glyph glyph-name="thorn" unicode="&#xfe;" horiz-adv-x="1947" 
d="M21 -656l472 2986h504l-88 -552q145 27 286 27q174 0 296.5 -31t209 -101t127.5 -186t41 -283q0 -140 -28 -314t-70 -309t-101.5 -236.5t-134 -172t-171.5 -114t-208.5 -63t-250.5 -19.5q-140 0 -277 27l-104 -659h-503zM693 413q89 -27 187 -27q60 0 110 8.5t89 21.5
t71 37.5t55 48t42.5 61.5t31.5 69t23.5 80t18.5 85t16 93q25 163 25 232q0 65 -14.5 112.5t-49.5 85t-99.5 56.5t-158.5 19q-97 0 -195 -27z" />
    <glyph glyph-name="ydieresis" unicode="&#xff;" horiz-adv-x="1845" 
d="M874 2020q-90 0 -146.5 56t-56.5 143q0 20 3 41q16 102 96 171t180 69q88 0 143 -55.5t55 -141.5q0 -13 -4 -43q-17 -102 -94 -171t-176 -69zM1562 2020q-90 0 -146.5 57t-56.5 144q0 19 3 39q16 102 96 171t180 69q89 0 143.5 -55.5t54.5 -142.5q0 -20 -3 -42
q-16 -102 -93.5 -171t-177.5 -69zM1041 780l465 1001h512l-1198 -2437h-513l403 786l-437 1651h534z" />
    <glyph glyph-name="Abreve" unicode="&#x102;" horiz-adv-x="2207" 
d="M1006 2954h272q0 -78 43 -130.5t128 -52.5t145 52.5t84 130.5h271q-23 -91 -67 -167t-109.5 -135t-158.5 -92.5t-204 -33.5q-105 0 -184.5 30t-127 83.5t-70.5 123t-23 153.5q0 25 1 38zM-57 0l978 1979q98 198 210.5 286.5t258.5 88.5q282 0 347 -375l340 -1979h-566
l-70 532h-713l-235 -532h-550zM1385 954l-108 822l-363 -822h471z" />
    <glyph glyph-name="abreve" unicode="&#x103;" horiz-adv-x="1806" 
d="M1731 1219l-114 -718q-29 -179 -70 -350q-314 -175 -807 -175q-317 0 -463 107.5t-146 330.5q0 66 12 143q39 248 179 390t410 186q172 28 503 42q5 35 5 57q0 88 -57 126t-181 38q-264 0 -633 -48l20 386q408 71 709 71q112 0 203.5 -12.5t175.5 -44t141 -81.5
t90.5 -130.5t33.5 -185.5q0 -58 -11 -132zM849 803q-69 -17 -108 -40t-65 -70.5t-39 -129.5q-4 -23 -4 -48q0 -80 53.5 -112.5t161.5 -32.5q157 0 254 35q24 90 48 239l32 196q-6 0 -53 -3t-60.5 -4t-53 -4.5t-60.5 -6.5t-51 -8t-55 -11zM1055 2497q-2 -89 40 -149t127 -60
t146 60t87 149h271q-25 -104 -70.5 -191.5t-112.5 -155.5t-161 -106t-205 -38q-103 0 -180.5 32.5t-124 91.5t-69.5 135t-23 169q0 32 3 63h272z" />
    <glyph glyph-name="Aogonek" unicode="&#x104;" horiz-adv-x="2207" 
d="M1923 -423l39 -177q-71 -53 -161.5 -83.5t-168.5 -30.5q-134 0 -215 64.5t-81 178.5q0 27 4 51q17 110 105.5 222t197.5 198h-131l-71 532h-713l-235 -532h-550l978 1979q98 198 210.5 286.5t259.5 88.5q281 0 346 -375l340 -1979h-169q-239 -206 -262 -349
q-3 -17 -3 -33q0 -47 23 -73.5t66 -26.5q105 0 191 59zM914 954h472l-109 822z" />
    <glyph glyph-name="aogonek" unicode="&#x105;" horiz-adv-x="1807" 
d="M370 1348l20 386q408 71 709 71q112 0 203.5 -12.5t175.5 -44t141 -81.5t90.5 -130.5t33.5 -185.5q0 -58 -11 -132l-114 -718q-29 -183 -71 -350q-88 -50 -189 -85q-39 -33 -75.5 -69t-78 -83.5t-69.5 -98t-35 -94.5q-3 -18 -3 -33q0 -47 23.5 -73.5t66.5 -26.5
q104 0 189 59l40 -177q-71 -53 -161.5 -83.5t-168.5 -30.5q-134 0 -215.5 65t-81.5 179q0 27 4 50q25 159 211 340q-119 -14 -263 -14q-318 0 -464 108t-146 331q0 65 12 142q39 247 179.5 389.5t410.5 186.5q171 28 502 42q5 35 5 59q0 87 -57 124.5t-180 37.5
q-264 0 -633 -48zM850 803q-69 -17 -108 -40t-65.5 -70.5t-39.5 -129.5q-4 -23 -4 -48q0 -80 54 -112.5t162 -32.5q157 0 253 35q24 88 49 239l32 196q-7 0 -53 -3t-60.5 -4t-53.5 -4.5t-60.5 -6.5t-51 -8t-54.5 -11z" />
    <glyph glyph-name="Cacute" unicode="&#x106;" horiz-adv-x="1849" 
d="M1664 52q-263 -76 -633 -76q-299 0 -478.5 78t-257 233t-77.5 409q0 189 44 469q34 215 77.5 376.5t108 299t150 230.5t202.5 158t266.5 95t340.5 30q357 0 609 -78l-114 -425q-255 43 -487 43q-101 0 -181.5 -20t-137.5 -49.5t-101.5 -86.5t-72 -108t-51.5 -138
t-36.5 -152.5t-29.5 -174.5q-39 -247 -39 -358q0 -90 19 -154.5t65 -115t129 -76t205 -25.5q252 0 500 44zM2009 2964l-517 -440h-408l393 440h532z" />
    <glyph glyph-name="cacute" unicode="&#x107;" horiz-adv-x="1556" 
d="M1367 50q-281 -74 -613 -74q-129 0 -227.5 30t-161 82t-101.5 128.5t-54.5 160.5t-15.5 188q0 139 31 341q21 131 46.5 234t64 199t89 166.5t119.5 129t156.5 95t200 56t249.5 19.5q268 0 480 -75l-99 -374q-80 17 -114.5 24t-96.5 15t-113 8q-90 0 -154 -9.5
t-113.5 -35.5t-81.5 -60.5t-56.5 -95t-40 -127t-31.5 -169.5q-29 -189 -29 -261q0 -91 30 -145t107 -82t213 -28q115 0 334 46zM1701 2540l-505 -543h-380l388 543h497z" />
    <glyph glyph-name="Ccaron" unicode="&#x10c;" horiz-adv-x="1849" 
d="M1664 52q-265 -76 -633 -76q-299 0 -478.5 78t-257 233t-77.5 409q0 189 44 469q34 215 77.5 376.5t108 299t150 230.5t202.5 158t266.5 95t340.5 30q357 0 609 -78l-115 -425q-253 43 -486 43q-101 0 -181.5 -20t-137.5 -49.5t-101.5 -86.5t-72 -108t-51.5 -138
t-36.5 -152.5t-29.5 -174.5q-39 -247 -39 -358q0 -90 19 -154.5t65 -115t129 -76t205 -25.5q252 0 499 44zM1383 2753l231 213h377l-498 -443h-283l-365 443h381z" />
    <glyph glyph-name="ccaron" unicode="&#x10d;" horiz-adv-x="1557" 
d="M1367 50q-281 -74 -613 -74q-129 0 -227.5 30t-161 82t-102 128t-55 160.5t-15.5 187.5q0 145 32 342q21 131 46.5 234t64 199t88.5 166.5t119 129t156.5 95t200 56t249.5 19.5q269 0 481 -75l-99 -374q-80 17 -114.5 24t-96.5 15t-113 8q-90 0 -154 -9.5t-113.5 -35.5
t-81 -60.5t-56 -95t-40 -127t-31.5 -169.5q-29 -177 -29 -262q0 -91 30 -144.5t107 -81.5t212 -28q115 0 334 46zM1136 2283l225 262h352l-486 -546h-265l-321 546h357z" />
    <glyph glyph-name="Dcaron" unicode="&#x10e;" horiz-adv-x="2183" 
d="M506 2283q357 71 771 71q199 0 346.5 -29t248 -84.5t162 -144t88 -198.5t26.5 -257q0 -182 -46 -476q-25 -156 -52.5 -279t-67 -240.5t-89 -205.5t-116.5 -166t-152 -131t-192 -92t-239.5 -57t-293.5 -18q-422 0 -750 68zM978 1891l-231 -1453q88 -12 163 -12
q88 0 161.5 12.5t129.5 31t102.5 56t78.5 69.5t60 90.5t44 100.5t33 118t25.5 124.5t22.5 136.5q39 254 39 354q0 93 -20.5 159.5t-71 119.5t-143 79.5t-227.5 26.5q-68 0 -166 -13zM1382 2756l230 213h377l-498 -443h-283l-365 443h381z" />
    <glyph glyph-name="dcaron" unicode="&#x10f;" horiz-adv-x="1933" 
d="M1407 1778l109 691h502l-311 -1968q-29 -183 -71 -350q-155 -88 -353.5 -131.5t-394.5 -43.5q-189 0 -320.5 30t-223.5 100t-135 185.5t-43 285.5q0 140 28 314q33 208 88 361.5t132 260t184 171t235.5 93t295.5 28.5q140 0 278 -27zM1155 1395q-60 0 -110.5 -8.5
t-89.5 -21.5t-71 -37.5t-55 -48t-42.5 -61.5t-31.5 -69t-23.5 -80t-18.5 -85t-16 -93q-24 -156 -24 -228q0 -63 12.5 -111t43 -87.5t87 -60.5t137.5 -21q137 0 228 34q26 100 49 239l112 712q-91 27 -187 27zM2706 2469l-371 -692h-292l266 692h397z" />
    <glyph glyph-name="Dcroat" unicode="&#x110;" horiz-adv-x="2250" 
d="M373 1028h-171l55 342h170l145 913q357 71 772 71q199 0 346.5 -29t247.5 -84.5t161.5 -144t88 -199t26.5 -257.5q0 -189 -45 -475q-22 -139 -46 -250t-57 -219t-73.5 -191.5t-93.5 -160.5t-118.5 -133t-147.5 -102t-182 -74.5t-220.5 -43.5t-263.5 -15q-422 0 -749 68z
M907 1028l-93 -590q88 -12 162 -12q88 0 161.5 12.5t130 31t103 56t78.5 69.5t60 90.5t44 100.5t33 118t25.5 124.5t22.5 136.5q39 252 39 353q0 73 -12.5 130t-44 106.5t-83.5 81.5t-133 50t-190 18q-66 0 -166 -13l-83 -521h321l-55 -342h-320z" />
    <glyph glyph-name="dcroat" unicode="&#x111;" horiz-adv-x="1933" 
d="M1115 1977l44 277h322l35 215h503l-34 -215h208l-44 -277h-208l-234 -1476q-29 -179 -70 -350q-155 -88 -353.5 -131.5t-394.5 -43.5q-190 0 -321.5 30t-223.5 100t-135 185.5t-43 285.5q0 140 28 314q33 208 88 361.5t132 260t184 171t236 93t296 28.5q141 0 276 -27
l31 199h-322zM1155 1395q-60 0 -110.5 -8.5t-89.5 -21.5t-71 -37.5t-55 -48t-42 -61t-31.5 -69t-24 -80t-18 -85t-15.5 -93.5q-24 -156 -24 -228q0 -63 12.5 -111t43 -87.5t87 -60.5t137.5 -21q136 0 227 34q26 105 48 239l112 712q-88 27 -186 27z" />
    <glyph glyph-name="Eogonek" unicode="&#x118;" horiz-adv-x="1898" 
d="M1878 1889h-650q-70 0 -115.5 -7.5t-79 -23.5t-54 -49t-33.5 -75.5t-24 -111.5l-34 -219h873l-70 -438h-873l-40 -254q-12 -72 -12 -120q0 -87 49.5 -118t183.5 -31h650l-68 -428q-63 -4 -197 -9q-245 -208 -267 -353q-3 -18 -3 -33q0 -46 23.5 -73t65.5 -27
q105 0 191 59l38 -177q-70 -53 -160.5 -83.5t-168.5 -30.5q-134 0 -215.5 65t-81.5 179q0 27 4 51q17 109 103 218.5t195 196.5q-99 -3 -170 -3q-97 0 -161 2t-147.5 11.5t-137.5 27t-112 49.5t-91.5 78t-55 114t-21.5 155q0 72 13 153l184 1165q19 118 57.5 210t85 153.5
t118 104.5t134.5 66t159 35.5t166 15t179 2.5q310 0 638 -18z" />
    <glyph glyph-name="eogonek" unicode="&#x119;" horiz-adv-x="1856" 
d="M214 891q39 247 106.5 416t179 282.5t270 164.5t380.5 51q187 0 317 -38t205 -114.5t107.5 -178t32.5 -241.5q0 -126 -30 -321q-12 -76 -32 -154q-148 -28 -383.5 -53.5t-422.5 -35.5l-269 -15q-3 -27 -3 -51q0 -121 75.5 -167t241.5 -46q259 0 641 48l-21 -390
q-179 -31 -315 -46q-90 -77 -164.5 -167.5t-87.5 -172.5q-3 -18 -3 -33q0 -46 23.5 -73t65.5 -27q105 0 190 59l40 -177q-71 -53 -161.5 -83.5t-168.5 -30.5q-134 0 -215.5 65t-81.5 179q0 27 4 51q16 100 90.5 201t174.5 187q-75 -4 -176 -4q-176 0 -301 44t-197.5 128
t-105 193.5t-32.5 254.5q0 136 26 295zM717 1006l245 13q181 9 336 29q7 24 13 58q8 53 8 92q0 105 -55 157t-177 52q-98 0 -166 -28.5t-108 -87t-60.5 -123t-35.5 -162.5z" />
    <glyph glyph-name="Ecaron" unicode="&#x11a;" horiz-adv-x="1898" 
d="M225 584l184 1165q19 118 57.5 210t85 153.5t118.5 104.5t135 66t159 35.5t166 15t179 2.5q309 0 637 -18l-68 -429h-649q-88 0 -139 -10.5t-86 -42.5t-52 -80t-30 -134l-34 -219h873l-70 -438h-872l-41 -254q-12 -72 -12 -120q0 -87 49.5 -118t183.5 -31h650l-68 -428
q-385 -20 -643 -20q-97 0 -161 2t-147.5 11.5t-137.5 27t-112 49.5t-91.5 78t-55 114t-21.5 155q0 72 13 153zM783 2960h382l156 -213l232 213h376l-498 -443h-283z" />
    <glyph glyph-name="ecaron" unicode="&#x11b;" horiz-adv-x="1853" 
d="M214 891q39 247 106 416t178.5 282.5t270 164.5t380.5 51q150 0 263.5 -25.5t188.5 -72t122 -118.5t66.5 -158.5t19.5 -197.5q0 -133 -29 -321q-13 -83 -30 -154q-148 -28 -384 -53.5t-423 -35.5l-269 -15q-3 -25 -3 -49q0 -122 75.5 -168.5t242.5 -46.5q258 0 640 48
l-20 -390q-427 -72 -785 -72q-176 0 -301 44t-197.5 128t-105 193.5t-32.5 254.5q0 134 26 295zM716 1006l246 13q179 9 336 29q4 15 12 58q8 54 8 93q0 105 -55 156.5t-177 51.5q-79 0 -139 -20.5t-98 -53t-65 -87t-41.5 -109t-26.5 -131.5zM1213 2273l226 262h352
l-486 -546h-264l-321 546h356z" />
    <glyph glyph-name="Gbreve" unicode="&#x11e;" horiz-adv-x="2110" 
d="M1134 912l67 422h839l-138 -873q-11 -68 -29.5 -125t-46 -102t-58 -80.5t-73.5 -62t-83.5 -45.5t-97.5 -31.5t-106.5 -20.5t-118.5 -12t-124.5 -5t-134.5 -1q-225 0 -379.5 42t-250.5 132.5t-138.5 223t-42.5 322.5q0 191 44 469q34 217 77.5 379.5t108 300t149.5 229.5
t202 157t266 94t340 29q415 0 739 -75l-112 -422q-270 42 -618 42q-101 0 -181.5 -20t-137 -49.5t-101.5 -87t-72.5 -108.5t-51.5 -139t-36.5 -154t-29.5 -176q-39 -249 -39 -361q0 -91 19 -156.5t65 -116.5t128.5 -76.5t202.5 -25.5q76 0 123.5 10.5t75.5 37.5t40.5 60.5
t21.5 91.5l45 283h-353zM1004 2949h271q-1 -78 42.5 -130.5t128.5 -52.5t145 52.5t84 130.5h272q-23 -91 -67.5 -167t-110 -135t-158.5 -92.5t-204 -33.5q-204 0 -304 106.5t-100 279.5q0 28 1 42z" />
    <glyph glyph-name="gbreve" unicode="&#x11f;" horiz-adv-x="1923" 
d="M98 -599l101 383q376 -54 627 -54q302 0 343 285l4 28q-145 -27 -285 -27q-173 0 -296 30.5t-210 100t-128.5 184t-41.5 280.5q0 137 26 299q33 205 89.5 356t137 254.5t193.5 166.5t249 90.5t313 27.5q196 0 380.5 -43.5t311.5 -131.5q-11 -171 -40 -350l-217 -1367
q-22 -139 -77.5 -244t-131 -170.5t-178 -106.5t-208.5 -56.5t-233 -15.5q-319 0 -729 81zM742 910q-22 -141 -22 -214q0 -64 14.5 -110.5t49.5 -84t99.5 -56.5t158.5 -19q98 0 196 27l106 672q23 141 27 239q-79 34 -216 34q-64 0 -118 -15.5t-92.5 -40t-70 -63.5t-51.5 -78
t-36.5 -92t-26 -97.5t-18.5 -101.5zM859 2497h272q-2 -89 40 -149t127 -60t146 60t87 149h272q-25 -104 -71 -191.5t-113 -155.5t-161 -106t-205 -38q-103 0 -180.5 32.5t-124 92t-69 136t-22.5 169.5q0 40 2 61z" />
    <glyph glyph-name="Idotaccent" unicode="&#x130;" horiz-adv-x="1006" 
d="M595 2695q0 21 3 42q16 105 99 177t187 72q93 0 150 -57.5t57 -148.5q0 -20 -3 -43q-17 -107 -98 -178.5t-185 -71.5q-93 0 -151.5 58.5t-58.5 149.5zM142 0l369 2330h536l-369 -2330h-536z" />
    <glyph glyph-name="dotlessi" unicode="&#x131;" horiz-adv-x="945" 
d="M121 0l282 1781h506l-282 -1781h-506z" />
    <glyph glyph-name="Lacute" unicode="&#x139;" horiz-adv-x="1699" 
d="M235 584l277 1746h534l-257 -1619q-12 -72 -12 -120q0 -87 50 -118t184 -31h612l-67 -430q-401 -18 -607 -18q-74 0 -125.5 1t-118.5 6t-113.5 13.5t-101 24.5t-91 38.5t-72.5 55.5t-57.5 75t-34.5 98.5t-13 124.5q0 72 13 153zM1531 2966l-517 -440h-408l393 440h532z
" />
    <glyph glyph-name="lacute" unicode="&#x13a;" horiz-adv-x="918" 
d="M482 2469h503l-313 -1975q-11 -72 -11 -127q0 -126 66 -252l-482 -213q-100 150 -100 354q0 89 16 189zM948 3059h531l-517 -441h-407z" />
    <glyph glyph-name="Lcaron" unicode="&#x13d;" horiz-adv-x="1699" 
d="M235 584l277 1746h534l-257 -1619q-12 -72 -12 -120q0 -87 49.5 -118t183.5 -31h613l-68 -430q-399 -18 -606 -18q-74 0 -125.5 1t-118.5 6t-113.5 13.5t-101 24.5t-91 38.5t-72.5 55.5t-57.5 75t-34.5 98.5t-13 124.5q0 72 13 153zM1816 2330l-371 -692h-293l267 692
h397z" />
    <glyph glyph-name="lcaron" unicode="&#x13e;" horiz-adv-x="918" 
d="M161 445l320 2024h503l-312 -1975q-11 -72 -11 -127q0 -128 65 -252l-481 -213q-101 149 -101 353q0 82 17 190zM1009 1777l266 692h398l-372 -692h-292z" />
    <glyph glyph-name="Lslash" unicode="&#x141;" horiz-adv-x="1841" 
d="M475 1210l178 1120h535l-120 -758l551 338l-59 -371l-551 -338l-78 -490q-12 -72 -12 -120q0 -87 49.5 -118t183.5 -31h612l-67 -430q-401 -18 -607 -18q-74 0 -125.5 1t-118.5 6t-113.5 13.5t-101 24.5t-91 38.5t-72.5 55.5t-57.5 75t-34.5 98.5t-13 124.5q0 72 13 153
l40 254l-310 -190l59 372z" />
    <glyph glyph-name="lslash" unicode="&#x142;" horiz-adv-x="1082" 
d="M902 1320l-131 -826q-11 -72 -11 -125q0 -126 66 -254l-481 -213q-101 149 -101 355q0 88 16 188l76 483l-321 -222l61 384l321 222l184 1157h503l-121 -766l334 232l-61 -384z" />
    <glyph glyph-name="Nacute" unicode="&#x143;" horiz-adv-x="2336" 
d="M1218 2000l421 -1256l251 1586h482l-307 -1936q-66 -418 -385 -418q-146 0 -230 76.5t-151 279.5l-418 1260l-252 -1592h-482l307 1938q66 416 384 416q136 0 225.5 -81t154.5 -273zM1606 2961h532l-518 -440h-406z" />
    <glyph glyph-name="nacute" unicode="&#x144;" horiz-adv-x="1910" 
d="M808 1117l-177 -1117h-499l203 1280q29 179 70 350q326 175 802 175q149 0 260 -20.5t181.5 -57t113.5 -93.5t60 -121.5t17 -149.5q0 -88 -23 -238l-178 -1125h-500l172 1086q12 72 12 125q0 97 -53.5 138t-190.5 42q-131 0 -222 -35q-24 -90 -48 -239zM953 2005l387 543
h497l-504 -543h-380z" />
    <glyph glyph-name="Ncaron" unicode="&#x147;" horiz-adv-x="2336" 
d="M1218 2000l420 -1256l251 1586h482l-306 -1936q-66 -418 -386 -418q-145 0 -228.5 76.5t-151.5 279.5l-419 1260l-252 -1592h-482l308 1938q66 416 383 416q136 0 226 -81t155 -273zM968 2953h382l157 -213l231 213h376l-498 -443h-283z" />
    <glyph glyph-name="ncaron" unicode="&#x148;" horiz-adv-x="1910" 
d="M807 1117l-176 -1117h-499l203 1280q31 191 69 350q326 175 803 175q149 0 260 -20.5t181.5 -57t113.5 -93.5t60 -121.5t17 -149.5q0 -88 -23 -238l-178 -1125h-500l172 1086q12 72 12 125q0 97 -53.5 138t-190.5 42q-131 0 -222 -35q-24 -88 -49 -239zM752 2542h356
l137 -262l225 262h352l-485 -546h-265z" />
    <glyph glyph-name="Ohungarumlaut" unicode="&#x150;" horiz-adv-x="2191" 
d="M999 -24q-283 0 -454 75.5t-248 231t-77 410.5q0 191 44 472q34 217 79 382t109.5 301t148.5 228.5t197 156t255 92.5t322 29q283 0 454 -75.5t248 -231t77 -411.5q0 -190 -44 -471q-34 -217 -79 -382t-109.5 -301t-148.5 -228.5t-197 -156t-255 -92.5t-322 -29z
M1569 1165q47 297 47 412q0 80 -15 137t-49.5 101t-95.5 65.5t-149 21.5q-69 0 -126 -12.5t-101 -42.5t-78 -61.5t-61 -88.5t-45.5 -105t-36 -128.5t-28 -140t-26.5 -158.5q-47 -297 -47 -411q0 -162 68.5 -243t240.5 -81q79 0 142.5 19.5t108.5 48t82 85.5t60 107t45 139
t34 155t30 181zM810 2533l377 440h517l-497 -440h-397zM1500 2533l378 440h516l-497 -440h-397z" />
    <glyph glyph-name="ohungarumlaut" unicode="&#x151;" horiz-adv-x="1864" 
d="M856 -24q-356 0 -513.5 137t-157.5 453q0 139 29 325q40 252 108 422.5t180.5 282t268 160.5t375.5 49q356 0 514 -138.5t158 -454.5q0 -138 -29 -321q-78 -498 -289 -706.5t-644 -208.5zM688 620q0 -129 52 -178t179 -49q89 0 147 22t101 81.5t70 151t51 243.5
q27 172 27 264q0 131 -52.5 182.5t-179.5 51.5q-71 0 -121 -14.5t-89.5 -46.5t-67.5 -91.5t-49 -141t-40 -204.5q-28 -176 -28 -271zM603 2026l373 544h482l-484 -544h-371zM1248 2026l373 544h482l-484 -544h-371z" />
    <glyph glyph-name="OE" unicode="&#x152;" horiz-adv-x="3150" 
d="M3130 1889h-650q-87 0 -138 -10.5t-86 -42.5t-51.5 -80t-30.5 -134l-35 -219h873l-70 -438h-872l-40 -254q-12 -72 -12 -121q0 -87 49.5 -117.5t183.5 -30.5h649l-67 -428q-387 -20 -644 -20q-221 0 -362.5 22t-230.5 96q-222 -136 -598 -136q-283 0 -453.5 75.5
t-247.5 231t-77 410.5q0 191 44 472q34 217 78.5 382t109.5 301t149 228.5t197.5 156t255 92.5t321.5 29q374 0 554 -135q113 74 261 95.5t370 21.5q308 0 637 -18zM758 754q0 -162 68.5 -243t240.5 -81q69 0 126 12.5t101 42t77.5 61t60.5 89t45 104t36 128t28.5 140
t26.5 158.5q47 297 47 413q0 162 -68 243t-239 81q-79 0 -142.5 -19.5t-109 -48.5t-82.5 -86t-60 -107.5t-45 -139.5t-34 -155.5t-30 -180.5q-47 -297 -47 -411z" />
    <glyph glyph-name="oe" unicode="&#x153;" horiz-adv-x="2929" 
d="M1661 1659q201 146 562 146q187 0 317 -38t205 -114.5t107.5 -178t32.5 -241.5q0 -136 -30 -321q-11 -70 -31 -154q-148 -28 -384 -53.5t-423 -35.5l-268 -15q-3 -27 -3 -51q0 -121 75.5 -167t241.5 -46q258 0 640 48l-20 -390q-425 -72 -785 -72q-321 0 -472 151
q-203 -151 -570 -151q-356 0 -514 137t-158 452q0 143 30 326q40 252 108 422.5t180.5 282t268 160.5t375.5 49q360 0 515 -146zM1315 1155q0 131 -52.5 182.5t-178.5 51.5q-60 0 -103.5 -9t-80.5 -32.5t-63.5 -59t-48.5 -93t-39 -130t-33 -174.5q-28 -176 -28 -271
q0 -129 52 -178t179 -49q89 0 147 22t101 81.5t70 151t51 243.5q27 173 27 264zM1790 1006l247 13q179 9 334 29q6 16 13 58q8 53 8 92q0 105 -55 157t-177 52q-79 0 -138.5 -20.5t-97.5 -53t-65.5 -87t-42 -109t-26.5 -131.5z" />
    <glyph glyph-name="Racute" unicode="&#x154;" horiz-adv-x="2123" 
d="M812 859l-136 -859h-532l361 2286q355 68 770 68q105 0 190.5 -6t173 -22t154.5 -42.5t126.5 -69.5t98 -101t60.5 -138.5t22 -180.5q0 -87 -16 -186q-45 -286 -174.5 -451t-336.5 -237l365 -920h-608l-315 850q-91 1 -203 9zM882 1297q83 -10 227 -10q99 0 170.5 14.5
t130.5 50t94.5 99.5t50.5 158q8 51 8 89q0 120 -79 172.5t-266 52.5q-114 0 -240 -16zM1994 2967l-517 -440h-407l392 440h532z" />
    <glyph glyph-name="racute" unicode="&#x155;" horiz-adv-x="1201" 
d="M804 1099l-175 -1099h-498l202 1280q27 166 71 350q155 88 353.5 131.5t394.5 43.5q109 0 190 -11l-106 -413q-59 7 -117 7q-162 0 -268 -50q-23 -93 -47 -239zM1016 2550h497l-504 -543h-381z" />
    <glyph glyph-name="Rcaron" unicode="&#x158;" horiz-adv-x="2123" 
d="M812 859l-136 -859h-532l361 2286q355 68 770 68q105 0 190.5 -6t173 -22t154 -42.5t126.5 -69.5t98.5 -100.5t60.5 -138t22 -180.5q0 -88 -16 -187q-45 -287 -174 -451.5t-337 -236.5l365 -920h-608l-315 850q-91 1 -203 9zM882 1297q83 -10 227 -10q99 0 170.5 14.5
t130 50t94.5 99.5t51 158q8 51 8 89q0 120 -79 172.5t-266 52.5q-114 0 -240 -16zM1393 2756l230 213h377l-498 -443h-283l-365 443h381z" />
    <glyph glyph-name="rcaron" unicode="&#x159;" horiz-adv-x="1199" 
d="M628 0h-498l203 1280q29 179 70 350q156 88 354 131.5t394 43.5q109 0 190 -11l-106 -413q-60 7 -117 7q-162 0 -268 -50q-24 -90 -48 -239zM823 2542l137 -262l225 262h352l-485 -546h-265l-320 546h356z" />
    <glyph glyph-name="Sacute" unicode="&#x15a;" horiz-adv-x="1825" 
d="M855 1657q0 -35 9 -61.5t29 -48t44.5 -37t64 -30.5t77.5 -27t95 -28l6 -1.5t5.5 -1.5t6.5 -2q282 -81 405 -206.5t123 -344.5q0 -74 -16 -178q-31 -195 -109.5 -333.5t-204.5 -222t-287.5 -121.5t-371.5 -38q-344 0 -672 78l119 428q352 -55 599 -55q173 0 263 53.5
t112 188.5q4 21 4 46q0 40 -14.5 72t-36 54t-64 44t-79.5 36t-101 36q-111 37 -189.5 71t-152 82t-117 103.5t-69.5 132.5t-26 173q0 72 13 151q24 154 78 270t133 194.5t190 127.5t241.5 70.5t295.5 21.5q337 0 665 -80l-115 -417q-307 55 -511 55q-40 0 -68 -1t-68.5 -3.5
t-70 -8.5t-64.5 -15t-60.5 -24.5t-48.5 -36t-37.5 -50t-20.5 -65.5q-4 -25 -4 -51zM1929 2974l-517 -440h-407l393 440h531z" />
    <glyph glyph-name="sacute" unicode="&#x15b;" horiz-adv-x="1607" 
d="M793 1287q-5 -29 4 -53t23.5 -39.5t45.5 -31t53.5 -23.5t65 -22t64.5 -22q173 -63 224 -88q141 -69 191 -176q35 -74 35 -177q0 -53 -11 -125q-20 -127 -71 -224t-121.5 -158.5t-166.5 -101t-198.5 -55t-224.5 -15.5q-161 0 -332.5 22.5t-297.5 60.5l107 380
q103 -22 244 -40.5t233 -18.5q141 0 198 15q110 27 124 119q5 32 -2.5 57t-19.5 40.5t-41 30.5t-47.5 21t-59.5 18.5t-59 18.5q-59 19 -98.5 33.5t-93 38.5t-89 48t-74.5 60t-61.5 76t-37.5 94t-15 117q0 49 9 104q84 534 717 534q189 0 335.5 -18.5t313.5 -61.5l-106 -371
q-260 55 -441 55q-45 0 -70.5 -0.5t-67 -4t-66.5 -11.5t-52.5 -20.5t-42.5 -34.5t-20 -51zM1735 2560l-504 -543h-381l388 543h497z" />
    <glyph glyph-name="Scedilla" unicode="&#x15e;" horiz-adv-x="1826" 
d="M1016 -3l-132 -169q90 -14 151 -68.5t61 -138.5q0 -17 -3 -35q-12 -77 -54 -135.5t-104 -92t-133 -50t-151 -16.5q-72 0 -147 21t-129 58l97 185q107 -61 207 -61q42 0 75 20t40 63q6 34 -20 59t-71.5 36.5t-88.5 16.5t-85 5l208 281h-5q-342 0 -674 78l120 428
q352 -55 600 -55q173 0 262.5 53.5t111.5 188.5q4 21 4 46q0 40 -14.5 71.5t-36 54t-63 44t-79 36.5t-101.5 36q-112 37 -190.5 71t-151.5 82t-117 103.5t-70 133t-26 173.5q0 71 13 150q31 192 105.5 325t196 211.5t276 113t361.5 34.5q337 0 665 -80l-115 -417
q-309 55 -511 55q-54 0 -91.5 -1.5t-91 -7.5t-91 -19.5t-74.5 -35t-60 -57.5t-30 -83q-4 -25 -4 -52q0 -94 79 -143q53 -34 214 -80q8 -3 24 -7l1 -1h1h1h1l1 -1h1h1l1 -1h1h1h1l1 -1h1h1l1 -1h1h1h1l1 -1h1q282 -81 405 -206.5t123 -344.5q0 -74 -16 -178
q-50 -313 -222.5 -480t-466.5 -214z" />
    <glyph glyph-name="scedilla" unicode="&#x15f;" horiz-adv-x="1606" 
d="M938 -6l-131 -167q90 -14 151 -69t61 -139q0 -16 -3 -34q-12 -77 -54 -135.5t-104 -92t-133 -50t-151 -16.5q-72 0 -147 21t-129 58l97 185q107 -61 207 -61q43 0 75 19.5t39 63.5q5 34 -20.5 59t-71 36.5t-88 16.5t-84.5 5l209 283q-339 7 -587 82l108 380
q103 -22 244 -40.5t233 -18.5q141 0 198 15q110 27 124 119q6 19 2 36.5t-6 30t-13.5 24.5t-19.5 20t-24.5 16.5t-28.5 14t-32 12t-34.5 10.5t-36 10.5t-36.5 11.5q-59 19 -98 33.5t-93 38.5t-89.5 48t-74.5 60t-61.5 76t-37.5 94t-15 117q0 49 9 104q84 534 717 534
q189 0 335.5 -18.5t315.5 -61.5l-107 -371q-260 55 -442 55q-38 0 -60 -0.5t-58 -2.5t-58.5 -6.5t-50.5 -13.5t-44.5 -22t-30 -32.5t-17.5 -44.5q-5 -29 4 -53t23.5 -39.5t45 -31t53.5 -23.5t66 -22t65 -22q172 -63 224 -88q142 -70 192 -178q34 -75 34 -176q0 -52 -11 -124
q-73 -458 -550 -536z" />
    <glyph glyph-name="Scaron" unicode="&#x160;" horiz-adv-x="1826" 
d="M1156 715q0 40 -14.5 72t-36 54t-63.5 44t-79 36t-101 36q-112 37 -190.5 71t-151.5 82t-117 103.5t-70 133t-26 173.5q0 71 13 150q30 192 105 325t196 211.5t275.5 113t361.5 34.5q339 0 665 -80l-114 -417q-309 55 -512 55q-54 0 -91.5 -1.5t-91 -7.5t-91 -19.5
t-74.5 -35t-60 -57.5t-30 -83q-4 -25 -4 -51q0 -94 80 -144q54 -34 216 -81q8 -2 25 -7h1l1 -1h1h1l1 -1h1h1h1l1 -1h1h1l1 -1h1h1h1l1 -1h1q282 -81 404.5 -206t122.5 -344q0 -75 -16 -179q-31 -195 -109.5 -333.5t-204 -222t-287.5 -121.5t-372 -38q-342 0 -672 78
l119 428q352 -55 600 -55q173 0 262.5 53.5t111.5 188.5q4 21 4 46zM1289 2763l231 213h376l-498 -443h-283l-365 443h381z" />
    <glyph glyph-name="scaron" unicode="&#x161;" horiz-adv-x="1607" 
d="M793 1287q-5 -29 4 -53t23.5 -39.5t45.5 -31t53.5 -23.5t65.5 -22t65 -22q172 -63 224 -88q142 -70 192 -178q34 -75 34 -176q0 -52 -11 -124q-20 -127 -71 -224t-122 -158.5t-167 -101t-198.5 -55t-224.5 -15.5q-160 0 -332 22.5t-299 60.5l108 380q103 -22 244 -40.5
t233 -18.5q141 0 197 14q109 28 124 120q6 19 2 36.5t-6 30t-13.5 24.5t-19.5 20t-24.5 16.5t-28.5 14t-32 12t-34.5 10.5t-36 10.5t-36.5 11.5q-59 19 -98 33.5t-92.5 38.5t-89 48t-74.5 60t-62 76t-38 94t-15 117q0 49 9 104q84 534 718 534q189 0 335 -18.5t315 -61.5
l-106 -371q-260 55 -442 55q-45 0 -70.5 -0.5t-67 -4t-66.5 -11.5t-52.5 -20.5t-42.5 -34.5t-20 -51zM1096 2283l225 262h352l-486 -546h-264l-320 546h356z" />
    <glyph glyph-name="uni0162" unicode="&#x162;" horiz-adv-x="1723" 
d="M1944 2330l-70 -446h-541l-298 -1884h-536l298 1884h-536l71 446h1612zM316 -831l246 643h370l-345 -643h-271z" />
    <glyph glyph-name="uni0163" unicode="&#x163;" horiz-adv-x="1330" 
d="M617 2201l511 83l-79 -503h338l-62 -395h-339l-132 -832q-4 -25 -4 -52q0 -67 37 -100t117 -33q84 0 164 7l-19 -364q-196 -36 -342 -36q-244 0 -358.5 94.5t-114.5 286.5q0 63 12 137l141 892h-273l62 395h274zM251 -844l246 643h370l-345 -643h-271z" />
    <glyph glyph-name="Tcaron" unicode="&#x164;" horiz-adv-x="1723" 
d="M1944 2330l-70 -446h-541l-299 -1884h-536l299 1884h-536l70 446h1613zM660 2933h382l157 -213l230 213h377l-498 -443h-283z" />
    <glyph glyph-name="tcaron" unicode="&#x165;" horiz-adv-x="1330" 
d="M617 2201l512 83l-80 -503h338l-63 -395h-338l-132 -832q-4 -25 -4 -52q0 -67 37 -100t117 -33q85 0 163 7l-18 -364q-196 -36 -342 -36q-243 0 -358 94t-115 287q0 63 12 137l141 892h-273l62 395h274zM1243 1992l266 692h397l-371 -692h-292z" />
    <glyph glyph-name="Uring" unicode="&#x16e;" horiz-adv-x="2190" 
d="M2237 2330l-242 -1532q-30 -192 -93.5 -335.5t-150 -236t-206.5 -149t-251.5 -79t-296.5 -22.5q-144 0 -256 17t-208.5 58.5t-159.5 109t-98 171t-35 240.5q0 105 19 226l242 1532h526l-246 -1558q-10 -68 -10 -110q0 -122 69.5 -173.5t229.5 -51.5q188 0 276 75.5
t117 259.5l247 1558h527zM1795 2858q0 -25 -5 -57q-23 -146 -141 -250t-261 -104q-128 0 -212 85t-84 212q0 25 5 57q22 145 141 249t262 104q128 0 211.5 -85t83.5 -211zM1284 2801q-10 -68 29 -115.5t105 -47.5q67 0 121 47.5t64 115.5q10 67 -29 115t-105 48
q-65 0 -120 -48t-65 -115z" />
    <glyph glyph-name="uring" unicode="&#x16f;" horiz-adv-x="1902" 
d="M229 656l178 1125h499l-172 -1086q-12 -81 -12 -124q0 -97 53 -139t189 -42q127 0 218 35q26 100 49 239l176 1117h499l-202 -1280q-27 -166 -71 -350q-325 -175 -798 -175q-148 0 -258.5 20.5t-180.5 57t-113 93.5t-60 122t-17 149q0 88 23 238zM1182 1932
q-128 0 -212 85t-84 212q0 25 5 57q23 145 141.5 249t261.5 104q128 0 211.5 -85t83.5 -211q0 -25 -5 -57q-23 -146 -141 -250t-261 -104zM1212 2123q67 0 121 47.5t64 115.5q11 67 -28 115t-105 48t-120.5 -48t-65.5 -115q-11 -68 28.5 -115.5t105.5 -47.5z" />
    <glyph glyph-name="Uhungarumlaut" unicode="&#x170;" horiz-adv-x="2190" 
d="M2237 2330l-242 -1532q-30 -192 -93.5 -335.5t-150 -236t-206.5 -149t-251.5 -79t-296.5 -22.5q-144 0 -256 17t-208.5 58.5t-159.5 109t-98 171t-35 240.5q0 105 19 226l242 1532h526l-246 -1558q-10 -68 -10 -110q0 -122 69.5 -173.5t229.5 -51.5q188 0 276.5 75.5
t117.5 259.5l246 1558h527zM786 2537l377 440h516l-495 -440h-398zM1476 2537l377 440h516l-496 -440h-397z" />
    <glyph glyph-name="uhungarumlaut" unicode="&#x171;" horiz-adv-x="1902" 
d="M229 656l178 1125h500l-172 -1086q-12 -72 -12 -125q0 -97 53 -138.5t188 -41.5q129 0 218 35q24 88 49 239l177 1117h498l-202 -1280q-29 -183 -71 -350q-325 -175 -797 -175q-148 0 -258.5 20.5t-181 57t-113.5 93t-60 121.5t-17 149q0 89 23 239zM648 2052l372 544
h483l-484 -544h-371zM1292 2052l373 544h483l-484 -544h-372z" />
    <glyph glyph-name="Ydieresis" unicode="&#x178;" horiz-adv-x="2030" 
d="M992 2478q-89 0 -146 56t-57 143q0 20 3 41q16 102 96 171t181 69q88 0 143 -55.5t55 -141.5q0 -13 -4 -43q-17 -102 -94 -171t-177 -69zM1680 2478q-90 0 -146 56t-56 144q0 19 3 40q16 102 96 171t179 69q89 0 144 -55.5t55 -141.5q0 -13 -4 -43q-16 -102 -93.5 -171
t-177.5 -69zM1331 896l-142 -896h-534l142 896l-510 1434h577l289 -890l586 890h556z" />
    <glyph glyph-name="Zacute" unicode="&#x179;" horiz-adv-x="1859" 
d="M1873 1929l-1089 -1473h908l-72 -456h-1302q-133 0 -201.5 44t-68.5 129q0 17 3 37q14 86 91 191l1094 1476h-858l72 453h1250q134 0 200.5 -44.5t66.5 -126.5q0 -19 -3 -38q-14 -89 -91 -192zM966 2509l392 440h532l-518 -440h-406z" />
    <glyph glyph-name="zacute" unicode="&#x17a;" horiz-adv-x="1747" 
d="M1701 1437l-872 -1016h726l-67 -421h-1226q-88 0 -137 38t-49 105q0 15 3 31q12 78 93 173l880 1030h-717l64 404h1211q87 0 136 -38.5t49 -104.5q0 -15 -3 -30q-13 -80 -91 -171zM892 2023l388 543h497l-505 -543h-380z" />
    <glyph glyph-name="Zdotaccent" unicode="&#x17b;" horiz-adv-x="1859" 
d="M1873 1929l-1089 -1473h907l-72 -456h-1302q-133 0 -201 44t-68 128q0 18 3 38q14 88 90 191l1095 1476h-858l71 453h1250q134 0 201 -44.5t67 -126.5q0 -19 -3 -38q-13 -86 -91 -192zM1024 2695q0 13 4 43q16 105 99 177t187 72q92 0 149 -57.5t57 -148.5q0 -21 -3 -43
q-17 -107 -97.5 -178.5t-184.5 -71.5q-93 0 -152 58.5t-59 148.5z" />
    <glyph glyph-name="zdotaccent" unicode="&#x17c;" horiz-adv-x="1748" 
d="M1702 1437l-872 -1016h725l-67 -421h-1225q-88 0 -137 38t-49 105q0 15 3 31q12 79 92 173l881 1030h-718l64 404h1212q87 0 136 -38.5t49 -104.5q0 -15 -3 -30q-13 -80 -91 -171zM1411 2282q0 -20 -3 -43q-17 -107 -98 -178.5t-185 -71.5q-93 0 -152 58.5t-59 148.5
q0 13 4 43q16 105 99 177t188 72q92 0 149 -57.5t57 -148.5z" />
    <glyph glyph-name="Zcaron" unicode="&#x17d;" horiz-adv-x="1859" 
d="M1873 1929l-1089 -1473h907l-71 -456h-1302q-133 0 -201.5 44t-68.5 129q0 17 3 37q14 89 91 191l1094 1476h-858l72 453h1249q135 0 201.5 -44.5t66.5 -126.5q0 -19 -3 -38q-13 -86 -91 -192zM749 2951h381l157 -213l231 213h377l-498 -443h-283z" />
    <glyph glyph-name="zcaron" unicode="&#x17e;" horiz-adv-x="1747" 
d="M1701 1437l-872 -1016h725l-66 -421h-1226q-88 0 -136.5 38.5t-48.5 105.5q0 20 2 30q12 78 93 173l880 1030h-717l64 404h1211q87 0 136 -38.5t49 -104.5q0 -15 -3 -30q-13 -80 -91 -171zM694 2568h357l137 -262l226 262h352l-486 -546h-265z" />
    <glyph glyph-name="florin" unicode="&#x192;" horiz-adv-x="1677" 
d="M607 1464l36 272q19 144 77.5 250.5t149.5 171t204 95.5t250 31q154 0 299 -28l-54 -394q-101 15 -176 15q-60 0 -105.5 -19t-73 -48t-47.5 -76.5t-29 -89.5t-18 -103l-11 -77h408l-53 -389h-407l-111 -819q-49 -358 -247 -533.5t-551 -175.5q-77 0 -144 9l52 391h58
q157 0 234 71.5t95 210.5l112 846h-352l53 389h351z" />
    <glyph glyph-name="uni0218" unicode="&#x218;" horiz-adv-x="1826" 
d="M1157 715q0 40 -14.5 72t-36 54t-64 44t-79.5 36t-101 36q-112 37 -190 71t-151.5 81.5t-117 103.5t-69.5 133t-26 173q0 72 13 151q24 154 78 270t133 194.5t190 127.5t241.5 70.5t295.5 21.5q334 0 665 -80l-115 -417q-309 55 -512 55q-54 0 -91.5 -1.5t-91 -7.5
t-91 -19.5t-74.5 -35t-60 -57.5t-30 -83q-4 -25 -4 -51q0 -94 80 -144q54 -34 216 -81q8 -2 25 -7h1l1 -1h1h1l1 -1h1h1h1l1 -1h1h1l1 -1h1h1h1l1 -1h1q282 -81 404.5 -206t122.5 -344q0 -75 -16 -179q-31 -195 -109.5 -333.5t-204 -222t-287.5 -121.5t-372 -38
q-342 0 -672 78l120 428q350 -55 599 -55q173 0 263 53.5t112 188.5q4 21 4 46zM1050 -198l-345 -643h-270l245 643h370z" />
    <glyph glyph-name="uni0219" unicode="&#x219;" horiz-adv-x="1607" 
d="M793 1287q-5 -29 4 -53t23.5 -39.5t45.5 -31t53.5 -23.5t65.5 -22t65 -22q172 -63 223 -88q141 -69 191 -176q35 -74 35 -177q0 -53 -11 -125q-20 -127 -71 -224t-122 -158.5t-167 -101t-198 -55t-224 -15.5q-160 0 -332 22.5t-300 60.5l109 380q103 -22 243.5 -40.5
t233.5 -18.5q141 0 197 14q109 28 124 120q6 19 2 36.5t-6 30t-13.5 24.5t-19.5 20t-24.5 16.5t-28.5 14t-32 12t-34.5 10.5t-36 10.5t-36.5 11.5q-59 19 -98 33.5t-92.5 38.5t-89 48t-74.5 60t-62 76t-38 94t-15 117q0 49 9 104q84 534 718 534q189 0 335 -18.5t315 -61.5
l-106 -371q-262 55 -442 55q-45 0 -70.5 -0.5t-67 -4t-66.5 -11.5t-52.5 -20.5t-42.5 -34.5t-20 -51zM966 -191l-345 -643h-271l247 643h369z" />
    <glyph glyph-name="uni021A" unicode="&#x21a;" horiz-adv-x="1722" 
d="M1976 2330l-70 -446h-541l-298 -1884h-536l298 1884h-536l71 446h1612zM348 -831l246 643h370l-345 -643h-271z" />
    <glyph glyph-name="uni021B" unicode="&#x21b;" horiz-adv-x="1330" 
d="M649 2201l511 83l-79 -503h338l-62 -395h-339l-132 -832q-4 -25 -4 -52q0 -67 37 -100t117 -33q84 0 164 7l-19 -364q-196 -36 -342 -36q-244 0 -358.5 94.5t-114.5 286.5q0 63 12 137l141 892h-273l62 395h274zM283 -844l246 643h370l-345 -643h-271z" />
    <glyph glyph-name="circumflex" unicode="&#x2c6;" horiz-adv-x="1227" 
d="M690 2417h264l321 -546h-356l-137 262l-225 -262h-353z" />
    <glyph glyph-name="caron" unicode="&#x2c7;" horiz-adv-x="1144" 
d="M248 2417h356l138 -262l224 262h353l-486 -546h-264z" />
    <glyph glyph-name="uni02C9" unicode="&#x2c9;" horiz-adv-x="1405" 
d="M330 1959l49 309h1028l-49 -309h-1028z" />
    <glyph glyph-name="breve" unicode="&#x2d8;" horiz-adv-x="1084" 
d="M278 2389h272q-2 -89 39.5 -149t126.5 -60t146 60t87 149h272q-25 -104 -71 -191.5t-112.5 -155.5t-160.5 -106t-205 -38q-103 0 -180.5 32.5t-124 92t-69 136t-22.5 169.5q0 40 2 61z" />
    <glyph glyph-name="dotaccent" unicode="&#x2d9;" horiz-adv-x="714" 
d="M488 1889q-93 0 -152 58.5t-59 148.5q0 13 4 43q16 105 99 177t187 72q92 0 150 -57.5t58 -147.5q0 -14 -4 -44q-17 -107 -98 -178.5t-185 -71.5z" />
    <glyph glyph-name="ring" unicode="&#x2da;" horiz-adv-x="910" 
d="M978 2236q0 -25 -5 -57q-23 -146 -141.5 -250t-261.5 -104q-128 0 -211.5 85t-83.5 212q0 25 5 57q22 145 141 249t262 104q128 0 211.5 -85t83.5 -211zM601 2016q66 0 120.5 47.5t64.5 115.5q11 67 -28.5 115t-105.5 48q-65 0 -120 -48t-65 -115q-10 -68 29 -115.5
t105 -47.5z" />
    <glyph glyph-name="ogonek" unicode="&#x2db;" horiz-adv-x="709" 
d="M302 0h264q-252 -213 -275 -359q-2 -11 -2 -32q0 -48 23 -74.5t66 -26.5q105 0 190 59l39 -177q-71 -53 -161 -83.5t-168 -30.5q-134 0 -215 64.5t-81 178.5q0 27 4 51q18 114 111 229.5t205 200.5z" />
    <glyph glyph-name="tilde" unicode="&#x2dc;" horiz-adv-x="1228" 
d="M1057 2356h251q-50 -219 -157 -338t-221 -119q-56 0 -100 19.5t-69.5 47t-45.5 55t-40 47t-41 19.5q-73 0 -127 -179h-251q26 112 69.5 201t94.5 143.5t106 83.5t109 29q56 0 100 -19.5t69.5 -47t46 -55t40 -47t40.5 -19.5q73 0 126 179z" />
    <glyph glyph-name="hungarumlaut" unicode="&#x2dd;" horiz-adv-x="1514" 
d="M208 1860l374 544h482l-484 -544h-372zM853 1860l374 544h482l-484 -544h-372z" />
    <glyph glyph-name="uni03A9" unicode="&#x3a9;" horiz-adv-x="2552" 
d="M1973 1210q12 72 12 148q0 93 -18 179t-56.5 163t-94 134t-136.5 90.5t-178 33.5q-136 0 -260 -59.5t-217 -162t-158 -240t-90 -292.5q-14 -92 -14 -173q0 -243 100 -438.5t255 -296.5l-47 -296h-1021l63 396h354q-191 284 -191 634q0 96 17 207q38 242 156 451t287 355
t385 228.5t447 82.5q213 0 388.5 -73t289.5 -199t176 -292t62 -355q0 -91 -15 -186q-40 -251 -158.5 -467.5t-286.5 -385.5h353l-62 -396h-1018l48 296q107 59 205 146t185 200.5t150 260t88 307.5z" />
    <glyph glyph-name="uni03BC" unicode="&#x3bc;" horiz-adv-x="2098" 
d="M1929 302l-52 -326q-109 0 -195 20.5t-141.5 57t-89 80t-49.5 95.5q-111 -136 -224.5 -194.5t-253.5 -58.5q-73 0 -138.5 24.5t-105.5 68.5l-115 -725h-462l386 2437h464l-169 -1065q-7 -42 -7 -85q0 -117 55.5 -185.5t159.5 -68.5q97 0 171 45t124 133t82 197t56 258
l122 771h465l-170 -1081q-24 -150 -24 -213q0 -72 25 -117.5t86 -67.5z" />
    <glyph glyph-name="pi" unicode="&#x3c0;" horiz-adv-x="2256" 
d="M2272 1379h-378q-68 -223 -119 -543q-13 -79 -13 -154q0 -338 316 -338l-92 -368q-164 0 -288 26t-204 71t-129.5 113.5t-70 147t-20.5 176.5q0 95 19 214q49 311 147 655h-341q-215 -962 -410 -1379h-501q149 326 250 637t205 738h-49q-81 0 -145 -21t-155 -70l-69 274
q241 223 606 223h1549z" />
    <glyph glyph-name="uni200A" unicode="&#x200a;" horiz-adv-x="73" 
 />
    <glyph glyph-name="uni2010" unicode="&#x2010;" horiz-adv-x="1278" 
d="M238 688l63 396h878l-63 -396h-878z" />
    <glyph glyph-name="endash" unicode="&#x2013;" horiz-adv-x="1972" 
d="M238 697l60 377h1575l-60 -377h-1575z" />
    <glyph glyph-name="emdash" unicode="&#x2014;" horiz-adv-x="3493" 
d="M238 697l60 377h3096l-60 -377h-3096z" />
    <glyph glyph-name="quoteleft" unicode="&#x2018;" horiz-adv-x="872" 
d="M197 1572l482 897h380l-343 -897h-519z" />
    <glyph glyph-name="quoteright" unicode="&#x2019;" horiz-adv-x="871" 
d="M197 1572l343 897h518l-481 -897h-380z" />
    <glyph glyph-name="quotesinglbase" unicode="&#x201a;" horiz-adv-x="909" 
d="M2 -407l343 897h518l-482 -897h-379z" />
    <glyph glyph-name="quotedblleft" unicode="&#x201c;" horiz-adv-x="1580" 
d="M197 1572l481 897h380l-343 -897h-518zM905 1572l481 897h380l-343 -897h-518z" />
    <glyph glyph-name="quotedblright" unicode="&#x201d;" horiz-adv-x="1580" 
d="M197 1572l343 897h519l-482 -897h-380zM906 1572l342 897h518l-480 -897h-380z" />
    <glyph glyph-name="quotedblbase" unicode="&#x201e;" horiz-adv-x="1617" 
d="M2 -407l343 897h518l-482 -897h-379zM710 -407l343 897h518l-481 -897h-380z" />
    <glyph glyph-name="dagger" unicode="&#x2020;" horiz-adv-x="1861" 
d="M886 1816l89 560h499l-88 -560h574l-70 -437h-573l-285 -1799h-499l284 1799h-566l69 437h566z" />
    <glyph glyph-name="daggerdbl" unicode="&#x2021;" horiz-adv-x="1934" 
d="M572 -420l167 1059h-565l68 433h565l60 378h-565l70 440h565l77 486h496l-76 -486h570l-69 -440h-571l-60 -378h570l-68 -433h-571l-167 -1059h-496z" />
    <glyph glyph-name="bullet" unicode="&#x2022;" horiz-adv-x="1213" 
d="M606 653q-95 0 -181.5 37t-148.5 99t-99 148.5t-37 181.5q0 193 136.5 329.5t329.5 136.5q126 0 233.5 -62.5t170 -170t62.5 -233.5q0 -193 -136.5 -329.5t-329.5 -136.5z" />
    <glyph glyph-name="ellipsis" unicode="&#x2026;" horiz-adv-x="2994" 
d="M426 -24q-139 0 -196.5 41t-57.5 142q0 44 9 101q26 162 97 222t237 60q140 0 198 -40.5t58 -142.5q0 -43 -9 -99q-26 -162 -97 -223t-239 -61zM1472 -24q-139 0 -196.5 40.5t-57.5 141.5q0 44 9 102q26 162 97 222t237 60q139 0 196.5 -40.5t57.5 -142.5q0 -42 -9 -99
q-25 -162 -96 -223t-238 -61zM2517 -24q-140 0 -197.5 40.5t-57.5 142.5q0 44 9 101q26 162 97 222t238 60q139 0 197 -40.5t58 -142.5q0 -43 -9 -99q-26 -162 -96.5 -223t-238.5 -61z" />
    <glyph glyph-name="perthousand" unicode="&#x2030;" horiz-adv-x="4054" 
d="M674 952q-238 0 -336 96.5t-98 305.5q0 120 28 293q24 148 52.5 252t76 192.5t113.5 141t161 81t223 28.5q239 0 337 -97t98 -306q0 -119 -28 -292q-23 -148 -52.5 -252.5t-77 -192.5t-113.5 -140.5t-161 -81t-223 -28.5zM954 1647q29 179 29 254q0 82 -29.5 123
t-101.5 41q-27 0 -50.5 -6.5t-41.5 -16.5t-34 -30t-27.5 -38t-22.5 -50t-18 -56.5t-15.5 -67t-13.5 -72.5t-13 -81q-30 -189 -30 -257q0 -81 29.5 -121t100.5 -40q35 0 63.5 11t49 27t38 48t29 61t23 79t18.5 88.5t17 103.5zM2119 -12q-239 0 -337 97t-98 306q0 119 28 292
q24 148 53 252t76 192.5t113.5 141t161.5 81t223 28.5q238 0 336 -96.5t98 -305.5q0 -120 -28 -293q-24 -148 -53 -252t-76 -192.5t-113 -141t-161.5 -81t-222.5 -28.5zM2398 683q30 189 30 256q0 82 -29.5 122.5t-101.5 40.5q-35 0 -63.5 -11t-49 -27t-38 -48.5t-28.5 -61
t-22.5 -79.5t-18.5 -88.5t-17 -103.5q-30 -189 -30 -256q0 -81 29.5 -121t101.5 -40q35 0 63.5 11t49 27t38 48t28.5 60.5t22.5 79t18.5 88.5t17 103zM3320 -12q-239 0 -337 97t-98 306q0 119 28 292q24 148 53 252t76 192.5t113.5 141t161.5 81t223 28.5q162 0 258 -46
t136 -132.5t40 -226.5q0 -115 -27 -290q-23 -148 -52.5 -252.5t-77 -192.5t-113.5 -140.5t-161 -81t-223 -28.5zM3231 428q0 -81 29.5 -121.5t101.5 -40.5q35 0 63.5 11t49 27t38 48t28.5 60.5t22.5 79t18.5 88.5t17 103q29 181 29 255q0 82 -29.5 123t-100.5 41
q-28 0 -51 -6.5t-41.5 -16.5t-34.5 -30t-27.5 -38t-22.5 -50t-18 -56.5t-15.5 -67.5t-13.5 -73t-13 -81q-30 -189 -30 -255zM475 -48l1724 2426h337l-1725 -2426h-336z" />
    <glyph glyph-name="guilsinglleft" unicode="&#x2039;" horiz-adv-x="1134" 
d="M647 862l328 -696h-454l-373 696l593 696h454z" />
    <glyph glyph-name="guilsinglright" unicode="&#x203a;" horiz-adv-x="1133" 
d="M1121 862l-593 -696h-454l549 696l-329 696h454z" />
    <glyph glyph-name="fraction" unicode="&#x2044;" horiz-adv-x="524" 
d="M-676 -48l1724 2426h336l-1723 -2426h-337z" />
    <glyph glyph-name="uni2070" unicode="&#x2070;" horiz-adv-x="1249" 
d="M1330 2330q0 -119 -28 -292q-19 -123 -42 -214t-57.5 -172.5t-80.5 -136t-109.5 -94.5t-146.5 -58.5t-190 -18.5q-239 0 -337 96.5t-98 305.5q0 109 28 292q24 149 53 253t76 192.5t113 140.5t161 80.5t223 28.5q239 0 337 -97t98 -306zM587 1782q0 -81 29.5 -121
t101.5 -40q35 0 63.5 11t49 27t38 48t28.5 60.5t22.5 79t18.5 88.5t17 103q29 181 29 255q0 82 -29.5 123t-100.5 41q-35 0 -63.5 -11t-49 -27t-38 -48t-28.5 -60.5t-22.5 -79.5t-18.5 -89t-17 -104q-30 -189 -30 -256z" />
    <glyph glyph-name="uni2074" unicode="&#x2074;" horiz-adv-x="1213" 
d="M703 1356l46 293h-382q-102 0 -145 32.5t-43 96.5q0 20 3 42q7 43 35 94.5t104 133.5l501 545q76 83 132 110.5t130 27.5q67 0 108 -37.5t41 -108.5q0 -23 -4 -44l-100 -624h155l-43 -268h-154l-47 -293h-337zM847 2257l-301 -340h247z" />
    <glyph glyph-name="uni2075" unicode="&#x2075;" horiz-adv-x="1158" 
d="M648 2242q40 2 55 2q91 0 159 -7.5t133 -28.5t106 -57t66 -95.5t25 -141.5q0 -50 -9 -111q-38 -239 -186.5 -347.5t-408.5 -108.5q-230 0 -446 54l77 267q229 -35 352 -35q68 0 108.5 6.5t73 27.5t49 58t26.5 99q6 37 -3.5 64.5t-29.5 43.5t-55.5 25.5t-73 12.5t-90.5 3
q-159 0 -312 -9l171 757h864l-46 -289h-562z" />
    <glyph glyph-name="uni2076" unicode="&#x2076;" horiz-adv-x="1221" 
d="M1309 2725l-15 -262q-24 -1 -77 -1h-74q-51 0 -87.5 -1t-86.5 -6.5t-86 -14.5t-76 -25.5t-68 -40t-50.5 -59t-33.5 -80.5q91 12 171 12q109 0 187.5 -15t139 -51t91 -100.5t30.5 -159.5q0 -56 -10 -119q-17 -109 -55.5 -190.5t-91 -133t-126.5 -83t-153.5 -44
t-180.5 -12.5q-121 0 -206 25t-134 75.5t-70.5 118t-21.5 160.5q0 87 17 195q26 162 56.5 276.5t78 210t109.5 155t152.5 100.5t205 57.5t268.5 16.5q33 0 197 -4zM569 1768q0 -151 127 -151q113 0 160 40.5t64 149.5q4 24 4 48q0 73 -43 101t-128 28q-83 0 -155 -11
q-10 -39 -18 -92q-11 -71 -11 -113z" />
    <glyph glyph-name="uni2077" unicode="&#x2077;" horiz-adv-x="1070" 
d="M1242 2468l-663 -1109h-382l682 1067h-599l46 293h785q95 0 139 -41t33 -113q-7 -39 -41 -97z" />
    <glyph glyph-name="uni2078" unicode="&#x2078;" horiz-adv-x="1215" 
d="M660 1344q-108 0 -189.5 16t-144.5 51.5t-96 98t-33 150.5q0 44 7 89q18 110 77 179.5t169 133.5q-65 43 -99.5 99t-34.5 141q0 36 6 76q56 355 558 355q452 0 452 -288q0 -31 -6 -67q-18 -114 -67 -182t-161 -129q73 -51 111 -109t38 -142q0 -36 -5 -65
q-15 -98 -54 -171t-91 -117.5t-125 -71.5t-146.5 -37t-165.5 -10zM542 1722q0 -60 41.5 -83.5t119.5 -23.5q179 0 201 140q5 32 5 50q0 59 -45 87t-167 42q-130 -34 -152 -179q-3 -18 -3 -33zM644 2307q0 -51 43.5 -79.5t160.5 -35.5q67 19 101 52t45 99q3 17 3 29
q0 55 -41 76t-117 21q-84 0 -132.5 -26.5t-59.5 -99.5q-3 -19 -3 -36z" />
    <glyph glyph-name="uni2079" unicode="&#x2079;" horiz-adv-x="1221" 
d="M276 2275q17 109 55.5 190.5t91 133t126.5 83t153.5 44t180.5 12.5q121 0 206 -25t134.5 -75t71 -117.5t21.5 -159.5q0 -81 -18 -197q-26 -161 -56.5 -276t-78 -210.5t-109.5 -155t-152.5 -100.5t-204.5 -57.5t-268 -16.5q-34 0 -197 4l14 262q24 1 77 1h74q51 0 87.5 1
t86.5 6.5t86 14.5t76 25.5t68 40t50.5 59t33.5 80.5q-95 -11 -171 -11q-87 0 -153 9t-123.5 31.5t-94 59t-57 93t-20.5 132.5q0 56 10 119zM844 2461q-113 0 -160 -41t-64 -149q-4 -24 -4 -50q0 -72 43 -100t129 -28q70 0 154 11q10 43 18 92q11 71 11 113q0 152 -127 152z
" />
    <glyph glyph-name="uni2080" unicode="&#x2080;" horiz-adv-x="1249" 
d="M1330 582q0 -119 -28 -292q-19 -123 -42 -214t-57.5 -172.5t-80.5 -136t-109.5 -94.5t-146.5 -58.5t-190 -18.5q-239 0 -337 96.5t-98 305.5q0 109 28 292q24 149 53 253t76 192.5t113 140.5t161 80.5t223 28.5q239 0 337 -97t98 -306zM587 34q0 -81 29.5 -121t101.5 -40
q35 0 63.5 11t49 27t38 48t28.5 60.5t22.5 79t18.5 88.5t17 103q29 181 29 255q0 82 -29.5 123t-100.5 41q-35 0 -63.5 -11t-49 -27t-38 -48t-28.5 -60.5t-22.5 -79.5t-18.5 -89t-17 -104q-30 -189 -30 -256z" />
    <glyph glyph-name="uni2081" unicode="&#x2081;" horiz-adv-x="821" 
d="M381 -389l162 1020q-110 -24 -283 -41l28 273q216 32 389 108h262l-215 -1360h-343z" />
    <glyph glyph-name="uni2082" unicode="&#x2082;" horiz-adv-x="1162" 
d="M357 931q262 52 473 52q79 0 143 -8t121 -28t95.5 -52t61 -82.5t22.5 -117.5q0 -37 -6 -77q-30 -187 -146.5 -311t-332.5 -205q-109 -41 -157 -85.5t-72 -116.5h594l-46 -292h-984q40 121 60 178.5t53.5 141.5t58.5 123.5t63.5 93.5t82 85.5t101 65.5t132.5 64
q118 48 172 91.5t65 113.5q3 18 3 33q0 59 -54 79.5t-196 20.5q-126 0 -317 -34z" />
    <glyph glyph-name="uni2083" unicode="&#x2083;" horiz-adv-x="1138" 
d="M415 183l40 253q155 3 317 28q49 7 77 38t37 88q6 37 -3 60.5t-33.5 34.5t-52.5 15t-72 4q-114 0 -384 -34l7 263q258 52 442 52q79 0 141.5 -6.5t124 -25.5t102 -50.5t65.5 -84t25 -123.5q0 -29 -7 -78q-15 -92 -68 -167.5t-143 -122.5q76 -36 111 -88t35 -127
q0 -33 -6 -70q-20 -126 -70 -213.5t-129.5 -138t-178 -72.5t-228.5 -22q-75 0 -155 8.5t-130.5 17t-147.5 26.5l79 268q229 -33 350 -33q124 0 180 30t70 119q3 21 3 39q0 86 -87 98q-111 14 -271 14h-40z" />
    <glyph glyph-name="uni2084" unicode="&#x2084;" horiz-adv-x="1213" 
d="M703 -392l46 293h-382q-102 0 -145 32.5t-43 96.5q0 20 3 42q7 43 35 94.5t104 133.5l501 545q76 83 132 110.5t130 27.5q67 0 108 -37.5t41 -108.5q0 -23 -4 -44l-100 -624h155l-43 -268h-154l-47 -293h-337zM847 509l-301 -340h247z" />
    <glyph glyph-name="uni2085" unicode="&#x2085;" horiz-adv-x="1158" 
d="M648 494q40 2 55 2q91 0 159 -7.5t133 -28.5t106 -57t66 -95.5t25 -141.5q0 -50 -9 -111q-38 -239 -186.5 -347.5t-408.5 -108.5q-230 0 -446 54l77 267q229 -35 352 -35q68 0 108.5 6.5t73 27.5t49 58t26.5 99q6 37 -3.5 64.5t-29.5 43.5t-55.5 25.5t-73 12.5t-90.5 3
q-159 0 -312 -9l171 757h864l-46 -289h-562z" />
    <glyph glyph-name="uni2086" unicode="&#x2086;" horiz-adv-x="1221" 
d="M1309 977l-15 -262q-24 -1 -77 -1h-74q-51 0 -87.5 -1t-86.5 -6.5t-86 -14.5t-76 -25.5t-68 -40t-50.5 -59t-33.5 -80.5q91 12 171 12q109 0 187.5 -15t139 -51t91 -100.5t30.5 -159.5q0 -56 -10 -119q-17 -109 -55.5 -190.5t-91 -133t-126.5 -83t-153.5 -44
t-180.5 -12.5q-121 0 -206 25t-134 75.5t-70.5 118t-21.5 160.5q0 87 17 195q26 162 56.5 276.5t78 210t109.5 155t152.5 100.5t205 57.5t268.5 16.5q33 0 197 -4zM569 20q0 -151 127 -151q113 0 160 40.5t64 149.5q4 24 4 48q0 73 -43 101t-128 28q-83 0 -155 -11
q-10 -39 -18 -92q-11 -72 -11 -113z" />
    <glyph glyph-name="uni2087" unicode="&#x2087;" horiz-adv-x="1070" 
d="M1242 720l-663 -1109h-382l682 1067h-599l46 293h785q95 0 139 -41t33 -113q-7 -39 -41 -97z" />
    <glyph glyph-name="uni2088" unicode="&#x2088;" horiz-adv-x="1215" 
d="M660 -404q-108 0 -189.5 16t-144.5 51.5t-96 98t-33 150.5q0 44 7 89q18 110 77 179.5t169 133.5q-65 43 -99.5 99t-34.5 141q0 36 6 76q56 355 558 355q452 0 452 -288q0 -31 -6 -67q-18 -114 -67 -182t-161 -129q73 -51 111 -109t38 -142q0 -36 -5 -65
q-15 -98 -54 -171t-91 -117.5t-125 -71.5t-146.5 -37t-165.5 -10zM542 -26q0 -60 41.5 -83.5t119.5 -23.5q179 0 201 140q5 32 5 50q0 59 -45 87t-167 42q-130 -34 -152 -179q-3 -18 -3 -33zM644 559q0 -51 43.5 -79.5t160.5 -35.5q67 19 101 52t45 99q3 17 3 29
q0 55 -41 76t-117 21q-84 0 -132.5 -26.5t-59.5 -99.5q-3 -19 -3 -36z" />
    <glyph glyph-name="uni2089" unicode="&#x2089;" horiz-adv-x="1221" 
d="M276 527q17 109 55.5 190.5t91 133t126.5 83t153.5 44t180.5 12.5q121 0 206 -25t134.5 -75t71 -117.5t21.5 -159.5q0 -81 -18 -197q-26 -161 -56.5 -276t-78 -210.5t-109.5 -155t-152.5 -100.5t-204.5 -57.5t-268 -16.5q-34 0 -197 4l14 262q24 1 77 1h74q51 0 87.5 1
t86.5 6.5t86 14.5t76 25.5t68 40t50.5 59t33.5 80.5q-95 -11 -171 -11q-87 0 -153 9t-123.5 31.5t-94 59t-57 93t-20.5 132.5q0 56 10 119zM844 713q-113 0 -160 -41t-64 -149q-4 -24 -4 -50q0 -72 43 -100t129 -28q70 0 154 11q10 43 18 92q11 71 11 113q0 152 -127 152z
" />
    <glyph glyph-name="Euro" unicode="&#x20ac;" horiz-adv-x="1791" 
d="M1484 1060l-99 -269h-503q-1 -14 -1 -41q0 -162 68.5 -244.5t240.5 -82.5q200 0 405 45l-26 -416q-230 -76 -530 -76q-185 0 -312.5 38.5t-206.5 121t-114.5 203.5t-35.5 295q0 74 6 157h-231l99 269h162l24 149h-198l101 271h153q53 214 126 361.5t182 248.5
t258.5 147.5t352.5 46.5q296 0 505 -79l-104 -412q-209 44 -393 44q-177 0 -273 -90t-147 -267h647l-100 -271h-605l-12 -79q-9 -52 -11 -70h572z" />
    <glyph glyph-name="uni2113" unicode="&#x2113;" horiz-adv-x="1726" 
d="M193 490l-90 260l327 204q32 201 59.5 344.5t69.5 310.5t88 281t113 227t146.5 180t186 108t234.5 41t215.5 -54t126.5 -142t39 -205q0 -60 -10 -119q-22 -142 -99 -287.5t-195.5 -280t-250.5 -252t-291 -233.5q-10 -128 -10 -211q0 -185 48 -276t164 -91q74 0 169 55
t230 171l145 -201q-311 -344 -670 -344q-116 0 -206.5 33t-150 90t-99 139t-57 172.5t-20.5 198.5zM1249 2141q-32 0 -61 -17.5t-54 -57.5t-45 -79t-40 -108t-33 -116.5t-30 -133t-25 -128.5t-23 -131q-5 -27 -7 -40q171 162 268.5 306.5t121.5 299.5q8 51 8 87
q0 118 -80 118z" />
    <glyph glyph-name="trademark" unicode="&#x2122;" horiz-adv-x="3168" 
d="M2926 932h-307v883h-2l-345 -883h-204l-344 883h-2v-883h-308v1398h411l350 -890l344 890h407v-1398zM1222 2330v-270h-406v-1128h-308v1128h-406v270h1120z" />
    <glyph glyph-name="Omega" unicode="&#x2126;" horiz-adv-x="2552" 
d="M1973 1210q12 72 12 148q0 93 -18 179t-56.5 163t-94 134t-136.5 90.5t-178 33.5q-136 0 -260 -59.5t-217 -162t-158 -240t-90 -292.5q-14 -92 -14 -173q0 -243 100 -438.5t255 -296.5l-47 -296h-1021l63 396h354q-191 284 -191 634q0 96 17 207q38 242 156 451t287 355
t385 228.5t447 82.5q213 0 388.5 -73t289.5 -199t176 -292t62 -355q0 -91 -15 -186q-40 -251 -158.5 -467.5t-286.5 -385.5h353l-62 -396h-1018l48 296q107 59 205 146t185 200.5t150 260t88 307.5z" />
    <glyph glyph-name="estimated" unicode="&#x212e;" horiz-adv-x="2690" 
d="M2196 496h206q-99 -120 -206 -212t-236 -163t-283.5 -108t-329.5 -37q-266 0 -493 84t-384 229.5t-246 348t-89 433.5q0 144 38.5 282t109.5 259.5t178.5 223.5t239.5 175t297.5 114t348.5 41q224 0 413 -54t328.5 -151.5t241 -234.5t159 -301.5t74.5 -353.5h-1898v-741
q280 -236 682 -236q534 0 849 402zM665 1809v-619h1368v619q-302 240 -686 240q-404 0 -682 -240z" />
    <glyph glyph-name="uni2190" unicode="&#x2190;" horiz-adv-x="2254" 
d="M922 770l480 -600h-478l-755 809l755 808h478l-480 -600h1317v-417h-1317z" />
    <glyph glyph-name="uni2191" unicode="&#x2191;" horiz-adv-x="1801" 
d="M1186 1261v-1318h-416v1318l-601 -480v478l808 755l809 -755v-478z" />
    <glyph glyph-name="uni2192" unicode="&#x2192;" horiz-adv-x="2254" 
d="M2239 979l-754 -809h-479l480 600h-1317v417h1317l-480 600h479z" />
    <glyph glyph-name="uni2193" unicode="&#x2193;" horiz-adv-x="1800" 
d="M1785 1177v-479l-808 -755l-808 755v479l600 -480v1317h416v-1317z" />
    <glyph glyph-name="uni21E8" unicode="&#x21e8;" horiz-adv-x="2665" 
d="M1552 525h-1363v908h1363v555l1043 -1009l-1043 -1010v556zM2364 979l-649 617v-326h-1365v-582h1365v-326z" />
    <glyph glyph-name="partialdiff" unicode="&#x2202;" horiz-adv-x="1833" 
d="M611 1967l-42 304q307 198 609 198q165 0 288.5 -55.5t201 -160.5t115.5 -250t38 -330q0 -173 -31 -365q-46 -293 -146 -538t-241.5 -421.5t-327 -274.5t-396.5 -98q-140 0 -249.5 46t-176.5 126.5t-101.5 186t-34.5 229.5q0 69 13 155q30 189 109 347.5t197 273.5
t277.5 179t342.5 64q151 0 273 -94q8 91 8 162q0 453 -295 453q-115 0 -213 -32t-218 -105zM612 591q0 -118 39.5 -192.5t119.5 -74.5q84 0 161.5 65t137.5 175t104.5 232.5t77.5 260.5q-41 80 -95.5 124t-138.5 44q-98 0 -183 -73t-138 -186.5t-74 -246.5q-11 -68 -11 -128
z" />
    <glyph glyph-name="Delta" unicode="&#x2206;" horiz-adv-x="2263" 
d="M2116 274l-44 -274h-2067l42 268l1126 2062h484zM1589 386l-287 1301l-704 -1301h991z" />
    <glyph glyph-name="product" unicode="&#x220f;" horiz-adv-x="2582" 
d="M2787 2400l-66 -418h-355l-385 -2425h-501l385 2425h-672l-384 -2425h-502l384 2425h-358l66 418h2388z" />
    <glyph glyph-name="summation" unicode="&#x2211;" horiz-adv-x="2069" 
d="M409 2400h1819l-64 -404h-1149l567 -972l-950 -1035h1265l-68 -432h-1905l45 288l1036 1133l-642 1124z" />
    <glyph glyph-name="minus" unicode="&#x2212;" horiz-adv-x="1870" 
d="M169 770l65 417h1621l-65 -417h-1621z" />
    <glyph glyph-name="uni2215" unicode="&#x2215;" horiz-adv-x="524" 
d="M-676 -48l1724 2426h336l-1723 -2426h-337z" />
    <glyph glyph-name="uni2219" unicode="&#x2219;" horiz-adv-x="970" 
d="M261 856q0 43 9 100q17 110 53.5 170t102.5 86t179 26q139 0 196.5 -40.5t57.5 -142.5q0 -42 -9 -99q-26 -162 -96.5 -223t-237.5 -61q-140 0 -197.5 41t-57.5 143z" />
    <glyph glyph-name="radical" unicode="&#x221a;" horiz-adv-x="1932" 
d="M2246 2866l-1176 -3076h-400l-234 1318l-235 -87l-48 325l666 252l158 -998l856 2266h413z" />
    <glyph glyph-name="infinity" unicode="&#x221e;" horiz-adv-x="2742" 
d="M201 979q19 120 80 233.5t148.5 200t203 139t235.5 52.5q298 0 522 -309q75 77 128.5 128.5t132 115t146.5 101t153.5 63.5t170.5 26q135 0 242 -47.5t174.5 -130.5t103 -191.5t35.5 -233.5q0 -72 -12 -147q-23 -148 -89.5 -283t-165 -239.5t-235.5 -166.5t-291 -62
q-71 0 -135.5 16t-119 49t-99.5 69.5t-90.5 91t-77 98t-72.5 106.5q-316 -301 -618 -301q-107 0 -198 41.5t-151.5 112t-94.5 164.5t-34 199q0 58 8 105zM806 1214q-82 0 -145.5 -64t-80.5 -171q-4 -25 -4 -55q0 -83 42.5 -130t113.5 -47q74 0 162.5 52.5t211.5 179.5
q-84 128 -155.5 181.5t-144.5 53.5zM2059 1336q-183 0 -482 -357q185 -358 368 -358q121 0 212.5 94.5t118.5 263.5q8 53 8 92q0 126 -61 195.5t-164 69.5z" />
    <glyph glyph-name="integral" unicode="&#x222b;" horiz-adv-x="1300" 
d="M1534 2314q-47 41 -94 62t-116 21q-68 0 -121.5 -45.5t-89 -129t-57.5 -170.5t-40 -201q-41 -260 -95 -781.5t-97 -795.5q-13 -81 -33.5 -161.5t-55 -169t-78 -166t-104 -149t-131.5 -122.5t-164 -81.5t-197 -30.5q-93 0 -199 37t-163 80l135 327q95 -81 248 -81
q52 0 93 22t72 62t55.5 107t42.5 147t36 192q40 250 99.5 798.5t98.5 793.5q14 91 34.5 173.5t53.5 172t75.5 163.5t103 142.5t133.5 115.5t170 75t209 28q88 0 171.5 -34t143.5 -80z" />
    <glyph glyph-name="approxequal" unicode="&#x2248;" horiz-adv-x="2139" 
d="M785 926q73 0 139.5 -15t113.5 -37t98.5 -48.5t95.5 -48.5t104 -37t125 -15q130 0 271.5 50t250.5 149q-44 -276 -65 -414q-109 -99 -250 -149t-273 -50q-87 0 -163.5 20.5t-133 50t-111 59t-123.5 50t-145 20.5q-131 0 -272 -50t-250 -148q21 138 65 414
q109 99 250.5 149t272.5 50zM1575 1445q131 0 272 50t250 148q-44 -276 -65 -414q-109 -99 -250 -149t-273 -50q-74 0 -140.5 15t-113.5 37t-98.5 48.5t-95 48.5t-103.5 37t-125 15q-130 0 -271.5 -50.5t-251.5 -149.5l66 415q109 99 250.5 149t271.5 50q87 0 163 -20.5
t133 -50t112 -59t124 -50t145 -20.5z" />
    <glyph glyph-name="notequal" unicode="&#x2260;" horiz-adv-x="2040" 
d="M197 411l66 415h581l179 305h-712l66 415h890l271 462h327l-271 -462h404l-66 -415h-582l-179 -305h713l-66 -415h-890l-271 -462h-327l271 462h-404z" />
    <glyph glyph-name="lessequal" unicode="&#x2264;" horiz-adv-x="2057" 
d="M254 1086l52 323l1789 645l-67 -423l-1110 -383l988 -383l-67 -424zM67 -97l66 415h1687l-67 -415h-1686z" />
    <glyph glyph-name="greaterequal" unicode="&#x2265;" horiz-adv-x="2058" 
d="M269 865l1110 383l-988 383l67 423l1584 -645l-51 -323l-1789 -645zM116 -97l67 415h1687l-67 -415h-1687z" />
    <glyph glyph-name="lozenge" unicode="&#x25ca;" horiz-adv-x="1929" 
d="M1905 1167l-866 -1260h-362l-468 1260l866 1256h362zM936 405l510 762l-268 764l-510 -764z" />
    <glyph glyph-name="zero.numerator" horiz-adv-x="1249" 
d="M1330 1939q0 -119 -28 -292q-19 -123 -42 -214t-57.5 -172.5t-80.5 -136t-109.5 -94.5t-146.5 -58.5t-190 -18.5q-239 0 -337 96.5t-98 305.5q0 109 28 292q24 149 53 253t76 192.5t113 140.5t161 80.5t223 28.5q239 0 337 -97t98 -306zM587 1391q0 -81 29.5 -121
t101.5 -40q35 0 63.5 11t49 27t38 48t28.5 60.5t22.5 79t18.5 88.5t17 103q29 181 29 255q0 82 -29.5 123t-100.5 41q-35 0 -63.5 -11t-49 -27t-38 -48t-28.5 -60.5t-22.5 -79.5t-18.5 -89t-17 -104q-30 -189 -30 -256z" />
    <glyph glyph-name="one.numerator" horiz-adv-x="821" 
d="M381 968l162 1020q-110 -24 -283 -41l28 273q216 32 389 108h262l-215 -1360h-343z" />
    <glyph glyph-name="two.numerator" horiz-adv-x="1162" 
d="M357 2288q262 52 473 52q79 0 143 -8t121 -28t95.5 -52t61 -82.5t22.5 -117.5q0 -37 -6 -77q-30 -187 -146.5 -311t-332.5 -205q-109 -41 -157 -85.5t-72 -116.5h594l-46 -292h-984q40 121 60 178.5t53.5 141.5t58.5 123.5t63.5 93.5t82 85.5t101 65.5t132.5 64
q118 48 172 91.5t65 113.5q3 18 3 33q0 59 -54 79.5t-196 20.5q-126 0 -317 -34z" />
    <glyph glyph-name="three.numerator" horiz-adv-x="1138" 
d="M415 1540l40 253q155 3 317 28q49 7 77 38t37 88q6 37 -3 60.5t-33.5 34.5t-52.5 15t-72 4q-114 0 -384 -34l7 263q258 52 442 52q79 0 141.5 -6.5t124 -25.5t102 -50.5t65.5 -84t25 -123.5q0 -29 -7 -78q-15 -92 -68 -167.5t-143 -122.5q76 -36 111 -88t35 -127
q0 -33 -6 -70q-20 -126 -70 -213.5t-129.5 -138t-178 -72.5t-228.5 -22q-75 0 -155 8.5t-130.5 17t-147.5 26.5l79 268q229 -33 350 -33q124 0 180 30t70 119q3 21 3 39q0 86 -87 98q-111 14 -271 14h-40z" />
    <glyph glyph-name="four.numerator" horiz-adv-x="1213" 
d="M703 965l46 293h-382q-102 0 -145 32.5t-43 96.5q0 19 3 42q7 43 35 94.5t104 133.5l501 545q76 83 132 110.5t130 27.5q67 0 108 -37.5t41 -108.5q0 -23 -4 -44l-100 -624h155l-43 -268h-154l-47 -293h-337zM847 1866l-301 -340h247z" />
    <glyph glyph-name="five.numerator" horiz-adv-x="1158" 
d="M648 1851q40 2 55 2q91 0 159 -7.5t133 -28.5t106 -57t66 -95.5t25 -141.5q0 -49 -9 -111q-38 -239 -186.5 -347.5t-408.5 -108.5q-230 0 -446 54l77 267q229 -35 352 -35q68 0 108.5 6.5t73 27.5t49 58t26.5 99q6 37 -3.5 64.5t-29.5 43.5t-55.5 25.5t-73 12.5t-90.5 3
q-159 0 -312 -9l171 757h864l-46 -289h-562z" />
    <glyph glyph-name="six.numerator" horiz-adv-x="1221" 
d="M1309 2334l-15 -262q-24 -1 -77 -1h-74q-51 0 -87.5 -1t-86.5 -6.5t-86 -14.5t-76 -25.5t-68 -40t-50.5 -59t-33.5 -80.5q91 12 171 12q109 0 187.5 -15t139 -51t91 -100.5t30.5 -159.5q0 -56 -10 -119q-17 -109 -55.5 -190.5t-91 -133t-126.5 -83t-153.5 -44
t-180.5 -12.5q-121 0 -206 25t-134 75.5t-70.5 118t-21.5 160.5q0 87 17 195q26 162 56.5 276.5t78 210t109.5 155t152.5 100.5t205 57.5t268.5 16.5q33 0 197 -4zM569 1377q0 -151 127 -151q113 0 160 40.5t64 149.5q4 24 4 48q0 73 -43 101t-128 28q-83 0 -155 -11
q-10 -39 -18 -92q-11 -71 -11 -113z" />
    <glyph glyph-name="seven.numerator" horiz-adv-x="1070" 
d="M1242 2077l-663 -1109h-382l682 1067h-599l46 293h785q95 0 139 -41t33 -113q-7 -39 -41 -97z" />
    <glyph glyph-name="eight.numerator" horiz-adv-x="1215" 
d="M660 953q-108 0 -189.5 16t-144.5 51.5t-96 98t-33 150.5q0 44 7 89q18 110 77 179.5t169 133.5q-65 43 -99.5 99t-34.5 141q0 36 6 76q56 355 558 355q452 0 452 -288q0 -31 -6 -67q-18 -114 -67 -182t-161 -129q73 -51 111 -109t38 -142q0 -36 -5 -65q-15 -98 -54 -171
t-91 -117.5t-125 -71.5t-146.5 -37t-165.5 -10zM542 1331q0 -60 41.5 -83.5t119.5 -23.5q179 0 201 140q5 32 5 50q0 59 -45 87t-167 42q-130 -34 -152 -179q-3 -18 -3 -33zM644 1916q0 -51 43.5 -79.5t160.5 -35.5q67 19 101 52t45 99q3 17 3 29q0 55 -41 76t-117 21
q-84 0 -132.5 -26.5t-59.5 -99.5q-3 -20 -3 -36z" />
    <glyph glyph-name="nine.numerator" horiz-adv-x="1221" 
d="M276 1884q17 109 55.5 190.5t91 133t126.5 83t153.5 44t180.5 12.5q121 0 206 -25t134.5 -75t71 -117.5t21.5 -159.5q0 -81 -18 -197q-26 -161 -56.5 -276t-78 -210.5t-109.5 -155t-152.5 -100.5t-204.5 -57.5t-268 -16.5q-34 0 -197 4l14 262q24 1 77 1h74q51 0 87.5 1
t86.5 6.5t86 14.5t76 25.5t68 40t50.5 59t33.5 80.5q-95 -11 -171 -11q-87 0 -153 9t-123.5 31.5t-94 59t-57 93t-20.5 132.5q0 56 10 119zM844 2070q-113 0 -160 -41t-64 -149q-4 -24 -4 -50q0 -72 43 -100t129 -28q70 0 154 11q10 43 18 92q11 72 11 113q0 152 -127 152z
" />
    <glyph glyph-name="zero.denominator" horiz-adv-x="1249" 
d="M1330 974q0 -119 -28 -292q-19 -123 -42 -214t-57.5 -172.5t-80.5 -136t-109.5 -94.5t-146.5 -58.5t-190 -18.5q-239 0 -337 96.5t-98 305.5q0 109 28 292q24 149 53 253t76 192.5t113 140.5t161 80.5t223 28.5q239 0 337 -97t98 -306zM587 426q0 -81 29.5 -121
t101.5 -40q35 0 63.5 11t49 27t38 48t28.5 60.5t22.5 79t18.5 88.5t17 103q29 181 29 255q0 82 -29.5 123t-100.5 41q-35 0 -63.5 -11t-49 -27t-38 -48t-28.5 -60.5t-22.5 -79.5t-18.5 -89t-17 -104q-30 -189 -30 -256z" />
    <glyph glyph-name="one.denominator" horiz-adv-x="821" 
d="M381 3l162 1020q-110 -24 -283 -41l28 273q216 32 389 108h262l-215 -1360h-343z" />
    <glyph glyph-name="two.denominator" horiz-adv-x="1162" 
d="M357 1323q262 52 473 52q79 0 143 -8t121 -28t95.5 -52t61 -82.5t22.5 -117.5q0 -37 -6 -77q-30 -187 -146.5 -311t-332.5 -205q-109 -41 -157 -85.5t-72 -116.5h594l-46 -292h-984q40 121 60 178.5t53.5 141.5t58.5 123.5t63.5 93.5t82 85.5t101 65.5t132.5 64
q118 48 172 91.5t65 113.5q3 18 3 33q0 59 -54 79.5t-196 20.5q-126 0 -317 -34z" />
    <glyph glyph-name="three.denominator" horiz-adv-x="1138" 
d="M415 575l40 253q155 3 317 28q49 7 77 38t37 88q6 37 -3 60.5t-33.5 34.5t-52.5 15t-72 4q-114 0 -384 -34l7 263q258 52 442 52q79 0 141.5 -6.5t124 -25.5t102 -50.5t65.5 -84t25 -123.5q0 -29 -7 -78q-15 -92 -68 -167.5t-143 -122.5q76 -36 111 -88t35 -127
q0 -32 -6 -70q-20 -126 -70 -213.5t-129.5 -138t-178 -72.5t-228.5 -22q-75 0 -155 8.5t-130.5 17t-147.5 26.5l79 268q229 -33 350 -33q124 0 180 30t70 119q3 21 3 39q0 86 -87 98q-111 14 -271 14h-40z" />
    <glyph glyph-name="four.denominator" horiz-adv-x="1213" 
d="M703 0l46 293h-382q-102 0 -145 32.5t-43 96.5q0 20 3 42q7 43 35 94.5t104 133.5l501 545q76 83 132 110.5t130 27.5q67 0 108 -37.5t41 -108.5q0 -23 -4 -44l-100 -624h155l-43 -268h-154l-47 -293h-337zM847 901l-301 -340h247z" />
    <glyph glyph-name="five.denominator" horiz-adv-x="1158" 
d="M648 886q40 2 55 2q91 0 159 -7.5t133 -28.5t106 -57t66 -95.5t25 -141.5q0 -50 -9 -111q-38 -239 -186.5 -347.5t-408.5 -108.5q-230 0 -446 54l77 267q229 -35 352 -35q68 0 108.5 6.5t73 27.5t49 58t26.5 99q6 37 -3.5 64.5t-29.5 43.5t-55.5 25.5t-73 12.5t-90.5 3
q-159 0 -312 -9l171 757h864l-46 -289h-562z" />
    <glyph glyph-name="six.denominator" horiz-adv-x="1221" 
d="M1309 1369l-15 -262q-24 -1 -77 -1h-74q-51 0 -87.5 -1t-86.5 -6.5t-86 -14.5t-76 -25.5t-68 -40t-50.5 -59t-33.5 -80.5q91 12 171 12q109 0 187.5 -15t139 -51t91 -100.5t30.5 -159.5q0 -56 -10 -119q-17 -109 -55.5 -190.5t-91 -133t-126.5 -83t-153.5 -44
t-180.5 -12.5q-121 0 -206 25t-134 75.5t-70.5 118t-21.5 160.5q0 87 17 195q26 162 56.5 276.5t78 210t109.5 155t152.5 100.5t205 57.5t268.5 16.5q33 0 197 -4zM569 412q0 -151 127 -151q113 0 160 40.5t64 149.5q4 24 4 48q0 73 -43 101t-128 28q-83 0 -155 -11
q-10 -39 -18 -92q-11 -71 -11 -113z" />
    <glyph glyph-name="seven.denominator" horiz-adv-x="1070" 
d="M1242 1112l-663 -1109h-382l682 1067h-599l46 293h785q95 0 139 -41t33 -113q-7 -39 -41 -97z" />
    <glyph glyph-name="eight.denominator" horiz-adv-x="1215" 
d="M660 -12q-108 0 -189.5 16t-144.5 51.5t-96 98t-33 150.5q0 44 7 89q18 110 77 179.5t169 133.5q-65 43 -99.5 99t-34.5 141q0 35 6 76q56 355 558 355q452 0 452 -288q0 -31 -6 -67q-18 -114 -67 -182t-161 -129q73 -51 111 -109t38 -142q0 -36 -5 -65q-15 -98 -54 -171
t-91 -117.5t-125 -71.5t-146.5 -37t-165.5 -10zM542 366q0 -60 41.5 -83.5t119.5 -23.5q179 0 201 140q5 32 5 50q0 59 -45 87t-167 42q-130 -34 -152 -179q-3 -18 -3 -33zM644 951q0 -51 43.5 -79.5t160.5 -35.5q67 19 101 52t45 99q3 17 3 29q0 55 -41 76t-117 21
q-84 0 -132.5 -26.5t-59.5 -99.5q-3 -19 -3 -36z" />
    <glyph glyph-name="nine.denominator" horiz-adv-x="1221" 
d="M276 919q17 109 55.5 190.5t91 133t126.5 83t153.5 44t180.5 12.5q121 0 206 -25t134.5 -75t71 -117.5t21.5 -159.5q0 -81 -18 -197q-26 -161 -56.5 -276t-78 -210.5t-109.5 -155t-152.5 -100.5t-204.5 -57.5t-268 -16.5q-34 0 -197 4l14 262q24 1 77 1h74q51 0 87.5 1
t86.5 6.5t86 14.5t76 25.5t68 40t50.5 59t33.5 80.5q-95 -11 -171 -11q-87 0 -153 9t-123.5 31.5t-94 59t-57 93t-20.5 132.5q0 56 10 119zM844 1105q-113 0 -160 -41t-64 -149q-4 -24 -4 -50q0 -72 43 -100t129 -28q70 0 154 11q10 43 18 92q11 72 11 113q0 152 -127 152z
" />
    <glyph glyph-name="zero.onum" horiz-adv-x="1868" 
d="M855 -24q-184 0 -310.5 35t-202.5 109.5t-109 180t-33 255.5q0 155 37 393q23 146 50 259.5t66.5 218t90 180t119 137.5t155.5 100t197.5 58t247.5 20q184 0 310.5 -35.5t202 -110t108.5 -179.5t33 -255q0 -155 -37 -393q-23 -146 -50 -259.5t-66.5 -218t-90 -180
t-118.5 -137.5t-155 -100t-198 -58t-247 -20zM694 625q0 -119 49.5 -178t172.5 -59q67 0 118 16t87.5 55.5t60.5 79t44 115t31.5 133.5t27.5 162q37 235 37 325q0 120 -49 178.5t-172 58.5q-58 0 -104 -14.5t-79.5 -36t-60.5 -64.5t-44 -81t-33.5 -106.5t-25.5 -119.5
t-23 -140q-37 -233 -37 -324z" />
    <glyph glyph-name="one.onum" horiz-adv-x="1208" 
d="M422 0l221 1396q-189 -43 -431 -65l43 406q320 47 582 163h375l-301 -1900h-489z" />
    <glyph glyph-name="two.onum" horiz-adv-x="1692" 
d="M354 1854q383 68 688 68q115 0 208.5 -11.5t177 -40t140 -74.5t89 -118t32.5 -167q0 -49 -9 -106q-43 -268 -212.5 -441t-483.5 -282q-163 -57 -235.5 -112t-106.5 -139h883l-69 -431h-1432q61 174 90.5 255t79 202t86 176.5t93 132.5t119.5 120t146.5 90t190.5 87
q184 69 266 127.5t96 143.5q3 20 3 36q0 78 -85 104t-314 26q-185 0 -452 -42z" />
    <glyph glyph-name="three.onum" horiz-adv-x="1697" 
d="M1679 1364q-23 -143 -103 -258t-219 -185q116 -54 169.5 -133t53.5 -195q0 -49 -9 -108q-25 -154 -79.5 -270t-132.5 -193t-186 -125t-231 -68.5t-277 -20.5q-166 0 -311.5 19t-333.5 57l117 399q366 -49 519 -49q100 0 165.5 9.5t117.5 35t80.5 72t40.5 119.5q5 33 5 54
q0 140 -151 160q-179 24 -423 24h-36l59 375q219 4 469 42q85 13 131 61t60 137q3 21 3 39q0 45 -19 74t-58 43t-82 19t-107 5q-202 0 -571 -49l11 393q381 75 656 75q97 0 177 -7.5t160.5 -25t140.5 -50t107.5 -79.5t72 -117t24.5 -159q0 -59 -10 -120z" />
    <glyph glyph-name="four.onum" horiz-adv-x="1815" 
d="M898 -170l71 447h-606q-145 0 -207.5 49.5t-62.5 142.5q0 25 5 62q7 42 18.5 77t60 109t130.5 163l768 833q115 125 197.5 167t187.5 42q94 0 150.5 -55.5t56.5 -160.5q0 -32 -6 -68l-152 -962h236l-62 -399h-237l-71 -447h-477zM1125 1252l-510 -576h418z" />
    <glyph glyph-name="five.onum" horiz-adv-x="1730" 
d="M773 1166q68 2 103 2q95 0 172 -5.5t155 -19.5t137 -37.5t111 -61.5t85.5 -89.5t52.5 -122.5t19 -160q0 -78 -15 -172q-58 -364 -280 -528.5t-611 -164.5q-333 0 -665 79l117 398q321 -51 520 -51q110 0 176 10.5t118 43.5t78.5 91t42.5 154q4 32 4 44q0 48 -20.5 83
t-54.5 55.5t-88.5 32.5t-111 16t-133.5 4q-217 0 -460 -14l260 1147h1285l-69 -432h-860z" />
    <glyph glyph-name="six.onum" horiz-adv-x="1823" 
d="M1728 679q-26 -166 -83.5 -289.5t-136.5 -202t-189 -126.5t-229 -66.5t-270 -18.5q-145 0 -255 25.5t-184 72.5t-120 118.5t-66 158t-20 196.5q0 122 28 302q29 183 61.5 324.5t77.5 267t100 216.5t129.5 166t164.5 123.5t208 82t256.5 47.5t312.5 14q96 0 283 -5
l-22 -390q-52 -2 -134 -2t-139.5 -1t-135 -4.5t-133.5 -12.5t-120.5 -24.5t-111 -42t-89.5 -63.5t-72 -90.5t-44 -120.5q161 19 283 19q129 0 227.5 -13.5t183.5 -47t139.5 -88.5t85 -140.5t30.5 -200.5q0 -85 -16 -184zM878 389q124 0 196 28.5t109.5 91t55.5 177.5
q7 49 7 76q0 114 -70 158t-210 44q-115 0 -256 -19q-12 -48 -28 -145q-16 -105 -16 -169q0 -114 48 -178t164 -64z" />
    <glyph glyph-name="seven.onum" horiz-adv-x="1594" 
d="M1686 1524l-1014 -1695h-549l1045 1635h-920l69 436h1182q122 0 185 -49.5t63 -138.5q0 -20 -3 -42q-10 -65 -58 -146z" />
    <glyph glyph-name="eight.onum" horiz-adv-x="1815" 
d="M824 -24q-128 0 -230.5 14.5t-190 49t-146.5 89t-92 137t-33 189.5q0 63 12 137q14 89 45.5 160t82.5 127.5t107.5 99.5t138.5 90q-100 64 -152 148t-52 213q0 59 10 122q86 538 835 538q671 0 671 -435q0 -47 -9 -103q-28 -177 -102 -281.5t-244 -194.5
q113 -76 171 -163.5t58 -216.5q0 -48 -9 -103q-17 -107 -51.5 -194t-81.5 -150.5t-110 -111.5t-131.5 -78.5t-152 -49t-166 -26t-178.5 -7.5zM627 600q-4 -24 -4 -50q0 -97 68 -134t197 -37q136 0 221 49t105 172q7 49 7 76q0 93 -72 137.5t-269 66.5q-102 -26 -168.5 -96
t-84.5 -184zM783 1499q-5 -32 -5 -54q0 -40 14.5 -69t50.5 -54t103.5 -40t167.5 -20q108 32 165.5 84.5t73.5 152.5q4 21 4 44q0 88 -66.5 121t-193.5 33q-67 0 -115.5 -8t-92 -28.5t-70.5 -61t-36 -100.5z" />
    <glyph glyph-name="nine.onum" horiz-adv-x="1825" 
d="M242 1219q26 166 83.5 289.5t136 202t189 126.5t229.5 66.5t270 18.5q145 0 255 -25.5t184 -72.5t120 -118.5t66 -158t20 -196.5q0 -122 -28 -302q-29 -183 -61.5 -324.5t-77.5 -267t-100 -216.5t-129.5 -166t-164.5 -123.5t-208 -82t-256.5 -47.5t-312.5 -14
q-96 0 -283 5l22 390q49 2 120.5 2.5t125 0.5t122.5 2.5t121.5 8t113 17t106 28.5t92 44t79.5 62.5t59 85t40 110.5q-161 -19 -282 -19q-129 0 -227.5 13.5t-183.5 47t-140 88.5t-85.5 140.5t-30.5 200.5q0 87 16 184zM1289 1098q16 103 16 168q0 114 -48 178.5t-165 64.5
q-124 0 -196 -28.5t-110 -91t-56 -177.5q-7 -49 -7 -75q0 -114 70.5 -158.5t209.5 -44.5q116 0 257 19q18 73 29 145z" />
    <glyph glyph-name="dollar.onum" horiz-adv-x="1597" 
d="M995 596q3 20 3 38q0 41 -15.5 71.5t-53 54.5t-76.5 40.5t-108 39.5q-83 28 -143.5 53t-120 57.5t-99 69.5t-71 84.5t-46.5 107t-15 131.5q0 63 12 136q45 283 198 423.5t422 174.5l46 286h340l-44 -277q240 -13 473 -69l-107 -386q-289 50 -459 50q-46 0 -78 -1.5
t-78 -6t-77.5 -16t-63.5 -29.5t-51.5 -47.5t-25.5 -69.5q-3 -20 -3 -37q0 -26 7.5 -47.5t17 -37t32.5 -31t38.5 -24.5t51 -21.5t55 -18.5t64.5 -19q16 -5 24 -7q248 -73 359 -188t111 -312q0 -73 -13 -152q-45 -282 -201 -432t-422 -191l-46 -290h-341l44 275
q-262 11 -507 69l112 397q119 -20 273.5 -35t263.5 -15q147 0 223.5 44.5t94.5 157.5z" />
    <glyph glyph-name="cent.onum" horiz-adv-x="1367" 
d="M1250 646l-18 -360q-160 -43 -349 -60l-44 -279h-321l44 279q-88 12 -154.5 44.5t-109.5 78.5t-70 109.5t-38 131t-11 149.5q0 128 29 309q22 141 51 247.5t76.5 201.5t112 160t156.5 110.5t212 65.5l46 287h321l-44 -274q163 -11 327 -65l-93 -349q-210 42 -294 42
q-77 0 -132 -8t-97 -30.5t-69 -51.5t-48 -81.5t-34 -109t-27 -145.5q-25 -161 -25 -226q0 -118 64 -168.5t234 -50.5q100 0 305 43z" />
    <glyph glyph-name="Euro.onum" horiz-adv-x="1653" 
d="M1518 1362l-99 -268h-548l-9 -61q-6 -38 -8 -52h523l-98 -266h-454q-4 -155 55.5 -234t215.5 -79q175 0 377 43l-24 -397q-216 -72 -492 -72q-170 0 -288 35.5t-191.5 111t-106 187t-32.5 271.5q0 56 5 134h-212l97 266h145q2 14 8 52q7 44 10 61h-181l99 268h138
q65 259 166 415t266.5 234.5t411.5 78.5q275 0 469 -74l-100 -394q-199 42 -365 42q-152 0 -236.5 -76.5t-130.5 -225.5h589z" />
    <glyph glyph-name="sterling.onum" horiz-adv-x="1806" 
d="M448 865h-281l59 367h231q7 121 27 252q22 142 78.5 250t133.5 175t181.5 109t213 58t238.5 16q66 0 122.5 -7.5t99.5 -18.5t85 -33.5t71 -42t65.5 -55t60 -61.5t63.5 -73l-296 -301q-82 90 -152.5 131.5t-173.5 41.5q-106 0 -170.5 -28.5t-96 -82t-46.5 -144.5
q-12 -71 -19 -186h425l-58 -367h-393q-6 -53 -15 -108q-21 -135 -118 -334h282q271 0 538 42l-23 -394q-123 -32 -319 -51.5t-408 -19.5h-448q-108 0 -160 44.5t-52 117.5q0 18 3 36q6 39 29 83t52.5 88.5t60.5 95.5t58 121.5t39 148.5q10 62 13 130z" />
    <glyph glyph-name="yen.onum" horiz-adv-x="1778" 
d="M820 2071l197 -758l450 758h477l-543 -894h206l-47 -298h-339l-49 -81l-15 -95h375l-47 -295h-375l-64 -408h-481l64 408h-371l46 295h372l15 97l-23 79h-336l48 298h202l-257 894h495z" />
    <glyph glyph-name="zero.tnum" 
d="M891 -24q-158 0 -276 26.5t-199.5 78.5t-132 133.5t-73 185t-22.5 239.5q0 198 47 491q24 152 50.5 272.5t63 234t80.5 199.5t102 161t129.5 126.5t160.5 88.5t197.5 54.5t238.5 17.5q197 0 333 -40.5t217.5 -125.5t117 -205t35.5 -291q0 -199 -47 -492
q-21 -134 -44.5 -243.5t-54 -214t-66.5 -186t-82.5 -155.5t-102 -128.5t-125 -99t-152 -71.5t-181 -41.5t-214.5 -14.5zM707 698q0 -145 56 -218t193 -73q58 0 105.5 12t85 41t66.5 59.5t53 86.5t40 102.5t33 126t27 138t26 157.5q49 305 49 430q0 147 -55.5 220.5
t-193.5 73.5q-58 0 -105.5 -12t-85 -41t-66 -60t-52.5 -87t-40 -102t-33 -126t-27 -138.5t-26 -157.5q-50 -313 -50 -432z" />
    <glyph glyph-name="one.tnum" 
d="M792 0l274 1731q-184 -46 -478 -75l45 426q351 53 633 178h400l-358 -2260h-516z" />
    <glyph glyph-name="two.tnum" 
d="M453 2202q414 82 763 82q128 0 231.5 -13t197 -46t156 -86t99 -135.5t36.5 -191.5q0 -55 -11 -126q-50 -314 -239 -517t-544 -335q-145 -53 -228.5 -109.5t-121 -115t-65.5 -152.5h1002l-72 -457h-1590q58 175 86.5 258.5t77 211t80.5 187.5t85 148.5t103 134.5
t122 105.5t155.5 102t189.5 85.5q211 85 307 163.5t115 201.5q5 27 5 61q0 107 -97 143.5t-354 36.5q-208 0 -505 -51z" />
    <glyph glyph-name="three.tnum" 
d="M1903 1680q-25 -160 -118 -288t-253 -202q137 -58 199 -144.5t62 -216.5q0 -58 -10 -118q-26 -167 -85 -293t-144 -209.5t-202.5 -136t-252 -74.5t-302.5 -22q-130 0 -265 14t-215 28t-218 41l123 416q381 -52 562 -52q90 0 153.5 6.5t119 23.5t91 47.5t59.5 78t35 115.5
q6 34 6 64q0 163 -175 184q-204 26 -461 26h-34l62 391q232 4 506 45q99 15 152 71t70 160q4 23 4 47q0 42 -15.5 72t-40.5 47.5t-66 27.5t-82.5 13t-98.5 3q-221 0 -619 -53l11 410q416 82 711 82q90 0 165.5 -5.5t153.5 -19.5t139 -37t115.5 -59.5t90.5 -85t57 -116.5
t21 -151q0 -56 -11 -130z" />
    <glyph glyph-name="four.tnum" 
d="M1003 0l79 493h-679q-155 0 -222.5 52.5t-67.5 151.5q0 31 6 65q5 34 13 60.5t30 72t68.5 107t116.5 137.5l845 919q125 135 213.5 180.5t201.5 45.5q99 0 159 -59t60 -171q0 -33 -6 -72l-169 -1072h260l-65 -417h-261l-78 -493h-504zM1257 1593l-603 -683h495z" />
    <glyph glyph-name="five.tnum" 
d="M882 1450q63 3 126 3q122 0 217.5 -8.5t190 -29.5t162 -60t120.5 -97.5t79.5 -144.5t26.5 -198q0 -88 -16 -187q-32 -200 -109.5 -344.5t-201 -234t-285.5 -131.5t-372 -42q-374 0 -719 85l121 416q362 -54 564 -54q82 0 139.5 5t109 19t85 37.5t61.5 62t45 91t29 126.5
q4 25 4 52q0 55 -23 94.5t-61 63t-98.5 37.5t-124 18.5t-150.5 4.5q-254 0 -496 -14l281 1240h1394l-71 -453h-947z" />
    <glyph glyph-name="six.tnum" 
d="M1948 2278l-24 -408q-84 -2 -133 -2q-15 0 -45 0.5t-46 0.5q-74 0 -126 -1t-124 -5.5t-123.5 -12.5t-114 -23t-107.5 -36.5t-91.5 -53.5t-78.5 -72.5t-56.5 -95.5t-35.5 -121q188 22 322 22q140 0 247.5 -14.5t200 -51t151.5 -96.5t92.5 -152.5t33.5 -216.5
q0 -95 -17 -200q-24 -151 -70 -269t-114 -201.5t-150.5 -141t-188 -90.5t-217 -47t-247.5 -14q-196 0 -333.5 41.5t-217.5 124t-115 193.5t-35 263q0 141 30 329q32 200 67.5 354.5t85 292t109 236.5t141.5 181.5t180.5 135.5t227 89.5t280 52t341.5 15.5q54 0 301 -6z
M703 682q0 -129 54.5 -201.5t188.5 -72.5q208 0 295 73t117 265q8 51 8 87q0 131 -80 181.5t-239 50.5q-147 0 -294 -23q-16 -67 -32 -169q-18 -108 -18 -191z" />
    <glyph glyph-name="seven.tnum" 
d="M1969 1861l-1113 -1861h-580l1151 1802h-1019l73 458h1291q129 0 196.5 -52t67.5 -145q0 -14 -4 -44q-11 -72 -63 -158z" />
    <glyph glyph-name="eight.tnum" 
d="M894 -24q-139 0 -250.5 16t-207 53.5t-159.5 96t-99.5 148t-35.5 205.5q0 69 12 148q16 99 51 177t93 140.5t122 109t158 100.5q-75 46 -124 97t-80.5 129t-31.5 178q0 56 11 128q93 582 907 582q730 0 730 -471q0 -53 -9 -111q-31 -196 -114.5 -310t-278.5 -214
q84 -56 138 -110.5t89 -135t35 -178.5q0 -52 -9 -110q-18 -116 -56 -210.5t-88.5 -163t-119.5 -120.5t-143.5 -84.5t-165.5 -53t-180.5 -28.5t-193.5 -8zM1334 652q8 53 8 89q0 72 -33.5 115t-117.5 71t-237 45q-118 -28 -194 -107.5t-97 -212.5q-5 -35 -5 -59
q0 -58 21.5 -97t64 -60.5t94 -30t122.5 -8.5q74 0 133 11.5t111 39.5t85 79t45 125zM830 1580q0 -46 16.5 -79.5t58 -61.5t117.5 -45t189 -23q127 35 191.5 94t83.5 179q4 24 4 51q0 53 -21 89t-62 55t-91.5 26.5t-120.5 7.5q-76 0 -131.5 -9t-105.5 -33t-80.5 -70.5
t-41.5 -116.5q-6 -34 -6 -64z" />
    <glyph glyph-name="nine.tnum" 
d="M270 1521q24 151 70.5 269t114.5 201.5t150.5 141t188 90.5t217 47t247.5 14q157 0 277 -28t200 -79t130.5 -129t72 -172t21.5 -215q0 -140 -30 -328q-32 -200 -67.5 -354.5t-85 -292t-109 -236.5t-141.5 -181.5t-180.5 -135.5t-227 -89.5t-280 -52t-341.5 -15.5
q-54 0 -301 6l24 408q84 2 133 2q15 0 45 -0.5t46 -0.5q74 0 126 1t123.5 5.5t123 12.5t114.5 23t107.5 36.5t91.5 53.5t78.5 72.5t56.5 95.5t36 121q-188 -22 -322 -22q-140 0 -247.5 14.5t-200 51t-152 96.5t-93 152.5t-33.5 217.5q0 96 17 199zM1198 1852
q-208 0 -295 -73t-117 -265q-8 -51 -8 -87q0 -131 80 -181.5t239 -50.5q145 0 294 23q16 67 32 169q18 108 18 191q0 129 -54.5 201.5t-188.5 72.5z" />
    <glyph glyph-name="dollar.tnum" 
d="M1211 648q4 21 4 45q0 39 -14 70t-35.5 52.5t-62 43t-77 35.5t-97.5 34q-108 36 -184 69t-147 79.5t-113.5 100.5t-67.5 128.5t-25 168.5q0 68 12 147q24 157 79.5 273t143 193.5t199.5 121.5t259 62l50 313h352l-48 -304q262 -13 521 -74l-112 -404q-307 54 -495 54
q-44 0 -76 -1t-77 -5t-77.5 -12t-69 -22.5t-60.5 -35.5t-43 -52t-25 -71q-4 -24 -4 -50q0 -92 78 -140q53 -33 212 -79h1h1l1 -1h1h1l1 -1h1h1h1l1 -1h1h1l1 -1h1h1h1l1 -1h1h1l1 -1h2h1l1 -1h1h1l1 -1h1h1h1l1 -1h1h1l1 -1h1h1h1l1 -1h1q273 -79 392 -200.5t119 -333.5
q0 -79 -15 -173q-49 -308 -220.5 -470.5t-464.5 -205.5l-50 -318h-353l47 302q-285 9 -555 74l116 415q128 -21 295 -37.5t286 -16.5q168 0 255.5 52t108.5 183z" />
    <glyph glyph-name="cent.tnum" 
d="M1596 689l-18 -374q-184 -48 -382 -64l-49 -307h-331l48 306q-120 16 -205 65t-131.5 126.5t-67 167.5t-20.5 204q0 137 31 333q25 155 57 271.5t84 220.5t123 174.5t173 119.5t234 69l50 315h331l-48 -301q185 -11 358 -70l-95 -363q-79 17 -111.5 23t-93 14t-110.5 8
q-65 0 -116 -5t-93 -18.5t-72.5 -31t-56 -48t-43 -64t-33 -84.5t-26 -103.5t-22.5 -126.5q-28 -177 -28 -254q0 -133 73 -190.5t266 -57.5q20 0 41.5 1t38 2.5t41.5 5t38 5.5t41.5 7t38.5 7t43.5 8.5t41.5 8.5z" />
    <glyph glyph-name="Euro.tnum" 
d="M1574 1060l-99 -269h-503q-1 -14 -1 -41q0 -162 68.5 -244.5t240.5 -82.5q200 0 405 45l-26 -416q-230 -76 -530 -76q-185 0 -312.5 38.5t-206.5 121t-114.5 203.5t-35.5 295q0 74 6 157h-231l99 269h162l24 149h-198l101 271h153q53 214 126 361.5t182 248.5
t258.5 147.5t352.5 46.5q296 0 505 -79l-104 -412q-209 44 -393 44q-177 0 -273 -90t-147 -267h647l-100 -271h-605l-12 -79q-9 -52 -11 -70h572z" />
    <glyph glyph-name="sterling.tnum" 
d="M496 953h-308l61 383h255q8 143 31 288q18 111 54.5 202.5t86.5 159t116.5 119.5t139.5 85.5t160.5 55t174.5 30t187 8.5q72 0 133 -8.5t107 -19.5t92 -36t76 -44.5t71 -59.5t64.5 -65.5t68.5 -77.5l-310 -314q-44 47 -77.5 77t-77 56.5t-93.5 39t-111 12.5
q-178 0 -255.5 -68t-102.5 -224q-16 -99 -22 -216h468l-61 -383h-435q-5 -53 -17 -130q-12 -76 -51.5 -184.5t-83.5 -194.5h325q311 0 581 44l-22 -412q-131 -34 -343.5 -55t-444.5 -21h-495q-114 0 -169 46.5t-55 122.5q0 19 3 38q7 42 32 89.5t58 96.5t67 105t63.5 134.5
t43.5 165.5q12 78 15 155z" />
    <glyph glyph-name="yen.tnum" 
d="M900 2260l221 -854l507 854h500l-598 -985h234l-49 -306h-370l-59 -97l-19 -120h414l-48 -302h-414l-71 -450h-507l71 450h-410l48 302h410l19 121l-28 96h-366l48 306h230l-283 985h520z" />
    <glyph glyph-name="period.tnum" horiz-adv-x="985" 
d="M468 -24q-140 0 -197.5 41t-57.5 143q0 43 9 100q17 110 53.5 170t102.5 86t179 26q139 0 197 -40.5t58 -142.5q0 -43 -9 -99q-26 -162 -97 -223t-238 -61z" />
    <glyph glyph-name="comma.tnum" horiz-adv-x="985" 
d="M16 -429l360 945h546l-507 -945h-399z" />
    <glyph glyph-name="colon.tnum" horiz-adv-x="985" 
d="M423 -24q-139 0 -196.5 40.5t-57.5 141.5q0 44 9 102q25 161 96.5 221.5t237.5 60.5q139 0 197 -40.5t58 -142.5q0 -43 -9 -99q-26 -162 -97 -223t-238 -61zM601 1103q-140 0 -197 40.5t-57 141.5q0 43 9 102q26 162 97 222t237 60q139 0 197 -40.5t58 -142.5
q0 -44 -9 -99q-26 -163 -96.5 -223.5t-238.5 -60.5z" />
    <glyph glyph-name="semicolon.tnum" horiz-adv-x="985" 
d="M701 1103q-140 0 -197 40.5t-57 141.5q0 43 9 102q26 162 96.5 222t237.5 60q139 0 197 -40.5t58 -142.5q0 -44 -9 -99q-26 -163 -97 -223.5t-238 -60.5zM-35 -429l360 945h546l-507 -945h-399z" />
    <glyph glyph-name="zero.onum_tnum" horiz-adv-x="1810" 
d="M826 -24q-184 0 -310.5 35t-202.5 109.5t-109 180t-33 255.5q0 155 37 393q23 146 50 259.5t66.5 218t90 180t119 137.5t155.5 100t197.5 58t247.5 20q184 0 310.5 -35.5t202 -110t108.5 -179.5t33 -255q0 -155 -37 -393q-23 -146 -50 -259.5t-66.5 -218t-90 -180
t-118.5 -137.5t-155 -100t-198 -58t-247 -20zM665 625q0 -119 49.5 -178t172.5 -59q67 0 118 16t87.5 55.5t60.5 79t44 115t31.5 133.5t27.5 162q37 235 37 325q0 120 -49 178.5t-172 58.5q-58 0 -104 -14.5t-79.5 -36t-60.5 -64.5t-44 -81t-33.5 -106.5t-25.5 -119.5
t-23 -140q-37 -233 -37 -324z" />
    <glyph glyph-name="one.onum_tnum" horiz-adv-x="1810" 
d="M723 0l221 1396q-189 -43 -431 -65l43 406q320 47 582 163h375l-301 -1900h-489z" />
    <glyph glyph-name="two.onum_tnum" horiz-adv-x="1810" 
d="M413 1854q383 68 688 68q115 0 208.5 -11.5t177 -40t140 -74.5t89 -118t32.5 -167q0 -49 -9 -106q-43 -268 -212.5 -441t-483.5 -282q-163 -57 -235.5 -112t-106.5 -139h883l-69 -431h-1432q61 174 90.5 255t79 202t86 176.5t93 132.5t119.5 120t146.5 90t190.5 87
q184 69 266 127.5t96 143.5q3 20 3 36q0 78 -85 104t-314 26q-185 0 -452 -42z" />
    <glyph glyph-name="three.onum_tnum" horiz-adv-x="1810" 
d="M1736 1364q-23 -143 -103 -258t-219 -185q116 -54 169.5 -133t53.5 -195q0 -49 -9 -108q-25 -154 -79.5 -270t-132.5 -193t-186 -125t-231 -68.5t-277 -20.5q-166 0 -311.5 19t-333.5 57l117 399q366 -49 519 -49q100 0 165.5 9.5t117.5 35t80.5 72t40.5 119.5q5 33 5 54
q0 140 -151 160q-179 24 -423 24h-36l59 375q219 4 469 42q85 13 131 61t60 137q3 21 3 39q0 45 -19 74t-58 43t-82 19t-107 5q-202 0 -571 -49l11 393q381 75 656 75q97 0 177 -7.5t160.5 -25t140.5 -50t107.5 -79.5t72 -117t24.5 -159q0 -59 -10 -120z" />
    <glyph glyph-name="four.onum_tnum" horiz-adv-x="1810" 
d="M895 -170l71 447h-606q-145 0 -207.5 49.5t-62.5 142.5q0 25 5 62q7 42 18.5 77t60 109t130.5 163l768 833q115 125 197.5 167t187.5 42q94 0 150.5 -55.5t56.5 -160.5q0 -32 -6 -68l-152 -962h236l-62 -399h-237l-71 -447h-477zM1122 1252l-510 -576h418z" />
    <glyph glyph-name="five.onum_tnum" horiz-adv-x="1810" 
d="M813 1166q68 2 103 2q95 0 172 -5.5t155 -19.5t137 -37.5t111 -61.5t85.5 -89.5t52.5 -122.5t19 -160q0 -78 -15 -172q-58 -364 -280 -528.5t-611 -164.5q-333 0 -665 79l117 398q321 -51 520 -51q110 0 176 10.5t118 43.5t78.5 91t42.5 154q4 32 4 44q0 48 -20.5 83
t-54.5 55.5t-88.5 32.5t-111 16t-133.5 4q-217 0 -460 -14l260 1147h1285l-69 -432h-860z" />
    <glyph glyph-name="six.onum_tnum" horiz-adv-x="1810" 
d="M1721 679q-26 -166 -83.5 -289.5t-136.5 -202t-189 -126.5t-229 -66.5t-270 -18.5q-145 0 -255 25.5t-184 72.5t-120 118.5t-66 158t-20 196.5q0 122 28 302q29 183 61.5 324.5t77.5 267t100 216.5t129.5 166t164.5 123.5t208 82t256.5 47.5t312.5 14q96 0 283 -5
l-22 -390q-52 -2 -134 -2t-139.5 -1t-135 -4.5t-133.5 -12.5t-120.5 -24.5t-111 -42t-89.5 -63.5t-72 -90.5t-44 -120.5q162 19 283 19q129 0 227.5 -13.5t183.5 -47t139.5 -88.5t85 -140.5t30.5 -200.5q0 -85 -16 -184zM871 389q124 0 196 28.5t109.5 91t55.5 177.5
q7 49 7 76q0 114 -70 158t-210 44q-115 0 -256 -19q-12 -48 -28 -145q-16 -105 -16 -169q0 -114 48 -178t164 -64z" />
    <glyph glyph-name="seven.onum_tnum" horiz-adv-x="1810" 
d="M1794 1524l-1014 -1695h-549l1045 1635h-920l69 436h1182q122 0 185 -49.5t63 -138.5q0 -20 -3 -42q-10 -65 -58 -146z" />
    <glyph glyph-name="eight.onum_tnum" horiz-adv-x="1810" 
d="M821 -24q-128 0 -230.5 14.5t-190 49t-146.5 89t-92 137t-33 189.5q0 63 12 137q14 89 45.5 160t82.5 127.5t107.5 99.5t138.5 90q-100 64 -152 148t-52 213q0 59 10 122q86 538 835 538q671 0 671 -435q0 -47 -9 -103q-28 -177 -102 -281.5t-244 -194.5
q113 -76 171 -163.5t58 -216.5q0 -48 -9 -103q-17 -107 -51.5 -194t-81.5 -150.5t-110 -111.5t-131.5 -78.5t-152 -49t-166 -26t-178.5 -7.5zM624 600q-4 -24 -4 -50q0 -97 68 -134t197 -37q136 0 221 49t105 172q7 49 7 76q0 93 -72 137.5t-269 66.5q-102 -26 -168.5 -96
t-84.5 -184zM780 1499q-5 -32 -5 -54q0 -40 14.5 -69t50.5 -54t103.5 -40t167.5 -20q108 32 165.5 84.5t73.5 152.5q4 21 4 44q0 88 -66.5 121t-193.5 33q-67 0 -115.5 -8t-92 -28.5t-70.5 -61t-36 -100.5z" />
    <glyph glyph-name="nine.onum_tnum" horiz-adv-x="1810" 
d="M234 1219q26 166 83.5 289.5t136 202t189 126.5t229.5 66.5t270 18.5q145 0 255 -25.5t184 -72.5t120 -118.5t66 -158t20 -196.5q0 -122 -28 -302q-29 -183 -61.5 -324.5t-77.5 -267t-100 -216.5t-129.5 -166t-164.5 -123.5t-208 -82t-256.5 -47.5t-312.5 -14
q-96 0 -283 5l22 390q49 2 120.5 2.5t125 0.5t122.5 2.5t121.5 8t113 17t106 28.5t92 44t79.5 62.5t59 85t40 110.5q-162 -19 -282 -19q-129 0 -227.5 13.5t-183.5 47t-140 88.5t-85.5 140.5t-30.5 200.5q0 87 16 184zM1281 1098q16 103 16 168q0 114 -48 178.5t-165 64.5
q-124 0 -196 -28.5t-110 -91t-56 -177.5q-7 -49 -7 -75q0 -114 70.5 -158.5t209.5 -44.5q116 0 257 19q18 73 29 145z" />
    <glyph glyph-name="dollar.onum_tnum" horiz-adv-x="1810" 
d="M1102 596q3 20 3 38q0 41 -15.5 71.5t-53 54.5t-76.5 40.5t-108 39.5q-83 28 -143.5 53t-120 57.5t-99 69.5t-71 84.5t-46.5 107t-15 131.5q0 63 12 136q45 283 198 423.5t422 174.5l46 286h340l-44 -277q240 -13 473 -69l-107 -386q-289 50 -459 50q-46 0 -78 -1.5
t-78 -6t-77.5 -16t-63.5 -29.5t-51.5 -47.5t-25.5 -69.5q-3 -20 -3 -37q0 -26 7.5 -47.5t17 -37t32.5 -31t38.5 -24.5t51 -21.5t55 -18.5t64.5 -19q16 -5 24 -7q248 -73 359 -188t111 -312q0 -73 -13 -152q-45 -282 -201 -432t-422 -191l-46 -290h-341l44 275
q-262 11 -507 69l112 397q119 -20 273.5 -35t263.5 -15q147 0 223.5 44.5t94.5 157.5z" />
    <glyph glyph-name="cent.onum_tnum" horiz-adv-x="1810" 
d="M1472 646l-18 -360q-160 -43 -349 -60l-44 -279h-321l44 279q-88 12 -154.5 44.5t-109.5 78.5t-70 109.5t-38 131t-11 149.5q0 128 29 309q22 141 51 247.5t76.5 201.5t112 160t156.5 110.5t212 65.5l46 287h321l-44 -274q163 -11 327 -65l-93 -349q-210 42 -294 42
q-77 0 -132 -8t-97 -30.5t-69 -51.5t-48 -81.5t-34 -109t-27 -145.5q-25 -161 -25 -226q0 -118 64 -168.5t234 -50.5q100 0 305 43z" />
    <glyph glyph-name="Euro.onum_tnum" horiz-adv-x="1810" 
d="M1597 1362l-99 -268h-548l-9 -61q-6 -38 -8 -52h523l-98 -266h-454q-4 -155 55.5 -234t215.5 -79q175 0 377 43l-24 -397q-216 -72 -492 -72q-170 0 -288 35.5t-191.5 111t-106 187t-32.5 271.5q0 56 5 134h-212l97 266h145q2 14 8 52q7 44 10 61h-181l99 268h138
q65 259 166 415t266.5 234.5t411.5 78.5q275 0 469 -74l-100 -394q-199 42 -365 42q-152 0 -236.5 -76.5t-130.5 -225.5h589z" />
    <glyph glyph-name="sterling.onum_tnum" horiz-adv-x="1810" 
d="M450 865h-281l59 367h231q7 121 27 252q22 142 78.5 250t133.5 175t181.5 109t213 58t238.5 16q66 0 122.5 -7.5t99.5 -18.5t85 -33.5t71 -42t65.5 -55t60 -61.5t63.5 -73l-296 -301q-82 90 -152.5 131.5t-173.5 41.5q-106 0 -170.5 -28.5t-96 -82t-46.5 -144.5
q-12 -71 -19 -186h425l-58 -367h-393q-6 -53 -15 -108q-21 -135 -118 -334h282q271 0 538 42l-23 -394q-123 -32 -319 -51.5t-408 -19.5h-448q-108 0 -160 44.5t-52 117.5q0 18 3 36q6 39 29 83t52.5 88.5t60.5 95.5t58 121.5t39 148.5q10 62 13 130z" />
    <glyph glyph-name="yen.onum_tnum" horiz-adv-x="1810" 
d="M836 2071l197 -758l450 758h477l-543 -894h206l-47 -298h-339l-49 -81l-15 -95h375l-47 -295h-375l-64 -408h-481l64 408h-371l46 295h372l15 97l-23 79h-336l48 298h202l-257 894h495z" />
    <glyph glyph-name="parenleft.case" horiz-adv-x="1106" 
d="M887 -94l-330 -248q-380 353 -380 1019q0 222 42 484q29 179 69.5 337.5t107 327t153 312t210 280.5t274.5 245l252 -245q-100 -84 -185 -205.5t-143 -248t-105.5 -275t-75.5 -273t-49 -255.5q-48 -297 -48 -536q0 -494 208 -719z" />
    <glyph glyph-name="parenright.case" horiz-adv-x="1105" 
d="M365 2418l330 245q380 -352 380 -1017q0 -222 -42 -485q-36 -225 -94 -423.5t-152 -397.5t-238 -373.5t-330 -308.5l-250 248q410 332 556 1255q44 281 44 513q0 510 -204 744z" />
    <glyph glyph-name="bracketleft.case" horiz-adv-x="1115" 
d="M952 2241l-339 -2148h308l-64 -404h-780l467 2952h782l-64 -400h-310z" />
    <glyph glyph-name="bracketright.case" horiz-adv-x="1114" 
d="M339 2241l64 400h781l-467 -2952h-778l63 404h307l340 2148h-310z" />
    <glyph glyph-name="braceleft.case" horiz-adv-x="1131" 
d="M1311 2623l-13 -362q-48 -6 -87.5 -16.5t-69.5 -28t-52.5 -35.5t-39 -46t-27.5 -50.5t-20 -59t-13.5 -61.5t-11.5 -68l-26 -163q-33 -205 -61 -293q-70 -215 -225 -277q132 -70 132 -302q0 -95 -26 -261l-25 -164q-16 -108 -16 -151q0 -91 48 -144.5t174 -68.5l-102 -363
q-104 8 -180 21t-145.5 35.5t-116 56t-81 82.5t-50.5 116t-16 154q0 97 19 217q39 242 39 360q0 121 -40 174.5t-134 62.5l57 357q60 5 102.5 27.5t75 62.5t58 113t45.5 164t42 231q18 115 45.5 204.5t63.5 157.5t87 118.5t108 85t134.5 57.5t159 36t188.5 21z" />
    <glyph glyph-name="braceright.case" horiz-adv-x="1131" 
d="M506 1733l26 163q16 98 16 152q0 91 -48 144.5t-174 68.5l102 362q125 -10 212.5 -26.5t163 -49t120 -82.5t69 -126t24.5 -180q0 -98 -19 -216q-38 -242 -38 -358q0 -123 39.5 -177t133.5 -63l-57 -357q-60 -6 -103 -28t-75.5 -62t-57.5 -112.5t-45 -163t-42 -231.5
q-21 -134 -54 -234.5t-83.5 -173t-109.5 -121t-144.5 -80t-176.5 -47.5t-217 -26l13 363q55 6 98.5 20.5t74 32t54 46.5t37.5 54t26 65t17.5 69t12.5 77l25 164q12 76 23 131t33.5 129t51 126.5t74.5 101.5t104 75q-138 61 -138 281q0 93 32 289z" />
    <glyph glyph-name="questiondown.case" horiz-adv-x="1768" 
d="M929 1633h445l-26 -223q-4 -41 -11 -80q-15 -95 -46 -162.5t-72 -103.5t-89.5 -58t-99.5 -32t-102.5 -18t-99 -23.5t-86.5 -42.5t-68 -79.5t-41 -130.5q-6 -39 -6 -71q0 -103 74.5 -145.5t257.5 -42.5q311 0 572 55l22 -427q-351 -85 -716 -85q-105 0 -186.5 5
t-164.5 19.5t-143.5 38.5t-114.5 63.5t-87.5 93.5t-53 129t-19.5 170q0 96 17 201q18 116 51.5 209t76 153.5t93 107.5t103.5 73t108.5 46.5t106.5 31t97.5 25t82 30t60.5 43.5t33 68zM1177 1796q-136 0 -195 44t-59 144q0 35 8 85q24 149 97.5 211t235.5 62
q137 0 195.5 -43t58.5 -143q0 -36 -8 -87q-24 -150 -97.5 -211.5t-235.5 -61.5z" />
    <glyph glyph-name="exclamdown.case" horiz-adv-x="983" 
d="M638 1796q-136 0 -194.5 43.5t-58.5 143.5q0 35 8 86q24 150 97 211.5t235 61.5q137 0 195 -43t58 -142q0 -37 -8 -88q-24 -150 -97 -211.5t-235 -61.5zM61 -12l333 1645h437l-187 -1645h-583z" />
    <glyph glyph-name="at.case" horiz-adv-x="2884" 
d="M631 1165q-20 -131 -20 -232q0 -170 51 -289.5t153 -189.5t240 -101.5t327 -31.5q145 0 265 18t228 57.5t192 104.5t151.5 158t114 219.5t71.5 286.5q21 129 21 236q0 61 -8 120l415 117q12 -85 12 -181q0 -144 -24 -292q-49 -313 -170 -541t-312 -370.5t-440.5 -210
t-569.5 -67.5q-567 0 -855 215.5t-288 679.5q0 138 25 294q41 258 130 456.5t219.5 336.5t309.5 227t392 129t474 40q99 0 181.5 -14t156 -46.5t124 -82.5t80 -127t29.5 -175q0 -56 -11 -128l-109 -685q-26 -169 -70 -336q-118 -74 -311 -118t-407 -44q-308 0 -449.5 106
t-141.5 321q0 65 12 140q39 246 173.5 384.5t398.5 185.5q137 25 493 45q7 41 7 76q0 85 -51.5 119.5t-174.5 34.5q-176 0 -316 -25t-262.5 -84.5t-210.5 -155.5t-151 -241t-94 -339zM1791 1195l48 300q-228 -7 -341 -38q-90 -25 -138 -52.5t-79 -81t-45 -146.5
q-6 -39 -6 -71q0 -105 67.5 -144.5t212.5 -39.5q46 0 121 15.5t116 37.5q22 88 44 220z" />
    <glyph glyph-name="guilsinglleft.case" horiz-adv-x="1134" 
d="M647 1165l328 -696h-454l-373 696l593 696h454z" />
    <glyph glyph-name="guilsinglright.case" horiz-adv-x="1133" 
d="M1121 1165l-593 -696h-454l549 696l-329 696h454z" />
    <glyph glyph-name="guillemotleft.case" horiz-adv-x="1920" 
d="M646 1165l329 -696h-454l-373 696l593 696h454zM1434 1165l328 -696h-454l-372 696l593 696h453z" />
    <glyph glyph-name="guillemotright.case" horiz-adv-x="1921" 
d="M1121 1165l-593 -696h-454l549 696l-328 696h453zM1909 1165l-593 -696h-455l550 696l-329 696h454z" />
    <glyph glyph-name="hyphen.case" horiz-adv-x="1278" 
d="M238 967l63 396h878l-63 -396h-878z" />
    <glyph glyph-name="endash.case" horiz-adv-x="1974" 
d="M238 976l60 377h1575l-60 -377h-1575z" />
    <glyph glyph-name="emdash.case" horiz-adv-x="3495" 
d="M238 976l60 377h3096l-60 -377h-3096z" />
    <glyph glyph-name="periodcentered.case" horiz-adv-x="970" 
d="M261 1066q0 43 9 100q17 110 53.5 170t102.5 86t179 26q139 0 196.5 -40.5t57.5 -142.5q0 -42 -9 -99q-26 -162 -96.5 -223t-237.5 -61q-140 0 -197.5 41t-57.5 143z" />
    </font>
</defs>
</svg>
