<?xml version="1.0" standalone="no"?>
<!DOCTYPE svg PUBLIC "-//W3C//DTD SVG 1.1//EN" "http://www.w3.org/Graphics/SVG/1.1/DTD/svg11.dtd" >
<svg xmlns="http://www.w3.org/2000/svg" xmlns:xlink="http://www.w3.org/1999/xlink" version="1.1">
<metadata>
Created by FontForge 20170731 at Wed Feb 22 19:30:30 2012
 By Aleksey,,,
Copyright (c) 2011-2012 Durotype, www.durotype.com. All rights reserved.
</metadata>
<defs>
<font id="Flexo-LightIt" horiz-adv-x="1970" >
  <font-face 
    font-family="Flexo Light"
    font-weight="300"
    font-style="italic"
    font-stretch="normal"
    units-per-em="3333"
    panose-1="0 0 0 0 0 0 0 0 0 0"
    ascent="2633"
    descent="-700"
    x-height="1781"
    cap-height="2330"
    bbox="-606 -865 3910 3174"
    underline-thickness="167"
    underline-position="-894"
    slope="-9"
    unicode-range="U+0020-FB04"
  />
<missing-glyph horiz-adv-x="2187" 
d="M262 0v2400h1663v-2400h-1663zM994 1200l-565 874v-1748zM1659 171l-565 875l-566 -875h1131zM1659 2228h-1131l566 -874zM1759 2074l-565 -874l565 -874v1748z" />
    <glyph glyph-name="f_f" unicode="ff" horiz-adv-x="2095" 
d="M276 1781h317l32 200q41 252 184 382t384 130q57 0 114 -10l-38 -145h-65q-166 0 -266.5 -81.5t-129.5 -265.5l-33 -210h838l32 200q40 252 183.5 382t385.5 130q56 0 114 -10l-38 -145h-65q-166 0 -266.5 -81.5t-129.5 -265.5l-33 -210h402l-24 -155h-403l-257 -1626
h-183l258 1626h-838l-258 -1626h-182l258 1626h-318z" />
    <glyph glyph-name="fi" unicode="fi" horiz-adv-x="1827" 
d="M1480 0h-183l257 1626h-804l-258 -1626h-182l258 1626h-317l24 155h317l32 200q41 252 184 382t384 130q57 0 115 -10l-38 -145h-65q-167 0 -267.5 -81.5t-129.5 -265.5l-33 -210h988zM1874 2404q0 -29 -6 -68q-14 -87 -41.5 -120t-92.5 -33q-50 0 -71 19t-21 65
q0 22 7 69q14 87 42.5 122t91.5 35q49 0 70 -20.5t21 -68.5z" />
    <glyph glyph-name="fl" unicode="fl" horiz-adv-x="1845" 
d="M591 1781l32 200q41 252 184.5 382t384.5 130q313 0 671 -24l-315 -1991q-14 -90 -14 -161q0 -177 84 -310l-166 -86q-106 151 -106 359q0 75 16 181l297 1877h-456q-166 0 -266.5 -81.5t-129.5 -265.5l-33 -210h402l-24 -155h-402l-258 -1626h-183l258 1626h-316l24 155
h316z" />
    <glyph glyph-name="f_f_i" unicode="ffi" horiz-adv-x="2849" 
d="M592 1781l32 200q41 252 184.5 382t384.5 130q56 0 114 -10l-38 -145h-65q-166 0 -266.5 -81.5t-129.5 -265.5l-33 -210h838l32 200q41 252 184 382t384 130q57 0 114 -10l-37 -145h-65q-167 0 -267.5 -81.5t-129.5 -265.5l-33 -210h988l-282 -1781h-183l258 1626h-805
l-258 -1626h-182l258 1626h-838l-258 -1626h-183l258 1626h-317l24 155h317zM2755 2183q-50 0 -71 19t-21 65q0 22 7 69q14 87 43 122t92 35q49 0 70 -21t21 -69q0 -28 -6 -67q-14 -87 -42 -120t-93 -33z" />
    <glyph glyph-name="f_f_l" unicode="ffl" horiz-adv-x="2867" 
d="M1829 1991l-33 -210h402l-24 -155h-403l-257 -1626h-183l258 1626h-838l-258 -1626h-182l258 1626h-318l25 155h317l32 200q40 252 183.5 382t384.5 130q57 0 115 -10l-39 -145h-65q-166 0 -266.5 -81.5t-129.5 -265.5l-33 -210h838l32 200q41 252 184.5 382t384.5 130
q313 0 671 -24l-315 -1991q-13 -82 -13 -159q0 -181 83 -312l-165 -86q-107 150 -107 359q0 75 16 181l297 1877h-456q-166 0 -266.5 -81.5t-129.5 -265.5z" />
    <glyph glyph-name="f_b" unicode="fb" horiz-adv-x="3007" 
d="M593 1781l32 200q41 252 184 382t384 130q314 0 671 -24l-117 -738q291 74 536 74q318 0 462 -131.5t144 -439.5q0 -151 -31 -343q-41 -260 -112.5 -435t-185 -282t-263.5 -152.5t-360 -45.5q-379 0 -622 138q20 172 40 295l306 1929h-456q-167 0 -267.5 -81.5
t-129.5 -265.5l-33 -210h403l-25 -155h-402l-258 -1626h-182l258 1626h-318l25 155h317zM1963 139q327 0 486.5 171.5t223.5 580.5q31 191 31 318q0 236 -116.5 334t-403.5 98q-108 0 -236.5 -22t-226.5 -55l-165 -1039q-22 -138 -42 -296q90 -44 211.5 -67t237.5 -23z" />
    <glyph glyph-name="f_f_b" unicode="ffb" horiz-adv-x="4027" 
d="M1771 1626l-258 -1626h-182l258 1626h-839l-258 -1626h-182l258 1626h-317l24 155h317l32 200q41 252 184 382t384 130q57 0 115 -10l-38 -145h-65q-167 0 -267.5 -81.5t-129.5 -265.5l-33 -210h839l32 200q41 252 184 382t384 130q313 0 671 -24l-117 -738
q291 74 536 74q318 0 462 -131.5t144 -440.5q0 -141 -31 -342q-41 -260 -112.5 -435t-185 -282t-263.5 -152.5t-360 -45.5q-379 0 -621 138q17 157 39 295l306 1929h-457q-166 0 -266.5 -81.5t-129.5 -265.5l-33 -210h403l-24 -155h-403zM2535 229q90 -44 211.5 -67
t236.5 -23q328 0 487.5 172t223.5 580q31 191 31 318q0 236 -116.5 334t-403.5 98q-108 0 -237 -22.5t-227 -54.5l-165 -1039q-25 -154 -41 -296z" />
    <glyph glyph-name="f_f_h" unicode="ffh" horiz-adv-x="4035" 
d="M775 1781h838l32 200q40 252 183.5 382t385.5 130q313 0 671 -24l-118 -741q286 74 551 77q173 1 290.5 -26t182.5 -83t92 -128.5t27 -173.5q0 -87 -20 -215l-186 -1179h-183l178 1127q19 119 19 199q0 113 -42 179t-148.5 100t-294.5 34q-243 0 -492 -81l-247 -1558
h-182l369 2338h-456q-166 0 -266.5 -81.5t-129.5 -265.5l-33 -210h402l-24 -155h-402l-258 -1626h-183l258 1626h-838l-258 -1626h-182l258 1626h-318l25 155h317l32 200q41 252 184 382t384 130q57 0 114 -10l-38 -145h-65q-166 0 -266.5 -81.5t-129.5 -265.5z" />
    <glyph glyph-name="f_f_j" unicode="ffj" horiz-adv-x="2900" 
d="M1513 0h-182l258 1626h-839l-258 -1626h-182l258 1626h-317l24 155h317l32 200q41 252 184 382t384 130q57 0 115 -10l-38 -145h-65q-167 0 -267.5 -81.5t-129.5 -265.5l-33 -210h839l32 200q41 252 184 382t384 130q57 0 114 -10l-38 -145h-65q-166 0 -266.5 -81.5
t-129.5 -265.5l-33 -210h1062l-287 -1808q-55 -348 -208 -500.5t-426 -152.5q-31 0 -45 2l39 146q68 4 118.5 15t107.5 40.5t97 77t74 129.5t52 194l270 1702h-878zM2829 2183q-50 0 -71 19t-21 64q0 23 7 70q14 87 42.5 122t91.5 35q49 0 70.5 -20.5t21.5 -67.5
q0 -22 -7 -69q-14 -87 -41.5 -120t-92.5 -33z" />
    <glyph glyph-name="f_f_k" unicode="ffk" horiz-adv-x="3750" 
d="M2643 949l933 832h232l-998 -886l770 -895h-252l-704 826l-131 -826h-182l370 2338h-457q-166 0 -266.5 -81.5t-129.5 -265.5l-33 -210h403l-24 -155h-403l-258 -1626h-182l258 1626h-839l-258 -1626h-182l258 1626h-317l24 155h317l32 200q41 252 184 382t384 130
q57 0 115 -10l-38 -145h-65q-167 0 -267.5 -81.5t-129.5 -265.5l-33 -210h839l32 200q41 252 184 382t384 130q314 0 671 -24z" />
    <glyph glyph-name="f_h" unicode="fh" horiz-adv-x="3013" 
d="M251 1626l24 155h316l32 200q40 252 183.5 382t385.5 130q313 0 671 -24l-118 -741q288 74 552 77q172 1 289.5 -26t182.5 -83t92 -128.5t27 -173.5q0 -87 -20 -215l-186 -1179h-183l179 1127q19 119 19 198q0 113 -42 179.5t-149 100.5t-295 34q-242 0 -493 -81
l-246 -1558h-183l370 2338h-456q-166 0 -266.5 -81.5t-129.5 -265.5l-33 -210h402l-24 -155h-402l-258 -1626h-183l258 1626h-316z" />
    <glyph glyph-name="f_j" unicode="fj" horiz-adv-x="1879" 
d="M807 1991l-33 -210h1062l-287 -1808q-55 -348 -208 -500.5t-426 -152.5q-31 0 -45 2l39 146q68 4 118.5 15t107.5 40.5t97.5 77t74.5 129.5t52 194l270 1702h-879l-258 -1626h-182l258 1626h-317l24 155h317l32 200q41 252 184 382t384 130q57 0 114 -10l-37 -145h-65
q-167 0 -267.5 -81.5t-129.5 -265.5zM1716 2267q0 22 7 69q14 87 42.5 122t91.5 35q49 0 70.5 -21t21.5 -69q0 -28 -6 -67q-14 -87 -42 -120t-93 -33q-50 0 -71 19t-21 65z" />
    <glyph glyph-name="f_k" unicode="fk" horiz-adv-x="2729" 
d="M275 1781h317l32 200q41 252 184 382t384 130q314 0 672 -24l-242 -1520l933 832h232l-998 -886l771 -895h-253l-703 826l-131 -826h-183l370 2338h-456q-167 0 -267.5 -81.5t-129.5 -265.5l-33 -210h403l-24 -155h-403l-258 -1626h-182l258 1626h-317z" />
    <glyph glyph-name=".notdef" horiz-adv-x="2187" 
d="M262 0v2400h1663v-2400h-1663zM994 1200l-565 874v-1748zM1659 171l-565 875l-566 -875h1131zM1659 2228h-1131l566 -874zM1759 2074l-565 -874l565 -874v1748z" />
    <glyph glyph-name=".null" horiz-adv-x="0" 
 />
    <glyph glyph-name="nonmarkingreturn" horiz-adv-x="1111" 
 />
    <glyph glyph-name="space" unicode=" " horiz-adv-x="1000" 
 />
    <glyph glyph-name="exclam" unicode="!" horiz-adv-x="728" 
d="M268 -24q-50 0 -71 19t-21 64q0 23 7 70q14 87 42.5 122t91.5 35q49 0 70 -20.5t21 -68.5q0 -29 -6 -68q-14 -87 -41.5 -120t-92.5 -33zM298 679l229 1651h227l-293 -1651h-163z" />
    <glyph glyph-name="quotedbl" unicode="&#x22;" horiz-adv-x="1064" 
d="M336 1572l117 897h204l-167 -897h-154zM753 1572l117 897h203l-166 -897h-154z" />
    <glyph glyph-name="numbersign" unicode="#" horiz-adv-x="1829" 
d="M396 1621h360q8 26 91.5 311.5t114.5 397.5h162l-207 -709h470q21 73 99 338t108 371h162l-207 -709h296l-25 -158h-318l-170 -593h304l-25 -157h-327l-208 -713h-162l209 713h-471l-207 -713h-162l208 713h-324l25 157h346l171 593h-338zM1170 870l171 593h-471
l-171 -593h471z" />
    <glyph glyph-name="dollar" unicode="$" horiz-adv-x="1617" 
d="M1285 590q7 45 7 89q0 66 -20.5 119t-55 91t-95.5 72.5t-124.5 59.5t-160.5 56q-79 25 -134 45t-115.5 47t-100.5 53.5t-78 62.5t-60 76.5t-35 92.5t-13 114q0 54 11 126q23 148 79 255.5t146 176t205 105.5t267 48l50 316h154l-49 -311q260 -1 519 -46l-42 -157
q-234 36 -423 36q-85 0 -155 -4t-140.5 -15t-126 -29.5t-106 -47.5t-86.5 -68t-61.5 -93.5t-36.5 -121.5q-12 -72 -12 -127q0 -51 10 -90t35.5 -72.5t58 -58.5t90.5 -51t118.5 -47.5t155.5 -50.5q96 -30 169 -60.5t143 -75.5t115.5 -98.5t73 -128t27.5 -164.5q0 -52 -9 -112
q-46 -295 -221 -442t-481 -176l-50 -319h-155l49 311h-17q-173 0 -292 11t-246 38l46 160q245 -41 509 -41q110 0 196.5 11t168.5 41t139.5 79t99.5 128.5t59 186.5z" />
    <glyph glyph-name="percent" unicode="%" horiz-adv-x="2645" 
d="M702 974q-214 0 -302 92t-88 290q0 117 29 302q23 146 50.5 248.5t71.5 189.5t104.5 138.5t148 79.5t203.5 28q215 0 303.5 -93t88.5 -294q0 -121 -28 -297q-23 -146 -51 -248.5t-72.5 -189.5t-105.5 -138.5t-148.5 -79.5t-203.5 -28zM480 1658q-32 -209 -32 -294
q0 -134 59.5 -201t209.5 -67q67 0 121 14.5t93 38t70.5 65t52 83t38.5 106t28.5 119t23.5 136.5q32 207 32 292q0 134 -60 202t-211 68q-52 0 -96.5 -9t-79.5 -23.5t-64 -40t-50.5 -52t-40 -67t-31 -76.5t-25 -89.5t-20.5 -97t-18 -107.5zM2503 972q0 -115 -29 -299
q-23 -146 -51 -249t-72.5 -190t-105.5 -138.5t-148 -79.5t-204 -28q-213 0 -301 92t-88 290q0 116 29 303q23 146 50.5 248t71.5 189t105 138.5t148 79.5t203 28q215 0 303.5 -92.5t88.5 -291.5zM1639 377q0 -133 59.5 -200t209.5 -67q59 0 107 10t86 32t67 48t52 67.5
t39.5 80.5t30.5 97.5t23.5 107t20.5 120.5q32 197 32 293q0 134 -60 201.5t-210 67.5q-67 0 -120.5 -14.5t-93 -38t-70.5 -65.5t-51 -82.5t-37.5 -105.5t-28 -119.5t-23.5 -136.5q-33 -205 -33 -296zM459 -48l1725 2426h168l-1726 -2426h-167z" />
    <glyph glyph-name="ampersand" unicode="&#x26;" horiz-adv-x="2151" 
d="M1064 1237l497 -729q197 239 281 590l175 -9q-118 -454 -355 -727l249 -362h-236l-153 226q-294 -250 -734 -250q-320 0 -476.5 121t-156.5 367q0 74 13 153q16 100 59 187.5t100 152.5t139.5 126.5t160.5 105t180 90.5q-42 62 -67.5 104.5t-58 108.5t-48.5 133t-16 135
q0 40 6 82q22 138 81 239t146 159.5t190 86t225 27.5q97 0 179 -21t148.5 -65t104 -119.5t37.5 -176.5q0 -51 -8 -98q-12 -72 -39 -137t-61.5 -116t-86.5 -100t-101 -84.5t-118 -74t-124 -65t-132 -60.5zM980 1359q71 33 113.5 53.5t106 54t102 60t84.5 64t73.5 73t49.5 81
t30 94.5q8 54 8 93q0 141 -82.5 201.5t-235.5 60.5q-79 0 -147 -20t-126 -61.5t-98.5 -113.5t-55.5 -169q-5 -33 -5 -60q0 -30 5.5 -62t12 -56.5t22 -58t23.5 -51t30.5 -52.5t29 -45t32.5 -46t28 -40zM1428 366l-538 790q-73 -36 -127 -66.5t-115 -70.5t-105 -83t-83.5 -96
t-65 -117t-37.5 -138q-7 -43 -7 -88q0 -83 29.5 -147t77 -104t115 -65t136 -35t147.5 -10q318 0 573 230z" />
    <glyph glyph-name="quotesingle" unicode="'" horiz-adv-x="648" 
d="M336 1572l117 897h204l-167 -897h-154z" />
    <glyph glyph-name="parenleft" unicode="(" horiz-adv-x="955" 
d="M660 -478l-129 -97q-303 357 -303 974q0 242 45 528q28 176 66.5 334.5t99.5 324t139.5 309.5t187.5 283t241 252l98 -97q-116 -101 -215 -239.5t-166 -279t-121.5 -303.5t-86 -301t-54.5 -283q-45 -280 -45 -535q0 -578 243 -870z" />
    <glyph glyph-name="parenright" unicode=")" horiz-adv-x="957" 
d="M443 2333l129 97q303 -357 303 -976q0 -241 -45 -527q-28 -176 -66.5 -334t-99.5 -324t-139.5 -310t-187.5 -282.5t-241 -251.5l-99 97q117 101 215.5 239.5t166 279t122 303.5t86 300.5t54.5 282.5q45 282 45 535q0 579 -243 871z" />
    <glyph glyph-name="asterisk" unicode="*" horiz-adv-x="1546" 
d="M1073 1170l-185 441l-320 -443l-116 75l330 451h-515l22 144h512l-183 449l141 75l178 -444l326 444l111 -75l-326 -449h511l-22 -144h-513l184 -453z" />
    <glyph glyph-name="plus" unicode="+" horiz-adv-x="1910" 
d="M955 1069l112 712h182l-112 -712h697l-28 -177h-697l-114 -716h-182l114 716h-695l28 177h695z" />
    <glyph glyph-name="comma" unicode="," horiz-adv-x="699" 
d="M25 -437l357 836h223l-419 -836h-161z" />
    <glyph glyph-name="hyphen" unicode="-" horiz-adv-x="1319" 
d="M298 801l27 169h835l-27 -169h-835z" />
    <glyph glyph-name="period" unicode="." horiz-adv-x="674" 
d="M462 196q0 -28 -6 -67q-13 -87 -41 -120t-94 -33q-50 0 -70 19t-20 65q0 28 6 69q14 87 42.5 122t91.5 35q49 0 70 -21t21 -69z" />
    <glyph glyph-name="slash" unicode="/" horiz-adv-x="1327" 
d="M-30 -268l1350 2680h182l-1352 -2680h-180z" />
    <glyph glyph-name="zero" unicode="0" horiz-adv-x="2040" 
d="M925 -24q-181 0 -306 39t-200.5 121t-108.5 198.5t-33 282.5q0 197 50 513q24 152 50 272.5t61 234t77 199.5t96.5 161t121.5 126.5t150.5 88.5t184.5 54.5t223 17.5q182 0 307 -39.5t201 -122t109.5 -200t33.5 -283.5q0 -202 -49 -509q-28 -174 -58.5 -308.5t-73 -258
t-96 -213t-125 -163.5t-161 -118.5t-202.5 -68.5t-252 -24zM1705 1130q56 349 56 511q0 92 -14 163t-47.5 131.5t-88.5 99.5t-139.5 60.5t-197.5 21.5q-120 0 -216.5 -25.5t-166.5 -66t-126 -114.5t-91.5 -145.5t-67 -186t-50 -209t-41.5 -240.5q-57 -359 -57 -516
q0 -115 22.5 -197.5t76.5 -146.5t149.5 -95.5t235.5 -31.5q120 0 216.5 25.5t167 66.5t126.5 114.5t92.5 146t68 185.5t50.5 209t42 240z" />
    <glyph glyph-name="one" unicode="1" horiz-adv-x="1115" 
d="M551 0l324 2044q-311 -89 -588 -132l16 166q166 26 340 77t302 105h150l-358 -2260h-186z" />
    <glyph glyph-name="two" unicode="2" horiz-adv-x="1718" 
d="M426 2222q356 62 656 62q668 0 668 -429q0 -53 -8 -101q-25 -154 -88 -279t-165 -221t-226 -169t-288 -138q-129 -51 -226.5 -110.5t-166.5 -124.5t-122 -151.5t-89.5 -175t-73.5 -212.5h1194l-27 -173h-1421q43 132 76 223t72.5 187.5t75.5 161.5t83.5 133.5t98.5 117
t117 97.5t142.5 88.5t172.5 78.5q133 54 237.5 111.5t199 133t153.5 170.5t76 206q8 53 8 92q0 171 -137 241.5t-449 70.5q-259 0 -549 -48z" />
    <glyph glyph-name="three" unicode="3" horiz-adv-x="1735" 
d="M1679 1760q-69 -435 -448 -569v-2q60 -16 115 -50.5t102 -87.5t75 -130.5t28 -168.5q0 -54 -8 -101q-24 -153 -80 -269t-136.5 -193t-192.5 -125t-239 -68t-285 -20q-315 0 -590 57l49 163q16 -2 78.5 -10.5t87 -11.5t79.5 -9.5t89.5 -9t81.5 -5t88 -2.5q145 0 255 14.5
t201.5 48t154 89t103.5 138.5t59 196q7 43 7 88q0 157 -95.5 250t-260.5 110q-137 14 -343 14q-17 0 -49.5 -0.5t-48.5 -0.5l25 154q226 5 448 37q185 27 304.5 141t145.5 277q9 57 9 104q0 59 -14.5 105.5t-39 78.5t-66 54.5t-84.5 35.5t-106.5 20.5t-120.5 9.5t-138 2
q-213 0 -533 -47l5 160q167 30 297 43.5t305 13.5q119 0 214 -9.5t188 -37t155 -73t100 -121t38 -177.5q0 -49 -9 -106z" />
    <glyph glyph-name="four" unicode="4" horiz-adv-x="1935" 
d="M1194 0l88 556h-1001q-157 0 -157 109q0 15 3 31q12 77 144 221l1130 1230q125 137 229 137q43 0 68 -25.5t25 -78.5q0 -18 -3 -41l-225 -1421h312l-25 -162h-312l-89 -556h-187zM1517 2039l-1208 -1321h999z" />
    <glyph glyph-name="five" unicode="5" horiz-adv-x="1759" 
d="M518 1336q167 10 268 10q112 0 199 -5t177 -18.5t155.5 -36.5t124.5 -60.5t96 -89.5t58.5 -124.5t21.5 -163.5q0 -71 -14 -164q-60 -376 -285 -542t-624 -166q-329 0 -619 59l47 163q262 -47 517 -47q152 0 262.5 16t201 53t151 101.5t100.5 158.5t61 226q9 55 9 103
q0 79 -23 139t-70.5 100t-107.5 66.5t-148 40t-177 19t-208 5.5q-204 0 -390 -11l246 1092h1244l-28 -172h-1075z" />
    <glyph glyph-name="six" unicode="6" horiz-adv-x="1968" 
d="M1817 687q-26 -168 -84.5 -293t-138.5 -204.5t-192.5 -127.5t-234.5 -67t-278 -19q-181 0 -307 39.5t-199.5 118t-106 184t-32.5 249.5q0 142 30 331q32 205 68.5 363t87 298.5t111.5 242t144 185t183 137.5t230.5 91.5t284 53t346.5 15.5q44 0 157 -2l-8 -163l-108 -3
q-120 -3 -181 -5.5t-171.5 -12.5t-172 -24.5t-154.5 -43t-149 -67.5t-126.5 -98.5t-115 -135.5t-86 -179t-66.5 -228q390 50 617 50q130 0 228.5 -13.5t184 -47t140.5 -89t85.5 -142t30.5 -202.5q0 -83 -17 -191zM907 144q239 0 386.5 56t226 173.5t110.5 318.5
q13 81 13 150q0 90 -25 154.5t-69 105.5t-117.5 64.5t-157.5 32t-202 8.5q-164 0 -564 -53q-27 -119 -55 -304q-23 -141 -23 -251q0 -80 13 -145t46 -124t86 -99t137 -63.5t195 -23.5z" />
    <glyph glyph-name="seven" unicode="7" horiz-adv-x="1635" 
d="M1754 2059l-1258 -2059h-209l1296 2091h-1267l27 169h1305q81 0 116.5 -28.5t26.5 -80.5q-6 -42 -37 -92z" />
    <glyph glyph-name="eight" unicode="8" horiz-adv-x="1982" 
d="M895 -24q-126 0 -228 14.5t-191 50t-149.5 90.5t-94.5 139t-34 194q0 69 11 136q19 122 64 218.5t111 164.5t141.5 113.5t168.5 78.5q-148 70 -214 172t-66 249q0 66 12 143q42 269 256 407t579 138q325 0 499.5 -114t174.5 -334q0 -43 -8 -97q-33 -210 -134.5 -343.5
t-318.5 -220.5q319 -125 319 -451q0 -56 -11 -128q-24 -148 -83.5 -259t-140 -179t-191.5 -109.5t-223 -57t-249 -15.5zM387 506q0 -85 28 -149.5t75 -104.5t117 -65t145.5 -34.5t169.5 -9.5q108 0 193.5 11t170 41.5t145 81.5t105.5 135t63 197q8 53 8 93q0 79 -26 140
t-73.5 103.5t-120 72t-157.5 45.5t-194 23q-106 -12 -189 -31t-163 -54.5t-135.5 -86.5t-96 -128t-56.5 -177q-9 -55 -9 -103zM597 1620q0 -331 536 -370q95 14 171 33t153.5 53.5t132 81.5t95 118t54.5 161q7 45 7 89q0 79 -27.5 138.5t-73 96.5t-113 59.5t-138.5 31
t-159 8.5q-97 0 -176.5 -10t-159.5 -38.5t-137.5 -74.5t-100 -122t-58.5 -178q-6 -41 -6 -77z" />
    <glyph glyph-name="nine" unicode="9" horiz-adv-x="1962" 
d="M316 1573q27 168 85 293t138 204.5t192 127.5t234 67t278 19q181 0 307.5 -39.5t200 -118t106 -184.5t32.5 -250q0 -141 -30 -330q-32 -205 -68.5 -363t-87 -298.5t-111.5 -242t-144 -185t-183 -137.5t-230.5 -91.5t-284 -53t-346.5 -15.5q-44 0 -158 2l9 163q36 1 107 3
q121 3 182 5.5t171.5 12.5t171.5 24.5t154.5 43t149.5 67.5t126 98.5t114.5 135.5t86 179t67.5 228q-392 -50 -617 -50q-130 0 -228.5 13.5t-184 47t-140.5 89t-85.5 142t-30.5 202.5q0 83 17 191zM1225 2116q-239 0 -386 -56t-225.5 -173.5t-110.5 -318.5q-13 -81 -13 -151
q0 -90 24.5 -154.5t68.5 -105t117.5 -64t157.5 -32t202 -8.5q165 0 565 53q20 87 55 304q23 140 23 250q0 80 -13 145t-46 124.5t-86 99.5t-137.5 63.5t-195.5 23.5z" />
    <glyph glyph-name="colon" unicode=":" horiz-adv-x="730" 
d="M439 197q0 -29 -6 -68q-14 -87 -41.5 -120t-92.5 -33q-50 0 -71 19t-21 65q0 22 7 69q14 87 42.5 122t91.5 35q49 0 70 -20.5t21 -68.5zM503 1258q-50 0 -71 19t-21 64q0 23 7 70q14 87 42.5 122t90.5 35q49 0 70.5 -21t21.5 -69q0 -28 -6 -67q-14 -87 -41.5 -120
t-92.5 -33z" />
    <glyph glyph-name="semicolon" unicode=";" horiz-adv-x="796" 
d="M623 1258q-51 0 -71.5 19.5t-20.5 66.5q0 28 6 67q14 87 43 122t92 35q49 0 70 -21t21 -69q0 -28 -6 -67q-13 -86 -41 -119.5t-93 -33.5zM16 -437l357 836h222l-419 -836h-160z" />
    <glyph glyph-name="less" unicode="&#x3c;" horiz-adv-x="1929" 
d="M220 889l28 179l1650 756l-31 -196l-1431 -648l1225 -651l-31 -196z" />
    <glyph glyph-name="equal" unicode="=" horiz-adv-x="2097" 
d="M272 555l28 175h1573l-28 -175h-1573zM379 1227l28 176h1573l-28 -176h-1573z" />
    <glyph glyph-name="greater" unicode="&#x3e;" horiz-adv-x="1929" 
d="M217 329l1429 651l-1224 648l31 196l1409 -756l-27 -179l-1650 -756z" />
    <glyph glyph-name="question" unicode="?" horiz-adv-x="1617" 
d="M709 679h-163l41 281q11 78 45 132t81.5 83t107 47t124 30.5t129.5 27t126 42.5t111.5 71t88.5 118t54 178q15 91 15 163q0 79 -20.5 134.5t-63 94t-116.5 60.5t-171.5 31.5t-238.5 9.5q-217 0 -487 -47l-7 162q290 57 585 57q98 0 174.5 -4.5t153.5 -17.5t134 -34.5
t107 -57.5t81.5 -84.5t49.5 -116.5t18 -154q0 -73 -16 -179q-21 -134 -63 -233.5t-96 -158t-118 -97.5t-131 -58.5t-133.5 -33.5t-127 -29t-110 -39.5t-84 -72t-47.5 -118.5zM516 -24q-50 0 -71 19t-21 65q0 22 7 69q14 87 42.5 122t91.5 35q50 0 71.5 -21t21.5 -69
q0 -22 -7 -67q-14 -87 -42 -120t-93 -33z" />
    <glyph glyph-name="at" unicode="@" horiz-adv-x="3050" 
d="M1409 -298q-577 0 -869 216t-292 681q0 138 25 292q41 258 131 456.5t222.5 336.5t314.5 227t398 129t482 40q113 0 202.5 -20.5t161.5 -66t111 -125.5t39 -191q0 -57 -10 -117l-118 -751q-24 -150 -55 -296q-304 -136 -653 -136q-284 0 -416.5 95.5t-132.5 294.5
q0 55 11 124q33 210 163 343.5t340 176.5q183 37 664 52q16 102 16 167q0 158 -83.5 221.5t-281.5 63.5q-224 0 -404 -31.5t-337.5 -104.5t-271 -190t-193 -292t-116.5 -406q-22 -139 -22 -261q0 -168 44.5 -297t126.5 -217t206.5 -144t277 -80.5t345.5 -24.5
q221 0 399.5 32.5t333 106.5t267 191.5t191 291.5t114.5 402q30 198 29 333l186 53q3 -170 -31 -386q-50 -313 -172.5 -541t-316 -370.5t-447.5 -210t-579 -67.5zM2043 923l61 385q-447 -8 -603 -46q-310 -73 -356 -365q-8 -53 -8 -91q0 -148 98 -207.5t301 -59.5
q213 0 455 88q34 177 52 296z" />
    <glyph glyph-name="A" unicode="A" horiz-adv-x="2138" 
d="M203 0h-197l1183 2221q36 68 75 100.5t88 32.5q50 0 79.5 -32.5t43.5 -100.5l469 -2221h-204l-144 690h-1030zM653 854h909l-257 1237z" />
    <glyph glyph-name="B" unicode="B" horiz-adv-x="2094" 
d="M2033 1782q-74 -465 -430 -590q68 -24 119 -57.5t91.5 -85t61.5 -127t21 -172.5q0 -85 -16 -185q-16 -104 -53.5 -188.5t-88.5 -145t-121.5 -106t-146.5 -73.5t-170.5 -45.5t-186 -24t-200.5 -6.5q-392 0 -719 55l360 2274q325 49 692 49q93 0 170.5 -4.5t161.5 -17.5
t150 -34t126.5 -56.5t100.5 -82.5t64 -114t24 -150q0 -56 -10 -113zM1065 1112h-509l-148 -936q277 -32 515 -32q98 0 172.5 4.5t152.5 17t135.5 34.5t112 58t92 86t66 120.5t42.5 159.5q10 68 10 112q0 78 -21 138.5t-64 101t-97 68t-130 42t-153 20.5t-176 6zM582 1271
h508q132 0 230 10.5t190.5 40.5t155 81.5t107.5 135t63 199.5q8 48 8 99q0 75 -21 132t-63.5 94.5t-95 62.5t-128 37.5t-148.5 17.5t-169 5q-224 0 -498 -33z" />
    <glyph glyph-name="C" unicode="C" horiz-adv-x="1692" 
d="M1540 25q-259 -49 -507 -49q-282 0 -450.5 76.5t-241.5 228.5t-73 400q0 198 45 484q25 160 54.5 289t69 245.5t88 205.5t111.5 164.5t140 127t172.5 87.5t210 53t251.5 17q264 0 492 -46l-45 -162q-236 37 -373 37q-110 0 -203 -9.5t-170.5 -31t-141 -50t-116 -72
t-93 -90t-74.5 -113t-59 -131.5t-47 -153.5t-38 -172.5t-34 -195q-47 -299 -47 -461q0 -117 21 -203.5t69.5 -155.5t129 -111.5t200 -64.5t281.5 -22q130 0 384 36z" />
    <glyph glyph-name="D" unicode="D" horiz-adv-x="2191" 
d="M556 2305q323 49 687 49q240 0 404 -43t260.5 -134t138 -218.5t41.5 -309.5q0 -195 -46 -484q-22 -139 -46 -250t-56.5 -219t-72 -191.5t-91.5 -161t-115.5 -133t-144 -101.5t-177.5 -74.5t-215 -43.5t-257 -15q-344 0 -671 52zM722 2152l-312 -1972q242 -34 415 -34
q479 0 705 193q155 131 231 390q39 132 87 436q52 325 52 465q0 106 -19.5 186.5t-70.5 152t-135 117.5t-216 72t-311 26q-161 0 -426 -32z" />
    <glyph glyph-name="E" unicode="E" horiz-adv-x="1733" 
d="M1831 2323l-24 -157h-555q-120 0 -202 -7.5t-148 -29.5t-106.5 -53.5t-72 -89t-49.5 -126.5t-35 -174l-67 -416h1044l-26 -165h-1044l-73 -464q-21 -132 -21 -207q0 -67 15.5 -112.5t48 -77t91.5 -49t136 -24.5t192 -7h555l-26 -160q-235 -10 -547 -10q-68 0 -114.5 1
t-108 5t-104.5 11.5t-93 21t-84 33t-67.5 48t-53.5 65t-32 85.5t-12 108q0 58 10 121l212 1341q16 100 50.5 178.5t77 131t108 89.5t124 57t145 30.5t151.5 13t162 2.5q228 0 543 -13z" />
    <glyph glyph-name="F" unicode="F" horiz-adv-x="1701" 
d="M377 0h-191l290 1834q16 100 50.5 178.5t77 131t108 89.5t124 57t145.5 30.5t152 13t162 2.5q315 0 543 -13l-25 -157h-555q-120 0 -202 -7.5t-148.5 -29.5t-107 -53.5t-72 -89t-50 -126.5t-34.5 -174l-65 -416h1044l-26 -165h-1045z" />
    <glyph glyph-name="G" unicode="G" horiz-adv-x="2073" 
d="M1317 1036l26 164h615l-135 -856q-9 -57 -28 -103.5t-44.5 -82t-63.5 -63t-76 -47t-92.5 -33t-103 -21t-117 -12t-125.5 -5.5t-136 -1q-211 0 -357 41.5t-236.5 130t-130.5 219t-40 316.5q0 198 45 482q29 186 64 330t83.5 271t110 219t142.5 164t183.5 116t229 66.5
t283.5 22.5q365 0 646 -49l-44 -164q-288 40 -528 40q-110 0 -203 -9.5t-170.5 -31t-141 -49t-115.5 -71t-92.5 -90t-74 -112t-58.5 -131t-47 -154t-38 -173t-34 -195.5q-48 -309 -48 -466q0 -145 33 -244t112.5 -170.5t216 -104.5t339.5 -33q68 0 124.5 5t100 13t78.5 23
t59.5 29.5t44 38t31.5 43.5t21.5 50.5t14.5 55.5t11 61l90 570h-425z" />
    <glyph glyph-name="H" unicode="H" horiz-adv-x="2251" 
d="M1879 1278l167 1052h192l-369 -2330h-192l176 1108h-1289l-176 -1108h-192l369 2330h192l-167 -1052h1289z" />
    <glyph glyph-name="I" unicode="I" horiz-adv-x="764" 
d="M193 0l369 2330h193l-369 -2330h-193z" />
    <glyph glyph-name="J" unicode="J" horiz-adv-x="1250" 
d="M794 669l263 1661h192l-253 -1604q-33 -206 -84.5 -343.5t-138 -231t-211.5 -134.5t-304 -41q-157 0 -289 49l42 155q115 -34 257 -34q81 0 146.5 13t129 48t110 92.5t83.5 151t57 218.5z" />
    <glyph glyph-name="K" unicode="K" horiz-adv-x="1895" 
d="M750 2330l-171 -1080l1227 1080h245l-1286 -1126l947 -1204h-255l-895 1144l-181 -1144h-192l369 2330h192z" />
    <glyph glyph-name="L" unicode="L" horiz-adv-x="1566" 
d="M263 493l291 1837h192l-268 -1689q-21 -131 -21 -205q0 -67 15.5 -113t48 -77.5t91.5 -49t136 -25t192 -7.5h512l-25 -162q-218 -8 -504 -8q-68 0 -114.5 1t-108.5 5t-104.5 11.5t-93 21t-84.5 33t-67.5 48t-53.5 65t-32 85.5t-12 108q0 58 10 121z" />
    <glyph glyph-name="M" unicode="M" horiz-adv-x="2785" 
d="M903 2227l489 -1635l1014 1634q79 128 165 128q113 0 100 -136l-215 -2218h-192l197 2018l-983 -1592q-37 -59 -65.5 -85t-67.5 -26t-61 27t-39 84l-471 1591l-447 -2017h-185l494 2219q30 135 142 135q87 0 125 -127z" />
    <glyph glyph-name="N" unicode="N" horiz-adv-x="2294" 
d="M837 2224l938 -1953l326 2059h181l-351 -2217q-11 -69 -49.5 -103t-91.5 -34q-49 0 -83 31.5t-66 98.5l-937 1954l-327 -2060h-181l351 2217q11 69 49 103t92 34q48 0 83 -32.5t66 -97.5z" />
    <glyph glyph-name="O" unicode="O" horiz-adv-x="2219" 
d="M1013 -24q-396 0 -564.5 164t-168.5 535q0 203 46 490q34 217 77.5 381.5t105.5 301t142.5 229t188.5 156t243 92.5t307 29q395 0 563.5 -164t168.5 -536q0 -192 -46 -489q-34 -217 -77.5 -381.5t-106 -301t-142.5 -229t-188 -156t-243 -92.5t-306 -29zM1882 1165
q55 345 55 504q0 125 -26 215t-88.5 159.5t-174.5 104.5t-276 35q-138 0 -248.5 -27t-190 -69t-142 -119t-102 -150.5t-73 -192t-52.5 -214.5t-43 -246q-56 -353 -56 -507q0 -99 15.5 -174.5t54.5 -140.5t102.5 -107t162 -65.5t230.5 -23.5q137 0 247.5 27t190 69.5t142 119
t102.5 151t74 191.5t53.5 215t42.5 245z" />
    <glyph glyph-name="P" unicode="P" horiz-adv-x="1985" 
d="M534 974l-155 -974h-191l365 2302q341 52 692 52q99 0 180 -5.5t164 -20.5t146.5 -40t120.5 -65t93.5 -94t58 -129.5t21.5 -168.5q0 -83 -14 -168q-19 -123 -56.5 -222t-87.5 -172.5t-117.5 -128t-142.5 -90t-168 -57t-187 -30t-207 -8.5q-151 0 -515 19zM561 1147
q228 -24 489 -24q138 0 243 14.5t198 51t157 97.5t109 155t65 222q12 74 12 136q0 205 -141 296t-462 91q-247 0 -510 -35z" />
    <glyph glyph-name="Q" unicode="Q" horiz-adv-x="2220" 
d="M1668 -383l-162 -106q-11 6 -52.5 28t-57 30.5t-54.5 31.5t-57.5 36.5t-52.5 39t-52.5 46t-45 51t-42.5 59.5t-32.5 66t-26.5 77q-267 0 -427.5 73.5t-233.5 225.5t-73 402q0 193 46 488q34 217 78 381.5t106 301t142.5 229t188.5 156t243 92.5t307 29q395 0 563.5 -164
t168.5 -535q0 -202 -46 -490q-37 -232 -84.5 -405t-116 -313t-160.5 -232t-213.5 -148.5t-279.5 -77.5q27 -64 67 -117t98.5 -97.5t116 -79t144.5 -78.5zM1393 2183q-138 0 -249 -27t-190.5 -69t-142 -118.5t-102.5 -150.5t-73.5 -192t-53 -215t-42.5 -246
q-56 -353 -56 -507q0 -98 16 -174t55 -141t102.5 -107t162 -65.5t230.5 -23.5q137 0 247.5 27t189.5 69.5t141.5 119t102.5 151t74 191.5t53.5 215t42.5 245q55 347 55 505q0 124 -26 214t-88 159.5t-174 104.5t-275 35z" />
    <glyph glyph-name="R" unicode="R" horiz-adv-x="2036" 
d="M380 0h-192l365 2302q343 52 692 52q99 0 180 -5t164.5 -19.5t147 -39t120.5 -64t94 -92.5t58.5 -128t21.5 -168q0 -72 -14 -165q-22 -137 -67 -244.5t-107 -182.5t-146 -128t-177.5 -82.5t-207.5 -44.5l412 -991h-224l-394 976h-53q-152 0 -516 19zM565 1168
q229 -23 488 -23q137 0 242.5 14.5t198.5 51t157.5 96t109 151.5t64.5 216q11 66 11 132q0 204 -141.5 292.5t-463.5 88.5q-234 0 -510 -35z" />
    <glyph glyph-name="S" unicode="S" horiz-adv-x="1680" 
d="M1340 701q0 68 -21.5 122.5t-57 94t-98 75t-128.5 61.5t-165 57q-82 26 -138.5 46.5t-119 48t-103.5 54.5t-80.5 64t-62 78.5t-36 95.5t-13.5 118q0 55 11 129q27 170 95.5 288.5t180.5 188.5t255 101t334 31q277 0 548 -48l-43 -162q-236 37 -436 37q-123 0 -218.5 -9
t-188.5 -35t-157 -68.5t-109.5 -113t-60.5 -165.5q-12 -73 -12 -130q0 -53 10 -93t37 -74t60 -59.5t93.5 -52.5t122.5 -48.5t161 -52.5q98 -31 173 -62t147.5 -78t119.5 -102t75.5 -131.5t28.5 -169.5q0 -57 -10 -116q-28 -175 -99.5 -299.5t-187.5 -200.5t-267 -110.5
t-348 -34.5q-178 0 -300.5 11.5t-254.5 39.5l46 165q265 -43 527 -43q113 0 202 11.5t173.5 42.5t144 81.5t102.5 132.5t60 192q8 53 8 92z" />
    <glyph glyph-name="T" unicode="T" horiz-adv-x="1633" 
d="M1831 2330l-26 -167h-642l-342 -2163h-193l343 2163h-644l27 167h1477z" />
    <glyph glyph-name="U" unicode="U" horiz-adv-x="2183" 
d="M2176 2330l-251 -1586q-28 -179 -87.5 -313t-141 -220t-194 -139.5t-236 -74.5t-278.5 -21q-134 0 -239 16t-195.5 55t-149.5 102t-92.5 160t-33.5 226q0 93 18 209l251 1586h191l-255 -1612q-13 -78 -13 -150q0 -213 131.5 -316.5t414.5 -103.5q331 0 499.5 139
t214.5 431l254 1612h192z" />
    <glyph glyph-name="V" unicode="V" horiz-adv-x="2025" 
d="M2203 2330l-1130 -2220q-36 -70 -73 -102t-86 -32q-94 0 -119 134l-419 2220h203l382 -2072l1047 2072h195z" />
    <glyph glyph-name="W" unicode="W" horiz-adv-x="2986" 
d="M620 2330l153 -2058l821 1661q34 69 70 100.5t83 31.5t74 -32t38 -101l273 -1659l796 2057h188l-868 -2218q-54 -136 -158 -136q-48 0 -76 33t-39 103l-277 1669l-826 -1669q-34 -70 -72.5 -103t-86.5 -33q-103 0 -113 136l-176 2218h196z" />
    <glyph glyph-name="X" unicode="X" horiz-adv-x="1937" 
d="M1091 1365l740 965h210l-871 -1133l546 -1197h-224l-462 1021l-781 -1021h-214l917 1189l-520 1141h223z" />
    <glyph glyph-name="Y" unicode="Y" horiz-adv-x="1812" 
d="M1050 908l-144 -908h-194l144 908l-502 1422h211l425 -1215l817 1215h203z" />
    <glyph glyph-name="Z" unicode="Z" horiz-adv-x="1725" 
d="M1798 2132l-1509 -1964h1231l-27 -168h-1348q-64 0 -91.5 21.5t-21.5 61.5q8 47 60 115l1509 1964h-1162l26 168h1280q64 0 91.5 -21.5t21.5 -61.5q-6 -45 -60 -115z" />
    <glyph glyph-name="bracketleft" unicode="[" horiz-adv-x="945" 
d="M753 2250l-417 -2633h352l-26 -161h-528l467 2952h530l-25 -158h-353z" />
    <glyph glyph-name="backslash" unicode="\" horiz-adv-x="1327" 
d="M921 -268l-502 2680h182l501 -2680h-181z" />
    <glyph glyph-name="bracketright" unicode="]" horiz-adv-x="947" 
d="M404 2250l25 158h531l-467 -2952h-529l25 161h351l417 2633h-353z" />
    <glyph glyph-name="asciicircum" unicode="^" horiz-adv-x="1599" 
d="M923 2330h217l339 -1195h-180l-296 1014l-618 -1014h-180z" />
    <glyph glyph-name="underscore" unicode="_" horiz-adv-x="1662" 
d="M-10 -470l26 167h1656l-26 -167h-1656z" />
    <glyph glyph-name="grave" unicode="`" horiz-adv-x="714" 
d="M570 1915l-292 458h238l208 -458h-154z" />
    <glyph glyph-name="a" unicode="a" horiz-adv-x="1819" 
d="M1685 1273l-137 -864q-28 -171 -54 -295q-312 -138 -731 -138q-318 0 -467.5 90t-149.5 305q0 56 11 128q77 484 513 549q234 35 807 55l17 109q13 86 13 143q0 105 -43 166t-143.5 90t-276.5 29q-215 0 -582 -53l8 157q386 61 648 61q105 0 187 -10t157.5 -37.5t125 -72
t79 -116t29.5 -167.5q0 -55 -11 -129zM803 138q281 0 530 89q18 92 52 296l68 425q-528 -10 -748 -51q-165 -31 -249.5 -117t-114.5 -275q-9 -56 -9 -100q0 -153 108.5 -210t362.5 -57z" />
    <glyph glyph-name="b" unicode="b" horiz-adv-x="1884" 
d="M1159 1805q319 0 463 -131.5t144 -440.5q0 -141 -31 -342q-41 -260 -112.5 -435t-185.5 -282t-264 -152.5t-360 -45.5q-379 0 -621 138q17 157 39 295l327 2060h183l-117 -738q289 74 535 74zM598 1564l-165 -1039q-22 -138 -42 -296q90 -44 211.5 -67t236.5 -23
q167 0 285.5 41t203 133.5t137 232t85.5 345.5q31 191 31 319q0 236 -116.5 333.5t-402.5 97.5q-109 0 -238 -22.5t-226 -54.5z" />
    <glyph glyph-name="c" unicode="c" horiz-adv-x="1439" 
d="M1272 24q-251 -48 -429 -48q-134 0 -236 28.5t-168.5 79.5t-108.5 127t-59.5 163.5t-17.5 197.5q0 142 31 338q21 131 46 233.5t62.5 198.5t86 166t115.5 128t152 94t194 55.5t242 19.5q188 0 362 -46l-39 -148q-146 28 -282 28q-143 0 -249 -17.5t-183.5 -60t-129 -96
t-88.5 -143t-59 -181.5t-44 -231q-35 -220 -35 -338q0 -107 25 -182t85 -132.5t168.5 -85.5t267.5 -28q106 0 298 38z" />
    <glyph glyph-name="d" unicode="d" horiz-adv-x="1882" 
d="M1603 1731l117 738h183l-327 -2060q-22 -139 -54 -295q-284 -138 -665 -138q-172 0 -293 30.5t-204.5 99.5t-123 182t-39.5 277q0 148 29 326q41 257 107.5 430t172.5 281.5t247 155.5t338 47q246 0 512 -74zM1136 1641q-149 0 -256 -25.5t-185.5 -77.5t-132.5 -144
t-88.5 -210.5t-62.5 -292.5q-26 -164 -26 -283q0 -249 117 -359t382 -110q115 0 243 23t232 67q20 97 52 296l165 1039q-87 32 -209 54.5t-231 22.5z" />
    <glyph glyph-name="e" unicode="e" horiz-adv-x="1902" 
d="M280 891q39 248 104 416.5t172 282t259.5 164.5t367.5 51q176 0 301.5 -37.5t199.5 -110t108 -171t34 -229.5q0 -103 -20 -226q-20 -119 -34 -184q-152 -25 -417 -50t-453 -33l-459 -19q-6 -79 -6 -150q0 -75 9 -132.5t30.5 -111t60.5 -90.5t97 -65t142 -41.5t193 -13.5
q254 0 620 52l-7 -160q-193 -29 -351 -43t-380 -14q-165 0 -282.5 43t-185.5 125.5t-99 191t-31 250.5q0 133 27 305zM462 899l510 24q332 16 637 53q12 48 27 142q11 74 11 134q0 189 -114.5 290t-371.5 101q-172 0 -291 -42.5t-200 -137.5t-128.5 -228.5t-79.5 -335.5z
" />
    <glyph glyph-name="f" unicode="f" horiz-adv-x="1073" 
d="M807 1991l-33 -210h402l-24 -155h-402l-258 -1626h-183l258 1626h-316l24 155h316l32 200q40 252 183.5 382t385.5 130q57 0 114 -10l-38 -145h-65q-166 0 -266.5 -81.5t-129.5 -265.5z" />
    <glyph glyph-name="g" unicode="g" horiz-adv-x="1890" 
d="M178 -618l42 157q344 -54 570 -54q160 0 263.5 22t169.5 76t99.5 130.5t52.5 199.5l28 177q-289 -74 -534 -74q-321 0 -465.5 128.5t-144.5 434.5q0 142 30 331q40 253 111 424t185 276t264 150t359 45q380 0 621 -138q-20 -172 -40 -295l-241 -1520
q-20 -128 -68.5 -223.5t-113.5 -154t-156.5 -93.5t-185 -48t-211.5 -13q-263 0 -635 62zM475 910q-29 -182 -29 -306q0 -233 116.5 -328.5t403.5 -95.5q109 0 238 22.5t226 54.5l158 999q22 138 42 296q-90 44 -211.5 67t-236.5 23q-326 0 -485.5 -168.5t-221.5 -563.5z" />
    <glyph glyph-name="h" unicode="h" horiz-adv-x="1892" 
d="M1747 1179l-186 -1179h-182l178 1127q19 119 19 198q0 113 -42 179.5t-148.5 100.5t-294.5 34q-244 0 -493 -81l-247 -1558h-182l391 2469h182l-117 -741q286 74 551 77q172 1 289.5 -26t182.5 -83t92 -128.5t27 -174.5q0 -86 -20 -214z" />
    <glyph glyph-name="i" unicode="i" horiz-adv-x="680" 
d="M727 2404q0 -29 -6 -68q-14 -87 -41.5 -120t-92.5 -33q-50 0 -71 19t-21 65q0 22 7 69q14 87 43 122t92 35q49 0 69.5 -20.5t20.5 -68.5zM150 0l282 1781h183l-282 -1781h-183z" />
    <glyph glyph-name="j" unicode="j" horiz-adv-x="690" 
d="M619 2183q-50 0 -70.5 19t-20.5 64q0 23 7 70q14 87 42.5 122t91.5 35q49 0 70 -20.5t21 -68.5q0 -29 -6 -68q-14 -87 -42 -120t-93 -33zM170 -76l294 1857h184l-287 -1808q-55 -348 -208 -500.5t-426 -152.5q-30 0 -44 2l39 146q68 4 118 15t107 40.5t97 77t74 129.5
t52 194z" />
    <glyph glyph-name="k" unicode="k" horiz-adv-x="1609" 
d="M743 2469l-241 -1520l933 832h232l-999 -886l772 -895h-253l-704 826l-131 -826h-183l391 2469h183z" />
    <glyph glyph-name="l" unicode="l" horiz-adv-x="695" 
d="M212 461l318 2008h183l-315 -1991q-14 -90 -14 -161q0 -177 84 -310l-166 -86q-106 151 -106 359q0 75 16 181z" />
    <glyph glyph-name="m" unicode="m" horiz-adv-x="2984" 
d="M570 1247l-197 -1247h-182l216 1364q26 164 53 295q161 61 366.5 103.5t372.5 42.5q319 0 433 -156q150 73 331 114.5t368 41.5q118 0 207.5 -21t146 -58t92 -92t49.5 -116.5t14 -139.5q0 -90 -20 -215l-184 -1163h-183l177 1119q18 111 18 197q0 173 -92 248t-320 75
q-116 0 -263 -34.5t-278 -99.5q12 -55 12 -131q0 -94 -19 -211l-184 -1163h-183l177 1119q18 111 18 197q0 173 -92 248t-320 75q-92 0 -238 -28.5t-244 -67.5q-48 -271 -52 -296z" />
    <glyph glyph-name="n" unicode="n" horiz-adv-x="1971" 
d="M571 1247l-198 -1247h-182l216 1364q19 117 53 295q168 66 379.5 106t431.5 40q134 0 234 -20t163 -55t101.5 -89t53.5 -114t15 -137q0 -92 -22 -227l-185 -1163h-182l177 1118q20 128 20 205q0 113 -40.5 179.5t-144.5 102t-286 35.5q-121 0 -288.5 -29t-263.5 -68
q-35 -187 -52 -296z" />
    <glyph glyph-name="o" unicode="o" horiz-adv-x="1960" 
d="M905 -24q-343 0 -495 134.5t-152 446.5q0 145 30 334q40 254 107 424.5t176.5 281.5t260 159.5t363.5 48.5q342 0 494.5 -137.5t152.5 -448.5q0 -134 -30 -328q-39 -249 -106 -419.5t-176 -282.5t-261 -162.5t-364 -50.5zM1627 891q30 186 30 318q0 238 -109.5 334.5
t-368.5 96.5q-166 0 -278 -33t-198.5 -118.5t-140.5 -229.5t-89 -368q-30 -189 -30 -322q0 -124 27 -206.5t87.5 -131.5t147.5 -69.5t217 -20.5q166 0 280.5 36.5t200 125t138 230t86.5 358.5z" />
    <glyph glyph-name="p" unicode="p" horiz-adv-x="1883" 
d="M409 50l-112 -706h-183l321 2028q25 152 55 295q284 138 665 138q172 0 293 -30.5t204.5 -99.5t123 -182t39.5 -277q0 -148 -29 -326q-54 -341 -159 -540t-274 -286.5t-432 -87.5q-246 0 -512 74zM876 140q149 0 256 25.5t185.5 77.5t132.5 144t88.5 210.5t62.5 292.5
q26 164 26 283q0 249 -117 359t-382 110q-115 0 -243 -23t-232 -67q-25 -122 -53 -296l-164 -1039q87 -32 209 -54.5t231 -22.5z" />
    <glyph glyph-name="q" unicode="q" horiz-adv-x="1884" 
d="M1278 -656l112 706q-291 -74 -536 -74q-318 0 -462 131t-144 440q0 151 31 343q41 260 112.5 435t185 282t263.5 152.5t360 45.5q379 0 622 -138q-20 -172 -40 -295l-321 -2028h-183zM1622 1552q-89 44 -210.5 67t-237.5 23q-327 0 -486.5 -171.5t-223.5 -580.5
q-31 -191 -31 -319q0 -236 116.5 -333.5t402.5 -97.5q109 0 237.5 22t226.5 55l165 1039q18 113 41 296z" />
    <glyph glyph-name="r" unicode="r" horiz-adv-x="1141" 
d="M371 0h-182l217 1372q28 171 54 295q286 138 665 138q95 0 162 -8l-43 -167q-66 6 -145 6q-117 0 -245.5 -22.5t-232.5 -66.5q-34 -177 -52 -296z" />
    <glyph glyph-name="s" unicode="s" horiz-adv-x="1521" 
d="M1187 524q0 29 -5.5 54t-14 46t-26.5 40t-34.5 33.5t-47 30t-54 26.5t-66 26.5t-74 26t-85.5 27.5q-180 57 -236 82q-161 70 -211 185q-28 63 -28 145q0 40 8 93q17 107 58.5 188t100.5 133.5t141 85t172 46t201 13.5q276 0 539 -55l-44 -151q-233 41 -431 41
q-58 0 -98 -1t-98.5 -7t-99.5 -16.5t-88 -31.5t-77.5 -49.5t-55 -72.5t-33.5 -99q-6 -41 -6 -73q0 -51 17.5 -89.5t37 -62.5t74.5 -49.5t87 -37t116 -37.5q49 -16 75 -24q101 -33 171 -61.5t132.5 -65.5t98.5 -79t56.5 -97t20.5 -124q0 -42 -8 -96q-18 -113 -64.5 -198.5
t-112.5 -140.5t-156.5 -89.5t-189 -48.5t-217.5 -14q-281 0 -527 54l43 153q231 -39 437 -39q48 0 79.5 0.5t81.5 3.5t84.5 8.5t80 16.5t77.5 26.5t67 39t58 53.5t41.5 71t26.5 90q6 39 6 71z" />
    <glyph glyph-name="t" unicode="t" horiz-adv-x="1117" 
d="M684 2254l189 30l-80 -503h399l-24 -155h-400l-183 -1158q-12 -77 -12 -130q0 -64 16 -104t53.5 -61.5t86 -29t125.5 -7.5q35 0 82 5l-9 -149q-89 -16 -160 -16q-198 0 -290.5 77t-92.5 244q0 61 12 136l189 1193h-328l24 155h328z" />
    <glyph glyph-name="u" unicode="u" horiz-adv-x="1964" 
d="M283 618l184 1163h183l-178 -1118q-22 -139 -22 -215q0 -111 40.5 -175.5t145 -98t288.5 -33.5q119 0 284.5 29t261.5 68q29 143 52 296l198 1247h182l-217 -1364q-24 -150 -52 -295q-169 -66 -378.5 -106t-427.5 -40q-134 0 -234 20t-162.5 55t-101 89t-53.5 114
t-15 137q0 92 22 227z" />
    <glyph glyph-name="v" unicode="v" horiz-adv-x="1817" 
d="M1913 1781l-917 -1661q-41 -75 -78.5 -109.5t-84.5 -34.5q-50 0 -79 35t-46 109l-379 1661h196l348 -1555l852 1555h188z" />
    <glyph glyph-name="w" unicode="w" horiz-adv-x="2814" 
d="M554 1781l170 -1553l728 1270q44 77 77 109.5t77 32.5q47 0 72.5 -34t43.5 -108l299 -1269l672 1552h182l-730 -1660q-64 -145 -162 -145q-49 0 -75 34.5t-44 110.5l-301 1258l-724 -1258q-44 -77 -79.5 -111t-83.5 -34q-104 0 -120 145l-192 1660h190z" />
    <glyph glyph-name="x" unicode="x" horiz-adv-x="1721" 
d="M964 1083l567 698h205l-696 -847l473 -934h-219l-388 777l-632 -777h-207l762 928l-430 853h216z" />
    <glyph glyph-name="y" unicode="y" horiz-adv-x="1657" 
d="M907 382l687 1399h185l-1199 -2437h-185l387 783l-445 1654h198z" />
    <glyph glyph-name="z" unicode="z" horiz-adv-x="1682" 
d="M1685 1633l-1344 -1470h1090l-26 -163h-1271q-44 0 -64 18.5t-15 48.5q6 37 47 81l1345 1473h-1066l25 160h1247q43 0 63 -18.5t15 -48.5q-5 -37 -46 -81z" />
    <glyph glyph-name="braceleft" unicode="{" horiz-adv-x="960" 
d="M548 310l-28 -180q-14 -90 -14 -163q0 -297 218 -343l-40 -148q-85 19 -148 50t-112.5 81t-75 127t-25.5 179q0 81 14 166q43 279 43 430q0 155 -42.5 239t-138.5 111l23 149q159 41 242 217.5t143 562.5q23 148 71.5 256t121 176.5t155 108t190.5 61.5l-6 -148
q-293 -60 -365 -506l-29 -180q-12 -77 -26 -140.5t-42 -144.5t-62.5 -141.5t-90 -115t-123.5 -81.5q169 -86 169 -380q0 -95 -22 -243z" />
    <glyph glyph-name="bar" unicode="|" horiz-adv-x="777" 
d="M300 -656v3125h178v-3125h-178z" />
    <glyph glyph-name="braceright" unicode="}" horiz-adv-x="961" 
d="M-36 -524l7 148q154 31 243 164.5t121 341.5l28 180q79 508 344 623q-171 78 -171 370q0 99 24 253l29 180q14 89 14 163q0 296 -218 343l40 148q85 -19 148 -49.5t112.5 -81t75 -127t25.5 -178.5q0 -81 -14 -166q-43 -280 -43 -431q0 -155 42.5 -238.5t138.5 -110.5
l-23 -149q-159 -42 -241.5 -218.5t-143.5 -561.5q-19 -119 -55 -212.5t-83.5 -158.5t-112 -112t-133.5 -74.5t-154 -45.5z" />
    <glyph glyph-name="asciitilde" unicode="~" horiz-adv-x="1980" 
d="M1717 1285h177q-55 -222 -183 -343t-284 -121q-97 0 -183.5 31.5t-149.5 76t-120.5 89t-122.5 76t-131 31.5q-101 0 -170 -70t-120 -220h-177q55 223 183 343.5t284 120.5q97 0 183.5 -31.5t149 -76.5t120.5 -89.5t123 -76t131 -31.5q101 0 169.5 70.5t120.5 220.5z" />
    <glyph glyph-name="uni00A0" unicode="&#xa0;" horiz-adv-x="1000" 
 />
    <glyph glyph-name="exclamdown" unicode="&#xa1;" horiz-adv-x="689" 
d="M670 1698q0 -28 -6 -68q-14 -87 -42.5 -122t-91.5 -35q-49 0 -70 20.5t-21 68.5q0 29 6 68q14 87 41.5 120t92.5 33q50 0 70.5 -19.5t20.5 -65.5zM93 -571l294 1651h162l-230 -1651h-226z" />
    <glyph glyph-name="cent" unicode="&#xa2;" horiz-adv-x="1402" 
d="M844 243l-49 -308h-149l50 314q-102 12 -180 45.5t-129.5 83.5t-84.5 120t-46.5 148.5t-13.5 174.5q0 135 30 328q21 134 47.5 237.5t65.5 199.5t91.5 165t123.5 124t164.5 88t210.5 46l50 316h149l-49 -307h18q180 0 350 -45l-37 -143q-143 26 -273 26q-94 0 -171 -8.5
t-139.5 -23.5t-112.5 -42.5t-88.5 -58t-69 -78t-52.5 -94.5t-40.5 -115t-31.5 -133t-27 -154q-33 -214 -33 -327q0 -104 24 -177.5t83 -129t163.5 -82.5t258.5 -27q111 0 289 37l-7 -153q-228 -45 -385 -47z" />
    <glyph glyph-name="sterling" unicode="&#xa3;" horiz-adv-x="1851" 
d="M591 1063h-346l24 157h323q4 265 37 472q22 138 78 243t133.5 170.5t182.5 106.5t214.5 56.5t240.5 15.5q168 0 280.5 -50t198.5 -148l-117 -118q-154 145 -377 145q-170 0 -286.5 -29t-192 -93.5t-116.5 -155t-62 -225.5q-20 -126 -20 -355v-35h527l-25 -157h-505
q-5 -150 -26 -282q-16 -99 -38 -179t-58 -156t-67 -129.5t-89 -144.5h639q243 0 496 34l-7 -157q-318 -49 -708 -49h-580q-49 0 -70 21.5t-15 58.5q3 22 31 67.5t67.5 107t81 134.5t77.5 170t51 193q19 125 23 311z" />
    <glyph glyph-name="currency" unicode="&#xa4;" 
d="M1523 702l231 -224l-124 -123l-228 231q-187 -141 -416 -141q-237 0 -419 142l-229 -232l-121 124l231 226q-142 181 -142 410q0 233 143 415l-232 230l121 122l232 -233q185 142 416 142q232 0 415 -138l229 228l124 -121l-231 -225q149 -186 149 -420q0 -232 -149 -413
zM983 621q99 0 191.5 38t162 103.5t111.5 158.5t42 196q0 134 -66.5 249t-183.5 182.5t-257 67.5q-134 0 -248.5 -65.5t-183 -181t-68.5 -252.5q0 -132 65 -245.5t180.5 -182t254.5 -68.5z" />
    <glyph glyph-name="yen" unicode="&#xa5;" horiz-adv-x="1700" 
d="M396 2260h200l338 -1162l714 1162h193l-764 -1238h331l-22 -147h-397l-37 -231h397l-24 -147h-396l-79 -497h-188l78 497h-389l24 147h388l37 231h-388l23 147h324z" />
    <glyph glyph-name="brokenbar" unicode="&#xa6;" horiz-adv-x="715" 
d="M268 -471v1076h179v-1076h-179zM268 1209v1075h179v-1075h-179z" />
    <glyph glyph-name="section" unicode="&#xa7;" horiz-adv-x="1759" 
d="M251 1040q45 281 427 456q-154 136 -154 292q0 34 6 68q36 225 219 361.5t466 136.5q304 0 538 -55l-44 -158q-253 49 -461 49q-218 0 -359 -84t-165 -233q-3 -22 -3 -43q0 -32 8.5 -62t21 -54.5t37 -50t45 -44t57 -41t61.5 -36.5t70.5 -35.5t71 -33t75.5 -32.5
q58 -25 100 -44.5t97.5 -49.5t94.5 -58t80.5 -66.5t66.5 -78.5t41.5 -91t16.5 -107q0 -33 -6 -69q-39 -253 -448 -466q186 -162 186 -346q0 -28 -4 -51q-18 -113 -74.5 -201.5t-133 -143t-175.5 -90t-195 -49.5t-200 -14q-281 0 -539 57l48 163q287 -49 459 -49
q39 0 66.5 0.5t76 3.5t84.5 8.5t83.5 17t83.5 27t74.5 40t65 55t47 73t28.5 93.5q4 32 4 46q0 55 -26 103.5t-56.5 80.5t-100 71.5t-110.5 58t-134 58.5q-6 3 -9 4q-65 28 -106.5 47t-101.5 50.5t-98.5 60t-82 69.5t-68.5 83.5t-42 98.5t-17 118q0 44 7 86zM1471 852
q5 33 5 56q0 97 -72.5 175.5t-246.5 160.5q-46 22 -163 68.5t-191 87.5q-157 -69 -255 -151t-115 -189q-6 -38 -6 -72q0 -96 61 -172t214 -150q63 -31 179.5 -75t196.5 -84q79 37 137.5 69.5t117.5 76t94 94t44 105.5z" />
    <glyph glyph-name="dieresis" unicode="&#xa8;" horiz-adv-x="1160" 
d="M489 1987q-54 0 -86 39t-23 94t53.5 94t98.5 39t85.5 -39t22.5 -94q-9 -56 -52.5 -94.5t-98.5 -38.5zM855 2120q9 55 53.5 94t99.5 39q54 0 85 -38.5t22 -94.5t-52.5 -94.5t-97.5 -38.5t-86.5 39t-23.5 94z" />
    <glyph glyph-name="copyright" unicode="&#xa9;" horiz-adv-x="2774" 
d="M1818 873h162q-20 -201 -183 -324t-390 -123q-152 0 -271 58t-193.5 160t-113 235t-38.5 289q0 111 24.5 217t75.5 200t123 165t173.5 112.5t219.5 41.5q98 0 191.5 -25t174.5 -73t137 -127.5t70 -179.5h-162q-21 124 -135 192t-276 68q-195 0 -321 -157.5t-126 -433.5
q0 -280 120.5 -435.5t326.5 -155.5q153 0 270.5 81t140.5 215zM1387 2354q245 0 465.5 -92.5t379 -250t251.5 -377.5t93 -466q0 -245 -93 -466t-251.5 -380t-379 -252.5t-465.5 -93.5t-465.5 93.5t-379 252.5t-251.5 380t-93 466q0 246 93 466t251.5 377.5t379 250
t465.5 92.5zM1387 2208q-171 0 -329 -51.5t-285 -146.5t-221.5 -222.5t-146 -287t-51.5 -332.5q0 -218 80.5 -412.5t218.5 -333t329.5 -219.5t404.5 -81t404.5 81t329.5 219.5t218.5 333t80.5 412.5q0 173 -51.5 332.5t-146 287t-221.5 222.5t-285 146.5t-329 51.5z" />
    <glyph glyph-name="ordfeminine" unicode="&#xaa;" horiz-adv-x="1372" 
d="M1297 1938l-90 -566q-16 -99 -36 -197q-213 -94 -491 -94q-214 0 -314.5 60t-100.5 205q0 43 7 86q51 323 348 367q153 23 518 35l10 65q8 54 8 91q0 99 -64 140.5t-228 41.5q-145 0 -393 -37l6 118q259 42 437 42q71 0 126.5 -7t106.5 -25.5t84.5 -48t53 -78
t19.5 -112.5q0 -43 -7 -86zM410 1371q0 -97 69 -133t229 -36q177 0 337 56l75 460q-351 -10 -476 -33q-101 -20 -155 -75t-73 -174q-6 -36 -6 -65z" />
    <glyph glyph-name="guillemotleft" unicode="&#xab;" horiz-adv-x="1494" 
d="M432 862l304 -643h-193l-345 643l548 644h193zM975 862l305 -643h-193l-345 643l548 644h192z" />
    <glyph glyph-name="logicalnot" unicode="&#xac;" horiz-adv-x="2093" 
d="M1946 1277l-146 -922h-193l118 747h-1380l28 175h1573z" />
    <glyph glyph-name="uni00AD" unicode="&#xad;" horiz-adv-x="1319" 
d="M298 801l27 169h835l-27 -169h-835z" />
    <glyph glyph-name="registered" unicode="&#xae;" horiz-adv-x="1812" 
d="M745 1581v-357h-118v846h296q170 0 248 -61.5t78 -180.5q0 -91 -48 -151t-136 -79l184 -374h-133l-173 357h-198zM184 1633q0 199 96 364.5t262 261t364 95.5q199 0 365 -95.5t261.5 -261t95.5 -364.5t-95.5 -365t-261.5 -262t-365 -96q-198 0 -364 96t-262 262t-96 365z
M1513 1633q0 169 -80.5 309t-219.5 220.5t-307 80.5q-167 0 -306 -80.5t-219 -220.5t-80 -309q0 -171 80 -312t219 -221.5t306 -80.5q168 0 307 80.5t219.5 221.5t80.5 312zM910 1967h-165v-283h170q109 0 163 34.5t54 109.5q0 76 -54.5 107.5t-167.5 31.5z" />
    <glyph glyph-name="macron" unicode="&#xaf;" horiz-adv-x="1340" 
d="M392 2041l24 145h864l-23 -145h-865z" />
    <glyph glyph-name="degree" unicode="&#xb0;" horiz-adv-x="1251" 
d="M626 1457q-186 0 -318 131.5t-132 316.5q0 186 132 317.5t318 131.5q185 0 317 -131.5t132 -317.5q0 -185 -132 -316.5t-317 -131.5zM626 1607q124 0 211 87t87 211t-87 211t-211 87q-125 0 -212 -87t-87 -211t87 -211t212 -87z" />
    <glyph glyph-name="plusminus" unicode="&#xb1;" horiz-adv-x="1978" 
d="M1018 1270l100 629h189l-100 -629h692l-26 -169h-692l-102 -641h-189l102 641h-692l26 169h692zM134 58l28 175h1573l-28 -175h-1573z" />
    <glyph glyph-name="twosuperior" unicode="&#xb2;" horiz-adv-x="1039" 
d="M362 2682q227 39 398 39q403 0 403 -259q0 -25 -5 -62q-28 -178 -142.5 -290t-315.5 -191q-88 -35 -150.5 -76t-105.5 -95.5t-70.5 -112.5t-53.5 -143h693l-20 -126h-858q35 107 60.5 175.5t58.5 138.5t66.5 114.5t80.5 88t104 76t133 63.5q159 64 258.5 148t118.5 203
q4 24 4 51q0 94 -76.5 133t-250.5 39q-133 0 -333 -30z" />
    <glyph glyph-name="threesuperior" unicode="&#xb3;" horiz-adv-x="1048" 
d="M1119 2405q-38 -241 -239 -330q70 -29 117.5 -95t47.5 -161q0 -24 -5 -59q-18 -115 -64.5 -195t-120 -125.5t-164 -65.5t-210.5 -20q-188 0 -359 37l35 118q217 -30 305 -30q205 0 307.5 59.5t126.5 211.5q4 21 4 46q0 87 -53 140t-142 63q-61 7 -163 7q-70 0 -108 -1
l18 115q140 1 274 21q100 16 167.5 79.5t81.5 152.5q5 35 5 56q0 46 -16 77.5t-41.5 49.5t-70 28t-86.5 12.5t-106 2.5q-135 0 -323 -29l3 116q198 37 367 37q71 0 128.5 -6t113.5 -22.5t93 -44t60 -73.5t23 -107q0 -30 -6 -65z" />
    <glyph glyph-name="acute" unicode="&#xb4;" horiz-adv-x="713" 
d="M256 1915l354 458h237l-437 -458h-154z" />
    <glyph glyph-name="mu" unicode="&#xb5;" horiz-adv-x="1898" 
d="M172 -656l386 2437h177l-185 -1165q-9 -57 -9 -109q0 -157 79.5 -253.5t236.5 -96.5q148 0 274 99t208.5 267t116.5 382l139 876h178l-189 -1198q-30 -188 -30 -266q0 -162 104 -199l-22 -142q-73 0 -123.5 27t-76.5 77t-36.5 107.5t-10.5 132.5q0 26 2 62h-2
q-91 -188 -244 -297t-315 -109q-117 0 -199 46t-152 148l-131 -826h-176z" />
    <glyph glyph-name="paragraph" unicode="&#xb6;" horiz-adv-x="1991" 
d="M882 -513h-163l243 1531q-153 1 -277 42.5t-204.5 115t-124 172t-43.5 214.5q0 56 8 103q52 329 281 497t589 168h801l-451 -2843h-161l426 2694h-498z" />
    <glyph glyph-name="periodcentered" unicode="&#xb7;" horiz-adv-x="692" 
d="M305 885q0 29 6 68q14 87 42.5 122.5t91.5 35.5q49 0 70 -21t21 -69q0 -29 -6 -68q-14 -87 -41.5 -120t-92.5 -33q-50 0 -70.5 19.5t-20.5 65.5z" />
    <glyph glyph-name="cedilla" unicode="&#xb8;" horiz-adv-x="712" 
d="M158 -243l180 243h137l-130 -167q96 -4 157 -53.5t61 -134.5q0 -17 -3 -37q-21 -130 -124 -192.5t-243 -62.5q-124 0 -207 50l56 106q85 -41 174 -41q66 0 119.5 29.5t64.5 96.5q6 42 -16.5 75t-62.5 51.5t-82.5 27.5t-80.5 9z" />
    <glyph glyph-name="onesuperior" unicode="&#xb9;" horiz-adv-x="692" 
d="M432 1373l188 1184q-169 -47 -341 -74l12 121q207 33 385 109h105l-213 -1340h-136z" />
    <glyph glyph-name="ordmasculine" unicode="&#xba;" horiz-adv-x="1442" 
d="M1386 1903q0 -97 -19 -215q-52 -328 -190.5 -467.5t-417.5 -139.5q-230 0 -332.5 90t-102.5 298q0 93 20 219q53 332 189.5 469.5t417.5 137.5q230 0 332.5 -91.5t102.5 -300.5zM469 1479q0 -155 70 -215t234 -60q208 0 306.5 105t142.5 379q19 117 19 205q0 154 -70 216
t-235 62q-84 0 -145 -13.5t-111 -45.5t-85.5 -88t-61.5 -138t-44 -198q-20 -126 -20 -209z" />
    <glyph glyph-name="guillemotright" unicode="&#xbb;" horiz-adv-x="1494" 
d="M888 862l-548 -643h-193l508 643l-304 644h192zM1432 862l-549 -643h-192l507 643l-304 644h193z" />
    <glyph glyph-name="onequarter" unicode="&#xbc;" horiz-adv-x="2335" 
d="M1758 0l51 324h-568q-65 0 -86.5 25t-15.5 68q7 45 89 136l656 717q78 84 146 84q80 0 65 -97l-129 -815h182l-18 -118h-182l-52 -324h-138zM777 2332h105l-213 -1340h-137l188 1184q-174 -48 -341 -73l12 120q207 34 386 109zM2139 2378l-1726 -2426h-167l1725 2426h168
zM1288 442h540l114 715z" />
    <glyph glyph-name="onehalf" unicode="&#xbd;" horiz-adv-x="2571" 
d="M1661 1315q228 39 399 39q403 0 403 -253q0 -25 -5 -62q-28 -178 -143.5 -293t-315.5 -194q-89 -35 -150.5 -76t-104.5 -95t-70.5 -112.5t-53.5 -143.5h694l-20 -125h-859q35 107 60.5 175.5t58.5 138.5t66.5 114.5t80 88.5t103.5 76t133 63q160 65 259 148t118 203
q4 24 4 51q0 94 -77 132.5t-251 38.5q-143 0 -332 -30zM384 2103l12 120q210 35 386 109h105l-212 -1340h-137l188 1184q-175 -49 -342 -73zM1978 2378h168l-1726 -2426h-167z" />
    <glyph glyph-name="threequarters" unicode="&#xbe;" horiz-adv-x="2585" 
d="M1223 2024q-37 -240 -239 -330q70 -29 117.5 -95t47.5 -161q0 -24 -5 -59q-18 -115 -64 -194.5t-120 -125t-165 -65.5t-210 -20q-186 0 -359 36l35 119q205 -30 305 -30q206 0 308 59t126 211q4 21 4 47q0 87 -53 140t-143 62q-75 8 -177 8q-61 0 -93 -1l18 114
q163 3 274 21q100 16 167 79.5t81 152.5q5 35 5 58q0 45 -16 77t-41.5 49.5t-69.5 27.5t-86 12.5t-106 2.5q-127 0 -323 -30l3 117q201 36 367 36q72 0 129 -6t113 -22.5t93 -44t60 -73t23 -107.5q0 -31 -6 -65zM2006 0l51 324h-568q-65 0 -86.5 25t-14.5 68q8 50 86 136
l659 717q76 84 146 84q36 0 54 -23.5t10 -73.5l-129 -815h182l-19 -118h-182l-51 -324h-138zM2385 2378l-1725 -2426h-167l1724 2426h168zM1535 442h540l114 715z" />
    <glyph glyph-name="questiondown" unicode="&#xbf;" horiz-adv-x="1618" 
d="M1046 1080h164l-30 -197q-1 -8 -5 -39.5t-6 -44.5q-12 -78 -46.5 -131.5t-82.5 -82.5t-107.5 -47.5t-124 -31t-129 -27t-125.5 -42.5t-111 -71t-88 -118t-54 -178q-15 -93 -15 -164q0 -79 20.5 -134t63 -93.5t116.5 -60.5t172 -31.5t238 -9.5q219 0 486 47l9 -162
q-291 -57 -587 -57q-98 0 -174.5 4.5t-153.5 17.5t-133.5 35t-107 57.5t-81.5 84.5t-49 117t-18 154q0 79 15 178q22 139 70 242t95 159t131.5 97.5t131 54.5t142.5 33q81 17 122 29t96 39t83.5 72.5t40.5 113.5zM1098 1563q0 28 6 67q14 86 42 119.5t92 33.5q51 0 72 -19
t21 -65q0 -22 -7 -69q-14 -87 -43 -122t-92 -35q-49 0 -70 21t-21 69z" />
    <glyph glyph-name="Agrave" unicode="&#xc0;" horiz-adv-x="2140" 
d="M1597 690h-1030l-363 -690h-197l1182 2221q71 133 164 133q95 0 123 -133l470 -2221h-205zM1306 2591l-331 371h255l242 -371h-166zM654 854h909l-258 1237z" />
    <glyph glyph-name="Aacute" unicode="&#xc1;" horiz-adv-x="2139" 
d="M1596 690h-1030l-363 -690h-197l1183 2221q71 133 164 133q95 0 123 -133l469 -2221h-205zM1310 2571l359 371h255l-449 -371h-165zM653 854h909l-257 1237z" />
    <glyph glyph-name="Acircumflex" unicode="&#xc2;" horiz-adv-x="2139" 
d="M1596 690h-1030l-363 -690h-197l1183 2221q71 133 164 133q95 0 123 -133l469 -2221h-205zM1341 2942h192l253 -371h-169l-193 275l-281 -275h-164zM653 854h909l-257 1237z" />
    <glyph glyph-name="Atilde" unicode="&#xc3;" horiz-adv-x="2139" 
d="M1683 2897h126q-36 -139 -109.5 -214t-151.5 -75q-49 0 -86 16t-58 39t-39 46.5t-39.5 39.5t-48.5 16q-44 0 -77 -36t-59 -114h-127q36 139 109.5 214t152.5 75q49 0 85.5 -16t58 -39t39 -46t39.5 -39t49 -16q44 0 77 36t59 113zM6 0l1183 2221q71 133 164 133
q95 0 123 -133l469 -2221h-205l-144 690h-1030l-363 -690h-197zM1562 854l-257 1237l-652 -1237h909z" />
    <glyph glyph-name="Adieresis" unicode="&#xc4;" horiz-adv-x="2139" 
d="M1596 690h-1030l-363 -690h-197l1183 2221q71 133 164 133q50 0 79.5 -32.5t43.5 -100.5l469 -2221h-205zM1155 2618q-54 0 -85.5 39t-22.5 94q8 55 52.5 94t98.5 39t85.5 -38.5t23.5 -94.5q-9 -56 -53 -94.5t-99 -38.5zM1631 2618q-55 0 -86.5 38.5t-23.5 94.5
q9 55 53.5 94t98.5 39t86 -39t23 -94q-8 -55 -52.5 -94t-98.5 -39zM653 854h909l-257 1237z" />
    <glyph glyph-name="Aring" unicode="&#xc5;" horiz-adv-x="2139" 
d="M1113 2805q0 28 4 52q21 131 127 224t234 93q116 0 191 -76t75 -190q0 -28 -4 -51q-21 -132 -127 -225t-236 -93q-115 0 -189.5 76t-74.5 190zM1234 2857q-2 -11 -2 -32q0 -72 46 -119t118 -47q81 0 147.5 57.5t79.5 140.5q2 11 2 31q0 71 -47 118.5t-119 47.5
q-80 0 -146 -57.5t-79 -139.5zM1596 690h-1030l-363 -690h-197l1183 2221q71 133 164 133q95 0 123 -133l468 -2221h-204zM653 854h909l-257 1237z" />
    <glyph glyph-name="AE" unicode="&#xc6;" horiz-adv-x="2979" 
d="M202 0h-196l1121 2105q37 69 90 119t114.5 77.5t124 40t130.5 12.5q228 0 302 -174q45 42 105 72t117.5 46t136 25t139.5 11t149 2q229 0 543 -13l-25 -157h-555q-120 0 -202 -7.5t-148 -29.5t-106.5 -53.5t-72 -89t-49.5 -126.5t-35 -174l-66 -416h1044l-26 -165h-1044
l-74 -464q-21 -131 -21 -206q0 -67 15.5 -113t48 -77.5t91.5 -49t136 -24.5t192 -7h555l-25 -160q-235 -10 -547 -10q-68 0 -114.5 1t-108 5t-104.5 11.5t-93 21t-84 33t-67.5 48t-53.5 65t-32 85.5t-12 108q0 58 10 121l31 197h-971zM652 854h910l158 1006q11 74 11 124
q0 108 -47.5 153.5t-150.5 45.5q-65 0 -114.5 -19.5t-90 -67.5t-60.5 -79.5t-58 -104.5q-9 -16 -13 -24z" />
    <glyph glyph-name="Ccedilla" unicode="&#xc7;" horiz-adv-x="1692" 
d="M1857 2146q-236 37 -372 37q-157 0 -280.5 -22t-216.5 -59.5t-163.5 -105.5t-118.5 -142.5t-86 -189.5t-62.5 -227t-49.5 -272q-47 -299 -47 -461q0 -117 21 -203.5t69.5 -155.5t129 -111.5t200 -64.5t281.5 -22q128 0 384 36l-6 -158q-236 -44 -453 -48l-99 -128
q95 -4 156 -53.5t61 -134.5q0 -17 -3 -37q-14 -89 -71.5 -148t-131.5 -83t-163 -24q-124 0 -207 50l56 106q84 -41 173 -41q67 0 120.5 29.5t64.5 96.5q7 42 -16 75t-63.5 51.5t-82.5 27.5t-80 9l151 205q-189 7 -319.5 52.5t-211.5 134t-117 214.5t-36 302q0 198 45 484
q25 160 54.5 289t69 245.5t88 205.5t111.5 164.5t140 127t172.5 87.5t210 53t251.5 17q264 0 492 -46z" />
    <glyph glyph-name="Egrave" unicode="&#xc8;" horiz-adv-x="1733" 
d="M1831 2323l-24 -157h-555q-120 0 -202 -7.5t-148 -29.5t-106.5 -53.5t-72 -89t-49.5 -126.5t-35 -174l-66 -416h1044l-26 -165h-1045l-73 -464q-21 -132 -21 -207q0 -67 15.5 -112.5t48 -77t91.5 -49t136 -24.5t192 -7h555l-25 -160q-236 -10 -547 -10q-68 0 -114.5 1
t-108.5 5t-104.5 11.5t-93 21t-84.5 33t-67.5 48t-53.5 65t-32 85.5t-12 108q0 58 10 121l213 1341q16 100 50.5 178.5t77 131t108 89.5t124 57t145 30.5t151.5 13t162 2.5q228 0 542 -13zM1323 2553l-333 371h255l243 -371h-165z" />
    <glyph glyph-name="Eacute" unicode="&#xc9;" horiz-adv-x="1733" 
d="M1832 2323l-25 -157h-555q-120 0 -202 -7.5t-148 -29.5t-106.5 -53.5t-72 -89t-49.5 -126.5t-35 -174l-66 -416h1044l-26 -165h-1045l-73 -464q-21 -132 -21 -207q0 -67 15.5 -112.5t48 -77t91.5 -49t136 -24.5t192 -7h555l-25 -160q-236 -10 -547 -10q-68 0 -114.5 1
t-108.5 5t-104.5 11.5t-93 21t-84.5 33t-67.5 48t-53.5 65t-32 85.5t-12 108q0 58 10 121l213 1341q16 100 50.5 178.5t77 131t108 89.5t124 57t145 30.5t151.5 13t162 2.5q228 0 543 -13zM1138 2553l359 371h255l-448 -371h-166z" />
    <glyph glyph-name="Ecircumflex" unicode="&#xca;" horiz-adv-x="1733" 
d="M1831 2323l-24 -157h-555q-120 0 -202 -7.5t-148.5 -29.5t-107 -53.5t-72 -89t-49.5 -126.5t-35 -174l-66 -416h1044l-26 -165h-1044l-73 -464q-21 -132 -21 -207q0 -67 15.5 -112.5t48 -77t91 -49t135.5 -24.5t192 -7h555l-25 -160q-235 -10 -547 -10q-68 0 -114.5 1
t-108 5t-104.5 11.5t-93 21t-84 33t-67.5 48t-53.5 65t-32 85.5t-12 108q0 58 10 121l213 1341q16 100 50.5 178.5t77 131t108 89.5t123.5 57t144.5 30.5t151.5 13t162 2.5q228 0 543 -13zM1235 2924h193l253 -371h-169l-193 275l-281 -275h-165z" />
    <glyph glyph-name="Edieresis" unicode="&#xcb;" horiz-adv-x="1733" 
d="M1832 2323l-26 -157h-555q-120 0 -202 -7.5t-148.5 -29.5t-106.5 -53.5t-71.5 -89t-50 -126.5t-34.5 -174l-65 -416h1044l-26 -165h-1045l-73 -464q-21 -132 -21 -207q0 -67 15.5 -112.5t48 -77t91.5 -49t136 -24.5t192 -7h555l-26 -160q-235 -10 -546 -10
q-68 0 -114.5 1t-108.5 5t-104.5 11.5t-93 21t-84.5 33t-67.5 48t-53.5 65t-32 85.5t-12 108q0 58 10 121l212 1341q16 100 50.5 178.5t77 131t108 89.5t124 57t145.5 30.5t152 13t162 2.5q226 0 543 -13zM1061 2602q-55 0 -87 39t-23 94q8 55 52 94t99 39t86.5 -38.5
t22.5 -94.5q-8 -55 -52 -94t-98 -39zM1536 2602q-54 0 -86 39t-24 94q9 55 53 94t98 39q55 0 87 -39t23 -94q-9 -56 -52.5 -94.5t-98.5 -38.5z" />
    <glyph glyph-name="Igrave" unicode="&#xcc;" horiz-adv-x="763" 
d="M193 0l369 2330h192l-369 -2330h-192zM611 2561l-332 371h255l242 -371h-165z" />
    <glyph glyph-name="Iacute" unicode="&#xcd;" horiz-adv-x="763" 
d="M193 0l369 2330h192l-369 -2330h-192zM612 2561l360 371h255l-450 -371h-165z" />
    <glyph glyph-name="Icircumflex" unicode="&#xce;" horiz-adv-x="763" 
d="M652 2916h192l253 -371h-169l-193 275l-281 -275h-165zM193 0l369 2330h192l-369 -2330h-192z" />
    <glyph glyph-name="Idieresis" unicode="&#xcf;" horiz-adv-x="764" 
d="M464 2595q-54 0 -86 39t-23 94q8 55 52.5 94t98.5 39t85.5 -38.5t23.5 -94.5q-9 -55 -53 -94t-98 -39zM940 2595q-55 0 -87 39t-23 94q8 55 52.5 94t98.5 39t86 -39t23 -94q-8 -55 -52 -94t-98 -39zM193 0l369 2330h193l-369 -2330h-193z" />
    <glyph glyph-name="Eth" unicode="&#xd0;" horiz-adv-x="2291" 
d="M469 1129h-204l23 151h205l163 1025q323 49 687 49q240 0 404 -43t260.5 -134t138 -218.5t41.5 -309.5q0 -195 -46 -484q-22 -139 -46 -250t-56.5 -219t-72 -191.5t-91.5 -161t-115.5 -133t-144 -101.5t-177.5 -74.5t-215 -43.5t-257 -15q-344 0 -671 52zM660 1129
l-150 -949q242 -34 415 -34q479 0 705 193q155 131 231 390q39 132 87 436q51 319 51 465q0 106 -19.5 186.5t-70.5 152t-134.5 117.5t-215.5 72t-311 26q-161 0 -426 -32l-138 -872h378l-24 -151h-378z" />
    <glyph glyph-name="Ntilde" unicode="&#xd1;" horiz-adv-x="2294" 
d="M703 2060l-326 -2060h-181l351 2217q11 69 49 103t91 34q48 0 83.5 -32.5t66.5 -97.5l937 -1953l326 2059h182l-352 -2217q-11 -69 -49 -103t-91 -34q-49 0 -84 32t-66 98zM1771 2895h126q-37 -139 -110 -214t-151 -75q-49 0 -86 16t-58.5 39t-39 46.5t-39 39.5t-48.5 16
q-44 0 -77 -36t-59 -114h-127q36 139 109.5 214t152.5 75q49 0 85.5 -16t58 -39t39 -46t40 -39t49.5 -16q85 0 135 149z" />
    <glyph glyph-name="Ograve" unicode="&#xd2;" horiz-adv-x="2220" 
d="M1014 -24q-267 0 -427.5 73.5t-233.5 225.5t-73 402q0 193 46 488q34 217 77.5 381.5t106 301t143 229t188.5 156t243 92.5t307 29q266 0 426.5 -73.5t233 -225t72.5 -400.5q0 -203 -46 -490q-34 -217 -77.5 -381.5t-106 -301t-142.5 -229t-187.5 -156t-242.5 -92.5
t-307 -29zM521 1165q-56 -353 -56 -507q0 -98 16 -174t55 -141t102.5 -107t162 -65.5t230.5 -23.5q137 0 247.5 27t189.5 69.5t141.5 119t102.5 151t74 191.5t53.5 215t42.5 245q55 345 55 505q0 124 -26 214t-88 159.5t-174 104.5t-276 35q-138 0 -248.5 -27t-190 -69
t-142.5 -118.5t-102.5 -150.5t-73 -192t-53 -215t-42.5 -246zM1424 2560l-332 371h255l242 -371h-165z" />
    <glyph glyph-name="Oacute" unicode="&#xd3;" horiz-adv-x="2220" 
d="M1014 -24q-267 0 -427.5 73.5t-233.5 225.5t-73 402q0 193 46 488q34 217 77.5 381.5t106 301t143 229t188.5 156t243 92.5t307 29q266 0 426.5 -73.5t233 -225t72.5 -400.5q0 -203 -46 -490q-34 -217 -77.5 -381.5t-106 -301t-142.5 -229t-187.5 -156t-242.5 -92.5
t-307 -29zM521 1165q-56 -353 -56 -507q0 -98 16 -174t55 -141t102.5 -107t162 -65.5t230.5 -23.5q137 0 247.5 27t189.5 69.5t141.5 119t102.5 151t74 191.5t53.5 215t42.5 245q55 345 55 505q0 124 -26 214t-88 159.5t-174 104.5t-276 35q-138 0 -248.5 -27t-190 -69
t-142.5 -118.5t-102.5 -150.5t-73 -192t-53 -215t-42.5 -246zM1275 2560l360 371h254l-449 -371h-165z" />
    <glyph glyph-name="Ocircumflex" unicode="&#xd4;" horiz-adv-x="2219" 
d="M1014 -24q-267 0 -428 74t-233.5 226t-72.5 401q0 191 46 488q34 217 77.5 381.5t106 301t143 229t188.5 156t243 92.5t307 29q394 0 562.5 -163.5t168.5 -534.5q0 -203 -46 -491q-34 -217 -77.5 -381.5t-105.5 -301t-142 -229t-188 -156t-243 -92.5t-306 -29zM465 658
q0 -99 15.5 -174.5t54.5 -140.5t102.5 -107t162 -65.5t230.5 -23.5q137 0 247.5 27t190 69.5t142 119t102.5 151t74 191.5t53.5 215t42.5 245q55 345 55 504q0 125 -26 215t-88 159.5t-174 104.5t-276 35q-138 0 -248.5 -27t-190 -69t-142.5 -118.5t-102.5 -150.5t-73 -192
t-53 -215t-42.5 -246q-56 -353 -56 -507zM1383 2931h192l252 -371h-169l-192 275l-282 -275h-164z" />
    <glyph glyph-name="Otilde" unicode="&#xd5;" horiz-adv-x="2219" 
d="M1718 2870h127q-37 -139 -110.5 -214t-151.5 -75q-49 0 -86 16t-58 39.5t-39 46.5t-39.5 39t-48.5 16q-86 0 -136 -150h-127q36 139 109.5 214t152.5 75q49 0 85.5 -16t58 -39t39 -46t40 -39t49.5 -16q86 0 135 149zM326 1165q34 217 77.5 381.5t105.5 301t142.5 229
t188.5 156t243 92.5t307 29q395 0 563.5 -164t168.5 -536q0 -192 -46 -489q-34 -217 -77.5 -381.5t-106 -301t-142.5 -229t-188 -156t-243 -92.5t-306 -29q-396 0 -564.5 164t-168.5 535q0 203 46 490zM1030 147q137 0 247.5 27t189.5 69.5t142 119t103 151t74 191.5
t53.5 215t42.5 245q55 345 55 503q0 125 -26 215t-88.5 160t-174.5 105t-276 35q-138 0 -248.5 -27t-190 -69t-142 -119t-102.5 -150.5t-73.5 -192t-52.5 -215t-43 -245.5q-55 -345 -55 -506q0 -124 26 -213.5t88 -159t174.5 -104.5t276.5 -35z" />
    <glyph glyph-name="Odieresis" unicode="&#xd6;" horiz-adv-x="2219" 
d="M1012 -24q-395 0 -563.5 164t-168.5 535q0 202 46 490q34 217 77.5 381.5t105.5 301t142 229t188 156t243 92.5t307 29q396 0 564.5 -164t168.5 -536q0 -192 -46 -489q-34 -217 -77.5 -381.5t-106 -301t-142.5 -229t-188 -156t-243 -92.5t-307 -29zM465 659
q0 -124 26 -213.5t88 -159t174.5 -104.5t276.5 -35q137 0 247.5 27t189.5 69.5t141.5 119t102.5 151t74 191.5t53.5 215t42.5 245q55 345 55 504q0 125 -26 215t-88 159.5t-174 104.5t-276 35q-138 0 -248.5 -27t-190 -69t-142 -119t-102.5 -150.5t-73.5 -192t-52.5 -215
t-43 -245.5q-55 -345 -55 -506zM1189 2588q-54 0 -86 39t-23 94t53 94t98 39t86 -39t23 -94q-9 -56 -52.5 -94.5t-98.5 -38.5zM1665 2588q-55 0 -87 39t-23 94q9 56 53 94.5t99 38.5q54 0 85.5 -39t22.5 -94q-8 -55 -52 -94t-98 -39z" />
    <glyph glyph-name="multiply" unicode="&#xd7;" horiz-adv-x="1791" 
d="M1436 262l-485 589l-669 -589l-105 128l670 588l-483 588l147 129l483 -588l669 587l102 -126l-667 -587l485 -588z" />
    <glyph glyph-name="Oslash" unicode="&#xd8;" horiz-adv-x="2219" 
d="M489 105l-155 -205l-119 84l173 228q-108 160 -108 462q0 203 46 491q34 217 77.5 381.5t105.5 301t142.5 229t188.5 156t243 92.5t307 29q348 0 521 -130l157 207l119 -85l-174 -229q108 -161 108 -466q0 -197 -45 -486q-34 -217 -77.5 -381.5t-106 -301t-142.5 -229
t-188 -156t-243 -92.5t-306 -29q-352 0 -524 129zM1886 1949l-1279 -1689q135 -113 423 -113q137 0 247.5 27t189.5 69.5t142 119t103 151t74 191.5t53.5 215t42.5 245q55 345 55 503q0 175 -51 281zM515 380l1279 1690q-135 113 -422 113q-138 0 -248.5 -27t-190 -69
t-142 -119t-102 -150.5t-73 -192t-52.5 -214.5t-43 -246q-56 -353 -56 -507q0 -171 50 -278z" />
    <glyph glyph-name="Ugrave" unicode="&#xd9;" horiz-adv-x="2183" 
d="M2175 2330l-250 -1586q-28 -179 -87.5 -313t-141 -220t-194 -139.5t-235.5 -74.5t-278 -21q-135 0 -240 16t-195.5 55t-149.5 102t-92.5 160t-33.5 226q0 93 18 209l251 1586h191l-255 -1612q-13 -78 -13 -150q0 -213 131.5 -316.5t414.5 -103.5q331 0 499 139t214 431
l255 1612h191zM1388 2544l-332 371h255l242 -371h-165z" />
    <glyph glyph-name="Uacute" unicode="&#xda;" horiz-adv-x="2183" 
d="M2175 2330l-250 -1586q-28 -179 -87.5 -313t-141 -220t-194 -139.5t-235.5 -74.5t-278 -21q-135 0 -240 16t-195.5 55t-149.5 102t-92.5 160t-33.5 226q0 93 18 209l250 1586h192l-255 -1612q-13 -78 -13 -150q0 -213 131 -316.5t414 -103.5q331 0 499.5 139t214.5 431
l255 1612h191zM1254 2544l360 371h255l-449 -371h-166z" />
    <glyph glyph-name="Ucircumflex" unicode="&#xdb;" horiz-adv-x="2183" 
d="M2175 2330l-250 -1586q-28 -179 -87.5 -313t-141 -220t-194 -139.5t-235.5 -74.5t-278 -21q-135 0 -240 16t-195.5 55t-149.5 102t-92.5 160t-33.5 226q0 93 18 209l251 1586h191l-255 -1612q-13 -78 -13 -150q0 -213 131.5 -316.5t414.5 -103.5q331 0 499 139t214 431
l255 1612h191zM1372 2915h193l252 -371h-169l-192 275l-282 -275h-165z" />
    <glyph glyph-name="Udieresis" unicode="&#xdc;" horiz-adv-x="2183" 
d="M2176 2330l-252 -1586q-28 -179 -87.5 -313t-140.5 -220t-193.5 -139.5t-235.5 -74.5t-278 -21q-135 0 -240 16t-195.5 55t-150 102t-93 160t-33.5 225q0 94 18 210l252 1586h191l-255 -1612q-13 -86 -13 -149q0 -214 131.5 -317.5t414.5 -103.5q223 0 371 64
t229.5 187.5t112.5 318.5l256 1612h191zM1167 2596q-55 0 -86.5 38.5t-23.5 94.5q9 55 53 94t98 39q55 0 86.5 -38.5t22.5 -94.5q-8 -55 -52 -94t-98 -39zM1642 2596q-54 0 -86 39t-24 94q9 56 53 94.5t99 38.5q54 0 85.5 -38.5t23.5 -94.5q-9 -55 -53 -94t-98 -39z" />
    <glyph glyph-name="Yacute" unicode="&#xdd;" horiz-adv-x="1812" 
d="M1050 908l-144 -908h-194l144 908l-502 1422h211l424 -1215l818 1215h203zM1094 2534l360 371h255l-450 -371h-165z" />
    <glyph glyph-name="Thorn" unicode="&#xde;" horiz-adv-x="1964" 
d="M172 0l369 2330h191l-72 -456q250 28 497 28q99 0 180 -5.5t164 -20t147 -39t121 -64t94 -92t58.5 -126.5t21.5 -166q0 -76 -13 -158q-26 -166 -87.5 -288.5t-145 -198t-202 -121t-243 -62.5t-284.5 -17q-171 0 -516 18l-89 -562h-191zM479 735q229 -24 489 -24
q173 0 297 23t225 80t162 160t85 257q11 71 11 126q0 200 -142.5 289t-463.5 89q-234 0 -510 -35z" />
    <glyph glyph-name="germandbls" unicode="&#xdf;" horiz-adv-x="2007" 
d="M597 1603l-254 -1603h-182l254 1603q76 478 278 684t593 206q316 0 468 -116t152 -312q0 -47 -7 -90q-15 -96 -57.5 -169.5t-98.5 -119.5t-121.5 -83.5t-130 -69.5t-119 -67.5t-93.5 -89t-50 -122.5q-3 -21 -3 -41q0 -48 20.5 -87t55 -67t79.5 -52t95 -46.5t99.5 -47
t94.5 -58t79.5 -74t55 -100t20.5 -131.5q0 -50 -8 -97q-20 -130 -74.5 -224.5t-135 -148.5t-174.5 -79t-207 -25q-211 0 -435 62l41 155q209 -51 330 -51q45 0 72 1t77.5 6.5t84 16t77 32.5t71.5 52.5t52 79t34 109.5q5 35 5 60q0 58 -20.5 104.5t-55 79t-79.5 60t-94.5 51
t-98.5 48t-94 55t-79.5 67.5t-55 90.5t-20.5 119.5q0 39 7 80q15 95 57 166t98 114t120.5 77.5t129 67t119.5 71t96 101.5t54 148q4 21 4 48q0 127 -114.5 204t-349.5 77q-152 0 -258 -35.5t-187 -120t-132.5 -222.5t-84.5 -347z" />
    <glyph glyph-name="agrave" unicode="&#xe0;" horiz-adv-x="1819" 
d="M1686 1273l-138 -864q-26 -164 -53 -295q-313 -138 -731 -138q-318 0 -468 90t-150 305q0 56 11 128q77 484 514 549q235 35 806 55l18 109q14 84 14 145q0 104 -43 164.5t-144 89.5t-277 29q-214 0 -583 -53l8 157q386 61 649 61q105 0 187 -10t157.5 -37.5t125 -72
t79 -116t29.5 -167.5q0 -55 -11 -129zM803 138q281 0 531 89q30 159 51 296l67 425q-528 -10 -746 -51q-166 -31 -250.5 -117t-114.5 -275q-9 -56 -9 -100q0 -154 109 -210.5t362 -56.5zM1036 2501l209 -458h-155l-292 458h238z" />
    <glyph glyph-name="aacute" unicode="&#xe1;" horiz-adv-x="1820" 
d="M1686 1273l-137 -864q-28 -171 -54 -295q-313 -138 -731 -138q-318 0 -468 90t-150 305q0 56 11 128q77 484 514 549q235 35 806 55l18 109q14 84 14 145q0 104 -43 164.5t-144 89.5t-277 29q-214 0 -583 -53l8 157q386 61 649 61q105 0 187 -10t157.5 -37.5t125 -72
t79 -116t29.5 -167.5q0 -55 -11 -129zM803 138q282 0 531 89q30 159 51 296l67 425q-528 -10 -746 -51q-166 -31 -250 -117t-114 -275q-9 -56 -9 -101q0 -153 108.5 -209.5t361.5 -56.5zM1632 2498l-437 -458h-154l353 458h238z" />
    <glyph glyph-name="acircumflex" unicode="&#xe2;" horiz-adv-x="1819" 
d="M1685 1273l-137 -864q-26 -164 -53 -295q-313 -138 -731 -138q-318 0 -468 89.5t-150 304.5q0 55 11 129q77 484 514 549q233 35 806 55l17 109q13 86 13 143q0 105 -42.5 166t-143 90t-276.5 29q-214 0 -583 -53l8 157q192 30 337.5 45.5t310.5 15.5q105 0 187 -10
t157.5 -37.5t125 -72t79 -116t29.5 -167.5q0 -55 -11 -129zM803 138q281 0 530 89q29 143 52 296l67 425q-528 -10 -746 -51q-166 -31 -250.5 -117t-114.5 -275q-9 -56 -9 -100q0 -153 108.5 -210t362.5 -57zM1524 2030h-158l-167 340l-276 -340h-154l357 458h180z" />
    <glyph glyph-name="atilde" unicode="&#xe3;" horiz-adv-x="1820" 
d="M1686 1273l-137 -864q-28 -171 -54 -295q-313 -138 -731 -138q-318 0 -468 90t-150 305q0 56 11 128q77 484 514 549q234 35 806 55l18 109q14 84 14 145q0 104 -43 164.5t-144 89.5t-277 29q-215 0 -582 -53l7 157q386 61 649 61q105 0 187 -10t157.5 -37.5t125 -72
t79 -116t29.5 -167.5q0 -55 -11 -129zM1058 2422q49 0 85.5 -17t57.5 -41t39 -47.5t39.5 -40.5t48.5 -17q44 0 77.5 37.5t60.5 118.5h126q-38 -145 -111.5 -223.5t-152.5 -78.5q-49 0 -85.5 17t-57.5 40.5t-39 47.5t-39.5 41t-48.5 17q-43 0 -76 -37.5t-60 -117.5h-127
q37 145 110.5 223t152.5 78zM1386 523l67 425q-527 -10 -747 -51q-166 -31 -250 -117t-114 -275q-9 -56 -9 -100q0 -153 108.5 -210t361.5 -57q282 0 531 89q35 187 52 296z" />
    <glyph glyph-name="adieresis" unicode="&#xe4;" horiz-adv-x="1819" 
d="M1685 1273l-137 -864q-26 -164 -53 -295q-313 -138 -731 -138q-318 0 -468 90t-150 305q0 56 11 128q77 484 514 549q235 35 806 55l18 109q14 84 14 145q0 104 -43 164.5t-144 89.5t-277 29q-214 0 -583 -53l8 157q192 30 337.5 45.5t310.5 15.5q105 0 187 -10
t157.5 -37.5t125 -72t79 -116t29.5 -167.5q0 -55 -11 -129zM803 138q281 0 531 89q18 93 51 296l68 425q-529 -10 -747 -51q-166 -31 -250.5 -117t-114.5 -275q-9 -56 -9 -100q0 -154 109 -210.5t362 -56.5zM980 2387q54 0 86 -39t23 -94q-10 -56 -53.5 -94.5t-97.5 -38.5
q-55 0 -87 39t-23 94q9 56 53 94.5t99 38.5zM1304 2254q9 55 53 94t98 39q55 0 86.5 -38.5t22.5 -94.5q-9 -55 -53 -94t-98 -39t-86 39t-23 94z" />
    <glyph glyph-name="aring" unicode="&#xe5;" horiz-adv-x="1819" 
d="M1685 1273l-137 -864q-26 -164 -53 -295q-313 -138 -731 -138q-318 0 -468 90t-150 305q0 56 11 128q77 484 514 549q235 35 806 55l18 109q14 84 14 145q0 104 -43 164.5t-144 89.5t-277 29q-214 0 -583 -53l8 157q386 61 649 61q105 0 187 -10t157.5 -37t125 -71.5
t78.5 -116t29 -167.5q0 -56 -11 -130zM803 138q281 0 531 89q30 159 51 296l67 425q-528 -10 -746 -51q-166 -31 -250.5 -117t-114.5 -275q-9 -56 -9 -100q0 -154 109 -210.5t362 -56.5zM1508 2361q0 -28 -4 -51q-21 -132 -127 -225t-236 -93q-115 0 -189.5 76t-74.5 190
q0 28 4 52q21 131 127 224t234 93q116 0 191 -76t75 -190zM1160 2112q81 0 147.5 57.5t79.5 140.5q2 11 2 31q0 71 -47 118.5t-119 47.5q-80 0 -146 -57.5t-79 -139.5q-3 -16 -3 -32q0 -72 46.5 -119t118.5 -47z" />
    <glyph glyph-name="ae" unicode="&#xe6;" horiz-adv-x="3065" 
d="M1480 107q-309 -131 -717 -131q-318 0 -467.5 90t-149.5 305q0 56 11 128q77 484 513 549q234 35 807 55l17 109q14 84 14 144q0 105 -43 165.5t-143.5 89.5t-276.5 29q-216 0 -583 -53l8 157q386 61 649 61q112 0 197.5 -12.5t161.5 -42.5t125 -86t69 -138
q106 144 270 211.5t404 67.5q176 0 301.5 -37.5t199.5 -110.5t108 -171t34 -229q0 -101 -20 -226q-13 -88 -34 -184q-152 -25 -417 -50t-453 -33l-458 -19q-6 -77 -6 -144q0 -92 13 -159t47.5 -126.5t94 -96t153.5 -57.5t224 -21q252 0 620 52l-7 -160q-193 -29 -351.5 -43
t-380.5 -14q-382 0 -513 247zM1385 523l68 425q-529 -10 -748 -51q-165 -31 -249.5 -117t-114.5 -275q-9 -56 -9 -100q0 -153 108.5 -210t362.5 -57q283 0 530 89q25 134 52 296zM2799 1118q11 72 11 131q0 190 -116 292t-374 102q-117 0 -208 -18.5t-161.5 -60
t-121.5 -99.5t-89.5 -144.5t-65 -186.5t-47.5 -235l509 24q333 16 637 53q11 51 26 142z" />
    <glyph glyph-name="ccedilla" unicode="&#xe7;" horiz-adv-x="1439" 
d="M1506 1611q-146 28 -282 28q-108 0 -194 -10t-155 -33.5t-121 -53.5t-92.5 -78.5t-69 -100t-51.5 -127t-39 -149.5t-32 -177q-35 -220 -35 -338q0 -107 25 -182t85 -132.5t168.5 -85.5t267.5 -28q107 0 299 38l-7 -158q-234 -45 -394 -48l-100 -127q96 -4 157 -53.5
t61 -134.5q0 -17 -3 -37q-14 -89 -71 -148t-131.5 -83t-163.5 -24q-124 0 -207 50l56 106q85 -41 174 -41q66 0 119.5 29.5t64.5 96.5q7 42 -16 75t-63.5 51.5t-82.5 27.5t-80 9l153 208q-111 10 -196 43.5t-140.5 85t-91 124.5t-50.5 155.5t-15 183.5q0 143 31 337
q21 131 46 233.5t62.5 198.5t86 166t115.5 128t152 94t194 55.5t243 19.5q188 0 362 -46z" />
    <glyph glyph-name="egrave" unicode="&#xe8;" horiz-adv-x="1902" 
d="M280 891q39 248 104 416.5t172 282t259.5 164.5t366.5 51q176 0 302 -37.5t200 -110.5t108 -171.5t34 -229.5q0 -102 -20 -225q-20 -119 -34 -184q-152 -25 -417 -50t-453 -33l-460 -19q-6 -104 -6 -147q0 -76 9 -133.5t30.5 -111.5t60.5 -91t97.5 -65.5t142 -42
t193.5 -13.5q254 0 620 52l-7 -160q-193 -29 -351 -43t-380 -14q-133 0 -235 28.5t-170 80t-111.5 128.5t-62.5 168t-19 204q0 133 27 306zM462 899l510 24q332 16 637 53q15 68 27 142q12 71 12 134q0 188 -115.5 289.5t-371.5 101.5q-172 0 -291.5 -42.5t-200 -137.5
t-128 -228.5t-79.5 -335.5zM1180 2501l208 -458h-155l-292 458h239z" />
    <glyph glyph-name="eacute" unicode="&#xe9;" horiz-adv-x="1902" 
d="M280 891q39 248 104 416.5t172 282t259.5 164.5t367.5 51q176 0 301.5 -37.5t199.5 -110.5t108 -171.5t34 -229.5q0 -102 -20 -225q-20 -119 -34 -184q-152 -25 -417 -50t-453 -33l-460 -19q-6 -104 -6 -147q0 -76 9 -133.5t30.5 -111.5t60.5 -91t97.5 -65.5t142 -42
t193.5 -13.5q254 0 620 52l-7 -160q-193 -29 -351 -43t-380 -14q-165 0 -282.5 43t-185.5 125.5t-99 191t-31 250.5q0 133 27 305zM462 899l510 24q332 16 637 53q15 68 27 142q11 74 11 133q0 93 -26.5 163t-83 122.5t-151 79.5t-225.5 27q-172 0 -291.5 -42.5t-200 -137.5
t-128 -228.5t-79.5 -335.5zM1733 2493l-437 -458h-154l353 458h238z" />
    <glyph glyph-name="ecircumflex" unicode="&#xea;" horiz-adv-x="1902" 
d="M280 891q39 248 104 416.5t172 282t259.5 164.5t366.5 51q176 0 302 -37.5t200 -110.5t108 -171.5t34 -229.5q0 -102 -20 -225q-20 -119 -34 -184q-152 -25 -417 -50t-453 -33l-460 -19q-6 -104 -6 -147q0 -76 9 -133.5t30.5 -111.5t60.5 -91t97.5 -65.5t142 -42
t193.5 -13.5q254 0 620 52l-7 -160q-193 -29 -351 -43t-380 -14q-165 0 -282.5 43t-185.5 125.5t-99 191t-31 250.5q0 133 27 305zM462 899l510 24q332 16 637 53q15 68 27 142q11 74 11 133q0 93 -26.5 163t-83 122.5t-151 79.5t-225.5 27q-172 0 -291.5 -42.5t-200 -137.5
t-128 -228.5t-79.5 -335.5zM1622 2030h-158l-167 340l-277 -340h-154l357 458h180z" />
    <glyph glyph-name="edieresis" unicode="&#xeb;" horiz-adv-x="1902" 
d="M280 891q39 248 104 416.5t172 282t259.5 164.5t366.5 51q176 0 302 -37.5t200 -110.5t108 -171.5t34 -229.5q0 -102 -20 -225q-20 -119 -34 -184q-152 -25 -417 -50t-453 -33l-460 -19q-6 -104 -6 -147q0 -76 9 -133.5t30.5 -111.5t60.5 -91t97.5 -65.5t142 -42
t193.5 -13.5q254 0 620 52l-7 -160q-193 -29 -351 -43t-380 -14q-133 0 -235 28.5t-170 80t-111.5 128.5t-62.5 168t-19 204q0 133 27 306zM462 899l510 24q332 16 637 53q15 68 27 142q11 74 11 133q0 93 -26.5 163t-83 122.5t-151 79.5t-225.5 27q-172 0 -291.5 -42.5
t-200 -137.5t-128 -228.5t-79.5 -335.5zM928 2254q9 56 52.5 94.5t98.5 38.5q54 0 86 -39t23 -94q-9 -56 -53 -94.5t-99 -38.5q-54 0 -85.5 39t-22.5 94zM1554 2387q54 0 86 -39t23 -94q-10 -56 -53.5 -94.5t-97.5 -38.5q-55 0 -87 39t-23 94t53.5 94t98.5 39z" />
    <glyph glyph-name="igrave" unicode="&#xec;" horiz-adv-x="679" 
d="M150 0l282 1781h182l-282 -1781h-182zM485 2066l-293 458h238l209 -458h-154z" />
    <glyph glyph-name="iacute" unicode="&#xed;" horiz-adv-x="680" 
d="M150 0l282 1781h183l-282 -1781h-183zM499 2066l352 458h238l-436 -458h-154z" />
    <glyph glyph-name="icircumflex" unicode="&#xee;" horiz-adv-x="681" 
d="M550 2534h180l219 -458h-158l-168 340l-275 -340h-155zM150 0l282 1781h184l-282 -1781h-184z" />
    <glyph glyph-name="idieresis" unicode="&#xef;" horiz-adv-x="681" 
d="M343 2136q-54 0 -86 39t-23 94t53.5 94t98.5 39t85.5 -39t22.5 -94q-9 -56 -52.5 -94.5t-98.5 -38.5zM709 2269q9 55 53.5 94t98.5 39t85.5 -39t22.5 -94q-9 -56 -52.5 -94.5t-97.5 -38.5q-55 0 -87 39t-23 94zM150 0l282 1781h184l-282 -1781h-184z" />
    <glyph glyph-name="eth" unicode="&#xf0;" horiz-adv-x="1925" 
d="M1580 2247l291 102l49 -116l-288 -101q143 -357 143 -813q0 -220 -35 -444q-39 -245 -105 -412t-175 -277.5t-260.5 -160t-363.5 -49.5q-344 0 -496.5 133t-152.5 442q0 138 29 324q39 246 105.5 412.5t175 274.5t259 155.5t363.5 47.5q302 0 446 -116q-34 218 -112 420
l-299 -105l-46 117l296 104q-65 136 -148 254l170 54q89 -113 154 -246zM1583 1175q0 234 -110 329.5t-370 95.5q-166 0 -277.5 -32.5t-197.5 -115.5t-139 -222t-87 -355q-29 -186 -29 -312q0 -123 27 -204t87.5 -129.5t147.5 -68.5t217 -20q221 0 357 67.5t218.5 225.5
t127.5 441q28 171 28 300z" />
    <glyph glyph-name="ntilde" unicode="&#xf1;" horiz-adv-x="1971" 
d="M570 1247l-197 -1247h-182l216 1364q26 164 53 295q167 66 379 106t432 40q134 0 234 -20t162.5 -55t101 -89t53.5 -114t15 -137q0 -92 -22 -227l-184 -1163h-182l176 1118q20 130 20 206q0 113 -40.5 179.5t-144.5 101.5t-285 35q-121 0 -288.5 -29t-264.5 -68
q-35 -187 -52 -296zM1558 2425h126q-38 -146 -111 -224t-152 -78q-49 0 -85.5 17t-58 40.5t-39 47.5t-39.5 41t-49 17q-85 0 -135 -155h-128q38 145 111.5 223t152.5 78q49 0 85.5 -17t57.5 -41t39 -47.5t40 -40.5t49 -17q86 0 136 156z" />
    <glyph glyph-name="ograve" unicode="&#xf2;" horiz-adv-x="1960" 
d="M905 -24q-343 0 -495 134.5t-152 446.5q0 145 30 334q40 253 107 424t176.5 282t260 159.5t363.5 48.5q342 0 494.5 -137.5t152.5 -448.5q0 -134 -30 -328q-40 -249 -107 -419.5t-176 -282.5t-260.5 -162.5t-363.5 -50.5zM474 891q-30 -189 -30 -322q0 -124 26.5 -206.5
t87 -131.5t147.5 -69.5t217 -20.5q166 0 280.5 36.5t199.5 125t137.5 230t87.5 358.5q30 186 30 318q0 238 -109.5 334.5t-368.5 96.5q-132 0 -228.5 -21t-176 -71t-135 -137t-96.5 -213.5t-69 -306.5zM1228 2043l-292 458h238l208 -458h-154z" />
    <glyph glyph-name="oacute" unicode="&#xf3;" horiz-adv-x="1960" 
d="M258 557q0 145 30 334q40 253 107 424t176 282t260 159.5t363 48.5q342 0 495 -137.5t153 -449.5q0 -133 -30 -327q-39 -249 -106 -419.5t-176 -282.5t-261 -162.5t-364 -50.5q-343 0 -495 134.5t-152 446.5zM443 569q0 -124 27 -206.5t87 -131.5t147 -69.5t217 -20.5
q166 0 280.5 36.5t200 125t138 230t87.5 358.5q30 186 30 319q0 238 -109.5 334t-368.5 96q-166 0 -278 -33t-198.5 -118.5t-140.5 -229.5t-89 -368q-30 -189 -30 -322zM1099 2057l354 458h238l-437 -458h-155z" />
    <glyph glyph-name="ocircumflex" unicode="&#xf4;" horiz-adv-x="1960" 
d="M905 -24q-343 0 -495 134.5t-152 446.5q0 145 30 334q40 254 107 424.5t176.5 281.5t260 159.5t363.5 48.5q342 0 494.5 -137.5t152.5 -448.5q0 -134 -30 -328q-40 -249 -107 -419.5t-176 -282.5t-260.5 -162.5t-363.5 -50.5zM443 569q0 -124 27 -206.5t87 -131.5
t147 -69.5t217 -20.5q221 0 357.5 69t220 231t128.5 450q30 186 30 318q0 238 -110 334.5t-369 96.5q-166 0 -277.5 -33t-198 -118.5t-140 -229t-89.5 -368.5q-30 -189 -30 -322zM1210 2498h180l219 -458h-159l-166 340l-277 -340h-154z" />
    <glyph glyph-name="otilde" unicode="&#xf5;" horiz-adv-x="1960" 
d="M1538 2405h126q-37 -145 -110.5 -223.5t-152.5 -78.5q-49 0 -85.5 17t-57.5 40.5t-38.5 47.5t-39.5 41t-49 17q-43 0 -76 -37.5t-60 -117.5h-127q37 145 110 223t152 78q49 0 86 -17t58 -41t38.5 -47.5t39.5 -40.5t49 -17q87 0 137 156zM288 891q40 254 107 424.5
t176 281.5t259.5 159.5t363.5 48.5q342 0 495 -137.5t153 -449.5q0 -133 -30 -327q-40 -249 -107 -419.5t-176 -282.5t-260.5 -162.5t-363.5 -50.5q-343 0 -495 134.5t-152 446.5q0 145 30 334zM1657 1209q0 238 -109.5 334.5t-368.5 96.5q-132 0 -228.5 -21t-176 -71
t-135 -137t-96.5 -213.5t-70 -306.5q-31 -197 -31 -323q0 -124 27 -206.5t87.5 -131.5t147.5 -69t217 -20q166 0 280.5 36.5t200 125t138 230t87.5 358.5q30 186 30 318z" />
    <glyph glyph-name="odieresis" unicode="&#xf6;" horiz-adv-x="1960" 
d="M258 557q0 145 30 334q40 254 107 424.5t176 281.5t259.5 159.5t363.5 48.5q342 0 495 -137.5t153 -449.5q0 -133 -30 -327q-39 -249 -106 -419.5t-176 -282.5t-261 -162.5t-364 -50.5q-343 0 -495 134.5t-152 446.5zM442 568q0 -124 27 -206.5t87.5 -131.5t147 -69
t216.5 -20q221 0 357.5 69t220 231t129.5 450q30 186 30 318q0 238 -110 334.5t-369 96.5q-132 0 -228.5 -21t-176 -71t-135 -137t-96.5 -213.5t-69 -306.5q-31 -197 -31 -323zM1158 2254q-9 -56 -53 -94.5t-99 -38.5q-54 0 -85.5 39t-22.5 94q9 56 52.5 94.5t98.5 38.5
q54 0 86 -39t23 -94zM1482 2121q-55 0 -87 39t-23 94t53.5 94t98.5 39t86 -39t23 -94q-10 -56 -53.5 -94.5t-97.5 -38.5z" />
    <glyph glyph-name="divide" unicode="&#xf7;" horiz-adv-x="1910" 
d="M896 118q-65 0 -103 47t-28 113q10 67 63.5 114t118.5 47t103 -47t28 -114q-10 -66 -63.5 -113t-118.5 -47zM1300 1679q-10 -66 -63.5 -113t-118.5 -47q-64 0 -102.5 47t-28.5 113t63.5 113t117.5 47q65 0 103.5 -46.5t28.5 -113.5zM232 891l28 176h1573l-28 -176h-1573z
" />
    <glyph glyph-name="oslash" unicode="&#xf8;" horiz-adv-x="1959" 
d="M462 71l-148 -181l-97 78l151 186q-111 134 -111 402q0 140 31 335q40 254 107 424.5t176.5 281.5t260 159.5t363.5 48.5q290 0 441 -98l150 184l97 -78l-154 -189q111 -137 111 -406q0 -139 -29 -327q-39 -249 -106 -419.5t-176 -282.5t-261 -162.5t-363 -50.5
q-293 0 -443 95zM1657 1208q0 167 -53 263l-1026 -1257q107 -73 343 -73q221 0 357.5 69t220 231t128.5 450q30 194 30 317zM494 307l1026 1258q-109 75 -342 75q-132 0 -228.5 -21t-176 -71t-135 -137t-96.5 -213.5t-69 -306.5q-31 -197 -31 -323q0 -166 52 -261z" />
    <glyph glyph-name="ugrave" unicode="&#xf9;" horiz-adv-x="1964" 
d="M283 618l184 1163h182l-177 -1118q-22 -139 -22 -215q0 -111 40.5 -175.5t144.5 -98t288 -33.5q120 0 285.5 29t261.5 68q18 92 52 296l198 1247h181l-216 -1364q-24 -150 -52 -295q-168 -66 -378.5 -106t-427.5 -40q-134 0 -234 20t-162.5 55t-101 89t-53.5 114t-15 137
q0 92 22 227zM1198 2066l-292 458h238l208 -458h-154z" />
    <glyph glyph-name="uacute" unicode="&#xfa;" horiz-adv-x="1964" 
d="M283 618l184 1163h182l-177 -1118q-22 -139 -22 -215q0 -111 40.5 -175.5t144.5 -98t288 -33.5q119 0 284.5 29t262.5 68q35 187 52 296l197 1247h182l-216 -1364q-26 -164 -53 -295q-168 -66 -378 -106t-428 -40q-134 0 -233.5 20t-162 55t-101 89t-53.5 114t-15 137
q0 92 22 227zM1120 2086l354 458h237l-437 -458h-154z" />
    <glyph glyph-name="ucircumflex" unicode="&#xfb;" horiz-adv-x="1965" 
d="M283 618l184 1163h183l-178 -1118q-22 -139 -22 -215q0 -111 40.5 -175.5t145 -98t288.5 -33.5q119 0 284.5 29t261.5 68q29 143 52 296l198 1247h182l-216 -1364q-19 -117 -53 -295q-169 -66 -378.5 -106t-427.5 -40q-134 0 -234 20t-162.5 55t-101 89t-53.5 114
t-15 137q0 92 22 227zM1214 2554h180l219 -458h-159l-167 340l-276 -340h-154z" />
    <glyph glyph-name="udieresis" unicode="&#xfc;" horiz-adv-x="1965" 
d="M283 618l185 1163h182l-177 -1118q-22 -139 -22 -216q0 -110 40.5 -174.5t144.5 -98t288 -33.5q119 0 284.5 29t261.5 68q33 164 53 296l197 1247h182l-216 -1364q-19 -117 -53 -295q-169 -66 -378.5 -106t-427.5 -40q-134 0 -234 20t-162.5 55t-101 89t-53.5 114
t-15 137q0 92 22 227zM1007 2157q-54 0 -86 39t-23 94q8 55 52 94t98 39q55 0 86.5 -38.5t23.5 -94.5q-9 -55 -53 -94t-98 -39zM1483 2157q-55 0 -87 39t-23 94q8 55 52.5 94t98.5 39t85.5 -38.5t23.5 -94.5q-9 -56 -52.5 -94.5t-97.5 -38.5z" />
    <glyph glyph-name="yacute" unicode="&#xfd;" horiz-adv-x="1657" 
d="M907 382l688 1399h184l-1198 -2437h-186l387 783l-445 1654h198zM1020 2046l355 458h237l-437 -458h-155z" />
    <glyph glyph-name="thorn" unicode="&#xfe;" horiz-adv-x="1908" 
d="M87 -656l472 2986h183l-95 -599q289 74 535 74q319 0 463 -131t144 -440q0 -151 -31 -343q-54 -341 -159 -540.5t-274.5 -287t-432.5 -87.5q-246 0 -511 74l-112 -706h-182zM407 217q88 -33 209.5 -55t230.5 -22q124 0 218.5 16.5t169 55t127 94.5t93.5 143.5t68 192.5
t50 249q31 192 31 320q0 236 -116 333t-402 97q-109 0 -238.5 -22.5t-226.5 -54.5z" />
    <glyph glyph-name="ydieresis" unicode="&#xff;" horiz-adv-x="1657" 
d="M910 2127q-55 0 -87 39t-23 94q8 55 53 94t99 39t85 -38.5t23 -94.5q-9 -56 -52.5 -94.5t-97.5 -38.5zM1385 2127q-55 0 -87 39t-23 94t53.5 94t99.5 39q54 0 85.5 -39t22.5 -94q-8 -55 -52 -94t-99 -39zM907 382l687 1399h185l-1199 -2437h-186l389 783l-446 1654h198z
" />
    <glyph glyph-name="Abreve" unicode="&#x102;" horiz-adv-x="2140" 
d="M1683 2904h129q-40 -146 -148 -237t-282 -91q-89 0 -154.5 25.5t-103 71t-53.5 103.5t-13 128h127q1 -87 55.5 -145.5t161.5 -58.5t179.5 58t101.5 146zM7 0l1182 2221q70 133 165 133q49 0 78.5 -32.5t43.5 -100.5l470 -2221h-205l-144 690h-1030l-363 -690h-197z
M1563 854l-257 1237l-652 -1237h909z" />
    <glyph glyph-name="abreve" unicode="&#x103;" horiz-adv-x="1820" 
d="M1686 1273l-137 -864q-22 -139 -54 -295q-313 -138 -732 -138q-318 0 -467.5 90t-149.5 305q0 56 11 128q77 484 514 549q235 35 807 55l16 109q12 80 12 141q0 106 -41.5 167t-142 90.5t-276.5 29.5q-218 0 -583 -53l8 157q384 61 648 61q105 0 187 -10t157.5 -37.5
t125 -72t79 -116t29.5 -167.5q0 -55 -11 -129zM803 138q282 0 531 89q35 187 52 296l67 425q-529 -10 -746 -51q-166 -31 -250.5 -117t-114.5 -275q-9 -56 -9 -101q0 -153 108.5 -209.5t361.5 -56.5zM1493 2441h129q-21 -81 -57 -147.5t-88.5 -119.5t-127 -82t-164.5 -29
q-163 0 -240.5 92.5t-77.5 245.5q0 26 1 40h128q-2 -100 51.5 -167.5t159.5 -67.5q108 0 182 67t104 168z" />
    <glyph glyph-name="Aogonek" unicode="&#x104;" horiz-adv-x="2140" 
d="M1969 -456l22 -101q-54 -37 -122 -58.5t-129 -21.5q-105 0 -169.5 55.5t-64.5 152.5q0 26 4 47q16 103 92.5 204t170.5 178h-33l-144 690h-1029l-364 -690h-196l1182 2221q71 133 165 133q95 0 123 -133l468 -2221h-53q-193 -174 -215 -317q-3 -19 -3 -37q0 -64 38 -101
t106 -37q83 0 151 36zM1562 854l-256 1237l-653 -1237h909z" />
    <glyph glyph-name="aogonek" unicode="&#x105;" horiz-adv-x="1820" 
d="M1477 1103l17 109q14 84 14 144q0 105 -43 165.5t-143.5 89.5t-276.5 29q-216 0 -583 -53l8 157q386 61 649 61q104 0 186 -10t157.5 -37.5t125 -72t79 -116.5t29.5 -168q0 -54 -11 -128l-136 -864q-25 -152 -55 -295q-133 -59 -290 -94q-149 -153 -167 -270
q-3 -20 -3 -37q0 -64 38.5 -101t106.5 -37q82 0 150 36l23 -101q-54 -37 -123 -58.5t-129 -21.5q-105 0 -169.5 55.5t-64.5 152.5q0 26 4 47q24 150 183 309q-142 -18 -290 -18q-318 0 -467.5 90t-149.5 305q0 56 11 128q77 484 513 549q234 35 807 55zM706 897
q-166 -31 -250.5 -117t-114.5 -275q-9 -56 -9 -100q0 -153 108.5 -210t362.5 -57q282 0 531 89q18 93 51 296l68 425q-528 -10 -747 -51z" />
    <glyph glyph-name="Cacute" unicode="&#x106;" horiz-adv-x="1692" 
d="M1540 25q-259 -49 -507 -49q-282 0 -450.5 76.5t-241.5 228.5t-73 400q0 198 45 484q29 184 64 327t83 270t109.5 219t142.5 165t183.5 117.5t229.5 67.5t284 23q265 0 493 -46l-45 -162q-236 37 -373 37q-157 0 -280.5 -22t-216 -59.5t-163 -105.5t-119 -142.5
t-86 -189.5t-62 -226.5t-49.5 -272.5q-47 -299 -47 -461q0 -117 21 -203.5t69.5 -155.5t129 -111.5t200 -64.5t281.5 -22q128 0 384 36zM1819 2930l-449 -371h-166l360 371h255z" />
    <glyph glyph-name="cacute" unicode="&#x107;" horiz-adv-x="1439" 
d="M1272 24q-251 -48 -429 -48q-134 0 -236 28.5t-168.5 79.5t-108.5 127t-59.5 163.5t-17.5 197.5q0 142 31 338q18 114 39.5 206t51.5 179.5t68.5 154.5t89 126t114.5 100t143.5 71t177 44t214.5 14q190 0 362 -46l-39 -148q-146 28 -282 28q-107 0 -193.5 -10t-155 -33.5
t-120.5 -53.5t-92.5 -78.5t-69 -100t-51.5 -127t-39 -149.5t-32 -177q-35 -220 -35 -338q0 -107 25 -182t85 -132.5t168.5 -85.5t267.5 -28q106 0 298 38zM1538 2498l-437 -458h-154l353 458h238z" />
    <glyph glyph-name="Ccaron" unicode="&#x10c;" horiz-adv-x="1692" 
d="M1540 25q-259 -49 -508 -49q-212 0 -358 41t-236.5 129.5t-130.5 218t-40 314.5q0 193 46 486q29 184 64 327t83 270t109.5 219t142.5 165t183.5 117.5t229.5 67.5t284 23q265 0 492 -46l-45 -162q-236 37 -372 37q-157 0 -280.5 -22t-216 -59.5t-163 -105.5t-119 -142.5
t-86 -189.5t-62 -226.5t-49.5 -272.5q-47 -300 -47 -463q0 -146 33.5 -246.5t113 -171.5t215.5 -104t338 -33q129 0 385 36zM1349 2655l282 275h164l-363 -371h-192l-253 371h169z" />
    <glyph glyph-name="ccaron" unicode="&#x10d;" horiz-adv-x="1439" 
d="M1273 24q-251 -48 -430 -48q-134 0 -236 28.5t-168.5 79.5t-108.5 127t-59.5 163.5t-17.5 197.5q0 142 31 338q18 114 39.5 206t51.5 179.5t68.5 154.5t89 126t114.5 100t143.5 71t177 44t214.5 14q190 0 362 -46l-39 -148q-144 28 -282 28q-107 0 -193.5 -10t-155 -33.5
t-120.5 -53.5t-92.5 -78.5t-69 -100t-51.5 -127t-39 -149.5t-32 -177q-35 -220 -35 -338q0 -107 25 -182t85 -132.5t168.5 -85.5t267.5 -28q106 0 298 38zM1115 2161l277 340h154l-356 -458h-181l-218 458h157z" />
    <glyph glyph-name="Dcaron" unicode="&#x10e;" horiz-adv-x="2191" 
d="M555 2305q325 49 688 49q193 0 336 -29t240.5 -84t157 -142t85.5 -196t26 -254q0 -189 -47 -484q-22 -139 -45.5 -250t-56 -219t-72 -191.5t-91.5 -160.5t-115.5 -133t-144 -102t-177.5 -74.5t-215 -43.5t-257 -15q-344 0 -672 52zM722 2152l-312 -1972q242 -34 415 -34
q479 0 705 193q155 132 231 391q39 134 86 435q52 327 52 466q0 105 -19.5 186t-70.5 152t-134.5 117t-216 72t-310.5 26q-162 0 -426 -32zM1358 2658l282 275h164l-363 -371h-192l-254 371h170z" />
    <glyph glyph-name="dcaron" unicode="&#x10f;" horiz-adv-x="1881" 
d="M1603 1731l117 738h182l-327 -2060q-26 -164 -53 -295q-286 -138 -665 -138q-172 0 -293 30.5t-205 99.5t-123.5 181.5t-39.5 276.5q0 142 30 327q41 257 107.5 430t172.5 281.5t247 155.5t338 47q247 0 512 -74zM1137 1641q-125 0 -219 -16.5t-168.5 -55t-127.5 -94.5
t-93.5 -143t-67.5 -191.5t-50 -249.5q-26 -164 -26 -284q0 -248 117 -358t381 -110q116 0 244.5 23t232.5 67q20 97 52 296l165 1039q-87 32 -209 54.5t-231 22.5zM2472 2469l-351 -700h-133l301 700h183z" />
    <glyph glyph-name="Dcroat" unicode="&#x110;" horiz-adv-x="2291" 
d="M469 1129h-204l23 151h205l163 1025q323 49 687 49q240 0 404 -43t260.5 -134t138 -218.5t41.5 -309.5q0 -195 -46 -484q-22 -139 -46 -250t-56.5 -219t-72 -191.5t-91.5 -161t-115.5 -133t-144 -101.5t-177.5 -74.5t-215 -43.5t-257 -15q-344 0 -671 52zM660 1129
l-150 -949q242 -34 415 -34q479 0 705 193q155 131 231 390q39 132 87 436q51 319 51 465q0 106 -19.5 186.5t-70.5 152t-134.5 117.5t-215.5 72t-311 26q-161 0 -426 -32l-138 -872h378l-24 -151h-378z" />
    <glyph glyph-name="dcroat" unicode="&#x111;" horiz-adv-x="1882" 
d="M2082 2048h-246l-260 -1639q-26 -164 -53 -295q-286 -138 -665 -138q-172 0 -293 30.5t-205 99.5t-123.5 181.5t-39.5 276.5q0 142 30 327q54 341 159 540t274 286.5t432 87.5q246 0 512 -74l50 317h-359l21 134h359l46 287h182l-46 -287h246zM1137 1641
q-125 0 -219 -16.5t-168.5 -55t-127.5 -94.5t-93.5 -143t-67.5 -191.5t-50 -249.5q-26 -164 -26 -283q0 -249 117 -359t382 -110q115 0 243.5 23t232.5 67q20 97 52 296l165 1039q-87 32 -209 54.5t-231 22.5z" />
    <glyph glyph-name="Eogonek" unicode="&#x118;" horiz-adv-x="1733" 
d="M1831 2323l-25 -157h-555q-120 0 -202 -7.5t-148 -29.5t-106.5 -53.5t-72 -89t-49.5 -126.5t-35 -174l-66 -416h1045l-27 -165h-1044l-73 -464q-21 -132 -21 -208q0 -67 15.5 -112.5t47.5 -77t91.5 -48.5t136 -24t191.5 -7h555l-25 -160q-104 -5 -203 -6
q-189 -175 -212 -315q-3 -19 -3 -37q0 -64 38.5 -101t106.5 -37q83 0 151 36l22 -101q-53 -37 -122.5 -58.5t-129.5 -21.5q-105 0 -169.5 55.5t-64.5 152.5q0 26 4 47q16 101 90.5 200.5t167.5 176.5q-75 -1 -222 -1q-68 0 -114.5 1t-108.5 5t-104.5 11.5t-93 21t-84.5 33
t-67.5 48t-53.5 65t-32 85.5t-12 108q0 58 10 121l212 1341q16 100 50.5 178.5t77 131t108 89.5t124 57t145.5 30.5t152 13t162 2.5q227 0 542 -13z" />
    <glyph glyph-name="eogonek" unicode="&#x119;" horiz-adv-x="1902" 
d="M280 891q39 248 104 416.5t172 282t259.5 164.5t367.5 51q176 0 301.5 -37.5t199.5 -110.5t108 -171.5t34 -230.5q0 -107 -19 -224q-14 -84 -34 -184q-153 -25 -418 -50t-453 -33l-459 -19q-6 -104 -6 -148q0 -91 12.5 -157.5t47 -125.5t93.5 -95t154 -57t226 -21
q253 0 619 52l-6 -160q-216 -33 -386 -45q-172 -165 -191 -295q-3 -20 -3 -37q0 -64 38 -101t106 -37q82 0 150 36l23 -101q-53 -37 -122 -58.5t-130 -21.5q-105 0 -169 55.5t-64 152.5q0 26 4 47q27 172 227 352q-130 -4 -215 -4q-165 0 -282.5 43t-185.5 125.5t-99 191
t-31 250.5q0 133 27 305zM463 899l509 24q333 16 638 53q11 51 26 142q12 71 12 135q0 188 -115 289t-372 101q-115 0 -205.5 -19t-161.5 -60t-123.5 -99t-92 -144t-67 -187.5t-48.5 -234.5z" />
    <glyph glyph-name="Ecaron" unicode="&#x11a;" horiz-adv-x="1733" 
d="M1831 2323l-24 -157h-555q-120 0 -202 -7.5t-148 -29.5t-106.5 -53.5t-72 -89t-49.5 -126.5t-35 -174l-67 -416h1045l-27 -165h-1044l-73 -464q-21 -132 -21 -207q0 -67 15.5 -112.5t48 -77t91.5 -49t136 -24.5t192 -7h555l-26 -160q-235 -10 -547 -10q-68 0 -114.5 1
t-108 5t-104.5 11.5t-93 21t-84 33t-67.5 48t-53.5 65t-32 85.5t-12 108q0 58 10 121l213 1341q16 100 50.5 178.5t77 131t108 89.5t123.5 57t144.5 30.5t151.5 13t162 2.5q229 0 543 -13zM911 2924h169l193 -275l282 275h165l-363 -371h-192z" />
    <glyph glyph-name="ecaron" unicode="&#x11b;" horiz-adv-x="1902" 
d="M280 891q39 248 104 416.5t172 282t259.5 164.5t366.5 51q176 0 302 -37.5t200 -110.5t108 -171.5t34 -229.5q0 -102 -20 -225q-20 -119 -34 -184q-152 -25 -417 -50t-453 -33l-460 -19q-6 -104 -6 -147q0 -76 9 -133.5t30.5 -111.5t60.5 -91t97.5 -65.5t142 -42
t193.5 -13.5q254 0 620 52l-7 -160q-193 -29 -351 -43t-380 -14q-165 0 -282.5 43t-185.5 125.5t-99 191t-31 250.5q0 133 27 305zM462 899l510 24q332 16 637 53q15 68 27 142q11 74 11 133q0 93 -26.5 163t-83 122.5t-151 79.5t-225.5 27q-172 0 -291.5 -42.5t-200 -137.5
t-128 -228.5t-79.5 -335.5zM1232 2151l275 340h155l-357 -458h-179l-220 458h158z" />
    <glyph glyph-name="Gbreve" unicode="&#x11e;" horiz-adv-x="2073" 
d="M1317 1036l26 164h616l-136 -856q-9 -57 -28 -103.5t-44.5 -82t-63.5 -63t-76 -47t-92.5 -33t-103 -21t-116.5 -12t-125 -5.5t-136 -1q-211 0 -357 41.5t-237 130.5t-131 219.5t-40 316.5q0 197 45 481q34 217 76.5 379.5t104.5 300t143.5 229.5t193.5 157t254 94t325 29
q364 0 645 -49l-44 -164q-288 40 -527 40q-157 0 -280 -21.5t-216 -59t-163 -105t-118.5 -141.5t-86 -188.5t-62 -227t-49.5 -273.5q-47 -300 -47 -466q0 -116 20.5 -201t68.5 -153.5t128.5 -111t200 -64.5t282.5 -22q87 0 155.5 8.5t116.5 21.5t83.5 37t56.5 46.5t36 60
t22 67.5t15 78l90 570h-425zM1089 2899h128q1 -87 55 -145.5t161 -58.5t179.5 58t101.5 146h129q-39 -146 -147 -237t-282 -91q-89 0 -155 25.5t-103 71t-53.5 103.5t-13.5 128z" />
    <glyph glyph-name="gbreve" unicode="&#x11f;" horiz-adv-x="1891" 
d="M178 -618l42 157q344 -54 571 -54q160 0 264 22t170 76t99.5 131t51.5 199l27 177q-288 -74 -534 -74q-320 0 -465 128t-145 434q0 143 30 332q40 253 111 424t185 276t264 150t359 45q380 0 621 -138q-17 -157 -39 -295l-241 -1520q-20 -128 -68.5 -223.5t-113.5 -154
t-156.5 -93.5t-185 -48t-211.5 -13q-264 0 -636 62zM475 910q-29 -182 -29 -306q0 -233 116.5 -328.5t403.5 -95.5q109 0 238 22.5t226 54.5l159 999q18 113 41 296q-89 44 -210.5 67t-236.5 23q-326 0 -486 -168.5t-222 -563.5zM1546 2441h129q-43 -169 -153 -273.5
t-284 -104.5q-84 0 -146.5 26t-99.5 73t-55 107t-18 134q0 25 1 38h128q-2 -101 51.5 -168t160.5 -67t181 67t105 168z" />
    <glyph glyph-name="Idotaccent" unicode="&#x130;" horiz-adv-x="764" 
d="M703 2598q-58 0 -91.5 40.5t-23.5 98.5q9 58 55 98.5t103 40.5t90 -40.5t24 -98.5t-54.5 -98.5t-102.5 -40.5zM193 0l369 2330h193l-369 -2330h-193z" />
    <glyph glyph-name="dotlessi" unicode="&#x131;" horiz-adv-x="680" 
d="M150 0l282 1781h183l-282 -1781h-183z" />
    <glyph glyph-name="Lacute" unicode="&#x139;" horiz-adv-x="1567" 
d="M263 493l291 1837h192l-268 -1689q-20 -123 -20 -204q0 -163 101 -218t382 -55h512l-26 -162q-217 -8 -504 -8q-68 0 -114.5 1t-108.5 5t-104.5 11.5t-93 21t-84.5 33t-67.5 48t-53.5 65t-32 85.5t-12 108q0 58 10 121zM1220 2932l-448 -371h-166l359 371h255z" />
    <glyph glyph-name="lacute" unicode="&#x13a;" horiz-adv-x="695" 
d="M212 461l318 2008h183l-315 -1991q-13 -82 -13 -159q0 -179 84 -312l-165 -86q-107 152 -107 361q0 80 15 179zM571 2647l359 371h255l-449 -371h-165z" />
    <glyph glyph-name="Lcaron" unicode="&#x13d;" horiz-adv-x="1567" 
d="M263 493l291 1837h192l-268 -1689q-20 -125 -20 -205q0 -67 15.5 -113t48 -77.5t91 -49t136 -25t192.5 -7.5h511l-25 -162q-218 -8 -504 -8q-68 0 -114.5 1t-108.5 5t-104.5 11.5t-93 21t-84.5 33t-67.5 48t-53.5 65t-32 85.5t-12 108q0 58 10 121zM1363 2330l-352 -700
h-132l300 700h184z" />
    <glyph glyph-name="lcaron" unicode="&#x13e;" horiz-adv-x="694" 
d="M212 461l318 2008h182l-315 -1991q-13 -82 -13 -159q0 -179 84 -312l-166 -86q-106 151 -106 359q0 75 16 181zM798 1769l301 700h183l-351 -700h-133z" />
    <glyph glyph-name="Lslash" unicode="&#x141;" horiz-adv-x="1713" 
d="M514 1149l187 1181h192l-166 -1037l544 366l-29 -185l-544 -364l-74 -469q-20 -125 -20 -205q0 -67 15.5 -113t48 -77.5t91 -49t136 -25t192.5 -7.5h512l-25 -162q-219 -8 -504 -8q-61 0 -103.5 1t-98.5 3.5t-95.5 8.5t-87 15.5t-80.5 24.5t-68 35.5t-58 48.5t-42 62.5
t-28 80t-9 98.5q0 58 10 121l75 474l-307 -206l29 182z" />
    <glyph glyph-name="lslash" unicode="&#x142;" horiz-adv-x="725" 
d="M541 1262l-124 -784q-13 -82 -13 -159q0 -181 83 -312l-165 -86q-107 150 -107 359q0 75 16 181l101 640l-276 -213l29 187l277 215l187 1179h183l-161 -1018l280 218l-30 -190z" />
    <glyph glyph-name="Nacute" unicode="&#x143;" horiz-adv-x="2294" 
d="M837 2224l938 -1953l326 2059h181l-351 -2217q-11 -69 -49.5 -103t-91.5 -34q-49 0 -83.5 32t-66.5 98l-937 1954l-326 -2060h-181l351 2217q11 69 49.5 103t91.5 34q48 0 82.5 -32t66.5 -98zM1328 2556l359 371h255l-448 -371h-166z" />
    <glyph glyph-name="nacute" unicode="&#x144;" horiz-adv-x="1972" 
d="M572 1247l-198 -1247h-182l215 1364q22 139 54 295q167 66 379 106t432 40q134 0 234 -20t162.5 -55t101 -89t53.5 -114t15 -137q0 -92 -22 -227l-184 -1163h-182l176 1118q20 130 20 206q0 113 -40.5 179.5t-144.5 101.5t-285 35q-121 0 -288.5 -29t-263.5 -68
q-29 -143 -52 -296zM1114 2048l353 458h238l-437 -458h-154z" />
    <glyph glyph-name="Ncaron" unicode="&#x147;" horiz-adv-x="2294" 
d="M837 2224l937 -1953l327 2059h181l-351 -2217q-11 -69 -49.5 -103t-91.5 -34q-49 0 -83 31.5t-66 98.5l-937 1954l-327 -2060h-181l351 2217q11 69 49.5 103t91.5 34q48 0 83 -32.5t66 -97.5zM1278 2917l193 -275l282 275h164l-363 -371h-191l-254 371h169z" />
    <glyph glyph-name="ncaron" unicode="&#x148;" horiz-adv-x="1971" 
d="M571 1247l-198 -1247h-182l216 1364q19 117 53 295q167 66 379 106t432 40q134 0 234 -20t162.5 -55t101 -89t53.5 -114t15 -137q0 -92 -22 -227l-184 -1163h-182l177 1118q20 128 20 205q0 113 -40.5 179.5t-144.5 102t-286 35.5q-121 0 -288.5 -29t-264.5 -68
q-30 -159 -51 -296zM928 2498h158l168 -340l275 340h155l-357 -458h-179z" />
    <glyph glyph-name="Ohungarumlaut" unicode="&#x150;" horiz-adv-x="2219" 
d="M1013 -24q-396 0 -564.5 164t-168.5 536q0 202 46 489q34 217 77.5 381.5t106 301t142.5 229t188 156t243 92.5t307 29q266 0 426.5 -73.5t233 -225t72.5 -400.5q0 -203 -46 -490q-34 -217 -77.5 -381.5t-106 -301t-142.5 -229t-187.5 -156t-242.5 -92.5t-307 -29z
M521 1165q-56 -353 -56 -507q0 -99 15.5 -174.5t54.5 -140.5t102.5 -107t162 -65.5t230.5 -23.5q137 0 247.5 27t189.5 69.5t142 119t103 151t74 191.5t53.5 215t42.5 245q55 345 55 504q0 125 -26 215t-88 159.5t-174 104.5t-276 35q-138 0 -248.5 -27t-190 -69t-142 -119
t-102.5 -150.5t-73.5 -192t-52.5 -215t-43 -245.5zM1087 2568l344 370h252l-440 -370h-156zM1523 2568l346 370h252l-441 -370h-157z" />
    <glyph glyph-name="ohungarumlaut" unicode="&#x151;" horiz-adv-x="1960" 
d="M905 -24q-343 0 -495 134.5t-152 446.5q0 145 30 334q40 253 107 424t176.5 282t260 159.5t363.5 48.5q342 0 494.5 -137.5t152.5 -448.5q0 -134 -30 -328q-40 -249 -107 -419.5t-176 -282.5t-260.5 -162.5t-363.5 -50.5zM443 569q0 -124 27 -206.5t87.5 -131.5
t147.5 -69.5t217 -20.5q133 0 231 23.5t177 75.5t134.5 140.5t95 212.5t67.5 298q30 186 30 318q0 238 -109.5 334.5t-368.5 96.5q-166 0 -278 -33t-198.5 -118.5t-140.5 -229.5t-89 -368q-30 -189 -30 -322zM912 2069l338 458h235l-428 -458h-145zM1319 2069l341 458h235
l-430 -458h-146z" />
    <glyph glyph-name="OE" unicode="&#x152;" horiz-adv-x="3251" 
d="M3325 2166h-555q-120 0 -202 -7.5t-148.5 -29.5t-107 -53.5t-72 -89t-49.5 -126.5t-35 -174l-66 -416h1044l-26 -165h-1044l-73 -464q-21 -132 -21 -207q0 -67 15.5 -112.5t48 -77t91.5 -49t136 -24.5t192 -7h555l-26 -160q-235 -10 -547 -10q-63 0 -106 1t-100.5 4
t-97.5 9t-88 17.5t-81 27t-66.5 39t-55.5 53.5t-38 70t-22 89q-121 -170 -306.5 -249t-461.5 -79q-395 0 -563.5 164t-168.5 535q0 202 46 490q34 217 77.5 381.5t105.5 301t142 229t188 156t243 92.5t307 29q275 0 435.5 -79.5t229.5 -250.5q24 54 55.5 98t72 75.5t82 55
t96 38.5t102 24.5t111.5 13.5t113.5 5.5t119.5 1.5q228 0 543 -13zM465 660q0 -124 26 -214t88 -159.5t174.5 -104.5t276.5 -35q137 0 247.5 27t189.5 69.5t142 119t103 151t74 191.5t53.5 215t42.5 245q55 345 55 503q0 125 -26 215t-88.5 160t-174.5 105t-276 35
q-138 0 -248.5 -27t-189.5 -69t-142 -119t-102.5 -150.5t-73.5 -191.5t-53 -215t-43 -246q-55 -345 -55 -505z" />
    <glyph glyph-name="oe" unicode="&#x153;" horiz-adv-x="3250" 
d="M1807 1449q106 185 279.5 270.5t443.5 85.5q176 0 302 -37.5t200 -110.5t108 -171.5t34 -229.5q0 -102 -20 -225q-14 -84 -34 -184q-152 -25 -417.5 -50t-453.5 -33l-459 -19q-5 -82 -5 -141q0 -93 13 -160.5t47.5 -127t93.5 -96.5t153 -58t225 -21q253 0 619 52l-6 -160
q-193 -29 -351.5 -43t-380.5 -14q-244 0 -379.5 95t-181.5 273q-107 -192 -283.5 -280t-448.5 -88q-343 0 -495 134.5t-152 446.5q0 145 30 334q40 254 107 424.5t176.5 281.5t260 159.5t363.5 48.5q268 0 416 -85t196 -271zM922 141q133 0 231 23.5t177 75.5t134.5 140.5
t95 212.5t67.5 298q30 186 30 318q0 238 -109.5 334.5t-368.5 96.5q-166 0 -278 -33t-198.5 -118.5t-140.5 -229.5t-89 -368q-30 -189 -30 -322q0 -124 27 -206.5t87.5 -131.5t147.5 -69.5t217 -20.5zM1810 899l510 24q329 16 637 53q11 51 26 142q11 72 11 131
q0 190 -116 292t-374 102q-117 0 -208 -18.5t-161.5 -60t-122 -99.5t-90 -144.5t-65 -187t-47.5 -234.5z" />
    <glyph glyph-name="Racute" unicode="&#x154;" horiz-adv-x="2036" 
d="M380 0h-192l365 2302q343 52 691 52q99 0 180 -5t164.5 -19.5t147 -39t120.5 -64t94 -92.5t58.5 -128t21.5 -168q0 -72 -14 -165q-27 -170 -88.5 -295t-155 -203.5t-205 -122t-255.5 -61.5l412 -991h-224l-394 976h-54q-151 0 -515 19zM565 1168q228 -23 488 -23
q173 0 297.5 24t225.5 83t162 163t86 259q12 72 12 133q0 203 -142 291.5t-464 88.5q-234 0 -510 -35zM1755 2933l-447 -371h-166l359 371h254z" />
    <glyph glyph-name="racute" unicode="&#x155;" horiz-adv-x="1141" 
d="M371 0h-182l217 1372q26 164 53 295q287 138 665 138q95 0 162 -8l-43 -167q-64 6 -145 6q-117 0 -245 -22.5t-232 -66.5q-28 -136 -52 -296zM1099 2508h238l-436 -458h-155z" />
    <glyph glyph-name="Rcaron" unicode="&#x158;" horiz-adv-x="2036" 
d="M380 0h-192l365 2302q343 52 691 52q99 0 180 -5t164.5 -19.5t147 -39t120.5 -64t94 -92.5t58.5 -128t21.5 -168q0 -72 -14 -165q-27 -170 -88.5 -295t-155 -203.5t-205 -122t-255.5 -61.5l412 -991h-224l-394 976h-54q-151 0 -515 19zM565 1168q228 -23 488 -23
q173 0 297.5 24t225.5 83t162 163t86 259q12 72 12 133q0 203 -142 291.5t-464 88.5q-234 0 -510 -35zM1313 2658l282 275h164l-362 -371h-193l-254 371h170z" />
    <glyph glyph-name="rcaron" unicode="&#x159;" horiz-adv-x="1141" 
d="M371 0h-182l217 1372q25 152 55 295q284 138 665 138q94 0 161 -8l-43 -167q-66 6 -145 6q-117 0 -245 -22.5t-232 -66.5q-32 -157 -53 -296zM760 2498l167 -340l277 340h153l-355 -458h-181l-219 458h158z" />
    <glyph glyph-name="Sacute" unicode="&#x15a;" horiz-adv-x="1679" 
d="M1339 701q0 68 -21.5 122.5t-57 94t-98 75t-128 61.5t-164.5 57q-82 26 -138.5 46.5t-119 48t-103.5 54.5t-80.5 64t-62 78.5t-36 95t-13.5 117.5q0 65 11 130q27 170 95.5 288.5t180 188.5t254.5 101t334 31q279 0 548 -48l-43 -162q-236 37 -436 37q-123 0 -218.5 -9
t-188 -35t-156.5 -68.5t-110 -113t-61 -165.5q-12 -73 -12 -130q0 -53 10 -93t37 -74t60 -59.5t93.5 -52.5t122.5 -48.5t161 -52.5q98 -31 173 -62t147.5 -78t119.5 -102t75.5 -131.5t28.5 -169.5q0 -57 -10 -116q-27 -175 -99 -299.5t-188 -200t-267 -110.5t-348 -35
q-178 0 -300.5 11.5t-253.5 39.5l46 165q265 -43 526 -43q113 0 202 11.5t173 42.5t143.5 81.5t102.5 132.5t61 192q8 53 8 92zM1678 2940l-449 -371h-166l361 371h254z" />
    <glyph glyph-name="sacute" unicode="&#x15b;" horiz-adv-x="1522" 
d="M1187 524q0 29 -5.5 54t-14 46t-26.5 40t-34.5 33.5t-47 30t-54 26.5t-66 26.5t-74 26t-85.5 27.5q-180 57 -236 82q-161 70 -211 185q-28 63 -28 145q0 40 8 93q17 107 58.5 188t100.5 133.5t141 85t172 46t201 13.5q276 0 539 -55l-44 -151q-233 41 -431 41
q-58 0 -98 -1t-98.5 -7t-99.5 -16.5t-87.5 -31.5t-77.5 -49.5t-55.5 -72.5t-33.5 -99q-6 -41 -6 -73q0 -51 17.5 -89.5t37 -62.5t74.5 -49.5t87 -37t116 -37.5q49 -16 75 -24q102 -33 172 -61.5t132 -65.5t98.5 -79t57 -97t20.5 -124q0 -42 -8 -96q-18 -113 -64.5 -199
t-112.5 -140.5t-157 -89t-189 -48.5t-217 -14q-280 0 -528 54l44 153q231 -39 436 -39q48 0 79.5 0.5t81.5 3.5t84.5 8.5t80 16.5t77.5 26.5t67 39t58 53.5t41.5 71t26.5 90q6 39 6 71zM1534 2518l-437 -458h-155l354 458h238z" />
    <glyph glyph-name="Scedilla" unicode="&#x15e;" horiz-adv-x="1680" 
d="M854 -11l-108 -140q95 -4 156 -53.5t61 -134.5q0 -17 -3 -37q-21 -130 -124 -192.5t-243 -62.5q-124 0 -207 50l56 106q85 -41 175 -41q65 0 118.5 29.5t64.5 96.5q7 42 -16 75t-63 51.5t-82 27.5t-80 9l150 205q-50 -2 -77 -2q-178 0 -300.5 11.5t-254.5 39.5l46 165
q265 -43 527 -43q113 0 202 11.5t173.5 42.5t144 81.5t102.5 132.5t60 192q8 53 8 92q0 68 -21.5 122.5t-57 94t-98.5 75t-128.5 61t-164.5 57.5q-82 26 -138.5 46.5t-119 48t-103.5 54.5t-80.5 64t-62 78.5t-36 95.5t-13.5 118q0 55 11 129q27 170 95.5 288.5t180.5 188.5
t255 101t334 31q277 0 548 -48l-43 -162q-236 37 -436 37q-123 0 -218.5 -9t-188.5 -35t-157 -68.5t-109.5 -113t-60.5 -165.5q-12 -73 -12 -130q0 -53 10 -93t37 -74t60 -59.5t93.5 -52.5t122.5 -48.5t161 -52.5q98 -31 173 -62t147.5 -78t119.5 -102t75.5 -131.5
t28.5 -169.5q0 -57 -10 -116q-46 -293 -215.5 -444.5t-464.5 -187.5z" />
    <glyph glyph-name="scedilla" unicode="&#x15f;" horiz-adv-x="1522" 
d="M820 -14l-109 -138q96 -4 157 -53.5t61 -134.5q0 -18 -3 -37q-14 -89 -71 -148t-131.5 -83t-163.5 -24q-124 0 -207 50l57 106q82 -41 174 -41q66 0 119.5 29.5t64.5 96.5q6 42 -17 75t-63 51.5t-82.5 27.5t-80.5 9l152 205q-14 -1 -44 -1q-280 0 -528 54l43 153
q231 -39 437 -39q48 0 79.5 0.5t81.5 3.5t84.5 8.5t80 16.5t77.5 26.5t67 39t58 53.5t41.5 71t26.5 90q6 38 6 70q0 33 -5.5 60.5t-20.5 51t-30.5 41.5t-46.5 36.5t-56 31.5t-71.5 30t-81 29t-95.5 31q-180 57 -236 82q-161 70 -211 185q-28 63 -28 145q0 40 8 93
q17 107 58.5 188t100.5 133.5t141 85t172 46t201 13.5q276 0 539 -55l-44 -151q-233 41 -431 41q-58 0 -98 -1t-98.5 -7t-99.5 -16.5t-88 -31.5t-77.5 -49.5t-55 -72.5t-33.5 -99q-6 -41 -6 -73q0 -51 17.5 -89.5t37 -62.5t74.5 -49.5t87 -37t116 -37.5q49 -16 75 -24
q102 -33 172 -61.5t132 -65.5t98.5 -79t57 -97t20.5 -124q0 -42 -8 -96q-36 -227 -178.5 -340.5t-374.5 -140.5z" />
    <glyph glyph-name="Scaron" unicode="&#x160;" horiz-adv-x="1679" 
d="M1339 701q0 68 -21.5 122.5t-57 94t-98 75t-128 61.5t-164.5 57q-82 26 -138.5 46.5t-119 48t-103.5 54.5t-80.5 64t-62 78.5t-36 95t-13.5 117.5q0 65 11 130q27 170 95.5 288.5t180 188.5t254.5 101t334 31q279 0 548 -48l-43 -162q-236 37 -436 37q-123 0 -218.5 -9
t-188 -35t-156.5 -68.5t-110 -113t-61 -165.5q-12 -73 -12 -130q0 -53 10 -93t37 -74t60 -59.5t93.5 -52.5t122.5 -48.5t161 -52.5q98 -31 173 -62t147.5 -78t119.5 -102t75.5 -131.5t28.5 -169.5q0 -57 -10 -116q-27 -175 -99 -299.5t-188 -200t-267 -110.5t-348 -35
q-178 0 -300.5 11.5t-253.5 39.5l46 165q265 -43 526 -43q113 0 202 11.5t173 42.5t143.5 81.5t102.5 132.5t61 192q8 53 8 92zM1194 2665l282 275h165l-363 -371h-193l-253 371h169z" />
    <glyph glyph-name="scaron" unicode="&#x161;" horiz-adv-x="1522" 
d="M494 1290q0 -29 5.5 -53.5t12.5 -44t23.5 -37.5t29.5 -30.5t39.5 -26.5t44.5 -22.5t54.5 -21.5t58.5 -20t67 -21t72 -23q102 -33 172 -61.5t132 -65.5t98.5 -79t57 -97t20.5 -124q0 -42 -8 -96q-18 -113 -64.5 -198.5t-112.5 -140.5t-157 -89.5t-189 -48.5t-217 -14
q-280 0 -528 54l44 153q231 -39 436 -39q48 0 79.5 0.5t81.5 3.5t84.5 8.5t80 16.5t77.5 26.5t67 39t58 53.5t41.5 71t26.5 90q6 39 6 71q0 29 -5.5 54t-14 46t-26.5 40t-34.5 33.5t-47 30t-54 26.5t-66 26.5t-74 26t-85.5 27.5q-180 57 -236 82q-161 70 -211 185
q-28 63 -28 145q0 40 8 93q17 107 58.5 188t100.5 133.5t141 85t172 46t201 13.5q276 0 539 -55l-43 -151q-233 41 -432 41q-58 0 -98.5 -1t-99 -7t-99 -16.5t-87.5 -31.5t-78 -49.5t-55 -72.5t-33 -99q-6 -41 -6 -73zM1040 2161l276 340h155l-357 -458h-180l-219 458h158z
" />
    <glyph glyph-name="uni0162" unicode="&#x162;" horiz-adv-x="1633" 
d="M1830 2330l-25 -167h-641l-344 -2163h-193l344 2163h-643l25 167h1477zM324 -852l279 651h171l-327 -651h-123z" />
    <glyph glyph-name="uni0163" unicode="&#x163;" horiz-adv-x="1117" 
d="M684 2254l188 30l-79 -503h399l-24 -155h-400l-183 -1158q-12 -77 -12 -130q0 -64 16 -104t53.5 -61.5t86 -29t125.5 -7.5q35 0 82 5l-9 -149q-89 -16 -160 -16q-198 0 -290.5 77t-92.5 244q0 61 12 136l189 1193h-328l24 155h328zM241 -865l280 651h170l-326 -651h-124z
" />
    <glyph glyph-name="Tcaron" unicode="&#x164;" horiz-adv-x="1633" 
d="M1831 2330l-26 -167h-642l-342 -2163h-193l343 2163h-644l27 167h1477zM776 2897h169l193 -275l282 275h164l-363 -371h-192z" />
    <glyph glyph-name="tcaron" unicode="&#x165;" horiz-adv-x="1116" 
d="M685 2254l187 30l-80 -503h400l-25 -155h-400l-183 -1158q-12 -75 -12 -129q0 -64 16 -104.5t54 -62t86.5 -29t126.5 -7.5q35 0 80 5l-8 -149q-89 -16 -160 -16q-198 0 -290.5 77t-92.5 244q0 61 12 136l189 1193h-329l25 155h329zM1032 2009l300 700h183l-351 -700h-132
z" />
    <glyph glyph-name="Uring" unicode="&#x16e;" horiz-adv-x="2183" 
d="M2176 2330l-251 -1586q-28 -179 -87.5 -313t-140.5 -220t-193.5 -139.5t-236 -74.5t-278.5 -21q-134 0 -239 16t-196 55t-150 102t-92.5 160t-33.5 226q0 93 18 209l251 1586h191l-255 -1612q-13 -78 -13 -150q0 -213 131.5 -316.5t414.5 -103.5q331 0 499.5 139
t214.5 431l255 1612h191zM1387 2483q-115 0 -190 76.5t-75 190.5q0 27 4 51q21 131 127 224t234 93q116 0 191 -76t75 -190q0 -28 -4 -51q-21 -132 -127 -225t-235 -93zM1632 2801q2 11 2 31q0 71 -47 118.5t-119 47.5q-80 0 -146 -57.5t-79 -139.5q-3 -17 -3 -33
q0 -72 47 -118.5t119 -46.5q81 0 147 57.5t79 140.5z" />
    <glyph glyph-name="uring" unicode="&#x16f;" horiz-adv-x="1964" 
d="M283 618l184 1163h182l-177 -1118q-22 -139 -22 -215q0 -111 40.5 -175.5t144.5 -98t288 -33.5q119 0 284.5 29t262.5 68q35 187 52 296l197 1247h182l-216 -1364q-26 -164 -53 -295q-168 -66 -378 -106t-428 -40q-134 0 -233.5 20t-162 55t-101 89t-53.5 114t-15 137
q0 92 22 227zM1212 1968q-115 0 -190 76.5t-75 190.5q0 27 4 51q21 131 127 224t235 93q115 0 190 -76t75 -190q0 -28 -4 -51q-21 -132 -127 -225t-235 -93zM1457 2286q2 11 2 31q0 71 -46.5 118.5t-118.5 47.5q-81 0 -146.5 -57.5t-78.5 -139.5q-2 -11 -2 -32
q0 -72 46 -119t118 -47q81 0 147 57.5t79 140.5z" />
    <glyph glyph-name="Uhungarumlaut" unicode="&#x170;" horiz-adv-x="2183" 
d="M2176 2330l-251 -1586q-28 -179 -87.5 -313t-141 -220t-194 -139.5t-235.5 -74.5t-278 -21q-135 0 -240 16t-195.5 55t-149.5 102t-92.5 160t-33.5 226q0 93 18 209l251 1586h192l-255 -1612q-13 -78 -13 -150q0 -213 131 -316.5t414 -103.5q331 0 499.5 139t214.5 431
l255 1612h191zM1037 2572l344 370h252l-440 -370h-156zM1474 2572l345 370h252l-441 -370h-156z" />
    <glyph glyph-name="uhungarumlaut" unicode="&#x171;" horiz-adv-x="1965" 
d="M283 618l185 1163h182l-177 -1118q-22 -139 -22 -215q0 -111 40.5 -175.5t144.5 -98t288 -33.5q119 0 284.5 29t261.5 68q33 164 53 296l197 1247h182l-216 -1364q-19 -117 -53 -295q-168 -66 -378 -106t-428 -40q-134 0 -234 20t-162.5 55t-101 89t-53.5 114t-15 137
q0 92 22 227zM902 2095l340 458h235l-429 -458h-146zM1310 2095l340 458h236l-430 -458h-146z" />
    <glyph glyph-name="Ydieresis" unicode="&#x178;" horiz-adv-x="1811" 
d="M1004 2585q-55 0 -86.5 38.5t-23.5 94.5q9 56 53 94.5t99 38.5t86.5 -38.5t22.5 -94.5q-8 -55 -52.5 -94t-98.5 -39zM1479 2585q-55 0 -86 38.5t-23 94.5q9 56 52.5 94.5t98.5 38.5t86.5 -38.5t23.5 -94.5q-9 -56 -53 -94.5t-99 -38.5zM1050 908l-144 -908h-194l143 908
l-501 1422h211l424 -1215l817 1215h203z" />
    <glyph glyph-name="Zacute" unicode="&#x179;" horiz-adv-x="1725" 
d="M1798 2132l-1509 -1964h1231l-27 -168h-1348q-64 0 -91.5 21.5t-21.5 61.5q8 47 60 115l1509 1964h-1162l26 168h1280q64 0 91.5 -21.5t21.5 -61.5q-6 -45 -60 -115zM1044 2544l360 371h255l-450 -371h-165z" />
    <glyph glyph-name="zacute" unicode="&#x17a;" horiz-adv-x="1682" 
d="M1685 1633l-1344 -1470h1090l-26 -163h-1271q-44 0 -64 18.5t-15 48.5q6 36 46 81l1346 1473h-1067l26 160h1246q44 0 64 -18.5t15 -48.5q-6 -37 -46 -81zM985 2066l353 458h238l-437 -458h-154z" />
    <glyph glyph-name="Zdotaccent" unicode="&#x17b;" horiz-adv-x="1725" 
d="M1798 2132l-1509 -1964h1231l-27 -168h-1348q-64 0 -91.5 21.5t-21.5 61.5q8 47 60 115l1509 1964h-1163l27 168h1279q65 0 92.5 -21.5t21.5 -61.5q-8 -47 -60 -115zM1189 2599q-57 0 -90.5 40.5t-24.5 98.5q10 58 56 98.5t103 40.5q56 0 89.5 -40.5t23.5 -98.5
q-9 -58 -54.5 -98.5t-102.5 -40.5z" />
    <glyph glyph-name="zdotaccent" unicode="&#x17c;" horiz-adv-x="1682" 
d="M340 163h1090l-26 -163h-1271q-43 0 -63 18.5t-15 48.5q6 38 46 81l1346 1473h-1067l25 160h1247q43 0 63.5 -18.5t15.5 -48.5q-5 -35 -46 -81zM1067 2239q9 58 55 98.5t103 40.5t89.5 -40.5t23.5 -98.5t-54.5 -98.5t-102.5 -40.5t-90.5 40.5t-23.5 98.5z" />
    <glyph glyph-name="Zcaron" unicode="&#x17d;" horiz-adv-x="1726" 
d="M1799 2132l-1509 -1964h1230l-26 -168h-1348q-64 0 -92 21.5t-22 61.5q8 47 60 115l1509 1964h-1162l27 168h1279q64 0 92 -22t22 -61q-8 -47 -60 -115zM847 2915h169l192 -275l282 275h165l-363 -371h-192z" />
    <glyph glyph-name="zcaron" unicode="&#x17e;" horiz-adv-x="1682" 
d="M341 163h1090l-26 -163h-1271q-44 0 -64 18.5t-15 48.5q6 37 47 81l1345 1473h-1066l25 160h1247q43 0 63 -18.5t15 -48.5q-7 -39 -46 -81zM959 2524l168 -340l276 340h154l-356 -458h-180l-219 458h157z" />
    <glyph glyph-name="florin" unicode="&#x192;" horiz-adv-x="1487" 
d="M632 1380l59 422q30 216 177 349t372 133q70 0 150 -16l-21 -160q-41 10 -109 10q-170 0 -266.5 -101.5t-121.5 -283.5l-49 -353h444l-21 -157h-445l-150 -1078q-41 -290 -196.5 -444t-375.5 -154q-52 0 -82 5l22 158h28q155 0 269.5 107t143.5 315l151 1091h-377l21 157
h377z" />
    <glyph glyph-name="uni0218" unicode="&#x218;" horiz-adv-x="1679" 
d="M1340 701q0 57 -13.5 103.5t-43 84.5t-66 67.5t-94 57t-114.5 49.5t-139 48t-138.5 46.5t-119 48t-103.5 54.5t-80.5 64t-62 78.5t-36 95t-13.5 117.5q0 65 11 130q27 170 95.5 288.5t180.5 188.5t254.5 101t333.5 31q278 0 549 -48l-43 -162q-236 37 -437 37
q-123 0 -218.5 -9t-188 -35t-156.5 -68.5t-109.5 -113t-60.5 -165.5q-12 -75 -12 -131q0 -45 8.5 -81t24 -65.5t46 -55.5t64.5 -46.5t89.5 -43.5t111 -42t139.5 -45q98 -31 173 -62t147.5 -78t119.5 -102t75.5 -131.5t28.5 -169.5q0 -57 -10 -116q-27 -175 -98.5 -299.5
t-187.5 -200.5t-267 -110.5t-348 -34.5q-179 0 -301 11.5t-254 39.5l46 165q265 -43 526 -43q113 0 202 11.5t173.5 42.5t144 81.5t102.5 132.5t61 192q8 53 8 92zM856 -211l-325 -651h-124l279 651h170z" />
    <glyph glyph-name="uni0219" unicode="&#x219;" horiz-adv-x="1521" 
d="M1187 524q0 29 -5.5 54t-14 46t-26.5 40t-34.5 33.5t-47 30t-54 26.5t-66 26.5t-74 26t-85.5 27.5q-180 57 -236 82q-161 70 -211 185q-28 63 -28 145q0 40 8 93q17 107 58.5 188t100.5 133.5t141 85t172 46t201 13.5q276 0 539 -55l-44 -151q-233 41 -431 41
q-58 0 -98 -1t-98.5 -7t-99.5 -16.5t-88 -31.5t-77.5 -49.5t-55 -72.5t-33.5 -99q-6 -41 -6 -73q0 -51 17.5 -89.5t37 -62.5t74.5 -49.5t87 -37t116 -37.5q49 -16 75 -24q128 -41 209.5 -78t146.5 -86.5t94 -113.5t29 -149q0 -40 -8 -96q-18 -113 -64.5 -198.5
t-112.5 -140.5t-156.5 -89.5t-188.5 -48.5t-217 -14q-280 0 -528 54l44 153q231 -39 436 -39q48 0 79.5 0.5t81.5 3.5t84.5 8.5t80 16.5t77.5 26.5t67 39t58 53.5t41.5 71t26.5 90q6 39 6 71zM819 -204l-325 -651h-124l279 651h170z" />
    <glyph glyph-name="uni021A" unicode="&#x21a;" horiz-adv-x="1633" 
d="M1864 2330l-25 -167h-641l-344 -2163h-193l344 2163h-643l25 167h1477zM358 -852l279 651h171l-327 -651h-123z" />
    <glyph glyph-name="uni021B" unicode="&#x21b;" horiz-adv-x="1118" 
d="M718 2254l188 30l-79 -503h399l-24 -155h-400l-183 -1158q-12 -77 -12 -130q0 -64 16 -104t53.5 -61.5t86 -29t125.5 -7.5q35 0 82 5l-9 -149q-89 -16 -160 -16q-198 0 -290.5 77t-92.5 244q0 61 12 136l189 1193h-328l24 155h328zM275 -865l280 651h170l-326 -651h-124z
" />
    <glyph glyph-name="circumflex" unicode="&#x2c6;" horiz-adv-x="1047" 
d="M635 2373h180l219 -458h-159l-166 340l-277 -340h-154z" />
    <glyph glyph-name="caron" unicode="&#x2c7;" horiz-adv-x="994" 
d="M325 2373h159l167 -340l275 340h155l-357 -458h-180z" />
    <glyph glyph-name="uni02C9" unicode="&#x2c9;" horiz-adv-x="1340" 
d="M392 2041l24 145h864l-23 -145h-865z" />
    <glyph glyph-name="breve" unicode="&#x2d8;" horiz-adv-x="1051" 
d="M347 2333h128q-2 -101 51.5 -168t160.5 -67t181 67t105 168h129q-44 -169 -154 -273.5t-284 -104.5q-163 0 -240.5 92.5t-77.5 245.5q0 26 1 40z" />
    <glyph glyph-name="dotaccent" unicode="&#x2d9;" horiz-adv-x="622" 
d="M459 2000q-57 0 -90.5 40.5t-24.5 98.5q10 58 56 98.5t103 40.5t90 -40.5t24 -98.5q-10 -58 -55.5 -98.5t-102.5 -40.5z" />
    <glyph glyph-name="ring" unicode="&#x2da;" horiz-adv-x="982" 
d="M348 2127q0 28 4 52q20 131 126 224t235 93q115 0 190 -76.5t75 -190.5q0 -27 -4 -50q-21 -132 -126.5 -225t-235.5 -93q-115 0 -189.5 76t-74.5 190zM469 2179q-3 -17 -3 -33q0 -71 46.5 -118t118.5 -47q81 0 147 57.5t79 140.5q2 11 2 31q0 71 -46.5 118.5t-118.5 47.5
q-80 0 -145.5 -57.5t-79.5 -139.5z" />
    <glyph glyph-name="ogonek" unicode="&#x2db;" horiz-adv-x="692" 
d="M353 0h117q-204 -184 -226 -327q-3 -20 -3 -37q0 -64 38 -101t106 -37q81 0 151 36l22 -101q-54 -38 -122 -59t-129 -21q-105 0 -169 55.5t-64 152.5q0 26 4 47q17 106 98 211t177 181z" />
    <glyph glyph-name="tilde" unicode="&#x2dc;" horiz-adv-x="1135" 
d="M1008 2279h126q-38 -146 -111 -224t-152 -78q-49 0 -86 17t-58 40.5t-38.5 47.5t-39 41t-48.5 17q-44 0 -77 -37.5t-60 -117.5h-127q38 145 111.5 223t152.5 78q49 0 85.5 -17t57.5 -41t38.5 -47.5t39.5 -40.5t49 -17q87 0 137 156z" />
    <glyph glyph-name="hungarumlaut" unicode="&#x2dd;" horiz-adv-x="1106" 
d="M254 1903l339 458h235l-428 -458h-146zM662 1903l341 458h235l-430 -458h-146z" />
    <glyph glyph-name="uni03A9" unicode="&#x3a9;" horiz-adv-x="2392" 
d="M2069 1213q16 104 16 198q0 121 -23 232.5t-72.5 211t-122 172.5t-177.5 115.5t-232 42.5q-236 0 -435.5 -131t-327 -352t-171.5 -496q-17 -108 -17 -219q0 -282 105.5 -508t261.5 -342l-22 -137h-753l27 167h494q-135 145 -215.5 357.5t-80.5 467.5q0 127 20 251
q38 241 145.5 449t259.5 352.5t344 227t395 82.5q148 0 275 -45.5t220.5 -127t160.5 -192.5t100 -244t33 -280q0 -99 -17 -209q-55 -343 -229 -631t-394 -458h495l-27 -167h-749l22 137q87 54 171.5 126.5t168.5 174t152.5 216.5t121.5 260t77 299z" />
    <glyph glyph-name="uni03BC" unicode="&#x3bc;" horiz-adv-x="1898" 
d="M172 -656l386 2437h177l-185 -1165q-9 -57 -9 -109q0 -157 79.5 -253.5t236.5 -96.5q148 0 274 99t208.5 267t116.5 382l139 876h178l-189 -1198q-30 -188 -30 -266q0 -162 104 -199l-22 -142q-73 0 -123.5 27t-76.5 77t-36.5 107.5t-10.5 132.5q0 26 2 62h-2
q-91 -188 -244 -297t-315 -109q-117 0 -199 46t-152 148l-131 -826h-176z" />
    <glyph glyph-name="pi" unicode="&#x3c0;" horiz-adv-x="2223" 
d="M2286 1610h-445q-117 -358 -185 -780q-25 -161 -25 -273q0 -210 83 -311t263 -101l-41 -169q-112 0 -198 23t-142.5 64t-92 102t-50.5 132t-15 159q0 108 22 245q70 442 217 909h-723q-125 -577 -242.5 -999.5t-204.5 -610.5h-209q142 316 252.5 684t242.5 928h-153
q-91 0 -166.5 -16t-175.5 -60l-28 106q158 139 477 139h1586z" />
    <glyph glyph-name="uni200A" unicode="&#x200a;" horiz-adv-x="73" 
 />
    <glyph glyph-name="uni2010" unicode="&#x2010;" horiz-adv-x="1319" 
d="M298 801l27 169h835l-27 -169h-835z" />
    <glyph glyph-name="endash" unicode="&#x2013;" horiz-adv-x="2057" 
d="M298 807l25 157h1575l-25 -157h-1575z" />
    <glyph glyph-name="emdash" unicode="&#x2014;" horiz-adv-x="3578" 
d="M298 807l25 157h3096l-25 -157h-3096z" />
    <glyph glyph-name="quoteleft" unicode="&#x2018;" horiz-adv-x="673" 
d="M248 1675l398 794h153l-339 -794h-212z" />
    <glyph glyph-name="quoteright" unicode="&#x2019;" horiz-adv-x="673" 
d="M248 1675l339 794h212l-398 -794h-153z" />
    <glyph glyph-name="quotesinglbase" unicode="&#x201a;" horiz-adv-x="665" 
d="M23 -415l340 794h212l-399 -794h-153z" />
    <glyph glyph-name="quotedblleft" unicode="&#x201c;" horiz-adv-x="1094" 
d="M248 1675l397 794h153l-339 -794h-211zM668 1675l398 794h153l-339 -794h-212z" />
    <glyph glyph-name="quotedblright" unicode="&#x201d;" horiz-adv-x="1093" 
d="M248 1675l339 794h211l-398 -794h-152zM668 1675l340 794h210l-396 -794h-154z" />
    <glyph glyph-name="quotedblbase" unicode="&#x201e;" horiz-adv-x="1085" 
d="M23 -415l341 794h211l-399 -794h-153zM444 -415l340 794h211l-398 -794h-153z" />
    <glyph glyph-name="dagger" unicode="&#x2020;" horiz-adv-x="1745" 
d="M963 1680l110 696h181l-110 -696h652l-26 -166h-652l-306 -1934h-181l306 1934h-638l26 166h638z" />
    <glyph glyph-name="daggerdbl" unicode="&#x2021;" horiz-adv-x="1831" 
d="M680 -420l188 1193h-641l27 166h641l103 651h-641l26 167h641l98 619h182l-98 -619h641l-26 -167h-641l-103 -651h641l-27 -166h-641l-188 -1193h-182z" />
    <glyph glyph-name="bullet" unicode="&#x2022;" horiz-adv-x="1321" 
d="M660 667q-187 0 -319.5 132.5t-132.5 319.5t132 319.5t320 132.5q187 0 319.5 -132.5t132.5 -319.5q0 -122 -60.5 -226.5t-165 -165t-226.5 -60.5z" />
    <glyph glyph-name="ellipsis" unicode="&#x2026;" horiz-adv-x="2765" 
d="M463 196q0 -28 -6 -67q-13 -86 -41.5 -119.5t-93.5 -33.5q-50 0 -70.5 19.5t-20.5 65.5q0 27 6 68q14 87 42.5 122t91.5 35q49 0 70.5 -21t21.5 -69zM1507 197q0 -29 -6 -68q-13 -86 -41 -119.5t-92 -33.5q-51 0 -71 19t-20 65q0 28 6 69q14 87 42.5 122t91.5 35
q49 0 69.5 -21t20.5 -68zM2553 196q0 -28 -6 -67q-13 -86 -41.5 -119.5t-92.5 -33.5q-51 0 -71.5 19t-20.5 66q0 27 6 68q14 87 43 122t92 35q49 0 70 -21t21 -69z" />
    <glyph glyph-name="perthousand" unicode="&#x2030;" horiz-adv-x="3749" 
d="M701 974q-214 0 -302 92t-88 290q0 117 29 302q23 146 50.5 248.5t71.5 189.5t104.5 138.5t148 79.5t203.5 28q215 0 303.5 -93t88.5 -293q0 -121 -28 -298q-23 -146 -51 -248.5t-72 -189.5t-105.5 -138.5t-148.5 -79.5t-204 -28zM447 1364q0 -134 59.5 -201t209.5 -67
q67 0 121 14.5t93 38t70.5 65t52 83t38.5 106t28.5 119t23.5 136.5q32 196 32 292q0 134 -60 202t-211 68q-52 0 -96.5 -9t-79.5 -23.5t-64 -40t-50.5 -52t-40 -67t-31 -76.5t-25 -89.5t-20.5 -97t-18 -107.5q-32 -209 -32 -294zM1893 -12q-214 0 -302 92t-88 290
q0 116 29 303q23 145 50.5 247.5t71.5 189.5t105 138.5t148 79.5t203 28q215 0 303.5 -92.5t88.5 -292.5q0 -122 -28 -298q-23 -146 -51 -249t-72.5 -190t-105.5 -138.5t-148 -79.5t-204 -28zM1638 378q0 -133 59.5 -200.5t209.5 -67.5q67 0 121 14.5t93.5 38t71 65t52 83
t38 106t28.5 119.5t24 137q32 207 32 292q0 134 -60 202t-212 68q-67 0 -120.5 -14.5t-93 -38t-70.5 -65.5t-51 -82.5t-37.5 -105.5t-28 -119.5t-23.5 -136.5q-33 -205 -33 -295zM3607 972q0 -115 -29 -299q-23 -146 -51 -249t-72 -190t-105.5 -138.5t-148.5 -79.5t-204 -28
q-213 0 -301.5 91.5t-88.5 289.5q0 111 30 304q23 146 50.5 248t71.5 189t104.5 138.5t147.5 79.5t204 28q215 0 303.5 -92.5t88.5 -291.5zM2743 377q0 -133 59.5 -200t209.5 -67q67 0 121 14.5t93 38t70.5 65t52 83t38 106t28.5 119.5t24 137q32 207 32 292q0 134 -60 202
t-211 68q-52 0 -96.5 -9t-79.5 -23.5t-64 -40t-50.5 -52t-40 -67t-31 -76.5t-24.5 -89.5t-20 -97.5t-18 -107q-33 -205 -33 -296zM460 -48l1724 2426h168l-1725 -2426h-167z" />
    <glyph glyph-name="guilsinglleft" unicode="&#x2039;" horiz-adv-x="951" 
d="M431 862l305 -643h-193l-345 643l548 644h193z" />
    <glyph glyph-name="guilsinglright" unicode="&#x203a;" horiz-adv-x="950" 
d="M888 862l-548 -643h-193l509 643l-305 644h193z" />
    <glyph glyph-name="fraction" unicode="&#x2044;" horiz-adv-x="494" 
d="M-606 -48l1724 2426h168l-1725 -2426h-167z" />
    <glyph glyph-name="uni2070" unicode="&#x2070;" horiz-adv-x="1227" 
d="M666 1354q-214 0 -303 93t-89 292q0 115 29 300q19 121 41 210.5t54 170t75 134t101 93t134.5 58t173.5 18.5q215 0 303.5 -93.5t88.5 -293.5q0 -121 -28 -297q-23 -146 -51 -248.5t-72 -189.5t-105.5 -139t-148.5 -80t-203 -28zM1107 2039q32 196 32 292q0 134 -60 202
t-211 68q-67 0 -121 -14.5t-93.5 -38t-70.5 -65t-51.5 -83t-38 -106t-28 -119t-23.5 -136.5q-32 -197 -32 -293q0 -134 60 -201.5t210 -67.5q67 0 121 14.5t93 38t70.5 65t52 82.5t38 105.5t28.5 119.5t24 137z" />
    <glyph glyph-name="uni2074" unicode="&#x2074;" horiz-adv-x="1161" 
d="M804 1366l51 325h-569q-65 0 -86.5 24.5t-15.5 68.5q7 47 88 135l658 717q79 85 146 85q36 0 54.5 -24t10.5 -74l-128 -815h182l-19 -117h-183l-51 -325h-138zM987 2523l-653 -715h540z" />
    <glyph glyph-name="uni2075" unicode="&#x2075;" horiz-adv-x="1062" 
d="M449 2173q74 6 140 6q95 0 163.5 -6t134.5 -25t107 -51t66 -87t25 -131q0 -50 -8 -98q-35 -225 -170 -324.5t-375 -99.5q-188 0 -376 38l33 118q172 -29 314 -29q107 0 179.5 14t127 49.5t85 95t44.5 151.5q5 33 5 56q0 53 -20 90.5t-53.5 60t-89 35t-113.5 17t-140 4.5
q-131 0 -242 -7l149 661h752l-19 -125h-626z" />
    <glyph glyph-name="uni2076" unicode="&#x2076;" horiz-adv-x="1182" 
d="M1200 1779q-20 -125 -67 -210t-121.5 -131.5t-162 -65.5t-205.5 -19q-212 0 -300.5 89t-88.5 265q0 79 18 195q26 163 56.5 278.5t78 211t109 155.5t151.5 101t203 57.5t266 16.5q39 0 106 -2l-7 -118q-220 -7 -275 -13q-220 -23 -335 -124.5t-161 -300.5q230 26 344 26
q98 0 168 -13t124.5 -45.5t81.5 -91t27 -145.5q0 -55 -10 -116zM658 1476q198 0 288 69.5t117 236.5q7 43 7 84q0 50 -14 86.5t-38.5 59t-65.5 36t-88.5 18.5t-113.5 5q-74 0 -314 -30q-14 -60 -30 -166q-13 -78 -13 -142q0 -120 59 -188.5t206 -68.5z" />
    <glyph glyph-name="uni2077" unicode="&#x2077;" horiz-adv-x="985" 
d="M1158 2575l-736 -1206h-154l756 1217h-731l19 123h774q55 0 78.5 -20t18.5 -56q-4 -22 -25 -58z" />
    <glyph glyph-name="uni2078" unicode="&#x2078;" horiz-adv-x="1190" 
d="M1185 1804q0 -36 -6 -76q-14 -89 -49.5 -156t-84 -108t-115 -66t-134.5 -34.5t-150 -9.5q-95 0 -168.5 15t-131.5 47.5t-88.5 91t-30.5 139.5q0 41 7 82q39 243 266 336q-77 42 -112 101.5t-35 142.5q0 43 7 85q26 162 155 245.5t348 83.5q194 0 299.5 -68.5
t105.5 -201.5q0 -24 -5 -59q-19 -120 -74 -198t-171 -131q167 -78 167 -261zM368 1678q0 -59 23 -99.5t65.5 -62.5t93 -31t116.5 -9q60 0 108 6t95.5 23.5t81 45.5t58.5 74.5t35 109.5q4 24 4 51q0 106 -81 155t-238 60q-75 -9 -130 -24.5t-104.5 -44.5t-80 -78.5
t-41.5 -118.5q-5 -33 -5 -57zM489 2326q0 -182 298 -206q67 10 118.5 25.5t99.5 43t78.5 73t40.5 107.5q4 24 4 50q0 54 -22 91.5t-63.5 57t-89 27.5t-109.5 8q-68 0 -121.5 -10t-104 -34.5t-82.5 -72t-43 -117.5q-4 -30 -4 -43z" />
    <glyph glyph-name="uni2079" unicode="&#x2079;" horiz-adv-x="1179" 
d="M297 2298q20 125 67.5 210t122 131.5t162 65.5t204.5 19q212 0 300.5 -89t88.5 -265q0 -79 -18 -195q-26 -163 -56.5 -278.5t-78 -211t-109 -155.5t-151.5 -101t-203 -57.5t-266 -16.5q-38 0 -106 2l7 118q220 7 275 13q220 23 335 124.5t161 300.5q-232 -26 -344 -26
q-98 0 -168 13.5t-124.5 46t-81.5 91t-27 145.5q0 55 10 115zM839 2601q-198 0 -288 -69.5t-117 -236.5q-7 -43 -7 -83q0 -121 76 -163.5t244 -42.5q74 0 314 30q14 60 30 166q13 80 13 143q0 120 -59 188t-206 68z" />
    <glyph glyph-name="uni2080" unicode="&#x2080;" horiz-adv-x="1227" 
d="M666 -394q-214 0 -303 93t-89 292q0 115 29 300q19 121 41 210.5t54 170t75 134t101 93t134.5 58t173.5 18.5q215 0 303.5 -93.5t88.5 -293.5q0 -121 -28 -297q-23 -146 -51 -248.5t-72 -189.5t-105.5 -139t-148.5 -80t-203 -28zM1107 291q32 196 32 292q0 134 -60 202
t-211 68q-67 0 -121 -14.5t-93.5 -38t-70.5 -65t-51.5 -83t-38 -106t-28 -119t-23.5 -136.5q-32 -197 -32 -293q0 -134 60 -201.5t210 -67.5q67 0 121 14.5t93 38t70.5 65t52 82.5t38 105.5t28.5 119.5t24 137z" />
    <glyph glyph-name="uni2081" unicode="&#x2081;" horiz-adv-x="692" 
d="M432 -375l188 1184q-169 -47 -341 -74l12 121q207 33 385 109h105l-213 -1340h-136z" />
    <glyph glyph-name="uni2082" unicode="&#x2082;" horiz-adv-x="1039" 
d="M362 934q227 39 398 39q403 0 403 -259q0 -25 -5 -62q-28 -178 -142.5 -290t-315.5 -191q-88 -35 -150.5 -76t-105.5 -95.5t-70.5 -112.5t-53.5 -143h693l-20 -126h-858q35 107 60.5 175.5t58.5 138.5t66.5 114.5t80.5 88t104 76t133 63.5q159 64 258.5 148t118.5 203
q4 24 4 51q0 94 -76.5 133t-250.5 39q-133 0 -333 -30z" />
    <glyph glyph-name="uni2083" unicode="&#x2083;" horiz-adv-x="1048" 
d="M1119 657q-38 -241 -239 -330q70 -29 117.5 -95t47.5 -161q0 -24 -5 -59q-18 -115 -64.5 -195t-120 -125.5t-164 -65.5t-210.5 -20q-188 0 -359 37l35 118q217 -30 305 -30q205 0 307.5 59.5t126.5 211.5q4 21 4 46q0 87 -53 140t-142 63q-61 7 -163 7q-70 0 -108 -1
l18 115q140 1 274 21q100 16 167.5 79.5t81.5 152.5q5 35 5 56q0 46 -16 77.5t-41.5 49.5t-70 28t-86.5 12.5t-106 2.5q-135 0 -323 -29l3 116q198 37 367 37q71 0 128.5 -6t113.5 -22.5t93 -44t60 -73.5t23 -107q0 -30 -6 -65z" />
    <glyph glyph-name="uni2084" unicode="&#x2084;" horiz-adv-x="1161" 
d="M804 -382l51 325h-569q-65 0 -86.5 24.5t-15.5 68.5q7 47 88 135l658 717q79 85 146 85q36 0 54.5 -24t10.5 -74l-128 -815h182l-19 -117h-183l-51 -325h-138zM987 775l-653 -715h540z" />
    <glyph glyph-name="uni2085" unicode="&#x2085;" horiz-adv-x="1062" 
d="M449 425q74 6 140 6q95 0 163.5 -6t134.5 -25t107 -51t66 -87t25 -131q0 -50 -8 -98q-35 -225 -170 -324.5t-375 -99.5q-188 0 -376 38l33 118q172 -29 314 -29q107 0 179.5 14t127 49.5t85 95t44.5 151.5q5 33 5 56q0 53 -20 90.5t-53.5 60t-89 35t-113.5 17t-140 4.5
q-131 0 -242 -7l149 661h752l-19 -125h-626z" />
    <glyph glyph-name="uni2086" unicode="&#x2086;" horiz-adv-x="1182" 
d="M1200 31q-20 -125 -67 -210t-121.5 -131.5t-162 -65.5t-205.5 -19q-212 0 -300.5 89t-88.5 265q0 79 18 195q26 163 56.5 278.5t78 211t109 155.5t151.5 101t203 57.5t266 16.5q39 0 106 -2l-7 -118q-220 -7 -275 -13q-220 -23 -335 -125t-161 -300q230 26 344 26
q98 0 168 -13t124.5 -45.5t81.5 -91t27 -145.5q0 -55 -10 -116zM658 -272q198 0 288 69.5t117 236.5q7 43 7 84q0 50 -14 86.5t-38.5 59t-65.5 36t-88.5 18.5t-113.5 5q-74 0 -314 -30q-14 -60 -30 -166q-13 -78 -13 -142q0 -120 59 -188.5t206 -68.5z" />
    <glyph glyph-name="uni2087" unicode="&#x2087;" horiz-adv-x="985" 
d="M1158 827l-736 -1206h-154l756 1217h-731l19 123h774q55 0 78.5 -20t18.5 -56q-4 -22 -25 -58z" />
    <glyph glyph-name="uni2088" unicode="&#x2088;" horiz-adv-x="1190" 
d="M1185 56q0 -35 -6 -76q-14 -89 -49.5 -156t-84 -108t-115 -66t-134.5 -34.5t-150 -9.5q-95 0 -168.5 15t-131.5 47.5t-88.5 91t-30.5 139.5q0 41 7 82q39 243 266 336q-77 42 -112 101.5t-35 142.5q0 43 7 85q26 162 155 245.5t348 83.5q194 0 299.5 -68.5t105.5 -201.5
q0 -24 -5 -59q-19 -120 -74 -198t-171 -131q167 -78 167 -261zM368 -70q0 -59 23 -99.5t65.5 -62.5t93 -31t116.5 -9q60 0 108 6t95.5 23.5t81 45.5t58.5 74.5t35 109.5q4 24 4 51q0 106 -81 155t-238 60q-75 -9 -130 -24.5t-104.5 -44.5t-80 -78.5t-41.5 -118.5
q-5 -33 -5 -57zM489 578q0 -182 298 -206q67 10 118.5 25.5t99.5 43t78.5 73t40.5 107.5q4 24 4 50q0 54 -22 91.5t-63.5 57t-89 27.5t-109.5 8q-68 0 -121.5 -10t-104 -34.5t-82.5 -72t-43 -117.5q-4 -30 -4 -43z" />
    <glyph glyph-name="uni2089" unicode="&#x2089;" horiz-adv-x="1179" 
d="M297 550q20 125 67.5 210t122 131.5t162 65.5t204.5 19q212 0 300.5 -89t88.5 -265q0 -79 -18 -195q-26 -163 -56.5 -278.5t-78 -211t-109 -155.5t-151.5 -101t-203 -57.5t-266 -16.5q-38 0 -106 2l7 118q220 7 275 13q220 23 335 124.5t161 300.5q-232 -26 -344 -26
q-98 0 -168 13.5t-124.5 46t-81.5 91t-27 145.5q0 55 10 115zM839 853q-198 0 -288 -69.5t-117 -236.5q-7 -43 -7 -83q0 -121 76 -163.5t244 -42.5q74 0 314 30q14 60 30 166q13 80 13 143q0 120 -59 188t-206 68z" />
    <glyph glyph-name="Euro" unicode="&#x20ac;" horiz-adv-x="1689" 
d="M1349 1015l-54 -143h-658q-15 -142 -15 -234q0 -128 25 -217.5t82.5 -153.5t155.5 -94.5t242 -30.5q143 0 351 36l-10 -154q-213 -48 -421 -48q-332 0 -472.5 150.5t-140.5 484.5q0 119 15 261h-247l53 143h212l17 115q10 68 24 141h-223l53 144h199q51 232 119 390.5
t171.5 268.5t246.5 160t339 50q213 0 406 -45l-41 -158q-197 37 -338 37q-138 0 -243 -30t-180.5 -84t-131.5 -143.5t-93 -194.5t-68 -251h776l-55 -144h-749q-16 -92 -23 -141l-17 -115h693z" />
    <glyph glyph-name="uni2113" unicode="&#x2113;" horiz-adv-x="1540" 
d="M129 684l314 203q32 204 58 345.5t64.5 309t79 279.5t98.5 224.5t125 177.5t157 106t197 41q137 0 205.5 -91t68.5 -241q0 -60 -10 -119q-18 -116 -77 -239.5t-141.5 -233.5t-192 -222.5t-220 -206t-235.5 -185.5q-12 -151 -12 -239q0 -236 69.5 -349.5t236.5 -113.5
q74 0 144.5 29t119 66t125.5 106l62 -92q-231 -263 -520 -263q-97 0 -172 32.5t-123 87.5t-79 135t-43.5 167.5t-12.5 192.5q0 69 4 125l-255 -146zM1185 2227q-55 0 -104 -24t-88 -64t-75 -101.5t-62.5 -125.5t-52 -147t-43 -156t-35.5 -162.5t-29.5 -156t-26 -147.5
t-23.5 -127q150 125 258 229.5t200.5 218.5t147.5 229.5t74 235.5q8 50 8 95q0 89 -35 146t-114 57z" />
    <glyph glyph-name="trademark" unicode="&#x2122;" horiz-adv-x="3255" 
d="M2954 934h-157v1228l-2 1l-541 -1229h-107l-539 1230l-2 -1v-1229h-157v1396h253l505 -1151l496 1151h251v-1396zM1236 2330v-138h-464v-1258h-154v1258h-464v138h1082z" />
    <glyph glyph-name="Omega" unicode="&#x2126;" horiz-adv-x="2392" 
d="M2069 1213q16 104 16 198q0 121 -23 232.5t-72.5 211t-122 172.5t-177.5 115.5t-232 42.5q-236 0 -435.5 -131t-327 -352t-171.5 -496q-17 -108 -17 -219q0 -282 105.5 -508t261.5 -342l-22 -137h-753l27 167h494q-135 145 -215.5 357.5t-80.5 467.5q0 127 20 251
q38 241 145.5 449t259.5 352.5t344 227t395 82.5q148 0 275 -45.5t220.5 -127t160.5 -192.5t100 -244t33 -280q0 -99 -17 -209q-55 -343 -229 -631t-394 -458h495l-27 -167h-749l22 137q87 54 171.5 126.5t168.5 174t152.5 216.5t121.5 260t77 299z" />
    <glyph glyph-name="estimated" unicode="&#x212e;" horiz-adv-x="2789" 
d="M2252 496h206q-99 -120 -206 -212t-236 -163t-283.5 -108t-329.5 -37q-266 0 -493 84t-384 229.5t-246 348t-89 433.5q0 144 38.5 282t109.5 259.5t178.5 223.5t239.5 175t297.5 114t348.5 41q224 0 413 -54t328.5 -151.5t241 -234.5t159 -301.5t74.5 -353.5h-1898v-741
q280 -236 682 -236q534 0 849 402zM721 1809v-619h1368v619q-302 240 -686 240q-404 0 -682 -240z" />
    <glyph glyph-name="uni2190" unicode="&#x2190;" horiz-adv-x="2317" 
d="M561 890l596 -689h-206l-720 777l720 778h206l-596 -689h1679v-177h-1679z" />
    <glyph glyph-name="uni2191" unicode="&#x2191;" horiz-adv-x="1864" 
d="M1098 1653v-1680h-177v1680l-690 -597v206l778 721l778 -721v-206z" />
    <glyph glyph-name="uni2192" unicode="&#x2192;" horiz-adv-x="2318" 
d="M2241 978l-721 -777h-207l597 689h-1679v177h1679l-597 689h207z" />
    <glyph glyph-name="uni2193" unicode="&#x2193;" horiz-adv-x="1864" 
d="M1787 901v-206l-777 -722l-779 722v206l690 -597v1679h177v-1679z" />
    <glyph glyph-name="uni21E8" unicode="&#x21e8;" horiz-adv-x="2665" 
d="M1552 525h-1363v908h1363v555l1043 -1009l-1043 -1010v556zM2364 979l-649 617v-326h-1365v-582h1365v-326z" />
    <glyph glyph-name="partialdiff" unicode="&#x2202;" horiz-adv-x="1709" 
d="M656 2136l-18 128q202 129 453 129q139 0 243 -51.5t169 -149t97 -231t32 -304.5q0 -177 -33 -382q-45 -285 -136.5 -524t-218 -411t-291 -268t-349.5 -96q-113 0 -201 40t-142 111.5t-81.5 164.5t-27.5 203q0 75 12 153q28 175 97.5 322.5t171.5 254t239.5 166
t295.5 59.5q83 0 158.5 -25t129.5 -65.5t91.5 -85t56.5 -90.5l2 1q40 258 40 449q0 306 -108 454t-339 148q-97 0 -175 -25.5t-168 -74.5zM342 526q0 -83 19 -155t56 -128t98 -88.5t140 -32.5q105 0 202.5 52t173.5 138t141 201t109.5 235.5t74.5 247.5q-125 305 -392 305
q-120 0 -226.5 -53.5t-183.5 -144.5t-129.5 -207.5t-72.5 -246.5q-10 -68 -10 -123z" />
    <glyph glyph-name="Delta" unicode="&#x2206;" horiz-adv-x="2067" 
d="M1867 152l-24 -152h-1804l23 146l1135 2184h241zM1665 165l-385 1971l-1017 -1971h1402z" />
    <glyph glyph-name="product" unicode="&#x220f;" horiz-adv-x="2523" 
d="M2696 2400l-27 -176h-392l-422 -2669h-188l422 2669h-1101l-423 -2669h-188l423 2669h-396l28 176h2264z" />
    <glyph glyph-name="summation" unicode="&#x2211;" horiz-adv-x="1941" 
d="M449 2400h1633l-27 -168h-1382l716 -1225l-1165 -1270h1491l-30 -182h-1726l25 157l1166 1274l-724 1265z" />
    <glyph glyph-name="minus" unicode="&#x2212;" horiz-adv-x="1910" 
d="M231 890l28 177h1574l-29 -177h-1573z" />
    <glyph glyph-name="uni2215" unicode="&#x2215;" horiz-adv-x="494" 
d="M-606 -48l1724 2426h168l-1725 -2426h-167z" />
    <glyph glyph-name="uni2219" unicode="&#x2219;" horiz-adv-x="692" 
d="M305 885q0 29 6 68q14 87 42.5 122.5t91.5 35.5q49 0 70 -21t21 -69q0 -29 -6 -68q-14 -87 -41.5 -120t-92.5 -33q-50 0 -70.5 19.5t-20.5 65.5z" />
    <glyph glyph-name="radical" unicode="&#x221a;" horiz-adv-x="1783" 
d="M2019 2819l-1137 -2981h-198l-250 1403l-238 -90l-22 147l428 162l215 -1356l1027 2715h175z" />
    <glyph glyph-name="infinity" unicode="&#x221e;" horiz-adv-x="2605" 
d="M2465 1104q0 -65 -10 -125q-19 -123 -73.5 -235.5t-135 -199.5t-192 -139t-236.5 -52q-55 0 -107 14.5t-93.5 35t-86 60t-75.5 73t-72.5 91t-67 96.5t-67.5 106q-154 -172 -309.5 -261t-300.5 -89q-169 0 -272.5 120.5t-103.5 294.5q0 44 7 85q21 130 95.5 244.5
t190 186.5t242.5 72q142 0 268.5 -91.5t229.5 -264.5q62 67 103 109t98.5 98t101 90.5t98.5 72.5t103.5 59t104 34.5t110.5 13.5q109 0 196 -39.5t141.5 -108t83.5 -158t29 -193.5zM425 907q0 -120 66.5 -188.5t174.5 -68.5q103 0 222.5 73.5t287.5 255.5q-111 182 -207 257
t-199 75q-124 0 -219.5 -90t-119.5 -242q-6 -37 -6 -72zM2290 1090q0 162 -82 251t-220 89q-244 0 -610 -451q31 -64 60.5 -116t77 -118t94.5 -110.5t109 -75.5t126 -31q161 0 281.5 118.5t154.5 332.5q9 59 9 111z" />
    <glyph glyph-name="integral" unicode="&#x222b;" horiz-adv-x="1106" 
d="M1425 2491q-24 18 -63.5 31t-76.5 13q-67 0 -124.5 -23.5t-98.5 -60t-76 -93t-57.5 -110.5t-41.5 -125.5t-29.5 -124t-21.5 -119.5q-42 -265 -98.5 -807t-100.5 -821q-12 -74 -30 -147.5t-47 -154.5t-65 -152t-87 -136.5t-109 -112t-134 -74.5t-160 -28q-63 0 -133 19
t-104 41l67 163q91 -53 184 -53q166 0 275 172t157 475q41 256 102 822t101 817q13 83 30.5 158.5t46.5 157.5t64.5 150t86.5 130.5t111 105.5t140 68.5t171 25.5q49 0 108 -16.5t82 -35.5z" />
    <glyph glyph-name="approxequal" unicode="&#x2248;" horiz-adv-x="2132" 
d="M1918 798l-27 -180q-91 -84 -219 -127t-252 -43q-83 0 -158 21.5t-132.5 52t-115 61.5t-131 52.5t-154.5 21.5q-124 0 -251 -43t-218 -127l28 180q91 84 218.5 127t251.5 43q83 0 158 -21.5t133 -52.5t115 -61.5t130.5 -52t154.5 -21.5q124 0 251.5 43t217.5 127z
M2025 1470l-29 -181q-90 -84 -217.5 -127t-251.5 -43q-83 0 -158 21.5t-133 52.5t-115 62t-130.5 52.5t-154.5 21.5q-124 0 -251.5 -43t-218.5 -128l28 181q92 85 219.5 127.5t251.5 42.5q83 0 158 -21.5t132.5 -52t115 -61.5t130.5 -52.5t154 -21.5q125 0 252.5 43
t217.5 127z" />
    <glyph glyph-name="notequal" unicode="&#x2260;" horiz-adv-x="2097" 
d="M272 553l28 176h605l293 497h-819l28 175h894l340 578h147l-340 -578h532l-28 -175h-607l-292 -497h821l-28 -176h-896l-338 -575h-148l338 575h-530z" />
    <glyph glyph-name="lessequal" unicode="&#x2264;" horiz-adv-x="1990" 
d="M310 1083l28 175l1634 693l-32 -199l-1405 -582l1221 -581l-32 -198zM139 6l28 177h1525l-29 -177h-1524z" />
    <glyph glyph-name="greaterequal" unicode="&#x2265;" horiz-adv-x="1990" 
d="M265 589l1404 581l-1220 582l32 199l1414 -693l-28 -175l-1634 -692zM172 6l29 177h1524l-29 -177h-1524z" />
    <glyph glyph-name="lozenge" unicode="&#x25ca;" horiz-adv-x="1696" 
d="M1631 1168l-784 -1222h-199l-399 1222l785 1217h199zM775 120l661 1048l-329 1049l-662 -1049z" />
    <glyph glyph-name="zero.numerator" horiz-adv-x="1227" 
d="M666 973q-214 0 -303 93t-89 292q0 115 29 300q19 121 41 210.5t54 170t75 134t101 93t134.5 58t173.5 18.5q215 0 303.5 -93t88.5 -294q0 -121 -28 -297q-23 -146 -51 -248.5t-72 -189.5t-105.5 -139t-148.5 -80t-203 -28zM1107 1658q32 196 32 292q0 134 -60 202
t-211 68q-67 0 -121 -14.5t-93.5 -38t-70.5 -65t-51.5 -83t-38 -106t-28 -119t-23.5 -136.5q-32 -197 -32 -293q0 -134 60 -201.5t210 -67.5q67 0 121 14.5t93 38t70.5 65t52 82.5t38 105.5t28.5 119.5t24 137z" />
    <glyph glyph-name="one.numerator" horiz-adv-x="692" 
d="M432 992l188 1184q-169 -47 -341 -74l12 121q207 33 385 109h105l-213 -1340h-136z" />
    <glyph glyph-name="two.numerator" horiz-adv-x="1039" 
d="M362 2301q227 39 398 39q403 0 403 -259q0 -25 -5 -62q-28 -178 -142.5 -290t-315.5 -191q-88 -35 -150.5 -76t-105.5 -95.5t-70.5 -112.5t-53.5 -143h693l-20 -126h-858q35 107 60.5 175.5t58.5 138.5t66.5 114.5t80.5 88t104 76t133 63.5q159 64 258.5 148t118.5 203
q4 24 4 51q0 94 -76.5 133t-250.5 39q-133 0 -333 -30z" />
    <glyph glyph-name="three.numerator" horiz-adv-x="1048" 
d="M1119 2024q-38 -241 -239 -330q70 -29 117.5 -95t47.5 -161q0 -24 -5 -59q-18 -115 -64.5 -195t-120 -125.5t-164 -65.5t-210.5 -20q-188 0 -359 37l35 118q217 -30 305 -30q205 0 307.5 59.5t126.5 211.5q4 21 4 46q0 87 -53 140t-142 63q-61 7 -163 7q-70 0 -108 -1
l18 115q140 1 274 21q100 16 167.5 79.5t81.5 152.5q5 35 5 56q0 46 -16 77.5t-41.5 49.5t-70 28t-86.5 12.5t-106 2.5q-135 0 -323 -29l3 116q198 37 367 37q71 0 128.5 -6t113.5 -22.5t93 -44t60 -73.5t23 -107q0 -31 -6 -65z" />
    <glyph glyph-name="four.numerator" horiz-adv-x="1161" 
d="M804 985l51 325h-569q-65 0 -86.5 24.5t-15.5 68.5q7 47 88 135l658 717q79 85 146 85q36 0 54.5 -24t10.5 -74l-128 -815h182l-19 -117h-183l-51 -325h-138zM987 2142l-653 -715h540z" />
    <glyph glyph-name="five.numerator" horiz-adv-x="1062" 
d="M449 1792q74 6 140 6q95 0 163.5 -6t134.5 -25t107 -51t66 -87t25 -131q0 -50 -8 -98q-35 -225 -170 -324.5t-375 -99.5q-188 0 -376 38l33 118q172 -29 314 -29q107 0 179.5 14t127 49.5t85 95t44.5 151.5q5 33 5 56q0 53 -20 90.5t-53.5 60t-89 35t-113.5 17t-140 4.5
q-131 0 -242 -7l149 661h752l-19 -125h-626z" />
    <glyph glyph-name="six.numerator" horiz-adv-x="1182" 
d="M1200 1398q-20 -125 -67 -210t-121.5 -131.5t-162 -65.5t-205.5 -19q-212 0 -300.5 89t-88.5 265q0 79 18 195q26 163 56.5 278.5t78 211t109 155.5t151.5 101t203 57.5t266 16.5q39 0 106 -2l-7 -118q-220 -7 -275 -13q-220 -23 -335 -124.5t-161 -300.5q230 26 344 26
q98 0 168 -13t124.5 -45.5t81.5 -91t27 -145.5q0 -55 -10 -116zM658 1095q198 0 288 69.5t117 236.5q7 43 7 84q0 50 -14 86.5t-38.5 59t-65.5 36t-88.5 18.5t-113.5 5q-74 0 -314 -30q-14 -60 -30 -166q-13 -78 -13 -142q0 -120 59 -188.5t206 -68.5z" />
    <glyph glyph-name="seven.numerator" horiz-adv-x="985" 
d="M1158 2194l-736 -1206h-154l756 1217h-731l19 123h774q55 0 78.5 -20t18.5 -56q-4 -22 -25 -58z" />
    <glyph glyph-name="eight.numerator" horiz-adv-x="1190" 
d="M1185 1423q0 -35 -6 -76q-14 -89 -49.5 -156t-84 -108t-115 -66t-134.5 -34.5t-150 -9.5q-95 0 -168.5 15t-131.5 47.5t-88.5 91t-30.5 139.5q0 41 7 82q39 243 266 336q-77 42 -112 101.5t-35 142.5q0 43 7 85q26 162 155 245.5t348 83.5q194 0 299.5 -68.5
t105.5 -201.5q0 -24 -5 -59q-19 -120 -74 -198t-171 -131q167 -78 167 -261zM368 1297q0 -59 23 -99.5t65.5 -62.5t93 -31t116.5 -9q60 0 108 6t95.5 23.5t81 45.5t58.5 74.5t35 109.5q4 24 4 51q0 106 -81 155t-238 60q-75 -9 -130 -24.5t-104.5 -44.5t-80 -78.5
t-41.5 -118.5q-5 -33 -5 -57zM489 1945q0 -182 298 -206q67 10 118.5 25.5t99.5 43t78.5 73t40.5 107.5q4 24 4 50q0 54 -22 91.5t-63.5 57t-89 27.5t-109.5 8q-68 0 -121.5 -10t-104 -34.5t-82.5 -72t-43 -117.5q-4 -30 -4 -43z" />
    <glyph glyph-name="nine.numerator" horiz-adv-x="1179" 
d="M297 1917q20 125 67.5 210t122 131.5t162 65.5t204.5 19q212 0 300.5 -89t88.5 -265q0 -79 -18 -195q-26 -163 -56.5 -278.5t-78 -211t-109 -155.5t-151.5 -101t-203 -57.5t-266 -16.5q-38 0 -106 2l7 118q220 7 275 13q220 23 335 124.5t161 300.5q-232 -26 -344 -26
q-98 0 -168 13.5t-124.5 46t-81.5 91t-27 145.5q0 55 10 115zM839 2220q-198 0 -288 -69.5t-117 -236.5q-7 -43 -7 -83q0 -121 76 -163.5t244 -42.5q74 0 314 30q14 60 30 166q13 80 13 143q0 120 -59 188t-206 68z" />
    <glyph glyph-name="zero.denominator" horiz-adv-x="1227" 
d="M666 -12q-214 0 -303 93t-89 292q0 115 29 300q19 121 41 210.5t54 170t75 134t101 93t134.5 58t173.5 18.5q215 0 303.5 -93.5t88.5 -293.5q0 -121 -28 -297q-23 -146 -51 -248.5t-72 -189.5t-105.5 -139t-148.5 -80t-203 -28zM1107 673q32 196 32 292q0 134 -60 202
t-211 68q-67 0 -121 -14.5t-93.5 -38t-70.5 -65t-51.5 -83t-38 -106t-28 -119t-23.5 -136.5q-32 -197 -32 -293q0 -134 60 -201.5t210 -67.5q67 0 121 14.5t93 38t70.5 65t52 82.5t38 105.5t28.5 119.5t24 137z" />
    <glyph glyph-name="one.denominator" horiz-adv-x="692" 
d="M432 7l188 1184q-169 -47 -341 -74l12 121q207 33 385 109h105l-213 -1340h-136z" />
    <glyph glyph-name="two.denominator" horiz-adv-x="1039" 
d="M362 1316q227 39 398 39q403 0 403 -259q0 -25 -5 -62q-28 -178 -142.5 -290t-315.5 -191q-88 -35 -150.5 -76t-105.5 -95.5t-70.5 -112.5t-53.5 -143h693l-20 -126h-858q35 107 60.5 175.5t58.5 138.5t66.5 114.5t80.5 88t104 76t133 63.5q159 64 258.5 148t118.5 203
q4 24 4 51q0 94 -76.5 133t-250.5 39q-133 0 -333 -30z" />
    <glyph glyph-name="three.denominator" horiz-adv-x="1048" 
d="M1119 1039q-38 -241 -239 -330q70 -29 117.5 -95t47.5 -161q0 -24 -5 -59q-18 -115 -64.5 -195t-120 -125.5t-164 -65.5t-210.5 -20q-188 0 -359 37l35 118q217 -30 305 -30q205 0 307.5 59.5t126.5 211.5q4 21 4 46q0 87 -53 140t-142 63q-61 7 -163 7q-70 0 -108 -1
l18 115q140 1 274 21q100 16 167.5 79.5t81.5 152.5q5 35 5 56q0 46 -16 77.5t-41.5 49.5t-70 28t-86.5 12.5t-106 2.5q-135 0 -323 -29l3 116q198 37 367 37q71 0 128.5 -6t113.5 -22.5t93 -44t60 -73.5t23 -107q0 -30 -6 -65z" />
    <glyph glyph-name="four.denominator" horiz-adv-x="1161" 
d="M804 0l51 325h-569q-65 0 -86.5 24.5t-15.5 68.5q7 47 88 135l658 717q79 85 146 85q36 0 54.5 -24t10.5 -74l-128 -815h182l-19 -117h-183l-51 -325h-138zM987 1157l-653 -715h540z" />
    <glyph glyph-name="five.denominator" horiz-adv-x="1062" 
d="M449 807q74 6 140 6q95 0 163.5 -6t134.5 -25t107 -51t66 -87t25 -131q0 -50 -8 -98q-35 -225 -170 -324.5t-375 -99.5q-188 0 -376 38l33 118q172 -29 314 -29q107 0 179.5 14t127 49.5t85 95t44.5 151.5q5 33 5 56q0 53 -20 90.5t-53.5 60t-89 35t-113.5 17t-140 4.5
q-131 0 -242 -7l149 661h752l-19 -125h-626z" />
    <glyph glyph-name="six.denominator" horiz-adv-x="1182" 
d="M1200 413q-20 -125 -67 -210t-121.5 -131.5t-162 -65.5t-205.5 -19q-212 0 -300.5 89t-88.5 265q0 79 18 195q26 163 56.5 278.5t78 211t109 155.5t151.5 101t203 57.5t266 16.5q39 0 106 -2l-7 -118q-220 -7 -275 -13q-220 -23 -335 -124.5t-161 -300.5q230 26 344 26
q98 0 168 -13t124.5 -45.5t81.5 -91t27 -145.5q0 -55 -10 -116zM658 110q198 0 288 69.5t117 236.5q7 43 7 84q0 50 -14 86.5t-38.5 59t-65.5 36t-88.5 18.5t-113.5 5q-74 0 -314 -30q-14 -60 -30 -166q-13 -78 -13 -142q0 -120 59 -188.5t206 -68.5z" />
    <glyph glyph-name="seven.denominator" horiz-adv-x="985" 
d="M1158 1209l-736 -1206h-154l756 1217h-731l19 123h774q55 0 78.5 -20t18.5 -56q-4 -22 -25 -58z" />
    <glyph glyph-name="eight.denominator" horiz-adv-x="1190" 
d="M1185 438q0 -36 -6 -76q-14 -89 -49.5 -156t-84 -108t-115 -66t-134.5 -34.5t-150 -9.5q-95 0 -168.5 15t-131.5 47.5t-88.5 91t-30.5 139.5q0 41 7 82q39 243 266 336q-77 42 -112 101.5t-35 142.5q0 43 7 85q26 162 155 245.5t348 83.5q194 0 299.5 -68.5t105.5 -201.5
q0 -24 -5 -59q-19 -120 -74 -198t-171 -131q167 -78 167 -261zM368 312q0 -59 23 -99.5t65.5 -62.5t93 -31t116.5 -9q60 0 108 6t95.5 23.5t81 45.5t58.5 74.5t35 109.5q4 24 4 51q0 106 -81 155t-238 60q-75 -9 -130 -24.5t-104.5 -44.5t-80 -78.5t-41.5 -118.5
q-5 -33 -5 -57zM489 960q0 -182 298 -206q67 10 118.5 25.5t99.5 43t78.5 73t40.5 107.5q4 24 4 50q0 54 -22 91.5t-63.5 57t-89 27.5t-109.5 8q-68 0 -121.5 -10t-104 -34.5t-82.5 -72t-43 -117.5q-4 -30 -4 -43z" />
    <glyph glyph-name="nine.denominator" horiz-adv-x="1179" 
d="M297 932q20 125 67.5 210t122 131.5t162 65.5t204.5 19q212 0 300.5 -89t88.5 -265q0 -79 -18 -195q-26 -163 -56.5 -278.5t-78 -211t-109 -155.5t-151.5 -101t-203 -57.5t-266 -16.5q-38 0 -106 2l7 118q220 7 275 13q220 23 335 124.5t161 300.5q-232 -26 -344 -26
q-98 0 -168 13.5t-124.5 46t-81.5 91t-27 145.5q0 55 10 115zM839 1235q-198 0 -288 -69.5t-117 -236.5q-7 -43 -7 -83q0 -121 76 -163.5t244 -42.5q74 0 314 30q14 60 30 166q13 80 13 143q0 120 -59 188t-206 68z" />
    <glyph glyph-name="zero.onum" horiz-adv-x="1877" 
d="M859 -24q-169 0 -286 34.5t-187 106.5t-101 174t-31 247q0 161 40 411q23 146 49.5 259.5t64 218t85.5 180t112 137.5t145.5 100t185.5 58t231 20q170 0 287 -34.5t187.5 -106.5t101 -174.5t30.5 -248.5q0 -167 -39 -409q-23 -146 -49.5 -259.5t-64.5 -218t-85.5 -180
t-112 -137.5t-146.5 -100t-185.5 -58t-231.5 -20zM431 544q0 -99 20.5 -170.5t70 -126.5t137.5 -82t217 -27q76 0 141 9.5t118.5 29.5t98 45t80.5 63.5t64 77t51.5 93.5t40.5 105t32.5 119t26.5 128.5t24 140.5q43 269 43 401q0 100 -20.5 172t-70 127.5t-138 83
t-218.5 27.5q-108 0 -194.5 -21t-149.5 -54.5t-112.5 -93.5t-81.5 -119.5t-59 -152.5t-42.5 -172.5t-34.5 -197.5q-44 -279 -44 -405z" />
    <glyph glyph-name="one.onum" horiz-adv-x="1096" 
d="M555 0l267 1686q-307 -88 -578 -129l17 164q164 26 335.5 76t295.5 103h146l-301 -1900h-182z" />
    <glyph glyph-name="two.onum" horiz-adv-x="1668" 
d="M380 1871q342 51 636 51q656 0 656 -376q0 -30 -7 -79q-16 -104 -59.5 -193.5t-106.5 -159t-152 -130.5t-187.5 -107.5t-222.5 -89.5q-147 -52 -252 -112.5t-178 -138t-120 -164t-86 -205.5h1158l-27 -167h-1380q40 113 71 191.5t68.5 160.5t71.5 138.5t79 114.5t93.5 99
t111.5 82.5t136 74.5t165 65q101 36 184 72t163.5 83.5t137.5 98.5t96.5 115.5t50.5 135.5q6 34 6 64q0 143 -135 201.5t-442 58.5q-243 0 -532 -40z" />
    <glyph glyph-name="three.onum" horiz-adv-x="1597" 
d="M1531 1437q-30 -188 -132 -319.5t-265 -198.5q117 -36 199 -138t82 -259q0 -42 -8 -95q-22 -142 -73.5 -248.5t-125.5 -177.5t-176.5 -115t-219 -62.5t-262.5 -18.5q-291 0 -545 53l48 162q324 -45 464 -45q131 0 230 12.5t182 43t139 80.5t93.5 124.5t53.5 176.5
q6 39 6 76q0 140 -86.5 225.5t-233.5 100.5q-123 13 -300 13q-17 0 -52.5 -0.5t-54.5 -0.5l24 152q223 6 415 34q165 24 273 127t131 248q8 54 8 93q0 53 -13.5 94.5t-35 70t-59 49t-76.5 32t-96.5 18t-109 8.5t-124.5 2q-205 0 -492 -43l6 158q151 28 273 40.5t283 12.5
q110 0 197 -9t172.5 -34.5t142 -67t91.5 -112t35 -164.5q0 -42 -8 -98z" />
    <glyph glyph-name="four.onum" horiz-adv-x="1776" 
d="M1074 -173l79 507h-906q-147 0 -147 103q0 15 3 30q12 76 132 206l1030 1122q118 127 214 127q90 0 90 -98q0 -11 -4 -41l-204 -1289h285l-25 -160h-286l-80 -507h-181zM1366 1673l-1078 -1179h891z" />
    <glyph glyph-name="five.onum" horiz-adv-x="1621" 
d="M1609 1731h-980q-22 -97 -76.5 -337t-75.5 -337q138 9 237 9q79 0 143.5 -2.5t131.5 -9.5t120.5 -18.5t105.5 -29.5t90.5 -43t72.5 -59.5t55 -77.5t33 -98t12 -120q0 -72 -13 -151q-55 -346 -262 -499t-574 -153q-295 0 -572 55l47 161q236 -44 476 -44q172 0 288.5 22.5
t203.5 79.5t136.5 153t72.5 244q8 53 8 91q0 71 -20.5 125t-64 90.5t-97.5 60.5t-133.5 36.5t-160.5 17.5t-188 5q-193 0 -362 -11l227 1009h1146z" />
    <glyph glyph-name="six.onum" horiz-adv-x="1810" 
d="M1670 630q-24 -155 -77.5 -269.5t-126.5 -187.5t-176 -117.5t-215.5 -62t-256.5 -17.5q-166 0 -282 36.5t-184 108.5t-98 169t-30 230q0 132 28 303q30 188 63.5 333t79.5 273.5t102 221.5t132.5 169.5t168 126t211 83.5t260.5 48.5t317 14.5q46 0 150 -2l-9 -161
q-33 -1 -100 -3q-110 -3 -165.5 -5.5t-156 -11t-156 -21.5t-140.5 -38.5t-135.5 -60.5t-114 -88.5t-104 -121.5t-78 -160t-61.5 -204q347 45 556 45q119 0 209.5 -12t169 -43t129 -81.5t78.5 -129.5t28 -186q0 -83 -16 -179zM476 1051q-20 -93 -48 -272q-21 -135 -21 -226
q0 -73 11.5 -131.5t41.5 -112t77.5 -89.5t123.5 -57.5t176 -21.5q319 0 463.5 112t187.5 382q12 75 12 135q0 81 -22.5 139t-62 94.5t-105.5 58t-142 29.5t-182 8q-150 0 -510 -48z" />
    <glyph glyph-name="seven.onum" horiz-adv-x="1504" 
d="M1597 1708l-1148 -1881h-204l1182 1906h-1153l27 167h1195q77 0 111 -28t25 -78q-6 -40 -35 -86z" />
    <glyph glyph-name="eight.onum" horiz-adv-x="1821" 
d="M1648 670q0 -59 -10 -122q-18 -114 -58 -204.5t-99.5 -152.5t-130 -105t-159 -66.5t-176 -33.5t-191.5 -10q-116 0 -210 13.5t-176 46t-137.5 83.5t-87 128.5t-31.5 178.5q0 61 10 125q18 112 57.5 200t97.5 149.5t124.5 103t150.5 72.5q-129 64 -186 156.5t-57 224.5
q0 59 11 133q40 248 236.5 375.5t532.5 127.5q297 0 458 -105t161 -308q0 -47 -7 -90q-30 -189 -120.5 -311t-281.5 -204q279 -110 279 -405zM366 468q0 -77 25 -135t67.5 -94.5t105.5 -59t131.5 -31t153.5 -8.5q97 0 174 10t153.5 37.5t131 73.5t95 121t56.5 177q7 42 7 84
q0 71 -23.5 126t-66 93t-108 64.5t-141.5 40.5t-174 21q-96 -11 -170.5 -28t-147 -49.5t-123 -78t-87.5 -114.5t-51 -159q-8 -53 -8 -91zM557 1484q0 -300 484 -334q85 12 153.5 29.5t138 49t119 73.5t86.5 105.5t49 144.5q7 49 7 79q0 88 -36 149t-103 93t-144 45t-178 13
q-88 0 -159.5 -9t-143.5 -34.5t-124 -66.5t-90 -109.5t-53 -159.5q-6 -36 -6 -68z" />
    <glyph glyph-name="nine.onum" horiz-adv-x="1805" 
d="M277 1268q24 155 77.5 269.5t127 187.5t176.5 117.5t215.5 62t255.5 17.5q166 0 282.5 -36.5t184 -108.5t97.5 -169t30 -230q0 -122 -28 -303q-30 -188 -63.5 -333t-79.5 -273.5t-102 -221.5t-132.5 -169.5t-168 -126t-211 -83.5t-260.5 -48.5t-317 -14.5q-46 0 -150 2
l8 161q33 1 100 3q110 3 166 5.5t156.5 11t156 21.5t140.5 38.5t135.5 60.5t114 88.5t104 121.5t78.5 160t62 204q-347 -45 -557 -45q-119 0 -210 12t-169 43t-128 82t-78 130.5t-28 186.5q0 79 15 177zM1110 1757q-319 0 -463.5 -112t-187.5 -382q-12 -75 -12 -135
q0 -81 22.5 -139t62 -94.5t105.5 -58t142 -29.5t182 -8q150 0 510 48q20 93 48 272q21 135 21 227q0 72 -11.5 131t-41.5 112.5t-77.5 89.5t-123.5 57t-176 21z" />
    <glyph glyph-name="dollar.onum" horiz-adv-x="1489" 
d="M1174 542q6 38 6 72q0 59 -19.5 107.5t-52.5 84.5t-88 68.5t-112.5 56t-139.5 50.5q-72 23 -122 41.5t-105.5 43.5t-92 49.5t-72 57.5t-55.5 71t-32.5 86.5t-12.5 105.5q0 45 10 113q42 267 199 392.5t437 146.5l46 289h153l-45 -284q244 -1 473 -43l-42 -156
q-215 34 -391 34q-90 0 -162 -5.5t-143.5 -19t-125 -38.5t-98.5 -61.5t-73 -90.5t-39 -124q-10 -60 -10 -111q0 -47 9 -83t33 -66t53 -52.5t82 -46.5t106.5 -42.5t138.5 -45.5q88 -28 154.5 -56t132 -69.5t107.5 -90.5t67.5 -118.5t25.5 -152.5q0 -47 -9 -103
q-42 -270 -202 -405.5t-440 -162.5l-46 -292h-154l44 284h-7q-282 0 -499 46l46 158q233 -39 471 -39q98 0 176 10t151.5 37t125.5 71.5t90 115.5t53 167z" />
    <glyph glyph-name="cent.onum" horiz-adv-x="1296" 
d="M784 220l-44 -281h-148l45 287q-116 14 -197.5 57.5t-128.5 114t-67.5 157t-20.5 196.5q0 125 28 301q23 148 53 257.5t79.5 206.5t117.5 161t166 107t226 58l45 289h148l-45 -280h11q171 0 327 -42l-38 -143q-148 24 -254 24q-76 0 -140 -5.5t-117.5 -18.5t-96.5 -29.5
t-78.5 -43.5t-62.5 -55.5t-49.5 -69.5t-38.5 -82t-30.5 -97.5t-25 -110.5t-21.5 -126q-31 -193 -31 -298q0 -94 22 -159.5t75 -115.5t147 -74t233 -24q87 0 270 35l-6 -152q-219 -41 -353 -44z" />
    <glyph glyph-name="Euro.onum" horiz-adv-x="1559" 
d="M678 1300h709l-56 -144h-681l-20 -122l-15 -98h633l-53 -143h-598q-13 -111 -13 -211q0 -114 22 -193.5t74.5 -137t141 -84.5t218.5 -27q128 0 324 34l-10 -153q-193 -45 -390 -45q-156 0 -264 34.5t-174.5 108t-96.5 181t-30 260.5q0 110 13 233h-227l53 143h191l15 98
l20 122h-205l56 144h178q47 212 110 356.5t158 245t226.5 146t311.5 45.5q197 0 377 -42l-40 -157q-189 35 -314 35q-103 0 -185.5 -17.5t-146.5 -54.5t-112 -87.5t-85.5 -123.5t-64.5 -155.5t-50 -190.5z" />
    <glyph glyph-name="sterling.onum" horiz-adv-x="1703" 
d="M540 968h-316l24 157h293q2 222 34 424q20 128 72 224.5t123 157t167.5 98t197 52t221.5 14.5q155 0 260 -47.5t185 -139.5l-116 -117q-145 136 -344 136q-123 0 -214.5 -17.5t-157 -52t-110 -90.5t-70.5 -126t-41 -167q-17 -108 -19 -349h483l-25 -157h-460
q-5 -137 -23 -249q-27 -170 -76 -281t-149 -269h573q225 0 458 33l-7 -156q-287 -46 -651 -46h-530q-48 0 -68.5 21.5t-14.5 57.5q4 24 42 85.5t83.5 131.5t92 179.5t63.5 216.5q18 118 20 276z" />
    <glyph glyph-name="yen.onum" horiz-adv-x="1573" 
d="M363 2073h197l304 -1050l647 1050h190l-698 -1129h299l-23 -147h-362l-31 -198h361l-23 -146h-361l-72 -453h-185l72 453h-353l23 146h353l32 198h-353l23 147h292z" />
    <glyph glyph-name="zero.tnum" 
d="M890 -24q-181 0 -306 39t-200.5 121t-108.5 198.5t-33 282.5q0 197 50 513q24 152 50 272.5t61 234t77 199.5t96.5 161t121.5 126.5t150.5 88.5t184.5 54.5t223 17.5q182 0 307 -39.5t201 -122t109.5 -200t33.5 -283.5q0 -202 -49 -509q-28 -174 -58.5 -308.5t-73 -258
t-96 -213t-125 -163.5t-161 -118.5t-202.5 -68.5t-252 -24zM1670 1130q56 349 56 511q0 92 -14 163t-47.5 131.5t-88.5 99.5t-139.5 60.5t-197.5 21.5q-120 0 -216.5 -25.5t-166.5 -66t-126 -114.5t-91.5 -145.5t-67 -186t-50 -209t-41.5 -240.5q-57 -359 -57 -516
q0 -115 22.5 -197.5t76.5 -146.5t149.5 -95.5t235.5 -31.5q120 0 216.5 25.5t167 66.5t126.5 114.5t92.5 146t68 185.5t50.5 209t42 240z" />
    <glyph glyph-name="one.tnum" 
d="M979 0l324 2044q-311 -89 -588 -132l16 166q166 26 340 77t302 105h150l-358 -2260h-186z" />
    <glyph glyph-name="two.tnum" 
d="M552 2222q356 62 656 62q668 0 668 -429q0 -53 -8 -101q-25 -154 -88 -279t-165 -221t-226 -169t-288 -138q-129 -51 -226.5 -110.5t-166.5 -124.5t-122 -151.5t-89.5 -175t-73.5 -212.5h1194l-27 -173h-1421q43 132 76 223t72.5 187.5t75.5 161.5t83.5 133.5t98.5 117
t117 97.5t142.5 88.5t172.5 78.5q133 54 237.5 111.5t199 133t153.5 170.5t76 206q8 53 8 92q0 171 -137 241.5t-449 70.5q-259 0 -549 -48z" />
    <glyph glyph-name="three.tnum" 
d="M1797 1760q-69 -435 -448 -569v-2q60 -16 115 -50.5t102 -87.5t75 -130.5t28 -168.5q0 -54 -8 -101q-24 -153 -80 -269t-136.5 -193t-192.5 -125t-239 -68t-285 -20q-315 0 -590 57l49 163q16 -2 78.5 -10.5t87 -11.5t79.5 -9.5t89.5 -9t81.5 -5t88 -2.5q145 0 255 14.5
t201.5 48t154 89t103.5 138.5t59 196q7 43 7 88q0 157 -95.5 250t-260.5 110q-137 14 -343 14q-17 0 -49.5 -0.5t-48.5 -0.5l25 154q226 5 448 37q185 27 304.5 141t145.5 277q9 57 9 104q0 59 -14.5 105.5t-39 78.5t-66 54.5t-84.5 35.5t-106.5 20.5t-120.5 9.5t-138 2
q-213 0 -533 -47l5 160q167 30 297 43.5t305 13.5q119 0 214 -9.5t188 -37t155 -73t100 -121t38 -177.5q0 -49 -9 -106z" />
    <glyph glyph-name="four.tnum" 
d="M1212 0l88 556h-1001q-157 0 -157 109q0 15 3 31q12 77 144 221l1130 1230q125 137 229 137q43 0 68 -25.5t25 -78.5q0 -18 -3 -41l-225 -1421h312l-25 -162h-312l-89 -556h-187zM1535 2039l-1208 -1321h999z" />
    <glyph glyph-name="five.tnum" 
d="M624 1336q167 10 268 10q112 0 199 -5t177 -18.5t155.5 -36.5t124.5 -60.5t96 -89.5t58.5 -124.5t21.5 -163.5q0 -71 -14 -164q-60 -376 -285 -542t-624 -166q-329 0 -619 59l47 163q262 -47 517 -47q152 0 262.5 16t201 53t151 101.5t100.5 158.5t61 226q9 55 9 103
q0 79 -23 139t-70.5 100t-107.5 66.5t-148 40t-177 19t-208 5.5q-204 0 -390 -11l246 1092h1244l-28 -172h-1075z" />
    <glyph glyph-name="six.tnum" 
d="M1818 687q-26 -168 -84.5 -293t-138.5 -204.5t-192.5 -127.5t-234.5 -67t-278 -19q-181 0 -307 39.5t-199.5 118t-106 184t-32.5 249.5q0 142 30 331q32 205 68.5 363t87 298.5t111.5 242t144 185t183 137.5t230.5 91.5t284 53t346.5 15.5q44 0 157 -2l-8 -163l-108 -3
q-120 -3 -181 -5.5t-171.5 -12.5t-172 -24.5t-154.5 -43t-149 -67.5t-126.5 -98.5t-115 -135.5t-86 -179t-66.5 -228q390 50 617 50q130 0 228.5 -13.5t184 -47t140.5 -89t85.5 -142t30.5 -202.5q0 -83 -17 -191zM908 144q239 0 386.5 56t226 173.5t110.5 318.5
q13 81 13 150q0 90 -25 154.5t-69 105.5t-117.5 64.5t-157.5 32t-202 8.5q-164 0 -564 -53q-27 -119 -55 -304q-23 -141 -23 -251q0 -80 13 -145t46 -124t86 -99t137 -63.5t195 -23.5z" />
    <glyph glyph-name="seven.tnum" 
d="M1922 2059l-1258 -2059h-209l1296 2091h-1267l27 169h1305q81 0 116.5 -28.5t26.5 -80.5q-6 -42 -37 -92z" />
    <glyph glyph-name="eight.tnum" 
d="M889 -24q-126 0 -228 14.5t-191 50t-149.5 90.5t-94.5 139t-34 194q0 69 11 136q19 122 64 218.5t111 164.5t141.5 113.5t168.5 78.5q-148 70 -214 172t-66 249q0 66 12 143q42 269 256 407t579 138q325 0 499.5 -114t174.5 -334q0 -43 -8 -97q-33 -210 -134.5 -343.5
t-318.5 -220.5q319 -125 319 -451q0 -56 -11 -128q-24 -148 -83.5 -259t-140 -179t-191.5 -109.5t-223 -57t-249 -15.5zM381 506q0 -85 28 -149.5t75 -104.5t117 -65t145.5 -34.5t169.5 -9.5q108 0 193.5 11t170 41.5t145 81.5t105.5 135t63 197q8 53 8 93q0 79 -26 140
t-73.5 103.5t-120 72t-157.5 45.5t-194 23q-106 -12 -189 -31t-163 -54.5t-135.5 -86.5t-96 -128t-56.5 -177q-9 -55 -9 -103zM591 1620q0 -331 536 -370q95 14 171 33t153.5 53.5t132 81.5t95 118t54.5 161q7 45 7 89q0 79 -27.5 138.5t-73 96.5t-113 59.5t-138.5 31
t-159 8.5q-97 0 -176.5 -10t-159.5 -38.5t-137.5 -74.5t-100 -122t-58.5 -178q-6 -41 -6 -77z" />
    <glyph glyph-name="nine.tnum" 
d="M320 1573q27 168 85 293t138 204.5t192 127.5t234 67t278 19q181 0 307.5 -39.5t200 -118t106 -184.5t32.5 -250q0 -141 -30 -330q-32 -205 -68.5 -363t-87 -298.5t-111.5 -242t-144 -185t-183 -137.5t-230.5 -91.5t-284 -53t-346.5 -15.5q-44 0 -158 2l9 163q36 1 107 3
q121 3 182 5.5t171.5 12.5t171.5 24.5t154.5 43t149.5 67.5t126 98.5t114.5 135.5t86 179t67.5 228q-392 -50 -617 -50q-130 0 -228.5 13.5t-184 47t-140.5 89t-85.5 142t-30.5 202.5q0 83 17 191zM1229 2116q-239 0 -386 -56t-225.5 -173.5t-110.5 -318.5q-13 -81 -13 -151
q0 -90 24.5 -154.5t68.5 -105t117.5 -64t157.5 -32t202 -8.5q165 0 565 53q20 87 55 304q23 140 23 250q0 80 -13 145t-46 124.5t-86 99.5t-137.5 63.5t-195.5 23.5z" />
    <glyph glyph-name="dollar.tnum" 
d="M1462 590q7 45 7 89q0 66 -20.5 119t-55 91t-95.5 72.5t-124.5 59.5t-160.5 56q-79 25 -134 45t-115.5 47t-100.5 53.5t-78 62.5t-60 76.5t-35 92.5t-13 114q0 54 11 126q23 148 79 255.5t146 176t205 105.5t267 48l50 316h154l-49 -311q260 -1 519 -46l-42 -157
q-234 36 -423 36q-85 0 -155 -4t-140.5 -15t-126 -29.5t-106 -47.5t-86.5 -68t-61.5 -93.5t-36.5 -121.5q-12 -72 -12 -127q0 -51 10 -90t35.5 -72.5t58 -58.5t90.5 -51t118.5 -47.5t155.5 -50.5q96 -30 169 -60.5t143 -75.5t115.5 -98.5t73 -128t27.5 -164.5q0 -52 -9 -112
q-46 -295 -221 -442t-481 -176l-50 -319h-155l49 311h-17q-173 0 -292 11t-246 38l46 160q245 -41 509 -41q110 0 196.5 11t168.5 41t139.5 79t99.5 128.5t59 186.5z" />
    <glyph glyph-name="cent.tnum" 
d="M1128 243l-49 -308h-149l50 314q-102 12 -180 45.5t-129.5 83.5t-84.5 120t-46.5 148.5t-13.5 174.5q0 135 30 328q21 134 47.5 237.5t65.5 199.5t91.5 165t123.5 124t164.5 88t210.5 46l50 316h149l-49 -307h18q180 0 350 -45l-37 -143q-143 26 -273 26q-94 0 -171 -8.5
t-139.5 -23.5t-112.5 -42.5t-88.5 -58t-69 -78t-52.5 -94.5t-40.5 -115t-31.5 -133t-27 -154q-33 -214 -33 -327q0 -104 24 -177.5t83 -129t163.5 -82.5t258.5 -27q111 0 289 37l-7 -153q-228 -45 -385 -47z" />
    <glyph glyph-name="Euro.tnum" 
d="M1490 1015l-54 -143h-658q-15 -142 -15 -234q0 -128 25 -217.5t82.5 -153.5t155.5 -94.5t242 -30.5q143 0 351 36l-10 -154q-213 -48 -421 -48q-332 0 -472.5 150.5t-140.5 484.5q0 119 15 261h-247l53 143h212l17 115q10 68 24 141h-223l53 144h199q51 232 119 390.5
t171.5 268.5t246.5 160t339 50q213 0 406 -45l-41 -158q-197 37 -338 37q-138 0 -243 -30t-180.5 -84t-131.5 -143.5t-93 -194.5t-68 -251h776l-55 -144h-749q-16 -92 -23 -141l-17 -115h693z" />
    <glyph glyph-name="sterling.tnum" 
d="M651 1063h-346l24 157h323q4 265 37 472q22 138 78 243t133.5 170.5t182.5 106.5t214.5 56.5t240.5 15.5q168 0 280.5 -50t198.5 -148l-117 -118q-154 145 -377 145q-170 0 -286.5 -29t-192 -93.5t-116.5 -155t-62 -225.5q-20 -126 -20 -355v-35h527l-25 -157h-505
q-5 -150 -26 -282q-16 -99 -38 -179t-58 -156t-67 -129.5t-89 -144.5h639q243 0 496 34l-7 -157q-318 -49 -708 -49h-580q-49 0 -70 21.5t-15 58.5q3 22 31 67.5t67.5 107t81 134.5t77.5 170t51 193q19 125 23 311z" />
    <glyph glyph-name="yen.tnum" 
d="M531 2260h200l338 -1162l714 1162h193l-764 -1238h331l-22 -147h-397l-37 -231h397l-24 -147h-396l-79 -497h-188l78 497h-389l24 147h388l37 231h-388l23 147h324z" />
    <glyph glyph-name="period.tnum" horiz-adv-x="985" 
d="M618 196q0 -28 -6 -67q-13 -87 -41 -120t-94 -33q-50 0 -70 19t-20 65q0 28 6 69q14 87 42.5 122t91.5 35q49 0 70 -21t21 -69z" />
    <glyph glyph-name="comma.tnum" horiz-adv-x="985" 
d="M168 -437l357 836h223l-419 -836h-161z" />
    <glyph glyph-name="colon.tnum" horiz-adv-x="985" 
d="M567 197q0 -29 -6 -68q-14 -87 -41.5 -120t-92.5 -33q-50 0 -71 19t-21 65q0 22 7 69q14 87 42.5 122t91.5 35q49 0 70 -20.5t21 -68.5zM631 1258q-50 0 -71 19t-21 64q0 23 7 70q14 87 42.5 122t90.5 35q49 0 70.5 -21t21.5 -69q0 -28 -6 -67q-14 -87 -41.5 -120
t-92.5 -33z" />
    <glyph glyph-name="semicolon.tnum" horiz-adv-x="985" 
d="M718 1258q-51 0 -71.5 19.5t-20.5 66.5q0 28 6 67q14 87 43 122t92 35q49 0 70 -21t21 -69q0 -28 -6 -67q-13 -86 -41 -119.5t-93 -33.5zM111 -437l357 836h222l-419 -836h-160z" />
    <glyph glyph-name="zero.onum_tnum" horiz-adv-x="1810" 
d="M825 -24q-169 0 -286 34.5t-187 106.5t-101 174t-31 247q0 161 40 411q23 146 49.5 259.5t64 218t85.5 180t112 137.5t145.5 100t185.5 58t231 20q170 0 287 -34.5t187.5 -106.5t101 -174.5t30.5 -248.5q0 -167 -39 -409q-23 -146 -49.5 -259.5t-64.5 -218t-85.5 -180
t-112 -137.5t-146.5 -100t-185.5 -58t-231.5 -20zM397 544q0 -99 20.5 -170.5t70 -126.5t137.5 -82t217 -27q76 0 141 9.5t118.5 29.5t98 45t80.5 63.5t64 77t51.5 93.5t40.5 105t32.5 119t26.5 128.5t24 140.5q43 269 43 401q0 100 -20.5 172t-70 127.5t-138 83
t-218.5 27.5q-108 0 -194.5 -21t-149.5 -54.5t-112.5 -93.5t-81.5 -119.5t-59 -152.5t-42.5 -172.5t-34.5 -197.5q-44 -279 -44 -405z" />
    <glyph glyph-name="one.onum_tnum" horiz-adv-x="1810" 
d="M912 0l267 1686q-307 -88 -578 -129l17 164q164 26 335.5 76t295.5 103h146l-301 -1900h-182z" />
    <glyph glyph-name="two.onum_tnum" horiz-adv-x="1810" 
d="M451 1871q342 51 636 51q656 0 656 -376q0 -30 -7 -79q-16 -104 -59.5 -193.5t-106.5 -159t-152 -130.5t-187.5 -107.5t-222.5 -89.5q-147 -52 -252 -112.5t-178 -138t-120 -164t-86 -205.5h1158l-27 -167h-1380q40 113 71 191.5t68.5 160.5t71.5 138.5t79 114.5t93.5 99
t111.5 82.5t136 74.5t165 65q101 36 184 72t163.5 83.5t137.5 98.5t96.5 115.5t50.5 135.5q6 34 6 64q0 143 -135 201.5t-442 58.5q-243 0 -532 -40z" />
    <glyph glyph-name="three.onum_tnum" horiz-adv-x="1810" 
d="M1638 1437q-30 -188 -132 -319.5t-265 -198.5q117 -36 199 -138t82 -259q0 -42 -8 -95q-22 -142 -73.5 -248.5t-125.5 -177.5t-176.5 -115t-219 -62.5t-262.5 -18.5q-291 0 -545 53l48 162q324 -45 464 -45q131 0 230 12.5t182 43t139 80.5t93.5 124.5t53.5 176.5
q6 39 6 76q0 140 -86.5 225.5t-233.5 100.5q-124 13 -300 13q-17 0 -52.5 -0.5t-54.5 -0.5l24 152q223 6 415 34q165 24 273 127t131 248q8 54 8 93q0 53 -13.5 94.5t-35 70t-59 49t-76.5 32t-96.5 18t-109 8.5t-124.5 2q-205 0 -492 -43l6 158q151 28 273 40.5t283 12.5
q110 0 197 -9t172.5 -34.5t142 -67t91.5 -112t35 -164.5q0 -42 -8 -98z" />
    <glyph glyph-name="four.onum_tnum" horiz-adv-x="1810" 
d="M1091 -173l79 507h-906q-147 0 -147 103q0 15 3 30q12 76 132 206l1030 1122q118 127 214 127q90 0 90 -98q0 -11 -4 -41l-204 -1289h285l-25 -160h-286l-80 -507h-181zM1383 1673l-1078 -1179h891z" />
    <glyph glyph-name="five.onum_tnum" horiz-adv-x="1810" 
d="M1704 1731h-980q-22 -97 -76.5 -337t-75.5 -337q138 9 237 9q79 0 143.5 -2.5t131.5 -9.5t120.5 -18.5t105.5 -29.5t90.5 -43t72.5 -59.5t55 -77.5t33 -98t12 -120q0 -72 -13 -151q-55 -346 -262 -499t-574 -153q-295 0 -572 55l47 161q236 -44 476 -44q172 0 288.5 22.5
t203.5 79.5t136.5 153t72.5 244q8 53 8 91q0 71 -20.5 125t-64 90.5t-97.5 60.5t-133.5 36.5t-160.5 17.5t-188 5q-193 0 -362 -11l227 1009h1146z" />
    <glyph glyph-name="six.onum_tnum" horiz-adv-x="1810" 
d="M1670 630q-24 -155 -77.5 -269.5t-126.5 -187.5t-176 -117.5t-215.5 -62t-256.5 -17.5q-166 0 -282 36.5t-184 108.5t-98 169t-30 230q0 132 28 303q30 188 63.5 333t79.5 273.5t102 221.5t132.5 169.5t168 126t211 83.5t260.5 48.5t317 14.5q46 0 150 -2l-9 -161
q-33 -1 -100 -3q-110 -3 -165.5 -5.5t-156 -11t-156 -21.5t-140.5 -38.5t-135.5 -60.5t-114 -88.5t-104 -121.5t-78 -160t-61.5 -204q347 45 556 45q119 0 209.5 -12t169 -43t129 -81.5t78.5 -129.5t28 -186q0 -83 -16 -179zM476 1051q-20 -93 -48 -272q-21 -135 -21 -226
q0 -73 11.5 -131.5t41.5 -112t77.5 -89.5t123.5 -57.5t176 -21.5q319 0 463.5 112t187.5 382q12 75 12 135q0 81 -22.5 139t-62 94.5t-105.5 58t-142 29.5t-182 8q-150 0 -510 -48z" />
    <glyph glyph-name="seven.onum_tnum" horiz-adv-x="1810" 
d="M1750 1708l-1148 -1881h-204l1182 1906h-1153l27 167h1195q77 0 111 -28t25 -78q-6 -40 -35 -86z" />
    <glyph glyph-name="eight.onum_tnum" horiz-adv-x="1810" 
d="M1642 670q0 -59 -10 -122q-18 -114 -58 -204.5t-99.5 -152.5t-130 -105t-159 -66.5t-176 -33.5t-191.5 -10q-116 0 -210 13.5t-176 46t-137.5 83.5t-87 128.5t-31.5 178.5q0 61 10 125q18 112 57.5 200t97.5 149.5t124.5 103t150.5 72.5q-129 64 -186 156.5t-57 224.5
q0 59 11 133q40 248 236.5 375.5t532.5 127.5q297 0 458 -105t161 -308q0 -47 -7 -90q-30 -189 -120.5 -311t-281.5 -204q279 -110 279 -405zM360 468q0 -77 25 -135t67.5 -94.5t105.5 -59t131.5 -31t153.5 -8.5q97 0 174 10t153.5 37.5t131 73.5t95 121t56.5 177q7 42 7 84
q0 71 -23.5 126t-66 93t-108 64.5t-141.5 40.5t-174 21q-96 -11 -170.5 -28t-147 -49.5t-123 -78t-87.5 -114.5t-51 -159q-8 -53 -8 -91zM551 1484q0 -300 484 -334q85 12 153.5 29.5t138 49t119 73.5t86.5 105.5t49 144.5q7 49 7 79q0 88 -36 149t-103 93t-144 45t-178 13
q-88 0 -159.5 -9t-143.5 -34.5t-124 -66.5t-90 -109.5t-53 -159.5q-6 -36 -6 -68z" />
    <glyph glyph-name="nine.onum_tnum" horiz-adv-x="1810" 
d="M280 1268q24 155 77.5 269.5t127 187.5t176.5 117.5t215.5 62t255.5 17.5q166 0 282.5 -36.5t184 -108.5t97.5 -169t30 -230q0 -122 -28 -303q-30 -188 -63.5 -333t-79.5 -273.5t-102 -221.5t-132.5 -169.5t-168 -126t-211 -83.5t-260.5 -48.5t-317 -14.5q-46 0 -150 2
l8 161q33 1 100 3q110 3 166 5.5t156.5 11t156 21.5t140.5 38.5t135.5 60.5t114 88.5t104 121.5t78.5 160t62 204q-347 -45 -557 -45q-119 0 -210 12t-169 43t-128 82t-78 130.5t-28 186.5q0 79 15 177zM1113 1757q-319 0 -463.5 -112t-187.5 -382q-12 -75 -12 -135
q0 -81 22.5 -139t62 -94.5t105.5 -58t142 -29.5t182 -8q150 0 510 48q20 93 48 272q21 135 21 227q0 72 -11.5 131t-41.5 112.5t-77.5 89.5t-123.5 57t-176 21z" />
    <glyph glyph-name="dollar.onum_tnum" horiz-adv-x="1810" 
d="M1335 542q6 38 6 72q0 59 -19.5 107.5t-52.5 84.5t-88 68.5t-112.5 56t-139.5 50.5q-72 23 -122 41.5t-105.5 43.5t-92 49.5t-72 57.5t-55.5 71t-32.5 86.5t-12.5 105.5q0 45 10 113q42 267 199 392.5t437 146.5l46 289h153l-45 -284q244 -1 473 -43l-42 -156
q-215 34 -391 34q-90 0 -162 -5.5t-143.5 -19t-125 -38.5t-98.5 -61.5t-73 -90.5t-39 -124q-10 -60 -10 -111q0 -47 9 -83t33 -66t53 -52.5t82 -46.5t106.5 -42.5t138.5 -45.5q88 -28 154.5 -56t132 -69.5t107.5 -90.5t67.5 -118.5t25.5 -152.5q0 -47 -9 -103
q-42 -270 -202 -405.5t-440 -162.5l-46 -292h-154l44 284h-7q-282 0 -499 46l46 158q233 -39 471 -39q98 0 176 10t151.5 37t125.5 71.5t90 115.5t53 167z" />
    <glyph glyph-name="cent.onum_tnum" horiz-adv-x="1810" 
d="M1041 220l-44 -281h-148l45 287q-116 14 -197.5 57.5t-128.5 114t-67.5 157t-20.5 196.5q0 125 28 301q23 148 53 257.5t79.5 206.5t117.5 161t166 107t226 58l45 289h148l-45 -280h11q171 0 327 -42l-38 -143q-148 24 -254 24q-76 0 -140 -5.5t-117.5 -18.5t-96.5 -29.5
t-78.5 -43.5t-62.5 -55.5t-49.5 -69.5t-38.5 -82t-30.5 -97.5t-25 -110.5t-21.5 -126q-31 -193 -31 -298q0 -94 22 -159.5t75 -115.5t147 -74t233 -24q88 0 270 35l-6 -152q-219 -41 -353 -44z" />
    <glyph glyph-name="Euro.onum_tnum" horiz-adv-x="1810" 
d="M804 1300h709l-56 -144h-681l-20 -122l-15 -98h633l-53 -143h-598q-13 -111 -13 -211q0 -114 22 -193.5t74.5 -137t141 -84.5t218.5 -27q128 0 324 34l-10 -153q-193 -45 -390 -45q-156 0 -264 34.5t-174.5 108t-96.5 181t-30 260.5q0 110 13 233h-227l53 143h191l15 98
l20 122h-205l56 144h178q47 212 110 356.5t158 245t226.5 146t311.5 45.5q197 0 377 -42l-40 -157q-189 35 -314 35q-103 0 -185.5 -17.5t-146.5 -54.5t-112 -87.5t-85.5 -123.5t-64.5 -155.5t-50 -190.5z" />
    <glyph glyph-name="sterling.onum_tnum" horiz-adv-x="1810" 
d="M594 968h-316l24 157h293q2 222 34 424q20 128 72 224.5t123 157t167.5 98t197 52t221.5 14.5q155 0 260 -47.5t185 -139.5l-116 -117q-145 136 -344 136q-123 0 -214.5 -17.5t-157 -52t-110 -90.5t-70.5 -126t-41 -167q-17 -108 -19 -349h483l-25 -157h-460
q-5 -137 -23 -249q-27 -170 -76 -281t-149 -269h573q225 0 458 33l-7 -156q-287 -46 -651 -46h-530q-48 0 -68.5 21.5t-14.5 57.5q4 24 42 85.5t83.5 131.5t92 179.5t63.5 216.5q18 118 20 276z" />
    <glyph glyph-name="yen.onum_tnum" horiz-adv-x="1810" 
d="M482 2073h197l304 -1050l647 1050h190l-698 -1129h299l-23 -147h-362l-31 -198h361l-23 -146h-361l-72 -453h-185l72 453h-353l23 146h353l32 198h-353l23 147h292z" />
    <glyph glyph-name="parenleft.case" horiz-adv-x="955" 
d="M660 -245l-129 -97q-303 357 -303 974q0 242 45 528q28 176 66.5 334.5t99.5 324t139.5 309.5t187.5 283t241 252l98 -97q-116 -101 -215 -239.5t-166 -279t-121.5 -303.5t-86 -301t-54.5 -283q-45 -280 -45 -535q0 -578 243 -870z" />
    <glyph glyph-name="parenright.case" horiz-adv-x="957" 
d="M443 2566l129 97q303 -357 303 -976q0 -241 -45 -527q-28 -176 -66.5 -334t-99.5 -324t-139.5 -310t-187.5 -282.5t-241 -251.5l-99 97q117 101 215.5 239.5t166 279t122 303.5t86 300.5t54.5 282.5q45 282 45 535q0 579 -243 871z" />
    <glyph glyph-name="bracketleft.case" horiz-adv-x="945" 
d="M753 2483l-417 -2633h352l-26 -161h-528l467 2952h530l-25 -158h-353z" />
    <glyph glyph-name="bracketright.case" horiz-adv-x="947" 
d="M404 2483l25 158h531l-467 -2952h-529l25 161h351l417 2633h-353z" />
    <glyph glyph-name="braceleft.case" horiz-adv-x="960" 
d="M548 543l-28 -180q-14 -90 -14 -163q0 -297 218 -343l-40 -148q-85 19 -148 50t-112.5 81t-75 127t-25.5 179q0 81 14 166q43 279 43 430q0 155 -42.5 239t-138.5 111l23 149q159 41 242 217.5t143 562.5q23 148 71.5 256t121 176.5t155 108t190.5 61.5l-6 -148
q-293 -60 -365 -506l-29 -180q-12 -77 -26 -140.5t-42 -144.5t-62.5 -141.5t-90 -115t-123.5 -81.5q169 -86 169 -380q0 -95 -22 -243z" />
    <glyph glyph-name="braceright.case" horiz-adv-x="961" 
d="M-36 -291l7 148q154 31 243 164.5t121 341.5l28 180q79 508 344 623q-171 78 -171 370q0 99 24 253l29 180q14 89 14 163q0 296 -218 343l40 148q85 -19 148 -49.5t112.5 -81t75 -127t25.5 -178.5q0 -81 -14 -166q-43 -280 -43 -431q0 -155 42.5 -238.5t138.5 -110.5
l-23 -149q-159 -42 -241.5 -218.5t-143.5 -561.5q-19 -119 -55 -212.5t-83.5 -158.5t-112 -112t-133.5 -74.5t-154 -45.5z" />
    <glyph glyph-name="questiondown.case" horiz-adv-x="1618" 
d="M1046 1639h164l-30 -197q-1 -8 -5 -39.5t-6 -44.5q-12 -78 -46.5 -131.5t-82.5 -82.5t-107.5 -47.5t-124 -31t-129 -27t-125.5 -42.5t-111 -71t-88 -118t-54 -178q-15 -93 -15 -164q0 -79 20.5 -134t63 -93.5t116.5 -60.5t172 -31.5t238 -9.5q219 0 486 47l9 -162
q-291 -57 -587 -57q-98 0 -174.5 4.5t-153.5 17.5t-133.5 35t-107 57.5t-81.5 84.5t-49 117t-18 154q0 79 15 178q22 139 70 242t95 159t131.5 97.5t131 54.5t142.5 33q81 17 122 29t96 39t83.5 72.5t40.5 113.5zM1098 2122q0 28 6 67q14 86 42 119.5t92 33.5q51 0 72 -19
t21 -65q0 -22 -7 -69q-14 -87 -43 -122t-92 -35q-49 0 -70 21t-21 69z" />
    <glyph glyph-name="exclamdown.case" horiz-adv-x="689" 
d="M670 2257q0 -27 -6 -68q-14 -87 -42.5 -122t-91.5 -35q-49 0 -70 20.5t-21 68.5q0 29 6 68q14 87 41.5 120t92.5 33q50 0 70.5 -19.5t20.5 -65.5zM93 -12l294 1651h162l-230 -1651h-226z" />
    <glyph glyph-name="at.case" horiz-adv-x="3050" 
d="M1409 -24q-577 0 -869 216t-292 681q0 138 25 292q41 258 131 456.5t222.5 336.5t314.5 227t398 129t482 40q113 0 202.5 -20.5t161.5 -66t111 -125.5t39 -191q0 -57 -10 -117l-118 -751q-24 -150 -55 -296q-304 -136 -653 -136q-284 0 -416.5 95.5t-132.5 294.5
q0 55 11 124q33 210 163 343.5t340 176.5q183 37 664 52q16 102 16 167q0 158 -83.5 221.5t-281.5 63.5q-224 0 -404 -31.5t-337.5 -104.5t-271 -190t-193 -292t-116.5 -406q-22 -139 -22 -261q0 -168 44.5 -297t126.5 -217t206.5 -144t277 -80.5t345.5 -24.5
q221 0 399.5 32.5t333 106.5t267 191.5t191 291.5t114.5 402q30 198 29 333l186 53q3 -170 -31 -386q-50 -313 -172.5 -541t-316 -370.5t-447.5 -210t-579 -67.5zM2043 1197l61 385q-447 -8 -603 -46q-310 -73 -356 -365q-8 -53 -8 -91q0 -148 98 -207.5t301 -59.5
q213 0 455 88q34 177 52 296z" />
    <glyph glyph-name="guilsinglleft.case" horiz-adv-x="951" 
d="M431 1164l305 -643h-193l-345 643l548 644h193z" />
    <glyph glyph-name="guilsinglright.case" horiz-adv-x="950" 
d="M888 1164l-548 -643h-193l509 643l-305 644h193z" />
    <glyph glyph-name="guillemotleft.case" horiz-adv-x="1494" 
d="M432 1164l304 -643h-193l-345 643l548 644h193zM975 1164l305 -643h-193l-345 643l548 644h192z" />
    <glyph glyph-name="guillemotright.case" horiz-adv-x="1494" 
d="M888 1164l-548 -643h-193l508 643l-304 644h192zM1432 1164l-549 -643h-192l507 643l-304 644h193z" />
    <glyph glyph-name="hyphen.case" horiz-adv-x="1319" 
d="M298 1080l27 169h835l-27 -169h-835z" />
    <glyph glyph-name="endash.case" horiz-adv-x="2061" 
d="M298 1086l25 157h1575l-25 -157h-1575z" />
    <glyph glyph-name="emdash.case" horiz-adv-x="3582" 
d="M298 1086l25 157h3096l-25 -157h-3096z" />
    <glyph glyph-name="periodcentered.case" horiz-adv-x="692" 
d="M305 1094q0 29 6 68q14 87 42.5 122.5t91.5 35.5q49 0 70 -21t21 -69q0 -29 -6 -68q-14 -87 -41.5 -120t-92.5 -33q-50 0 -70.5 19.5t-20.5 65.5z" />
    </font>
</defs>
</svg>
